<svg xmlns="http://www.w3.org/2000/svg" viewBox="0 0 146.91 78.33"><defs><style>.cls-1{fill:#fff;}</style></defs><title>calm cloud 1</title><g id="Layer_2" data-name="Layer 2"><g id="Layer_1-2" data-name="Layer 1"><path class="cls-1" d="M.77,58.6S11.49,60.16,14,69.91l9.45-2.57,5.52,5.11,7.85-3L42,75.29l6,1.47s3.88-4.92,11.56-2c0,0,8.8-5.69,32.77-3.88l11.9,4.4,9.52-3.1,11.26,1.72,12.42-7.07,8.54-.78s-3.28-10.35-8.88-9.75c0,0-4.74-11.76-10.69-4.24,0,0-7.2-13.25-17.87-2.52l-4.47,1.92-5.43-6.11s13-12.59-6.64-14.75l-8-.55,1.9-3.44-11.3-9.89S77.19,9,65.77,9.91c0,0-7-11.38-10.37-7.5,0,0-3.24,2.16-2.92,8.88,0,0-1.31,3.79-12.87,1.12,0,0-4.49,2-3.28,8.06l-5.08,6.86.17,4-7.5-.09-2.16,5S15.55,34,9.51,41.41l-3,8.7L.77,55.28Z"/><path d="M96.32,47.65h0"/><path d="M96.3,48.45v0"/><path d="M96.3,48.45v0c0,.36,0,.33,0,0"/><path d="M73.44,14.34c0-.13.05-.27.08-.4-.07.18-.12.34-.08.4"/><path d="M67.16,26.31h0"/><path d="M66.05,25h0c-.09-.08-.26-.18,0,0"/><path d="M49,58.58v0s0-.1,0-.17,0,0,0,0,0,.08,0,.11"/><path d="M54.79,45.77c-.19-.4-.43-.86-.58-1.28a16.58,16.58,0,0,1-.53-1.9c-.28-1.2-.46-2.44-.81-3.62-.07-.22-.26-.47-.48-.25a1.09,1.09,0,0,0-.13,1c.38,1.26.56,2.55.86,3.84a14.93,14.93,0,0,0,.55,1.89,5.14,5.14,0,0,0,.36.8.78.78,0,0,0,.56.43c.32.07.24-.72.18-.86"/><path d="M64.84,50.58a3.71,3.71,0,0,0-.31-.82,13.48,13.48,0,0,1-.68-1.59,27.74,27.74,0,0,1-.94-3.42c0-.23-.27-.47-.48-.25a1.12,1.12,0,0,0-.12,1,26.45,26.45,0,0,0,1.1,3.86c.23.59.52,1.15.78,1.73.09.21.13.55.4.62h.05l.1,0a.5.5,0,0,0,.21-.19c.1-.16.23-.87-.1-.9"/><path d="M67.25,51.27a6,6,0,0,0-.6-1.58c-.23-.6-.41-1.23-.59-1.85a35.06,35.06,0,0,0-1.17-3.74c-.11-.27-.37-.23-.49,0a1.2,1.2,0,0,0,0,1,36.94,36.94,0,0,1,1.15,3.75c.18.63.38,1.25.63,1.86.12.3.46,1.32.92,1.16.19-.07.18-.44.17-.58"/><path d="M69.65,50.55s0,0,0,0l0-.06h0l-.11-.17-.06-.09c.05.08,0,0,0,0l-.16-.26a12.21,12.21,0,0,1-.62-1.39c-.39-1-.77-2.15-1.17-3.21a6.35,6.35,0,0,0-.53-1.23c-.15-.23-.36-.27-.49,0a1.15,1.15,0,0,0,0,1,2.75,2.75,0,0,1,.2.39c.11.24.15.36.21.52.21.55.4,1.11.6,1.66A21.44,21.44,0,0,0,68.78,51c.15.27.47.84.87.6a.73.73,0,0,0,0-1"/><path d="M56.85,56.28a.69.69,0,0,0-.24-.29,1.62,1.62,0,0,0-.22-.07l-.27-.11a2.84,2.84,0,0,0,.3-1,2.78,2.78,0,0,0-.73-2.56,4.86,4.86,0,0,0-3.25-1,5.32,5.32,0,0,0-3,1.37c-2.22,1.92-2.81,5.18-2.2,7.94a7.26,7.26,0,0,0,2.66,4.09c.26.21.64,0,.81-.21a2.46,2.46,0,0,0,.48-1.25,5,5,0,0,0,0-.75,9,9,0,0,0,1.45.34l.27,0a.44.44,0,0,0,.44-.36,1,1,0,0,0-.16-.93.53.53,0,0,0-.34-.11,7.2,7.2,0,0,1-1.4-.29c-.26-.08-.52-.16-.78-.26a1.71,1.71,0,0,0-.24-.24l0,0-.14-.13-.27-.27c-.06-.07-.6-.61-.55-.68s.16.27.08.12l-.1-.17-.16-.3L49.16,59c0-.09-.06-.18-.09-.27v0s0-.09,0-.14,0,0,0,.05h0V58.5a8.1,8.1,0,0,0,3.2,1.8l.43.16c.24.08.44.15.58-.11a1,1,0,0,0,0-.87.73.73,0,0,0-.51-.39c-.62-.23-1.26-.44-1.86-.73a5.47,5.47,0,0,1-1.46-1l0,0,0,0v0a7.63,7.63,0,0,1,.77-.87l.08-.07c.8.52,1.62,1,2.45,1.49l1.27.67.65.32a2.32,2.32,0,0,0,.34.15c.16,0,.24,0,.35-.12a.85.85,0,0,0,.1-.76.82.82,0,0,0-.23-.4,1.65,1.65,0,0,0-.33-.18l-.65-.31L53,56.52c-.5-.27-1-.57-1.47-.86l.3-.12h0l.11,0,.36-.06a4,4,0,0,1,.71,0l.36,0a11.27,11.27,0,0,0,1.36,1,7.75,7.75,0,0,0,1,.55,3.49,3.49,0,0,0,.47.18,1.23,1.23,0,0,0,.27.07.4.4,0,0,0,.29-.18.89.89,0,0,0,.06-.87"/><path d="M68.6,66.22h0"/><path d="M68.6,66h0a.26.26,0,0,0,0,0h0s0,0,0-.06"/><path d="M70.85,64.84l0,0c-.05,0,0,0,0,0"/><path d="M53.18,70.89h0"/><path d="M53.18,70.92a.09.09,0,0,1,0,0s0,.06,0,0"/><path d="M53.18,70.89v0c0-.07,0,0,0,0"/><path d="M95,52.69h0"/><polyline points="95.03 53.98 95.03 53.98 95.03 53.98 95.03 53.98 95.03 53.98"/><path d="M96.69,58.72a.38.38,0,0,0-.31-.12.87.87,0,0,0-.29.09,2.79,2.79,0,0,0-.41.26c-.29.21-.55.45-.82.68l.08-.07-.22.18a.93.93,0,0,0-.24.86.77.77,0,0,0,.16.42c.07.06.18.14.27.07.24-.19.48-.4.71-.6l-.08.07a5.09,5.09,0,0,1,.55-.41c.25-.16.53-.28.67-.56a.92.92,0,0,0,.08-.47.64.64,0,0,0-.13-.41"/><path d="M96.32,61.22a.62.62,0,0,0-.13-.3c-.06-.06-.15-.12-.24-.06a2.15,2.15,0,0,0-.3.22l-.22.22-.44.44a.49.49,0,0,0-.1.18.78.78,0,0,0-.06.24,1.08,1.08,0,0,0,0,.28.92.92,0,0,0,0,.26l.05.14a.41.41,0,0,0,.15.18l.09,0a.23.23,0,0,0,.18-.09l.44-.44.22-.21a1.09,1.09,0,0,0,.1-.13l.11-.15a1,1,0,0,0,.13-.79"/><path d="M96.76,56.52c-.06-.11-.16-.24-.29-.24a.83.83,0,0,0-.34.14,6.42,6.42,0,0,0-1,.75c-.34.29-.67.61-1,.9a.76.76,0,0,0-.16.41c-.11-.32-.23-.64-.35-.92l.46-.38.34-.29.16-.14,0,0h0l.09-.07c.22-.18.45-.36.69-.52l.37-.23a1.29,1.29,0,0,0,.44-.33,1,1,0,0,0,.15-.62,1,1,0,0,0-.06-.29c0-.07-.08-.2-.16-.22a.38.38,0,0,0-.3,0l-.19.09a3.6,3.6,0,0,0-.38.23,8.63,8.63,0,0,0-.73.55c-.48.39-.91.8-1.37,1.16a.53.53,0,0,0-.08.1c-.15-.25-.31-.5-.49-.74l.28-.24.33-.28.08-.06.06-.05.06-.05.09-.07a6.84,6.84,0,0,1,1.36-.95L95,54,95,54h0l.06,0h0c.29.08.32-.55.3-.7a.71.71,0,0,0-.27-.54l-.08,0-.07,0h0l-.08,0a1.48,1.48,0,0,0-.67.3,14.72,14.72,0,0,0-1.55,1.23l-.36.31-.15.13-.06,0h0a.69.69,0,0,0-.19.29c-.1-.11-.2-.23-.31-.34a.23.23,0,0,0,.24-.07l.08-.07,0,0,.06,0,.07-.05.32-.25.64-.46a10.44,10.44,0,0,0,1.1-.89h0c-.15,0,.08,0,.06,0l.05,0,.1-.05a.8.8,0,0,0,.26-.66c0-.21,0-.54-.25-.66a.42.42,0,0,0-.22,0c-.15,0-.24.12-.34.22a4.63,4.63,0,0,1-.4.35c-.64.51-1.34.94-1.95,1.48a.8.8,0,0,0-.16.42,1.29,1.29,0,0,0,0,.54l.06.15-.12-.12a6.35,6.35,0,0,0-1.23-.86c.16-.31.33-.61.49-.92a1.49,1.49,0,0,0,.12-.31s0-.08,0-.12,0,0,0-.07a1,1,0,0,0,0-.5v.06a.72.72,0,0,0,0-.18.39.39,0,0,0-.13-.15.22.22,0,0,0-.21,0c-.18.09-.27.32-.36.48-.21.38-.41.77-.59,1.16l-.08.2A4.78,4.78,0,0,0,88,52.89,4.12,4.12,0,0,0,85,54.11a8.41,8.41,0,0,0-1.18,1.4c-.2.29-.39.58-.58.87l-.12.18-.18.28-.3.46a3.42,3.42,0,0,0-.38,2.87,1.56,1.56,0,0,0,.63,1,.64.64,0,0,0,.81-.21l.32-.49L84.3,60l0,0c.19-.29.38-.58.58-.87A10.34,10.34,0,0,1,86,57.77l.05,0,.1-.08.33-.22a3.26,3.26,0,0,1,.41-.2l.2-.07a3.59,3.59,0,0,1,1.82.07,3.41,3.41,0,0,1,.73.33l.31.2s.4.3.25.18a7.43,7.43,0,0,1,1.28,1.42l.11.17,0,0c.08.14.16.28.24.42s.16.32.24.49.15.48,0,.07c0,.15.09.3.14.46h0v0a3.22,3.22,0,0,0,.16,1.23c.24.87,1.08,1.45,1.6.41a4.92,4.92,0,0,0,.18-3.29.23.23,0,0,0,.26-.07c.3-.26.6-.54.89-.8l.11-.1.05,0h0l.23-.19a5.3,5.3,0,0,1,.49-.34l.24-.13a.72.72,0,0,0,.34-.59,1,1,0,0,0-.08-.57"/><path d="M97.41,37.11c-.06-.21-.24-.45-.46-.24a4.59,4.59,0,0,0-.95,1.9A11.56,11.56,0,0,0,95.59,41a32.39,32.39,0,0,0-.1,3.43,11.45,11.45,0,0,0-1.1-1.13c.1-.79.13-1.59.2-2.38a10.71,10.71,0,0,1,.2-1.46,4.9,4.9,0,0,1,.33-1c.16.06.23-.2.26-.41,0,0,0,0,0,0a.7.7,0,0,0,0-.13,1.07,1.07,0,0,0-.07-.68c-.18-.34-.48-.17-.64.1a6.45,6.45,0,0,0-.67,2.11c-.19,1.11-.2,2.24-.33,3.36a12.2,12.2,0,0,0-1-.72,9.77,9.77,0,0,1,.13-1.67,9.38,9.38,0,0,1,.21-1c0-.13.08-.26.12-.38.11.05.21,0,.27-.13a.92.92,0,0,0,0-.67L93.4,38a.9.9,0,0,0-.13-.55c-.14-.2-.33-.17-.45.05a5.65,5.65,0,0,0-.39,1.15c-.11.43-.2.88-.27,1.32A13.33,13.33,0,0,0,92,41.63a11,11,0,0,0-1.2-.55c.16-.68.29-1.36.41-2,.07-.39.13-.77.2-1.16l.11-.58c0-.14.05-.29.07-.36h0a1.16,1.16,0,0,0,0-.68c-.06-.18-.16-.38-.38-.31s-.24.35-.28.48-.09.44-.13.66c-.08.41-.15.83-.22,1.24-.14.8-.27,1.6-.47,2.38,0,0,0,.09,0,.13a11.31,11.31,0,0,0-1.32-.33c-.17,0-.33,0-.5-.05.08-.46.16-.92.24-1.39s.17-1,.25-1.5l.05,0a.61.61,0,0,0,.13-.38L89,37a1.32,1.32,0,0,0,0-.38.79.79,0,0,0-.34-.57c-.18-.13-.35.19-.39.31-.18.75-.28,1.53-.4,2.3q-.14.86-.29,1.72a10.62,10.62,0,0,0-1.63,0c0-.17,0-.34.06-.51,0-.36.11-.72.19-1.08s.24-.95.38-1.43A.7.7,0,0,0,86.7,37c0-.15.05-.3.07-.45a1,1,0,0,0-.16-.78.24.24,0,0,0-.42.11,15.7,15.7,0,0,0-.68,2.49,15.2,15.2,0,0,0-.28,2.09l-.14,0-.94.18c.13-.54.22-1.09.3-1.64,0-.29.09-.57.14-.86l0-.23,0-.11,0-.08h0c.14,0,.23-.26.25-.33a1,1,0,0,0,0-.38v0a1.38,1.38,0,0,0,0-.39c-.06-.2-.19-.42-.43-.32s-.3.39-.35.61-.11.5-.16.76c-.08.43-.14.86-.21,1.29,0,.22-.07.44-.11.66l0,.13,0,.11,0,.11,0,.2a1.44,1.44,0,0,0,0,.66,7.07,7.07,0,0,0-.74.25c0-.64,0-1.29,0-1.93,0-.21,0-.43,0-.64,0-.05,0-.11,0-.16s0-.06,0-.09v-.21a3.52,3.52,0,0,0,0-1.28c0-.12-.1-.25-.24-.27-.73-.1-.57,3.75-.53,4.95a2.23,2.23,0,0,0-.87.95c-.39.89-.47,2.4.4,3.06.56.42,1.29-.12,1.86-.33a9.7,9.7,0,0,1,1.65-.44,10.75,10.75,0,0,1,3.52,0,9.72,9.72,0,0,1,5.9,3.47c.61.74,1.26-.16,1.43-.75a4,4,0,0,0,.14-1.48,1.31,1.31,0,0,0,.11-.49c0-1.29-.06-2.59,0-3.87a10.46,10.46,0,0,1,.32-1.91,5.78,5.78,0,0,1,.52-1.21c.13.23.37.08.39-.2a2.81,2.81,0,0,0-.07-1.11"/><path d="M100,41.41c0-.1,0-.05,0,0"/><path d="M99.12,42s0-.14,0,0"/><path d="M81.36,39.83c-.05-.37-.11-.74-.17-1.11s-.08-.45-.13-.67a1.67,1.67,0,0,0-.25-.61.16.16,0,0,0-.25,0,.55.55,0,0,0-.16.36,2.63,2.63,0,0,0,0,.27v.12c0-.1,0-.06,0,.13s0,.19,0,.29.05.36.08.53c.06.36.11.73.16,1.09a.83.83,0,0,0,.16.42.22.22,0,0,0,.27.07c.26-.15.28-.6.24-.86"/><path d="M79.53,39.52s-.07-.2,0,0l0-.11-.09-.25c-.05-.16-.1-.32-.15-.49l-.06-.23v0l0-.11c0-.21,0-.43-.1-.64s-.22-.45-.42-.27a.86.86,0,0,0-.2.71,5.1,5.1,0,0,0,.2,1.26A10.71,10.71,0,0,0,79,40.51a.32.32,0,0,0,.25.2c.11,0,.2-.11.25-.2a1.25,1.25,0,0,0,0-1"/><path d="M77.54,39.37c-.21,0-.21.6,0,.6s.21-.6,0-.6"/><path d="M61.23,23.86h0"/><path d="M65.86,25h0"/><path d="M68,22.33a9.45,9.45,0,0,0-3.53-2.67,7.24,7.24,0,0,0-4-.72,3.75,3.75,0,0,0-2.07,1A5.24,5.24,0,0,0,57,22.88a3.76,3.76,0,0,0,.11,1.61,1.62,1.62,0,0,0,.62,1c.74.38,1.11-.67,1.24-1.27l0-.16,0-.06,0-.09c.07-.08.13-.17.2-.24l.06-.06a2.93,2.93,0,0,1,.29-.19l.34-.16.16-.06.19,0c-.26.27-.52.55-.76.83s-.37.42-.57.61a.81.81,0,0,0-.16.42,1.27,1.27,0,0,0,0,.54c.07.22.25.48.48.25s.69-.76,1-1.13c.19-.21.38-.41.58-.6l.14-.13.06-.06,0,0,0,0a2.74,2.74,0,0,1,.25-.18.93.93,0,0,0,.19-.15h0l0,0,0,0h.07c.14,0,.21-.18.23-.3l.6.11h0l.19.06.18.06-.41.43c-.43.45-.86.89-1.33,1.3a.78.78,0,0,0-.16.42,1.25,1.25,0,0,0,0,.54.52.52,0,0,0,.21.32c.11.05.19,0,.27-.07.47-.41.91-.85,1.34-1.3l.63-.67L64,24a2,2,0,0,0,.16-.21c.25.12.49.26.72.4a9.36,9.36,0,0,0-.86,1c-.19.25-.37.5-.57.74a1.08,1.08,0,0,0-.13,1c.07.2.27.5.48.25.35-.41.64-.86,1-1.27a5.44,5.44,0,0,1,.57-.62l0,0h0l0,0,.14-.1a1,1,0,0,1,.29-.13l-.05,0h0L66,25l.13.1,0,0,.31.3c-.17.14-.32.29-.46.43l-.53.56-.26.27-.13.12h0l-.09.07a.92.92,0,0,0-.24.86.78.78,0,0,0,.16.42c.07.07.18.14.27.07a9,9,0,0,0,1-1c.15-.16.31-.32.48-.47h0l.07-.05.13-.1.27-.16.12-.05h0l.12.21.07.15h0c-.08-.17-.05-.11,0,0l-.05.1v0l-.09.12a4.91,4.91,0,0,1-.39.44l-.21.21,0,0,0,0a9.6,9.6,0,0,1-1.26.83c-.78.43-.86,1.81-.73,2.58.09.52.48,1.91,1.29,1.46a8,8,0,0,0,2.32-1.82,6,6,0,0,0,1.26-2.82A7,7,0,0,0,68,22.33"/><path d="M65.8,25h0"/><path d="M65.83,25h0"/><path d="M43,19.66a1.88,1.88,0,0,1,0-.22c0-.14,0-.42-.19-.49a.14.14,0,0,0-.16,0,4.83,4.83,0,0,1-.49-.68A8.1,8.1,0,0,1,41.54,17c-.32-.92-.55-1.87-.92-2.78-.11-.27-.37-.23-.49,0a1.22,1.22,0,0,0,0,1l.08.22.12.35.22.71c.15.48.29,1,.46,1.44a9.19,9.19,0,0,0,.62,1.42A5.61,5.61,0,0,0,42,20a1.43,1.43,0,0,0,.53.5c.38.14.44-.58.4-.8"/><path d="M50.08,16.66v-.09s0-.17,0,0a.87.87,0,0,0-.05-.29c0-.06-.06-.14-.12-.17a.13.13,0,0,0-.13,0,3.55,3.55,0,0,1-.26-.51c0-.08-.06-.17-.08-.26A.54.54,0,0,0,49.2,15a.22.22,0,0,0-.27.07,1.13,1.13,0,0,0-.12,1,3.61,3.61,0,0,0,.33.85,3.26,3.26,0,0,0,.26.4.74.74,0,0,0,.31.27c.32.12.39-.41.39-.6a2.16,2.16,0,0,0,0-.33"/><path d="M34.77,35.91h0l-.06-.11-.15-.24.07.1a3.26,3.26,0,0,1-.27-.55c0-.13-.09-.26-.13-.39a.51.51,0,0,0-.2-.3.21.21,0,0,0-.26.07.79.79,0,0,0-.15.4,1.3,1.3,0,0,0,0,.51,5.29,5.29,0,0,0,.39,1,1.16,1.16,0,0,0,.33.42.33.33,0,0,0,.35,0,.52.52,0,0,0,.18-.41.72.72,0,0,0-.12-.49"/><path d="M36.28,35.31a.26.26,0,0,0,0-.09.22.22,0,0,0-.09-.09l.06,0-.07-.06h0l0,0,0,0h0l0-.05,0-.08,0-.07a2,2,0,0,1-.07-.23v0a.73.73,0,0,0-.05-.19.49.49,0,0,0-.1-.18.18.18,0,0,0-.13-.08.14.14,0,0,0-.14,0l-.08.07a.67.67,0,0,0-.12.25,1.25,1.25,0,0,0,0,.53,3.26,3.26,0,0,0,.1.45c0,.09.06.18.1.26a1,1,0,0,0,.12.2.55.55,0,0,0,.14.13.28.28,0,0,0,.15,0H36a.34.34,0,0,0,.2-.11l.05-.08,0-.11a.94.94,0,0,0,0-.33.82.82,0,0,0-.05-.25"/><path d="M50,29s0,0,0,0h0v-.05l0,0v0c0-.08,0-.17-.07-.25v0l0-.17c-.08-.48-.12-1-.24-1.43a.54.54,0,0,0-.21-.32.22.22,0,0,0-.27.07,1.13,1.13,0,0,0-.12,1v0l0,.11c0,.11,0,.23.05.34s.07.5.11.74a2.94,2.94,0,0,0,.24.85c.12.22.37.44.58.18A.86.86,0,0,0,50,29"/><path d="M51.53,28.8c0-.17-.1-.34-.15-.51l0-.12,0,.07v-.06c0-.08,0-.17,0-.25v-.11c0-.08,0-.16,0-.24s0-.16,0-.24,0-.08,0-.12,0-.25,0,0a1.48,1.48,0,0,0,0-.54c0-.1-.1-.27-.21-.32-.27-.11-.42.29-.43.49a7.67,7.67,0,0,0,0,1.45,5.65,5.65,0,0,0,.12.67,2.16,2.16,0,0,0,.23.65c0,.07.12.21.24.2a.27.27,0,0,0,.2-.14,1.14,1.14,0,0,0,.09-.86"/><path d="M51.31,27.8c0-.14,0-.06,0,0"/><path d="M51.38,28.25h0"/><path d="M53.81,30.44s0,0,0-.14l0-.12-.06-.08h0l0-.06-.11-.14-.1-.12,0,0-.07-.14v0l0-.17v0l0-.09h0c0-.12,0-.25,0-.37v-.08s0-.1,0-.14c0-.23,0-.47,0-.7a1.14,1.14,0,0,0-.1-.49c0-.09-.13-.2-.25-.2-.29,0-.35.51-.35.7a10.51,10.51,0,0,0,.11,1.7,3.27,3.27,0,0,0,.3,1c.11.21.34.58.63.5s.27-.26.29-.44a1.17,1.17,0,0,0,0-.32"/><path d="M53.27,29.38h0c0-.1,0-.09,0-.05h0v0"/><path d="M56,31.82c-.09-.29-.19-.58-.27-.87a10,10,0,0,0-.33-1,.32.32,0,0,0-.25-.2c-.11,0-.2.11-.25.2a1.24,1.24,0,0,0,0,1h0V31l0,.07.07.21.13.43a4.39,4.39,0,0,0,.34.93c0,.08.13.21.24.2a.28.28,0,0,0,.2-.14,1.1,1.1,0,0,0,.09-.86"/><path d="M4.08,57.62c0-.1,0-.06,0,0"/><path d="M10.82,54.56h0"/><path d="M14.35,58.75c0-.23-.22-.69-.5-.4a3.1,3.1,0,0,0-.55,1,11.91,11.91,0,0,0-.41,1.15c-.21.72-.38,1.45-.61,2.17a1.08,1.08,0,0,0,.13,1c.22.24.41,0,.48-.25.22-.68.38-1.38.58-2.07q.07-.25.16-.5c.06-.18.1-.3.16-.43s.11-.23.17-.35c0,.12.08.3.22.3s.22-.23.23-.35a5.09,5.09,0,0,0-.06-1.21"/><path d="M19.75,66.15h0v0Z"/><path d="M19.73,66.24l0-.09v.09"/><path d="M35.14,61.21h0v0"/><path d="M34.79,60.3h0Z"/><path d="M35.17,61.27l0,0,.07.25a.69.69,0,0,0-.05-.21"/><path d="M35,61h0s0,0,0,0"/><path d="M33.31,61h0v0h0"/><path d="M40.13,58.36a8.94,8.94,0,0,0-.26-1.07c.46,0,.31-1,.16-1.18-.6-.83-2.21-.05-2.88.26A25.22,25.22,0,0,0,34.3,57.9c-2.06,1.32-3.74,3.23-3.51,5.82,0,.2.16.6.43.49s.26-.64.24-.86a3.48,3.48,0,0,1,1.22-2.69,1.17,1.17,0,0,0,0,.23,5.77,5.77,0,0,0,.28,1.67,1.91,1.91,0,0,0,.37.71.28.28,0,0,0,.37.08.66.66,0,0,0,.13-.76,1,1,0,0,0-.12-.28s-.12-.21,0,0l0,0-.06-.1,0-.1v0c0-.08-.06-.17-.08-.26l0-.14v0l0-.26c0-.09,0-.19,0-.28s0,0,0,0v-.1a1.08,1.08,0,0,0-.09-.46.47.47,0,0,0-.13-.14,10.75,10.75,0,0,1,1.15-.87,4,4,0,0,0-.06,1.36,3.57,3.57,0,0,0,.23.86,1.63,1.63,0,0,0,.14.27.81.81,0,0,0,.31.34c.18.08.31-.13.35-.28a1.12,1.12,0,0,0,0-.73l0-.06A1.17,1.17,0,0,0,35,61h0l0-.06-.06-.12,0-.06,0-.1,0-.13v0s0-.1,0-.14v0a.22.22,0,0,1,0,0,.24.24,0,0,0,0,0v0c0-.08,0,0,0,0s0-.15,0-.22v0l0-.13h0l0-.13a1.2,1.2,0,0,0,0-.51,1.15,1.15,0,0,0-.06-.22l0,0c.3-.18.62-.35.93-.52a1,1,0,0,0,0,.2c.11.53.21,1.07.34,1.59.06.24.13.49.21.73a2.37,2.37,0,0,0,.16.38c.07.13.16.26.29.28a.28.28,0,0,0,.2,0c.14-.05.18-.32.19-.44a.87.87,0,0,0-.07-.39v-.06h0s0,0,0,0a.44.44,0,0,0-.08-.23h0l0-.12c.08.2,0,0,0,0-.08-.24-.15-.48-.21-.72l-.09-.39,0-.21V59l-.13-.66,0-.17.82-.41.31-.14a1.35,1.35,0,0,0,0,.56,12.39,12.39,0,0,0,.32,1.42c.06.21.11.42.16.64v0h0l.06.28a1.14,1.14,0,0,0,.17.43.19.19,0,0,0,.23.06.46.46,0,0,0,.18-.27,2.11,2.11,0,0,0,0-1c0-.26-.11-.52-.18-.78l-.17-.64,0-.16v0c0-.11,0-.22-.06-.34a.86.86,0,0,0-.14-.39,4.11,4.11,0,0,1,.61-.19,2.62,2.62,0,0,1,.44,0,1.16,1.16,0,0,0,0,.5c.07.19.13.38.18.58l.07.28v0a.57.57,0,0,0,0,.14c0,.2.06.39.08.59v.13a2,2,0,0,0,.07.54c0,.11.09.26.22.29s.19-.07.26-.17a1.11,1.11,0,0,0,.12-.48,4.36,4.36,0,0,0,0-.46,5.78,5.78,0,0,0-.09-.8"/><path d="M108.59,53.32s0,0,0,0v0s0,0,0-.06"/><path d="M110.58,52.27h0"/><path d="M112,51.93c0-.07,0,0,0,0"/><path d="M113.82,53h0"/><path d="M116,51l-.15-.15h0l0-.08v0l0-.07c0-.08,0-.15,0-.23v0c0-.06,0-.11,0-.17s0-.1,0-.15v0c0-.1,0-.2,0-.3v0l0-.14a1.26,1.26,0,0,0,0-.54.82.82,0,0,0-.16-.42c-.23-.23-.4,0-.48.25a4.73,4.73,0,0,0-.17,2,2.25,2.25,0,0,0,.25.88.62.62,0,0,0,.28.28.34.34,0,0,0,.38-.11.67.67,0,0,0,.13-.45A.66.66,0,0,0,116,51"/><path d="M117.49,50.24h0l0,0v0h0"/><path d="M117.65,50.37l-.1-.06,0,0,0,0v0h0s0,0,0,0l0,0,0,0h0l0-.06v-.05c0-.05,0-.11,0-.16s0,0,0,0v0c0-.51,0-1,0-1.53a1.09,1.09,0,0,0-.1-.49c0-.09-.13-.21-.25-.21-.29,0-.34.51-.35.7,0,.43,0,.86,0,1.29a5.07,5.07,0,0,0,.06.85,1.77,1.77,0,0,0,.31.83.4.4,0,0,0,.31.17.49.49,0,0,0,.32-.17.72.72,0,0,0,.12-.51c0-.14,0-.36-.18-.43"/><path d="M117.42,49.91h0v0h0"/><path d="M131.71,68.18h0s0,0,0,0"/><path d="M131.36,67.34h0"/><path d="M135.46,65v0h0a.22.22,0,0,0,0-.06v0"/><path d="M140.65,64.07v0h0"/><path d="M145.94,64.27l-.2.06c-.69-3.24-1.7-6.31-4.41-8.44-1.14-.89-2.82-.43-3.93-1.31-.51-.41-.53-1.14-.69-1.77a6.17,6.17,0,0,0-1.2-2.47c-1.57-1.91-3.91-3.17-6.36-2.25A6,6,0,0,0,126,51a4.58,4.58,0,0,0-.3-1.32c-.83-2.11-1.83-4.32-3.89-5.49-1.73-1-4.56-1.69-6.29-.38a22.58,22.58,0,0,1-2.38,1.87,10.73,10.73,0,0,1-2.08.8,40.71,40.71,0,0,0-5.4,1.79,4.74,4.74,0,0,0-1.45,1A5,5,0,0,0,101.81,46a5.74,5.74,0,0,0-1.1-.43c2.06-3,3.5-6.62,2.88-10.27a8.25,8.25,0,0,0-3.58-5.6,13.07,13.07,0,0,0-7.48-1.93c-1.92,0-3.83.22-5.74.39a6.5,6.5,0,0,0-.31-2.78c-.91-2.7-3.55-4.61-5.75-6.21-1.16-.84-2.35-1.62-3.53-2.42-.45-.3-.89-.6-1.33-.92l-.32-.24c0-.25.07-.49.11-.67a5.64,5.64,0,0,0-.53-4C74,9,71.57,9.19,69.65,9c-1.23-.15-3.25-.31-4.14-1.1-1.1-1-1.76-2.8-2.61-4.06C61.71,2.05,60,.08,57.75,0s-4.51,1.93-5.2,4.12a11.12,11.12,0,0,0-.39,3.3,3.37,3.37,0,0,1-.33,2.21c-.94,1.2-2.69,1.3-4.07,1.18-3-.26-6.47-2.06-9.33-.51-2,1.09-3.14,3.72-3.16,5.91,0,1.06.69,2.8,0,3.61S33.63,21.09,33,22a20.6,20.6,0,0,0-2.68,5.45,9.75,9.75,0,0,0-.43,3c-2.24.65-4.87-1.93-6.77-.11a6.75,6.75,0,0,0-1.6,4.47,4.16,4.16,0,0,0-2.74-.93,7.75,7.75,0,0,0-4,1.68,24.79,24.79,0,0,0-6.27,5.81A11.43,11.43,0,0,0,7,44.81c-.34,1.3-.4,2.69-.85,4a3.82,3.82,0,0,1-1.4,1.63A37,37,0,0,0,1.71,53c-2.4,2.43-2,5.6-.57,8.45.28.56.77.5,1.06,0a1.65,1.65,0,0,0,.14-.38c2.69.27,5.29.93,7.26,2.92,1.74,1.74,2,4.69,4.35,5.88,2.9,1.46,5.49-.72,8.32-1,.63-.07,2-.33,2.49.14.19.18.58,1.43.88,1.92.84,1.35,2.35,3.49,4.22,3.18,1.4-.23,2.39-1.54,3.58-2.22A3.69,3.69,0,0,1,38.61,73c1.13,1.77,1.81,3.7,4,4.36,1.68.51,4,1.26,5.74.84a6.61,6.61,0,0,0,2.89-2.14,3.65,3.65,0,0,1,3.53-1c1.18.24,2.28.81,3.48,1a5.13,5.13,0,0,0,3.85-.92,6.81,6.81,0,0,1,3.39-1.59c1.44-.13,2.87-.32,4.31-.48,3.52-.39,7.07-.49,10.6-.8,3.3-.29,6.82-.71,10.11-.08,5.78,1.12,11,5.86,17.12,3.65,1.38-.5,2.6-1.31,4-1.87a7.9,7.9,0,0,1,4.83-.25c3.54.74,6.67,1.95,10.3.8,3.21-1,5.62-3.48,8.52-5.07a12.07,12.07,0,0,1,5.23-1.42,19,19,0,0,0,5.92-.91c.91-.35.69-3.32-.4-2.89m-4.63.82a3.42,3.42,0,0,0,.05-.69c0-.36,0-.72-.07-1.07a11,11,0,0,0-.31-1.9c-.06-.21-.27-.48-.48-.25a1.11,1.11,0,0,0-.12,1l0,.15v.05l.07.41c0,.3.08.6.11.91,0,.12,0,.25,0,.37s0,0,0,0h0v0s0,.06,0,.08v.2c0,.12,0,.25,0,.37s0,.2,0,.3l0,.1-1.32.11h0v-.06c0-.07,0-.16,0-.19s0-.13,0-.2,0-.33,0-.49c0-.38,0-.75,0-1.13a8.45,8.45,0,0,0-.32-2.36c-.07-.19-.25-.47-.46-.24a1.05,1.05,0,0,0-.12.92c0,.07,0,.14.06.21l0,.11h0c0,.17.05.35.07.52s0,.17,0,.25v.1s0,0,0,.06c0,.19,0,.38,0,.58,0,.35,0,.7,0,1.06a5.52,5.52,0,0,0,.06.95c-.41.06-.83.11-1.23.21a1.46,1.46,0,0,0,0-.19l0-.12-.05-.3c0-.24-.07-.49-.09-.73,0-.06,0-.12,0-.18s0-.05,0-.08,0-.25,0-.37,0-.45,0-.68-.06-.63-.32-.63-.31.46-.32.63a11.17,11.17,0,0,0,0,1.56,5.82,5.82,0,0,0,.2,1.23,9,9,0,0,0-1.16.41.79.79,0,0,0,0-.09c0,.1,0,0,0-.1a1.14,1.14,0,0,0-.05-.14l0-.09h0l-.06-.15h0l-.06-.16c0-.11-.07-.22-.09-.33v0h0a.14.14,0,0,0,0-.06h0l0-.17c0-.12,0-.23,0-.35l0-.18s0,0,0-.07c0-.22,0-.44,0-.67a1.15,1.15,0,0,0-.1-.48c0-.09-.13-.2-.24-.2-.27,0-.34.49-.34.67a10.65,10.65,0,0,0,.15,1.69,3.86,3.86,0,0,0,.28.91,1.56,1.56,0,0,0,.16.24c-.44.22-.87.46-1.29.72v0c0-.36-.05-.71-.08-1.07a13.17,13.17,0,0,0-.33-2c-.05-.21-.27-.47-.47-.25a1.1,1.1,0,0,0-.12.93l.05.23h0l0,.12c0,.13,0,.26.07.39,0,.28.08.57.11.86s.07.81.15,1.21c-.46.3-.92.61-1.37.93a.23.23,0,0,0-.1-.11,1.5,1.5,0,0,1-.17-.1l0,0s-.07-.12-.11-.17v0l-.07-.11-.08-.17,0-.11-.07-.24a.66.66,0,0,1,0-.08v.07c0-.05,0-.1,0-.15s0-.18,0-.28c-.1-.74-.1-1.5-.28-2.23-.05-.21-.27-.47-.47-.25a1.07,1.07,0,0,0-.13.89s0,0,0,0l0,.11,0,.25c0,.19,0,.39.06.58,0,.42.07.83.14,1.24a3.59,3.59,0,0,0,.38,1.25l.1.15c-.43.3-.86.6-1.3.89a1,1,0,0,0,0-.28,3.58,3.58,0,0,0-.21-.54l-.11-.23,0,0,0-.13c-.06-.18-.11-.35-.16-.53l0-.13,0-.09c0-.09,0-.18-.05-.27-.07-.39-.12-.79-.15-1.19,0,0,0-.08,0-.13h0c0-.1,0-.19,0-.29s0-.3,0-.46-.06-.67-.34-.67-.34.49-.34.67a13.66,13.66,0,0,0,.22,2.54,7.39,7.39,0,0,0,.38,1.42,1.87,1.87,0,0,0,.4.68c-.34.21-.68.4-1,.59l-.21.1a1.07,1.07,0,0,0,0-.23v0s0,0,0-.07,0-.13,0-.19S128,70.14,128,70s-.11-.41-.16-.62c-.09-.38-.18-.91-.24-1.37-.14-1-.23-2-.31-3,0-.2-.16-.6-.43-.49s-.26.63-.24.86c.09,1,.18,2.09.33,3.12a13.82,13.82,0,0,0,.31,1.56,2.31,2.31,0,0,0,.43,1,10.81,10.81,0,0,1-1.24.47l-.17-.38a2.81,2.81,0,0,1-.2-.52,8.71,8.71,0,0,1-.28-1.37,29,29,0,0,0-.44-3c-.05-.21-.27-.48-.48-.25a1.12,1.12,0,0,0-.12,1l0,.08,0,.1c0,.11,0,.23.06.34s.07.51.1.76c.07.54.13,1.09.21,1.63a8.87,8.87,0,0,0,.37,1.59l.09.25c-.29.06-.59.11-.88.15a9.26,9.26,0,0,1-.35-1,13.07,13.07,0,0,1-.32-1.62,20.42,20.42,0,0,1-.25-3.12c0-.21-.06-.69-.35-.7s-.35.52-.35.7a24,24,0,0,0,.3,3.65,12.71,12.71,0,0,0,.4,1.87l.09.28a12.23,12.23,0,0,1-1.59,0c-.63-1.8-.52-3.8-1.09-5.66-.07-.22-.26-.48-.48-.25a1.09,1.09,0,0,0-.13,1,9.66,9.66,0,0,1,.3,1.54c.09.66.17,1.33.27,2,.07.45.16.9.28,1.34-.36,0-.73-.11-1.1-.18l0-.07a3.08,3.08,0,0,1-.21-.58,10.92,10.92,0,0,1-.27-1.59,16,16,0,0,0-.52-3.32c-.07-.21-.26-.48-.48-.25a1.08,1.08,0,0,0-.12,1c0,.11.07.23.1.34l0,.12,0,.13c.05.29.09.57.13.86.08.62.13,1.24.21,1.86a10.37,10.37,0,0,0,.27,1.32l-.41-.1-.64-.16h0a9.52,9.52,0,0,1-.32-1.25c-.17-.9-.25-1.82-.33-2.73,0-.19-.16-.61-.43-.49s-.27.62-.24.86a26.5,26.5,0,0,0,.37,2.95c0,.15.07.3.1.45l-1.15-.25c0-.1,0-.2-.05-.3-.06-.4-.11-.8-.16-1.2a5.54,5.54,0,0,0-.22-1.08c-.07-.2-.26-.49-.48-.25a1.09,1.09,0,0,0-.12,1l0,.14,0,.07c0,.14,0,.27.07.41,0,.33.08.65.13,1,0,.05,0,.1,0,.15a8.46,8.46,0,0,0-5,.61c-2.68,1.24-4.92,2.55-8,2.09s-5.95-2.05-8.86-3.16c-4.34-1.64-8.87-1.37-13.4-1a1,1,0,0,0,0-.37c0-.24-.09-.47-.12-.71s0-.23,0-.35a2.15,2.15,0,0,0-.06-.3.64.64,0,0,0-.15-.28.17.17,0,0,0-.28,0,1.25,1.25,0,0,0-.19.74c0,.18,0,.36,0,.54s.07.5.12.74v.06l-1.55.14s0,0,0-.06c0-.21-.07-.42-.1-.63s0-.21,0-.32a2,2,0,0,1,0-.32h0v0s0-.1,0-.15,0-.23,0-.35a3.6,3.6,0,0,0-.06-.86c0-.11-.1-.27-.23-.3a.24.24,0,0,0-.27.17,3.93,3.93,0,0,0-.11,1.72c0,.39.08.78.14,1.16l-1.36.11c-.18-1.08-.45-2.15-.68-3.23,0-.11-.14-.37-.3-.35s-.35.46-.35.7a3.11,3.11,0,0,0,.11.66l.21.94.1.45.05.24v0l0,.09c0,.17.06.34.1.51l-.66,0-.69,0c-.07-.49-.15-1-.23-1.45-.05-.31-.11-.62-.15-.93a3,3,0,0,0-.17-.92c-.11-.22-.34-.25-.46,0A2.18,2.18,0,0,0,73,67.67c0,.32.1.64.16,1s.13.78.2,1.18L72,69.9a17.2,17.2,0,0,1-.64-2.39c-.08-.45-.15-.9-.21-1.35l0-.15a1.14,1.14,0,0,0,0-.72L71,65.14A.62.62,0,0,0,71,65l-.1-.12,0,0h0l0,0c-.16-.16-.34,0-.41.19a1.15,1.15,0,0,0,0,.77A19.4,19.4,0,0,0,71.23,70l-1.88.17c-.11-.82-.33-1.63-.5-2.43l-.06-.29c0-.13-.05-.25-.07-.38s-.08-.5-.11-.75c0,0,0-.05,0-.08s0,0,0,.06,0-.09,0-.14,0,0,0-.05h0a.49.49,0,0,0,0-.08v-.08h0a1.22,1.22,0,0,0,.05-.26c0-.17,0-.65-.2-.72a.24.24,0,0,0-.3.09,1.28,1.28,0,0,0-.09.15s0,0,0,0a.66.66,0,0,0-.12.25,2.4,2.4,0,0,0-.09.79,9.32,9.32,0,0,0,.22,1.65c.12.61.27,1.22.4,1.84l0,.11,0,.25,0,.19-1.17.12A29,29,0,0,1,67,67.27c-.06-.56-.12-1.12-.17-1.67a3.62,3.62,0,0,0-.25-1.5c-.16-.26-.36-.14-.43.11a4.62,4.62,0,0,0,0,1.71c.05.59.11,1.18.18,1.78q.16,1.37.43,2.73l-1.44.17h0a36.36,36.36,0,0,0-.64-3.81c-.16-.77-.31-1.55-.41-2.33,0-.33-.08-.66-.09-1a2.12,2.12,0,0,0-.15-1c-.08-.14-.18-.2-.31-.08s-.23.66-.23.95a9.33,9.33,0,0,0,.07,1.16c.08.79.23,1.58.39,2.36a39.51,39.51,0,0,1,.68,3.93,6.23,6.23,0,0,0-1.11.41,1.06,1.06,0,0,0,0-.21,8.46,8.46,0,0,1-.25-.93v0l0-.11,0-.27q0-.28-.09-.57c0-.17,0-.35-.06-.52s0-.15,0-.23,0-.07,0-.11,0-.27,0-.4,0-.11,0-.17,0-.26,0,0c0-.23,0-.6-.18-.75s-.34.09-.4.26a2.65,2.65,0,0,0-.11,1c0,.41.05.81.1,1.22a12.25,12.25,0,0,0,.46,2.19l-.56.37c-.33-1.33-.62-2.67-.84-4a19,19,0,0,1-.26-2.58,5.47,5.47,0,0,1,.05-1c0-.22.16-.53.21-.8s0-.9-.37-.75c-.59.25-.57,1.66-.58,2.16a18,18,0,0,0,.23,3c.22,1.5.54,3,.9,4.45a5.55,5.55,0,0,1-1.21.6,24.39,24.39,0,0,0-.21-3.38c-.09-.79-.2-1.58-.29-2.36a8.35,8.35,0,0,0-.27-2.07c-.13-.33-.37-.08-.44.11a4.92,4.92,0,0,0,0,2.08c.08.76.18,1.51.27,2.27a20.62,20.62,0,0,1,.21,3.52A4.76,4.76,0,0,1,58,73c-.13-1.08-.34-2.15-.52-3.22a21,21,0,0,1-.25-2.47l0,0c.42.18.34-.8.2-1s-.25-.42-.53-.51-.41.27-.42.48a28.87,28.87,0,0,0,.73,6.49c-.48-.13-1-.28-1.43-.42a1,1,0,0,0,.08-.78c0-.22-.1-.43-.16-.65l-.08-.32,0-.16s-.05-.19,0-.06a2,2,0,0,1,0-.32v0h0c0-.06,0-.12,0-.18a3,3,0,0,0,0-.8c0-.09-.15-.34-.29-.23a1.27,1.27,0,0,0-.29,1,5.2,5.2,0,0,0,.09.81c.09.52.23,1,.35,1.55l0,.06A7.46,7.46,0,0,0,53.6,72a1.13,1.13,0,0,0,0-.25.78.78,0,0,0-.16-.42,2.24,2.24,0,0,1-.23-.28l-.05-.1s0-.06,0-.09a1.14,1.14,0,0,0,0-.66A.45.45,0,0,0,53,70a.18.18,0,0,0-.2,0c-.2.06-.3.36-.34.55a2.22,2.22,0,0,0,0,1,1.91,1.91,0,0,0,.22.53,3.74,3.74,0,0,0-1.66.81c-.91.75-1.63,2-2.82,2.3a6.53,6.53,0,0,1-2.74-.17,18.2,18.2,0,0,1-2.94-.71,4.16,4.16,0,0,1-2.17-2.18c-1.12-2-2.17-3.81-4.7-3.87-1.74,0-3.05.93-4.37,1.94s-2.24,1.25-3.47,0A8.48,8.48,0,0,1,26,67.42c-.29-.72-.58-1.31-1.37-1.53a5,5,0,0,0-1.75-.15,2.66,2.66,0,0,0-.22-.62c-.84-1.57-1.37-3.16-.6-4.85a9.38,9.38,0,0,1,4.43-4.08c1.23-.64.94-3.31,0-4s-1.64-1.66-1-2.81A5,5,0,0,1,29.73,47c1.76,0,3.08,1.4,4.76,1.77.93.21,2.6.77,3.4,0a2,2,0,0,0,.44-.78c.16.56.32,1.12.53,1.66.09.23.22.47.29.69s.09.38.18.56.15.28.3.28.24-.11.32-.2a.78.78,0,0,0,.12-.59c0-.11-.07-.32-.21-.37s0-.16-.06-.24c-.13-.46-.36-.88-.51-1.32-.22-.63-.39-1.28-.59-1.92a10.07,10.07,0,0,1,.32-1l0-.07a14.89,14.89,0,0,0,.77,2.83,7.77,7.77,0,0,1,.24.76c.05.22.09.45.16.68s.15.46.38.51.35-.16.43-.33a.92.92,0,0,0,0-.64c0-.11-.12-.27-.25-.25,0-.16-.08-.31-.12-.47a11.61,11.61,0,0,0-.4-1.27,9.75,9.75,0,0,1-.64-2.84,1.64,1.64,0,0,0,0-.25c.16-.31.33-.61.52-.9a1.26,1.26,0,0,0,0,.49c.33,1,.63,2,.94,3a21.49,21.49,0,0,0,1,2.95c.09.18.26.27.41.11a1.09,1.09,0,0,0,.23-1.05.5.5,0,0,0-.21-.31h0c-.27-.81-.57-1.62-.83-2.44s-.6-1.94-.93-2.9c-.05-.15-.16-.31-.29-.33a12.87,12.87,0,0,1,1.15-1.43,1.12,1.12,0,0,0-.11.93c.38,1.24.63,2.51.95,3.76.15.6.32,1.21.53,1.79s.33,1.18.8,1.39.33-.61.29-.77c-.12-.5-.36-1-.53-1.46s-.37-1.21-.52-1.82c-.3-1.21-.55-2.43-.91-3.62-.07-.22-.25-.45-.46-.26l.13-.15a10.76,10.76,0,0,1,1.38-1.18,1.28,1.28,0,0,0,0,.42,40.45,40.45,0,0,1,1,5A18.66,18.66,0,0,0,45,48a5.53,5.53,0,0,0,.45,1,1.46,1.46,0,0,0,.3.38c.13.1.22.08.36.12.36.09.22-.8.13-.93a7.09,7.09,0,0,1-.75-1.6,21.35,21.35,0,0,1-.62-2.54,35.74,35.74,0,0,0-1-4.8.93.93,0,0,0-.06-.12,10.6,10.6,0,0,1,1.28-.68,1.69,1.69,0,0,0,0,.32c.39,1.46.52,3,.79,4.47a17.65,17.65,0,0,0,.55,2.29,2.42,2.42,0,0,0,.94,1.52c.35.19.3-.68.24-.82a15.81,15.81,0,0,1-1.13-3.81c-.25-1.42-.4-2.86-.76-4.25A10.23,10.23,0,0,1,47,38.21a1.7,1.7,0,0,0,0,.26,16.32,16.32,0,0,0,.74,4.63c.22.76.46,1.51.69,2.26s.36,1.49.65,2.19a.23.23,0,0,0,.42,0,.94.94,0,0,0,.11-.67h0A10.8,10.8,0,0,0,49,44.82c-.21-.7-.44-1.4-.65-2.11a14.51,14.51,0,0,1-.74-4.23,1.46,1.46,0,0,0-.05-.38c.24,0,.48,0,.72-.07a1.41,1.41,0,0,0,0,.29c.41,1.36.64,2.77.91,4.17.14.7.28,1.4.45,2.09a3.39,3.39,0,0,0,.67,1.67c.32.29.41-.41.39-.6a16.61,16.61,0,0,0-.46-1.78c-.17-.68-.31-1.36-.44-2.05-.25-1.29-.48-2.58-.83-3.85a8.92,8.92,0,0,1,1.13,0,1.34,1.34,0,0,0,.1.62c1,2.38,1.11,5,2,7.46.07.19.2.44.43.28s.24-.59.2-.81a1.49,1.49,0,0,0,0-.16h0c-.7-2.39-1-4.92-1.9-7.25a10,10,0,0,1,3.7,1.55.35.35,0,0,0-.14.15,1.2,1.2,0,0,0,0,1,20.8,20.8,0,0,1,1.12,3.46c.16.59.31,1.17.49,1.76a2.25,2.25,0,0,0,.62,1.23c.26.2.32-.51.31-.61l0-.15v0a6,6,0,0,0-.34-1.32c-.17-.6-.33-1.2-.49-1.8A22.56,22.56,0,0,0,55.1,40,12.81,12.81,0,0,1,57,41.79a.38.38,0,0,0-.08.1,1.23,1.23,0,0,0,0,1c.47,1.2.76,2.46,1.18,3.68a13.55,13.55,0,0,0,.71,1.75c.18.37.47.62.74.18.08-.13.12-.8-.14-.79l0-.14c-.09-.26-.19-.51-.3-.76a15.82,15.82,0,0,1-.56-1.59c-.28-.89-.54-1.78-.85-2.66A14.94,14.94,0,0,1,59,44.69c.2.39.47.63.88.56v0c.31,1,.56,2,.83,2.93.13.48.27,1,.42,1.43a3.93,3.93,0,0,0,.6,1.37c.31.35.43-.46.41-.63a10.39,10.39,0,0,0-.44-1.55c-.14-.46-.28-.92-.4-1.39-.23-.82-.45-1.64-.69-2.45,2.07-.75,4.27-1.74,6.4-1.59,0,.05,0,.11,0,.15a22.52,22.52,0,0,0,1.1,3.14q.32.74.7,1.46.2.37.41.73a2.81,2.81,0,0,0,.46.69c.19.16.34,0,.43-.17a1.17,1.17,0,0,0,0-.87,5.14,5.14,0,0,0-.4-.67c-.13-.23-.26-.45-.39-.68-.25-.46-.47-.93-.68-1.4a20.5,20.5,0,0,1-.82-2.25,5.2,5.2,0,0,1,1.42.53h0a1.1,1.1,0,0,0,.13,1,7.26,7.26,0,0,1,1.35,2.85c.16.54.3,1.08.47,1.61l.09.26c-.33,1.43.19,3.63,1.12,3,3.74-2.49,2.19-7.94-.28-10.76a7.59,7.59,0,0,0-5-2.76c-2.46-.25-4.81.92-7.09,1.75-1.94-3.32-4.8-6.07-8.66-7a11.2,11.2,0,0,0-9.79,2.68,15.32,15.32,0,0,0-3.72,5,15.73,15.73,0,0,0-1.06,2.87l-.08.3c-.48-.1-1.36-.11-1.6-.15a10.17,10.17,0,0,1-2.92-1.21,5.77,5.77,0,0,0-5.76.29,7.7,7.7,0,0,0-2.63,9.67,10.5,10.5,0,0,0-3.75,5.1,11.74,11.74,0,0,0,.34,7.75l-.12,0a1.59,1.59,0,0,0,0-.28l0-.07,0-.11-.06-.09-.07-.06a.11.11,0,0,0-.11,0,.1.1,0,0,0-.07,0,.16.16,0,0,0-.06.07.67.67,0,0,0-.09.26s0,.08,0,.12v0l-.05.1,0-.06h0a.47.47,0,0,0-.07.12.72.72,0,0,0,0,.17c-.5.18-1,.36-1.5.5,0-.29,0-.58,0-.86v-.67c0-.09,0-.18,0-.27a1.07,1.07,0,0,0-.18-.69.2.2,0,0,0-.32,0,1.38,1.38,0,0,0-.18.94v.68q0,.51,0,1a6,6,0,0,1-1.44.13c-.12,0-.23,0-.35,0a12.46,12.46,0,0,0,.46-2.14c.06-.42.11-.85.2-1.27.05-.26.13-.52.21-.78l.06,0c.3,0,.25-.66.17-.81s-.11-.22-.08-.1c0-.14-.25-.73-.47-.39a3.73,3.73,0,0,0-.45,1.27c-.1.45-.17.9-.23,1.35A9.92,9.92,0,0,1,15,66.91a1.37,1.37,0,0,0-.08.31,3.45,3.45,0,0,1-1.31-.79.76.76,0,0,0,.07-.15c.27-.84.46-1.7.67-2.55.11-.42.22-.84.35-1.26.08-.25.18-.5.28-.75a.15.15,0,0,0,.21,0,.59.59,0,0,0,.15-.45c0-.23-.07-.45-.09-.68s-.32-.71-.57-.3a9.86,9.86,0,0,0-.92,2.62c-.22.88-.42,1.78-.7,2.64a1.37,1.37,0,0,0,0,.19,6.85,6.85,0,0,1-.51-.86c-.35-.71-.68-1.38-1.08-2a.45.45,0,0,0,.24-.31c.21-.91.39-1.82.65-2.71a12.73,12.73,0,0,1,.41-1.25c.08-.19.18-.38.28-.57v.06c0,.1.07.32.21.32s.2-.21.21-.32a5.21,5.21,0,0,0-.06-1.31c0-.15-.15-.6-.39-.45s-.55.83-.71,1.2A14.6,14.6,0,0,0,11.78,59c-.27.93-.47,1.89-.68,2.83a1.89,1.89,0,0,0,0,.43,7.68,7.68,0,0,0-1-1.11h0a.66.66,0,0,0,.13-.22c.32-1,.65-2,1-2.94q.27-.69.57-1.37c.16-.36.39-.73.55-1.11a.75.75,0,0,0,.05-.16c0-.07.05-.14.07-.2h0a1.13,1.13,0,0,0,0-.64c0-.11-.19-.43-.36-.29a1.8,1.8,0,0,0-.44.68q-.18.38-.35.76c-.22.5-.42,1-.61,1.51-.39,1-.73,2.07-1.05,3.11a1.28,1.28,0,0,0,0,.48,10.41,10.41,0,0,0-1-.73,12.92,12.92,0,0,0,.78-2.18c.17-.55.35-1.1.54-1.64A7.64,7.64,0,0,1,10.49,55l.06-.1.06-.09.17-.2,0,0a1.09,1.09,0,0,0,.17-.19s0,0,0,0l.05,0s0,0,0,0c.29-.11.2-.79,0-.93a.51.51,0,0,0-.43-.12,1,1,0,0,0-.38.32,5,5,0,0,0-.66,1.26c-.43,1.08-.75,2.21-1.12,3.31l-.14.41-.06.15,0,.08c0,.09-.08.18-.12.27l-.06.11v0H8a1,1,0,0,0-.15.4c-.34-.18-.68-.34-1-.48v0l0-.15h0v0c.06-.27.13-.53.2-.8q.27-1,.61-1.89a12.21,12.21,0,0,1,.7-1.62l.09-.17.06-.1.16-.21a1.79,1.79,0,0,0,.21-.26l0-.05a.71.71,0,0,0,0-1c-.31-.21-.54,0-.72.28a7,7,0,0,0-.67,1.28,24.2,24.2,0,0,0-1.1,3.22,9.08,9.08,0,0,0-.28,1.29c-.21-.07-.41-.15-.62-.21a.85.85,0,0,0,0-.11c.15-.45.27-.91.41-1.37.07-.22.14-.44.21-.65v0l0-.06.07-.15c0-.11.1-.22.16-.33a1.63,1.63,0,0,0,.27-1.13.59.59,0,0,0-.12-.28c-.06-.07-.08-.06-.18-.06s-.12,0-.19.06a1.41,1.41,0,0,0-.24.34,7.07,7.07,0,0,0-.56,1.4c-.16.52-.29,1-.46,1.56a1.24,1.24,0,0,0,0,.67l-1-.21A1.29,1.29,0,0,0,4.07,58c0-.1,0-.21,0-.31v0s0-.08,0-.12,0-.21,0-.32l0-.16h0a7.51,7.51,0,0,0,.37-1.41.89.89,0,0,0-.09-.41c0-.07-.11-.18-.2-.17-.26,0-.39.4-.48.62a4.85,4.85,0,0,0-.21.71A6.55,6.55,0,0,0,3.37,58a1.57,1.57,0,0,0,0,.27c-.42-.06-.85-.11-1.28-.15a.75.75,0,0,0,.21-.43s0,0,0,0v0l0-.13,0-.14v0a3.1,3.1,0,0,1,.24-.45A3.12,3.12,0,0,0,3,56.39a1,1,0,0,0,.06-.62c0-.14-.09-.32-.26-.35a.27.27,0,0,0-.13,0c.87-.86,1.86-1.6,2.8-2.37,1.89-1.55,2.18-3.38,2.63-5.71a9.41,9.41,0,0,1,1.51-3.87,19.05,19.05,0,0,1,3.26-3.2c2.54-2.13,6-5.19,8.95-1.94.39.43.68.17.88-.24.09.23.17.47.27.7a2.46,2.46,0,0,0,.18.34.39.39,0,0,0,.15.17l.08,0q-.08,0,0,0s.11,0,.13,0c.2,0,.24-.32.24-.48a1,1,0,0,0,0-.25h0a1.31,1.31,0,0,0,0-.27c0-.12-.08-.25-.13-.37-.12-.31-.23-.62-.34-.93s-.15-.48-.23-.71,0-.46,0-.7a15.79,15.79,0,0,1,.72,1.82c.16.48.31,1,.46,1.44a6.22,6.22,0,0,0,.51,1.4c.13.21.32.25.44,0a1.23,1.23,0,0,0,.15-.74,1.93,1.93,0,0,0-.17-.43A.28.28,0,0,0,25,39c-.08-.28-.18-.55-.26-.83-.16-.51-.32-1-.49-1.53a14.79,14.79,0,0,0-1.09-2.56,2.13,2.13,0,0,1,.74-1.2,1.25,1.25,0,0,0-.05.59,23.42,23.42,0,0,0,.8,3.07,11.18,11.18,0,0,0,.63,1.5,6.25,6.25,0,0,0,.41.68c.12.17.28.4.5.42s.29-.67.24-.84a7.54,7.54,0,0,0-.66-1.24,10.3,10.3,0,0,1-.54-1.3c-.16-.46-.3-.93-.42-1.4q-.09-.34-.17-.68c-.05-.24-.08-.38-.13-.58a1,1,0,0,0-.18-.42,1.41,1.41,0,0,1,.27-.08,3.21,3.21,0,0,1,1.29.2,1.28,1.28,0,0,0,0,.34,14.52,14.52,0,0,0,.45,2.52,11.87,11.87,0,0,0,.85,2.68,1,1,0,0,0,.35.43l.09,0,.07,0a.24.24,0,0,0,.16,0,.69.69,0,0,0,0-1c.11.09,0,0,0,0l0,0h0l-.06-.18-.22-.52v0l-.06-.16-.13-.39c-.08-.27-.16-.53-.23-.8s-.15-.56-.21-.84l-.1-.44,0-.16c0,.16,0-.06,0-.09,0-.23-.09-.45-.13-.68s0-.19,0-.29,0-.13,0-.17l.63.22a1.62,1.62,0,0,0,0,.52c.2.89.39,1.77.67,2.64a8.23,8.23,0,0,0,.55,1.4,2.56,2.56,0,0,0,.35.53.37.37,0,0,0,.26.16h.06a.23.23,0,0,0,.12,0c.3-.05.28-.62.17-.82l-.08-.13h0a1.12,1.12,0,0,0-.2-.37v0L29,37.14,29,37l-.13-.25-.13-.28-.06-.15,0-.08c-.08-.22-.16-.44-.23-.66-.22-.71-.4-1.44-.56-2.16a4.9,4.9,0,0,0,1.46.08,1.46,1.46,0,0,0,0,.57,32.46,32.46,0,0,0,1.21,4.68c.08.18.27.27.41.11a1,1,0,0,0,.16-.77A1.44,1.44,0,0,0,31,37.8c-.22-.7-.42-1.39-.58-2.11s-.32-1.52-.51-2.27a4.9,4.9,0,0,0,.57-.18.58.58,0,0,0,.23-.2,1.11,1.11,0,0,0-.11.9c.16.64.33,1.27.51,1.9l.26.91a6.61,6.61,0,0,0,.33,1,.23.23,0,0,0,.45,0,1.39,1.39,0,0,0,.15-.59,1.28,1.28,0,0,0,0-.23l0-.08a.74.74,0,0,1,0-.09c0-.1-.06-.27-.17-.32-.12-.44-.26-.87-.39-1.3s-.25-.89-.37-1.34a7.08,7.08,0,0,0,1.12.32l0,0a1.1,1.1,0,0,0-.12.94c.14.43.24.87.38,1.3a3.24,3.24,0,0,0,.29.68.53.53,0,0,0,.33.29h0a.24.24,0,0,0,.2,0c.11,0,.16-.25.17-.35a.86.86,0,0,0-.06-.48l0-.1v0a2.66,2.66,0,0,0-.15-.35l-.11-.25,0-.06-.05-.15c-.13-.4-.23-.81-.36-1.21a.86.86,0,0,0-.1-.2A9.48,9.48,0,0,0,36.47,34s0,0,0,0,0,0,.06,0a12.65,12.65,0,0,0,2.22-.77c2.52-1.14,5.35-3.72,4.77-6.8-.12-.61-.59-1.95-1.4-1.14a2.39,2.39,0,0,0-.54,1.08v0l-.15.3c0,.07-.25.35,0,.06l-.21.28a6.35,6.35,0,0,1-.52.58,6,6,0,0,1-1.1.85,10.65,10.65,0,0,1-1.55.82,10.12,10.12,0,0,1-3.14.81,7.2,7.2,0,0,1-2.61-.2,1.09,1.09,0,0,0-.29-.35l0-.09a13.74,13.74,0,0,1,1-2.23,17.81,17.81,0,0,1,1-1.74,9.51,9.51,0,0,1,1.91-1.81,4.18,4.18,0,0,0,.63-.7c.08.33.17.66.27,1s.27.74.4,1.11c0,.08.08.21.18.21a.28.28,0,0,0,.23-.12l.08-.13,0-.08a.7.7,0,0,0,.09-.55c0-.1-.11-.34-.26-.26a.53.53,0,0,0-.18.18,2.68,2.68,0,0,1-.34-.71c-.11-.33-.2-.67-.28-1a5.41,5.41,0,0,0,.6-1.5l0,0,0,0h0l.14.24c.08.15.15.31.22.47v0l0,.13.08.23a2,2,0,0,0,.28.66.2.2,0,0,0,.32,0,.85.85,0,0,0,.15-.54,2.78,2.78,0,0,0-.15-.83,6.52,6.52,0,0,0-.23-.65,4.88,4.88,0,0,0-.6-1.09.23.23,0,0,0-.09-.07,11.85,11.85,0,0,0-.11-2.27,2.3,2.3,0,0,1,.11-1.67,1.42,1.42,0,0,0,.1.52c.88,2.18,1.06,4.61,2.2,6.69.11.21.31.27.46.06a1.15,1.15,0,0,0,.09-.9,8.87,8.87,0,0,1-.25-1.46c0-.14-.09-.39-.27-.36s-.12.08-.15.16c-.59-1.7-.89-3.5-1.57-5.18a.26.26,0,0,0-.19-.17,3.23,3.23,0,0,1,.92-.78,1.18,1.18,0,0,0,0,.3,10.42,10.42,0,0,0,.79,3.2,29.66,29.66,0,0,1,1.08,2.85c0,.15.16.38.35.33s.27-.34.29-.5A2.44,2.44,0,0,0,41,19c-.22-.57-.45-1.13-.68-1.7a8.38,8.38,0,0,1-.74-2.58,1.24,1.24,0,0,0-.15-.57,5.35,5.35,0,0,1,2.18-.3,1,1,0,0,0,.09.64,7.74,7.74,0,0,1,.54,1.18l0,.09.07.2.13.37.27.74c.17.46.33.93.54,1.38.12.26.31.72.66.65s.28-.57.19-.82c.08.14-.08-.25-.08-.25l-.1-.21c-.07-.15-.15-.29-.22-.44l-.12-.29-.07-.17v-.06l-.25-.68a20.43,20.43,0,0,0-.87-2.24c.49.06,1,.16,1.46.27l0,0a1.17,1.17,0,0,0,0,1,11.84,11.84,0,0,1,.76,1.87c.12.35.25.7.38,1.05a4,4,0,0,0,.48,1c.19.24.41-.06.46-.24a1.19,1.19,0,0,0-.06-.82c-.12-.31-.28-.61-.4-.92l-.15-.42-.17-.48a14,14,0,0,0-.79-1.94l1,.24a1.2,1.2,0,0,0,0,.66c.16.46.29.93.45,1.4a8.56,8.56,0,0,0,.61,1.52c.1.18.31.59.57.44s.25-.53.21-.77a1,1,0,0,0-.13-.39h0l-.1-.15,0,0h0l-.06-.11c-.06-.11-.11-.22-.16-.34l-.07-.16,0,0,0,0-.14-.4c-.16-.46-.3-.93-.45-1.4.43.1.85.17,1.26.23a1.16,1.16,0,0,0-.06.85c.13.41.24.83.38,1.23a8.05,8.05,0,0,0,.31.81,1.13,1.13,0,0,0,.42.56c.25.13.46-.14.52-.35a.94.94,0,0,0,0-.32c0-.15,0-.46-.25-.47h0L48.51,17c-.05-.1-.1-.2-.14-.3l0-.07-.06-.16c-.17-.47-.29-.94-.44-1.42l0-.1a7.12,7.12,0,0,0,2.42-.21,1.36,1.36,0,0,0,0,.59,4.17,4.17,0,0,0,.39,1,2.57,2.57,0,0,0,.31.44,1.88,1.88,0,0,0,.22.19.3.3,0,0,0,.25.06.26.26,0,0,0,.15-.08.59.59,0,0,0,.12-.28,1,1,0,0,0-.06-.64,3.77,3.77,0,0,0-.45-.63A3,3,0,0,1,51,15c0-.11-.08-.22-.11-.33a.79.79,0,0,0,0-.1,5.34,5.34,0,0,0,3.37-4.63c.19-1.61-.42-3.54,1-4.73,1.9-1.63,4-1,5.54.69a33.69,33.69,0,0,1,3,4.51,4.39,4.39,0,0,0,2.42,2,18,18,0,0,0,3.25.65c-.11.12-.24.23-.33.36a.88.88,0,0,0-.16.42,1.27,1.27,0,0,0,0,.54c0,.11.09.27.21.32a.22.22,0,0,0,.27-.07,5,5,0,0,1,.7-.73l.28-.22.17-.12a2.54,2.54,0,0,0,.23-.22l.06-.1v0l.18,0a8.79,8.79,0,0,1,1.59.29l-.1.1-.21.19h0l0,0-.13.1c-.15.11-.3.21-.46.31-.37.23-.76.43-1.15.65s-.29.6-.24.86.16.64.43.49a10.92,10.92,0,0,0,2-1.27l.2-.2a1,1,0,0,0,.27-.57,1.23,1.23,0,0,0,0-.53l.42.15,0,0v0l0,0c.1.07.31.23.28.26-.25.21-.35.24-.39.19-.06.32-.11.62-.13.7s0,.25,0,.38l-.6.56a14.69,14.69,0,0,0-1.24,1.3,1.07,1.07,0,0,0-.12.94c.06.19.26.5.47.25A14.69,14.69,0,0,1,73,17.19l.27-.25a4,4,0,0,0,.32,1.16l-.06,0c-.48.38-.93.81-1.37,1.23-.18.17-.36.35-.55.51a.79.79,0,0,0-.16.42,1.27,1.27,0,0,0,0,.54.52.52,0,0,0,.21.32c.11.05.19,0,.27-.07.35-.3.68-.63,1-.94l.61-.55.05,0h0l.14-.11c.1-.08.21-.14.3-.23l.05-.05,0-.05h0a.14.14,0,0,0,.08,0l0,0,0,0c.18.17.39.31.59.46-.24.18-.47.36-.7.56-.54.48-1,1-1.55,1.51a1.07,1.07,0,0,0-.12,1c.07.22.25.48.48.25.49-.5,1-1,1.5-1.47a6.33,6.33,0,0,1,.74-.59l.35-.21s.12-.07.14-.12,0,0,0,0l.15-.12.48.33h0l-.35.32-.09.07,0,0h0l-.19.16a16.29,16.29,0,0,0-1.48,1.29,1.06,1.06,0,0,0-.12,1c.07.21.26.48.48.25A15,15,0,0,1,76,22.48a8.49,8.49,0,0,0,1.11-1c.1.1.22,0,.28-.09l0-.06.51.34a7.63,7.63,0,0,0-1.11,1,4.46,4.46,0,0,0-.54.7,1,1,0,0,0-.1.49,1.09,1.09,0,0,0,.1.49c.05.09.13.2.25.2s.17-.09.22-.17,0,0,0,0l0-.05.09-.12.22-.26a7.63,7.63,0,0,1,.57-.57l.14-.12,0,0,.09-.07.34-.25a2.89,2.89,0,0,1,.61-.33l.14,0h.12l.62.44-.21.14c-.47.37-.83.84-1.27,1.23l-.11.09a.91.91,0,0,0-.24.86.77.77,0,0,0,.16.42c.07.07.17.14.27.07.51-.37.88-.87,1.35-1.29a1.58,1.58,0,0,1,.53-.3l-.09,0a.42.42,0,0,0,.32-.24c-.06.11,0,.06,0,0a.59.59,0,0,0,.11-.21.8.8,0,0,0,0-.22l.56.44c-.18.17-.35.35-.51.53l-.45.49a.83.83,0,0,0-.16.42,1.27,1.27,0,0,0,0,.54c.07.21.26.49.48.25a17.31,17.31,0,0,1,1.22-1.25,2.19,2.19,0,0,1,.31-.22h0c.21.17.39.37.59.55a5.22,5.22,0,0,0-.75.78.86.86,0,0,0-.16.41,1.24,1.24,0,0,0,0,.54c0,.11.09.27.21.32a.22.22,0,0,0,.27-.07,5.57,5.57,0,0,1,.77-.81l.14-.11-.08.07a3.73,3.73,0,0,1,.44-.31l.44.48c-.15.09-.15.56,0,.56s.16-.18.15-.34a5.27,5.27,0,0,1,.38.51l0,.08-.11.1a6.54,6.54,0,0,1-2,1.08c-1.19.47-1,4.21.39,4a.7.7,0,0,0,.33.09c2.41,0,4.81-.36,7.21-.52a16.44,16.44,0,0,1,7.08.64,7.06,7.06,0,0,1,4,3.34h0v0l.07.23.05.2h0c0,.17,0,.46,0,.31,0,.17,0,.35,0,.52,0-.53,0,.15,0,.28s0,.18,0,.25a10.91,10.91,0,0,1-.37,1.26l-.19.46c-.1.23-.21.45-.32.68-.21.43-.45.85-.7,1.25v-.07s0-.09,0-.13.11-.37.15-.55a1.16,1.16,0,0,0-.09-.88c0-.07-.11-.15-.2-.15a.33.33,0,0,0-.24.2,2.52,2.52,0,0,0-.21.65c-.05.23-.1.45-.14.68l-.1.56c0,.05,0,.11,0,.16h0c0,.1-.05.21-.08.31a1.35,1.35,0,0,0,0,.54v.06c-.31.41-.64.82-1,1.21a1.83,1.83,0,0,0-.24.39c.14-.76.23-1.53.33-2.3.08-.62.19-1.21.32-1.81l.07.08c.11.13.24,0,.3-.08a.85.85,0,0,0,0-.61c-.06-.2-.2-.39-.24-.58s-.09-.44-.28-.49-.28.18-.34.33a11.77,11.77,0,0,0-.53,2.69c-.11.89-.2,1.78-.39,2.66,0,.24,0,.73.24.86a.2.2,0,0,0,.26-.08,3.75,3.75,0,0,0-.06.55h0A2,2,0,0,0,96.44,47a3.62,3.62,0,0,0-.12.6s0,.43,0,.57,0,.14,0,.21c0,.59.14,1.44.7,1.75a.58.58,0,0,0,.73-.22h0l.18-.12a1.88,1.88,0,0,1,.37-.15,4.8,4.8,0,0,1,2.1,0,4.49,4.49,0,0,1,1.46.73,3.39,3.39,0,0,1,.41.43l0,0h0l.09.18v0l0,.07v.13s0,.1,0,.14a3.94,3.94,0,0,0,.11,1.61c.09.29.3.83.63,1a.65.65,0,0,0,.8-.21c0,.07.08.14.12.2.49.68,1.13,0,1.33-.53a3.35,3.35,0,0,0,.19-.86l.1-.05a11.27,11.27,0,0,0,.08,1.84c0,.28.07.57.12.85l.07.44a1.53,1.53,0,0,0,.16.58c.07.1.14.21.27.18s.21-.19.24-.31.08-.38.13-.62a.78.78,0,0,0-.09-.54.26.26,0,0,0-.1-.09c0-.27-.08-.53-.11-.8s0-.27,0-.41l0-.19c0,.15,0-.07,0-.1q0-.43,0-.86a1.23,1.23,0,0,0,0-.31,15.35,15.35,0,0,1,1.57-.61s0,.1,0,.13c0,.52,0,1,0,1.55a6.17,6.17,0,0,0,.13,1,1.65,1.65,0,0,0,.34.81.21.21,0,0,0,.25.07h0c.19-.08.22-.42.23-.59a1.26,1.26,0,0,0-.05-.4,1.65,1.65,0,0,0-.07-.18h0c0-.09-.06-.18-.08-.28v-.07l0-.17v-.14a.16.16,0,0,1,0,0,.22.22,0,0,0,0,0h0s0,0,0,0a.15.15,0,0,1,0,0c0-.49,0-1,0-1.48a1.53,1.53,0,0,0,0-.34l.51-.16L110,51a5,5,0,0,0,.05,2.42,1.25,1.25,0,0,0,.24.52.19.19,0,0,0,.33,0,1,1,0,0,0,.1-.67c0-.07,0-.14,0-.2l0-.09h0l0-.13c0-.16,0-.31-.06-.47s0-.08,0-.1,0,0,0,.11,0-.09,0-.13,0-.18,0-.28v0s0-.08,0-.12l0-.12v-.07s0,0,0,0a1.39,1.39,0,0,0,0-.49,1.17,1.17,0,0,0-.07-.26l.71-.2a5.56,5.56,0,0,0-.07.79,3,3,0,0,0,.28,1.44.58.58,0,0,0,.47.37c.21,0,.3-.21.32-.4a1,1,0,0,0-.05-.46.66.66,0,0,0-.09-.16h0a1,1,0,0,0-.1-.17L112,52l0,0v0l0-.12s0-.14,0-.2,0-.06,0-.08,0-.1,0-.15,0,0,0-.05,0-.09,0-.14l0-.15,0-.12c0-.07,0-.15.06-.22a1.19,1.19,0,0,0,0-.3c.36-.12.71-.26,1-.41a9.32,9.32,0,0,0,.13,1.64,3.94,3.94,0,0,0,.25,1,.68.68,0,0,0,.24.34h0l.06.05.06,0c.14.07.25-.11.28-.22a.89.89,0,0,0,0-.56s0,0,0,0l0-.07s0-.08,0-.12,0,.15,0,.06,0-.32,0-.07c0-.14-.06-.28-.09-.42v0l0-.15c0-.12,0-.24-.06-.36s-.05-.44-.07-.66c0,0,0,0,0-.06s0-.11,0-.17,0-.2,0-.3a1.47,1.47,0,0,0,0-.25c.13-.08.28-.14.41-.23.81-.55,1.46-1.36,2.32-1.84a3.05,3.05,0,0,1,1.83-.26c0,.08,0,.15,0,.2a5.68,5.68,0,0,0,.18,1.62,2.32,2.32,0,0,0,.27.67.58.58,0,0,0,.36.3.33.33,0,0,0,.25,0c.13-.07.17-.28.18-.41a.77.77,0,0,0-.12-.49c.06.09,0,0,0,0l-.05-.08v0l0,0-.12-.21-.06-.11,0,0c0-.08,0-.15-.07-.23v0l0-.14c0-.1,0-.2,0-.3h0s0-.08,0-.12,0-.19,0-.29,0-.06,0-.09c.32.07.62.15.89.23a5.25,5.25,0,0,1,.51.2,1.19,1.19,0,0,0,0,.3,9.26,9.26,0,0,0,.16,1.34c0,.23.1.47.17.7a2,2,0,0,0,.32.7c.11.14.27.08.36-.05a1,1,0,0,0,.12-.68,6,6,0,0,0-.19-.68l-.07-.23,0-.16v0c0-.16-.06-.33-.08-.49s0-.19,0-.28v-.12h0c1.65.95,2.43,2.6,3.16,4.48a.7.7,0,0,0,1,.46,7.73,7.73,0,0,0-.11,2.3,13,13,0,0,0-7-.42c-3.09.56-7.07,1.88-8.56,4.92a5.89,5.89,0,0,0,.75,6.29c.62.72,1.25-.14,1.43-.75a3.31,3.31,0,0,0-.38-2.87l-.07-.09a5.4,5.4,0,0,1,.91-.91,10.89,10.89,0,0,1,1.8-1.08,15.6,15.6,0,0,1,9-1.46,7.14,7.14,0,0,1,2.1.64,3.77,3.77,0,0,1,1.55,1.23c.59.76,1.26-.18,1.43-.75a3.82,3.82,0,0,0,.14-.9,1.46,1.46,0,0,0,.53-.1c1-.41.87-2.79.23-3.44a5.69,5.69,0,0,0-1.24-.82l-.27-.2-.2-.25,0-.07,0,0c.09-.17.17-.35.26-.51l.06-.12.09-.1c.14-.17.27-.34.43-.5a2.66,2.66,0,0,1,.72-.59A4.33,4.33,0,0,1,130,52a4.55,4.55,0,0,1,4.7,2.15,6.15,6.15,0,0,1,.46,1.6A5.45,5.45,0,0,0,136.18,58c.94,1.08,2.29,1.11,3.59,1.41A5.08,5.08,0,0,1,142.53,62a11.16,11.16,0,0,1,1.06,2.88c-.76.11-1.52.17-2.28.23m-69-17.47s.06,0,.08-.06c.29.6.25.67-.51,1.18l0,0-.06-.17c-.17-.56-.33-1.13-.5-1.7A11.59,11.59,0,0,0,70.51,45a7.77,7.77,0,0,1,1.66,2.17c-.06.18,0,.47.13.47"/><path d="M139.4,65.18v0"/></g></g></svg>