<svg xmlns="http://www.w3.org/2000/svg" viewBox="0 0 164.16 63.51"><defs><style>.cls-1{fill:#fff;}</style></defs><title>calm cloud 3</title><g id="Layer_2" data-name="Layer 2"><g id="Layer_1-2" data-name="Layer 1"><path class="cls-1" d="M2.39,45.3s15.49,12,37.81,4.06l4.17-9.58S48,41.93,50.85,37.6L56,41.37l8.13-3.3-.63,5.06s.25,11.7,20.21,16.77c0,0,17.61,6.27,33.29-6.07,0,0,11.89,2.25,16.58-3.63,0,0,22.59,8.08,24.78-11V35.25s9.29-3.77,2.06-11.33L156,23.48s4.07-12.2-6.57-9.07L147.33,16l-2.88-7.76s-6.38-12.39-22.27-1.69l-5.38,4.13-2.63.35s-8.38-13.68-22.4.15l-.5,2.57-10.14-.5S72.87-1.36,58.48,3.77L49.35,9.26v4.4l.06,3.29-.88,2.45A38.68,38.68,0,0,0,27,24.83Z"/><path d="M45.16,22c0,.08,0,0,0,0v0h0"/><path d="M37.18,22.45c0-.08-.09-.24-.18-.27s-.35.25-.37.42-.07.51-.1.77a3.5,3.5,0,0,0,0,1,.94.94,0,0,0,0,.12v0h0a.57.57,0,0,0,0,.12c0,.07.1.17.19.16a.24.24,0,0,0,.19-.16,3.74,3.74,0,0,0,.16-.93c0-.25.07-.5.1-.76a1.12,1.12,0,0,0,0-.46"/><path d="M65.63,32.92h0s0,0,0,0"/><path d="M68.18,28.81h0s0,0,0,0"/><path d="M72.06,27.58h0"/><path d="M74.79,28s0,.06,0,.09V28q0-.11,0,0"/><path d="M75.45,27.95h0v0c0-.1,0-.08,0,0"/><path d="M74.78,28.07h0Z"/><path d="M73.9,10.19s0-.06,0-.1h0V9.92c0-.14,0-.28.05-.41.08-.51.19-1,.24-1.52,0-.2,0-.57-.19-.68s-.33.25-.34.39c-.06.57-.19,1.13-.26,1.71a5,5,0,0,0,0,1,1.22,1.22,0,0,0,.28.77c.09.09.18,0,.23-.06a.68.68,0,0,0,0-.47h0s0,0,0,0v-.06l0-.15s0-.06,0-.09,0-.1,0,0,0,0,0,0Z"/><path d="M54.9,8.81h0s0,0,0,0"/><polyline points="63.24 23.23 63.24 23.22 63.24 23.23"/><path d="M69.38,21.35c0-.1,0,0,0,0"/><path d="M74.08,19a6.34,6.34,0,0,0-7.16-4.26,9.07,9.07,0,0,0-6.54,5.44,3.64,3.64,0,0,0,0,3c.3.58.88.76,1.26.34a2.84,2.84,0,0,0,.06.43c0,.12.14.28.27.18a.38.38,0,0,0,.12-.28h0c0-.33,0-.68,0-1,0-.08,0-.16,0-.25s.09-.2.14-.3.24-.38.2-.33l.2-.27c.12-.16.26-.31.39-.46,0,.2-.08.4-.11.6s-.1.59-.12.89a1.84,1.84,0,0,0,0,.37h0v0a1.2,1.2,0,0,0,.08.41.13.13,0,0,0,.25,0,.52.52,0,0,0,.07-.33h0v0h0a1.34,1.34,0,0,0,.08-.38c.05-.29.1-.58.16-.87.09-.47.18-.95.27-1.42l0,0,.09-.07.26-.18c-.09.44-.19.87-.25,1.31a8.53,8.53,0,0,0-.11,1.16,1.79,1.79,0,0,0,.06.55l0,.07,0,.12a.63.63,0,0,0,.08.13c.08.11.19,0,.24-.06a.62.62,0,0,0,0-.38v-.06c0-.12,0-.25,0-.37,0-.33.09-.67.15-1s.13-.72.21-1.09v0h0l0-.12,0-.21.09-.41v-.08a8.75,8.75,0,0,1,.81-.41,14.53,14.53,0,0,0-.4,2.09c0,.33-.1.66-.17,1a1.64,1.64,0,0,0,0,1.16c0,.07.14.2.24.13a.55.55,0,0,0,.18-.42,8.23,8.23,0,0,0,.38-1.69,11.28,11.28,0,0,1,.34-1.74,1,1,0,0,0,0-.68,6.18,6.18,0,0,1,.6-.17,1,1,0,0,0-.08.24c0,.11,0,.23-.07.34h0l0,.09-.05.24c-.08.35-.15.7-.22,1.05s-.11.59-.15.88a1.5,1.5,0,0,0,.11,1l-.08-.16c0,.13.13.35.3.27s.18-.34.14-.54v0l.05-.33.08-.4,0-.12v0l0-.1,0-.11c.12-.58.27-1.16.37-1.74a.86.86,0,0,0-.12-.63,6.42,6.42,0,0,1,1.2-.08c-.06.29-.12.57-.18.86l-.1.56-.05.28,0,.17v.06h0c0,.19-.09.38-.14.56a.94.94,0,0,0,.08.88l.05,0s0,0,0,0,0,0,.09,0,.14-.08.17-.15a1,1,0,0,0,.07-.27v-.08h0s0-.06,0-.1a10.26,10.26,0,0,0,.29-1.2c.1-.52.16-1,.29-1.46,0,0,0-.08,0-.13l.4.07a.48.48,0,0,0-.08.16,13.12,13.12,0,0,0-.32,1.68,3.79,3.79,0,0,0,0,1,1,1,0,0,0,.18.48.3.3,0,0,0,.11.08l.07,0h.05c.14,0,.19-.2.21-.31a.69.69,0,0,0-.07-.42v-.07h0c0,.16,0,.05,0,0s0-.09,0-.14h0v0c0-.12,0-.24,0-.36s.08-.5.13-.75l0-.08,0-.15.07-.28a1.07,1.07,0,0,0,0-.63,3.77,3.77,0,0,1,.46.16c.1,0,.18.1.28.15-.18.05-.24.4-.24.54s0,.2,0,.3c0-.2,0,0,0,.05l0,.15c0,.21-.06.43-.08.64a2.6,2.6,0,0,0,0,.85.58.58,0,0,0,.16.31s0,0,0,0l0,0,.05,0,.06,0c.14,0,.2-.11.23-.22a.65.65,0,0,0-.05-.41s0,0,0,0h0c0-.06,0-.11,0-.17v-.14c0-.09,0-.17,0-.26a6.52,6.52,0,0,0,.1-1.18.93.93,0,0,0-.08-.39l0,0a4.17,4.17,0,0,1,.86.64l0,0a.36.36,0,0,0-.1.18,2.06,2.06,0,0,0,.26,1.74.12.12,0,0,0,.15,0,.26.26,0,0,0,.1-.14.68.68,0,0,0,0-.52l0-.11v0l0-.06,0-.08a1.1,1.1,0,0,1,0-.12V21s0-.07,0-.11V20.8a1,1,0,0,0,0-.26c.1.12.21.24.3.36l.05.07.07.12.26.41v.08a4,4,0,0,0,0,.62.66.66,0,0,0,.09.25s.08.11.14.1.21-.23.23-.35,0-.13,0-.2c.36.12.71-.16.91-.54A3.46,3.46,0,0,0,74.08,19"/><path d="M89.23,38.45v0c0-.17,0-.08,0,0"/><path d="M89,41.72h0l0,0"/><path d="M88.63,40.18h0s0-.16,0,0"/><path d="M96.22,41a11.31,11.31,0,0,1-.2-1.19c-.1-.83-.13-1.56-.18-2.4,0-.19,0-.64-.32-.65s-.33.48-.32.65c0,.93.08,1.86.19,2.79a11.28,11.28,0,0,0,.25,1.38,5,5,0,0,0,.22.68c.07.16.17.43.37.44s.23-.25.23-.35A4.6,4.6,0,0,0,96.22,41"/><path d="M98.19,40.57c0-.05-.08-.16-.16-.18L98,40.17l0-.14,0-.06,0-.2,0-.09a10.73,10.73,0,0,0-.29-1.3.49.49,0,0,0-.19-.29.19.19,0,0,0-.24.06A1,1,0,0,0,97,39a4.6,4.6,0,0,1,.13.5v0l0,.14.07.33c0,.24.1.48.17.71a1,1,0,0,0,.32.61s0,0,.06,0a.18.18,0,0,0,.18,0,.49.49,0,0,0,.21-.31.75.75,0,0,0,0-.49"/><path d="M101.06,39.42h0s0-.07,0-.07h0a.56.56,0,0,1,0,.06"/><path d="M102.44,38.75a5.59,5.59,0,0,1-.3-.7l-.06-.21,0-.09v0c0-.14,0-.27-.07-.41a9.48,9.48,0,0,0-.35-1.73c-.05-.16-.2-.38-.37-.19a.84.84,0,0,0-.1.74,4.25,4.25,0,0,1,.13.43l0,.08v0l0,.22c.05.3.09.6.14.89a2.67,2.67,0,0,0,.73,1.67c.12.09.22-.12.24-.19a.75.75,0,0,0,0-.51"/><path d="M103.57,36.27a12.67,12.67,0,0,1-.28-2.2c0-.18,0-.58-.29-.59s-.3.44-.3.59a14.82,14.82,0,0,0,.3,2.54c.09.42.18.84.3,1.25a4.56,4.56,0,0,0,.42,1.17c.07.12.17.19.29.08a.7.7,0,0,0,.11-.54c-.09-.78-.39-1.53-.55-2.3"/><path d="M105.54,37.69c-.13-.45-.23-.92-.31-1.38a17.77,17.77,0,0,1-.31-2.78c0-.19-.05-.61-.31-.62s-.31.46-.31.62a19.16,19.16,0,0,0,.34,3.19A14.07,14.07,0,0,0,105,38.3a6.19,6.19,0,0,0,.27.72c.07.16.18.44.38.46s.21-.32.21-.43a5.13,5.13,0,0,0-.34-1.36"/><path d="M107.29,37.57c-.08-.48-.15-1-.22-1.44a24,24,0,0,0-.57-2.92c-.06-.21-.25-.44-.45-.24a1,1,0,0,0-.12.9,24.49,24.49,0,0,1,.56,2.8c.08.48.15,1,.25,1.43a3.36,3.36,0,0,0,.43,1.33c.2.27.33-.27.33-.38a8.44,8.44,0,0,0-.21-1.48"/><path d="M109.31,38.21c0-.16,0-.31,0-.47a10.75,10.75,0,0,0-.17-1.1,20.27,20.27,0,0,1-.47-3.1c0-.18,0-.61-.31-.61s-.31.45-.31.61a19.61,19.61,0,0,0,.5,3.47c.07.36.15.71.2,1.08,0,.21,0,.62.2.77s.38-.24.38-.44a.71.71,0,0,0,0-.15h0c0,.24,0,0,0-.08"/><path d="M111,35.9c-.09-.33-.19-.67-.27-1s-.16-.62-.22-.93a6.34,6.34,0,0,1-.11-1c0-.18,0-.61-.31-.61s-.31.45-.31.61a10.27,10.27,0,0,0,.37,2.37q.14.53.3,1.06a3.54,3.54,0,0,0,.4,1.08c.22.29.37-.3.37-.43A4.44,4.44,0,0,0,111,35.9"/><path d="M113.16,36.52a.82.82,0,0,0,0-.12c0,.09,0,.06,0-.05l0,0h0c0-.1-.07-.19-.11-.29l0-.11,0-.07h0l-.11-.32c-.15-.41-.28-.82-.41-1.24a.51.51,0,0,0-.2-.3.2.2,0,0,0-.25.07,1,1,0,0,0-.12.9c.15.47.3.94.49,1.4a3.28,3.28,0,0,0,.32.6c.08.11.27.32.42.23s.17-.46.13-.64"/><path d="M114.5,34.92c0,.08,0,0,0,0v0l0-.09,0-.16,0-.07v0c0-.06,0-.12,0-.18a.35.35,0,0,0-.07-.18.1.1,0,0,0-.12,0c-.11.07-.12.26-.11.37a3.47,3.47,0,0,0,.22.84.14.14,0,0,0,.11.09s.09,0,.11-.09a.54.54,0,0,0,0-.42"/><path d="M118.71,30.23c0-.53-.09-1.06-.16-1.6-.13-1-.3-2.06-.49-3.09,0-.17-.13-.52-.37-.42s-.24.55-.21.74c.18,1,.34,2,.47,3q.1.77.17,1.54a5.17,5.17,0,0,0,.19,1.47c.11.26.31.08.37-.1a4.47,4.47,0,0,0,0-1.58"/><path d="M119.59,28.34c0-.42-.06-.84-.1-1.25a17.84,17.84,0,0,0-.39-2.58c0-.19-.24-.42-.42-.22a1,1,0,0,0-.11.84,15.93,15.93,0,0,1,.33,2.33c0,.4.06.81.1,1.21s0,.93.25,1.2c.1.11.24.06.3-.08a3.24,3.24,0,0,0,0-1.45"/><path d="M121.9,26.94a1.53,1.53,0,0,0,0-.22l-.06-.21-.06-.24,0-.08v-.06a10.26,10.26,0,0,1-.14-1.06.26.26,0,0,1,0,0s0-.09,0-.13,0-.18,0-.27,0-.36,0-.53,0-.19,0-.29v-.14c0-.16,0-.31.06-.47s0-.63-.21-.75-.35.28-.37.43a10.45,10.45,0,0,0-.07,2.51,7.51,7.51,0,0,0,.19,1.23,3.5,3.5,0,0,0,.18.57l.1.18a.39.39,0,0,0,.13.15l.07,0c.25.14.29-.42.27-.54,0,.1,0-.05,0-.07"/><path d="M123.67,26.21s0-.12,0,0"/><path d="M125.34,24.42v0Z"/><path d="M125.63,25.28a3.4,3.4,0,0,0-.2-.43l0-.06v0l0-.07,0-.09a.06.06,0,0,1,0,0,.15.15,0,0,0,0,0v0h0a1.34,1.34,0,0,0,0-.16v-.08h0s0,0,0,0v0c0-.07,0,0,0,0s0-.13,0-.18,0-.16,0-.24a6.69,6.69,0,0,0-.15-2c-.06-.2-.26-.47-.46-.24a1.06,1.06,0,0,0-.12.92l0,.1c0,.07,0,.15,0,.22s0,.15,0,0,0,0,0,0,0,.16,0,.24c0,.32,0,.64,0,1a3.58,3.58,0,0,0,.16,1.08,1.45,1.45,0,0,0,.26.49c.11.13.23.22.4.15s.19-.54.14-.7"/><path d="M125.41,24.79h0"/><polyline points="125.38 24.68 125.38 24.67 125.38 24.67 125.38 24.68"/><path d="M126.54,25.17l0,0h0s0,.06,0,0"/><path d="M128.33,23.27a.48.48,0,0,0,0-.07s0,0,0,.06Z"/><path d="M127.75,22c0,.09,0,.05,0,0"/><path d="M129.62,23h0"/><path d="M131.69,22.41h0"/><path d="M132,23.14l-.12-.24,0-.07h0a.38.38,0,0,0,0-.07l0-.06c0-.09-.05-.17-.07-.26v-.06l0-.14a.43.43,0,0,0-.08-.22.11.11,0,0,0-.14,0c-.14.08-.15.31-.13.45a3.12,3.12,0,0,0,.41,1.22s.06.1.12.1.1-.06.12-.1a.59.59,0,0,0,0-.49"/><path d="M132.46,18a12.82,12.82,0,0,0-5.92-1,14.4,14.4,0,0,0-5.18.8,15,15,0,0,0-6.88,5.77,10.08,10.08,0,0,0-1.57,5.67c-1.81-1.4-4.76-1.52-6.86-1.21a8.3,8.3,0,0,0-4.49,2,14.55,14.55,0,0,0-2.84,4c-2.21-2.79-7-2.92-9.76-.8a4.19,4.19,0,0,0-1.8,4.21c.08.4.23,1.12.76,1.16a.81.81,0,0,0,.62-.24,12.14,12.14,0,0,0,.07,1.58l0,.26v.12c0,.15,0,.3,0,.44s0,.13,0,.2v0c-.15.17-.17.82.12.83a.3.3,0,0,0,.14,0l.08-.06,0,0a.82.82,0,0,0,.21-.4,4.08,4.08,0,0,0,.06-1.22c0-.23,0-.47,0-.7v-.14h0c0-.09,0-.17,0-.26s0-.33,0-.49v0a.93.93,0,0,0,0-.1v-.05h0a1.26,1.26,0,0,0,0-.76l.11-.12.19-.17.37-.25a1.61,1.61,0,0,0,0,.41c.08.74.13,1.49.22,2.23,0,.37.09.74.17,1.11s.11.76.39.85.29-.3.29-.45,0,0,0,0a1.36,1.36,0,0,0,0-.29c0-.06,0-.12,0-.17s-.06-.29-.08-.44c-.06-.35-.1-.7-.14-1.06-.07-.72-.13-1.44-.2-2.15a.87.87,0,0,0-.13-.35,6.26,6.26,0,0,1,.95-.41,1.23,1.23,0,0,0,0,.52,22.76,22.76,0,0,1,.75,3.21c.09.55.18,1.1.26,1.65a5,5,0,0,0,.34,1.57c.16.31.37,0,.4-.21a7,7,0,0,0-.15-1.81c-.08-.55-.16-1.11-.26-1.66a25.25,25.25,0,0,0-.81-3.38l0-.05A7.44,7.44,0,0,1,93,36l.43,0a1,1,0,0,0-.11.89,18.69,18.69,0,0,1,.67,4,9.29,9.29,0,0,0,.71,3.62c.22.4.38-.24.36-.42q-.25-1.9-.44-3.8a19.08,19.08,0,0,0-.73-4.07.62.62,0,0,0-.14-.24,7.68,7.68,0,0,1,.93.06,4.11,4.11,0,0,1,1.39.37,5,5,0,0,1,.7.36l.34.23.09.07h0c.19.19.34.39.52.58v0l.06.1c.07.13.13.26.19.39a1.24,1.24,0,0,0,.31.42,1.25,1.25,0,0,0,0,.38c.05.22.11.43.17.65a2.13,2.13,0,0,0,.3.74.18.18,0,0,0,.13.07.19.19,0,0,0,.15-.11.84.84,0,0,0,.09-.52A4.1,4.1,0,0,0,99,39l-.08-.3a1.15,1.15,0,0,0,.55-.57,3,3,0,0,0,.16-.47,1.07,1.07,0,0,0,.44-.43c.12.41.21.83.3,1.25a5.9,5.9,0,0,0,.37,1.35c0,.09.14.16.23.09a.5.5,0,0,0,.13-.38v-.16h0v0s0,0,0,0a3.21,3.21,0,0,0-.05-.43c-.05-.32-.12-.63-.18-.95-.1-.49-.22-1-.37-1.46a10.77,10.77,0,0,1,2-2.74,6.62,6.62,0,0,1,3.62-1.61,12.32,12.32,0,0,1,3.93.07,6,6,0,0,1,1.75.58,3.69,3.69,0,0,1,1.15,1.07c.45.51,1,.19,1.24-.31.13.23.24.46.39.68.54.82,1.28-.23,1.43-.75a3.45,3.45,0,0,0-.38-2.87A4.07,4.07,0,0,1,115,29.5s-.07-.63-.06-.39a1.67,1.67,0,0,1,.06-.62,5.58,5.58,0,0,1,.66-1.51.93.93,0,0,0,0,.29,10.66,10.66,0,0,1,.5,2.88c0,.49.07,1,.14,1.47,0,.23.07.47.12.7a1.44,1.44,0,0,0,.28.77c.22.19.35-.11.37-.3a7,7,0,0,0-.17-1.6c-.06-.51-.09-1-.14-1.53a11.29,11.29,0,0,0-.56-3,.55.55,0,0,0-.19-.27l.2-.28a13.77,13.77,0,0,1,5.54-4.25,6.66,6.66,0,0,1,1.06-.33,1.45,1.45,0,0,0-.09.45,24.94,24.94,0,0,0,0,2.69,11,11,0,0,0,.15,1.41,3.87,3.87,0,0,0,.14.56,1,1,0,0,0,.16.33.31.31,0,0,0,.16.09s-.06,0,0,0c.27.12.3-.39.29-.55h0a.68.68,0,0,0,0-.25v0l0-.17c0-.14,0-.29-.07-.43s0-.38-.06-.57,0-.12,0-.18v0h0l0-.34c0-.83-.05-1.67,0-2.51a1,1,0,0,0-.14-.54,18,18,0,0,1,2.25-.25l.64,0c0,.71,0,1.42.1,2.13l.07,1h0c0,.07,0,.14,0,.22l0,.19a1.18,1.18,0,0,0,0,.25l.08.18c.06.11.15.13.22.08h0l0,0,0,0h0a.64.64,0,0,0,.08-.16,1.62,1.62,0,0,0,.05-.38c0-.13,0-.26,0-.39,0-.38,0-.76-.07-1.14l0-.26v-.16s0-.06,0-.09v-.22q0-.13,0-.26c0-.31,0-.62,0-.94.39,0,.79,0,1.18,0a.87.87,0,0,0-.23.62c0,.07,0,.13,0,.2v.08c0,.18,0,.35,0,.53a12.18,12.18,0,0,0-.06,1.24,3.58,3.58,0,0,0,.21,1.31.93.93,0,0,0,.3.42.36.36,0,0,0,.37.05c.22-.14.22-.58.1-.78a1.83,1.83,0,0,0-.14-.21h0l0-.09,0-.07,0-.16v-.19h0c0-.16,0-.32,0-.47s0-.16,0-.25v-.11h0a.47.47,0,0,1,0-.06c0-.15,0-.3,0-.44,0-.32.06-.65.06-1a1,1,0,0,0-.18-.61c.44,0,.87.08,1.3.15a.88.88,0,0,0-.09.74c0,.08,0,.16.07.25a.94.94,0,0,1,0,.11h0c0,.15,0,.31.06.47s0,.07,0,.11v0c0,.08,0,.17,0,.26s0,.32,0,.48,0,.36.17.44.23-.1.26-.21a4.84,4.84,0,0,0-.13-2.46l-.05-.12.6.11a5.45,5.45,0,0,1,1.95.84.57.57,0,0,0-.09.34,4.47,4.47,0,0,0,.22,1.26.3.3,0,0,0,.12.18.11.11,0,0,0,.09,0c0,.05,0,.1.06.15v.2s0,0,0,0,0,.09,0,.13a.69.69,0,0,0,.07.31.22.22,0,0,0,.13.12c.11,0,.17-.08.21-.18.59.46,1.15-.23,1.31-.85.57-2.29.15-4.89-2.11-6.06"/><path d="M94.86,16.86c-.06-.41-.18-.7-.22-1.09a10.38,10.38,0,0,1,0-1.29c0-.88.13-1.77.13-2.65,0-.18-.05-.6-.3-.6s-.3.44-.3.6c0,1-.13,1.88-.14,2.88a9.19,9.19,0,0,0,.08,1.51c.05.36.13,1,.48,1.22s.3-.46.29-.58"/><path d="M107.65,10.7a.86.86,0,0,0-.13-.24l0,0h0l0-.07,0-.07h0V10.2s0-.05,0-.08,0-.09,0-.13v0l0-.16c0-.11,0-.22,0-.33s.08-.45.1-.68a1.26,1.26,0,0,0,0-.51.51.51,0,0,0-.2-.3c-.26-.13-.38.29-.4.46a13.87,13.87,0,0,0-.19,1.65,2.11,2.11,0,0,0,.19,1,.68.68,0,0,0,.26.29.5.5,0,0,0,.16.05.22.22,0,0,0,.19-.07.5.5,0,0,0,.1-.27.74.74,0,0,0,0-.35"/><path d="M109,8.47c-.18-.2-.35,0-.4.21a6.27,6.27,0,0,0-.24,1.76,3.56,3.56,0,0,0,.1.92,1.46,1.46,0,0,0,.08.21.52.52,0,0,0,.07.11s.08.1.08.07,0-.06,0,0l0,0,.1.09c.12.08.22-.11.24-.19a.73.73,0,0,0,0-.51v0h0c0-.13,0-.26,0-.39v0s0,0,0-.06h0v0s0-.07,0-.11,0-.21,0-.32v-.19c0-.1,0-.21,0-.31s0-.2.05-.29v0l0-.14a.91.91,0,0,0-.1-.8"/><path d="M109,10.73v0c0-.08,0-.09,0-.07v0"/><path d="M110.21,10.49v0"/><path d="M111.81,10.19h0"/><path d="M70.54,51.11h0s0-.09,0-.14,0-.17,0-.26v0a.09.09,0,0,0,0,0s0-.1,0-.15c0-.53,0-1.07,0-1.6,0-.26,0-.45.05-.75l.07-.85c0-.44.08-.89.08-1.33,0-.17,0-.56-.28-.56s-.28.42-.28.56,0,.19,0,.28v.13h0v.08q0,.38-.06.77c-.06.65-.11,1.31-.15,2a11.3,11.3,0,0,0,0,1.73c0,.31.1.87.45,1s.33-.66.17-.81h0"/><path d="M98.75,59.15h0s0,.07,0,0"/><path d="M98.57,58.47h0"/><path d="M88.46,28a.54.54,0,0,0-.17-.45.14.14,0,0,0-.07,0s0-.09,0-.14c0-.21,0-.41,0-.62,0-.42,0-.84,0-1.26a1.14,1.14,0,0,0-.1-.49c0-.09-.13-.2-.25-.2-.29,0-.35.51-.35.7,0,.79,0,1.59,0,2.38,0,.27,0,.6.27.77a.35.35,0,0,0,.33.07.51.51,0,0,0,.22-.38.77.77,0,0,0,.08-.35"/><path d="M90,26.66a2.42,2.42,0,0,0-.18-.25l-.07-.1,0,0,0-.07c0-.06-.07-.13-.1-.19v0h0l0-.11s0-.17,0,0l0-.11v-.12s0-.08,0-.12v0c0-.08,0-.17,0-.25a1,1,0,0,0,0-.42c0-.08-.08-.21-.16-.25s-.31.23-.33.38a3.34,3.34,0,0,0,.05,1.45,1.86,1.86,0,0,0,.28.58.69.69,0,0,0,.46.31c.12,0,.17-.17.19-.26a.68.68,0,0,0,0-.45"/><path d="M90.94,26.88a2.91,2.91,0,0,0-.2-.44l0-.08h0l0-.15h0v-.12s0-.09,0-.13v-.09a1.08,1.08,0,0,0,0-.45c0-.08-.08-.23-.17-.27s-.33.24-.36.41a3,3,0,0,0,.06,1.21,2.1,2.1,0,0,0,.32.7.37.37,0,0,0,.19.16.17.17,0,0,0,.13,0,.32.32,0,0,0,.13-.18.87.87,0,0,0,0-.56"/><path d="M102.77,20.33l.05-.18,0,0,0-.1.11-.19a.81.81,0,0,0,0-.58c0-.1-.13-.3-.27-.22a1.42,1.42,0,0,0-.55.84,3.93,3.93,0,0,0-.15,1.21,17.15,17.15,0,0,0,.26,2.15c0,.18.15.61.42.47s.27-.6.24-.84-.09-.55-.13-.82,0-.32-.07-.48l0-.22V21.2h0c0-.15,0-.3,0-.45s0-.06,0-.1,0,0,0,0,0-.14,0-.21l0-.1"/><path d="M104.56,19.16c-.09,0-.18.12-.21.17a3.39,3.39,0,0,0-.31,1.75c0,.53.05,1.07.05,1.6,0,.19.06.66.33.66s.33-.48.33-.66c0-.58-.06-1.16-.05-1.74,0-.07,0-.13,0-.2v-.09c0-.13,0-.26,0-.39l0-.09a2.09,2.09,0,0,0,.07-.28c0-.25,0-.66-.28-.74"/><path d="M106.33,19.13a.91.91,0,0,0-.11-.32c0-.06-.11-.14-.19-.13s-.27.29-.3.46a5.21,5.21,0,0,0-.06.67v.11c0,.09,0,.18,0,.27,0,.36-.08.71-.12,1.07a1.35,1.35,0,0,0,0,.54c0,.1.1.28.21.32.27.11.41-.29.43-.49,0-.37.09-.74.13-1.11a4.7,4.7,0,0,0,0-1.38"/><path d="M105.66,19.88h0"/><path d="M155.55,18.07a2.18,2.18,0,0,0-.62-.13l-.65-.09L153,17.64c-.06,0-.12.08-.15.12a.65.65,0,0,0-.06.29c0,.14,0,.38.21.41l1.25.19.62.08a1.91,1.91,0,0,0,.62,0c.13,0,.16-.19.17-.3s0-.33-.12-.38"/><path d="M141.57,49.37v0h0Z"/><path d="M143.32,49.38c0,.06,0,.12,0,0"/><path d="M143.49,48.18v0a.37.37,0,0,1,0,.07s0-.15,0-.09"/><path d="M149.45,47.5l0,0,0,.09-.05-.14"/><path d="M154,45c-.21,0-.21.6,0,.6s.21-.6,0-.6"/><path d="M131.55,31.37a.22.22,0,0,0-.27-.07,15.11,15.11,0,0,0-7.07,7.39c-1,2.44-1.8,6,0,8.33.2.26.42-.06.48-.25a1.11,1.11,0,0,0-.12-1,4.42,4.42,0,0,1-.57-3.36A11.48,11.48,0,0,1,125,39a14.59,14.59,0,0,1,6.23-6.21c.19.47.59.2.59-.36a1.27,1.27,0,0,0-.3-1"/><path d="M135.37,9.11a1.42,1.42,0,0,1,.53-.39c.42-.19.3-1.56-.18-1.35-1.27.57-1.5,2.25-1.44,3.47a8.6,8.6,0,0,0,.39,2.18,4.83,4.83,0,0,0,.81,1.67c.21.24.41,0,.47-.25a1.15,1.15,0,0,0-.12-.95,5.27,5.27,0,0,1-.55-1.15,6.28,6.28,0,0,1-.3-1.5,3.12,3.12,0,0,1,.14-1.3,1.81,1.81,0,0,1,.25-.45"/><path d="M164.16,29a8.78,8.78,0,0,0-2.31-6A7.3,7.3,0,0,0,160,21.36c-1.34-.68-1.86,1.15-1.84,2.15a4.67,4.67,0,0,0,.11.68c-.06-.17-.11-.33-.18-.5s-.23-.43-.44-.23a1,1,0,0,0-.12.88c.53,1.42,1,2.86,1.49,4.3.23.7.47,1.41.72,2.11l.38,1,.1.28-.48.44c0-.13-.08-.23-.17-.22l0,0,0,0,0-.09c0-.12-.09-.24-.14-.36-.2-.48-.41-1-.6-1.44-.44-1.11-.86-2.27-1.24-3.42-.14-.42-.28-.84-.39-1.27-.05-.21-.24-.42-.44-.23a1,1,0,0,0-.12.87,31.42,31.42,0,0,0,1,3.06c.24.67.49,1.34.75,2a8.79,8.79,0,0,0,.67,1.42,1.57,1.57,0,0,0,.18.23c-.26.2-.51.4-.78.59A4.72,4.72,0,0,1,158,33a16.21,16.21,0,0,1-.95-2c-.51-1.28-.91-2.61-1.48-3.87a12.92,12.92,0,0,0,2.47-7.5c.05-3-1-7.11-4.12-8.28-2.56-1-4.77,1.32-6.51,3.27A30.21,30.21,0,0,0,146,8.75c-1.25-3.57-3.37-7-7.17-8.15a16.83,16.83,0,0,0-12.7,1.63c-1.81,1-3.62,2.07-5.32,3.24s-3.37,2.42-4.18,4.26a3.54,3.54,0,0,0,0,3c.39.7,1.11.83,1.48,0a8,8,0,0,1,2.84-2.89c1.31-.94,2.69-1.76,4.08-2.57a19,19,0,0,1,9.62-3c3.58,0,6.79,1.24,8.54,4.49A21.27,21.27,0,0,1,145,13.93c.16.66.22.9.33,1.55,0,.06,0,.11,0,.17l-.34-.21c-1.19-.86-1.58,3-.79,3.77s1.6,1.24,2.38.6a.65.65,0,0,0,.63-.25c1.41-1.48,3.76-5,6.23-4.14A3.28,3.28,0,0,1,155,16.56a6.48,6.48,0,0,1-1.77-.19c-.18-.06-.26.17-.28.32a.82.82,0,0,0,0,.35c0,.07.06.19.14.21a5,5,0,0,0,2.2.16.2.2,0,0,0,.14-.11,5.78,5.78,0,0,1,.39,3.07h-.09l-.45,0a6.24,6.24,0,0,1-1-.26c-.65-.22-1.29-.49-2-.68-.19-.05-.27.17-.29.33s0,.53.17.58c.69.19,1.35.49,2,.69a5.5,5.5,0,0,0,1,.22h.4c0,.18-.09.37-.16.54s-.1.2-.14.31h-.15a2.92,2.92,0,0,1-.78-.24c-.54-.23-1-.53-1.56-.78-.27-.13-.35.67-.11.78.55.27,1.08.59,1.65.82a3.76,3.76,0,0,0,.58.18,8.44,8.44,0,0,1-.52.8c-.19-.05-.38-.1-.56-.17a8.05,8.05,0,0,1-.83-.35c-.56-.27-1.09-.58-1.64-.86-.29-.15-.39.73-.12.87.56.28,1.1.6,1.66.87a6.54,6.54,0,0,0,.84.33l.07,0a11.69,11.69,0,0,1-.85.86l-.34-.08a10.43,10.43,0,0,1-1.09-.39,9.81,9.81,0,0,1-1.95-1.06c-.16-.12-.26.22-.28.32a.59.59,0,0,0,.16.55,8.84,8.84,0,0,0,2,1c.25.1.51.17.77.24-.34.27-.69.52-1,.76h0a6.75,6.75,0,0,0-.76-.32c-.31-.14-.61-.28-.91-.43-.63-.32-1.24-.65-1.88-1-.34-.16-.44.82-.13,1,.64.3,1.26.65,1.9,1,.28.13.56.26.85.37-.41.24-.83.46-1.24.66,0,0,0-.08,0-.12a.8.8,0,0,0,0-.13l0-.09c0,.1,0,0,0,0a.71.71,0,0,0-.18-.23,3.83,3.83,0,0,0-.61-.42c-.52-.31-1.07-.58-1.59-.9l-.38-.25-.15-.12,0,0-.07-.06c-.16-.17-.31,0-.36.19a.82.82,0,0,0,.09.72,6.94,6.94,0,0,0,1.76,1.12c.3.16.6.31.9.48l.19.12c-.6.27-1.2.52-1.8.76v0a2.25,2.25,0,0,0-1.12-1.43l-.66-.44-.33-.23-.14-.11,0,0h0l-.09-.08c-.06-.06-.13-.1-.21-.06a.43.43,0,0,0-.17.25,1,1,0,0,0,0,.43.59.59,0,0,0,.13.33,11.74,11.74,0,0,0,1.33,1l.31.22.14.11,0,0,.07.07.23.23c-.42.17-.84.34-1.24.54a.44.44,0,0,0-.08-.17,2.77,2.77,0,0,0-.75-.44,3.85,3.85,0,0,1-.61-.44,7.59,7.59,0,0,1-1.09-1.22c-.17-.23-.37.05-.42.22a1,1,0,0,0,.11.83,7.12,7.12,0,0,0,1.18,1.29,3.66,3.66,0,0,0,.68.44h0a10.88,10.88,0,0,0-1,.6.62.62,0,0,0-.1-.41,14.33,14.33,0,0,0-1.48-1.43c-.24-.23-.48-.47-.7-.71l-.32-.38-.14-.19-.08-.11,0,0,0,0c0-.08-.11-.18-.21-.18s-.18.1-.21.18a1,1,0,0,0,0,.86,7.22,7.22,0,0,0,1.38,1.6c.27.24.55.47.83.7a7,7,0,0,0,.63.46l-.1.08a5.54,5.54,0,0,0-2.13,3.5,4.85,4.85,0,0,0,.93,3.86l0,0a2.45,2.45,0,0,0-.48,1.25,2.81,2.81,0,0,0,.73,2.58,9,9,0,0,0,3.37,1.63,11.52,11.52,0,0,0,1.68.31,5,5,0,0,0,2,0c.28-.09.44-.5.53-.74,0-.08,0-.16.07-.23,1.43-2,2.76-4.56,4.94-5.66,1.22-.62,2.24.06,2.86,1.18s.21,2.75-.37,4a11.32,11.32,0,0,1-3.27,4s0-.06-.07-.06-.12.1-.14.22a13.93,13.93,0,0,1-1.44,1v-.4a.53.53,0,0,0,0-.24s-.06-.1-.12-.1a.15.15,0,0,0-.12.1.56.56,0,0,0,0,.24V48a.78.78,0,0,0,0,.1,15.87,15.87,0,0,1-1.57.76s0,0,0-.07v-.19a1,1,0,0,0-.09-.31,2.22,2.22,0,0,1-.15-.3,2.29,2.29,0,0,1-.08-.26v.05a1.52,1.52,0,0,0-.07-.24.82.82,0,0,0-.11-.21.2.2,0,0,0-.25-.06.5.5,0,0,0-.19.29,1.88,1.88,0,0,0,.07,1.12,3.34,3.34,0,0,0,.2.44c-.41.15-.83.29-1.25.41a1.63,1.63,0,0,0,0-.3l0-.09a5,5,0,0,1-.09-.62v0a2.48,2.48,0,0,0,0-.26,1.37,1.37,0,0,0-.1-.34.26.26,0,0,0-.28-.19c-.15,0-.2.2-.25.32a1.52,1.52,0,0,0,0,.63c0,.16,0,.33,0,.49a5.75,5.75,0,0,0,.11.58c-.48.11-1,.22-1.45.3,0-.16,0-.31-.06-.47v-.08c0-.08,0-.16,0-.24s0-.07,0-.11v-.18h0l0-.09a1.88,1.88,0,0,0,0-.2.7.7,0,0,0-.13-.48c-.2-.2-.39,0-.47.21a2.92,2.92,0,0,0-.12,1.4c0,.11,0,.22,0,.33-.54.07-1.08.12-1.62.14a1.2,1.2,0,0,0,0-.22c0-.08,0-.16-.07-.24h0l0-.11c0-.08,0-.15,0-.23s0-.08,0-.11v0c0-.13,0-.26,0-.39s.19-.22.21-.3a1,1,0,0,0,0-.4s0,0,0,0,0,0,0,0,0,0,0,0v-.06a.33.33,0,0,0,0-.08.9.9,0,0,0,0-.17.49.49,0,0,0-.2-.3.37.37,0,0,0-.41.12,1.25,1.25,0,0,0-.19.76,6.71,6.71,0,0,0,.08,1.77c-.39,0-.78,0-1.16,0,0-.27,0-.55,0-.83,0,.08,0,0,0,0s0,0,0-.06v0c0-.06,0-.12,0-.17s0-.12,0-.18v0l0-.1,0-.11a.71.71,0,0,0,.12-.5.55.55,0,0,0-.18-.42.25.25,0,0,0-.14,0h-.06c-.15,0-.28.2-.32.31a3.14,3.14,0,0,0-.2,1c0,.37,0,.74,0,1.12-.4,0-.8-.09-1.2-.16,0-.19,0-.38,0-.57s0-.16,0-.24a1.09,1.09,0,0,1,0-.24h0s0-.09,0-.13,0-.16,0-.24,0-.15,0-.23l0-.1,0-.09h0l.05-.24a2.34,2.34,0,0,0,0-.26.5.5,0,0,0,.16-.33.76.76,0,0,0-.11-.57c-.14-.16-.32-.31-.5-.14l.15-.08c-.16,0-.25.22-.29.34a1.81,1.81,0,0,0,0,.23v.05c0,.2,0,.24,0,.12s0-.08,0,0l0,.17s0,.07,0,.1v0c0,.2-.08.4-.11.61A12.92,12.92,0,0,0,139,49.9c-.36-.08-.72-.16-1.07-.26a1.08,1.08,0,0,0,0-.21q0-.32,0-.64s0-.1,0-.14v0c0-.12,0-.24,0-.36s0-.22.06-.33v-.06l.05-.19c0-.1.06-.19.09-.28l0-.12h0c0-.06,0-.15.07-.17v0h0l.05-.13c0-.09,0,0,0,0s0-.11.06-.16a.89.89,0,0,0-.08-.78c-.21-.24-.47.12-.57.3a4.27,4.27,0,0,0-.45,1.48,8.08,8.08,0,0,0-.09,1.66,10.23,10.23,0,0,1-1.67-.74l.17-.79,0-.11h0v0l.05-.23c0-.17.08-.34.13-.51s.1-.32.15-.47h0v0l.06-.13.1-.21c.17-.34.39-.63.55-1s.14-1-.26-.88-.58.49-.75.79a5.37,5.37,0,0,0-.44,1.07c-.11.37-.2.76-.27,1.14l-.11.55,0,.11v0l-.05.23a7.12,7.12,0,0,1-1.06-.89c.2-.68.4-1.37.64-2l.06-.17v0l0,0,.13-.32a5.67,5.67,0,0,1,.27-.56l.07-.12,0-.07,0-.06.07-.09.07-.08,0-.06,0,0,.06-.07c.06-.07,0,0,0,0a.62.62,0,0,0,.2-.51c0-.14,0-.47-.2-.51-.37-.11-.6.14-.79.43a7.08,7.08,0,0,0-.67,1.44c-.27.73-.49,1.48-.7,2.23l-.14-.19a6.54,6.54,0,0,1-.48-.89.58.58,0,0,0,.15-.25,10,10,0,0,1,.77-2.11,7.14,7.14,0,0,1,.56-.94c.14-.2.31-.39.45-.58a.16.16,0,0,0,.27,0,.73.73,0,0,0,.11-.54c0,.26,0,0,0-.08a1.38,1.38,0,0,0,0-.16,1.22,1.22,0,0,0-.14-.49c0-.08-.11-.18-.21-.18s-.37.22-.5.36a4.81,4.81,0,0,0-.36.46,9.22,9.22,0,0,0-.68,1.13,11.8,11.8,0,0,0-.84,2.27l-.05-.14c-.09-.3-.14-.61-.22-.9a.29.29,0,0,0,0-.06v0a2.89,2.89,0,0,0,.22-.74l0-.06v0h0a9.5,9.5,0,0,1,.49-1.05,5.35,5.35,0,0,1,.56-.86c.24-.3.59-.55.7-.93a.8.8,0,0,0-.17-.82c-.29-.22-.73.38-.88.57a7.74,7.74,0,0,0-.68,1.06l-.09.19c-.13-.44-.38-.73-.79-.65-2.21.42-1.58,4.16-1.22,5.68a13.32,13.32,0,0,0,1.42,3.62c-3.35,2.44-7.45,5.06-11.48,2.57A8.48,8.48,0,0,1,117,48c-.33-.74-.61-1.5-.89-2.25a9.12,9.12,0,0,0-1.26-2.86c-1.07-1.24-1.52,1.62-1.43,2.19a17,17,0,0,0,1,3.11c.37,1,.74,2,1.2,3q.15.32.32.64c-.32.18-.63.39-.94.58a2.43,2.43,0,0,1-.26-.35,5.19,5.19,0,0,1-.5-1.31,10.81,10.81,0,0,1-.24-1.39q0-.33-.06-.67c0-.14,0-.33,0-.53s0-.48-.24-.48-.25.36-.24.48a15.2,15.2,0,0,0,.41,3.16,5.66,5.66,0,0,0,.57,1.47l-1.61,1.08a2.6,2.6,0,0,1-.43-.79,7,7,0,0,1-.24-1.43,8.18,8.18,0,0,0-.57-3c-.1-.19-.27-.18-.37,0a.89.89,0,0,0,0,.75,8.77,8.77,0,0,1,.47,2.9,5.75,5.75,0,0,0,.37,1.57,3.45,3.45,0,0,0,.19.37l-.95.65,0,0-.06-.1-.11-.23h0l0-.08h0l0-.05c0-.08,0-.16-.07-.24-.09-.36-.15-.72-.25-1.07,0-.14-.2-.36-.34-.18a.81.81,0,0,0-.09.69c.1.38.16.76.27,1.13a2.51,2.51,0,0,0,.23.54c-.68.45-1.36.9-2.06,1.32l0-.17v0l0-.12c0-.09,0-.19,0-.28s0-.38-.07-.57,0-.21,0-.31,0-.08,0-.11c0,.17,0,0,0,0,0-.29,0-.59,0-.88s0-.55-.28-.55-.28.4-.27.55c0,.61,0,1.22.11,1.82a9,9,0,0,0,.15,1c-.53.3-1.06.59-1.61.85,0-.15,0-.31-.05-.47-.07-.51-.14-1-.22-1.53-.16-1-.32-2.06-.53-3.08,0-.14-.1-.44-.31-.35s-.21.47-.18.62c.21,1,.37,2.06.53,3.09.07.49.15,1,.22,1.49l.07.46a16.12,16.12,0,0,1-2.07.77c-.13-.67-.28-1.35-.41-2-.16-.86-.32-1.73-.52-2.58,0-.17-.21-.36-.37-.19a.85.85,0,0,0-.1.73c.2.83.35,1.67.51,2.51.11.56.21,1.13.37,1.68l-.71.16-.28,0s0-.06,0-.08a1.36,1.36,0,0,0-.22-.4h0v0l0-.06-.07-.14-.07-.16,0-.06v0q-.06-.16-.11-.32c0-.11-.06-.22-.08-.33l0-.17h0l0-.09c-.05-.25-.1-.5-.15-.76s-.2-.35-.35-.18a.83.83,0,0,0-.09.7c0-.13,0,0,0,.08l0,.18.07.36c.05.27.11.53.19.79a3.68,3.68,0,0,0,.28.72l0,.06c-.43.06-.85.11-1.28.14v0l0-.09a2.68,2.68,0,0,1-.13-.45h0v0l0-.13c0-.08,0-.15,0-.23s0-.36-.06-.53-.13-.49-.33-.37-.2.45-.18.65a6.63,6.63,0,0,0,.19,1.21v0c-.36,0-.71.06-1.07.06l0-.06-.05-.12,0-.05h0c0-.08-.06-.16-.08-.24l-.06-.24,0-.13v0c0-.22-.09-.45-.14-.67s-.22-.38-.37-.19a.88.88,0,0,0-.1.74l0,.14v.07l.07.33c0,.16.07.32.12.47H97l0-.09s0-.25,0-.08c0-.06,0-.12,0-.17a13.29,13.29,0,0,0-.27-1.58c0-.16-.22-.4-.39-.2a.91.91,0,0,0-.1.78c0,.06,0,.12,0,.18l0,.09c0,.13,0,.26.06.39s.07.43.11.65c-.47,0-.93,0-1.4-.09,0-.09-.07-.17-.11-.26a15.17,15.17,0,0,1-.62-2.55c-.26-1.51-.37-3-.59-4.55,0-.18-.13-.53-.38-.43s-.24.56-.21.75c.17,1.2.25,2.41.41,3.61a20.76,20.76,0,0,0,.65,3.34L92.94,59l-.14-.48c0-.16-.09-.33-.14-.49s0-.16-.06-.24v-.06l0-.14a.62.62,0,0,0-.12-.31.16.16,0,0,0-.2-.05c-.19.11-.21.45-.18.64a9.4,9.4,0,0,0,.25,1.05c-.6-.09-1.2-.19-1.8-.3-.06-.37-.16-.73-.25-1.1l-.07-.29,0-.09s0,0,0,0l0-.14a6.07,6.07,0,0,1-.08-.64c0-.14-.12-.46-.32-.36s-.2.46-.18.64A7.9,7.9,0,0,0,89.83,58l.14.52-1-.2-.05-.11h0l0,0c0-.12-.07-.25-.1-.37h0l0-.1,0-.22c-.09-.54-.13-1.09-.24-1.63,0-.13-.11-.46-.32-.36s-.21.46-.18.63c.12.59.16,1.19.27,1.79,0,.1,0,.2.07.31l-1.24-.27,0-.08c0-.13-.07-.25-.1-.38h0l0-.1,0-.19c0-.13,0-.25-.06-.38s-.08-.53-.12-.79-.12-.5-.35-.39-.23.5-.2.69c.09.49.16,1,.25,1.48l-.56-.13-.28-.08a12.48,12.48,0,0,0-.38-1.19A8.47,8.47,0,0,1,85,54.92,27.54,27.54,0,0,1,85,52c0-.18-.05-.6-.31-.61s-.3.45-.31.61a30.8,30.8,0,0,0,0,3.16,10.77,10.77,0,0,0,.24,1.6c0,.18.09.36.15.54L83,56.87h0a3.53,3.53,0,0,1-.15-.58,13.65,13.65,0,0,1-.18-1.67c-.06-1.09-.06-2.19,0-3.28,0-.17-.05-.57-.28-.57s-.28.41-.28.57c0,1.23,0,2.46,0,3.69a11.84,11.84,0,0,0,.22,1.65l-1.46-.43c-.09-.62-.15-1.25-.21-1.87-.11-1.24-.18-2.48-.36-3.72,0-.16-.12-.47-.33-.38s-.21.49-.19.66c.21,1.48.26,3,.41,4.46,0,.22.05.44.08.66-.43-.14-.87-.26-1.3-.4v0a.75.75,0,0,0,0-.52.26.26,0,0,0-.09-.09c0-.31,0-.62-.05-.93-.05-.53-.13-1.06-.18-1.58,0-.24,0-.49-.05-.74a4.5,4.5,0,0,0,.35-1c0-.12,0-.32-.05-.41s-.18,0-.2.11a5.18,5.18,0,0,1-.16.6c0-.11,0-.23,0-.34s-.09-.37-.26-.3-.14.17-.15.3h0a.08.08,0,0,0,0,0,1,1,0,0,0,0,.17,14.25,14.25,0,0,0,.07,2q0,.56.11,1.12l0,.35h0s0,.09,0,.13a6.73,6.73,0,0,0,.05.89c-.57-.19-1.13-.39-1.7-.59,0-.31,0-.62,0-.91,0-.92.08-1.84.1-2.76a24,24,0,0,0-.35-5.33c0-.18-.11-.47-.35-.4s-.23.54-.2.7a23.13,23.13,0,0,1,.3,5.19c0,.87-.05,1.73-.08,2.6,0,.22,0,.45,0,.68-.47-.18-1-.35-1.42-.54,0-.21,0-.43,0-.64q0-.93,0-1.85V48c0-.15,0-.5-.25-.5s-.25.37-.25.5q0,1.82,0,3.63c0,.59,0,1.19,0,1.78,0,.16,0,.33,0,.49l-.62-.25a.67.67,0,0,0,0-.16.34.34,0,0,0-.09-.15c0-.16,0-.31,0-.47,0-.5-.08-1-.13-1.49A21.66,21.66,0,0,1,73,48.49c0-.17-.05-.57-.29-.57s-.28.42-.29.57a23.56,23.56,0,0,0,.19,3c.05.48.1,1,.14,1.44,0,.11,0,.22,0,.33l-1.09-.51-.17-.09c.11-.59.08-1.24.13-1.82.06-.82.14-1.63.21-2.45a46.54,46.54,0,0,0,.23-4.94c0-.15,0-.51-.26-.51s-.26.38-.26.51a48.52,48.52,0,0,1-.27,5c-.07.79-.14,1.57-.19,2.36a12.5,12.5,0,0,0-.07,1.64,24.26,24.26,0,0,1-2.26-1.32c0-.22,0-.44-.06-.63a22.59,22.59,0,0,1,0-2.63c.08-1.51.31-3,.32-4.55,0-.15,0-.52-.26-.52s-.26.38-.26.52c0,1.61-.29,3.37-.36,5a18.43,18.43,0,0,0,0,2.35l-.47-.34a.64.64,0,0,0,0-.36c0-.08-.14-.2-.23-.12,0-.79,0-1.59,0-2.39,0-1.1,0-2.2,0-3.3,0-.17-.05-.6-.3-.6s-.3.44-.3.6c0,1.12,0,2.24-.05,3.36,0,.68,0,1.38,0,2.08a12.13,12.13,0,0,1-.9-.87.58.58,0,0,0-.06-.44c-.09-.12-.19-.1-.26,0v0l-.09-.12c0-.55,0-1.09,0-1.64A20.81,20.81,0,0,1,65.92,44c0-.21,0-.65-.21-.76s-.35.27-.38.43a22,22,0,0,0-.38,3.7,4.89,4.89,0,0,1-.59-4c.72-2.44,2.78-4.48,4.74-6a25.7,25.7,0,0,1,7-3.76,3,3,0,0,0,.71.22c1.23.3.8-2.83.45-3.29a1.52,1.52,0,0,1-.34-.57.79.79,0,0,0-1-.54l-.42.16v-.72c0-.13,0-.25,0-.38a.64.64,0,0,0,0-.09.79.79,0,0,0,0-.51h0v0a.78.78,0,0,0-.15-.43.21.21,0,0,0-.26-.07.52.52,0,0,0-.2.31,1.3,1.3,0,0,0,0,.18v.17c0,.09,0,.17,0,.26,0,.53,0,1.06,0,1.58l-1.14.49a9.78,9.78,0,0,0,.23-1.4c0-.24.06-.48.09-.72a2.55,2.55,0,0,0,0-.4.87.87,0,0,0,0-.51c0-.12-.13-.29-.28-.23a.48.48,0,0,0-.21.22.78.78,0,0,0-.15.27,2.49,2.49,0,0,0-.09.42c0,.23-.06.45-.08.68s-.05.48-.09.71l0,.17v.08l0,.11,0,.15a1.25,1.25,0,0,0,0,.54,1.23,1.23,0,0,0,.05.22c-.31.15-.61.28-.92.44v0L72,31c0-.08,0-.16,0-.24s0-.22,0-.33v-.14s0-.05,0-.09a14.84,14.84,0,0,1,0-1.52c0-.06,0-.12,0-.19v-.07c0-.12,0-.25,0-.37s0-.23.05-.34,0-.12,0-.18v0l.07-.22,0-.13v0l.09-.2h0l0,0c.21-.17.28-.77,0-.92s-.55.11-.68.34a3.82,3.82,0,0,0-.33,1.24,14.06,14.06,0,0,0-.05,3,7.31,7.31,0,0,0,.13.94c-.36.2-.72.41-1.08.63a12.89,12.89,0,0,0,0-2.27c0-.44,0-.88,0-1.32h0s0-.09,0-.14,0-.17,0-.25l0-.19v0a.81.81,0,0,0,0-.57c0-.1-.13-.3-.27-.22l-.11.08h0L70,27.3a.59.59,0,0,0-.1.15,2.09,2.09,0,0,0-.19.66,8,8,0,0,0-.05,1.43c0,.48,0,1,0,1.44,0,.2,0,.4,0,.6,0,0,0,.2,0,.23l0,.1v0a1.36,1.36,0,0,0,0,.67c-.36.25-.73.49-1.08.75l0-.17,0-.12h0q-.05-.27-.09-.54c0-.1,0-.2,0-.3V32.1h0q0-.32,0-.63c0-.09,0-.19,0-.28v-.22c0-.18,0-.37.06-.55s.06-.36.09-.54,0-.16,0-.25a1.49,1.49,0,0,0,0-.3s0-.33,0-.16c0-.14-.11-.42-.3-.34l-.09,0A.43.43,0,0,0,68,29a2,2,0,0,0-.12.31,4.24,4.24,0,0,0-.15.68,9.64,9.64,0,0,0-.1,1.45,10,10,0,0,0,.27,2.44l-.59.49c-.07-.26-.14-.53-.18-.73s-.06-.33-.08-.5,0-.36,0-.42,0-.29,0-.42,0-.16,0-.24v-.14c0-.08,0-.15,0-.23l0-.11,0-.11a2.82,2.82,0,0,0,.07-.51c0-.12-.07-.54-.29-.44s-.38.73-.43,1a5.48,5.48,0,0,0,0,1.19,10.26,10.26,0,0,0,.38,2.13c-.3.29-.6.58-.88.88a1.33,1.33,0,0,0,0-.4c-.06-.22-.12-.45-.17-.68l0-.15c0,.13,0-.08,0-.1s0-.22,0-.33l0-.17v0a2.11,2.11,0,0,1,0-.34v0c0-.07,0-.13,0-.2l0-.15s0-.18,0-.22a.74.74,0,0,0-.08-.48c-.07-.11-.16-.13-.26,0l-.05,0-.07.12a1.5,1.5,0,0,0-.1.24,2.61,2.61,0,0,0-.1.47,4.58,4.58,0,0,0,0,1,10,10,0,0,0,.34,1.63A.32.32,0,0,0,65,35.8a.4.4,0,0,0-.34.27c-.28-.43-.72-.71-1.17-.19l0,0c0-.14,0-.29,0-.43a1.05,1.05,0,0,0-.06-.35c0-.07-.07-.17-.15-.21s-.29.12-.32.26a4.07,4.07,0,0,0-.09.44l0,.34c0,.23-.06.45-.1.68,0,0,0,0,0,0a12.31,12.31,0,0,1-.95.8c0-.07,0-.14,0-.22s0-.34,0-.5a1.18,1.18,0,0,0,0-.12c0,.16,0,0,0,0s0-.15,0-.23v0l0-.08.06-.24a.78.78,0,0,0,0-.54c-.06-.1-.17-.19-.27-.07a1.29,1.29,0,0,0-.24.53,3.79,3.79,0,0,0-.11.69,8.42,8.42,0,0,0,0,1.2,12.17,12.17,0,0,1-1.63,1,1.56,1.56,0,0,0,0-.28s0-.23,0-.09a.75.75,0,0,1,0-.16s0-.2,0-.06a.93.93,0,0,1,0-.18l0-.13h0l0-.08c0-.1.06-.2.09-.3.08-.26.13-.37.22-.61s.17-.44.24-.67a.77.77,0,0,0-.06-.61c-.1-.14-.23-.11-.31,0a5.27,5.27,0,0,0-.78,3.17,1,1,0,0,0,.06.2,5.9,5.9,0,0,1-2,.45.3.3,0,0,0,.1-.11c.27-.47.49-1,.72-1.45s.49-1,.75-1.46a.69.69,0,0,0,0-.54c0-.11-.15-.23-.27-.11a5.58,5.58,0,0,0-.85,1.38c-.24.49-.46,1-.74,1.47a.82.82,0,0,0,0,.71.32.32,0,0,0,.08.1A3.75,3.75,0,0,1,55.1,39a2,2,0,0,1-.42-.29A14,14,0,0,1,56,37.54,9.14,9.14,0,0,0,57.8,36a.66.66,0,0,0,.09-.53c0-.1-.1-.32-.25-.25a7.66,7.66,0,0,0-.89.57l-.95.66a11.59,11.59,0,0,0-1.69,1.44L54,37.77s-.1-.26-.12-.34l-.07-.24v0l-.06-.35c0-.12,0-.24,0-.37.37-.14.75-.25,1.13-.36a3.39,3.39,0,0,0,1.41-.62.53.53,0,0,0,.08-.41c0-.07-.07-.3-.18-.27s-.46.18-.69.27-.48.16-.72.22-.71.19-1.05.31c0-.18,0-.35,0-.49s0-.21,0-.32c.31-.16.62-.31.94-.44a7.86,7.86,0,0,1,.8-.28c.27-.08.55-.14.82-.24s.18-.66,0-.7a3.35,3.35,0,0,0-1.67.34c-.29.11-.57.24-.84.38,0-.19,0-.38,0-.57l1.26-.4a14,14,0,0,0,1.81-.7c.13-.07.15-.3.14-.42s0-.35-.19-.33a11,11,0,0,0-1.86.49l-1.28.39a2.94,2.94,0,0,0-.2-.64,4.25,4.25,0,0,1,1-.39c.26-.06.52-.1.78-.14s.63,0,.83-.28a.69.69,0,0,0,0-.77,1,1,0,0,0-.83-.17,5.66,5.66,0,0,0-.83.12,4.36,4.36,0,0,0-1.56.66.59.59,0,0,0-.22.4c-.59.09-.83,1-.9,1.48a21.64,21.64,0,0,0,0,4.57v0c-.16-.47-.48-1.07-.91-.75-1.16.87-2.38,2-3.87,2.27a5.43,5.43,0,0,1-3.65-.92,12.57,12.57,0,0,1-1.41-1l-.25-.22-.36-.34a7.39,7.39,0,0,1-.56-.63l-.05-.07.15-.27A2.9,2.9,0,0,0,41,33.66c0-.33-.19-1-.57-1.14a1.43,1.43,0,0,0-1.65.89,4.88,4.88,0,0,0-.42,2.91,6.19,6.19,0,0,0,1.93,3.56,12.71,12.71,0,0,0,2.14,1.69,3.88,3.88,0,0,0-.24.81c-.08.41-.17.82-.27,1.22,0-.13,0-.27-.08-.4s-.27-.48-.48-.25a1.12,1.12,0,0,0-.13,1c0,.1.05.2.07.3v0l0,.16q.06.3.11.61h0a4.45,4.45,0,0,1-1.92,2.24c0-.2,0-.4,0-.59,0-.4,0-.79,0-1.18a12.1,12.1,0,0,0-.37-2.28c-.06-.21-.27-.48-.48-.25a1.12,1.12,0,0,0-.12,1,8,8,0,0,1,.2,1c0,.15,0,.3.06.46l0,.31v.13c0,.33,0,.66,0,1a7.68,7.68,0,0,0,0,.82,10.89,10.89,0,0,1-1.31.46l0-.2c0-.19,0-.38-.06-.57s0-.42-.05-.63v-.18h0v0c0-.12,0-.24,0-.37,0-.45,0-.91,0-1.36,0-.11,0-.22,0-.33v0s0-.09,0-.13,0-.16,0-.24l0-.07a1,1,0,0,0-.12-.91c-.21-.23-.39,0-.46.24a5,5,0,0,0-.17,1.34c0,.52,0,1.05,0,1.57s.07,1.11.13,1.66c0,.13,0,.26.07.39-.62.14-1.25.25-1.89.34L35,48.34l-.08-.23a6.52,6.52,0,0,1-.27-1.2c-.07-.46-.13-1-.14-1.35a12.06,12.06,0,0,1,0-1.33c0-.2-.06-.65-.33-.66s-.32.49-.33.66a13.47,13.47,0,0,0,.2,3.19,8.5,8.5,0,0,0,.31,1.2l-1.74.22c-.07-.77-.14-1.55-.2-2.32a49.35,49.35,0,0,1-.26-5.31c0-.19-.06-.66-.33-.66s-.33.48-.33.66a49.72,49.72,0,0,0,.28,5.67c.06.69.13,1.38.2,2.06l-.12,0-2,.34c-.16-1.31-.32-2.61-.4-3.94-.11-1.89-.17-3.79-.3-5.68,0-.21-.16-.6-.43-.49s-.26.63-.24.86c.14,1.93.18,3.86.3,5.79.07,1.16.13,2.38.3,3.57l-1.17.17c0-.14,0-.29-.06-.43-.08-.64-.08-1.29-.12-1.94A52.6,52.6,0,0,1,27.38,38c0-.2,0-.7-.22-.78s-.37.24-.39.44a38.39,38.39,0,0,0,.1,7.54c.1,1.24.16,2.49.26,3.73,0,.23.06.46.1.69-.45,0-.9.08-1.35.1-.27,0-.55,0-.82,0,0-.13,0-.26,0-.4,0-1-.08-1.93-.09-2.89A72.17,72.17,0,0,0,24.69,37c0-.2-.13-.51-.38-.43s-.24.58-.22.76c.52,3.69.17,7.45.32,11.16,0,.41,0,.84,0,1.26-.6,0-1.21,0-1.81-.1a49.07,49.07,0,0,0,.06-5.16q0-3.16,0-6.31c0-.18-.05-.62-.31-.62s-.31.45-.31.62q0,3.16,0,6.31a50.12,50.12,0,0,0,.05,5.11l-2.26-.22c0-.28-.06-.55-.08-.81a29.9,29.9,0,0,1,0-3.07c.06-2,.24-4,.25-6,0-.18-.05-.63-.31-.63s-.31.46-.32.63c0,2.17-.23,4.33-.27,6.5a24.75,24.75,0,0,0,.11,3.23v.07l-1.59-.17c0-.06,0-.13,0-.19q0-1.17,0-2.34c0-1.58,0-3.16,0-4.74,0-.18-.05-.61-.31-.61s-.31.45-.31.61c0,1.58,0,3.16,0,4.74q0,1.14,0,2.29c0,.06,0,.12,0,.18l-1.32-.14c0-.2-.07-.41-.1-.61a13.59,13.59,0,0,1-.08-1.56,11.6,11.6,0,0,1,.35-3.27.85.85,0,0,0-.1-.76c-.18-.18-.33,0-.38.2A13.56,13.56,0,0,0,15,46.86a13.14,13.14,0,0,0,.14,1.86l0,.15-1.31-.17c-.1-1.82.06-3.64.06-5.48,0-.16,0-.54-.27-.54s-.27.39-.27.54c0,1.44-.12,2.88-.12,4.31,0,.35,0,.71,0,1.07L12,48.4c0-.28,0-.56,0-.84a16,16,0,0,1,.46-3.75.78.78,0,0,0-.09-.69c-.16-.16-.3,0-.35.18a18,18,0,0,0-.53,4.45c0,.18,0,.36,0,.55-.61-.12-1.22-.24-1.83-.39-.06-.56-.12-1.12-.17-1.68a21,21,0,0,1,0-2.68c0-.14,0-.49-.25-.49s-.24.36-.25.49a21.74,21.74,0,0,0,.06,2.83c0,.46.07.93.12,1.4q-.71-.18-1.41-.4a6.8,6.8,0,0,1-1.4-.6,8.51,8.51,0,0,0-.24-1.49c0-.18-.21-.38-.38-.2a.89.89,0,0,0-.1.77c0,.17.08.35.11.52a11.49,11.49,0,0,1-1.35-1.19,85,85,0,0,0,7.78-5.46c3.23-2.69,6-5.84,9.27-8.54a57.2,57.2,0,0,1,9.59-6.43,44.68,44.68,0,0,1,4.44-2.1,1.16,1.16,0,0,0,0,.25,7.1,7.1,0,0,0,.05.92,3.24,3.24,0,0,0,.22.93c0,.11.16.19.27.1a.58.58,0,0,0,.15-.44c0-.16,0-.32-.05-.48s0-.25-.05-.38l0-.19c0,.22,0,0,0-.07s0-.26,0-.39a.89.89,0,0,0-.08-.39l0,0q.83-.32,1.68-.6a8.4,8.4,0,0,0-.15,1.25,6.24,6.24,0,0,0,0,1.18.82.82,0,0,0,.12.34c0,.06.11.15.2.14s.29-.31.31-.48c0-.37,0-.75.07-1.13v-.13c0-.1,0-.2,0-.29s0-.18,0-.27v-.07a1.36,1.36,0,0,0,0-.54,1.43,1.43,0,0,0,0-.19c.35-.11.7-.23,1.06-.32a20.78,20.78,0,0,1,.13,5,.81.81,0,0,0,.21.63c.15.11.31,0,.38-.14a4.61,4.61,0,0,0,.34-1.32.75.75,0,0,0-.12-.57h0A17.41,17.41,0,0,0,40,21.2c.32-.07.64-.13,1-.19a2.16,2.16,0,0,0,0,.23A20.13,20.13,0,0,0,41,23.33c0,.32,0,.64.07,1v.17h0v.17a3,3,0,0,0,.07.52c0,.12.12.31.27.31s.24-.19.27-.31a3.16,3.16,0,0,0,.05-1c0-.37,0-.74-.07-1.11l0-.26v-.1h0c0-.16,0-.33,0-.49s0-.62,0-.94a1.39,1.39,0,0,0,0-.34c.34-.05.69-.09,1-.12,0,0,0,.1,0,.13a13,13,0,0,0,.18,2.34,13.71,13.71,0,0,1,.16,2.14c0,.19,0,.61.29.66s.35-.3.37-.49.07-.45.09-.68a1,1,0,0,0-.07-.45c0-.46-.08-.91-.15-1.36a12,12,0,0,1-.18-2.18,1.15,1.15,0,0,0,0-.19c.39,0,.79,0,1.18,0a2.28,2.28,0,0,0,0,.23,16.37,16.37,0,0,0,.1,2.09l0,.48s0,.11,0,.16,0,0,0,.05,0,.07,0,.11a4.24,4.24,0,0,0,.07,1c0,.14.17.39.36.29a.46.46,0,0,0,.2-.32,1.49,1.49,0,0,0,.07-.45c0-.08,0-.17,0-.25a.81.81,0,0,0-.07-.45c0-.28,0-.56-.06-.84s0-.35,0-.52,0-.16,0-.23h0s0,0,0,0h0s0-.07,0-.1a9.37,9.37,0,0,1,0-1,1.2,1.2,0,0,0,0-.22l.82.06a12.06,12.06,0,0,0-.07,2.31,6.6,6.6,0,0,0,.18,1.41c.07.24.25.67.58.61s.29-.67.11-.89a2,2,0,0,0-.07-.33v0c0,.15,0,.14,0,0s-.07-.47-.07-.51v-.12a.29.29,0,0,0,0,0c0-.09,0-.19,0-.28q0-.59,0-1.18c0-.08,0-.16,0-.24h0v-.1c0-.13,0-.26,0-.39s0-.07,0-.11c.24,0,.47.06.71.1l.28.07s0,.06,0,.08c0,.6-.05,1.19,0,1.79a4.83,4.83,0,0,0,.1,1.09l0,.15a.72.72,0,0,0,.12.25c.08.09.09,0,.17.09l-.05,0s0,0,0,0a.3.3,0,0,0,.12.08c.33.09.31-.53.23-.73s0-.19,0-.29v0s0-.05,0-.08v-.08s0,0,0,0c0-.25,0-.51,0-.77,0-.46,0-.92,0-1.38l.79.25A8,8,0,0,0,49,23a3,3,0,0,0,.19,1.19.54.54,0,0,0,.25.3l.08,0s-.06,0,0,0l0,0a.24.24,0,0,0,.16,0c.17,0,.21-.24.22-.38a.57.57,0,0,0-.15-.47h0s0,0,0,0l0-.08v0l0-.07c0-.12,0-.23,0-.35v-.07c0-.07,0-.13,0-.2s0-.27,0-.4v-.1c0-.07,0-.14,0-.22s0-.25.05-.37v-.11l.41.16.32.17a7.7,7.7,0,0,0-.05,1.68,3.45,3.45,0,0,0,.18.84,1.28,1.28,0,0,0,.52.75c.23.13.34-.24.37-.46v0l.14-.22a.76.76,0,0,0,0-.54c0-.09-.13-.29-.25-.2l-.16.13h0l-.06-.14h0v0c0-.05,0-.11,0-.16v0c0-.1,0-.2,0-.3v0c0-.05,0-.11,0-.16s0-.16,0-.24v-.11q0-.08,0-.15c0-.07,0-.14,0-.21l.69.43a2.45,2.45,0,0,0,0,.27A5,5,0,0,0,52,24c0,.14.08.27.13.4l.06.17a1.47,1.47,0,0,0,.07.2l.07.1,0,0c.15.14.26.06.36-.09l.09-.15,0,0,0-.06c.07-.1.13-.21.19-.32a4.91,4.91,0,0,0,.28-.64s0-.1,0-.15l.17,0a4.52,4.52,0,0,0,.1.47c0,.15.11.36.26.43s.23-.1.26-.21a.85.85,0,0,0,0-.56s0,.11,0,.05v0l0-.07-.06-.17L54,23.1A3.8,3.8,0,0,0,53.81,20a4.6,4.6,0,0,0-.34-.41,1.47,1.47,0,0,0-.57-.91,6.87,6.87,0,0,1-3.1-6.75c.45-2.24,2.65-3.63,4.79-4.52a2.89,2.89,0,0,0-.24,1.13,1.93,1.93,0,0,0,.13.7.72.72,0,0,0,.13.21.2.2,0,0,0,.11.06h0s.06,0,.07,0,.2-.12.22-.22a.58.58,0,0,0-.08-.47l0,0h0L55,9a1.36,1.36,0,0,0-.1-.31h0l0-.06h0V8.54s0-.06,0-.09h0V8.31l0-.08A1.47,1.47,0,0,1,54.94,8l0,0L55,7.84a.79.79,0,0,0,0-.62c.5-.19,1-.37,1.44-.52l.08,0a5,5,0,0,0-.34,1.22,2.39,2.39,0,0,0,.21,1.62c.07.11.19,0,.24-.06a.68.68,0,0,0,0-.47V8.93h0s0-.08,0-.12l0-.13s0-.05,0-.07,0-.1,0-.15,0,0,0-.07,0,0,0,0a1.85,1.85,0,0,1,0-.31l0-.15h0l0-.07c0-.1.05-.21.08-.31l.05-.16,0-.07h0c0-.09.08-.19.13-.28a.77.77,0,0,0,0-.48l.85-.26A12.63,12.63,0,0,0,57.63,8a5.4,5.4,0,0,0,0,1.4,1.31,1.31,0,0,0,.23.62l0,0,.07.06h0a.33.33,0,0,0,.2.1c.13,0,.18-.21.2-.3a.64.64,0,0,0-.09-.46l0-.06,0-.14c.05.22,0-.23,0,0v-.1s0-.07,0-.11h0c0-.17,0-.33,0-.5h0V8.41c0-.1,0-.2,0-.29,0-.38.11-.77.19-1.15l0-.09,0-.08.06-.25c0-.14.07-.28.11-.42s0-.05,0-.08l1-.23a14.83,14.83,0,0,0-.4,1.91,5.54,5.54,0,0,0,0,2.34c.07.22.24.56.53.5s.28-.74,0-.79h0v0l0-.07c0,.14,0,0,0,0s0-.08,0-.11c0-.19,0-.38,0-.58h0v0l0-.18c0-.1,0-.21,0-.32.06-.44.13-.88.22-1.31v0h0l0-.15L60,6.7c0-.14.07-.28.11-.41a1,1,0,0,0,0-.56l1.13-.21c-.14.74-.28,1.48-.37,2.23-.05.43-.09.86-.1,1.28a2.72,2.72,0,0,0,.13,1.1c.11.27.32,0,.33-.17s0-.31,0-.47,0-.17,0-.25,0-.06,0-.16c0-.39.08-.79.14-1.18.11-.76.25-1.51.4-2.26a1,1,0,0,0,0-.22c.5-.07,1-.13,1.5-.18-.16.65-.29,1.31-.4,2s-.29,1.58-.38,2.37a.56.56,0,0,0,.09.42c.09.09.18,0,.23-.06a3.93,3.93,0,0,0,.29-1c.09-.44.17-.87.25-1.31a22,22,0,0,1,.53-2.44l.8,0c-.21,1.08-.39,2.17-.52,3.26A17.34,17.34,0,0,0,64,10.31c0,.18.06.57.32.56s.2-.26.3-.36.08-.73-.1-.69c.21-1.56.43-3.12.73-4.67q.59,0,1.18,0a14,14,0,0,0-.58,5c0,.11.07.29.21.27s.16-.27.16-.37a19.66,19.66,0,0,1,.8-4.81c.42,0,.84.08,1.25.13a22,22,0,0,0-.6,3.35,3.48,3.48,0,0,1-.07.71,4.7,4.7,0,0,0-.17.53.73.73,0,0,0,.09.6c.11.12.26.05.39,0s.18-.49.06-.64,0-.08,0-.12a9.17,9.17,0,0,0,.17-1.34,26.8,26.8,0,0,1,.56-2.86,1.28,1.28,0,0,0,0-.16c.3,0,.59.12.88.18-.16.68-.24,1.37-.34,2.06-.06.45-.13.9-.22,1.34s-.28.88-.39,1.33a.69.69,0,0,0,0,.47c0,.09.16.17.24.06a3.59,3.59,0,0,0,.51-1.3,13.34,13.34,0,0,0,.26-1.37,21.39,21.39,0,0,1,.43-2.48l.25.07a11.28,11.28,0,0,1-.26,1.57c-.09.4-.18.8-.25,1.21a3.53,3.53,0,0,0-.08,1.26c0,.1,0,.27.16.32a.17.17,0,0,0,.22-.12,6.77,6.77,0,0,0,.26-1.24c.07-.36.16-.73.24-1.09A12.45,12.45,0,0,0,71,5.94l.77.26c-.12.59-.24,1.17-.34,1.76a7.14,7.14,0,0,0-.2,2c0,.09.05.24.15.27s.16-.1.18-.18c.16-.58.23-1.2.33-1.79.07-.36.13-.72.2-1.08l.11-.53,0-.23h0l.48.22a.46.46,0,0,0-.05.13,13.55,13.55,0,0,0-.38,2.07,5.54,5.54,0,0,0,0,1.21,1.18,1.18,0,0,0,.39.88c.1.06.18-.07.2-.14a.69.69,0,0,0,0-.43l0-.08v0c0-.06,0-.11,0-.17s0-.07,0,0,0-.13,0-.19v-.1h0c0-.15,0-.29,0-.44V9.16c0-.08,0-.16,0-.24,0-.31.08-.62.14-.93l0-.11V7.75l0-.1.09-.38a1.13,1.13,0,0,0,0-.47,12.42,12.42,0,0,1,1.27.7c.16.1.3.22.45.32a.88.88,0,0,0-.06.2c-.08.59-.1,1.19-.14,1.78V10c0-.06,0,.1,0,.13s0,.28,0,.41a2.43,2.43,0,0,0,0,1c0,.06.07.2.17.19h0c.12,0,.16-.12.19-.22a5.65,5.65,0,0,0,.26-1.6c0-.16,0-.31,0-.47v-.3c0-.28,0-.56.08-.83a1.11,1.11,0,0,0,0-.15c.26.2.51.42.75.64-.18,0-.27.26-.29.39-.09.52-.18,1-.25,1.57,0,.28-.06.57-.08.86a1.19,1.19,0,0,0,.15.75c.11.15.24,0,.27-.14A8.68,8.68,0,0,0,76.15,11q.1-.75.24-1.49A1,1,0,0,0,76.34,9c.27.25.52.52.77.79a.69.69,0,0,0-.05.12,4.17,4.17,0,0,0-.19,1.25,1.66,1.66,0,0,0,.14.69.55.55,0,0,0,.24.26c.15.06.22-.13.25-.24a.71.71,0,0,0-.05-.44v-.07s0,0,0-.07,0-.12,0-.19V11c0-.07,0-.14,0-.21l0-.09v0l.06-.23a1.05,1.05,0,0,0,0-.17c.2.24.37.5.56.75a5.8,5.8,0,0,0-.07.8,5.37,5.37,0,0,0,.09,1.39c0,.08.09.22.2.19s.15-.19.17-.29a8.79,8.79,0,0,0,0-1.23v-.24a25.49,25.49,0,0,1,2.09,3.94c.27.62.82.73,1.23.31,3,0,6.35-.32,8.73,1.89,1.1,1,1.56-1.07,1.58-1.81a6,6,0,0,1,.31-1.76c0,.56,0,1.12,0,1.68a4.51,4.51,0,0,0,.6,2.48.19.19,0,0,0,.24.06.58.58,0,0,0,.34-.44,1.1,1.1,0,0,0,0-.45v0a.72.72,0,0,0-.06-.36c-.05-.1-.15-.16-.24-.11v0a2.4,2.4,0,0,1-.08-.37c0-.17,0-.35-.06-.53s0-.17,0-.19,0-.17,0-.25c0-.7,0-1.41.05-2.11A1.08,1.08,0,0,0,93,13a10.11,10.11,0,0,1,2.33-2.76,17.47,17.47,0,0,0-.32,3,7.67,7.67,0,0,0,.14,1.83,2.16,2.16,0,0,0,.24.65.71.71,0,0,0,.23.26h0l0,0a.34.34,0,0,0,.14,0c.34,0,.24-.7.12-.88l-.06-.08,0,0-.07-.16,0-.1,0-.12,0-.08,0-.09c0-.12,0-.24,0-.36v-.05c0-.06,0-.12,0-.17,0-.27,0-.55,0-.82s0-.27,0-.41v-.11c0-.06,0-.12,0-.18q0-.39.08-.77t.09-.67l0-.28,0-.11h0v0a1.14,1.14,0,0,0,0-.7,13.84,13.84,0,0,1,1.44-.95.84.84,0,0,0,0,.13q-.13,1.44-.16,2.89a11.86,11.86,0,0,0,.1,2.84c.06.27.32.27.38,0A14.22,14.22,0,0,0,97.82,12c0-.89.07-1.77.15-2.65a1,1,0,0,0-.14-.71c.26-.14.52-.25.78-.37v0q0,1.3,0,2.59c0,.43,0,.86,0,1.29a6.29,6.29,0,0,0,.08,1.35c.07.3.36.3.42,0a6.3,6.3,0,0,0,.09-1.35c0-.43,0-.86,0-1.29q0-1.3,0-2.59a1.34,1.34,0,0,0,0-.26A12.43,12.43,0,0,1,101,7.42a.52.52,0,0,0-.06.15,27.26,27.26,0,0,0-.55,3.07,8.4,8.4,0,0,0-.05,1.76c0,.28.12,1,.54,1s.26-.53.15-.77c0,0,0,0,0,0a.34.34,0,0,0,0-.07l0-.1c0-.08,0-.27,0-.08,0-.1,0-.19,0-.29s0-.2,0-.3,0-.22,0-.05v-.16c0-.26.06-.51.09-.77q.1-.75.24-1.5c0-.22.09-.44.13-.65h0l0-.14,0-.21a1.07,1.07,0,0,0-.11-.9c.28-.05.54-.08.81-.11a1.43,1.43,0,0,0,0,.31c0,.08,0,.16,0,.24V8l0,.61c0,.55-.09,1.1-.12,1.65a8.87,8.87,0,0,0,0,1.47c0,.25.1.79.42.88s.33-.58.2-.79v-.05c0-.09,0-.19,0-.28,0,.2,0-.1,0-.16,0-.44,0-.87,0-1.31,0-.06,0-.11,0-.16V9.78l0-.36.05-.68c0-.4.07-.8.07-1.2a1.24,1.24,0,0,0-.05-.36c.21,0,.43,0,.64,0a.51.51,0,0,0-.1.2,14.77,14.77,0,0,0-.35,2.45c0,.38,0,.75,0,1.13a3.86,3.86,0,0,0,.11,1.25c.09.28.3.27.39,0a3.82,3.82,0,0,0,.12-1.13c0-.36,0-.72,0-1.09a11.62,11.62,0,0,1,.27-2,1.07,1.07,0,0,0-.09-.84c.39,0,.77.05,1.16.09a.65.65,0,0,0,0,.08,15.68,15.68,0,0,0-.38,2.79,9.66,9.66,0,0,0,0,1.61c0,.12.07.38.21.43h0a.15.15,0,0,0,.14,0h0c.14-.05.2-.3.21-.43,0-.49,0-1,.06-1.47,0-.09,0-.19,0-.28v-.2c0-.21,0-.41.06-.62a10.93,10.93,0,0,1,.2-1.15,1.38,1.38,0,0,0,0-.68c.22,0,.44.1.66.14a.76.76,0,0,0-.18.4,17.46,17.46,0,0,0-.17,2.74,1.26,1.26,0,0,0,.16.8c.12.14.26,0,.33-.09a1.36,1.36,0,0,0,.1-.54c0-.4,0-.81.06-1.22V9.33c0-.13,0-.26,0-.38s0-.47.08-.7a1,1,0,0,0-.12-.67,15,15,0,0,1,2.57.76c.3.13.63.27,1,.43a.49.49,0,0,0,0,.1,5.66,5.66,0,0,0-.23,1.42,2.15,2.15,0,0,0,.36,1.37c.09.11.21,0,.26-.07a.8.8,0,0,0,0-.51l0-.07,0-.14c0-.07,0-.15,0-.22a1.24,1.24,0,0,1,0-.13c0-.1,0-.12,0,0,0-.08,0-.16,0-.24a.08.08,0,0,0,0,0h0v-.11c0-.08,0-.17,0-.25v0s0-.08,0-.11l.07-.27a1.12,1.12,0,0,0,0-.43c.29.15.58.32.86.5v0a5.41,5.41,0,0,0,0,1.35,2.6,2.6,0,0,0,.38,1.18c.08.11.2.05.26,0a.73.73,0,0,0,.08-.5l0-.22c0,.13,0,0,0,0l0-.24c0-.08,0-.16,0-.24v-.13c0-.15,0-.3,0-.45s0-.07,0-.11,0,.07,0,.08,0-.08,0-.1,0-.12,0-.19a5.42,5.42,0,0,1,1.3,1.37,1,1,0,0,0,0,.12,2.84,2.84,0,0,0,.24.88s.08.12.14.11a.16.16,0,0,0,.12-.08v0c.18.35.42.64.73.67h0l0,0a.79.79,0,0,0,.48-.24,3.22,3.22,0,0,0,.38-2.87C113.43,4.86,107,2.51,102,3A13.79,13.79,0,0,0,90.47,13.27c-2.59-1.66-5.62-1.54-8.75-1.53a18.69,18.69,0,0,0-6-7.78,16.89,16.89,0,0,0-10-3A30.75,30.75,0,0,0,54.46,3.2c-3.6,1.48-6.27,4.06-6.74,8.06a14.58,14.58,0,0,0,.49,5.69,15.93,15.93,0,0,0-4.59-.45,29,29,0,0,0-10.79,3.05c-7.54,3.57-13.62,8.9-19.57,14.64C9.71,37.63,5.38,40,1.37,42.85a1.45,1.45,0,0,0-.3.3,1.44,1.44,0,0,0-.34.13c-.91.51-1.12,4.09.26,3.92,1.12-.14,2.1,1.36,2.77,2.06A8,8,0,0,0,7.6,51.54a65.78,65.78,0,0,0,12.19,2,40.54,40.54,0,0,0,6.76.32c2.15-.16,4.27-.61,6.4-1,2.39-.39,5.26-.49,7.38-1.8,2.59-1.6,3.28-4.92,3.77-7.69a4.09,4.09,0,0,0,0-1.08,4.85,4.85,0,0,0,3,.08A6.22,6.22,0,0,0,49,41.32c.73-.57,1.45-1.16,2.19-1.71a1.8,1.8,0,0,0,.6-1.39,8.51,8.51,0,0,0,1,2.92,4.82,4.82,0,0,0,3.19,2.4,6.64,6.64,0,0,0,4.43-.77,13.42,13.42,0,0,0,2.15-1.35A12.14,12.14,0,0,0,66.69,54c4.29,3.56,10,5.1,15.19,6.68a55.4,55.4,0,0,0,17.79,2.79,19.72,19.72,0,0,0,9.63-2.91c2.93-1.77,5.56-4,8.63-5.51a.85.85,0,0,0,.24-.19,8.29,8.29,0,0,0,1.27,1c4.74,3,9.66-.28,13.52-3.12a1.85,1.85,0,0,0,.65-1c3.41,2.83,8.57,3.05,12.73,2.27,4.77-.9,8.82-3,11.3-7.34a13.17,13.17,0,0,0,1.82-7.18,10.56,10.56,0,0,0-.32-2c2.8-2,5-4.82,5-8.49m-21.45,9.7a2.79,2.79,0,0,0,.3-1.13,16,16,0,0,0,.58,1.54l.05.11a8.5,8.5,0,0,1-.93-.52m6.44-.47a.91.91,0,0,0-.06-.44c.07.15-.08-.2,0-.11l-.05-.1-.11-.16v0l0,0-.07-.1,0-.05-.14-.23a10.49,10.49,0,0,1-.52-1.09l-.24-.58,0-.1,0-.13-.12-.31-.38-1c-.07-.2-.26-.49-.48-.25a1.09,1.09,0,0,0-.12,1c.31.84.6,1.68,1,2.5a8.77,8.77,0,0,0,.55,1.1,2.27,2.27,0,0,0,.33.45.72.72,0,0,0,.21.16.24.24,0,0,0,.13,0c-.32.47-.61.9-.87,1.25a.68.68,0,0,0-.12-.46c-.13-.16-.32-.28-.45-.42a3.42,3.42,0,0,1-.42-.53,7.82,7.82,0,0,1-.62-1.26c-.33-.85-.57-1.84-.86-2.74-.06-.21-.27-.49-.48-.25a1.1,1.1,0,0,0-.12,1c.32,1,.58,2.07,1,3.07a6.25,6.25,0,0,0,.78,1.46,2.74,2.74,0,0,0,.31.35l-.34,0-.4-.07a1,1,0,0,0-.07-.45l0-.08h0l0-.07-.1-.18c-.08-.14-.14-.29-.21-.44l0-.07-.07-.19,0-.08-.05-.14c-.08-.23-.16-.46-.24-.69-.29-.87-.54-1.76-.88-2.62-.1-.26-.36-.22-.47,0a1.17,1.17,0,0,0,0,.94v0l0,.11.1.29.22.67c.15.49.31,1,.47,1.46a9.89,9.89,0,0,0,.52,1.32l0,0-.35-.06c-.14,0-.26-.1-.4-.15s-.06-.33-.15-.39a2.72,2.72,0,0,0-.16-.5c-.15-.34-.34-.67-.48-1-.26-.63-.48-1.36-.7-2,0-.15-.17-.33-.31-.31l.4-.39a12.71,12.71,0,0,1,3-1.74c.66-.29,1.34-.54,2-.81h0a1.19,1.19,0,0,0,0,1c.37.92.84,1.8,1.19,2.72.08.23.16.46.23.69s.06.31.11.47l-.66.94M151.64,35l-.11-.15,0-.06-.07-.12-.12-.22-.12-.25-.06-.13,0-.09,0-.07,0-.14-.09-.27c-.06-.18-.11-.36-.16-.54s-.16-.64-.23-1-.25-.43-.43-.23a1,1,0,0,0-.11.87,15.23,15.23,0,0,0,.64,2.26,5,5,0,0,0,.39.78c-.2.24-.4.49-.6.74a.33.33,0,0,0-.09-.11,10.07,10.07,0,0,0-.64-1.8c-.31-.7-.65-1.38-.94-2.09a.29.29,0,0,0-.12-.15c.46-.19.92-.38,1.36-.6a17.73,17.73,0,0,0,1.59-.93,1.06,1.06,0,0,0,0,.84l.1.22,0,.11v0l.17.46c.12.35.25.69.39,1a4.92,4.92,0,0,0,.34.61,9.07,9.07,0,0,0-1,.93m5.78-.78a4.81,4.81,0,0,0-.62-.51l-.31-.74q-.27-.67-.54-1.35c-.37-1-.74-1.92-1.2-2.84-.11-.23-.33-.22-.44,0a1.07,1.07,0,0,0,0,.89c.45.91.81,1.86,1.18,2.8l.31.75a2.81,2.81,0,0,0-.86-.1c-.2-.38-.42-.76-.62-1.13a13.24,13.24,0,0,1-.88-1.92c-.06-.18-.23-.43-.42-.22a1,1,0,0,0-.11.84,14.85,14.85,0,0,0,.93,2.12l.26.46a4.13,4.13,0,0,0-.77.35,3,3,0,0,1-.22-.27l0,0-.07-.12-.11-.2c-.07-.15-.14-.3-.2-.45l0-.11v0l-.08-.23-.17-.47c-.12-.33-.24-.66-.38-1a.24.24,0,0,0-.17-.15,17,17,0,0,0,2.22-1.77,12.7,12.7,0,0,0,.94-1,1,1,0,0,0,0,.15c.6,1.32,1,2.77,1.57,4.14a13.6,13.6,0,0,0,1,2l-.18.12m3.89-7a3.55,3.55,0,0,1,.4.6,4.51,4.51,0,0,1,.2.43l.07.24c0,.05,0,.15,0,.21s0,.31,0,.33v0c0,.07,0,.18,0,.25l-.06.24,0,.13,0,.07a.46.46,0,0,0-.17-.35h0l-.06-.1-.11-.14-.07-.09c.08.11,0,0,0,0l-.12-.22-.13-.3,0-.12,0-.08c-.08-.23-.16-.47-.23-.7-.12-.4-.23-.8-.33-1.2.25.27.49.54.72.82m-.56,4.18c-.14-.46-.33-.92-.47-1.36q-.35-1.06-.71-2.12c-.3-.9-.62-1.79-.94-2.68.2.34.46.51.81.24h0l.17.11a1.3,1.3,0,0,0,0,.15c.27.91.46,1.84.74,2.75a6.52,6.52,0,0,0,.56,1.4,1.31,1.31,0,0,0,.4.48.29.29,0,0,0,.23,0c0,.06-.06.13-.1.19a7.48,7.48,0,0,1-.67.88l-.06-.06"/></g></g></svg>