<svg xmlns="http://www.w3.org/2000/svg" viewBox="0 0 111.5 64.21"><defs><style>.cls-1{fill:#fff;}</style></defs><title>calm cloud 2</title><g id="Layer_2" data-name="Layer 2"><g id="Layer_1-2" data-name="Layer 1"><path class="cls-1" d="M12,44.73s14.9.54,16.32,3l2.34,6.51,9.48-1.38,9.44,8s20.66,5.77,30.23-6.78l3.47-9.92a30.84,30.84,0,0,0,26.53-7.66s5.05-19.19-21.47-20.08c0,0-4.67.65-12.85-10.37a17.55,17.55,0,0,0-16.71,7.6s-5.25-15-20.63-10.38c0,0-9.33,5.66-9.67,8.78,0,0-4.67-9-12.85-6.36,0,0-7,2-9.08,11.36,0,0-6.61-.13-3.3,7.42,0,0-6.75,10.94,4.4,8.22l2,.47-.2,5.48S9.08,44.06,12,44.73Z"/><path d="M40.63,55h0c0,.05,0,.28,0,0"/><path d="M2.87,21.51h0"/><path d="M16.85,24.62l.07-.1-.06.08v0"/><path d="M46.18,13.1a2.81,2.81,0,0,0-.77-1.65,1.91,1.91,0,0,0-.65-.45,2.2,2.2,0,0,0-.73-.14,3,3,0,0,0-.78.16,3.61,3.61,0,0,0-1.07.55,6.23,6.23,0,0,0-1.12,1,2.55,2.55,0,0,0-.48,1.25,3.79,3.79,0,0,0,.11,1.61c.11.33.28.82.63,1a.66.66,0,0,0,.81-.21,5.26,5.26,0,0,1,.5-.5,3.81,3.81,0,0,1,1.09-.6,1.75,1.75,0,0,1,.55,0,1.29,1.29,0,0,1,.23.12,1.16,1.16,0,0,0,.45.41.55.55,0,0,0,.54,0,1.2,1.2,0,0,0,.45-.53,3.32,3.32,0,0,0,.26-2"/><path d="M43.3,26.11c0-.1,0-.09,0,0v0Z"/><path d="M43.46,25.62l0,0,0,0"/><path d="M43.48,25.57h0s0,0,0,0"/><path d="M45.56,27.47l.07,0h0l-.08,0"/><path d="M57.88,29.86c-.08-.47-.31-1.47-1-1.47a.61.61,0,0,0-.37.13c0-.25-.09-.51-.11-.76v-.18h0c0-.1,0-.2,0-.3s0-.44,0-.66a1.08,1.08,0,0,0-.1-.49c0-.09-.13-.21-.25-.21-.29,0-.35.51-.35.7a12.89,12.89,0,0,0,.24,2.8,2,2,0,0,0,0,.2,2.19,2.19,0,0,1-.47.43,6.45,6.45,0,0,1-.6.35,1.82,1.82,0,0,0,0-.38,12.12,12.12,0,0,1-.28-2.34c0-.42,0-.83,0-1.25s.11-1.14-.27-1.39a.16.16,0,0,0-.15,0c-.26.17-.26.55-.27.83s0,.43,0,.65c0,.45,0,.89,0,1.34a15.27,15.27,0,0,0,.36,2.85l-.46.2-.32.1a1.36,1.36,0,0,0,.05-.59c0-.28-.07-.57-.1-.85v-.07c0-.07,0-.13,0-.2a2.29,2.29,0,0,0-.08-.68c0-.11-.09-.25-.22-.29s-.2.07-.25.17a1.72,1.72,0,0,0-.14.8c0,.2,0,.39,0,.59s.06.6.1.9a.9.9,0,0,0,.14.37,9.68,9.68,0,0,1-1.05.23,2,2,0,0,0,0-.23v-.08l0-.19c0-.11,0-.22-.05-.33s0-.26,0-.39v-.23h0c0-.25,0-.49,0-.74a7.92,7.92,0,0,0,0-.87c0-.16-.11-.49-.32-.49s-.29.33-.32.49a5,5,0,0,0,0,.9q0,.44,0,.89a11.78,11.78,0,0,0,.18,1.36,8.73,8.73,0,0,1-.89,0,1.13,1.13,0,0,0,0-.21c0-1-.21-1.91-.3-2.86,0-.13,0-.27,0-.4v-.29c0-.23,0-.47,0-.7v-.14c0,.21,0,0,0,0s0-.08,0-.12h0l0-.09h0l0-.08v.07l0-.12,0-.07,0-.08v0c.08-.21.07-.72-.22-.78-.46-.08-.55.78-.57,1.07a10.76,10.76,0,0,0,0,1.81c0,.58.12,1.15.18,1.73,0,.24.06.48.09.72l0,.3v.07h0v0s0,.11,0,.17h0c-.32,0-.62-.11-.93-.18a23.64,23.64,0,0,1-.39-2.94c0-.3,0-.6,0-.91,0-.14,0-.28,0-.42s0-.31,0-.33,0-.27,0-.4a2.15,2.15,0,0,1,0-.23,4.57,4.57,0,0,0,.18-.74c0-.22,0-.85-.37-.74s-.34.49-.4.71a5.92,5.92,0,0,0-.15.85,12.62,12.62,0,0,0,0,2A25.49,25.49,0,0,0,48,31.06c-.23-.07-.47-.13-.69-.21a2.09,2.09,0,0,0,0-.33l0-.34v0h0V30q0-.32,0-.64c0-.21,0-.43,0-.64a2.84,2.84,0,0,0-.08-.88c0-.12-.11-.31-.27-.31s-.23.19-.27.31a2.52,2.52,0,0,0-.07.88c0,.23,0,.46,0,.69,0,.4,0,.79.08,1.18l-.67-.31c0-.05,0-.1,0-.14,0-.4,0-.8,0-1.2,0-.1,0-.21,0-.31v-.11l0-.11s0,0,0,0a1.29,1.29,0,0,0,0-.26h0a1,1,0,0,0,0-.35.43.43,0,0,0-.17-.3.22.22,0,0,0-.15,0c-.3,0-.37.51-.4.75a6.8,6.8,0,0,0,0,.76c0,.32,0,.63,0,.94-.27-.15-.55-.3-.81-.47a7,7,0,0,0,.14-1.63c0-.12,0-.24,0-.36s0-.12,0-.19,0,0,0-.05v-.1s0-.09,0-.14,0-.09,0-.13,0,0,0,.07a2.13,2.13,0,0,0,0-.34c0-.24-.17-.91-.5-.58a1.1,1.1,0,0,0-.21.55,2.43,2.43,0,0,0,0,.28c0,.28,0,.56,0,.84s0,.49,0,.74c0,0,0,0,0,.07v.11c0,.06,0,.11,0,.17v0a1.43,1.43,0,0,0,0,.22l-.59-.41a1.3,1.3,0,0,0,0-.28c0-.47,0-.93,0-1.4,0-.06,0-.12,0-.18v-.06c0-.13,0-.26,0-.4l0-.16v0h0c0-.06,0-.12,0-.17l0-.06.08-.18,0-.07,0-.12a1.1,1.1,0,0,0,0-.82c-.22-.42-.55,0-.65.24a5.51,5.51,0,0,0-.35,1.85c0,.46,0,.91,0,1.37l-.43-.33a1.39,1.39,0,0,0,0-.37l0-.15,0-.15v0s0,0,0-.06,0-.15,0-.22,0-.28,0-.1c0-.06,0-.12,0-.17s0-.31.05-.46.08-.58.11-.87a3.28,3.28,0,0,0,0-1.24c-.05-.18-.21-.44-.42-.27a.54.54,0,0,0-.16.27h0a1.09,1.09,0,0,0,0,.34c0,.1,0,.21,0,.31s0,.07,0,.1v0c0,.07,0,.15,0,.23,0,.32-.08.64-.12,1a7.66,7.66,0,0,0-.06,1.21l-.1-.08c-.72-.59-1.23,1.06-1.29,1.46a2.81,2.81,0,0,0,.73,2.58c2.9,2.37,6.1,4.64,10,4.61,3.26,0,7.89-1.82,7.21-5.83"/><path d="M77.05,32.67a.17.17,0,0,0-.1,0h-.1l-.16,0a3,3,0,0,1-.49,0,11.37,11.37,0,0,1-1.39-.1l-.35,0a2.78,2.78,0,0,0,.35-1.26,2.72,2.72,0,0,0-.44-1.82c-1.28-1.68-4.17,0-5.47.89a18.6,18.6,0,0,0-4.77,4.4c-3.39,4.66-2.47,11.89,1.25,16.1.63.71,1.25-.13,1.43-.75A4.08,4.08,0,0,0,67,48.68h0a.45.45,0,0,0,.13-.4.5.5,0,0,0-.05-.21s-.07-.12-.13-.11l-.12,0a2,2,0,0,0-.38-.72c-.13-.15-.24-.32-.35-.47q1.08-.22,2.16-.49c.17,0,.2-.26.2-.4s0-.41-.2-.4a21.24,21.24,0,0,0-2.82.32c-.17-.29-.34-.57-.48-.87.25,0,.49,0,.74-.07a5.49,5.49,0,0,0,1.68-.43c.21-.11.23-.78-.05-.81a7.63,7.63,0,0,0-1.66.17c-.37,0-.75.07-1.13.07a8.08,8.08,0,0,1-.24-.92,10.07,10.07,0,0,0,1.66-.11l.86-.11a5.19,5.19,0,0,0,.93-.13c.13,0,.16-.32.16-.42s0-.37-.16-.42a3.93,3.93,0,0,0-1.8-.06,11.66,11.66,0,0,1-1.77.08,6.37,6.37,0,0,1,.07-.88.2.2,0,0,0,.09,0c.68,0,1.35.06,2,.07a3.32,3.32,0,0,0,1.94-.42.57.57,0,0,0,.16-.5c0-.11-.06-.42-.23-.4a12.49,12.49,0,0,1-1.91.12c-.59,0-1.18-.06-1.78-.08a6.37,6.37,0,0,1,.38-.82.25.25,0,0,0,.14.11,11.9,11.9,0,0,0,2.39.3,4.1,4.1,0,0,0,2.32-.46.49.49,0,0,0,.15-.44c0-.09-.05-.38-.2-.35A11.63,11.63,0,0,1,65.52,38l.27-.34c.38-.44.8-.85,1.22-1.25l0,0A10,10,0,0,0,69.5,37a12.08,12.08,0,0,0,1.3.1A2.6,2.6,0,0,0,72,37c.21-.12.23-.71,0-.82A3.56,3.56,0,0,0,70.8,36c-.41,0-.82-.08-1.22-.14A11.69,11.69,0,0,1,68,35.51c.3-.25.59-.51.91-.74a.28.28,0,0,0,.16.17,16.71,16.71,0,0,0,2.85.59c.48.06,1,.11,1.45.14l.75,0c.23,0,.51.06.71-.09a.81.81,0,0,0,.07-1c-.33-.28-.92-.21-1.33-.23s-1-.07-1.49-.12-1.24-.17-1.86-.3a8.43,8.43,0,0,1,1.58-.76c0,.29.15.54.35.54A20.33,20.33,0,0,1,74.9,34a10.3,10.3,0,0,0,1.39.09c.4,0,.83-.09.94-.55.06-.26.09-.71-.18-.88"/><path d="M68.6,8.6c-.21-.22-.41,0-.47.25a16,16,0,0,0-.48,4.27,10.17,10.17,0,0,0,.08,1,3.11,3.11,0,0,1,0,.38c0-.09,0,.13,0,.18s0,.64.19.73.33-.17.42-.27a.94.94,0,0,0,0-.75c0-.06,0-.13,0-.19,0-.54-.08-1-.07-1.59a14.39,14.39,0,0,1,.41-3.09,1.07,1.07,0,0,0-.12-.93"/><path d="M72.82,13.66h0c0,.11,0-.1,0,0"/><path d="M77.57,15.79a9.27,9.27,0,0,1-.2-1.62,17.74,17.74,0,0,1,.16-3.3c0-.24,0-.74-.24-.86s-.4.3-.43.49a20.09,20.09,0,0,0-.19,3.45,11.16,11.16,0,0,0,.18,1.78,3.56,3.56,0,0,0,.56,1.51.17.17,0,0,0,.21.05c.46-.21,0-1.16,0-1.49"/><path d="M79.45,19.31c-.11-.53-.28-1-.37-1.57a13.74,13.74,0,0,1-.14-1.6,18.39,18.39,0,0,0-.34-3.4c-.05-.22-.27-.46-.47-.25a1.1,1.1,0,0,0-.12.95,19.89,19.89,0,0,1,.28,3.19,11.46,11.46,0,0,0,.23,1.71,3,3,0,0,0,.61,1.46c.26.25.36-.35.33-.5"/><path d="M80.91,17.87s-.09,0,0,0l-.05,0-.05,0h0l0-.06h0s-.09-.21,0,0l0-.07h0l0-.08,0-.15,0-.06h0v0l0-.19c0-.1,0-.2,0-.31v-.16c0-.07,0-.15,0-.22,0-.25,0-.5,0-.75s-.06-.68-.34-.68-.33.5-.34.68a8.1,8.1,0,0,0,.1,1.92,1.85,1.85,0,0,0,.4,1,.73.73,0,0,0,.16.12s.09.05.11,0-.05,0,0,0a.6.6,0,0,0,.37,0c.07,0,.12-.15.13-.2a.83.83,0,0,0,0-.28c0-.14,0-.36-.22-.38"/><path d="M80.59,17.39v0l0-.08h0l0,.06"/><path d="M82.33,18.3l-.28-.38,0,0-.05-.1,0-.07v0l0-.09h0V17.5h0s0-.06,0-.09h0v-.09s0-.2,0,0a1.25,1.25,0,0,0,0-.45.66.66,0,0,0-.13-.35.18.18,0,0,0-.22-.06.43.43,0,0,0-.17.27,3,3,0,0,0,0,1.52,1.25,1.25,0,0,0,.73.88.14.14,0,0,0,.17,0,.48.48,0,0,0,.09-.22.7.7,0,0,0-.09-.56"/><path d="M58.48,18.67s0,0,0,0h0"/><path d="M58.33,18.77l-.06-.1,0,0-.06-.12h0v0h0l0-.06a.89.89,0,0,0,0-.36.53.53,0,0,0-.11-.28.14.14,0,0,0-.18,0,.36.36,0,0,0-.14.21,2,2,0,0,0-.06.91,1.25,1.25,0,0,0,.16.45c.06.1.16.22.29.21s.17-.16.19-.25a.71.71,0,0,0,0-.45"/><path d="M58.25,18.65v0l0,0Z"/><path d="M91.09,23.32v.05h0a.46.46,0,0,0,0-.08h0"/><path d="M93.34,22.91v0l0,.07,0-.09"/><path d="M98.85,27.4c0-.07-.09-.12-.13-.19l0-.14v0l0-.09,0-.14.07-.31L99,26l.15-.6a.87.87,0,0,0,.06-.2l0-.13a2.71,2.71,0,0,0,0-.38,1.22,1.22,0,0,0,0-.26s0,0,0,0h0a.81.81,0,0,0-.07-.29c-.09-.16-.24-.25-.39-.1a1.59,1.59,0,0,0-.27.74l-.16.63c-.09.38-.18.75-.26,1.13-.11-.12-.22-.25-.34-.36A5.43,5.43,0,0,0,98,24.6,6,6,0,0,0,98,23.18c0-.15-.09-.45-.3-.45s-.28.3-.3.45a11,11,0,0,0,0,1.32v.15c0,.09,0,.19,0,.28l0,.15h0c0,.1-.05.2-.09.3a.79.79,0,0,0,0,.16,8.46,8.46,0,0,0-.74-.47c0-.28.06-.56.08-.83s0-.41,0-.61a3,3,0,0,0,0-.4,1.23,1.23,0,0,0,0-.24.61.61,0,0,0-.17-.3l-.05-.05c-.06,0-.16,0-.2,0l0,0a.92.92,0,0,0-.18.49,3.69,3.69,0,0,0,0,.39c0,.19,0,.38,0,.57v.16c0,.1,0,.2,0,.3l0,.11c-.24-.11-.47-.23-.72-.31,0-.14.06-.27.08-.41a5.35,5.35,0,0,0,.09-1.6c0-.15-.1-.48-.31-.48s-.29.32-.31.48,0,.32,0,.47v.16c0,.21-.05.43-.09.64s-.07.35-.1.52a6.83,6.83,0,0,0-1.18-.2v0c0-.1,0-.2,0-.31s0-.09,0-.14h0c0-.09,0-.18,0-.27h0l0-.1v0l0-.05.08-.2,0-.06a.16.16,0,0,0,0,0s0,0,0,0v0a.83.83,0,0,0,.1-.55c0-.15-.08-.36-.25-.39h-.09a.21.21,0,0,0-.17,0,.6.6,0,0,0-.19.22,1.68,1.68,0,0,0-.14.35,3.43,3.43,0,0,0-.14.72,7.16,7.16,0,0,0,0,.87,4.86,4.86,0,0,0-1.17.24v0c0-.09-.06-.18-.09-.27l0-.15v-.06l0-.09,0-.14v0s0-.07,0-.1,0,0,0-.06h0v0h0v0a.39.39,0,0,0,0,0v0l0-.1h0v0l.06-.12.14-.28a.85.85,0,0,0,.05-.55c0-.1-.09-.32-.23-.31a.69.69,0,0,0-.55.45,2.54,2.54,0,0,0-.22,1,4,4,0,0,0,.18,1.27l-.11.06a2.47,2.47,0,0,0-.87,1.76,4.47,4.47,0,0,0,.79,3.42.65.65,0,0,0,.81.21,1.62,1.62,0,0,0,.63-1,4.29,4.29,0,0,0,.13-.79,5.22,5.22,0,0,1,2.23.1,7.91,7.91,0,0,1,2.09,1,3.3,3.3,0,0,0-.27,1.1,2.52,2.52,0,0,0,.64,2.06.87.87,0,0,0,.94.09,2.08,2.08,0,0,0,.58-.26,3,3,0,0,0,1.16-2.13,4.64,4.64,0,0,0-.47-2.85"/><path d="M100.34,26.39c0-.16-.12-.44-.33-.35h0c-.15,0-.26.2-.33.32a2.4,2.4,0,0,0-.15.32,4.56,4.56,0,0,0-.31,1.13,1.34,1.34,0,0,0,0,.54c0,.1.1.28.21.32.28.12.4-.29.43-.49s0-.13,0-.19h0l0-.1.06-.2v-.05l.13-.29a1.79,1.79,0,0,0,.15-.5,1.25,1.25,0,0,0,0-.46"/><path d="M100.66,27.32a.26.26,0,0,0-.15-.12.19.19,0,0,0-.2.07,2,2,0,0,0-.13.2,2,2,0,0,0-.1.28c0,.11-.07.22-.1.34s-.12.45-.18.68a1.41,1.41,0,0,0,0,.54.81.81,0,0,0,.16.42.22.22,0,0,0,.27.07.53.53,0,0,0,.21-.32c.05-.22.11-.45.18-.67l.1-.33a2.79,2.79,0,0,0,.1-.49,1,1,0,0,0-.11-.66"/><path d="M97.29,38.92h0c0-.16,0-.05,0,0"/><path d="M97.44,40c0-.14,0,0,0,0"/><path d="M103,39.06h0c0-.05,0,0,0,0"/><path d="M83.58,28.25h0"/><path d="M83.58,29h0c0,.1,0,.12,0,.1h0V29"/><path d="M84.23,27.66A5,5,0,0,0,84,26.53c-.07-.19-.27-.5-.48-.25a1.11,1.11,0,0,0-.13,1l.06.18c0,.06.06.3,0,.07,0,.16.05.32.07.47s0,.16,0,.24,0,0,0,.05,0,0,0-.07,0,.07,0,.11,0,.35,0,.52,0,.15,0,.22v0a.64.64,0,0,1,0,.07l0,.18,0,.15v.05h0v0s0,0,0,0h0a.39.39,0,0,0-.21.34c0,.16,0,.43.11.54a.29.29,0,0,0,.35.07.62.62,0,0,0,.29-.27A3,3,0,0,0,84.28,29a8.75,8.75,0,0,0-.05-1.32"/><path d="M82.72,28c0-.11,0-.23,0-.34s0-.1,0-.15h0v-.1a1.36,1.36,0,0,0,0-.54.55.55,0,0,0-.21-.32c-.27-.14-.41.31-.43.49a10.1,10.1,0,0,0,0,1.56s0,0,0,0a.14.14,0,0,0-.14.05.69.69,0,0,0-.11.52,3.31,3.31,0,0,0,.12.5.86.86,0,0,1,0,.09h0s0,.06,0,.09,0,.05,0,.08h0a.92.92,0,0,0,.11.5.21.21,0,0,0,.36.05,1.62,1.62,0,0,0,.3-.92,6.51,6.51,0,0,0,0-.86c0-.25,0-.49,0-.74"/><path d="M81.26,28.28V28.2h0v.06"/><path d="M81.42,26.7a.78.78,0,0,0-.16-.4c-.22-.22-.4,0-.46.24a5,5,0,0,0-.19,1.2c0,.24,0,.48,0,.72a2.12,2.12,0,0,0,0,.36,1,1,0,0,0,.1.28v.06c0,.09.1.24.22.21s.13-.13.16-.22l0,0a.71.71,0,0,0,.06-.15,2.26,2.26,0,0,0,.07-.5v-.18c0,.07,0,0,0,0v0h0s0,0,0-.06v-.33c0-.09,0-.18,0-.28s0-.14,0-.21l0-.1a1.24,1.24,0,0,0,0-.52"/><path d="M79.7,26.33a.88.88,0,0,0-.08-.4c0-.07-.1-.17-.2-.16a.26.26,0,0,0-.2.16,3.79,3.79,0,0,0-.39,1.45A1.58,1.58,0,0,0,79,28.5c.06.07.14.16.24.16s.16-.09.2-.16A.89.89,0,0,0,79.5,28a.92.92,0,0,0-.07-.29v0a.75.75,0,0,0,0-.14v-.05c0-.07,0-.14,0-.22v-.1l.05-.2,0-.1h0l.08-.18a.89.89,0,0,0,.08-.4"/><path d="M78.08,26.3l0-.11v0h0a1.18,1.18,0,0,1,0-.13v0a.71.71,0,0,0,.06-.28.62.62,0,0,0-.06-.28c0-.05-.07-.12-.14-.12a.18.18,0,0,0-.14.12,1.64,1.64,0,0,0-.15.68,1.43,1.43,0,0,0,.05.37,1.05,1.05,0,0,0,.14.3.11.11,0,0,0,.14,0,.25.25,0,0,0,.1-.13.66.66,0,0,0,0-.49l0,0"/><path d="M76.75,26.11l0-.1v0c0-.05,0-.11,0-.16s0-.05,0-.08v-.19l0-.11a.47.47,0,0,1,0-.07l0,0a.85.85,0,0,0,.07-.34.76.76,0,0,0-.07-.34c0-.06-.09-.15-.17-.14a.22.22,0,0,0-.17.14,2.5,2.5,0,0,0,0,2.14c0,.05.08.13.15.13a.17.17,0,0,0,.13-.09.69.69,0,0,0,.05-.55l-.06-.18"/><path d="M76.72,26s0,0,0,0"/><path d="M49.37,44.78a.39.39,0,0,0-.39,0,6.94,6.94,0,0,0-1.59.87,25.65,25.65,0,0,1-3.07,2c-.36.17-.25,1.35.16,1.15a17.31,17.31,0,0,0,2.39-1.49c.38-.26.76-.53,1.15-.77l.58-.35.32-.17.13-.06a.21.21,0,0,0,.09.12.17.17,0,0,0,.22-.12,2.27,2.27,0,0,1,.13-.21.91.91,0,0,0,.09-.5.61.61,0,0,0-.21-.47"/><path d="M36,47.94c-.13-.26-.39-.21-.62-.13a5.56,5.56,0,0,0-1,.5c-.87.51-1.7,1.07-2.54,1.61a10.25,10.25,0,0,1-1,.61c-.29.14-.2,1.1.13.94a19,19,0,0,0,2-1.21c.76-.48,1.52-1,2.31-1.4a3.71,3.71,0,0,1,.42-.2l.1,0h.05c.11.06.19-.11.22-.19a.69.69,0,0,0,0-.49"/><path d="M35.4,16.39a2.81,2.81,0,0,0-1.19-.07c-.38,0-.76.05-1.14.1a21.34,21.34,0,0,0-2.34.39c-.41.09-.34,1.2,0,1.13a21.38,21.38,0,0,1,2.34-.4l1.14-.11a3.5,3.5,0,0,0,1.19-.18c.22-.1.23-.75,0-.84"/><path d="M35,12.91a3.73,3.73,0,0,0-1.16-.1q-.62,0-1.25,0a9,9,0,0,0-2.34.37c-.3.1-.24,1.06.13.94a8.66,8.66,0,0,1,2.29-.35c.39,0,.78,0,1.17,0A3.79,3.79,0,0,0,35,13.68c.21-.07.21-.7,0-.77"/><path d="M36.45,11.24a7.57,7.57,0,0,0-1.3-.13c-.43,0-.85,0-1.28-.05a22,22,0,0,0-2.59.1c-.34,0-.32,1,0,1a24.14,24.14,0,0,1,2.59-.1l1.28,0a8.21,8.21,0,0,0,1.3,0c.29,0,.27-.73,0-.79"/><path d="M39.28,7.55a5,5,0,0,0-1-.12l-1-.09a6.48,6.48,0,0,0-2.05.1c-.36.09-.29,1.06,0,1a7,7,0,0,1,2.05-.11l1,.06a2.73,2.73,0,0,0,1-.06c.2-.07.21-.71,0-.77"/><path d="M41,6.22s-.06-.1-.12-.1a3.66,3.66,0,0,1-1.43-.18c-.14-.05-.21.14-.22.25a.64.64,0,0,0,0,.27c0,.05,0,.14.11.16a3.53,3.53,0,0,0,1.53.19c.14,0,.17-.23.17-.34a.52.52,0,0,0,0-.24"/><path d="M43.06,5.08C43,5,43,5,42.92,5l-.46,0H42c-.07,0-.11.07-.14.12a.62.62,0,0,0-.06.28.6.6,0,0,0,.06.28c0,.05.07.12.14.12h.46l.46,0a.18.18,0,0,0,.14-.11.6.6,0,0,0,.06-.27.58.58,0,0,0-.06-.27"/><path d="M34.29,19.15a1,1,0,0,0,0-.27l0-.11a1.47,1.47,0,0,0-.18-.35.94.94,0,0,0-.38-.34,1.73,1.73,0,0,0-1-.1,7,7,0,0,0-1.08.26l-.49.15-.24.07-.1,0h-.06c-.29.07-.36.44-.35.7a1.14,1.14,0,0,0,.1.5c0,.08.14.23.25.2.61-.15,1.19-.39,1.78-.5a2.73,2.73,0,0,1,.88,0h.12l.15.06.15.08h0l.07.07a.17.17,0,0,0,.21.05c.15,0,.19-.36.19-.45,0,.12,0,.1,0-.07"/><path d="M34.09,19.66h0l0,0,0,0"/><path d="M33.61,20.68a1.17,1.17,0,0,0-.35-.25,2.08,2.08,0,0,0-.35-.1,3.55,3.55,0,0,0-.73-.08,4,4,0,0,1-1.38-.17c-.25-.1-.37.26-.39.44a1.16,1.16,0,0,0,0,.49c0,.1.08.25.19.29a3.76,3.76,0,0,0,1.46.2l.71,0c.23,0,.46,0,.7,0s.2-.21.21-.32a.62.62,0,0,0-.1-.49"/><path d="M33.42,22.55a1.17,1.17,0,0,0-.79-.52,1.44,1.44,0,0,0-.87.17.42.42,0,0,0-.16.25,1,1,0,0,0,0,.42c0,.14.12.49.33.38a1.78,1.78,0,0,1,.29-.11,1.31,1.31,0,0,1,.62,0l.35.12-.06,0,.16.07c.15.06.22-.13.24-.24a.67.67,0,0,0-.08-.52"/><path d="M33.63,24.19l-.21.08a.8.8,0,0,1-.35,0,.79.79,0,0,1-.25-.12c-.06,0-.13,0-.17,0a.5.5,0,0,0-.1.25.57.57,0,0,0,.15.53.84.84,0,0,0,.51.17.87.87,0,0,0,.52-.2.34.34,0,0,0,.12-.18.71.71,0,0,0,0-.3c0-.11-.08-.34-.24-.27"/><path d="M12.52,15.59a1.81,1.81,0,0,0-.3-.52c-.06-.08-.15-.25-.23-.39a12.18,12.18,0,0,1-.53-1.18,18.92,18.92,0,0,1-.77-2.39c0-.14-.16-.29-.3-.16a.68.68,0,0,0-.08.59c.22.89.46,1.77.76,2.64a12.33,12.33,0,0,0,.52,1.32,4.79,4.79,0,0,0,.27.5c.08.12.23.41.41.38s.29-.57.23-.79"/><path d="M15.15,13.31h0v0"/><path d="M20,11.21v.05a.48.48,0,0,0,0-.16v.11h0"/><path d="M20,11.27h0v0"/><path d="M20,11.3v0h0v0"/><path d="M23.29,9.41s0,.06,0-.07h0v.06"/><path d="M23.32,11v0s0,0,0,0"/><path d="M6.76,20v0h0"/><path d="M6.76,20h0c0-.05,0,0,0,0"/><path d="M6.76,20h0s0,0,0,0"/><path d="M6.54,19.68l0,0,.06,0-.08-.07"/><path d="M4.4,21.62v-.15s0,0,0,.06,0,.06,0,.09"/><path d="M4.4,21.39h0v0h0v0"/><path d="M4.4,21.39v.08a.68.68,0,0,0,0-.08"/><path d="M4.36,21.26l0,.09a.64.64,0,0,0,0-.09"/><path d="M4.34,21.14a1,1,0,0,1,0,.11h0l0-.12"/><path d="M111.15,28.42a17.69,17.69,0,0,0-6.73-10.28,19.34,19.34,0,0,0-9.93-3.62c-2-.22-4-.21-6.07-.22a7.82,7.82,0,0,1-4.81-1.17c-3-2.22-3.64-6.61-7.14-8.4S68.42,3.79,65,5.47a14.35,14.35,0,0,0-7.69,8.86,3.24,3.24,0,0,0,.38,2.87.66.66,0,0,0,.66.23c0,.11,0,.22,0,.33l0,.35v.18c0,.12,0,.24,0,.37v-.12a1.56,1.56,0,0,0,0,.19s0-.14,0-.09a.27.27,0,0,1,0,0v.07s0,0,0,0a.6.6,0,0,0,.12.39c.11.12.26.06.32-.08a1.53,1.53,0,0,0,.1-.7c0-.27,0-.53-.06-.8s0-.38-.05-.57a1.91,1.91,0,0,0,.24-.54,9.13,9.13,0,0,1,1.32-2.8c0,.71.06,1.42.1,2.13.06,1.07.06,2.14.07,3.22,0,.25,0,.58.25.67s.4-.29.42-.47c.17-2.14-.13-4.29-.16-6.43.23-.27.47-.52.73-.77a1.18,1.18,0,0,0-.13.54c0,1,0,2,.07,3A11.09,11.09,0,0,0,62,17.27c.08.36.2,1.09.62,1.19.2.05.27-.43.26-.52a3.43,3.43,0,0,0-.15-.74,4.26,4.26,0,0,1-.12-.53,12.61,12.61,0,0,1-.15-1.33c-.05-.93,0-1.87-.06-2.8,0-.21-.05-.69-.35-.7,0,0-.06,0-.09,0a13.2,13.2,0,0,1,1.43-1.17A10.66,10.66,0,0,0,63,13.89a11.1,11.1,0,0,0,.13,1.82,6.61,6.61,0,0,0,.17.78c.06.2.15.56.36.65s.33-.36.33-.51a8.9,8.9,0,0,0-.22-1.36,10.6,10.6,0,0,1-.09-1.43,8.07,8.07,0,0,1,.34-2.65,1,1,0,0,0-.09-.85c.38-.24.77-.47,1.17-.68A.57.57,0,0,0,65,10a12.08,12.08,0,0,0-.38,3.54,10.24,10.24,0,0,0,.2,1.86c.09.42.2,1.16.61,1.39s.32-.48.3-.61c-.06-.44-.22-.86-.29-1.26a9.68,9.68,0,0,1-.13-1.47,9.7,9.7,0,0,1,.29-2.75,1.08,1.08,0,0,0-.12-1,.2.2,0,0,0-.28,0,15.33,15.33,0,0,1,1.71-.75,15.4,15.4,0,0,0-.4,3.48,13.54,13.54,0,0,0,.1,1.79A3.31,3.31,0,0,0,67,15.72c.23.31.33-.4.33-.5,0-.46-.14-.91-.19-1.37a12.54,12.54,0,0,1-.07-1.51,12.59,12.59,0,0,1,.31-2.85,1,1,0,0,0-.07-.76,15.14,15.14,0,0,1,1.91-.51A8.51,8.51,0,0,0,69,9.73a19.57,19.57,0,0,0-.11,2.22A10,10,0,0,0,69,14c.08.36.25.94.69,1s.24-.78.06-.9l-.05-.06,0,0s0,0,0,0l0-.12,0-.17v0h0c0-.12,0-.24-.05-.36s0-.25,0-.37v-.1c0-.09,0-.17,0-.26,0-.31,0-.61,0-.92s0-.63,0-.94v-.35c0-.15,0-.3,0-.44s.06-.51.1-.77l0-.14V9h0c0-.08,0-.15.06-.23a1.25,1.25,0,0,0,0-.68c.32,0,.63-.08.95-.11a1,1,0,0,0-.08.27,22.87,22.87,0,0,0-.11,3.14c0,.49,0,1,.06,1.47a3.79,3.79,0,0,0,.21,1.29c.1.24.31.09.35-.09a4.3,4.3,0,0,0,.08-1.19c0-.48,0-1,0-1.43s0-1,0-1.51q0-.38,0-.75V9c0-.12,0-.24,0-.36A1.28,1.28,0,0,0,71.28,8c.3,0,.6,0,.89,0,0,1.1-.1,2.2-.12,3.3,0,.67,0,1.35,0,2a2.49,2.49,0,0,0,.38,1.36.19.19,0,0,0,.23.06h0c.31,0,.29-.63.15-.85l0-.16c.06.18,0,0,0,0h0c0-.1,0-.2,0-.29l0-.2v0h0c0-.64,0-1.27,0-1.91,0-1.07.1-2.15.12-3.23.34,0,.67.09,1,.15a1.14,1.14,0,0,0,0,.12c0,1,0,2-.08,3,0,.47-.05.95-.07,1.42a3.34,3.34,0,0,0,.13,1.57c.1.18.26.18.36,0a1.74,1.74,0,0,0,.14-.74c0-.28,0-.55,0-.83q0-.71.08-1.42c.06-1,.1-2,.08-2.94a5.89,5.89,0,0,1,1.09.42c-.24.06-.3.51-.3.68,0,1-.09,2-.07,3a8.58,8.58,0,0,0,.18,1.73c.07.29.22.94.56,1a.42.42,0,0,0,.23.12c.29,0,.24-.63.16-.77s-.14-.22-.11-.15-.05-.17-.07-.22l0-.07c0-.08-.05-.16-.07-.24l0-.15h0v0c0-.24-.07-.48-.09-.72v-.24c0-.13,0-.27,0-.4,0-1,.07-1.91.07-2.87a1.24,1.24,0,0,0-.11-.51c2.29,1.31,3.31,3.93,4.92,6.1a8.31,8.31,0,0,0,3.8,3,14.35,14.35,0,0,0,4.68.49,30,30,0,0,1,10,1.25,16.74,16.74,0,0,1,7.86,6c2,2.73,3.31,7.27.88,10.2a7.31,7.31,0,0,1-1.42,1.29l-.07-.23,0-.16v-.06c0-.11,0-.23-.05-.34a.66.66,0,0,0-.13-.34.18.18,0,0,0-.22-.06c-.21.13-.22.49-.2.7a4.91,4.91,0,0,0,.17.82h0c-.39.24-.79.47-1.19.68h0l-.07-.08h0v-.08s0,0,0,0,0-.09,0-.14v0l0-.18a1.22,1.22,0,0,0,0-.49c0-.09-.09-.25-.19-.29-.25-.11-.37.27-.39.45a3.76,3.76,0,0,0,0,1.25l0,0-1.16.56-.07-.09h0l0-.06-.06-.12,0-.06,0-.13c0-.1-.06-.21-.08-.32l0-.13h0l0-.08c0-.22-.07-.43-.1-.65a.74.74,0,0,0-.14-.36.19.19,0,0,0-.23-.06c-.22.13-.24.52-.21.74a7.24,7.24,0,0,0,.35,1.6l0,0-.62.3c0-.12-.07-.29-.2-.29a.23.23,0,0,0-.14.07l0-.08,0-.15,0-.08v0a3.14,3.14,0,0,1-.1-.58c-.05-.4-.08-.8-.12-1.21a.77.77,0,0,0-.15-.4.21.21,0,0,0-.26-.07c-.25.15-.26.57-.23.82a12.62,12.62,0,0,0,.3,2.06c0,.09.07.18.1.26l-.85.39a.76.76,0,0,0,0-.56c0-.12-.17-.26-.29-.12a.8.8,0,0,0-.11.17c0-.07,0-.14-.07-.22s-.12-.41-.17-.62v0s0-.09,0-.14,0-.2,0-.3,0-.21,0-.31h0c0-.06,0-.13,0-.19a1.13,1.13,0,0,0-.1-.49c0-.09-.13-.2-.24-.2-.28,0-.35.5-.35.69a7.79,7.79,0,0,0,.21,1.61,6,6,0,0,0,.18.63l.15.39,0,.06c-.37.15-.75.31-1.13.44a.46.46,0,0,0-.15-.4l-.06,0,0,0h0l0,0a.39.39,0,0,0-.07-.12c0,.06,0,0,0,0l0-.07-.08-.16,0-.08h0l-.07-.22L97.44,40h0s0-.08,0-.11a9.06,9.06,0,0,1-.12-1v0s0-.07,0-.11,0-.14,0-.21,0-.26,0-.39-.06-.69-.35-.69-.34.5-.35.69a8.86,8.86,0,0,0,.24,2.24,3.15,3.15,0,0,0,.42,1l.09.12c-.51.17-1,.33-1.53.47l0-.13a5.39,5.39,0,0,1-.17-.56c-.07-.27-.08-.32-.12-.59s-.07-.48-.11-.72c-.12-.92-.16-1.86-.35-2.78,0-.18-.13-.56-.4-.45s-.27.6-.23.8c.21,1,.24,2,.38,3a8,8,0,0,0,.33,1.53l0,.07c-.37.09-.74.17-1.11.24a7.12,7.12,0,0,1-.54-2.44c0-.43-.06-1-.07-1.58s0-.92,0-1.38c0-.21-.05-.69-.35-.7s-.36.52-.35.7c0,1.16,0,2.32.15,3.48a9.2,9.2,0,0,0,.33,1.79l.08.26c-.51.08-1,.16-1.52.21-.08-.31-.17-.62-.22-.93A18.32,18.32,0,0,1,91.28,40c-.09-1.33-.07-2.67-.15-4,0-.2-.05-.68-.34-.68s-.35.5-.34.68c.08,1.46.07,2.93.17,4.39a15.79,15.79,0,0,0,.29,2.18l.07.35q-.67,0-1.34,0a9.2,9.2,0,0,1-.26-1.37,17.75,17.75,0,0,1,0-2,18.34,18.34,0,0,0-.1-4c0-.2-.14-.6-.43-.49s-.28.64-.24.85a20,20,0,0,1,.07,4.12,14.34,14.34,0,0,0,.1,2.16c0,.2.07.43.12.65-.49,0-1-.06-1.46-.13,0-.17-.09-.34-.11-.51a16,16,0,0,1-.17-1.8,25.83,25.83,0,0,0-.3-3.75c0-.2-.14-.61-.43-.49s-.29.64-.24.86a28.56,28.56,0,0,1,.29,3.81,16.06,16.06,0,0,0,.19,1.75c-.42-.08-.85-.15-1.26-.26l-.09-.52c-.07-.48-.12-1-.17-1.44l0-.39v-.29c0-.24,0-.48,0-.71q0-.69-.05-1.39c0-.21-.06-.69-.35-.7s-.35.51-.35.7c0,1.06.08,2.13.18,3.19,0,.45.09.9.17,1.34a13.75,13.75,0,0,1-1.38-.55v0c0-.3,0-.6-.06-.9-.06-.53-.16-1.05-.26-1.57,0-.18-.15-.63-.43-.49s-.29.63-.24.86c.1.5.2,1,.28,1.5,0,.09,0,.18,0,.28-.31-.17-.62-.35-.93-.55,0,0,0-.06,0-.1,0-.38,0-.76,0-1.14a1.07,1.07,0,0,0-.1-.47c0-.07-.13-.2-.23-.19-.27,0-.33.46-.33.66s0,.51,0,.76a13.45,13.45,0,0,1-1.12-.93,1.1,1.1,0,0,0,0-.2.9.9,0,0,0-.08-.4c0-.07-.11-.18-.2-.17a.27.27,0,0,0-.2.17s0,.07,0,.1c-.2-.21-.41-.4-.6-.63-.62-.74-1.25.16-1.43.75a3.31,3.31,0,0,0,.38,2.87,14.15,14.15,0,0,0,3.88,3.24,10.31,10.31,0,0,0-1.43,3c-.35,1.22-.46,2.54-.93,3.72-.85,2.12-3,3.45-4.91,4.48a32.6,32.6,0,0,1-5.41,2.37,1.36,1.36,0,0,0-.49,0c0-.13,0-.6-.25-.49a5.53,5.53,0,0,0-.62.38c-.21.13-.43.26-.65.38a3.15,3.15,0,0,1-1.42.38c-.09,0-.15.07-.19.16l-.55.08a5.61,5.61,0,0,0,1-.81.73.73,0,0,0,.1-.6c0-.14-.11-.34-.28-.28a7.59,7.59,0,0,0-1.36.69,5.72,5.72,0,0,0-1.33,1.07.58.58,0,0,0-.08.13c-.54,0-1.09.08-1.63.1l.22-.19a5.69,5.69,0,0,1,1-.66,4.62,4.62,0,0,0,1-.44.74.74,0,0,0,0-.84.6.6,0,0,0-.55-.15,2.42,2.42,0,0,0-.53.17,4.58,4.58,0,0,0-1,.64c-.61.49-1.15,1.06-1.78,1.52H57.67c.43-.35.87-.69,1.33-1s.73-.5,1.11-.73l.54-.33a6.87,6.87,0,0,0,.6-.43c.26-.17.29-1.15-.14-1a2.86,2.86,0,0,0-.59.21l-.58.33q-.6.37-1.18.78a24,24,0,0,0-2.14,1.75.64.64,0,0,0-.13.42c-.87,0-1.74-.07-2.6-.17a16,16,0,0,1,1.63-1.57,9.68,9.68,0,0,1,1.49-1,5.5,5.5,0,0,1,.78-.35l.11,0s0,0,0,0,.18.27.3.12.23-.28.33-.44h0l.06-.09a.83.83,0,0,0-.12-.94c-.2-.16-.58,0-.79.06a4.45,4.45,0,0,0-.78.35A9.68,9.68,0,0,0,55.31,57a20.45,20.45,0,0,0-2.45,2.59,17,17,0,0,1-1.77-.37C52,58.59,53,58,53.88,57.34a9.1,9.1,0,0,0,1.33-1.07c.16-.16.33-.32.47-.49l.1-.13c.06.07.14.07.23-.08a.9.9,0,0,0,0-.94c-.13-.14-.33-.07-.47,0a2.19,2.19,0,0,0-.6.48,6.19,6.19,0,0,1-.56.5c-1.48,1.09-3.06,2.08-4.44,3.3a11.44,11.44,0,0,1-1.64-.73l2.29-2c1.07-.91,2.18-1.81,3.22-2.76a.5.5,0,0,0,.08.33c.1.13.21.11.29,0a1.47,1.47,0,0,0,.08-1.63c-.06-.09-.18-.26-.31-.16-1.26,1-2.44,2.07-3.64,3.11-1,.85-1.94,1.7-2.91,2.56a9.73,9.73,0,0,1-1-.81c-.22-.21-.41-.39-.57-.57,1.79-1.34,3.5-2.8,5.39-4a6.41,6.41,0,0,1,.65-.37l.22-.09a.17.17,0,0,0,.07-.05c.31.05.28-.72.2-.87-.23-.4-.59-.27-.94-.1a10.73,10.73,0,0,0-1.55,1c-1.27.9-2.49,1.89-3.71,2.86l-1,.78a5.27,5.27,0,0,1-.4-1,23.94,23.94,0,0,1,3-2.64c.54-.41,1.09-.8,1.66-1.16l.82-.49.43-.25.24-.13h0a.18.18,0,0,0,.15.12c.1,0,.16-.11.19-.21l0-.06a.65.65,0,0,0,.11-.21.94.94,0,0,0,0-.61c-.17-.42-.58-.21-.87-.05A19,19,0,0,0,48.33,50a25.18,25.18,0,0,0-3.81,3.43q-.26-1-.43-2.11a.14.14,0,0,0,.2,0,33.29,33.29,0,0,0,3.08-2.29c.5-.39,1-.77,1.54-1.11.26-.17.53-.32.81-.47l.25-.12c.05.1.15.21.26.09s.21-.32.35-.47.22-.93-.14-1-.61.16-.84.27a7.29,7.29,0,0,0-.81.46,18.81,18.81,0,0,0-1.58,1.17,29,29,0,0,1-3.07,2.35.43.43,0,0,0-.16.28c0-.35-.09-.71-.12-1.07-.07-.67-.12-1.43-.15-2.17a.15.15,0,0,0,.22,0c.92-.64,1.84-1.29,2.8-1.89.48-.29,1-.58,1.47-.83a6.23,6.23,0,0,0,1.5-.78c.2-.18.19-.85-.12-.91a1.46,1.46,0,0,0-.77.17c-.25.1-.49.21-.73.32a17,17,0,0,0-1.51.84c-1,.59-1.88,1.25-2.8,1.9a.36.36,0,0,0-.07.08c0-.38,0-.74,0-1.07a.2.2,0,0,0,.29,0,8,8,0,0,1,2.8-1.74c.5-.21,1-.4,1.53-.6a3.36,3.36,0,0,0,.5-.24l.16-.09h0c.67-.11.65-1.59-.1-1.34l-.31.13a2.51,2.51,0,0,0,.41-.35h0l.08-.06c.22-.26.28-1.13-.16-1.21a1.5,1.5,0,0,0-.62.1l-.55.16c-.37.12-.74.25-1.1.39s-1,.41-1.43.62c0-.92-.36-1.79-1-1.78-2.85.07-2.66,6-2.63,7.81a45.55,45.55,0,0,0,.31,4.78,2.56,2.56,0,0,0-1-.93,2.67,2.67,0,0,0-1.37-.24c0-.23,0-.53-.2-.46a9.88,9.88,0,0,0-1.35.75c-1.33.37-2.61.9-4,1.16l1.1-.66a19.19,19.19,0,0,0,2.47-1.63.56.56,0,0,0,.15-.51c0-.1-.1-.38-.26-.29-.84.49-1.65,1-2.48,1.54s-1.69,1-2.51,1.56a.27.27,0,0,0-.09.11,2.92,2.92,0,0,1-.9-.18,3.19,3.19,0,0,1-.93-.57,3.31,3.31,0,0,1-.8-1.07l0-.11L29.68,50l0-.18v0h.06c.93-.63,1.88-1.24,2.84-1.84l1.43-.86c.1-.06.86-.54,1.25-.75.07.19.21.33.32,0,0,.08,0,0,0,0l.08-.07a.63.63,0,0,0,.12-.39c0-.22-.12-.59-.4-.57a1.5,1.5,0,0,0-.47.21l-.48.26-1,.58c-1.3.78-2.58,1.61-3.83,2.47l0,0c0-.15,0-.29,0-.44s0-.46,0-.68l0-.28c.77-.43,1.48-1,2.22-1.45a13.34,13.34,0,0,1,1.32-.79,14.57,14.57,0,0,1,1.38-.54c.21-.09.2-.72-.05-.75a2.62,2.62,0,0,0-1.34.35,10.18,10.18,0,0,0-1.4.83c-.69.47-1.35,1-2.07,1.4,0-.38.06-.76.08-1.15,0-.12,0-.25,0-.38.73-.41,1.42-.88,2.12-1.32.39-.24.79-.48,1.2-.68a2.67,2.67,0,0,1,.84-.32c.24,0,.27-.68.05-.74a1.33,1.33,0,0,0-.91.15,10.69,10.69,0,0,0-1.23.68c-.69.43-1.36.89-2.07,1.3,0-.35,0-.71-.06-1.06a8,8,0,0,1,1.71-1.19c.37-.2.75-.39,1.14-.58a3.92,3.92,0,0,0,1.1-.64c.13-.12.17-.76-.1-.75a1.68,1.68,0,0,0-.57.18l-.59.26c-.39.18-.78.37-1.17.57A8,8,0,0,0,29.51,42c0-.17-.06-.34-.1-.51a21.28,21.28,0,0,1,1.83-1.16,5.06,5.06,0,0,1,2.06-.78c.28,0,.28-.72.06-.81a1.42,1.42,0,0,0-1,0,6.71,6.71,0,0,0-1.2.51,17.63,17.63,0,0,0-2.07,1.31c-.07-.17-.14-.35-.23-.51a8.73,8.73,0,0,1,1.77-1.48A9.89,9.89,0,0,1,31.71,38c.36-.17.76-.29,1.11-.48s.25-.84-.06-.84A3.14,3.14,0,0,0,31.6,37a7.8,7.8,0,0,0-1.12.6,9.31,9.31,0,0,0-1.8,1.52s0-.06,0-.09c-.07-.32-.3-1.09-.77-1-.64.08-1,0-1.35.71a3.34,3.34,0,0,0,.39,3.7,3.79,3.79,0,0,1,.38.42l0,0,0,0,.15.31c-.18-.39,0,.15,0,.2l0,.11c0,.15,0,.3,0,.45-.06-.59,0,.23,0,.38s0,.43,0,.65,0,.28,0,.42v0l0,.29a1.69,1.69,0,0,0-.38-.43c-2.78-2.13-6.09-1.5-9.3-1.43l0-.11v-.15a.81.81,0,0,0,0-.22.41.41,0,0,0,0-.13.28.28,0,0,0-.05-.1.17.17,0,0,0-.06-.07.15.15,0,0,0-.11-.05h-.11l-.07,0,0,0-.13.1-.14.12-.06.07-.11.15a.51.51,0,0,0-.1.18.76.76,0,0,0,0,.19,12.85,12.85,0,0,1-1.34-.1l0,0h0l0,0,0-.06.09-.11.2-.23a5.32,5.32,0,0,0,.46-.48.91.91,0,0,0,.14-.66c0-.15-.09-.42-.28-.43a.94.94,0,0,0-.65.34,2.85,2.85,0,0,0-.38.48,11.71,11.71,0,0,0-.59,1,7.47,7.47,0,0,1-1.41-.47l.25-.48c.08-.16.17-.32.27-.48l0-.07.08-.11.15-.15a1,1,0,0,1,.18-.12,1.67,1.67,0,0,1,.24-.12l-.08,0a.7.7,0,0,0,.18-.06.56.56,0,0,0,.19-.45.78.78,0,0,0-.13-.54.68.68,0,0,0-.28-.18.46.46,0,0,0-.36,0,1.26,1.26,0,0,0-.47.4,7.35,7.35,0,0,0-.7,1.23l-.17.32-.08.13,0,0a.87.87,0,0,0-.08.16c-.15-.09-.31-.18-.45-.29a4.16,4.16,0,0,1-.46-.41,7.42,7.42,0,0,0,.73-1c.13-.2.27-.4.42-.59a2.9,2.9,0,0,1,.21-.24l.09-.09.06,0a2.3,2.3,0,0,0,.28-.18s-.07,0,0,0l.05,0a.56.56,0,0,0,.22-.38c.06-.27,0-.72-.28-.83a.36.36,0,0,0-.21,0l-.15.05a1.6,1.6,0,0,0-.5.41,5.71,5.71,0,0,0-.43.56A7.17,7.17,0,0,1,11,41a.62.62,0,0,0-.14.31,4.17,4.17,0,0,1-.47-1.17.2.2,0,0,0,.13.06c.12,0,.2-.11.25-.2l.15-.25,0-.08c0,.06-.06.09,0,0l.11-.17q.26-.39.54-.76c.19-.25.39-.5.6-.73l.3-.3.07-.06h0a.7.7,0,0,1,.14-.11,2.85,2.85,0,0,0,.32-.23l0,0,.11,0c.26-.16.21-.62.11-.85a.4.4,0,0,0-.17-.21l0,0c-.08,0,.05,0,0,0S13,36.1,13,36.08a.25.25,0,0,0-.12,0,.56.56,0,0,0-.21.06,2.32,2.32,0,0,0-.64.53,11.93,11.93,0,0,0-1.23,1.54c-.18.26-.35.52-.51.79a.6.6,0,0,0,0,.06,9.51,9.51,0,0,1,.08-1.59,8.3,8.3,0,0,1,.81-.87l.16-.14,0,0,.08-.07.31-.23a1.85,1.85,0,0,0,.32-.28l.05-.05h0l.1-.06c.14-.07.18-.32.17-.46a.55.55,0,0,0-.17-.46,1.45,1.45,0,0,0-.28-.08l-.07,0h-.07a.91.91,0,0,0-.22.07,3.21,3.21,0,0,0-.72.56l-.13.13.2-.89a4.4,4.4,0,0,1,.43-.29,1.64,1.64,0,0,0,.43-.25.85.85,0,0,0,.17-.63c0-.19-.08-.46-.29-.52a.52.52,0,0,0-.28,0l-.13,0c.11-.67,0-2.59-1-2.65-2.39-.13-5.46,2-7.56.14a3.14,3.14,0,0,1-.47-.57.57.57,0,0,1-.06-.11A2.39,2.39,0,0,1,2.36,29a6.45,6.45,0,0,1,2.07-2.53c1-.74,1.23-3.79-.28-4.11a2.3,2.3,0,0,1-1-.45.83.83,0,0,1-.29-.4s0,0,0,0a1,1,0,0,0-.06-.15.74.74,0,0,1,.06.14.63.63,0,0,1,0-.27,5.33,5.33,0,0,1,.29-.78l0-.08c.1.27.19.54.3.81a3,3,0,0,0,.21.39c.1.16.24.35.44.38,0,0,.1,0,.12-.07a.49.49,0,0,0,.1-.23.87.87,0,0,0,0-.14,1,1,0,0,0,0-.17.8.8,0,0,0,0-.09A.89.89,0,0,0,4.28,21l-.06-.11s-.09-.15,0-.08v0a3.75,3.75,0,0,1-.22-.4l-.09-.2h0v0l0-.11-.15-.42a4.1,4.1,0,0,1,1.4-1.23.57.57,0,0,0-.18.29,1.29,1.29,0,0,0,0,.54.85.85,0,0,0,.16.42,9.49,9.49,0,0,0,.72.78,2.89,2.89,0,0,0,.45.37l.18.1a.32.32,0,0,0,.19,0,.3.3,0,0,0,.17-.12h0a.55.55,0,0,0,.16-.38.76.76,0,0,0-.1-.46l.07.22a.94.94,0,0,0-.13-.37.65.65,0,0,0-.14-.14l-.2-.16-.15-.12.08.07a8.2,8.2,0,0,1-.95-1,.22.22,0,0,0-.24-.07,2.45,2.45,0,0,1,1.69-.2,1.1,1.1,0,0,0,.15.83l.11.16a5.78,5.78,0,0,1,.34.61l.15.32a1.35,1.35,0,0,0,.2.37.19.19,0,0,0,.31,0A.81.81,0,0,0,8.21,20a3.1,3.1,0,0,0-.38-1.27,6.49,6.49,0,0,0-.35-.57,1.86,1.86,0,0,0,.64-1.27l.35.82c.14.33.28.67.45,1a3.17,3.17,0,0,0,.63.95c.11.09.23.14.34,0a1.16,1.16,0,0,0,.26-.66,1.23,1.23,0,0,0,0-.31h0a.35.35,0,0,1,0,0,.67.67,0,0,0-.13-.45.16.16,0,0,0-.26,0s0,0,0,0a6,6,0,0,1-.32-.54c-.17-.32-.31-.65-.45-1-.21-.51-.43-1-.69-1.5a6.93,6.93,0,0,1,.35-1.26,3.16,3.16,0,0,1,.61.89c.09.18.16.36.24.55l0,.07.05.14.11.29A8.47,8.47,0,0,0,10.14,17c.19.35.45.75.86.84.15,0,.23-.26.25-.34a.91.91,0,0,0-.06-.6c-.21-.38-.43-.62-.62-1-.09-.17-.17-.35-.24-.52l-.06-.15v0h0l-.11-.29a6.65,6.65,0,0,0-1.07-2.05,13.71,13.71,0,0,1,2.45-3.22l.31-.29a1.29,1.29,0,0,0,0,.54c.2,1,.41,2,.71,2.94.15.49.31,1,.51,1.44a6.28,6.28,0,0,0,.28.6c.09.17.2.42.39.49s.33-.44.3-.6a6.62,6.62,0,0,0-.44-1.26c-.16-.45-.31-.9-.45-1.36s-.25-.91-.36-1.37-.19-.83-.27-1.23c0-.15-.11-.45-.29-.49a12.36,12.36,0,0,1,1.08-.83,17.38,17.38,0,0,0,.39,2.4,16.29,16.29,0,0,0,.83,3.11,1.65,1.65,0,0,0,.14.27.71.71,0,0,0,.26.23s0,0,0,0a.24.24,0,0,0,.2,0c.24-.14.23-.63.06-.86l-.08-.24c-.07-.2-.14-.39-.2-.59-.18-.56-.32-1.14-.45-1.72-.09-.38-.12-.53-.19-.87s-.11-.59-.16-.89S14,8.56,14,8.31s0-.21,0-.31V8s0,0,0-.05,0-.09,0-.15a10.14,10.14,0,0,1,1.41-.69,1.08,1.08,0,0,0,0,.21,29.78,29.78,0,0,1,.29,3.16,11.58,11.58,0,0,0,.24,1.65c.08.33.21,1,.62,1s.26-.63.22-.77-.09-.32-.14-.48,0-.18-.07-.27v-.05c0-.06,0-.12,0-.17-.08-.5-.13-1-.17-1.5A26.14,26.14,0,0,0,16,6.93l0-.08a8.46,8.46,0,0,1,1.3-.29,27.18,27.18,0,0,1,.26,2.84,13.47,13.47,0,0,0,.16,1.45,3.15,3.15,0,0,0,.46,1.4c.11.14.28,0,.34-.09a1.55,1.55,0,0,0,.13-.42,1.41,1.41,0,0,0,0-.22s0-.18,0-.08a.64.64,0,0,0-.1-.49s0,0-.07,0c0-.21-.09-.42-.12-.63-.06-.44-.1-.88-.13-1.32-.05-.82-.1-1.65-.21-2.47a7,7,0,0,1,.76,0c.26,0,.5.05.75.09-.13.93-.22,1.88-.27,2.82a11.88,11.88,0,0,0,0,1.63,1.87,1.87,0,0,0,.16.71.4.4,0,0,0,.1.13s0,0,0,0a.22.22,0,0,0,.27.07c.23-.07.21-.53.17-.73a1.15,1.15,0,0,1,0,.22,1.08,1.08,0,0,0,0-.27v0h0v-.07c0-.07,0-.08,0,0v-.19h0c0-.08,0-.16,0-.24,0-.48,0-1,0-1.44v0l0-.24c0-.12,0-.24,0-.35s0-.52.08-.79.08-.7.13-1a7.79,7.79,0,0,1,1.07.36,7.07,7.07,0,0,0-.11,2.09,7.84,7.84,0,0,0,.18,1.13c.06.26.15.79.48.83.15,0,.22-.26.23-.36a2,2,0,0,0,0-.56c0-.11,0-.21-.06-.32v0l0-.12c-.06-.3-.1-.61-.13-.91,0,0,0-.06,0-.09h0c0-.08,0-.16,0-.25s0-.16,0-.25,0-.1,0-.16,0,0,0-.06V8c0-.08,0-.15,0-.23V7.7c0-.08,0-.15.06-.23v0a9.13,9.13,0,0,1,.77.49A10.56,10.56,0,0,0,22.58,10a5.68,5.68,0,0,0,.11,1.28c0,.17.23.73.51.53a.67.67,0,0,0,.13-.73h0v0l0,0v0l0-.15c0-.07,0-.29,0,0,0-.31,0-.62,0-.93,0-.15,0-.3,0-.44s0,0,0-.06h0s0-.1,0-.14,0-.15,0-.23,0-.3.06-.45l0-.15h0c0,.06,0,0,0,0a10.75,10.75,0,0,1,.93.83.24.24,0,0,0-.1.06.83.83,0,0,0-.16.42,1.21,1.21,0,0,0,0,.54l0,.12h0l0,.11h0c0,.18,0,.36,0,.54a2.7,2.7,0,0,0,.13,1.22.31.31,0,0,0,.16.14.15.15,0,0,0,.12,0c.14,0,.19-.19.21-.31a1,1,0,0,0,0-.27l0-.16c0-.23.05-.46.07-.69a3.85,3.85,0,0,0-.1-1.28,13,13,0,0,1,.94,1.2s0,.09,0,.12c0,.38,0,.77,0,1.16a4.53,4.53,0,0,0,.1.81,1.69,1.69,0,0,0,.11.33c0,.09.12.23.22.26.26.09.32-.33.32-.49a3.8,3.8,0,0,0-.06-.64v-.11s0,0,0,0,0-.15,0-.22,0-.1,0-.15c.12.2.22.42.32.62a1.83,1.83,0,0,0,0,.26,3.25,3.25,0,0,0,0,.35,2.86,2.86,0,0,0,.11.46,1.59,1.59,0,0,0,.2.42.44.44,0,0,0,.12.11.22.22,0,0,0,.11,0,.15.15,0,0,0,.11,0l0,0a16.24,16.24,0,0,1,.64,2.11v.1a.82.82,0,0,0,.07.35l.05.07c0,.06,0,.13,0,.19.11.6.44,1.82,1.29,1.46.67-.28.82-1.5.77-2.25h.07c.82-.17,1.67-.2,2.5-.29a4.7,4.7,0,0,0,2.36-.72c.18-.14.23-.88-.11-.77s-.75.27-1.14.35a11.38,11.38,0,0,1-1.19.18c-.81.09-1.62.13-2.42.3a.29.29,0,0,0-.19.21c-.08-.37-.15-.74-.25-1.12a6.08,6.08,0,0,0,0-1.14,4.79,4.79,0,0,1,1-2.35A11.45,11.45,0,0,1,32.75,8.9c-.13.28-.06.83.19.83,1.54,0,3.18.67,4.67.08.21-.08.21-.82-.05-.78a9,9,0,0,1-2.3,0,16.7,16.7,0,0,0-2.32-.24h0c.34-.28.7-.55,1.06-.8a22.3,22.3,0,0,1,8-3.48,13,13,0,0,1,8.49,1.23,12,12,0,0,1,3.87,3A8.5,8.5,0,0,1,56,12.73c.11.51.54,1.16,1.13.92s.7-1.37.73-1.92C58.34,5.19,51.27.53,45.48,0a16.59,16.59,0,0,0-7.21,1.35,21.46,21.46,0,0,0-7.15,4.38A10.52,10.52,0,0,0,28.4,10c-1.94-4.1-5.2-7.58-10-7.7C12.33,2.14,7.27,8.21,6.26,14c-4.46,0-7,7.3-4.68,10.81A8.4,8.4,0,0,0,.36,32.09a4.7,4.7,0,0,0,4.09,3.31,17.68,17.68,0,0,0,4.25-.75c-.67,3.7-1.19,7.72,1.37,10.71a9.33,9.33,0,0,0,7.36,2.85c3.24-.09,6.41-.94,9.2,1.2.33.25.6.07.81-.24,0,.45,0,.9.09,1.34.28,2.23,1.41,4.88,3.75,5.6,1.91.59,3.87-.12,5.68-.72a9.43,9.43,0,0,1,2.63-.66,3.87,3.87,0,0,1,.52,0l.14,0,.21.1.1.06.07.07h0l0,0v0c.19.62.8,1.46,1.43.75a2,2,0,0,0,.42-.84,18,18,0,0,0,1,2.89c1.87,4.21,7,5.79,11.23,6.12,5.63.43,11.65.15,16.9-2.07,2.74-1.16,5.78-2.62,7.72-4.95a10.3,10.3,0,0,0,2-4.13c.37-1.47.5-3.08,1.41-4.35a3.32,3.32,0,0,0,.42-2.63c4.67,1.94,10.23,1.43,15.15-.35,1.71-.61,3.3-1.44,4.94-2.21A20.83,20.83,0,0,0,108,40.63c3.42-2.88,3.94-8.07,3.11-12.22M44,43.44c.09-.18.27-.5.12-.31.17-.21,0-.13.35-.22a.81.81,0,0,0,.44-.42c.62-.29,1.24-.58,1.87-.84.35-.14.7-.27,1.06-.38l.4-.12c0,.09.09.17.16.19l-.17.08-.91.34A10.45,10.45,0,0,0,44,43.66a1.2,1.2,0,0,0,.05-.22"/><path d="M24.06,20.71c-1.48.46-3,.74-4.52,1.06a4.19,4.19,0,0,0,.06-.94,15.19,15.19,0,0,1,4-.75c.24,0,.24-.68,0-.69a11.72,11.72,0,0,0-4.13.67c-.16-.61-.49-1.23-1.19-1a5.54,5.54,0,0,0-3.05,2.82A11.63,11.63,0,0,0,13.92,27a8,8,0,0,0,1.22,5,5.8,5.8,0,0,0,3.36,2.21,3,3,0,0,0,2-.17,3.57,3.57,0,0,0,1.72-2.73A3,3,0,0,0,21.75,29c-.46-.51-.93-.15-1.22.32-.07.11-.14.23-.2.35h0l0,0-.14.13a1.65,1.65,0,0,1-.21.13l-.23.08-.15,0a.4.4,0,0,0-.06-.11l0,0a.1.1,0,0,0-.1,0l-.43.13h-.15L18.52,30l-.28-.1a5.22,5.22,0,0,1-.66-.32l.19,0a5.14,5.14,0,0,0,.56-.14,1.07,1.07,0,0,0,.53-.27.54.54,0,0,0,.09-.37c0-.1,0-.27-.13-.31a.87.87,0,0,0-.53,0l-.54.11a4.11,4.11,0,0,1-1.09.06c-.06,0-.11,0-.14.1l-.06-.06-.21-.26h0v0l-.1-.21L16.08,28l0-.1c0-.09,0-.18,0-.26v-.27c0,.11.09.2.18.19.63-.09,1.26-.21,1.89-.31s1.22-.16,1.84-.23c.24,0,.24-.67,0-.69a7.51,7.51,0,0,0-1.84.14c-.63.1-1.26.21-1.89.3a.2.2,0,0,0-.15.13v0c0-.14,0-.27.06-.4V26.4c0-.16.1-.32.14-.48a.12.12,0,0,0,.08,0,14.19,14.19,0,0,0,4.9-.87c.19-.09.16-.73-.09-.64a17.18,17.18,0,0,1-4.6.73l.07-.14c.07-.13.15-.26.22-.39h0l0,.05,0-.07.06-.08,0,0,0,0c.79-.17,1.56-.4,2.34-.59.42-.1.84-.19,1.26-.26s.84-.08,1.26-.13c.24,0,.24-.66,0-.69a7.31,7.31,0,0,0-2.53.32L18,23.44h0a3.42,3.42,0,0,1,.82-.35c.18-.05.34-.29.45-.52a30.67,30.67,0,0,0,4.85-1.2c.2-.08.16-.72-.09-.65"/></g></g></svg>