<svg width="95" height="49" viewBox="0 0 95 49" fill="none" xmlns="http://www.w3.org/2000/svg">
<path d="M5.53806 35.2691L30.5498 41.1281L57.5104 37.5476L78.4076 45.3596L86.9614 42.7556C86.9614 42.7556 99.6297 32.7736 89.3435 22.5746L78.4076 16.2815L74.8345 17.1495C74.8345 17.1495 72.2359 3.04449 64.4401 3.58699C64.4401 3.58699 46.5746 -2.81453 34.6642 8.6865L31.416 15.4135L23.9449 14.1115L10.0856 11.2905L3.48083 16.2815L1.8567 19.3195C1.8567 19.3195 -0.850203 27.6741 5.53806 35.2691Z" fill="white"/>
<path d="M33.6915 17.7991C33.6915 17.6906 33.6915 17.5821 33.7998 17.3651C33.9081 16.8226 34.0163 16.3886 34.0163 15.8461C34.0163 15.6291 34.0163 15.4121 34.0163 15.3036C34.0163 15.1951 33.9081 14.9781 33.7998 14.9781C33.475 14.8696 33.3667 15.3036 33.3667 15.5206C33.2584 16.0631 33.1501 16.6056 33.0419 17.1481C33.0419 17.4736 32.9336 17.7991 32.9336 18.1246C32.9336 18.2331 32.9336 18.4501 32.9336 18.5586C32.9336 18.7756 33.0419 18.8841 33.1502 18.9926C33.1502 18.9926 33.1502 19.1011 33.2584 19.1011C33.475 19.3181 33.6915 19.3181 33.908 19.1011C34.0163 18.9926 34.1246 18.5586 34.0163 18.4501C34.0163 18.3416 34.0163 18.2331 33.908 18.2331C33.908 18.1246 33.7998 18.0161 33.6915 18.0161C33.6915 18.0161 33.6915 18.0161 33.6915 18.1246C33.6915 17.9076 33.6915 17.9076 33.6915 17.7991Z" fill="black"/>
<path d="M33.041 19.1016C33.041 19.1016 33.1496 19.21 33.041 19.1016V19.1016Z" fill="black"/>
<path d="M36.7228 14.3276C36.7228 13.1341 36.6145 11.9406 36.398 10.7471C36.398 10.5301 36.2897 10.0961 35.9649 10.2046C35.6401 10.3131 35.6401 10.8556 35.7483 11.1811C35.9649 12.2661 35.9649 13.3511 35.9649 14.5446C35.9649 15.0871 35.9649 15.6296 35.9649 16.1721C35.9649 16.7146 35.8566 17.4741 36.0732 18.0166C36.1814 18.2336 36.398 18.2336 36.5063 18.0166C36.7228 17.4741 36.6145 16.7146 36.7228 16.1721C36.7228 15.4126 36.7228 14.8701 36.7228 14.3276Z" fill="black"/>
<path d="M38.5635 14.6533C38.5635 14.1108 38.5635 13.4598 38.5635 12.9173V9.22825C38.5635 9.01125 38.4552 8.46875 38.2386 8.46875C37.9138 8.46875 37.9138 9.01125 37.9138 9.22825V12.9173C37.9138 13.4598 37.9138 14.1108 37.9138 14.6533C37.9138 15.1958 37.8055 15.7383 38.1304 16.1723C38.2386 16.3893 38.4552 16.3893 38.5635 16.1723C38.6717 15.7383 38.5635 15.0873 38.5635 14.6533Z" fill="black"/>
<path d="M44.085 5.10697C43.7601 4.99847 43.6518 5.43247 43.6518 5.64947C43.4353 6.84298 43.4353 8.03648 43.4353 9.22998C43.4353 9.77248 43.4353 10.4235 43.4353 10.966C43.4353 11.5085 43.327 12.268 43.6518 12.702C43.7601 12.8105 43.8684 12.8105 43.9767 12.702C44.3015 12.268 44.1932 11.5085 44.1932 10.966C44.1932 10.4235 44.1932 9.88098 44.1932 9.33848C44.1932 8.25347 44.3015 7.16847 44.4098 6.08347C44.4098 5.75797 44.4098 5.21547 44.085 5.10697Z" fill="black"/>
<path d="M46.1414 4.67192C45.9248 4.45492 45.7083 4.67191 45.6 4.88891C45.3834 5.86542 45.2751 6.95042 45.2751 7.92693C45.2751 8.36093 45.2751 8.90342 45.2751 9.33743C45.2751 9.87993 45.1668 10.4224 45.3834 10.9649C45.3834 11.0734 45.4917 11.2904 45.7083 11.2904C45.9248 11.2904 45.9248 11.0734 46.0331 10.9649C46.1414 10.5309 46.1414 9.98843 46.1414 9.55443C46.1414 9.12043 46.1414 8.68643 46.1414 8.14392C46.1414 7.27592 46.1414 6.51642 46.3579 5.64842C46.3579 5.32292 46.3579 4.88892 46.1414 4.67192Z" fill="black"/>
<path d="M47.9834 8.14253V4.77903C47.9834 4.56203 47.8751 4.01953 47.6586 4.01953C47.3337 4.01953 47.3337 4.56203 47.3337 4.77903V8.14253C47.3337 8.57653 47.2254 9.11903 47.5503 9.44453C47.6586 9.55303 47.7669 9.55303 47.8752 9.44453C48.0917 9.11903 47.9834 8.57653 47.9834 8.14253Z" fill="black"/>
<path d="M51.6642 6.30021V4.5642C51.6642 4.3472 51.5559 3.80469 51.2311 3.80469C50.9062 3.80469 50.9063 4.3472 50.9063 4.5642V6.30021C50.9063 6.95121 50.9063 7.49371 51.0145 8.14472C51.0145 8.25322 51.1228 8.57872 51.3393 8.57872C51.5559 8.57872 51.6642 8.25322 51.6642 8.14472C51.6642 7.49371 51.6642 6.95121 51.6642 6.30021Z" fill="black"/>
<path d="M53.1803 3.58594C52.8555 3.58594 52.8555 4.12844 52.8555 4.34544V6.51545C52.8555 6.84095 52.8555 7.27495 52.8555 7.60046C52.8555 7.92596 52.8555 8.25146 52.9638 8.46846C52.9638 8.57696 53.072 8.79396 53.1803 8.79396C53.2886 8.79396 53.3969 8.57696 53.3969 8.46846C53.5051 8.25146 53.5051 7.92596 53.5051 7.60046C53.5051 7.27495 53.5051 6.84095 53.5051 6.51545V4.34544C53.6134 4.12844 53.5052 3.58594 53.1803 3.58594Z" fill="black"/>
<path d="M57.5108 6.84116V4.12865C57.5108 3.91165 57.4025 3.36914 57.1859 3.36914C56.861 3.36914 56.8611 3.91165 56.8611 4.12865V6.84116C56.8611 7.70917 56.7528 8.68567 56.9693 9.66217C56.9693 9.77067 57.0776 10.0962 57.2942 10.0962C57.5107 10.0962 57.5108 9.77067 57.619 9.66217C57.5108 8.68567 57.5108 7.70917 57.5108 6.84116Z" fill="black"/>
<path d="M59.8935 3.58744C59.5687 3.47894 59.4604 3.91294 59.4604 4.12994C59.1356 5.54045 59.0273 6.95095 59.0273 8.25295C59.0273 9.01246 59.0274 9.66346 59.1356 10.423C59.2439 10.9655 59.2439 11.8335 59.677 12.2675C60.0018 12.593 60.1101 11.8335 60.1101 11.6165C60.1101 11.074 59.8935 10.5315 59.8935 9.88046C59.7852 9.22946 59.7853 8.57846 59.7853 8.03596C59.7853 6.84245 60.0018 5.64894 60.2184 4.45544C60.1101 4.23844 60.1101 3.69594 59.8935 3.58744Z" fill="black"/>
<path d="M62.0595 11.1828V5.54075C62.0595 5.32375 61.9513 4.78125 61.7347 4.78125C61.4099 4.78125 61.4099 5.32375 61.4099 5.54075V11.0743C61.4099 11.7253 61.3016 12.3763 61.6264 12.9188C61.7347 13.1358 61.9512 13.1358 62.0595 12.9188C62.1678 12.4848 62.0595 11.7253 62.0595 11.1828Z" fill="black"/>
<path d="M64.3319 11.724C64.2236 11.3985 64.2236 11.073 64.2236 10.856C64.1154 10.3135 64.1154 9.77102 64.1154 9.22852C64.1154 8.25201 64.2236 7.16702 64.4402 6.19051C64.5485 5.86501 64.5485 5.43101 64.3319 5.10551C64.1154 4.88851 63.8988 5.10551 63.7905 5.32251C63.4657 6.51601 63.3574 7.81801 63.3574 9.12002C63.3574 9.77102 63.3574 10.422 63.4657 11.073C63.574 11.724 63.574 12.375 63.8988 12.9175C64.0071 13.1345 64.1154 13.1345 64.3319 13.026C64.5485 12.809 64.5485 12.4835 64.4402 12.2665C64.4402 12.158 64.3319 11.941 64.3319 11.724Z" fill="black"/>
<path d="M93.6757 28.6491C93.784 28.3236 93.784 27.9981 93.6757 27.8896C93.5674 27.7811 93.4591 27.6726 93.4591 27.4556C92.1598 22.7901 89.0199 18.5586 85.1219 15.8461C83.2812 14.6526 81.0075 13.5676 78.7337 13.7846C77.2178 13.8931 76.0267 14.5441 75.0523 15.4121C74.944 12.4826 74.0778 9.66158 72.2371 7.27457C69.855 4.23656 66.1737 2.28355 62.4923 1.30705C54.4799 -0.971455 44.6268 -0.103453 37.9137 5.10456C34.5571 7.70857 32.2834 11.3976 31.6337 15.5206C28.1689 13.0251 24.7041 10.4211 20.6978 9.01057C16.2585 7.49157 11.711 8.14257 7.70475 10.5296C0.883381 14.5441 -0.957314 22.4646 1.6413 29.6256C2.94061 33.4231 5.32267 36.6781 8.02957 39.7162C10.3034 42.2117 13.0103 44.5987 16.1503 45.9007C22.7551 48.7217 29.5765 46.8772 36.2896 45.7922C40.2958 45.1412 44.302 44.8157 48.3082 44.9242C49.1744 44.9242 50.0406 45.0327 50.9068 45.1412C51.0151 45.3582 51.2316 45.4667 51.4482 45.3582C51.5564 45.3582 51.6647 45.3582 51.773 45.2497C52.5309 45.3582 53.2888 45.5752 54.0468 45.7922C54.0468 45.6837 54.0468 45.5752 53.9385 45.5752C54.4799 45.7922 55.0213 46.0092 55.4544 46.1177C56.6454 46.6602 57.8364 47.0942 59.0275 47.4197C61.9509 48.1792 65.0909 48.6132 68.0143 48.8302C69.0971 48.9387 70.2881 48.8302 71.3709 48.7217C73.2116 48.7217 75.1606 48.6132 77.1095 48.2877C78.9502 48.3962 81.0074 48.6132 82.3068 47.2027C82.3068 47.0942 82.415 47.0942 82.415 46.9857C84.9054 46.1177 87.2874 44.8157 89.3447 42.9712C93.1343 39.1737 94.7585 33.9656 93.6757 28.6491ZM88.3702 40.1502C88.1536 40.3672 87.9371 40.5842 87.7205 40.6927C86.5295 41.1267 85.0136 41.3437 83.9309 41.4522C81.6571 41.6692 79.4916 41.6692 77.2178 41.6692C75.9185 41.6692 74.6192 41.6692 73.4281 41.4522C71.9123 41.2352 70.3964 40.6927 68.9888 40.1502C66.1737 38.9567 63.5751 37.2206 60.8682 35.7016C58.053 34.1826 55.0212 33.4231 51.773 33.3146C48.5247 33.2061 45.3847 33.7486 42.2447 34.2911C36.6144 35.2676 30.8758 36.3526 25.1372 36.5697C20.2647 36.7867 15.1758 36.5696 10.5199 34.8336C10.0868 34.5081 9.54543 34.3996 9.11233 34.2911C8.46267 33.9656 7.70475 33.6401 7.05509 33.2061C6.94682 33.0976 6.73027 32.8806 6.622 32.7721C6.40545 32.5551 6.18889 32.3381 5.97234 32.2296C5.75578 32.1211 5.53923 32.2296 5.43096 32.4466V32.5551C5.32268 32.5551 5.21439 32.4466 5.21439 32.4466C3.48198 29.8426 2.18267 27.0216 1.96612 23.8751C1.96612 23.1156 1.96613 22.4646 2.0744 21.8136C2.18268 22.1391 2.39923 22.0306 2.61578 21.8136C2.83233 21.4881 2.72406 21.0541 2.61578 20.7286C2.29095 20.1861 2.72406 19.6436 3.15716 19.2096C3.48199 18.8841 3.80681 18.5586 4.13163 18.3416C4.23991 18.4501 4.34821 18.7756 4.56476 18.5586C4.88959 18.1246 5.21441 17.7991 5.53924 17.3651C6.08062 17.0396 6.62199 16.7141 7.05509 16.3886C7.37992 16.1716 7.81302 16.0631 8.13785 15.8461C8.67923 15.6291 9.32889 15.4121 9.87027 15.3036C12.0358 14.8696 14.3096 15.0866 16.4751 15.1951C17.3413 15.1951 18.0992 15.3036 18.9654 15.3036C19.182 15.5206 19.5068 15.7376 19.7234 15.9546C20.0482 16.1716 20.1565 15.8461 20.1565 15.4121C21.2392 15.5206 22.2137 15.6291 23.1882 15.8461C25.7868 16.2801 28.1689 17.2566 30.4427 18.5586C30.6592 18.6671 30.8758 18.3416 30.8758 17.9076C31.3089 18.2331 31.742 18.5586 32.0668 18.7756C32.6082 19.2096 32.933 18.0161 33.0413 17.6906C33.1496 15.6291 33.7992 13.6761 34.7737 12.0486V16.7141C34.7737 17.0396 34.7737 17.2566 34.7737 17.5821C34.7737 17.9076 34.7737 18.2331 34.9902 18.4501C35.0985 18.5586 35.2068 18.5586 35.3151 18.4501C35.5316 18.2331 35.5316 17.9076 35.5316 17.5821C35.5316 17.2566 35.5316 17.0396 35.5316 16.7141V11.6146C35.5316 11.5061 35.5316 11.2891 35.4234 11.0721C36.7227 9.22758 38.5633 7.70857 40.6206 6.51506C40.2958 8.35957 40.1875 10.3126 40.0792 12.1571C40.0792 12.5911 40.0792 13.0251 40.0792 13.3506C40.0792 13.5676 40.0792 13.7846 40.0792 14.0016V14.1101C40.0792 14.2186 40.1875 14.4356 40.1875 14.5441C40.5123 14.8696 40.6206 14.2186 40.7289 13.8931C40.7289 13.8931 40.7289 13.8931 40.7289 14.0016C40.7289 14.1101 40.7289 14.1101 40.7289 14.1101C40.7289 14.1101 40.7289 14.1101 40.7289 14.2186C40.7289 14.4356 40.7289 14.1101 40.7289 14.1101C40.7289 14.0016 40.7289 13.8931 40.7289 13.7846C40.7289 13.5676 40.7289 13.4591 40.7289 13.2421C40.7289 12.8081 40.7289 12.3741 40.7289 12.0486C40.8371 10.3126 40.8371 8.68507 41.162 6.94906C41.162 6.73206 41.162 6.40657 41.0537 6.18957C41.3785 5.97257 41.7033 5.86407 42.0282 5.64706C41.9199 5.86407 41.9199 6.08106 41.9199 6.29806C41.9199 7.60007 41.9199 8.79357 41.8116 10.0956C41.8116 10.7466 41.7033 11.2891 41.7033 11.9401C41.7033 12.5911 41.5951 13.2421 41.8116 13.8931C41.9199 14.3271 42.2447 14.3271 42.353 13.8931C42.4613 13.2421 42.4613 12.5911 42.4613 11.9401C42.4613 11.2891 42.5695 10.6381 42.5695 9.98708C42.6778 8.68507 42.6778 7.49157 42.6778 6.18957C42.6778 5.97257 42.5696 5.53856 42.353 5.43006C44.1937 4.56206 46.2509 3.91106 48.1999 3.47706C48.7413 3.36856 49.1744 3.26005 49.7157 3.26005C49.6075 3.36855 49.4992 3.47706 49.4992 3.58556C49.2827 4.34506 49.1744 5.10456 49.1744 5.86406C49.1744 6.18956 49.0661 6.62356 49.0661 6.94906C49.0661 7.38307 48.9578 7.92557 49.0661 8.35957C49.1744 8.68507 49.3909 8.79357 49.6075 8.46807C49.824 8.14257 49.824 7.60007 49.824 7.27457C49.824 6.94907 49.824 6.62357 49.9323 6.18957C49.9323 5.86407 50.0406 5.53856 50.0406 5.10456C50.0406 4.88756 50.1488 4.77906 50.1488 4.56206V4.45355C50.1488 4.34505 50.1488 4.23656 50.2571 4.12806C50.3654 3.80256 50.3654 3.36856 50.1488 3.04306L50.0406 2.93456C51.6647 2.71756 53.3971 2.60905 55.0212 2.60905C54.8047 2.82605 54.8047 3.26006 54.913 3.58556C55.0213 3.91106 55.0213 4.23656 55.1295 4.67056V4.77906C55.1295 4.88756 55.1295 4.88756 55.1295 4.99606C55.1295 5.21306 55.1295 5.43006 55.1295 5.53856C55.1295 5.86406 55.1295 6.29806 55.1295 6.62356C55.1295 7.05756 55.0213 7.60007 55.2378 7.92557C55.3461 8.14257 55.5626 8.14257 55.6709 7.92557C55.8875 7.49157 55.8875 6.94906 55.8875 6.51506C55.8875 6.08106 55.8875 5.75556 55.8875 5.32156C55.8875 4.45356 55.7792 3.58555 55.5626 2.71755C55.5626 2.60905 55.5627 2.60905 55.4544 2.50055C59.244 2.60905 63.1419 3.36856 66.3902 5.10456C66.1737 5.32156 66.1737 5.86407 66.282 6.18957C66.3902 6.40657 66.3902 6.51507 66.3902 6.84057C66.3902 7.16607 66.4985 7.49156 66.4985 7.70856C66.4985 8.25107 66.4985 8.90207 66.4985 9.55307C66.4985 10.0956 66.4985 10.7466 66.4985 11.2891C66.4985 11.7231 66.3902 12.4826 66.715 12.9166C66.8233 13.0251 66.9316 13.0251 67.0399 12.9166C67.3647 12.4826 67.2564 11.7231 67.2564 11.2891C67.2564 10.6381 67.2564 10.0956 67.2564 9.44458C67.2564 8.14257 67.2564 6.73206 66.9316 5.53856C67.5812 5.86406 68.1226 6.29807 68.7723 6.73207C68.5557 6.84057 68.4475 7.27457 68.4475 7.49157C68.4475 8.57657 68.5557 9.55307 68.5557 10.6381C68.5557 11.0721 68.664 11.5061 68.664 12.0486C68.664 12.5911 68.664 13.1336 68.7723 13.6761C68.8806 13.8931 69.0971 14.1101 69.2054 13.7846C69.4219 13.2421 69.4219 12.6996 69.4219 12.1571C69.4219 11.6146 69.3137 11.0721 69.3137 10.5296C69.2054 9.55308 69.2054 8.57657 69.2054 7.49157C69.2054 7.38307 69.2054 7.16606 69.0971 7.05756C69.4219 7.27456 69.7468 7.60007 70.0716 7.81707C70.5047 8.25107 70.9378 8.68507 71.3709 9.11907C71.2626 9.11907 71.1544 9.33608 71.1544 9.44458C70.8295 10.8551 70.9378 12.2656 71.0461 13.7846C71.0461 14.1101 71.0461 14.4356 71.0461 14.6526C71.0461 14.9781 70.9378 15.5206 71.1544 15.8461C71.2626 16.0631 71.3709 16.3886 71.6957 16.2801C71.804 16.1716 71.9123 16.0631 72.0206 15.9546C72.3454 15.8461 72.3454 14.9781 71.9123 14.8696H71.804C71.804 13.3506 71.3709 11.7231 71.804 10.2041C71.804 10.0956 71.9123 9.87857 71.804 9.66157C72.995 11.2891 73.6447 13.1336 73.6447 15.1951V15.0866C73.6447 14.9781 73.6447 14.8696 73.5364 14.7611C73.5364 14.5441 73.4281 14.3271 73.4281 14.1101C73.4281 14.0016 73.3199 13.7846 73.2116 13.6761C73.1033 13.5676 72.995 13.5676 72.8867 13.5676C72.5619 13.7846 72.5619 14.2186 72.6702 14.5441C72.6702 15.0866 72.7785 15.6291 72.995 16.0631C73.1033 16.2801 73.1033 16.4971 73.3199 16.8226C73.4282 16.9311 73.5364 17.0396 73.5364 17.2566C73.5364 17.4736 73.5364 17.6906 73.4281 17.7991C73.3198 18.4501 73.8612 20.5116 74.6192 19.3181C74.6192 19.7521 74.8357 20.0776 75.1605 19.8606C77.3261 17.7991 80.4661 18.5586 82.8481 19.7521C85.7716 21.1626 88.3702 23.2241 90.7523 25.5026C90.9688 25.7196 91.1854 25.9366 91.4019 26.1536C91.6185 26.5876 91.7267 26.9131 91.9433 27.3471C93.4592 32.3381 92.1599 36.6781 88.3702 40.1502Z" fill="black"/>
<path d="M25.2448 23.4423C25.2448 23.2253 25.2449 22.8998 25.1366 22.7913C25.0283 22.6828 24.92 22.5743 24.8117 22.7913C24.5952 23.0083 24.4869 23.4423 24.4869 23.7678C24.4869 24.0933 24.3786 24.5273 24.3786 24.8528C24.3786 24.9613 24.3786 25.1783 24.3786 25.2868V25.3953C24.3786 25.5038 24.3786 25.5038 24.3786 25.6123C24.3786 25.8293 24.3786 25.9378 24.2703 26.1548V26.2633V26.3718V26.4803C24.1621 26.8058 24.1621 27.2398 24.3786 27.5653C24.5952 27.7823 24.8117 27.5653 24.92 27.2398C25.1366 26.4803 25.1366 25.8293 25.2448 25.0698C25.2448 24.9613 25.2448 24.7443 25.2448 24.6358V24.5273C25.2448 24.4188 25.2448 24.3103 25.2448 24.3103C25.2448 24.2018 25.2448 24.2018 25.2448 24.0933V23.9848C25.2448 23.8763 25.2448 23.7678 25.3531 23.6593V23.5508C25.2448 23.5508 25.2448 23.2253 25.2448 23.4423Z" fill="black"/>
<path d="M28.4926 23.4427C28.3843 23.3342 28.276 23.3342 28.1677 23.4427C27.9512 23.6597 27.9512 24.2022 27.9512 24.5277C27.9512 24.7447 27.9512 24.9617 27.9512 25.1787V26.4807C27.9512 26.6977 27.9512 26.8062 28.0595 27.0232C28.0595 27.1317 28.1677 27.2402 28.276 27.2402C28.6009 27.2402 28.6008 26.6977 28.6008 26.4807V25.1787C28.6008 24.9617 28.6008 24.7447 28.6008 24.5277C28.7091 24.0937 28.7091 23.6597 28.4926 23.4427Z" fill="black"/>
<path d="M31.5243 24.5275C31.5243 24.419 31.416 24.0935 31.3077 24.0935C31.0912 24.0935 30.9829 24.3105 30.9829 24.419C30.8747 24.636 30.8746 24.853 30.8746 25.07C30.8746 25.287 30.8746 25.3955 30.7664 25.6125C30.7664 25.938 30.6581 26.372 30.6581 26.6975C30.6581 26.806 30.6581 27.023 30.6581 27.1315C28.3843 27.1315 26.1105 27.5655 23.8367 27.7825C23.4036 27.7825 22.9705 27.7825 22.5374 27.891C22.6457 27.674 22.754 27.3485 22.754 27.24V23.2255C22.754 22.7915 22.754 22.3575 22.6457 22.032C22.5374 21.815 22.3209 21.815 22.2126 22.032C21.9961 22.3575 22.1043 22.7915 22.1043 23.2255V27.1315C22.1043 27.3485 22.1043 27.674 22.3209 27.7825C21.3464 27.7825 20.2636 27.7825 19.2892 27.674C19.5057 25.8295 19.614 23.8765 19.5057 22.032C19.5057 21.815 19.3975 21.2725 19.1809 21.2725C18.8561 21.2725 18.8561 21.815 18.8561 22.032C18.7478 23.8765 18.8561 25.6125 18.6395 27.457V27.5655C17.8816 27.457 17.2319 27.1315 16.5823 26.806C16.474 26.806 16.474 26.6975 16.3657 26.6975C16.5823 26.589 16.6906 26.155 16.6906 25.938C16.6906 25.504 16.6906 25.1785 16.6906 24.7445C16.6906 24.636 16.6906 24.5275 16.6906 24.3105C16.6906 24.202 16.6906 24.202 16.6906 24.0935C16.6906 23.8765 16.6906 23.551 16.7988 23.334C16.7988 23.117 16.9071 22.9 16.9071 22.683V22.5745C16.9071 22.466 17.0154 22.3575 17.0154 22.249V22.1405C17.0154 22.1405 17.0154 22.032 17.1237 22.032C17.1237 22.032 17.2319 21.9235 17.2319 21.815C17.2319 21.815 17.3402 21.7065 17.2319 21.815C17.3402 21.7065 17.3402 21.7065 17.4485 21.598C17.5568 21.381 17.5568 20.8385 17.3402 20.6215C16.9071 20.1875 16.5823 20.8385 16.474 21.164C16.2575 21.7065 16.1492 22.249 16.0409 22.7915C15.9326 23.8765 15.8244 24.9615 15.8244 25.938C15.8244 26.0465 15.8244 26.2635 15.9326 26.4805C15.4995 26.155 15.0664 25.8295 14.7416 25.3955C14.8499 25.1785 14.9581 24.853 14.9581 24.7445C14.9581 24.0935 14.9581 23.334 14.9581 22.683C14.9581 22.466 14.9581 22.3575 14.9581 22.1405C14.9581 22.032 14.9581 21.9235 14.9581 21.815C14.9581 22.032 14.9581 21.7065 14.9581 21.7065C14.9581 21.7065 14.9581 21.7065 14.9581 21.598C15.0664 21.4895 15.0664 21.4895 15.0664 21.381C15.1747 21.0555 15.1747 20.6215 15.0664 20.296C15.0664 20.079 14.9582 19.862 14.8499 19.7535C14.7416 19.645 14.525 19.7535 14.525 19.9705C14.2002 20.73 14.2002 21.598 14.2002 22.466C14.2002 23.117 14.2002 23.8765 14.2002 24.636C14.092 24.419 13.9837 24.202 13.8754 23.985C13.7671 23.6595 13.4423 23.768 13.334 23.985C13.1175 24.3105 13.2257 24.7445 13.334 25.07C15.6078 30.3865 22.5374 29.5185 27.1933 29.0845C28.6009 28.976 29.9002 28.759 31.3077 28.759C31.7408 28.759 31.7409 27.891 31.6326 27.457C31.6326 27.3485 31.7408 27.24 31.7408 27.24C31.7408 26.9145 31.8491 26.4805 31.8491 26.155C31.8491 25.938 31.8491 25.8295 31.8491 25.6125C31.5243 25.07 31.5243 24.853 31.5243 24.5275Z" fill="black"/>
<path d="M35.0975 27.0225C35.0975 26.914 35.0975 26.914 34.9892 26.8055C34.9892 26.697 34.881 26.697 34.881 26.5885C34.881 26.48 34.881 26.48 34.7727 26.3715C34.7727 26.3715 34.7727 26.3715 34.7727 26.263C34.7727 26.1545 34.7727 26.1545 34.7727 26.046C34.7727 26.046 34.7727 25.9375 34.6644 25.9375C34.6644 25.9375 34.6644 25.9375 34.5561 25.9375H34.4479C34.4479 25.9375 34.4479 25.9375 34.3396 25.9375L34.2313 26.046C34.2313 26.1545 34.123 26.263 34.123 26.3715C34.123 26.5885 34.1231 26.8055 34.2313 27.0225C34.2313 27.131 34.3396 27.348 34.4479 27.4565C34.4479 27.565 34.5561 27.565 34.6644 27.565C34.7727 27.565 34.7727 27.4565 34.881 27.4565C34.881 27.348 34.9892 27.2395 34.9892 27.131C35.0975 27.131 35.0975 27.0225 35.0975 27.0225Z" fill="black"/>
<path d="M32.8244 25.2866C32.9326 24.9611 32.9326 24.7441 32.9326 24.4186C32.9326 24.2016 32.9326 24.0931 32.8244 23.8761C32.7161 23.7676 32.6078 23.6591 32.4995 23.7676C32.283 23.9846 32.1747 24.3101 32.0664 24.5271C31.9582 24.7441 31.9582 25.0696 31.9582 25.2866C31.8499 25.8291 31.8499 26.3716 31.9582 27.0226C31.9582 27.1311 32.0665 27.3481 32.1747 27.4566C32.283 27.5651 32.3913 27.5651 32.4995 27.5651C32.8244 27.3481 32.8244 26.9141 32.7161 26.5886C32.7161 26.4801 32.7161 26.3716 32.7161 26.2631V26.1546C32.7161 26.0461 32.7161 25.9376 32.7161 25.8291V25.7206C32.7161 25.6121 32.7161 25.5036 32.7161 25.3951C32.7161 25.2866 32.8244 25.1781 32.7161 25.3951C32.8244 25.3951 32.8244 25.3951 32.8244 25.2866Z" fill="black"/>
<path d="M61.4083 27.7824C61.4083 27.4569 61.4083 27.2399 61.3 26.9144C61.3 26.8059 61.3 26.8059 61.3 26.6974C61.3 26.5889 61.3 26.3719 61.3 26.2634C61.3 26.0464 61.1917 25.5039 60.9752 25.5039C60.6504 25.5039 60.6504 26.0464 60.6504 26.2634C60.6504 27.4569 60.8669 28.6504 60.9752 29.8439C60.9752 29.9524 61.0835 30.2779 61.1917 30.2779C61.4083 30.2779 61.4083 29.9524 61.4083 29.8439C61.5166 29.0844 61.5166 28.4334 61.4083 27.7824Z" fill="black"/>
<path d="M68.5545 29.9511C68.4462 28.8661 68.4462 27.6726 68.338 26.5876C68.338 26.3706 68.2297 25.8281 68.0131 25.8281C67.6883 25.8281 67.5801 26.3706 67.5801 26.5876C67.5801 27.7811 67.6884 28.8661 67.7966 29.9511C67.9049 31.0361 67.9049 32.1211 68.0131 33.2061C68.0131 33.3146 68.1214 33.6402 68.2297 33.6402C68.4462 33.6402 68.4463 33.4231 68.4463 33.2061C68.6628 32.2296 68.5545 31.0361 68.5545 29.9511Z" fill="black"/>
<path d="M71.1533 33.3153C71.045 32.7728 70.9367 32.3388 70.9367 31.7963C70.9367 31.2538 70.9367 30.7113 70.9367 30.1688C70.9367 29.0838 71.045 27.9988 71.1533 26.9138C71.1533 26.6968 71.045 26.1543 70.8285 26.1543C70.5036 26.1543 70.5037 26.6968 70.5037 26.9138C70.5037 28.1073 70.3954 29.3008 70.2871 30.4943C70.2871 31.1453 70.2871 31.7963 70.3954 32.3388C70.5037 32.7728 70.6119 33.6408 70.9367 33.9664C71.045 34.1834 71.1533 33.5323 71.1533 33.3153Z" fill="black"/>
<path d="M74.0778 32.9898C74.0778 32.7728 73.9695 32.5558 73.9695 32.3388C73.9695 32.2303 73.9696 31.9048 73.8613 31.9048C73.8613 31.4708 73.8613 31.0368 73.8613 30.6028C73.8613 29.6263 73.8613 28.6498 73.6447 27.7818C73.6447 27.5648 73.3198 27.2393 73.1032 27.4563C72.8867 27.6733 72.8867 28.2158 72.995 28.5413C73.2115 29.3008 73.1032 30.1688 73.1032 30.9283C73.1032 31.3623 73.1033 31.9048 73.2115 32.3388C73.3198 32.7728 73.3198 33.2068 73.6447 33.6408C73.8613 34.0748 74.0778 33.3153 74.0778 32.9898Z" fill="black"/>
<path d="M76.4597 28.8672C76.1348 28.8672 76.1348 29.4097 76.1348 29.6267C76.1348 30.1692 76.1348 30.8202 76.1348 31.3627C76.1348 32.0137 76.1348 32.6647 76.2431 33.3157C76.2431 33.4242 76.3514 33.6412 76.4597 33.6412C76.5679 33.6412 76.6762 33.4242 76.6762 33.3157C76.7845 32.6647 76.7845 32.0137 76.7845 31.3627C76.7845 30.8202 76.7845 30.1692 76.7845 29.6267C76.7845 29.3012 76.7845 28.8672 76.4597 28.8672Z" fill="black"/>
<path d="M78.4086 30.6032C78.4086 30.4947 78.3003 30.1692 78.0838 30.2777C77.8672 30.3862 77.8672 30.7117 77.8672 30.9287C77.9755 31.7967 78.192 32.6647 78.4086 33.4242C78.4086 33.5327 78.5169 33.7497 78.6252 33.6412C78.7335 33.5327 78.7335 33.3157 78.7335 33.0987C78.6252 32.2307 78.5169 31.4712 78.4086 30.6032Z" fill="black"/>
<path d="M81.2239 32.9907C81.1156 32.5567 81.1156 32.2312 81.0074 31.7972C81.2239 31.5802 81.1156 30.8207 81.1156 30.7122C80.2494 29.3017 78.7336 28.1082 77.326 27.2401C75.9184 26.2636 74.2943 25.5041 72.6701 24.8531C69.4219 23.6596 65.8488 23.1171 62.3839 23.4426C60.435 23.6596 58.5943 24.0936 56.7536 24.8531C56.3205 25.0701 56.4288 26.4807 56.9701 26.2637C57.0784 26.2637 57.1867 26.1551 57.2949 26.1551C57.2949 26.2636 57.2949 26.3722 57.2949 26.4807C57.2949 27.1317 57.1867 27.7827 57.2949 28.4337C57.2949 28.7592 57.4032 29.0847 57.5115 29.3017C57.6198 29.5187 57.8363 29.7357 58.1612 29.7357C58.3777 29.7357 58.3777 29.5187 58.486 29.3017C58.486 29.0847 58.486 28.8677 58.3777 28.6507L58.2694 28.5422C58.2694 28.4337 58.1612 28.4337 58.1612 28.3252V28.2167C58.1612 27.6742 58.1612 27.1316 58.1612 26.6976C58.1612 26.4806 58.1612 26.2636 58.0529 26.1551C58.486 26.0466 59.0274 25.8297 59.4605 25.7212C59.4605 25.8297 59.3522 25.9381 59.3522 26.0466C59.2439 26.5891 59.2439 27.1317 59.2439 27.6742C59.2439 27.9997 59.2439 28.2167 59.2439 28.5422C59.2439 28.7592 59.3522 29.3017 59.5687 29.4102C59.677 29.5187 59.7853 29.3017 59.8936 29.3017C60.0018 29.0847 60.0018 28.6507 60.0018 28.3252C60.0018 28.1082 60.0018 27.8912 60.0018 27.5657C60.0018 27.3487 60.0018 27.1317 60.0018 26.9147C60.0018 26.9147 60.0018 26.9147 60.0018 26.8062V26.6976C60.0018 26.5891 60.0018 26.4807 60.0018 26.3722C60.0018 26.1552 60.0018 25.9382 60.0018 25.8297C60.0018 25.7212 59.8936 25.7211 59.8936 25.6126C61.3011 25.2871 62.7088 25.0701 64.1163 25.0701C64.0081 25.1786 64.0081 25.2871 63.8998 25.3956C63.6832 26.2637 63.4667 27.1317 63.4667 27.9997C63.3584 28.8677 63.3584 29.8442 63.4667 30.7122C63.4667 30.8207 63.5749 31.1462 63.7915 31.1462C64.0081 31.1462 64.0081 30.7122 64.0081 30.6037C64.0081 29.8442 64.0081 29.0847 64.1163 28.3252C64.2246 27.5656 64.3329 26.8061 64.5494 26.1551C64.6577 25.8296 64.6577 25.3956 64.4412 25.0701C64.766 25.0701 65.1991 25.0701 65.5239 25.0701C65.4156 25.2871 65.3074 25.6127 65.3074 25.7212C65.3074 26.6977 65.1991 27.7827 65.1991 28.7592C65.1991 29.3017 65.1991 29.8442 65.3074 30.3867C65.3074 30.6037 65.4156 30.9292 65.5239 31.1462C65.6322 31.3632 65.6322 31.6887 65.957 31.7972C66.2818 31.9057 66.2819 31.3632 66.2819 31.2547C66.2819 30.8207 66.0653 30.3867 66.0653 29.8442C65.957 29.4102 65.957 28.9762 66.0653 28.5422C66.0653 27.5657 66.1736 26.5892 66.1736 25.7212C66.1736 25.5042 66.1736 25.1786 65.957 25.0701C69.7467 25.2871 73.428 26.3722 76.6763 28.4337C77.4343 28.9762 78.1922 29.5187 78.9501 30.0612C79.4915 30.4952 79.9246 31.0377 80.466 31.5802C80.466 31.6887 80.466 31.9057 80.466 32.0142C80.5743 32.4482 80.6825 32.9907 80.7908 33.4247C80.7908 33.6417 80.8991 33.8587 80.8991 34.1842C80.8991 34.2927 80.8991 34.4012 80.8991 34.5097C80.8991 34.6182 80.8991 34.6182 80.8991 34.7267C80.8991 34.8352 80.8991 34.8352 80.8991 34.9437C80.8991 35.0522 80.8991 35.0522 80.8991 34.9437C80.8991 35.1607 81.0074 35.4862 81.2239 35.3777C81.4405 35.2692 81.5487 34.9437 81.5487 34.7267C81.4405 34.0757 81.3322 33.5332 81.2239 32.9907Z" fill="black"/>
<path d="M54.2635 17.4751C52.2062 16.4986 49.8242 17.6921 48.2 18.9941C46.4676 20.4046 44.9518 22.3576 44.627 24.5276C44.627 24.7446 44.6269 25.2871 44.8435 25.5041C45.1683 25.6126 45.2766 25.1786 45.2766 24.9616C45.6014 23.1171 47.1173 21.3811 48.5248 20.2961C50.0407 19.1026 52.0979 18.2346 53.9386 18.8856C54.5883 19.1026 54.6966 17.6921 54.2635 17.4751Z" fill="black"/>
</svg>
