<svg width="110" height="75" viewBox="0 0 110 75" fill="none" xmlns="http://www.w3.org/2000/svg">
<path d="M30.6425 22.9273C30.6425 22.9273 15.7005 1.66128 44.177 3.50579C44.177 3.50579 50.6735 1.33578 63.1252 13.3793C63.1252 13.3793 84.9969 -4.30623 95.0666 14.1388C95.0666 14.1388 100.047 30.0884 86.2962 30.3054C86.2962 30.3054 105.136 30.1969 104.811 43.1084C104.811 43.1084 100.372 55.0434 76.5514 59.058C76.5514 59.058 54.6797 74.248 43.0942 61.7705C43.0942 61.7705 21.8722 68.823 22.197 49.4014C22.197 49.4014 -7.57879 51.3544 3.14051 29.7629C3.14051 29.7629 9.20395 21.6253 26.9612 22.2764L30.6425 22.9273Z" fill="white"/>
<path d="M53.7041 59.925V59.8165C53.7041 59.708 53.7041 59.5995 53.5959 59.491C53.5959 59.3825 53.4876 59.274 53.4876 59.1655C53.3793 58.9485 53.3793 58.623 53.3793 58.406C53.271 57.6465 53.271 56.887 53.271 56.1275C53.271 54.6085 53.3793 52.981 53.271 51.462C53.271 51.245 53.0545 50.811 52.8379 50.9195C52.5131 51.028 52.5131 51.5705 52.6214 51.896C52.6214 51.896 52.6214 52.113 52.6214 52.2215C52.6214 52.4385 52.6214 52.547 52.6214 52.764C52.6214 53.0895 52.6214 53.5235 52.6214 53.849C52.6214 54.717 52.6214 55.585 52.6214 56.3445C52.6214 57.104 52.6214 57.972 52.7297 58.7315C52.8379 59.274 52.8379 60.2505 53.271 60.576C53.3793 60.6845 53.3793 60.6845 53.4876 60.6845H53.3793C53.7041 60.9015 53.8124 60.142 53.7041 59.925Z" fill="black"/>
<path d="M97.8812 44.7344C97.6646 44.7344 97.6646 45.3854 97.8812 45.3854C98.0977 45.3854 98.0977 44.7344 97.8812 44.7344Z" fill="black"/>
<path d="M42.1193 30.4141C42.011 30.5224 42.011 30.5224 42.1193 30.4141V30.4141Z" fill="black"/>
<path d="M59.3354 31.6062C59.0106 31.3892 58.6857 31.3892 58.3609 31.2807C58.3609 31.2807 58.3609 31.2807 58.3609 31.1722C58.3609 30.9552 58.4692 30.8467 58.4692 30.6297C58.4692 30.5212 58.5775 30.4127 58.5775 30.3042C58.5775 30.3042 58.5775 30.1957 58.6857 30.1957C58.794 29.9787 58.9023 29.7617 58.9023 29.5447C58.9023 29.3277 58.9023 29.2192 58.9023 29.0022C58.9023 28.8937 58.794 28.7852 58.6857 28.7852C58.3609 29.1107 58.1444 29.5447 58.0361 29.9787C57.9278 30.3042 57.8195 30.7382 57.7113 31.1722C57.2782 31.1722 56.9533 31.0637 56.5202 31.0637C56.3037 31.0637 56.0871 31.0637 55.8706 31.0637C55.8706 30.8467 55.8706 30.7382 55.9788 30.5212V30.4127V30.3042C55.9788 30.1957 55.9788 30.0872 56.0871 29.9787C56.0871 29.8702 56.0871 29.7617 56.0871 29.6532C56.0871 29.5447 56.0871 29.4362 55.9788 29.4362C55.8706 29.3277 55.7623 29.4362 55.654 29.5447C55.5457 29.9787 55.4375 30.4127 55.3292 30.8467V30.9552C54.7878 30.9552 54.2464 30.9552 53.7051 31.0637C53.7051 30.9552 53.5968 30.8467 53.5968 30.7382V30.6297V30.5212V30.4127C53.5968 30.4127 53.5968 30.3042 53.7051 30.3042C53.8133 30.1957 53.8133 30.1957 53.9216 30.0872C54.1382 29.8702 54.1382 29.1107 53.7051 29.2192C53.272 29.3277 52.9471 29.8702 52.9471 30.4127C52.9471 30.7382 52.9471 31.0637 53.0554 31.3892C52.4057 31.4977 51.7561 31.6062 51.1064 31.7147C51.323 31.6062 51.323 31.3892 51.323 31.1722C51.323 30.9552 51.323 30.6297 51.323 30.4127C51.323 30.0872 51.323 29.8702 51.323 29.5447C51.323 29.4362 51.323 29.3277 51.2147 29.3277L51.1064 29.2192C50.9982 29.2192 50.8899 29.4362 50.8899 29.5447C50.8899 29.8702 50.8899 30.0872 50.8899 30.4127C50.8899 30.6297 50.8899 30.9552 50.8899 31.1722C50.8899 31.2807 50.8899 31.3892 50.9982 31.4977C50.9982 31.6062 51.1064 31.6062 51.2147 31.6062C50.6733 31.7147 50.132 31.8232 49.6989 31.9317C49.8071 31.6062 49.9154 31.2807 49.9154 30.9552C49.9154 30.7382 50.0237 30.4127 50.0237 30.1957C50.0237 29.8702 50.132 29.4362 49.9154 29.1107C49.8071 29.0022 49.6989 28.8937 49.5906 29.0022C49.374 29.2192 49.374 29.5447 49.374 29.8702C49.374 30.0872 49.2658 30.3042 49.2658 30.6297V30.7382V30.8467C49.2658 30.9552 49.2658 31.0637 49.1575 31.1722C49.0492 31.3892 49.0492 31.6062 48.9409 31.9317V32.0402C48.5078 32.1487 48.0747 32.2572 47.6416 32.4742C47.4251 32.5827 47.2085 32.6912 46.8837 32.6912C46.8837 32.5827 46.8837 32.4742 46.7754 32.2572C46.7754 32.1487 46.7754 31.9317 46.7754 31.8232C46.7754 31.8232 46.7754 31.8232 46.7754 31.7147C46.7754 31.6062 46.7754 31.6062 46.7754 31.4977C46.7754 31.3892 46.7754 31.1722 46.7754 31.0637V30.9552C46.7754 30.9552 46.7754 30.9552 46.7754 30.8467C46.7754 30.7382 46.7754 30.7382 46.7754 30.6297C46.7754 30.5212 46.8837 30.4127 46.7754 30.6297C46.8837 30.4127 46.8837 29.9787 46.6671 29.7617C46.4506 29.5447 46.1258 30.0872 46.1258 30.3042C46.0175 30.6297 46.0175 31.0637 46.0175 31.4977C46.0175 32.0402 46.1258 32.5827 46.1258 33.1252C45.6927 33.3422 45.1513 33.5592 44.7182 33.7762C44.7182 33.6677 44.7182 33.5592 44.7182 33.5592C44.7182 33.4507 44.6099 33.3422 44.6099 33.2337C44.6099 33.1252 44.6099 33.1252 44.6099 33.0167C44.6099 32.9082 44.6099 32.7997 44.6099 32.6912C44.6099 32.6912 44.6099 32.6912 44.6099 32.5827V32.4742C44.6099 32.3657 44.6099 32.3657 44.6099 32.2572V32.1487C44.6099 32.0402 44.6099 32.0402 44.6099 32.1487C44.6099 32.0402 44.6099 31.9317 44.6099 31.8232C44.6099 31.7147 44.6099 31.7147 44.6099 31.6062C44.6099 31.6062 44.6099 31.3892 44.6099 31.6062L44.7182 31.2807C44.7182 31.3892 44.7182 31.0637 44.7182 31.0637C44.7182 30.8467 44.7182 30.6297 44.6099 30.4127C44.5016 30.3042 44.3933 30.1957 44.2851 30.4127C44.0685 30.6297 43.9602 30.9552 43.9602 31.2807C43.852 31.6062 43.852 32.0402 43.852 32.3657C43.852 33.0167 43.9602 33.5592 44.1768 34.1017C43.6354 34.3187 43.094 34.6442 42.6609 34.9697C42.5527 34.2102 42.4444 33.5592 42.4444 32.7997C42.4444 32.6912 42.4444 32.6912 42.4444 32.6912C42.4444 32.6912 42.4444 32.6912 42.4444 32.5827C42.4444 32.4742 42.4444 32.3657 42.4444 32.2572C42.4444 32.1487 42.4444 32.0402 42.4444 32.0402C42.4444 32.0402 42.4444 32.0402 42.4444 31.9317C42.4444 31.8232 42.4444 31.8232 42.4444 31.7147V31.6062V31.4977C42.5527 31.2807 42.5527 31.0637 42.5527 30.8467C42.5527 30.7382 42.4444 30.4127 42.2278 30.4127H42.1196H42.0113C41.903 30.4127 41.903 30.5212 41.903 30.5212C41.6865 30.7382 41.6865 30.9552 41.5782 31.1722C41.4699 31.6062 41.4699 32.0402 41.5782 32.4742C41.5782 33.3422 41.7947 34.2102 41.903 35.0782C41.903 35.0782 41.903 35.0782 41.903 35.1867C41.3616 35.5122 40.8202 35.9462 40.3871 36.3802C40.1706 35.6207 39.954 34.8612 39.8458 34.2102C39.7375 33.5592 39.6292 32.7997 39.4127 32.1487C39.5209 31.9317 39.5209 31.4977 39.4127 31.2807C39.3044 31.1722 39.1961 30.8467 38.9796 30.8467C38.6547 30.8467 38.5465 31.3892 38.5465 31.6062C38.5465 32.0402 38.763 32.3657 38.8713 32.7997C38.9796 33.1252 38.9796 33.4507 39.0878 33.6677C39.3044 34.7527 39.5209 35.9462 39.8458 37.0312C39.3044 37.5737 38.763 38.1162 38.2216 38.7672C38.1134 38.8757 38.0051 38.9842 38.0051 39.0927V38.9842C38.0051 38.8757 38.0051 38.7672 37.8968 38.6587C37.8968 38.4417 37.7885 38.1162 37.7885 37.8992C37.7885 37.7907 37.7885 37.7907 37.7885 37.6822C37.7885 37.5737 37.7885 37.3567 37.7885 37.2482C37.7885 36.9227 37.7885 36.7057 37.7885 36.3802C37.7885 35.8377 37.7885 35.4037 37.7885 34.8612C37.7885 34.6442 37.7885 34.3187 37.7885 34.1017C37.7885 34.1017 37.6803 33.7762 37.7885 33.9932V33.8847C37.7885 33.7762 37.7885 33.6677 37.6803 33.5592C37.572 33.2337 37.2471 33.2337 37.1389 33.5592C37.1389 33.6677 37.1389 33.7762 37.0306 33.8847C37.0306 33.9932 37.0306 33.9932 37.0306 33.8847C37.0306 33.9932 37.0306 34.1017 36.9223 34.1017C36.9223 34.3187 36.9223 34.6442 36.9223 34.8612C36.9223 35.4037 36.9223 35.9462 36.9223 36.4887C36.9223 37.6822 36.9223 38.8757 37.2472 39.9607V40.0692C36.7058 40.9372 36.0561 41.8052 35.2982 42.3477C35.4065 42.1307 35.4065 41.8052 35.4065 41.5882C35.2982 40.3947 34.8651 39.4182 34.432 38.3332C34.2154 37.8992 33.9989 37.3567 33.8906 36.9227C33.7823 36.7057 33.7823 36.4887 33.7823 36.3802C33.9989 36.3802 34.1072 36.3802 34.3237 36.3802C34.7568 36.3802 34.6485 35.4037 34.432 35.2952C34.1072 35.0782 33.7823 35.0782 33.4575 34.8612C33.1327 34.6442 33.0244 35.1867 33.0244 35.4037C32.8078 36.5972 33.2409 37.8992 33.6741 38.9842C34.1072 39.9607 34.5403 40.9372 34.6485 42.1307C34.6485 42.3477 34.7568 42.6732 34.9734 42.6732C34.7568 42.7817 34.5403 42.8902 34.3237 42.9987C33.8906 43.2157 33.9989 44.6262 34.5403 44.4092C35.9478 43.8667 36.9223 42.3477 37.7885 41.1542C38.5465 40.1777 39.3044 39.2012 40.1706 38.4417C40.2789 38.4417 40.2789 38.4417 40.3871 38.3332C40.4954 38.2247 40.4954 38.2247 40.4954 38.1162C40.8202 37.7907 41.1451 37.5737 41.5782 37.2482C44.7182 34.8612 48.8327 33.4507 52.7306 32.9082C53.8133 32.6912 54.8961 32.6912 56.0871 32.6912C56.6285 32.6912 57.1699 32.7997 57.7113 32.7997C58.2526 32.9082 58.794 33.0167 59.3354 33.1252C59.7685 33.0167 59.6602 31.8232 59.3354 31.6062Z" fill="black"/>
<path d="M75.5763 25.5317C75.5763 25.4232 75.5763 25.3147 75.468 25.2062C75.468 25.0977 75.3597 25.0977 75.2515 25.0977C75.0349 25.0977 74.9266 25.4232 74.9266 25.5317C74.8184 25.9657 74.8184 26.5082 74.8184 26.9422C74.8184 27.0507 74.8184 27.2677 74.9266 27.4847C74.9266 27.5932 75.0349 27.7017 75.1432 27.7017C75.2515 27.7017 75.3597 27.5932 75.3597 27.4847C75.468 27.3762 75.468 27.1592 75.468 26.9422C75.5763 26.5082 75.5763 26.0742 75.5763 25.5317Z" fill="black"/>
<path d="M74.8179 8.92969C74.493 8.92969 74.3848 9.47219 74.3848 9.68919V11.4252C74.3848 11.7507 74.3848 11.9677 74.3848 12.2932C74.3848 12.6187 74.3848 13.0527 74.493 13.3782C74.493 13.4867 74.6013 13.7037 74.8179 13.7037C74.9261 13.7037 75.0344 13.4867 75.1427 13.3782C75.251 13.0527 75.251 12.7272 75.251 12.4017C75.251 12.0762 75.251 11.8592 75.251 11.5337V9.79769C75.1427 9.47219 75.1427 8.92969 74.8179 8.92969Z" fill="black"/>
<path d="M85.4296 12.2931C85.4296 12.1846 85.4296 12.0761 85.4296 11.9676C85.4296 11.6421 85.4296 11.2081 85.3213 10.8826C85.3213 10.2316 85.213 9.58064 85.1047 9.03814C85.1047 8.82114 84.8882 8.38714 84.6716 8.49564C84.4551 8.60414 84.4551 9.14665 84.4551 9.36365C84.5634 10.0146 84.5634 10.5571 84.6716 11.2081C84.6716 11.5336 84.6716 11.7507 84.7799 12.0762V12.1847C84.7799 12.2932 84.7799 12.1847 84.7799 12.0762C84.7799 12.1847 84.7799 12.2932 84.7799 12.4017C84.7799 12.6187 84.8882 12.7271 84.8882 12.8356C84.9965 12.9441 85.1047 13.0527 85.213 12.9442C85.213 12.8357 85.3213 12.8357 85.3213 12.7272C85.4296 12.5102 85.4296 12.4016 85.4296 12.2931Z" fill="black"/>
<path d="M88.3522 9.58203C88.1357 9.58203 88.1357 10.016 88.1357 10.1245C88.1357 10.233 88.1357 10.233 88.1357 10.3415V10.45C88.1357 10.5585 88.1357 10.7755 88.1357 10.884C88.1357 11.101 88.1357 11.2095 88.0274 11.4265C88.0274 11.535 88.0274 11.535 88.0274 11.6435V11.752C87.9192 12.0775 87.9191 12.2945 87.8109 12.62V12.7285C87.8109 12.7285 87.8109 12.837 87.7026 12.837C87.7026 12.837 87.7026 12.9455 87.5943 12.9455C87.5943 12.837 87.5943 12.9455 87.5943 12.9455C87.3778 13.1625 87.4861 13.4881 87.4861 13.7051C87.4861 13.9221 87.7026 14.0305 87.8109 13.922C88.0274 13.705 88.0274 13.488 88.1357 13.271C88.244 12.9455 88.3522 12.62 88.3522 12.403C88.4605 11.6435 88.6771 10.9925 88.6771 10.233C88.5688 10.016 88.5688 9.58203 88.3522 9.58203Z" fill="black"/>
<path d="M92.034 12.8361C92.034 12.7276 91.9257 12.6191 91.8174 12.6191C91.7091 12.6191 91.6009 12.7276 91.6009 12.8361C91.3843 13.3786 91.1677 13.8126 90.9512 14.3551C90.8429 14.6806 90.7346 15.1146 90.9512 15.4402C90.9512 15.5487 91.0595 15.7657 91.276 15.7657C91.3843 15.7657 91.4926 15.6572 91.6009 15.5486C91.7091 15.4401 91.7091 15.2232 91.7091 15.1147V15.0061C91.8174 14.6806 92.034 14.2466 92.1422 13.9211C92.2505 13.7041 92.2505 13.5956 92.2505 13.3786C92.2505 13.2701 92.1422 13.0531 92.034 12.8361Z" fill="black"/>
<path d="M93.333 15.3309C93.333 15.2224 93.2247 15.0054 93.1165 15.0054C92.7916 14.8969 92.6833 15.3309 92.6833 15.5479C92.6833 15.8734 92.5751 16.0904 92.5751 16.4159C92.5751 16.3074 92.5751 16.3074 92.5751 16.1989C92.5751 16.3074 92.4668 16.4159 92.4668 16.6329C92.4668 16.7414 92.4668 16.8499 92.4668 17.0669C92.4668 17.1754 92.4668 17.2839 92.4668 17.3924C92.4668 17.5009 92.5751 17.6094 92.5751 17.6094C92.5751 17.6094 92.6833 17.7179 92.6833 17.6094C92.7916 17.6094 92.7916 17.5009 92.8999 17.3924C93.0082 17.1754 93.1165 16.9584 93.1165 16.7414C93.2247 16.5244 93.2247 16.1989 93.2247 15.9819C93.4413 15.6564 93.4413 15.5479 93.333 15.3309Z" fill="black"/>
<path d="M109.792 44.7367C108.926 37.9012 103.621 31.2826 96.9074 29.8721C97.7736 28.4616 98.2067 26.7256 98.315 24.9896C98.315 24.4471 98.315 23.7961 98.315 23.2536C98.7481 21.7346 98.6399 20.1071 97.7736 18.6966L97.6654 18.5881C97.5571 18.0456 97.3405 17.5031 97.2323 16.9606C97.2323 16.4181 97.0157 15.7671 96.6909 15.4416C96.6909 15.4416 96.6909 15.4416 96.5826 15.3331C96.2578 14.5736 95.933 13.8141 95.6081 13.0546C94.8502 11.4271 93.8757 9.79957 92.5764 8.49757C91.1688 7.08706 89.4364 6.21906 87.5957 5.56806C82.8316 3.94055 77.5261 3.83205 72.762 5.35106C69.1889 6.43606 65.9406 8.38907 63.5585 11.1016C63.342 11.3186 63.1254 11.5356 62.9089 11.7526C57.4951 5.78506 50.0241 0.14304 41.9034 0.25154C37.7889 0.36004 33.2413 1.87904 29.6682 3.83205C26.42 5.56806 23.4965 8.17207 22.0889 11.6441C20.7896 15.0076 21.2227 18.3711 22.6303 21.5176C15.051 20.7581 5.7393 23.2536 1.94965 30.1976C-0.215863 34.1036 -0.324139 39.4202 1.3 43.6517C2.70758 47.3407 5.84758 49.9447 9.52895 51.3552C12.8855 52.7657 16.6751 53.3082 20.3565 53.4167C17.9745 56.9972 17.7579 61.9882 19.382 66.0027C20.5731 68.7153 22.6303 70.9938 25.4455 72.0788C28.6937 73.2723 32.2668 72.9468 35.4068 71.6448C38.3303 70.5598 40.9289 68.8238 43.2027 66.6537C44.0689 67.3048 44.6103 67.0878 45.0434 66.4368C48.1834 71.7533 54.7882 75.3338 60.8516 73.8148C64.533 72.9468 67.0233 70.1258 69.8385 67.7388C73.4116 64.7007 78.0675 63.7242 82.6151 63.0732C88.895 62.2052 95.4999 61.6627 101.347 58.9502C103.945 57.7567 106.327 56.1292 107.952 53.7422C109.684 51.3552 110.117 47.9917 109.792 44.7367ZM100.589 44.9537C100.589 44.9537 100.481 44.9537 100.589 44.9537C100.481 45.0622 100.372 45.1707 100.372 45.2792V45.3877C99.6143 46.4727 98.5316 47.3407 97.5571 47.9917C97.2323 48.2087 97.0157 48.4257 96.6909 48.5342C96.5826 48.4257 96.4743 48.5342 96.3661 48.6427C96.3661 48.5342 96.2578 48.5342 96.2578 48.4257C96.2578 48.3172 96.1495 48.3172 96.1495 48.2087C96.1495 48.3172 96.1495 48.2087 96.1495 48.1002C96.1495 47.9917 96.1495 47.9917 96.0412 47.8832V47.7747C96.0412 47.4492 95.933 47.2322 95.933 46.9067C95.933 46.7982 95.933 46.7982 95.933 46.6897C95.933 46.5812 95.933 46.3642 95.933 46.2557C95.933 46.0387 95.8247 45.4962 95.6081 45.4962C95.2833 45.4962 95.175 46.0387 95.2833 46.2557C95.2833 47.0152 95.3916 47.7747 95.4998 48.5342C95.4998 48.7512 95.6081 48.9682 95.7164 49.0767C95.0667 49.4022 94.4171 49.6192 93.7674 49.8362C93.6592 49.5107 93.5509 49.0767 93.5509 48.7512C93.4426 47.9917 93.4426 47.2322 93.5509 46.4727C93.5509 44.9537 93.6592 43.3262 93.1178 41.8072C93.0095 41.5902 92.793 41.2647 92.5764 41.5902C92.3599 41.8072 92.3599 42.3497 92.4681 42.6752C92.9012 44.1942 92.793 45.7132 92.793 47.2322C92.793 47.9917 92.793 48.8597 92.9012 49.6192C92.9012 49.7277 92.9012 49.9447 93.0095 50.1617C92.6847 50.2702 92.3599 50.2702 92.035 50.3787C92.035 50.2702 91.9268 50.2702 91.9268 50.1617C91.9268 50.1617 91.9268 50.1617 91.8185 50.0532C91.8185 50.0532 91.8185 49.9447 91.7102 49.9447C91.7102 49.9447 91.7102 49.9447 91.7102 49.8362C91.7102 49.7277 91.7102 49.7277 91.6019 49.6192C91.6019 49.5107 91.6019 49.5107 91.6019 49.4022V49.2937C91.6019 49.0767 91.4937 48.9682 91.4937 48.7512C91.3854 47.9917 91.3854 47.1237 91.1688 46.3642C91.1688 46.1472 90.9523 45.7132 90.7357 45.8217C90.4109 45.9302 90.4109 46.4727 90.5192 46.7982C90.6274 47.4492 90.7357 48.2087 90.7357 48.8597C90.844 49.4022 90.844 49.9447 91.0605 50.4872C90.6274 50.4872 90.3026 50.5957 89.8695 50.5957C89.8695 50.4872 89.7612 50.3787 89.7612 50.2702V50.1617C89.7612 50.0532 89.7612 50.0532 89.653 49.9447C89.653 49.8362 89.5447 49.6192 89.5447 49.5107C89.5447 49.4022 89.5447 49.4022 89.4364 49.2937V49.1852C89.4364 48.9682 89.3281 48.8597 89.3281 48.6427C89.2199 48.3172 89.2199 47.9917 89.2199 47.6662C89.2199 47.4492 89.0033 47.0152 88.7868 47.1237C88.4619 47.2322 88.4619 47.7747 88.5702 48.1002C88.6785 48.8597 88.7868 49.6192 89.0033 50.3787C89.0033 50.4872 89.1116 50.5957 89.1116 50.7042C88.5702 50.7042 88.0288 50.7042 87.5957 50.7042C87.5957 50.3787 87.4875 50.1617 87.4875 49.8362C87.3792 48.8597 87.2709 47.9917 86.9461 47.0152C86.8378 46.7982 86.6212 46.4727 86.4047 46.7982C86.1881 47.0152 86.1881 47.5577 86.2964 47.8832C86.6212 48.8597 86.7295 49.7277 86.8378 50.8127C86.4047 50.8127 85.8633 50.8127 85.4302 50.8127C85.1054 50.8127 84.7806 50.8127 84.4557 50.9212C84.4557 50.7042 84.3475 50.3787 84.3475 50.0532C84.3475 49.1852 84.3475 48.4257 84.3475 47.5577C84.3475 45.9302 84.4557 44.1942 84.2392 42.5667C84.2392 42.3497 84.1309 41.9157 83.8061 42.0242C83.4813 42.1327 83.4812 42.6752 83.5895 43.0007C83.9144 44.6282 83.6978 46.3642 83.6978 48.1002C83.6978 48.9682 83.6978 49.8362 83.6978 50.5957C83.6978 50.7042 83.6978 50.8127 83.6978 51.0297C82.8316 51.1382 82.0737 51.2467 81.2075 51.4637C81.2075 51.3552 81.2075 51.1382 81.0992 51.0297C80.9909 50.0532 80.8826 48.9682 80.8826 47.9917C80.8826 45.9302 80.8826 43.9772 80.8826 41.9157C80.8826 41.6987 80.7744 41.1562 80.5578 41.1562C80.233 41.1562 80.233 41.6987 80.233 41.9157C80.233 44.0857 80.1247 46.2557 80.233 48.4257C80.233 49.5107 80.3413 50.5957 80.4495 51.5722C79.9082 51.6807 79.3668 51.8977 78.8254 52.0062C78.8254 51.6807 78.7171 51.3552 78.7171 51.0297C78.6088 50.2702 78.5006 49.6192 78.5006 48.8597C78.5006 48.6427 78.284 48.2087 78.0675 48.3172C77.7426 48.4257 77.7426 48.9682 77.8509 49.2937C77.8509 49.9447 77.9592 50.5957 78.0675 51.2467C78.0675 51.5722 78.1757 51.8977 78.1757 52.2232V52.3317C77.8509 52.4402 77.5261 52.5487 77.2013 52.6572C77.2013 52.5487 77.2013 52.3317 77.093 52.2232C77.093 52.1147 77.093 52.1147 77.093 52.1147C77.093 52.1147 77.093 52.1147 77.093 52.2232C77.093 52.2232 77.093 52.1147 77.093 52.0062C77.093 51.8977 77.093 51.8977 77.093 51.7892V51.6807C77.093 51.4637 77.093 51.3552 77.093 51.1382C77.093 50.4872 77.093 49.7277 77.093 49.0767C77.093 48.8597 76.9847 48.3172 76.7682 48.3172C76.4433 48.3172 76.4433 48.8597 76.4433 49.0767C76.4433 49.8362 76.3351 50.5957 76.4433 51.3552C76.4433 51.7892 76.4433 52.2232 76.5516 52.6572C76.5516 52.7657 76.6599 52.8742 76.6599 53.0912C76.0102 53.4167 75.3606 53.6337 74.7109 53.9592C74.6026 51.4637 74.6026 48.8597 73.953 46.3642C73.8447 46.1472 73.6282 45.8217 73.4116 46.1472C73.1951 46.3642 73.1951 46.9067 73.3033 47.2322C73.953 49.6192 73.8447 52.0062 73.953 54.5017C73.6282 54.7187 73.3033 54.8272 73.0868 55.0442C72.5454 55.3697 72.004 55.6952 71.4626 56.0207C71.4626 52.2232 71.5709 48.4257 71.4626 44.6282C71.4626 44.4112 71.3544 43.8687 71.1378 43.8687C70.813 43.8687 70.7047 44.4112 70.813 44.6282C70.9213 48.5342 70.7047 52.5487 70.813 56.4547C69.8385 57.1057 68.7558 57.6482 67.7813 58.2992C67.7813 57.6482 67.673 57.1057 67.673 56.4547C67.673 55.2612 67.5647 53.9592 67.5647 52.7657C67.5647 50.1617 67.5647 47.6662 67.5647 45.1707C67.5647 44.9537 67.4565 44.4112 67.2399 44.4112C67.0233 44.4112 66.8068 44.9537 66.8068 45.1707C66.8068 47.7747 66.8068 50.4872 66.8068 53.0912C66.8068 54.3932 66.8068 55.6952 66.9151 57.1057C66.9151 57.6482 66.9151 58.2992 67.0234 58.8417C66.2654 59.2757 65.3992 59.7097 64.533 60.1437C64.6413 59.2757 64.533 58.2992 64.4247 57.4312C64.4247 56.3462 64.3165 55.2612 64.3165 54.1762C64.3165 52.0062 64.2082 49.8362 64.3165 47.6662C64.3165 47.4492 64.2082 46.9067 63.9916 46.9067C63.6668 46.9067 63.6668 47.4492 63.6668 47.6662C63.6668 49.8362 63.6668 52.0062 63.6668 54.2847C63.6668 55.3697 63.7751 56.4547 63.7751 57.4312C63.7751 58.4077 63.7751 59.3842 63.9916 60.3607V60.4692C63.7751 60.5777 63.6668 60.6862 63.4502 60.6862C62.9089 60.9032 62.3675 61.1202 61.8261 61.3372C61.8261 59.4927 61.7178 57.6482 61.5013 55.9122C61.393 53.9592 61.2847 51.8977 61.2847 49.8362C61.2847 49.6192 61.1765 49.0767 60.9599 49.0767C60.6351 49.0767 60.6351 49.6192 60.6351 49.8362C60.6351 51.7892 60.7434 53.8507 60.8516 55.8037C60.9599 57.7567 61.0682 59.7097 61.1765 61.5542C60.5268 61.7712 59.9854 61.9882 59.3358 62.0967C59.444 61.3372 59.444 60.5777 59.3358 59.8182C59.3358 58.8417 59.2275 57.7567 59.2275 56.7802C59.1192 54.7187 59.0109 52.6572 58.5778 50.5957C58.5778 50.3787 58.4696 49.9447 58.1447 50.0532C57.8199 50.1617 57.8199 50.7042 57.9282 51.0297C58.253 52.9827 58.4696 54.9357 58.5778 56.9972C58.5778 57.9737 58.6861 58.9502 58.6861 59.8182C58.6861 60.5777 58.6861 61.4457 58.7944 62.2052C58.1447 62.3137 57.4951 62.4222 56.9537 62.4222C56.9537 62.3137 56.9537 62.3137 56.9537 62.3137C57.062 60.3607 56.8454 58.5162 56.8454 56.5632C56.7372 54.6102 56.7372 52.7657 56.7372 50.8127C56.7372 50.5957 56.6289 50.0532 56.4123 50.0532C56.1958 50.0532 56.0875 50.5957 55.9792 50.8127C55.9792 52.7657 55.9792 54.6102 56.0875 56.5632C56.1958 58.5162 56.0875 60.3607 56.1958 62.3137V62.4222C55.2213 62.4222 54.2468 62.2052 53.2723 61.7712C53.0558 61.6627 52.8392 61.5542 52.6227 61.4457C52.6227 61.3372 52.6227 61.1202 52.5144 61.0117C52.6227 58.6247 52.731 56.3462 52.731 53.9592C52.731 53.7422 52.6227 53.1997 52.2979 53.1997C50.8903 52.8742 50.8903 53.4167 50.8903 53.6337C50.8903 55.9122 50.6737 58.0822 50.6737 60.3607C50.6737 60.2522 50.5654 60.2522 50.5654 60.2522C50.1323 59.7097 49.8075 58.9502 49.4827 58.2992C48.9413 56.9972 48.6165 55.5867 47.8586 54.2847C47.2089 53.1997 46.3427 52.8742 45.1517 53.4167C43.5275 54.2847 42.3365 55.9122 40.4958 56.6717C38.3303 57.6482 35.9482 58.1907 33.5662 58.2992C33.0248 58.2992 32.5917 58.4077 32.0503 58.4077C31.0758 58.0822 30.2096 57.8652 29.2351 57.7567C29.1269 57.7567 29.1269 57.6482 29.0186 57.6482C29.0186 57.5397 28.9103 57.3227 28.9103 57.2142C28.5855 56.5632 28.2606 55.9122 27.9358 55.2612C27.9358 54.9357 27.9358 54.7187 27.9358 54.3932C28.0441 52.1147 27.8275 49.8362 28.6937 47.6662C29.1269 46.6897 29.56 45.7132 29.6682 44.5197C29.6682 44.4112 29.6682 43.4347 29.3434 43.5432C26.6365 44.0857 23.9296 44.1942 21.2227 44.0857C20.14 43.8687 18.9489 43.8687 17.9745 43.8687C17.3248 43.8687 16.6751 43.8687 16.0255 43.8687C15.2676 43.8687 14.4014 43.7602 13.6434 43.7602C11.3696 43.7602 8.77102 43.7602 6.71378 42.5667C4.87309 41.4817 3.68206 39.6372 1.84138 38.4437H1.7331C1.62482 36.4907 1.94965 34.4291 2.92413 32.6931C4.65654 29.2211 8.22964 27.0511 11.8027 25.8576C15.9172 24.4471 20.5731 24.1216 24.7958 24.8811C25.0124 24.8811 25.2289 24.8811 25.3372 24.6641C26.8531 25.7491 28.802 26.1831 30.6427 26.2916C33.4579 26.5086 36.273 26.2916 38.9799 25.7491C40.171 25.5321 41.362 25.2066 42.4448 24.7726C42.7696 24.6641 42.8779 23.4706 42.4448 23.3621C41.4703 23.1451 40.3875 22.8196 39.1965 22.3856C39.0882 22.2771 38.9799 22.1686 38.7634 22.1686C38.6551 22.1686 38.6551 22.1686 38.5468 22.1686C34.4324 20.7581 29.9931 18.4796 30.6427 13.8141C30.9675 11.5356 32.5917 9.79957 34.4324 8.38907C35.1903 7.73806 35.9482 7.19556 36.8144 6.65306C36.8144 6.65306 36.8144 6.65306 36.9227 6.65306C37.2475 6.65306 37.3558 6.43606 37.5724 6.21906C37.7889 6.11056 37.8972 6.00206 38.1137 5.89356C38.222 5.89356 38.3303 5.89356 38.4386 5.89356C39.0882 5.67656 39.7379 5.56806 40.2793 5.24255C40.9289 5.02555 41.5786 4.59155 42.0117 4.15755C42.0117 4.15755 42.0117 4.15755 42.0117 4.04905C42.7696 3.83205 43.6358 3.61505 44.3937 3.50655C45.5848 3.72355 46.7758 3.94055 47.9668 4.37455C48.1834 4.48305 48.2917 4.70006 48.5082 4.80856C48.6165 5.02556 48.833 4.91705 48.833 4.70005C50.782 5.45956 52.6227 6.54456 54.3551 7.62956C56.5206 9.14857 58.5778 10.8846 60.4185 12.7291C60.4185 13.0546 60.5268 13.2716 60.7434 13.3801C61.2847 14.0311 62.0427 14.4651 62.6923 14.8991C62.9089 15.0076 63.1254 14.8991 63.2337 14.7906C63.9916 13.8141 64.9661 13.2716 66.1571 12.7291C67.3482 12.1866 68.4309 11.6441 69.5137 10.9931C69.7302 10.8846 70.0551 10.7761 70.2716 10.5591C70.2716 10.6676 70.2716 10.8846 70.2716 10.9931C70.3799 11.4271 70.3799 11.8611 70.4882 12.2951C70.4882 12.5121 70.5964 12.8376 70.7047 13.0546C70.813 13.2716 70.813 13.7056 71.0295 13.8141C71.1378 13.9226 71.2461 13.8141 71.2461 13.7056C71.2461 13.7056 71.2461 13.7056 71.3544 13.5971C71.3544 13.4886 71.4626 13.3801 71.4626 13.3801C71.4626 13.2716 71.4626 13.1631 71.4626 13.0546C71.4626 12.9461 71.4626 12.8376 71.4626 12.7291C71.4626 12.8376 71.4626 12.8376 71.4626 12.7291C71.4626 12.6206 71.4626 12.5121 71.3544 12.4036C71.3544 12.2951 71.3544 12.1866 71.2461 12.0781V11.9696C71.1378 11.5356 71.0295 10.9931 71.0295 10.5591C71.0295 10.4506 71.0295 10.3421 70.9213 10.2336C71.4626 9.90807 72.004 9.69107 72.6537 9.47407C72.5454 9.69107 72.6537 9.90807 72.6537 10.1251C72.762 10.4506 72.8702 10.6676 72.9785 10.9931C73.0868 11.3186 73.1951 11.6441 73.3033 11.8611C73.4116 11.9696 73.5199 12.0781 73.6282 11.9696C73.7364 11.7526 73.7364 11.5356 73.7364 11.3186C73.7364 10.9931 73.6282 10.5591 73.5199 10.2336C73.4116 9.90807 73.3033 9.58257 73.3033 9.36557C73.3033 9.36557 73.3033 9.25707 73.1951 9.25707C74.3861 8.82307 75.4688 8.49757 76.7682 8.17206C76.6599 8.38907 76.6599 8.60607 76.6599 8.71457C76.6599 9.47407 76.5516 10.2336 76.6599 10.9931C76.6599 11.3186 76.7682 11.7526 76.8764 12.0781C76.9847 12.4036 77.2013 12.9461 77.5261 13.0546C77.6344 13.0546 77.7426 12.8376 77.7426 12.7291C77.8509 12.5121 77.7426 12.2951 77.7426 12.0781C77.7426 11.9696 77.6344 11.8611 77.6344 11.7526V11.6441C77.6344 11.6441 77.6344 11.6441 77.6344 11.5356C77.6344 11.4271 77.6344 11.4271 77.5261 11.3186C77.5261 11.2101 77.5261 11.2101 77.4178 11.1016C77.4178 11.1016 77.3095 10.7761 77.4178 10.9931C77.4178 10.8846 77.4178 10.8846 77.4178 10.7761C77.4178 10.6676 77.4178 10.6676 77.4178 10.5591V10.4506C77.4178 9.79957 77.4178 9.14857 77.4178 8.49757C77.4178 8.38906 77.4178 8.06357 77.3095 7.84656C77.5261 7.84656 77.7426 7.73807 77.8509 7.73807C78.1757 7.73807 78.5006 7.62956 78.9337 7.62956C78.9337 7.84656 78.9337 7.95507 78.9337 8.06357C78.9337 8.06357 78.9337 8.06356 78.9337 8.17206V8.28057C78.9337 8.38907 78.9337 8.49757 78.9337 8.60607V8.71457C78.9337 8.82307 78.9337 8.93157 78.9337 9.04007C78.9337 9.47407 78.9337 9.90807 78.9337 10.3421C78.9337 10.7761 79.0419 11.3186 79.1502 11.7526C79.2585 12.0781 79.5833 12.8376 80.0164 12.6206C80.233 12.5121 80.233 12.0781 80.233 11.8611C80.1247 11.5356 80.1247 11.4271 80.0164 11.2101C80.0164 11.2101 80.0164 11.1016 79.9082 11.1016C79.9082 11.1016 79.9082 11.1016 79.9082 10.9931V10.8846V10.7761C79.9082 10.7761 79.9082 10.7761 79.9082 10.6676V10.5591C79.9082 10.4506 79.9082 10.3421 79.9082 10.2336V10.1251V10.2336V10.1251C79.9082 10.0166 79.9082 9.90807 79.9082 9.79957C79.9082 9.04007 79.9081 8.17206 79.6916 7.41256C80.5578 7.30406 81.424 7.30406 82.1819 7.41256C82.1819 7.41256 82.1819 7.41256 82.0737 7.41256C81.8571 7.62956 81.8571 8.17206 81.9654 8.49757C81.9654 8.60607 81.9654 8.60607 82.0737 8.71457V8.82307C82.0737 8.93157 82.0737 9.14857 82.1819 9.25707C82.1819 9.58257 82.1819 9.90807 82.2902 10.1251C82.2902 10.4506 82.2902 10.6676 82.3985 10.9931C82.5068 11.3186 82.5068 11.6441 82.7233 11.9696C82.8316 12.0781 82.9399 12.0781 83.0481 11.9696C83.1564 11.7526 83.1564 11.5356 83.1564 11.3186C83.0481 10.7761 83.0481 10.2336 82.9399 9.69107C82.9399 9.04007 82.8316 8.38907 82.6151 7.84656C82.6151 7.73806 82.5068 7.62956 82.3985 7.52106C83.5895 7.62956 84.6723 7.73806 85.8633 8.17206C87.2709 8.60607 88.895 9.14857 90.3026 9.79957C90.1943 10.1251 90.1943 10.6676 90.4109 10.8846C90.3026 11.4271 90.1943 11.9696 90.1943 12.5121C90.0861 12.8376 90.0861 13.2716 90.0861 13.7056C90.0861 13.8141 90.0861 13.9226 90.0861 14.1396C90.0861 14.2481 90.1943 14.4651 90.3026 14.5736C90.4109 14.6821 90.5192 14.4651 90.6274 14.3566C90.6274 14.2481 90.6274 14.2481 90.6274 14.1396C90.7357 14.0311 90.7357 13.8141 90.7357 13.5971C90.844 13.2716 90.844 12.9461 90.9523 12.6206C91.0605 12.0781 91.1688 11.4271 91.2771 10.8846C93.0095 11.1016 93.8757 13.7056 94.3088 15.1161C94.4171 15.5501 94.6336 15.9841 94.7419 16.4181C94.7419 16.5266 94.6337 16.5266 94.6337 16.6351C94.6337 16.8521 94.5254 16.9606 94.4171 17.1776C94.4171 17.2861 94.4171 17.2861 94.3088 17.3946C94.2005 17.5031 94.2005 17.7201 94.2005 17.8286C94.2005 17.8286 94.2005 17.7201 94.3088 17.7201C94.3088 17.7201 94.3088 17.8286 94.2005 17.8286C94.0923 18.1541 94.0923 18.4796 94.2005 18.6966C94.2005 18.8051 94.3088 18.9136 94.4171 18.9136C94.5254 18.9136 94.6337 18.9136 94.6337 18.8051C94.7419 18.6966 94.7419 18.6966 94.8502 18.5881C94.9585 18.4796 94.9585 18.3711 94.9585 18.3711C94.9585 18.3711 94.9585 18.2626 95.0668 18.2626C95.0668 18.1541 95.0667 18.1541 95.175 18.0456C95.3916 19.4561 95.4999 20.8666 95.0668 22.2771C94.4171 24.4471 92.5764 25.8576 90.5192 26.6171C90.5192 26.5086 90.5192 26.4001 90.5192 26.4001C90.5192 26.2916 90.5192 26.0746 90.4109 25.9661C90.4109 25.9661 90.4109 25.8576 90.3026 25.8576L90.1943 25.7491H90.0861C90.0861 25.7491 89.9778 25.7491 89.9778 25.8576C89.8695 25.9661 89.8695 26.0746 89.8695 26.1831V26.0746C89.8695 26.1831 89.8695 26.1831 89.7612 26.2916C89.7612 26.4001 89.653 26.4001 89.653 26.5086C89.5447 26.6171 89.5447 26.6171 89.5447 26.7256C89.5447 26.8341 89.5447 26.8341 89.5447 26.9426C89.0033 27.0511 88.5702 27.2681 88.0288 27.3766C88.0288 27.1596 87.9206 27.0511 87.8123 27.0511C87.704 27.0511 87.5957 27.2681 87.704 27.4851C87.1626 27.5936 86.513 27.7021 85.9716 27.7021C85.9716 27.5936 85.9716 27.3766 85.9716 27.2681C85.9716 27.1596 85.9716 27.1596 85.8633 27.0511V26.9426C85.8633 26.8341 85.8633 26.6171 85.755 26.5086C85.755 26.4001 85.755 26.1831 85.755 26.0746C85.755 25.9661 85.755 25.8576 85.6468 25.7491C85.6468 25.6406 85.5385 25.5321 85.5385 25.4236C85.5385 25.3151 85.4302 25.3151 85.3219 25.3151C85.2137 25.3151 85.2137 25.4236 85.1054 25.5321C84.9971 25.7491 84.9971 26.0746 84.9971 26.4001C84.9971 26.6171 84.9971 26.8341 85.1054 27.0511C85.1054 27.3766 85.2137 27.5936 85.3219 27.9191C84.7806 27.9191 84.3475 27.9191 83.8061 27.9191C83.8061 27.7021 83.8061 27.4851 83.6978 27.2681V27.1596C83.6978 27.0511 83.6978 27.0511 83.5895 26.9426V26.8341V26.7256V26.6171V26.5086V26.4001C83.5895 26.2916 83.5895 26.1831 83.5895 26.1831C83.5895 26.1831 83.5895 26.1831 83.5895 26.0746V25.9661C83.5895 25.8576 83.4812 25.6406 83.373 25.5321C83.2647 25.4236 83.1564 25.5321 83.0481 25.6406C82.8316 26.0746 82.8316 26.6171 82.9399 27.1596C82.9399 27.4851 83.0481 27.7021 83.1564 28.0276C82.2902 28.0276 81.424 28.0276 80.5578 27.9191C80.6661 27.7021 80.6661 27.4851 80.6661 27.3766V26.2916C80.6661 26.0746 80.6661 25.9661 80.6661 25.7491C80.6661 25.4236 80.6661 25.0981 80.5578 24.8811C80.5578 24.7726 80.4495 24.6641 80.3413 24.6641C80.233 24.6641 80.1247 24.7726 80.1247 24.8811C80.0164 25.0981 80.0164 25.5321 80.0164 25.7491C80.0164 25.9661 80.0164 26.0746 80.0164 26.2916V27.3766C80.0164 27.5936 80.0164 27.7021 80.1247 27.9191C79.5833 27.9191 79.0419 27.9191 78.6088 27.9191C78.3923 27.9191 78.1757 27.9191 78.0675 27.9191C78.3923 27.1596 78.5006 26.2916 78.1757 25.6406C78.1757 25.5321 77.9592 25.2066 77.8509 25.3151C77.6344 25.4236 77.6344 25.7491 77.6344 25.9661C77.6344 26.0746 77.6344 26.0746 77.6344 26.1831V26.2916V26.4001V26.5086V26.6171C77.6344 26.6171 77.6344 26.6171 77.6344 26.7256C77.6344 26.8341 77.6344 26.8341 77.6344 26.9426C77.6344 27.0511 77.6344 27.0511 77.5261 27.1596V27.2681C77.4178 27.4851 77.4178 27.5936 77.4178 27.8106C77.4178 27.9191 77.4178 27.9191 77.4178 28.0276C76.4433 28.0276 75.3606 28.0276 74.3861 28.0276C74.3861 27.9191 74.3861 27.8106 74.3861 27.7021C74.3861 27.5936 74.2778 27.4851 74.2778 27.3766V27.2681C74.2778 27.1596 74.2778 27.0511 74.2778 26.9426V26.8341C74.2778 26.7256 74.2778 26.6171 74.2778 26.5086V26.4001V26.2916C74.2778 26.1831 74.3861 26.0746 74.3861 25.9661C74.4944 25.7491 74.4944 25.3151 74.2778 25.0981C74.1695 24.9896 73.953 24.7726 73.8447 24.9896C73.6282 25.3151 73.5199 25.6406 73.5199 25.9661C73.4116 26.2916 73.4116 26.5086 73.4116 26.8341C73.4116 27.2681 73.5199 27.8106 73.6282 28.2446C73.0868 28.2446 72.5454 28.2446 72.004 28.2446C72.1123 27.5936 72.1123 26.9426 72.1123 26.2916C72.1123 25.8576 72.1123 25.5321 72.004 25.0981C72.004 24.7726 71.8957 24.4471 71.6792 24.2301C71.5709 24.1216 71.4626 24.1216 71.3544 24.2301C71.2461 24.3386 71.2461 24.5556 71.2461 24.7726V24.8811C71.2461 25.0981 71.2461 25.2066 71.2461 25.4236C71.2461 25.5321 71.2461 25.7491 71.2461 25.8576C71.2461 25.8576 71.2461 25.8576 71.2461 25.9661C71.2461 25.9661 71.2461 25.9661 71.2461 25.8576C71.2461 25.9661 71.2461 26.0746 71.2461 26.0746C71.2461 26.1831 71.2461 26.4001 71.2461 26.5086C71.2461 26.6171 71.2461 26.7256 71.2461 26.7256V26.8341C71.2461 26.9426 71.2461 27.1596 71.1378 27.2681C71.1378 27.2681 71.1378 27.2681 71.1378 27.3766C71.1378 27.4851 71.1378 27.4851 71.0295 27.5936C71.0295 27.7021 71.0295 27.8106 71.0295 27.8106C70.813 27.8106 70.4882 27.8106 70.2716 27.8106C70.3799 27.3766 70.3799 27.0511 70.3799 26.6171C70.3799 26.0746 70.4882 25.4236 70.4882 24.8811C70.4882 24.7726 70.4882 24.6641 70.4882 24.5556C70.4882 24.4471 70.4882 24.2301 70.3799 24.1216C70.3799 24.0131 70.1633 23.9046 70.0551 24.0131C69.2971 24.1216 69.2971 24.2301 69.1889 24.4471C69.0806 24.5556 69.0806 24.7726 69.0806 24.8811C69.0806 24.9896 69.0806 25.0981 69.0806 25.2066C69.0806 25.7491 68.9723 26.2916 68.9723 26.9426C68.9723 27.1596 68.9723 27.3766 68.864 27.5936C68.864 27.7021 68.864 27.7021 68.864 27.8106C68.5392 27.8106 68.3227 27.8106 67.9978 27.7021C67.8895 27.5936 67.7813 27.4851 67.5647 27.4851C67.673 27.2681 67.673 27.0511 67.673 26.8341C67.5647 26.2916 67.5647 25.8576 67.4565 25.3151C67.4565 25.0981 67.4565 24.7726 67.3482 24.5556V24.4471C67.3482 24.4471 67.2399 24.2301 67.2399 24.1216C67.2399 24.0131 67.1316 24.0131 67.0234 24.0131C66.9151 24.0131 66.9151 24.0131 66.9151 24.1216C66.9151 24.1216 66.9151 24.1216 66.9151 24.2301C66.8068 24.4471 66.8068 24.6641 66.8068 24.8811C66.8068 24.9896 66.8068 25.0981 66.8068 25.2066C66.8068 25.5321 66.8068 25.7491 66.9151 26.0746C66.9151 26.5086 67.0234 26.9426 67.0234 27.3766C67.0234 27.4851 67.1316 27.7021 67.1316 27.8106C66.5902 27.7021 65.9406 27.5936 65.3992 27.4851C64.8578 27.3766 65.0744 28.6786 65.1827 28.8956C65.724 29.5466 66.2654 30.1976 66.9151 30.7401C66.9151 30.8486 67.0234 30.8486 67.0234 30.9571C67.1316 31.4996 67.3482 32.0421 67.8896 32.0421C68.2144 32.1506 68.6475 32.1506 68.9723 32.1506C69.5137 32.4761 70.0551 32.6931 70.7047 32.9101C70.9213 33.0186 71.2461 33.1271 71.4626 33.2356C71.6792 33.3441 71.8957 33.3441 72.2206 33.4526C72.3288 33.5611 72.4371 33.5611 72.5454 33.6697C72.6537 33.7782 72.8702 33.7782 73.0868 33.6697C73.8447 33.8867 74.7109 33.9951 75.5771 33.9951C76.5516 34.1036 77.6344 34.1036 78.6088 33.9951C79.2585 34.1036 79.9081 34.1036 80.6661 34.1036C82.9399 33.9951 85.2137 33.6697 87.4875 33.6697C89.1116 33.6697 90.7357 33.5611 92.3599 33.6697C92.4681 33.6697 92.4681 33.6697 92.5764 33.6697C92.9012 33.6697 93.3343 33.6697 93.6592 33.6697C93.8757 34.1037 94.0923 34.3207 94.5254 34.3207C95.2833 34.4291 95.8247 34.5377 96.3661 34.7547L96.4743 34.8632C96.7992 35.1887 97.124 35.5142 97.3405 35.8397C97.8819 37.2502 98.6398 38.5522 99.8309 39.4202C100.047 39.8542 100.264 40.1797 100.481 40.6137C100.481 41.2647 100.589 41.8072 100.697 42.3497C100.805 42.7837 100.914 43.2177 101.022 43.7602C100.914 44.1942 100.805 44.6282 100.589 44.9537Z" fill="black"/>
<path d="M53.8135 16.2001C53.7052 15.8746 53.597 15.6576 53.3804 15.7661C53.0556 15.8746 52.7308 15.9831 52.5142 16.0916C52.7308 15.9831 52.839 15.8746 53.0556 15.7661C53.1639 15.7661 53.2721 15.6576 53.2721 15.6576C53.2721 15.6576 53.2721 15.6576 53.3804 15.6576L53.4887 15.5491C53.4887 15.5491 53.4887 15.5491 53.597 15.5491C53.7052 15.4406 53.7052 15.2236 53.7052 15.1151C53.7052 15.0066 53.7052 14.7896 53.597 14.6811H53.4887H53.3804C53.2721 14.6811 53.1639 14.6811 53.0556 14.6811C52.839 14.6811 52.7308 14.7896 52.5142 14.8981C52.0811 15.2236 51.8646 15.5491 51.5397 15.9831C51.5397 16.0916 51.4315 16.2001 51.4315 16.3086C50.7818 16.3086 50.1321 16.0916 49.3742 15.8746C49.4825 15.7661 49.5908 15.6576 49.8073 15.5491C49.8073 15.5491 49.8073 15.5491 49.9156 15.5491L50.0239 15.4406C50.1321 15.3321 50.2404 15.3321 50.2404 15.2236C50.457 15.1151 50.5653 15.0066 50.7818 14.8981C50.8901 14.8981 50.8901 14.7896 50.8901 14.7896L50.9984 14.6811C51.1066 14.5726 51.2149 14.5726 51.2149 14.4641C51.3232 14.3556 51.3232 14.0301 51.3232 13.9216C51.3232 13.8131 51.3232 13.8131 51.2149 13.7046C51.2149 13.7046 51.1066 13.5961 50.9984 13.5961C51.1066 13.2706 50.9984 13.2706 50.8901 13.2706C50.8901 13.2706 50.8901 13.2706 50.7818 13.2706C50.6735 13.2706 50.6735 13.2706 50.5653 13.3791C50.3487 13.4876 50.2404 13.5961 50.0239 13.7046C49.699 13.9216 49.2659 14.2471 48.9411 14.5726C48.8328 14.6811 48.8328 14.7896 48.8328 15.0066C48.8328 15.1151 48.8328 15.3321 48.8328 15.4406C48.3997 15.3321 48.0749 15.1151 47.6418 14.8981C47.5335 14.8981 47.4253 14.7896 47.317 14.6811C47.5335 14.3556 47.8584 14.1386 48.0749 13.8131C48.2915 13.5961 48.3997 13.2706 48.6163 13.0536C48.8328 12.7281 48.9411 12.5111 49.0494 12.1856C49.1577 11.9686 49.1577 11.6431 49.0494 11.4261C48.9411 11.3176 48.8328 11.2091 48.7246 11.3176C48.7246 11.3176 48.7246 11.3176 48.7246 11.4261C48.7246 11.4261 48.6163 11.5346 48.7246 11.5346C48.7246 11.6431 48.6163 11.6431 48.6163 11.7516C48.508 11.8601 48.508 11.8601 48.3997 11.9686C48.2915 12.1856 48.0749 12.4026 47.8584 12.6196C47.5335 13.0536 47.2087 13.4876 46.7756 13.9216C46.6673 14.0301 46.6673 14.0301 46.6673 14.1386C46.2342 13.9216 45.8011 13.5961 45.368 13.3791C45.4763 13.2706 45.4763 13.1621 45.5846 13.0536C45.6928 12.9451 45.8011 12.7281 45.9094 12.6196C45.9094 12.6196 45.9094 12.6196 45.9094 12.5111C45.9094 12.5111 45.9094 12.4026 46.0177 12.4026C46.0177 12.2941 46.1259 12.2941 46.1259 12.1856C46.2342 12.0771 46.3425 11.8601 46.4508 11.7516L46.5591 11.6431C46.5591 11.6431 46.559 11.6431 46.6673 11.5346C46.559 11.6431 46.6673 11.5346 46.7756 11.4261C46.7756 11.4261 46.8839 11.4261 46.8839 11.3176L46.9922 11.2091C46.9922 11.2091 46.9922 11.2091 47.1004 11.2091C47.1004 11.2091 47.2087 11.2091 47.2087 11.1006C47.317 10.9921 47.4253 10.9921 47.6418 10.9921C47.7501 10.9921 47.8584 10.6666 47.8584 10.6666C47.8584 10.5581 47.8584 10.2326 47.7501 10.2326C47.5335 10.1241 47.2087 10.0156 46.9922 10.1241C46.6673 10.2326 46.4508 10.4496 46.2342 10.6666C45.6928 11.3176 45.368 11.9686 45.0432 12.6196C45.0432 12.6196 45.0432 12.6196 45.0432 12.7281C44.6101 12.5111 44.2853 12.1856 43.8522 11.9686C44.177 11.6431 44.3935 11.2091 44.6101 10.7751C44.7184 10.4496 44.9349 10.1241 44.9349 9.69007C44.9349 9.58157 44.9349 9.36457 44.8266 9.14757L44.7184 9.03906H44.6101C44.5018 9.03906 44.5018 9.03906 44.3935 9.14757L44.2853 9.25606C44.2853 9.36456 44.2853 9.36457 44.177 9.47307C44.0687 9.69007 43.9604 9.90706 43.8522 10.1241C43.8522 10.2326 43.7439 10.3411 43.6356 10.4496C43.6356 10.4496 43.6356 10.4496 43.6356 10.5581L43.5273 10.6666C43.4191 10.8836 43.2025 11.1006 42.986 11.3176L42.8777 11.4261C42.7694 11.4261 42.6611 11.5346 42.5529 11.6431C42.5529 11.6431 42.4446 11.6431 42.4446 11.7516C42.228 11.9686 42.1197 12.4026 42.228 12.6196C42.228 12.7281 42.4446 13.2706 42.6611 13.1621C42.7694 13.1621 42.7694 13.0536 42.8777 13.0536C43.3108 13.3791 43.8522 13.7046 44.2853 14.0301C44.2853 14.2471 44.2853 14.4641 44.2853 14.5726C44.3935 14.7896 44.5018 15.0066 44.7184 14.7896C44.8266 14.6811 44.9349 14.5726 44.9349 14.4641C46.0177 15.1151 47.1004 15.8746 48.1832 16.4171C49.9156 17.2851 51.9728 17.9361 53.9218 16.9596C54.0301 16.8511 54.1383 16.7426 54.1383 16.5256C53.9218 16.5256 53.9218 16.3086 53.8135 16.2001Z" fill="black"/>
<path d="M22.5213 31.8232C21.3302 30.6297 19.7061 31.0637 18.4068 31.8232C16.7826 32.6912 15.3751 33.9932 14.2923 35.4038C13.7509 36.0548 13.3178 36.8143 12.993 37.5738C12.8847 37.8993 12.8847 38.3333 13.1013 38.6588C13.3178 38.8758 13.5344 38.6588 13.6427 38.3333C13.8592 37.6823 14.4006 36.9228 14.942 36.2717C15.5916 35.4037 16.4578 34.6442 17.2157 33.9932C18.2985 33.2337 20.1392 32.0402 21.5468 32.6912C21.5468 33.1252 21.8716 33.5592 22.413 33.1252C22.8461 33.0167 22.8461 32.1487 22.5213 31.8232Z" fill="black"/>
</svg>
