<svg width="78" height="53" viewBox="0 0 78 53" fill="none" xmlns="http://www.w3.org/2000/svg">
<path d="M4.16817 38.2573L21.0592 43.0313L52.1343 35.3278L68.5922 35.9788L74.006 30.7708C74.006 30.7708 84.8336 11.7832 60.4715 5.38168L43.6888 8.85369L40.3323 15.0382L37.3005 9.6132C37.3005 9.6132 18.6771 0.173669 10.2316 7.98569C10.2316 7.98569 -2.54493 12.1087 4.9261 21.9822L6.33368 24.5862L6.87506 29.0348L2.65232 36.9553L4.16817 38.2573Z" fill="white"/>
<path d="M11.4217 29.4691C11.4217 29.3606 11.4217 29.3606 11.4217 29.4691C11.4217 29.3606 11.4217 29.3606 11.4217 29.4691C11.4217 29.3606 11.4217 29.3606 11.4217 29.3606C11.3135 28.9266 11.3135 28.3841 11.2052 27.9501C11.0969 26.9736 10.9886 25.9971 10.8804 25.0206C10.8804 24.8036 10.6638 24.3696 10.4473 24.4781C10.1225 24.5866 10.1225 25.1291 10.2308 25.4546C10.339 26.3226 10.4473 27.0821 10.5556 27.9501C10.6639 28.7096 10.6638 29.4691 10.8804 30.2286C10.8804 30.3371 10.8804 30.5541 10.9887 30.6626C10.9887 30.7711 11.0969 30.8796 11.2052 30.8796C11.4217 30.8796 11.53 30.5541 11.53 30.3371C11.53 30.0116 11.4217 29.6861 11.4217 29.4691Z" fill="black"/>
<path d="M15.32 28.4931C15.32 28.3846 15.32 28.3846 15.32 28.2761C15.2117 27.9506 15.2117 27.5166 15.1034 27.1911C14.9951 26.4315 14.9951 25.5635 14.8869 24.804C14.7786 23.936 14.7786 23.068 14.7786 22.0915C14.7786 21.8745 14.6703 21.332 14.4537 21.332C14.1289 21.332 14.1289 21.8745 14.1289 22.0915C14.1289 23.719 14.2372 25.455 14.3455 27.0826C14.3455 27.5166 14.4537 27.8421 14.4537 28.1676C14.4537 28.3846 14.562 28.4931 14.562 28.7101V28.8186C14.562 29.0356 14.6703 29.2526 14.7786 29.4696C14.7786 29.5781 14.8869 29.5781 14.9951 29.5781C15.32 29.4696 15.32 29.1441 15.32 28.8186C15.32 28.7101 15.32 28.6016 15.32 28.4931Z" fill="black"/>
<path d="M25.4976 25.7818C25.4976 25.8903 25.4976 25.8903 25.4976 25.7818C25.4976 25.5648 25.4976 25.3478 25.2811 25.2393C25.1728 25.2393 25.1728 25.2393 25.0645 25.2393C24.9562 24.8053 24.848 24.3713 24.7397 23.8288C24.6314 23.1778 24.5231 22.4183 24.4149 21.7673C24.4149 21.5503 24.3066 21.0078 24.09 21.0078C23.7652 21.0078 23.6569 21.5503 23.7652 21.7673C23.7652 22.6353 23.8735 23.5033 24.09 24.3713C24.3066 25.1308 24.5231 25.9988 24.7397 26.6498C24.848 26.8668 25.0645 27.1923 25.2811 26.8668C25.3893 26.6498 25.4976 26.4328 25.4976 26.1073C25.4976 26.2158 25.4976 26.1073 25.4976 25.7818C25.4976 25.8903 25.4976 25.8903 25.4976 25.7818Z" fill="black"/>
<path d="M31.346 23.502C31.1295 23.502 31.1295 24.153 31.346 24.153C31.5626 24.153 31.5626 23.502 31.346 23.502Z" fill="black"/>
<path d="M41.8482 20.0313C41.7399 19.8143 41.5234 19.8143 41.3068 19.9228C41.0903 19.9228 40.8737 20.0313 40.7655 20.0313C40.3323 20.1398 40.0075 20.2483 39.5744 20.2483C39.2496 20.2483 39.1413 20.7908 39.2496 21.0078C39.2496 21.2248 39.2496 21.3333 39.3579 21.5503C39.3579 21.6588 39.4661 21.7673 39.5744 21.7673C40.0075 21.7673 40.4406 21.6588 40.7655 21.5503C40.982 21.5503 41.1986 21.4418 41.3068 21.4418C41.4151 21.4418 41.5234 21.3333 41.6316 21.3333C41.7399 21.3333 41.8482 21.1163 41.9565 21.0078C42.0648 20.6823 42.0648 20.2483 41.8482 20.0313Z" fill="black"/>
<path d="M42.0649 22.3082C42.0649 22.1997 42.0649 22.0912 41.9567 22.0912C41.9567 22.0912 41.8484 21.9827 41.7401 22.0912C41.6318 22.1997 41.5236 22.1997 41.4153 22.1997C41.307 22.1997 41.1987 22.1997 41.0904 22.1997C40.9822 22.1997 40.9822 22.3082 40.8739 22.3082C40.8739 22.4167 40.7656 22.5252 40.7656 22.6337C40.7656 22.7422 40.7656 22.8507 40.8739 22.9592V23.0677L40.9822 23.1762C41.0905 23.1762 41.307 23.1762 41.4153 23.1762C41.5236 23.1762 41.5236 23.1762 41.5236 23.0677C41.6318 22.9592 41.6318 22.9592 41.7401 22.8507C41.8484 22.7422 41.8484 22.6337 41.8484 22.5252C42.1732 22.5252 42.1732 22.4167 42.0649 22.3082Z" fill="black"/>
<path d="M41.8479 23.9375C41.6314 23.9375 41.6314 24.5885 41.8479 24.5885C42.0644 24.5885 42.0644 23.9375 41.8479 23.9375Z" fill="black"/>
<path d="M69.0251 5.59906C64.2609 1.91005 57.6561 -0.0429552 51.7009 0.933547C48.5609 1.47605 45.6375 2.88655 43.472 5.16506C41.6313 7.11807 40.5485 9.50507 39.8989 12.1091C39.8989 12.1091 39.8989 12.1091 39.8989 12.2176C37.192 6.14156 29.6127 3.86306 23.1161 3.53756C19.1099 3.42906 15.3203 4.18856 11.6389 5.81606C10.881 6.14156 10.2313 6.46706 9.47338 6.90106C8.932 7.22656 8.28234 7.66057 7.74096 7.87757C5.25062 9.50507 2.97683 11.5666 2.11062 14.6046C1.56924 16.5576 1.67751 18.6191 2.54372 20.3551C3.40993 21.9826 4.70923 23.1761 5.25061 24.9121C6.33337 28.1671 4.27613 31.7476 2.86855 34.5686C1.46097 37.4981 -0.163175 40.6447 0.378204 43.8997C1.02786 47.9142 4.81751 49.7587 8.28234 50.9522C11.0975 51.8202 13.9127 52.3627 16.8361 52.0372C19.3265 51.7117 21.8168 50.9522 24.0906 49.9757C26.0396 49.2162 27.8803 48.2397 29.7209 47.4802C29.8292 47.5887 29.9375 47.6972 30.154 47.4802C30.3706 47.2632 30.6954 47.1547 30.912 46.9377C32.2113 46.3952 33.5106 45.9612 34.8099 45.6357C34.7016 45.5272 34.7016 45.4187 34.5933 45.3102C36.7589 44.6592 39.0326 44.3337 41.0899 44.3337C43.2554 44.3337 45.5292 44.1167 47.6947 43.7912C48.1278 43.6827 48.6692 43.6827 49.1023 43.6827C50.0768 43.6827 51.1595 43.5742 52.134 43.5742C52.892 43.5742 53.6499 43.6827 54.2995 43.5742C54.5161 43.5742 54.6244 43.4657 54.7326 43.3572C55.9237 43.2487 57.223 43.1402 58.414 42.9232C63.503 42.1637 68.3754 39.7767 71.9485 36.0876C75.305 32.6156 77.0374 28.0586 77.3623 23.2846C77.6871 16.1236 74.4388 9.72207 69.0251 5.59906ZM36.3258 12.0006C36.434 11.8921 36.5423 11.4581 36.434 11.2411C36.8671 11.6751 37.3003 12.1091 37.6251 12.5431C37.5168 12.5431 37.4085 12.6516 37.3002 12.7601C36.8671 12.9771 36.3258 13.1941 35.8927 13.4111C34.9182 13.8451 33.9437 14.3876 33.0775 15.0386C32.8609 15.1471 32.8609 15.4726 32.7527 15.6896C32.3196 15.6896 31.7782 15.6896 31.3451 15.5811C32.103 15.1471 32.7527 14.6046 33.4023 14.0621C33.9437 13.7366 34.3768 13.3026 34.9182 12.9771C35.1347 12.8686 35.4595 12.6516 35.6761 12.5431C36.0009 12.3261 36.2175 12.2176 36.3258 12.0006ZM34.5933 10.1561C34.7016 10.1561 34.7016 10.0476 34.8099 10.0476C35.243 10.2646 35.5678 10.5901 36.0009 10.9156C35.7844 10.9156 35.4596 11.1326 35.243 11.2411C35.0264 11.3496 34.7016 11.5666 34.4851 11.6751C33.9437 12.0006 33.5106 12.4346 32.9692 12.7601C31.9947 13.5196 30.912 14.2791 29.8292 14.8216C29.7209 14.8216 29.6127 15.0386 29.6127 15.1471C29.1796 14.9301 28.6382 14.7131 28.2051 14.3876C29.1796 13.8451 30.0458 13.1941 31.0203 12.5431C31.6699 12.1091 32.3196 11.5666 32.9692 11.1326C33.5106 10.6986 34.052 10.4816 34.5933 10.1561ZM25.6065 7.11806C25.6065 7.00956 25.6065 7.00956 25.6065 6.90106C25.823 6.90106 26.0396 7.00956 26.2561 7.00956C26.1478 7.11806 25.9313 7.22657 25.823 7.33507C25.4982 7.55207 25.4982 7.98606 25.6065 8.31156C25.6065 8.42006 25.7147 8.63707 25.823 8.74557C25.9313 8.85407 26.0396 8.85406 26.1478 8.85406C26.7975 8.42006 27.3389 7.87757 27.8803 7.44357L27.772 7.55206C27.8803 7.55206 27.8802 7.44357 27.9885 7.44357C28.2051 7.44357 28.4216 7.55206 28.6382 7.55206C28.0968 7.87757 27.6637 8.20307 27.1223 8.52857C26.7975 8.74557 26.4727 8.96257 26.1478 9.17957C25.9313 9.39657 25.823 9.83057 25.9313 10.1561C25.9313 10.2646 26.1478 10.9156 26.3644 10.6986C26.9058 10.2646 27.5554 9.83057 28.2051 9.50507C28.8547 9.07107 29.5044 8.63706 30.2623 8.31156C30.3706 8.31156 30.4789 8.20307 30.5872 8.09457C30.8037 8.20307 31.1285 8.31156 31.3451 8.31156C31.2368 8.42006 31.1285 8.52857 31.0203 8.52857C30.5871 8.85407 30.154 9.07106 29.7209 9.39657C28.8547 9.93907 27.8802 10.4816 27.1223 11.2411C26.7975 11.5666 27.014 12.9771 27.5554 12.5431C28.3134 11.8921 29.1796 11.3496 30.0458 10.8071C30.912 10.2646 31.8864 9.72207 32.5361 8.96257C32.5361 8.96257 32.6444 8.85407 32.6444 8.74557C32.9692 8.85407 33.294 9.07107 33.7271 9.28807C33.5106 9.39657 33.294 9.61357 33.0775 9.72207C32.4278 10.1561 31.7782 10.6986 31.1285 11.1326C29.9375 12.0006 28.7465 12.7601 27.4471 13.3026C27.3389 13.1941 27.3389 13.1941 27.2306 13.0856C25.7147 11.3496 25.1734 9.17957 25.6065 7.11806ZM75.5216 24.8036C75.5216 24.6951 75.4133 24.4781 75.4133 24.3696C75.4133 24.2611 75.305 24.0441 75.1968 24.0441C75.0885 24.0441 74.9802 24.0441 74.8719 24.1526C74.6554 24.3696 74.6554 24.9121 74.7637 25.2376C74.8719 25.6716 75.0885 26.1056 75.1968 26.4311C75.0885 26.9736 74.8719 27.5161 74.6554 27.9501L74.5471 28.0586C74.5471 27.8416 74.5471 27.6246 74.5471 27.4076C74.5471 27.2991 74.4388 26.9736 74.2223 26.9736C74.2223 26.9736 74.2223 26.9736 74.114 26.9736C74.0057 26.6481 73.8975 26.2141 73.7892 25.8886C73.5726 25.1291 73.3561 24.2611 73.2478 23.5016C73.2478 23.2846 72.923 22.9591 72.7064 23.2846C72.4899 23.5016 72.4899 24.0441 72.5981 24.3696C72.8147 25.1291 72.923 25.9971 73.1395 26.7566C73.3561 27.5161 73.5726 28.1671 73.7892 28.9266C73.3561 29.3606 72.8147 29.7946 72.2733 30.1201C71.9485 28.7096 71.6237 27.4076 71.1906 26.1056C70.7575 24.5866 70.3243 23.0676 69.8913 21.5486C69.783 21.3316 69.5664 21.0061 69.3499 21.3316C69.1333 21.5486 69.1333 22.0911 69.2416 22.4166C69.6747 23.9356 70.1078 25.3461 70.5409 26.8651C70.7575 27.6246 70.974 28.2756 71.0823 29.0351C71.1906 29.5776 71.4071 30.1201 71.5154 30.6626C70.974 30.9881 70.3243 31.4221 69.783 31.7476C69.5664 31.8561 69.4581 31.9646 69.2416 31.9646C68.4837 28.7096 67.834 25.4546 67.0761 22.3081C66.9678 22.0911 66.7512 21.7656 66.5347 22.0911C66.3181 22.3081 66.3182 22.8506 66.4264 23.1761C67.1844 26.3226 67.834 29.3606 68.592 32.5071C67.9423 32.8326 67.1843 33.1581 66.5347 33.3751C66.4264 32.9411 66.3181 32.5071 66.1016 32.0731C65.9933 31.8561 65.8851 31.8561 65.7768 31.9646C65.6685 31.6391 65.5602 31.3136 65.4519 30.9881C65.2354 30.1201 65.1271 29.1436 65.0188 28.2756C64.8023 26.5396 64.5857 24.6951 64.1526 22.9591C64.0444 22.7421 63.8278 22.4166 63.6113 22.7421C63.3947 22.9591 63.3947 23.5016 63.503 23.8271C64.0444 25.6716 64.1526 27.5161 64.3692 29.3606C64.5857 30.7711 64.8023 32.3986 65.5602 33.7006C65.0188 33.9176 64.3692 34.0261 63.8278 34.1346C63.9361 34.0261 63.9361 33.9176 64.0444 33.7006C64.0444 33.2666 64.0443 32.8326 63.8278 32.5071C63.1781 30.0116 63.0699 27.2991 62.4202 24.8036C62.312 24.5866 62.0954 24.2611 61.8788 24.4781C61.6623 24.6951 61.6623 25.2376 61.7706 25.5631C62.4202 28.2756 62.5285 31.2051 63.2864 33.9176C63.2864 34.0261 63.3947 34.1346 63.3947 34.1346C63.1782 34.1346 62.9616 34.2431 62.8533 34.2431C62.5285 34.2431 62.0954 34.2431 61.7706 34.2431C61.7706 34.0261 61.7706 33.8091 61.7706 33.5921C61.7706 33.3751 61.7706 33.0496 61.554 33.0496H61.4458C61.2292 32.1816 61.0126 31.3136 60.6878 30.3371C60.363 29.1436 60.0382 27.9501 59.8216 26.8651C59.8216 26.6481 59.4968 26.3226 59.2802 26.5396C59.0637 26.7566 59.0637 27.2991 59.172 27.6246C59.3885 28.8181 59.7133 30.0116 60.0381 31.0966C60.363 32.1816 60.5795 33.1581 60.9044 34.2431C60.363 34.1346 59.7133 34.0261 59.172 33.9176C59.172 33.8091 59.0637 33.7006 58.9554 33.5921C58.8471 33.4836 58.7388 33.5921 58.6306 33.8091H58.5223C58.3057 33.1581 58.1975 32.3986 57.9809 31.6391C57.7644 30.4456 57.4395 29.3606 56.7899 28.2756C56.5733 27.9501 56.3568 28.3841 56.2485 28.6011C56.1402 28.9266 56.1402 29.3606 56.3568 29.6861C56.8982 30.5541 57.1147 31.6391 57.223 32.6156C57.3313 32.9411 57.3313 33.2666 57.4395 33.5921C56.7899 33.3751 56.1402 33.2666 55.4906 33.0496C55.3823 32.6156 55.274 32.2901 55.274 31.8561C55.1657 31.4221 55.0575 30.8796 54.9492 30.4456C54.8409 30.2286 54.6244 29.9031 54.4078 30.1201C54.1913 30.3371 54.1913 30.8796 54.2995 31.2051C54.4078 31.6391 54.5161 32.1816 54.6244 32.6156C54.6244 32.7241 54.6244 32.7241 54.6244 32.8326C54.5161 32.8326 54.4078 32.7241 54.2995 32.7241C54.1913 32.7241 54.083 32.6156 53.9747 32.6156C53.9747 32.5071 53.9747 32.5071 53.9747 32.3986C53.9747 32.2901 53.9747 32.1816 53.9747 31.9646C53.9747 31.7476 53.9747 31.5306 53.8664 31.2051C53.8664 31.0966 53.7582 30.8796 53.6499 30.7711C53.5416 30.6626 53.4333 30.6626 53.3251 30.6626C53.2168 30.7711 53.1085 30.8796 53.1085 30.9881C53.1085 31.2051 53.0002 31.4221 53.1085 31.5306C53.1085 31.7476 53.2168 31.9646 53.2168 32.2901C52.0258 31.9646 50.8347 31.7476 49.6437 31.7476C47.9113 31.6391 46.1789 31.7476 44.5547 32.0731C41.0899 32.7241 37.8416 33.9176 34.4851 35.0026C32.7527 35.5451 31.0202 35.9791 29.2878 36.5216C25.0651 37.6066 20.6258 38.5831 16.2947 38.9086C12.6134 39.1256 7.09131 39.1257 5.14235 35.3281C5.14235 35.3281 5.14234 35.2196 5.03407 35.2196C5.90027 33.3751 6.6582 31.4221 7.0913 29.3606C7.0913 29.5776 7.09131 29.7946 7.19958 30.0116C7.41613 30.2286 7.52441 30.3371 7.74096 30.0116V29.9031C7.74096 30.6626 7.84923 31.3136 7.95751 31.9646C7.95751 32.1816 8.17407 32.3986 8.39062 32.2901C8.60717 32.1816 8.71544 31.7476 8.71544 31.5306C8.71544 31.2051 8.82372 30.6626 8.82372 30.2286C8.82372 30.1201 8.82372 29.7946 8.60717 29.6861H8.49889C8.49889 29.5776 8.49889 29.3606 8.49889 29.2521C8.49889 28.4926 8.49889 27.8416 8.49889 27.0821C8.71544 26.6481 9.04027 26.2141 9.3651 25.7801C9.3651 25.8886 9.3651 25.9971 9.3651 26.1056C9.3651 27.1906 9.47337 28.3841 9.58164 29.4691C9.58164 29.7946 9.58164 30.1201 9.79819 30.4456C9.90647 30.6626 10.123 30.8796 10.3396 30.7711C10.6644 30.6626 10.6644 30.1201 10.5561 29.7946V29.6861V29.5776C10.5561 29.4691 10.5561 29.1436 10.3396 29.0351C10.3396 28.6011 10.2313 28.1671 10.2313 27.8416C10.2313 27.7331 10.2313 27.7331 10.2313 27.6246V27.5161C10.2313 27.4076 10.2313 27.1906 10.2313 27.0821C10.2313 26.7566 10.2313 26.4311 10.2313 26.1056C10.2313 25.8886 10.123 25.4546 9.90647 25.3461C10.123 25.1291 10.2313 24.9121 10.4479 24.6951C10.9892 24.1526 11.5306 23.6101 12.1803 23.0676C12.1803 23.1761 12.1803 23.2846 12.1803 23.3931C12.3968 24.5866 12.5051 25.7801 12.7217 26.9736C12.8299 27.6246 12.8299 28.1671 12.9382 28.8181C13.0465 29.3606 13.0465 30.0116 13.263 30.5541C13.3713 30.6626 13.3713 30.9881 13.5878 30.8796C13.8044 30.8796 13.9127 30.5541 13.9127 30.3371C13.9127 30.0116 13.9127 29.7946 13.9127 29.5776C13.9127 29.4691 13.9127 29.1436 13.6961 29.0351C13.5879 28.8181 13.5878 28.4926 13.5878 28.2756C13.4796 27.7331 13.4796 27.0821 13.3713 26.5396C13.263 25.3461 13.1548 24.1526 12.9382 23.0676C12.9382 22.9591 12.8299 22.8506 12.8299 22.6336C13.4796 22.1996 14.1292 21.7656 14.7789 21.4401C15.3203 21.2231 15.8616 21.0061 16.403 20.7891C16.2947 20.8976 16.2947 21.1146 16.2947 21.2231C16.403 22.4166 16.5113 23.5016 16.7279 24.6951C16.8361 25.2376 16.8361 25.7801 16.9444 26.3226C16.9444 26.8651 16.9444 27.4076 17.0527 27.9501C17.0527 28.1671 17.0527 28.4926 17.2692 28.6011C17.3775 28.7096 17.5941 28.6011 17.7023 28.4926C17.8106 28.1671 17.9189 27.8416 17.9189 27.5161C17.9189 27.2991 17.9189 26.9736 17.8106 26.8651C17.7023 25.0206 17.2692 23.0676 17.1609 21.2231C17.1609 21.1146 17.161 20.7891 17.0527 20.6806C17.5941 20.5721 18.1354 20.4636 18.6768 20.3551C18.4603 20.5721 18.4603 21.1146 18.5685 21.4401C19.1099 23.6101 18.5685 25.7801 19.2182 27.9501C19.2182 28.1671 19.4347 28.3841 19.6513 28.2756C19.8678 28.1671 19.9761 27.7331 19.9761 27.5161C19.9761 27.1906 19.9761 26.8651 19.9761 26.5396C19.9761 26.4311 19.9761 26.1056 19.7596 25.9971C19.6513 25.3461 19.6513 24.6951 19.6513 24.1526C19.6513 22.9591 19.543 21.8741 19.3265 20.6806C19.3265 20.5721 19.2182 20.4636 19.1099 20.3551C19.543 20.3551 19.9761 20.3551 20.4092 20.2466C20.4092 20.4636 20.4092 20.6806 20.4092 20.7891C20.6258 21.9826 20.6258 23.0676 20.7341 24.2611C20.8423 25.4546 21.0589 26.6481 21.7085 27.6246C21.8168 27.8416 22.0334 27.6246 22.1416 27.5161C22.4665 27.0821 22.3582 26.6481 22.3582 26.1056C22.3582 25.9971 22.3582 25.5631 22.1416 25.5631C21.9251 25.4546 21.8168 25.6716 21.8168 25.8886C21.6003 25.2376 21.492 24.4781 21.3837 23.7186C21.2754 22.6336 21.2754 21.5486 21.0589 20.4636V20.3551C21.6003 20.3551 22.1416 20.4636 22.683 20.4636C22.5747 20.6806 22.4665 21.1146 22.5747 21.3316C22.8996 23.2846 22.8996 25.3461 23.3327 27.2991C23.3327 27.5161 23.6575 28.1671 23.874 27.7331C24.1989 27.1906 24.1989 26.6481 24.0906 25.9971C24.0906 25.8886 23.9823 25.5631 23.874 25.5631C23.6575 24.0441 23.6575 22.4166 23.3327 20.8976C23.3327 20.7891 23.3327 20.6806 23.2244 20.5721C24.1989 20.7891 25.1734 21.0061 26.0396 21.3316C26.3644 21.4401 26.5809 21.5486 26.7975 21.6571C26.7975 21.6571 26.7975 21.7656 26.6892 21.7656C26.5809 22.4166 26.4727 23.0676 26.5809 23.7186C26.5809 24.2611 26.6892 24.6951 26.7975 25.2376C26.7975 25.5631 26.9058 25.8886 27.014 26.1056C27.1223 26.3226 27.3389 26.5396 27.5554 26.5396C27.8803 26.5396 27.9885 25.9971 27.9885 25.7801C27.9885 25.6716 28.0968 25.4546 27.9885 25.3461C27.9885 25.2376 27.8803 24.9121 27.772 24.9121H27.6637C27.5554 24.4781 27.5554 24.1526 27.4471 23.7186C27.4471 23.6101 27.4471 23.3931 27.4471 23.2846V23.1761C27.4471 23.0676 27.4471 23.0676 27.4471 22.9591C27.4471 22.8506 27.4471 22.8506 27.4471 22.7421C27.4471 22.6336 27.4471 22.5251 27.4471 22.6336C27.4471 22.5251 27.4471 22.5251 27.4471 22.4166V22.3081C27.4471 22.4166 27.4471 22.4166 27.4471 22.3081C27.4471 22.0911 27.5554 21.8741 27.4471 21.6571C27.8802 21.8741 28.3134 22.0911 28.8547 22.3081C28.8547 22.3081 28.8547 22.3081 28.7465 22.3081C28.4216 22.4166 28.4216 22.9591 28.5299 23.2846C28.6382 23.8271 28.7465 24.4781 28.963 25.0206C29.0713 25.2376 29.1796 25.5631 29.1796 25.7801C29.2878 26.1056 29.3961 26.4311 29.5044 26.6481C29.6127 26.7566 29.7209 26.9736 29.8292 26.8651C29.9375 26.7566 30.0458 26.6481 30.154 26.4311C30.154 26.3226 30.154 26.3226 30.2623 26.2141C30.2623 26.2141 30.2623 26.1056 30.3706 26.1056C30.4789 25.8886 30.4789 25.6716 30.4789 25.4546C30.4789 25.3461 30.3706 25.1291 30.2623 25.1291C30.154 25.1291 30.0458 25.2376 30.0458 25.2376C30.0458 25.1291 30.0458 25.1291 29.9375 25.0206C29.9375 25.0206 29.9375 25.0206 29.9375 24.9121C29.8292 24.6951 29.7209 24.4781 29.7209 24.1526C29.6127 23.9356 29.6127 23.6101 29.5044 23.3931C29.5044 23.2846 29.5044 23.2846 29.5044 23.1761C29.5044 23.1761 29.5044 23.1761 29.5044 23.0676C29.5044 22.9591 29.5044 22.8506 29.3961 22.6336C29.3961 22.5251 29.2878 22.4166 29.2878 22.1996C30.0458 22.6336 30.8037 23.0676 31.5616 23.3931C31.4534 23.5016 31.4533 23.7186 31.4533 23.8271C31.4533 24.2611 31.5616 24.5866 31.6699 25.0206C31.6699 25.1291 31.6699 25.1291 31.7782 25.2376H31.8865C31.9947 25.1291 31.9947 24.9121 31.9947 24.6951C31.9947 24.5866 31.9947 24.4781 31.8865 24.3696V24.2611C31.8865 24.0441 31.7782 23.9356 31.7782 23.7186V23.6101C32.3196 23.7186 32.103 22.4166 31.8865 22.3081C31.1285 21.6571 30.0458 21.2231 29.1796 20.7891C28.3134 20.3551 27.4471 19.9211 26.5809 19.5956C24.8485 18.9446 23.0078 18.4021 21.1671 18.4021C17.2692 18.2936 13.5878 19.8126 10.8809 22.6336C10.123 23.3931 9.3651 24.2611 8.82372 25.2376C8.60717 25.6716 8.39061 26.2141 8.28234 26.6481C8.17406 27.2991 8.17407 27.9501 7.84924 28.4926C7.84924 28.6011 7.74096 28.6011 7.74096 28.7096C8.06579 26.9736 7.95751 25.0206 7.41613 23.2846C6.87475 21.6571 5.90026 20.3551 4.92578 18.9446C3.84303 17.4256 3.84303 16.3406 4.70923 14.7131C5.68372 12.9771 7.41614 11.6751 9.14855 10.5901C12.5051 8.52857 16.403 7.00956 20.301 6.68406C22.0334 6.57556 23.8741 6.57556 25.7147 6.68406C25.2816 9.17957 25.823 11.8921 27.3389 14.0621L27.4471 14.1706C27.4471 14.6046 27.6637 14.9301 27.8803 14.8216C27.8803 14.8216 27.8802 14.8216 27.9885 14.8216C29.5044 16.3406 31.5616 17.2086 33.7271 17.1001C33.9437 17.1001 34.1602 16.7746 34.1602 16.3406C35.0264 15.6896 36.0009 15.2556 36.9754 14.8216C37.4085 14.6046 37.9499 14.3876 38.383 14.1706C38.5995 14.0621 38.7078 14.0621 38.9244 13.9536C39.0326 13.8451 39.1409 13.7366 39.2492 13.6281C39.4658 13.9536 39.6823 14.3876 39.7906 14.7131V14.8216C39.6823 14.8216 39.6823 14.8216 39.574 14.8216C39.4658 14.8216 39.4658 14.8216 39.3575 14.9301C39.0327 15.0386 38.7078 15.2556 38.2747 15.3641C37.5168 15.6896 36.7589 16.1236 36.1092 16.4491C35.6761 16.6661 35.7844 18.1851 36.3258 17.8596C37.0837 17.5341 37.7333 17.1001 38.4913 16.7746C38.8161 16.5576 39.1409 16.4491 39.4657 16.3406C39.4657 16.3406 39.574 16.3406 39.6823 16.2321C39.6823 16.3406 39.6823 16.5576 39.7906 16.6661C39.8989 16.9916 40.0071 17.3171 40.2237 17.6426H40.1154C39.8989 17.7511 39.7906 17.8596 39.574 17.9681C39.1409 18.1851 38.7078 18.4021 38.1665 18.6191C38.0582 18.6191 37.9499 18.8361 37.9499 18.9446C37.9499 19.1616 37.8416 19.3786 37.9499 19.4871C37.9499 19.5956 38.0582 19.8126 38.1665 19.9211C38.2747 20.0296 38.383 20.0296 38.4913 20.0296C39.3575 19.8126 40.0071 19.2701 40.7651 19.0531C41.0899 19.7041 41.7395 20.0296 42.1726 18.7276C42.4975 17.8596 42.6058 17.1001 42.9306 16.2321C43.1471 15.4726 43.5802 14.8216 44.0133 14.1706C44.2299 13.8451 44.3382 13.5196 44.4464 13.1941C44.8795 12.6516 45.4209 12.2176 45.9623 11.8921C47.6947 10.4816 49.8602 9.50507 51.9175 8.85406C53.8664 8.20306 55.9237 7.66056 57.9809 7.55206H58.0892C58.9554 7.66056 59.8216 7.66056 60.6878 7.66056C62.745 7.87756 64.8023 8.52857 66.7513 9.28807C68.0506 9.72207 69.3499 10.1561 70.6492 10.5901C71.2988 10.8071 72.0568 11.1326 72.8147 11.4581C74.8719 13.9536 76.3878 16.8831 76.8209 20.1381C75.8464 21.7656 75.8464 23.2846 75.5216 24.8036Z" fill="black"/>
<path d="M53.434 20.5732C53.434 20.4647 53.434 20.4647 53.434 20.3562C53.434 19.9222 53.3257 19.5967 53.2174 19.1627C53.1092 18.7287 53.0009 18.2947 52.8926 17.8607C52.8926 17.7522 52.7843 17.5352 52.6761 17.5352C52.5678 17.5352 52.4595 17.5352 52.3513 17.6437C52.1347 17.9692 52.1347 18.4032 52.243 18.7287C52.243 18.9457 52.3513 19.0542 52.3513 19.2712C52.3513 19.3797 52.3512 19.3797 52.4595 19.4882V19.5967C52.4595 19.8137 52.5678 19.9222 52.5678 20.1392C52.5678 20.3562 52.6761 20.6817 52.7844 20.8987C52.7844 21.0072 52.8926 21.1157 53.0009 21.1157C53.1091 21.1157 53.2174 21.0072 53.2174 20.8987C53.434 20.8987 53.434 20.7902 53.434 20.5732C53.434 20.6817 53.434 20.6817 53.434 20.5732C53.434 20.6817 53.434 20.5732 53.434 20.5732Z" fill="black"/>
<path d="M54.624 18.8367C54.624 18.6197 54.624 18.4027 54.5157 18.2942H54.4074C54.4074 18.2942 54.4074 18.2942 54.4074 18.1857V18.0772V17.9687C54.4074 17.8602 54.4074 17.8602 54.4074 17.7517C54.4074 17.5347 54.4074 17.3177 54.2992 17.2092C54.2992 17.1007 54.1909 16.9922 54.0826 16.9922C53.7578 16.9922 53.7578 17.5347 53.7578 17.7517C53.7578 18.1857 53.7578 18.5112 53.8661 18.9452C53.8661 19.1622 53.9743 19.3792 54.0826 19.7047C54.0826 19.8132 54.1909 19.8132 54.1909 19.9217C54.2992 20.0302 54.2992 20.0302 54.4074 20.1387L54.5157 20.2472H54.4074C54.624 20.3557 54.8405 20.0302 54.8405 19.8132C54.8405 19.5962 54.8405 19.3792 54.8405 19.1622C54.7322 18.9452 54.624 18.8367 54.624 18.8367Z" fill="black"/>
<path d="M60.3638 14.4968C60.039 13.6288 58.7396 13.7373 57.9817 13.8458C56.899 13.9543 55.9245 14.1713 54.8417 14.4968C53.759 14.8223 52.568 15.2563 51.7018 16.0158C50.7273 16.8838 50.1859 17.9688 49.6446 19.1623C49.5363 19.4878 49.428 19.9218 49.6446 20.2473C49.7528 20.4643 50.0777 20.5728 50.1859 20.2473C50.2942 19.8133 50.5108 19.4878 50.7273 19.1623C50.7273 19.2708 50.7273 19.2708 50.7273 19.3793C50.7273 19.4878 50.7273 19.5963 50.7273 19.7048C50.7273 19.8133 50.7273 19.9218 50.7273 20.1388C50.7273 20.1388 50.7273 20.1388 50.7273 20.2473C50.7273 20.3558 50.7273 20.3558 50.7273 20.4643C50.7273 21.0068 50.7273 21.6578 50.8356 22.2003C50.8356 22.4173 51.0521 22.9598 51.3769 22.6343C51.4852 22.4173 51.7018 22.2003 51.7018 21.9833C51.8101 21.7663 51.8101 21.5493 51.8101 21.3323C51.8101 21.1153 51.8101 20.8983 51.7018 20.6813C51.5935 20.5728 51.5935 20.5728 51.4852 20.6813C51.4852 20.5728 51.4852 20.4643 51.4852 20.3558C51.4852 19.7048 51.377 19.0538 51.2687 18.4028C51.2687 18.4028 51.2687 18.4028 51.2687 18.2943C51.4852 18.0773 51.7018 17.7518 51.9183 17.5348C52.7845 16.7753 53.759 16.3413 54.8417 16.1243C55.3831 16.0158 55.9245 15.7988 56.5742 15.6903C56.3576 16.0158 56.2493 16.3413 56.1411 16.6668C56.0328 16.8838 56.0328 17.1008 55.9245 17.3178C55.9245 17.2093 55.8162 17.1008 55.8162 16.9923C55.8162 16.8838 55.8162 16.8838 55.7079 16.7753V16.6668C55.7079 16.8838 55.7079 16.6668 55.7079 16.6668C55.7079 16.4498 55.4914 16.0158 55.2748 16.1243C54.95 16.2328 54.95 16.7753 55.0583 17.1008C55.1666 17.5348 55.2748 17.8603 55.3831 18.2943C55.4914 18.6198 55.5997 19.0538 55.9245 19.3793C56.141 19.5963 56.3576 19.3793 56.3576 19.1623C56.4659 18.9453 56.4659 18.6198 56.3576 18.4028V18.2943C56.3576 18.1858 56.3576 18.0773 56.3576 17.9688C56.3576 17.8603 56.3576 17.7518 56.3576 17.5348C56.3576 17.4263 56.3576 17.4263 56.3576 17.3178C56.3576 17.2093 56.3576 17.2093 56.3576 17.2093C56.4659 16.8838 56.5741 16.4498 56.7907 16.1243C56.7907 16.2328 56.7907 16.3413 56.7907 16.3413C56.7907 16.5583 56.899 16.7753 56.899 16.9923C56.899 17.1008 56.899 17.2093 56.899 17.3178V17.4263C56.899 17.4263 56.899 17.4263 56.899 17.5348C56.899 17.8603 56.899 18.0773 57.0072 18.4028C57.0072 18.5113 57.2238 18.8368 57.3321 18.7283C57.4403 18.7283 57.4403 18.6198 57.5486 18.6198C57.6569 18.5113 57.6569 18.4028 57.6569 18.1858C57.6569 18.0773 57.6569 17.8603 57.6569 17.7518C57.6569 17.6433 57.6569 17.4263 57.5486 17.3178C57.5486 17.3178 57.5486 17.2093 57.4403 17.2093C57.4403 16.9923 57.3321 16.7753 57.3321 16.6668C57.3321 16.4498 57.2238 16.2328 57.1155 16.0158C57.1155 15.9073 57.0072 15.7988 57.0072 15.6903C57.1155 15.6903 57.3321 15.5818 57.4403 15.5818C57.7652 15.5818 58.4148 15.4733 58.9562 15.4733C58.8479 15.5818 58.8479 15.5818 58.8479 15.6903C58.8479 15.9073 58.7397 16.0158 58.8479 16.2328C58.8479 16.4498 58.9562 16.6668 58.9562 16.9923C58.9562 17.1008 58.9562 17.2093 59.0645 17.3178C59.0645 17.4263 59.0645 17.5348 59.1727 17.5348C59.1727 17.6433 59.281 17.6433 59.281 17.7518C59.3893 17.8603 59.4976 17.8603 59.6058 17.7518C59.7141 17.6433 59.7141 17.4263 59.7141 17.2093C59.7141 17.1008 59.7141 16.9923 59.7141 16.8838C59.7141 16.7753 59.7141 16.6668 59.6058 16.5583V16.6668C59.4976 16.4498 59.4976 16.1243 59.4976 15.9073C59.4976 15.7988 59.4976 15.6903 59.3893 15.6903C59.4976 15.6903 59.6058 15.7988 59.6058 15.9073C59.8224 16.1243 60.0389 15.9073 60.0389 15.6903C60.5803 15.1478 60.4721 14.8223 60.3638 14.4968Z" fill="black"/>
<path d="M61.6624 15.1484C61.4459 15.1484 61.4459 15.7994 61.6624 15.7994C61.879 15.7994 61.879 15.1484 61.6624 15.1484Z" fill="black"/>
<path d="M15.536 11.6753C14.5615 11.5668 13.4788 11.8923 12.7208 12.3263C11.7463 12.7603 10.8801 13.5198 10.447 14.4963C10.3387 14.8218 10.2305 15.1473 10.2305 15.4728C10.2305 15.6898 10.2305 16.6663 10.6636 16.5578C10.8801 16.5578 10.8801 16.3408 10.9884 16.2323C10.9884 16.1238 11.0967 15.9068 11.0967 15.7983C11.0967 15.6898 11.0967 15.5813 11.0967 15.5813V15.4728C11.0967 15.4728 11.0967 15.4728 11.0967 15.3643C11.0967 15.3643 11.0967 15.2558 11.205 15.2558C11.205 15.2558 11.205 15.1473 11.3132 15.1473C11.6381 14.7133 12.0712 14.3878 12.5043 14.0623C13.3705 13.5198 14.5615 13.0858 15.6443 13.1943C15.9691 13.1943 16.0774 12.6518 15.9691 12.4348C15.8609 12.1093 15.8608 11.6753 15.536 11.6753Z" fill="black"/>
</svg>
