<svg width="64" height="47" viewBox="0 0 64 47" fill="none" xmlns="http://www.w3.org/2000/svg">
<path d="M24.3487 22.6998L6.05013 21.9403L2.5853 24.0018C2.5853 24.0018 -1.20435 32.3564 5.83357 38.5409C12.8715 44.7254 62.2452 29.6439 62.2452 29.6439C62.2452 29.6439 63.761 16.6238 50.3349 16.1898L44.9211 16.7323L36.6921 4.36328H27.597L18.5018 8.26929L12.8715 14.1283L11.7887 19.2278L9.62321 19.7703C9.62321 19.7703 16.986 22.6998 24.3487 22.6998Z" fill="white"/>
<path d="M59.7529 27.4738C59.7529 27.4738 59.7529 27.3653 59.7529 27.4738C59.7529 27.3653 59.7529 27.2568 59.7529 27.2568C59.7529 27.2568 59.7529 27.2568 59.7529 27.1483C59.7529 27.0398 59.753 26.9313 59.6447 26.8228C59.6447 26.7143 59.5364 26.4973 59.5364 26.3888C59.5364 26.2803 59.4281 26.0633 59.4281 25.9548C59.4281 25.8463 59.4281 25.8463 59.4281 25.7378C59.4281 25.6293 59.3199 25.4123 59.2116 25.3038C59.1033 25.1953 58.995 25.1953 58.8868 25.1953C58.5619 25.4123 58.562 25.8463 58.6702 26.1718C58.6702 26.4973 58.7785 26.9313 58.8868 27.2568C58.8868 27.4738 58.9951 27.5823 59.1033 27.7993C59.1033 27.7993 59.1033 27.9078 59.2116 27.9078C59.3199 28.0163 59.3199 28.0163 59.4281 28.1248C59.5364 28.2333 59.6447 28.0163 59.7529 27.9078V27.7993C59.7529 27.7993 59.7529 27.7993 59.7529 27.6908C59.7529 27.5823 59.7529 27.4738 59.7529 27.4738Z" fill="black"/>
<path d="M61.0531 25.9551C60.8365 25.9551 60.8365 26.6061 61.0531 26.6061C61.2696 26.6061 61.2696 25.9551 61.0531 25.9551Z" fill="black"/>
<path d="M24.8885 11.524C24.8885 11.4154 24.7802 11.1984 24.6719 11.3069C24.6719 10.8729 24.6719 10.5474 24.7802 10.1134C24.7802 9.35394 24.7802 8.59444 24.5637 7.83494C24.5637 7.61794 24.3471 7.18394 24.1306 7.40094C23.914 7.61794 23.914 8.05194 24.0223 8.26894C24.1306 8.91994 24.1306 9.46244 24.1306 10.1134C24.1306 10.7644 24.0223 11.4154 24.0223 12.0665C24.0223 12.2835 24.1306 12.826 24.4554 12.609C24.6719 12.392 24.7802 12.2835 24.8885 12.0665C24.8885 11.958 24.8885 11.6325 24.8885 11.524Z" fill="black"/>
<path d="M26.1888 10.6569C26.0806 10.6569 26.0806 10.5484 26.1888 10.6569C26.0806 10.6569 26.0806 10.5484 26.1888 10.6569C26.0806 10.5484 26.0806 10.5484 26.1888 10.6569C26.0806 10.5484 26.0806 10.5484 26.0806 10.4399C26.0806 10.5484 26.0806 10.4399 26.0806 10.4399V10.3314C26.0806 10.2229 26.0806 10.1144 26.0806 10.1144V10.0059C26.0806 9.78893 26.0806 9.68043 26.1888 9.46342C26.2971 8.70392 26.4054 7.83592 26.0806 7.07642C25.9723 6.85942 25.864 6.64242 25.6475 6.85942C25.4309 7.07642 25.4309 7.51042 25.5392 7.72742V7.83592C25.5392 7.94442 25.5392 8.05292 25.5392 8.05292V8.16142C25.5392 8.26992 25.5392 8.37842 25.5392 8.37842V8.48692C25.5392 8.59542 25.5392 8.70392 25.5392 8.70392C25.5392 8.92092 25.5392 9.13792 25.4309 9.24642C25.4309 9.68043 25.3227 10.0059 25.4309 10.4399C25.4309 10.7654 25.6475 11.1994 25.864 11.1994C26.2971 11.6334 26.2971 10.7654 26.1888 10.6569Z" fill="black"/>
<path d="M28.0292 10.2221C28.0292 9.89661 28.0292 9.4626 28.0292 9.1371C28.0292 8.4861 27.9209 7.7266 28.0292 7.0756C28.0292 6.8586 28.0292 6.4246 27.8126 6.3161C27.5961 6.2076 27.3795 6.6416 27.3795 6.7501C27.2712 7.5096 27.2712 8.3776 27.2712 9.1371C27.2712 9.57111 27.2712 9.89661 27.2712 10.3306C27.2712 10.7646 27.163 11.3071 27.4878 11.6326C27.5961 11.7411 27.7043 11.7411 27.8126 11.6326C28.0292 11.4156 28.0292 11.0901 28.0292 10.8731C28.0292 10.6561 28.0292 10.4391 28.0292 10.2221Z" fill="black"/>
<path d="M32.1435 11.7406C32.1435 10.9811 32.0352 10.2216 32.0352 9.57064C32.0352 9.24514 32.0352 8.91964 32.0352 8.59414C32.0352 8.48564 32.0352 8.48564 32.0352 8.37714C32.0352 8.26864 32.0352 8.26864 32.0352 8.16014V8.05164C32.1435 7.83464 32.1435 7.40064 31.9269 7.18363C31.7104 6.96663 31.4938 7.18363 31.4938 7.40064C31.169 8.70264 31.3855 10.1131 31.4938 11.3066C31.4938 11.9577 31.6021 12.5002 31.6021 13.1512C31.6021 13.4767 31.6021 13.4767 31.6021 13.8022C31.6021 13.6937 31.4938 13.9107 31.6021 13.9107C31.6021 14.0192 31.6021 14.0192 31.4938 14.0192C31.3855 14.1277 31.2773 14.8872 31.6021 14.8872C32.0352 14.7787 32.1435 14.2362 32.1435 13.8022C32.2517 13.0427 32.2517 12.3917 32.1435 11.7406Z" fill="black"/>
<path d="M36.3672 11.1982C36.3672 10.8727 36.4755 10.4387 36.4755 10.1132C36.4755 9.7877 36.5838 9.4622 36.692 9.1367C36.8003 8.8112 36.8003 8.4857 36.5838 8.1602C36.3672 7.9432 36.1507 8.1602 36.1507 8.3772C35.9341 9.1367 35.8259 10.0047 35.7176 10.7642C35.6093 11.5237 35.501 12.3917 35.6093 13.2597C35.6093 13.3682 35.7176 13.8022 35.9341 13.6937C36.0424 13.5852 36.1507 13.5852 36.2589 13.3682C36.2589 13.3682 36.3672 13.1512 36.3672 13.2597C36.3672 13.1512 36.4755 13.1512 36.4755 13.0427C36.5838 12.9342 36.5838 12.6087 36.5838 12.5002C36.5838 12.3917 36.4755 12.1747 36.3672 12.2832C36.3672 12.2832 36.3672 12.2832 36.2589 12.2832V12.1747C36.2589 11.8492 36.3672 11.5237 36.3672 11.1982Z" fill="black"/>
<path d="M38.2083 12.8257V12.7172C38.2083 12.6087 38.2083 12.5002 38.2083 12.3917C38.2083 12.2832 38.2083 12.1747 38.2083 12.0662V11.9577C38.2083 11.7407 38.2083 11.5237 38.2083 11.3067C38.2083 10.5472 38.3165 9.67916 38.3165 8.91966C38.3165 8.70266 38.2083 8.16016 37.9917 8.16016C37.6669 8.16016 37.6669 8.70266 37.6669 8.91966C37.6669 9.78766 37.5586 10.6557 37.5586 11.5237C37.5586 11.9577 37.5586 12.3917 37.6669 12.8257C37.6669 13.0427 37.7752 13.2597 37.8834 13.4767C37.9917 13.6937 37.9917 13.9107 38.2083 14.0192C38.5331 14.1277 38.5331 13.6937 38.5331 13.4767C38.3165 13.2597 38.2083 13.1512 38.2083 12.8257Z" fill="black"/>
<path d="M41.6722 12.6094C41.4556 12.6094 41.4556 13.2604 41.6722 13.2604C41.8887 13.2604 41.8887 12.6094 41.6722 12.6094Z" fill="black"/>
<path d="M19.5826 9.67969C19.2578 9.67969 19.2578 10.1137 19.2578 10.3307C19.2578 10.7647 19.2578 11.3072 19.2578 11.7412C19.2578 11.9582 19.2578 12.2837 19.2578 12.5007C19.2578 12.6092 19.2578 12.7177 19.2578 12.8262C19.2578 12.9347 19.2578 13.0432 19.2578 13.0432C19.2578 13.1517 19.2578 13.2602 19.3661 13.2602V13.3687C19.4744 13.5857 19.6909 13.5857 19.6909 13.3687C19.6909 13.3687 19.6909 13.3687 19.6909 13.2602C19.7992 13.1517 19.7992 12.8262 19.7992 12.7177C19.7992 12.6092 19.7992 12.5007 19.7992 12.3922C19.7992 12.1752 19.7992 11.8497 19.7992 11.6327C19.7992 11.0902 19.7992 10.6562 19.7992 10.2222C19.9075 10.1137 19.7992 9.67969 19.5826 9.67969Z" fill="black"/>
<path d="M18.5016 11.3075C18.6099 11.0905 18.6099 10.6565 18.3933 10.4395C18.1768 10.2225 18.0685 10.4395 17.9602 10.6565C17.8519 11.0905 17.7437 11.5245 17.6354 11.9585C17.5271 12.3925 17.3105 12.8265 17.3105 13.369C17.3105 13.586 17.3106 13.803 17.4188 13.9115C17.5271 14.02 17.6354 14.02 17.7437 13.9115C17.9602 13.6945 18.0685 13.586 18.1768 13.369C18.2851 13.2605 18.2851 12.935 18.1768 12.8265C18.1768 12.8265 18.1768 12.8265 18.1768 12.718C18.1768 12.6095 18.1768 12.6095 18.1768 12.501C18.2851 12.1755 18.3933 11.7415 18.5016 11.3075Z" fill="black"/>
<path d="M16.9848 13.6945C16.9848 13.586 16.8765 13.4775 16.8765 13.4775C16.8765 13.4775 16.8765 13.4775 16.8765 13.369C16.8765 13.369 16.7682 13.2605 16.7682 13.152V13.2605C16.7682 13.2605 16.7682 13.2605 16.7682 13.152V13.0435V12.935V12.8265V12.718V12.6095C16.7682 12.501 16.7682 12.501 16.7682 12.3925C16.7682 12.1755 16.7682 11.9585 16.6599 11.85C16.4434 11.7415 16.4434 12.067 16.3351 12.1755C16.2268 12.6095 16.2268 12.935 16.3351 13.369C16.3351 13.6945 16.4434 14.1285 16.6599 14.454C16.6599 14.5625 16.7682 14.5625 16.8765 14.5625C16.9848 14.5625 16.9848 14.454 17.093 14.454C17.093 14.1285 17.093 13.9115 16.9848 13.6945Z" fill="black"/>
<path d="M21.965 26.6063C21.965 26.4978 21.8567 26.2808 21.7484 26.2808C21.4236 26.1723 21.3153 26.6063 21.3153 26.8233C21.207 27.2573 21.207 27.6913 21.207 28.0168C21.207 28.4508 21.207 28.9933 21.4236 29.4273C21.4236 29.5358 21.6401 29.6443 21.7484 29.5358C21.7484 29.5358 21.7484 29.5358 21.8567 29.4273C21.8567 29.4273 21.8567 29.4273 21.965 29.3188C21.965 29.2103 22.0732 29.1018 22.0732 29.1018C22.0732 28.9933 22.0732 28.8848 22.0732 28.8848C22.0732 28.7763 22.0732 28.6678 22.0732 28.5593C22.0732 28.3423 22.0732 28.2338 22.0732 28.0168C22.0732 27.9083 22.0732 27.6913 22.0732 27.5828V27.4743C22.0732 27.3658 22.0732 27.2573 22.0732 27.1488C21.965 27.0403 21.965 26.8233 21.965 26.6063Z" fill="black"/>
<path d="M63.436 25.4124C63.436 25.3039 63.2194 24.6529 63.0029 24.8699C62.2449 21.9404 60.5126 19.4449 58.0222 17.6003C54.4491 14.9963 49.7933 14.0198 45.5705 15.3218C45.6788 11.3073 45.1374 6.85881 42.214 3.9293C39.5071 1.21679 35.6091 0.674292 32.036 1.10829C27.9216 1.6508 23.8071 3.2783 20.234 5.44831C17.094 7.40131 13.954 9.89682 12.2216 13.2603C11.3554 14.8878 11.0306 16.6238 11.1388 18.2513C8.54022 17.0578 5.72504 16.8408 3.45125 19.1194C0.636084 21.9404 0.202984 26.8229 0.527811 30.6204C0.852638 34.8519 2.3685 39.4089 5.5085 42.3384C7.78229 44.3999 10.4892 46.1359 13.5209 46.6784C16.0112 47.1124 18.5016 46.6784 20.7754 45.8104C22.2912 45.2679 23.8071 44.7254 25.3229 44.0744C25.4312 43.9659 25.5395 43.8574 25.5395 43.7489C26.7305 43.4234 27.9216 42.9894 29.1126 42.6639C32.3609 41.6874 35.8257 40.9279 39.1822 40.8194C41.0229 40.7109 42.8636 40.7109 44.8126 40.7109C44.9208 40.8194 45.0291 40.9279 45.1374 41.0364C48.7105 40.9279 52.6084 40.6024 55.965 39.1919C56.8312 38.9749 57.5891 38.6494 58.4553 38.4324C58.6719 38.3239 58.8884 37.8899 58.8884 37.4559C61.487 35.1774 63.1112 31.8139 63.2194 28.3419C63.2194 27.6909 63.2194 27.0399 63.1112 26.3889C63.436 26.0634 63.5443 25.7379 63.436 25.4124ZM61.487 27.2569C61.2705 27.0399 61.0539 27.0399 60.8374 27.1484C60.7291 27.0399 60.7291 26.8229 60.6208 26.7144C60.5125 26.3889 60.4043 26.1719 60.296 25.8464C60.296 25.7379 60.1877 25.6294 60.0794 25.6294C59.9712 25.6294 59.8629 25.7379 59.8629 25.8464C59.7546 26.1719 59.7546 26.4974 59.8629 26.7144C59.9712 27.0399 60.0794 27.2569 60.1877 27.5824V27.6909C60.0794 27.9079 59.9712 28.1249 59.9712 28.3419C59.5381 28.5589 59.105 28.7759 58.6719 28.9929C58.6719 28.7759 58.6719 28.5589 58.5636 28.4504C58.5636 28.4504 58.5636 28.3419 58.4553 28.3419C58.4553 28.3419 58.4553 28.3419 58.4553 28.2334C58.4553 28.3419 58.4553 28.4504 58.4553 28.5589C58.4553 28.3419 58.4553 28.2334 58.347 28.0164C58.347 27.9079 58.347 27.9079 58.2388 27.7994C58.2388 27.6909 58.1305 27.4739 58.1305 27.3654C58.1305 27.2569 58.1305 27.1484 58.0222 27.1484V27.0399C58.0222 26.9314 57.9139 26.7144 57.9139 26.4974C57.9139 26.3889 57.8057 26.1719 57.6974 26.0634C57.5891 25.9549 57.4808 25.9549 57.3725 25.9549C57.0477 26.1719 57.0477 26.6059 57.156 26.9314C57.156 27.3654 57.2643 27.6909 57.3725 28.1249C57.4808 28.4504 57.5891 28.8844 57.8056 29.2099C57.8056 29.2099 57.8056 29.2099 57.9139 29.2099L58.0222 29.3184C57.9139 29.3184 57.8057 29.4269 57.6974 29.4269C57.3726 29.5354 57.156 29.6439 56.8312 29.7524C56.8312 29.6439 56.8312 29.4269 56.8312 29.3184C56.8312 29.2099 56.8312 29.1014 56.7229 29.1014V28.9929C56.6146 28.8844 56.6146 28.7759 56.7229 28.8844V28.7759V28.6674C56.7229 28.5589 56.6146 28.4504 56.6146 28.4504V28.3419V28.2334V28.1249V28.0164C56.6146 27.9079 56.6146 27.7994 56.6146 27.7994V27.6909C56.6146 27.4739 56.6146 27.2569 56.6146 27.1484C56.6146 27.0399 56.5063 26.8229 56.3981 26.8229C56.0732 26.7144 55.965 27.1484 55.965 27.3654C55.8567 27.9079 55.8567 28.4504 55.965 28.9929C56.0732 29.3184 56.0732 29.5354 56.1815 29.8609C56.1815 29.9694 56.2898 30.0779 56.3981 30.1864L56.5063 30.2949C56.1815 30.4034 55.8567 30.5119 55.6401 30.5119V30.4034C55.6401 30.2949 55.5319 30.0779 55.5319 29.9694V29.8609C55.5319 29.7524 55.5319 29.7524 55.5319 29.6439C55.5319 29.4269 55.5319 29.3184 55.4236 29.1014C55.3153 28.4504 55.3153 27.6909 55.207 27.0399C55.207 26.8229 54.9905 26.3889 54.7739 26.4974C54.4491 26.6059 54.4491 27.1484 54.5574 27.4739C54.6656 28.1249 54.7739 28.7759 54.7739 29.5354C54.7739 29.8609 54.8822 30.2949 54.9905 30.6204V30.7289C54.3408 30.8374 53.5829 30.9459 52.9332 30.9459C52.9332 30.7289 52.9332 30.6204 52.9332 30.4034C52.9332 29.8609 52.9332 29.3184 52.9332 28.7759C52.9332 28.2334 52.9332 27.5824 52.9332 27.0399C52.9332 26.9314 52.9332 27.0399 52.9332 26.9314C52.9332 26.8229 52.9332 26.8229 52.9332 26.7144C52.9332 26.6059 52.9332 26.3889 52.9332 26.2804C52.9332 26.1719 52.9332 26.0634 53.0415 25.8464V25.7379V25.6294C53.1498 25.3039 53.1498 24.8699 52.9332 24.5444C52.7167 24.3274 52.5001 24.5444 52.3919 24.7614C52.067 25.9549 52.067 27.2569 52.067 28.5589C52.067 29.1014 52.067 29.7524 52.067 30.2949C52.067 30.5119 52.067 30.6204 52.067 30.8374C51.7422 30.8374 51.4174 30.8374 51.0926 30.8374C50.9843 30.0779 50.876 29.3184 50.876 28.5589C50.876 27.3654 50.876 26.0634 51.2008 24.8699C51.3091 24.5444 51.3091 24.1104 51.0926 23.7849C50.876 23.5679 50.6595 23.7849 50.5512 24.0019C50.2263 25.4124 50.1181 26.9314 50.1181 28.4504C50.1181 29.2099 50.2264 29.9694 50.3346 30.6204C50.2264 30.6204 50.0098 30.6204 49.9015 30.6204C49.685 30.6204 49.4684 30.6204 49.3602 30.5119C49.2519 30.1864 49.2519 29.8609 49.2519 29.5354V29.4269C49.2519 29.3184 49.2519 29.3184 49.2519 29.4269V29.3184C49.2519 29.1014 49.2519 28.9929 49.2519 28.7759C49.2519 28.4504 49.2519 28.0164 49.2519 27.6909C49.2519 27.4739 49.1436 26.9314 48.927 26.9314C48.6022 26.9314 48.6022 27.4739 48.6022 27.6909C48.6022 28.4504 48.6022 29.3184 48.6022 30.0779C48.6022 30.2949 48.7105 30.4034 48.7105 30.6204C48.4939 30.6204 48.1691 30.6204 47.9526 30.5119C47.9526 30.4034 47.9526 30.2949 47.9526 30.2949C47.9526 29.6439 47.8443 28.8844 47.6277 28.2334C47.5195 28.0164 47.3029 27.6909 47.0864 27.9079C46.8698 28.1249 46.8698 28.6674 46.9781 28.9929C46.9781 29.1014 47.0864 29.2099 47.0864 29.4269V29.5354C47.0864 29.6439 47.0864 29.6439 47.0864 29.7524C47.0864 29.8609 47.0864 29.9694 47.0864 30.0779C47.0864 30.1864 47.0864 30.1864 47.0864 30.2949V30.4034C46.7615 30.4034 46.3284 30.2949 46.0036 30.2949C46.0036 30.2949 45.8953 30.1864 46.0036 30.1864C46.0036 30.1864 46.0036 30.1864 46.0036 30.0779C46.0036 30.0779 46.0036 29.9694 45.8953 29.9694V29.8609C45.8953 29.7524 45.8953 29.7524 45.8953 29.6439V29.5354C45.8953 29.4269 45.8953 29.4269 45.8953 29.3184C45.8953 28.6674 45.8953 27.9079 45.6788 27.2569C45.5705 27.0399 45.3539 26.7144 45.1374 26.9314C44.9208 27.1484 44.9208 27.6909 45.0291 28.0164C45.0291 28.1249 45.0291 28.1249 45.1374 28.2334V28.3419C45.1374 28.4504 45.1374 28.4504 45.1374 28.5589V28.6674C45.1374 28.9929 45.1374 29.3184 45.1374 29.7524C45.1374 29.8609 45.1374 30.0779 45.1374 30.1864C44.8126 30.1864 44.4877 30.0779 44.2712 30.0779C44.2712 29.8609 44.2712 29.6439 44.2712 29.4269C44.2712 28.7759 44.2712 28.2334 44.2712 27.5824C44.2712 27.3654 44.1629 26.8229 43.9464 26.8229C43.6215 26.8229 43.6215 27.3654 43.6215 27.5824C43.6215 28.2334 43.6215 28.7759 43.6215 29.4269C43.6215 29.6439 43.6215 29.8609 43.6215 30.0779C43.2967 30.0779 43.0802 30.0779 42.7553 30.0779C42.7553 29.9694 42.7553 29.8609 42.7553 29.9694C42.7553 29.8609 42.7553 29.8609 42.7553 29.7524C42.7553 29.5354 42.7553 29.4269 42.7553 29.2099C42.7553 28.4504 42.6471 27.5824 42.5388 26.8229C42.5388 26.6059 42.214 26.2804 41.9974 26.6059C41.7809 26.8229 41.7808 27.3654 41.8891 27.6909C41.8891 27.7994 41.8891 27.7994 41.8891 27.6909V27.7994C41.8891 27.9079 41.8891 27.9079 41.8891 28.0164C41.8891 28.2334 41.8891 28.3419 41.8891 28.5589V28.7759C41.8891 28.8844 41.8891 28.8844 41.8891 28.9929C41.8891 29.2099 41.8891 29.3184 41.8891 29.5354C41.8891 29.7524 41.8891 29.9694 41.8891 30.0779C41.456 30.0779 41.0229 30.0779 40.5898 30.1864C37.5581 30.4034 34.7429 31.3799 31.9278 32.3564C28.3547 33.6584 24.6733 34.8519 20.8836 35.6114C17.4188 36.3709 13.7374 36.8049 10.1643 36.3709C6.69952 35.9369 3.34298 34.2009 2.69333 30.5119C2.69333 30.2949 2.58506 29.8609 2.26023 29.9694C2.15195 28.7759 2.15194 27.5824 2.36849 26.3889C4.64228 24.1104 8.64849 24.9784 11.4637 25.5209C13.1961 25.8464 14.9285 26.0634 16.7692 26.1719C17.5271 26.2804 18.3933 26.2804 19.1512 26.2804C19.043 26.2804 18.9347 26.4974 18.9347 26.6059C18.8264 27.0399 18.7181 27.5824 18.7181 28.0164C18.7181 28.4504 18.8264 28.9929 19.043 29.4269C19.1512 29.5354 19.2595 29.6439 19.3678 29.5354C19.476 29.3184 19.4761 29.1014 19.4761 28.8844C19.4761 28.6674 19.476 28.5589 19.3678 28.3419V28.2334C19.3678 28.1249 19.3678 28.1249 19.3678 28.0164V27.9079C19.3678 27.9079 19.3678 27.9079 19.3678 27.7994C19.3678 27.7994 19.3678 27.7994 19.3678 27.9079V27.7994C19.3678 27.6909 19.3678 27.6909 19.3678 27.5824V27.4739C19.3678 27.2569 19.476 27.1484 19.3678 26.9314C19.3678 26.8229 19.2595 26.6059 19.2595 26.4974H19.1512C20.1257 26.4974 21.1002 26.4974 22.0747 26.2804C22.2912 26.2804 22.5078 26.2804 22.7243 26.2804C23.0492 26.2804 23.2657 26.1719 23.5905 26.1719V26.2804V26.3889C23.5905 26.4974 23.4823 26.6059 23.4823 26.8229C23.374 27.1484 23.374 27.3654 23.2657 27.6909C23.2657 28.0164 23.2657 28.4504 23.374 28.7759C23.4823 28.9929 23.6988 29.2099 24.0236 29.1014C24.1319 28.9929 24.2402 28.7759 24.2402 28.6674C24.2402 28.5589 24.2402 28.3419 24.1319 28.1249L24.0236 28.0164C24.1319 27.4739 24.2402 27.0399 24.3485 26.4974C24.3485 26.3889 24.3485 26.1719 24.3485 26.0634C24.8898 25.8464 25.4312 25.5209 25.7561 25.0869C25.9726 24.9784 26.2974 24.7614 26.514 24.6529C26.514 25.0869 26.514 25.5209 26.514 25.9549C26.514 26.1719 26.514 26.3889 26.514 26.7144C26.514 27.0399 26.514 27.2569 26.6223 27.5824C26.6223 27.6909 26.7305 27.7994 26.8388 27.7994C26.9471 27.7994 27.0554 27.6909 27.0554 27.5824C27.1636 27.2569 27.1636 27.0399 27.1636 26.7144C27.1636 26.4974 27.1636 26.2804 27.1636 25.9549C27.1636 25.5209 27.1636 24.9784 27.1636 24.5444C27.1636 24.4359 27.1636 24.3274 27.0554 24.2189C27.705 23.5679 28.1381 22.8084 28.6795 22.1574C28.6795 22.2659 28.6795 22.3744 28.6795 22.4829C28.6795 22.5914 28.6795 22.5914 28.6795 22.6999C28.6795 22.8084 28.6795 22.9169 28.6795 23.0254V23.1339V23.2424C28.6795 23.3509 28.6795 23.4594 28.6795 23.6764C28.6795 23.8934 28.5712 24.2189 28.5712 24.5444C28.5712 24.9784 28.4629 25.4124 28.6795 25.7379C28.7878 25.9549 28.896 25.9549 29.0043 25.8464C29.1126 25.7379 29.2209 25.4124 29.2209 25.3039C29.2209 25.1954 29.2209 24.9784 29.3292 24.8699C29.3292 24.5444 29.4374 24.3274 29.4374 24.0019C29.5457 23.3509 29.5457 22.6999 29.4374 21.9404C29.4374 21.8319 29.3291 21.6149 29.2209 21.5064C29.5457 21.1809 29.3291 19.8789 28.896 20.0959C28.6795 20.3129 28.4629 20.4214 28.3547 20.6384C28.3547 20.3129 28.2464 20.0959 28.0298 19.9874C27.2719 19.6619 26.8388 19.8789 26.2974 20.4214C26.1892 20.5299 26.0809 20.8554 26.1891 21.0724C22.7243 22.9169 18.3933 23.1339 14.9285 21.2894C14.8202 20.9639 14.7119 20.7469 14.6037 20.6384C14.0623 20.3129 13.6292 19.7704 13.1961 19.3364C13.0878 19.2279 12.9795 19.0109 12.8712 18.7938L12.763 18.3598C12.763 18.0343 12.763 17.8173 12.763 17.4918C12.9795 16.8408 13.0878 16.5153 13.4126 15.9728C14.9285 13.1518 17.7436 10.9818 20.3423 9.35432C20.3423 9.46282 20.3423 9.46282 20.3423 9.57132V9.67982C20.3423 9.89682 20.3423 10.1138 20.234 10.3308C20.1257 10.8733 20.1257 11.4158 20.1257 12.0668C20.1257 12.6093 20.1257 13.1518 20.3423 13.6943C20.4505 14.1283 20.7754 14.4538 21.2085 14.5623C21.3167 14.5623 21.425 14.3453 21.425 14.2368C21.425 14.1283 21.425 13.8028 21.3167 13.6943C21.2085 13.5858 21.2085 13.5858 21.1002 13.4773C21.1002 13.4773 20.9919 13.3688 21.1002 13.4773C21.1002 13.4773 21.1002 13.3688 20.9919 13.3688C20.9919 13.3688 20.8836 13.0433 20.8836 13.2603V13.1518C20.8836 13.1518 20.8836 13.1518 20.8836 13.0433C20.8836 12.9348 20.8836 12.8263 20.8836 12.8263V12.7178C20.8836 12.6093 20.8836 12.5008 20.8836 12.3923C20.8836 12.2838 20.8836 12.2838 20.8836 12.1753C20.9919 11.3073 21.2085 10.3308 21.1002 9.46282C21.1002 9.35432 21.1002 9.24582 21.1002 9.13732C21.425 8.92032 21.7498 8.70332 22.1829 8.48632V8.59482C22.0747 8.70332 22.0747 8.92032 22.0747 9.02882C21.9664 10.0053 21.8581 10.8733 21.7499 11.8498C21.7499 12.2838 21.7499 12.8263 21.7499 13.2603C21.7499 13.6943 21.8581 14.2368 22.0747 14.5623C22.1829 14.6708 22.2912 14.7793 22.3995 14.6708C22.616 14.4538 22.8326 14.1283 23.0492 13.9113C23.1574 13.8028 23.1574 13.5858 23.1574 13.3688C23.1574 13.2603 23.0492 13.0433 22.9409 13.1518C22.8326 13.2603 22.6161 13.3688 22.5078 13.4773C22.3995 12.9348 22.3995 12.3923 22.3995 11.8498C22.5078 11.0903 22.6161 10.2223 22.7243 9.46282C22.7243 9.24582 22.7243 8.92032 22.616 8.70332C24.6733 7.18431 27.2719 6.75031 29.8705 6.85881C29.7623 6.96731 29.7622 7.18431 29.7622 7.18431C29.5457 8.05232 29.4374 8.92032 29.3292 9.78832C29.2209 10.7648 29.1126 12.0668 29.5457 12.9348C29.7623 13.2603 30.0871 13.5858 30.5202 13.4773C30.7367 13.3688 30.845 12.7178 30.6285 12.6093C30.4119 12.5008 30.3036 12.5008 30.1953 12.2838C30.0871 12.1753 30.0871 12.0668 29.9788 11.8498C29.9788 11.8498 29.9788 11.8498 29.9788 11.7413C29.9788 11.6328 29.9788 11.6328 29.9788 11.5243V11.4158V11.3073C29.9788 11.1988 29.9788 10.9818 29.9788 10.8733C29.9788 10.6563 29.9788 10.6563 29.9788 10.5478C30.0871 9.46282 30.3036 8.48632 30.5202 7.40131C30.5202 7.18431 30.5202 6.85881 30.4119 6.75031C31.1698 6.75031 31.9278 6.85881 32.6857 6.96731C33.3353 7.07581 33.985 7.18431 34.6347 7.40131C34.6347 7.50981 34.6347 7.50981 34.6347 7.50981C34.4181 8.92032 34.2015 10.2223 34.0933 11.6328C33.985 12.2838 33.985 13.0433 33.985 13.6943C33.985 14.3453 34.0933 14.9963 34.3098 15.6473C34.5264 16.0813 34.7429 15.5388 34.7429 15.3218C34.7429 14.6708 34.6347 14.1283 34.6347 13.4773C34.6347 12.8263 34.6347 12.1753 34.7429 11.6328C34.8512 10.3308 35.0678 9.13732 35.2843 7.83532C35.2843 7.72681 35.2843 7.61831 35.2843 7.50981C35.8257 7.83531 36.4753 8.05232 37.125 8.26932C37.2333 8.26932 37.3416 8.37782 37.4498 8.37782C37.5581 8.48632 37.6664 8.48632 37.7746 8.59482C38.8574 9.24582 39.7236 10.0053 40.5898 10.8733C40.5898 10.9818 40.6981 11.0903 40.8064 11.1988L40.6981 11.0903C40.3733 11.0903 40.3733 11.6328 40.3733 11.7413C40.3733 12.3923 40.3733 13.1518 40.3733 13.8028C40.3733 14.1283 40.3733 14.5623 40.4815 14.8878C40.4815 15.1048 40.5898 15.2133 40.5898 15.4303C40.5898 15.5388 40.6981 15.8643 40.9146 15.8643C41.1312 15.9728 41.2395 15.5388 41.2395 15.4303C41.2395 15.1048 41.1312 14.7793 41.1312 14.5623C41.1312 14.4538 41.1312 14.4538 41.1312 14.3453V14.2368C41.1312 14.0198 41.1312 13.9113 41.1312 13.6943C41.1312 13.0433 41.1312 12.3923 41.1312 11.7413C41.1312 11.6328 41.1312 11.5243 41.0229 11.3073C41.3477 11.8498 41.6726 12.3923 42.1057 12.8263C42.3222 13.0433 42.5388 13.3688 42.7553 13.5858C42.8636 13.6943 42.8636 13.8028 42.9719 13.9113V14.0198C42.9719 14.2368 43.0802 14.5623 43.2967 14.6708C43.5133 15.1048 43.7298 15.6473 43.8381 16.0813C43.8381 16.2983 43.9464 16.4068 43.9464 16.6238C43.9464 16.8408 43.9464 17.0578 43.9464 17.2748C43.9464 17.3833 44.0546 17.6003 44.1629 17.6003C44.2712 17.9258 44.4877 18.2513 44.8126 18.4683C44.9208 19.0109 45.1374 19.3364 45.6788 19.2278C49.3601 17.7088 53.4746 18.1428 56.9395 20.0959C59.6463 21.6149 62.1367 24.3274 62.5698 27.4739C61.7036 27.0399 61.5953 27.1484 61.487 27.2569Z" fill="black"/>
</svg>
