<svg width="198" height="149" viewBox="0 0 198 149" fill="none" xmlns="http://www.w3.org/2000/svg">
<path d="M13.0821 37.5706C13.0821 37.5706 -1.42683 62.6342 42.8579 47.1186L63.5386 52.2181L85.7351 41.3681C85.7351 41.3681 89.5247 36.4856 88.7668 28.8906C87.9006 21.2955 75.7737 17.281 75.7737 17.281C75.7737 17.281 83.4613 7.95 67.8696 7.082L52.711 15.328L49.0296 6.10549C49.0296 6.10549 39.1766 -3.44254 23.9097 7.19049L21.7442 17.064L14.0566 14.46C14.0566 14.46 1.82145 18.149 2.038 24.225C2.25455 30.3011 8.6428 34.4241 8.6428 34.4241L13.0821 37.5706Z" fill="white"/>
<path d="M154.598 20.6448C154.598 20.6448 154.165 9.25221 146.369 12.6157C138.573 15.9792 132.726 21.4043 134.025 28.4568C135.433 35.5093 136.732 33.4478 136.732 33.4478C136.732 33.4478 114.969 38.7643 130.344 51.4588C145.827 64.1534 173.005 47.9868 173.005 47.9868L186.647 48.9633C186.647 48.9633 196.933 50.5908 197.042 34.5328C197.042 34.5328 192.602 21.7297 181.991 26.9378C181.991 26.9378 186.539 10.0117 174.954 11.2052C175.17 11.0967 156.33 7.73322 154.598 20.6448Z" fill="white"/>
<path d="M111.721 85.3092C111.396 84.7667 110.963 84.7667 110.638 85.3092C108.364 89.7577 101.76 88.2387 98.6196 85.6347C98.0782 85.2007 97.7534 86.3942 97.6452 86.7197C97.5369 87.3707 97.6452 88.1302 98.1865 88.5642C101.976 91.7107 109.231 92.6872 111.721 87.3707C112.046 86.7197 112.046 85.8517 111.721 85.3092Z" fill="black"/>
<path d="M122.983 74.4602C122.767 74.2432 122.55 74.0262 122.225 73.8092C122.225 73.5922 122.334 73.3752 122.225 73.1582C122.225 73.0497 122.009 72.7242 121.792 72.8327C121.684 72.9412 121.576 73.0497 121.467 73.1582C120.818 72.6157 120.168 72.2902 119.41 71.8562V71.7477C119.41 71.5307 119.302 70.9881 118.977 71.2052C118.869 71.3137 118.76 71.4222 118.76 71.5307C117.136 70.7711 115.296 70.4456 113.455 70.1201C109.665 69.5776 105.443 69.3606 101.653 69.6861C98.2963 69.9031 95.3729 71.5307 93.3157 74.2432C92.5577 75.3282 91.7998 76.4132 90.8253 77.2812C89.526 78.4747 88.0101 78.4747 86.2777 78.8002C85.3033 78.9087 85.3033 81.4043 86.2777 81.5128C87.7936 81.8383 89.2012 81.4043 90.3922 80.6447C90.5005 80.8617 90.717 80.9703 90.9336 80.7533C101.111 75.3282 113.78 85.5273 122.767 76.8472C123.633 76.5217 123.525 75.0027 122.983 74.4602ZM94.3984 76.7387C94.8315 76.1962 95.2646 75.6537 95.806 75.1112C96.4556 74.5687 97.2136 74.1347 97.9715 73.8092C97.6467 74.2432 97.4301 74.5687 97.1053 75.0027C96.8887 75.2197 96.8887 75.7622 96.997 76.0877C96.997 76.1962 97.1053 76.4132 97.2136 76.4132C96.3474 76.4132 95.3729 76.5217 94.3984 76.7387ZM97.5384 76.3047C98.0798 75.6537 98.5129 75.1112 98.8377 74.4602C99.0542 74.1347 99.2708 73.8092 99.4874 73.4837C99.5956 73.3752 99.5956 73.2667 99.7039 73.0497C100.137 72.9412 100.57 72.8327 101.003 72.8327C101.653 72.7242 102.411 72.7242 103.06 72.7242C102.952 73.0497 102.736 73.3752 102.627 73.5922C102.086 74.5687 101.545 75.5452 100.678 76.1962C99.5956 76.3047 98.5129 76.1962 97.5384 76.3047ZM102.086 76.4132C102.411 75.8707 102.736 75.4367 103.06 74.8942C103.385 74.3517 103.602 73.9177 103.818 73.3752C103.927 73.1582 104.035 72.9412 104.143 72.8327C104.901 72.8327 105.659 72.8327 106.417 72.9412C106.309 73.1582 106.2 73.3752 106.092 73.5922C105.551 74.6772 105.009 75.7622 104.36 76.8472C103.71 76.6302 102.844 76.5217 102.086 76.4132ZM107.825 77.2812C107.608 77.2812 107.283 77.1727 107.067 77.1727C106.525 77.0642 106.092 77.0642 105.551 76.9557C105.984 76.1962 106.309 75.4367 106.742 74.6772C106.958 74.1347 107.283 73.5922 107.608 73.1582C107.608 73.0497 107.716 73.0497 107.716 72.9412C108.474 72.9412 109.232 72.9412 109.99 73.0497C109.882 73.3752 109.665 73.7007 109.557 74.0262C109.124 74.8942 108.583 75.7622 108.041 76.5217C107.716 76.6302 107.716 76.9557 107.825 77.2812ZM108.474 77.3897C109.016 76.6302 109.557 75.8707 109.882 75.0027C110.098 74.5687 110.315 74.1347 110.531 73.5922C110.64 73.3752 110.748 73.1582 110.748 72.9412C111.181 72.9412 111.614 72.9412 112.047 73.0497C111.939 73.2667 111.831 73.3752 111.723 73.5922C111.181 74.4602 110.64 75.4367 110.207 76.4132C110.098 76.7387 109.99 77.1727 110.207 77.4982C110.207 77.4982 110.207 77.4982 110.207 77.6067C109.774 77.4982 109.124 77.4982 108.474 77.3897ZM110.748 77.6067C110.748 77.6067 110.856 77.6067 110.748 77.6067C111.289 76.5217 111.831 75.6537 112.372 74.7857C112.589 74.3517 112.914 73.9177 113.13 73.4837C113.238 73.3752 113.238 73.2667 113.347 73.1582C113.888 73.2667 114.429 73.2667 114.971 73.3752C114.863 73.5922 114.754 73.8092 114.646 73.9177C114.213 74.6772 113.671 75.4367 113.13 76.1962C112.914 76.5217 112.914 76.8472 113.022 77.2812C113.022 77.3897 113.238 77.7152 113.347 77.6067C112.48 77.7152 111.614 77.7152 110.748 77.6067ZM116.487 77.4982C115.512 77.7152 114.429 77.8237 113.455 77.8237C113.455 77.8237 113.563 77.8237 113.563 77.7152C114.105 76.9557 114.646 76.0877 115.187 75.2197C115.512 74.7857 115.729 74.2432 115.945 73.7007C116.595 73.8092 117.136 74.0262 117.678 74.2432C117.245 75.1112 116.811 75.9792 116.487 76.9557C116.487 77.0642 116.378 77.2812 116.487 77.4982ZM118.436 74.8942C118.544 74.7857 118.544 74.6772 118.544 74.5687C119.085 74.7857 119.627 75.1112 120.06 75.4367C119.843 75.7622 119.627 76.0877 119.302 76.4132C119.302 76.5217 119.194 76.5217 119.194 76.6302C118.544 76.9557 117.894 77.1727 117.245 77.3897C117.678 76.4132 118.002 75.6537 118.436 74.8942Z" fill="black"/>
<path d="M50.2205 77.8234C49.8957 75.9789 49.3543 74.1343 48.8129 72.2898C49.1378 72.2898 49.1378 71.4218 48.9212 71.2048C48.7047 70.9878 48.4881 70.8793 48.2716 70.6623C48.1633 70.4453 47.9467 70.3368 47.7302 70.5538C47.5136 70.8793 47.5136 71.2048 47.6219 71.5303C48.1633 73.7003 48.9212 75.9789 49.3543 78.1489C49.3543 78.3659 49.4626 78.7999 49.7874 78.6914C50.2205 78.6914 50.2205 78.0404 50.2205 77.8234Z" fill="black"/>
<path d="M56.7169 82.4901C56.1755 80.3201 55.4176 78.2586 55.201 76.0886L55.3093 75.9801C55.4176 75.7631 55.4176 75.4376 55.3093 75.2206C55.3093 75.1121 55.201 74.8951 55.0928 74.7866L54.9845 74.6781C54.9845 74.6781 54.9845 74.6781 54.9845 74.5696C54.9845 74.3526 54.9845 73.9186 54.6597 73.8101C54.4431 73.7016 54.2266 74.1356 54.2266 74.3526C54.2266 74.4611 54.2266 74.4611 54.2266 74.5696C54.2266 74.6781 54.2266 74.6781 54.2266 74.7866V74.8951C54.3348 77.7161 55.3093 80.4286 55.959 83.2496C56.0672 83.4666 56.2838 83.7921 56.5003 83.5751C56.8252 83.3581 56.8252 82.8156 56.7169 82.4901Z" fill="black"/>
<path d="M142.58 69.796L142.472 69.6875C142.472 69.6875 142.363 69.6875 142.363 69.796C142.363 69.9045 142.363 69.9045 142.363 70.013C142.363 70.1215 142.363 70.23 142.363 70.23C142.363 70.3385 142.472 70.3385 142.472 70.447V70.5555V70.664V70.7725C142.472 70.7725 142.472 70.7725 142.472 70.881C142.472 70.881 142.472 70.9895 142.472 70.881C142.472 70.9895 142.472 70.9895 142.472 71.098L142.58 71.2065C142.688 71.2065 142.796 70.9895 142.796 70.881C143.013 70.664 142.905 70.23 142.58 69.796Z" fill="black"/>
<path d="M97.8623 53.1936C97.6457 52.9766 97.3209 52.9766 97.1043 52.9766C96.8878 52.9766 96.6712 52.9766 96.4547 53.0851C96.0216 53.1936 95.4802 53.1936 95.0471 53.3021C94.7222 53.4106 94.614 53.8446 94.7222 54.0616C94.7222 54.2786 94.7223 54.3871 94.8305 54.6041C94.8305 54.7126 94.9388 54.8211 95.0471 54.8211C95.4802 54.7126 96.0216 54.6041 96.4547 54.6041C96.6712 54.6041 96.8878 54.6041 97.1043 54.4956C97.2126 54.4956 97.3209 54.4956 97.4291 54.4956C97.6457 54.4956 97.754 54.3871 97.8623 54.2786C98.0788 53.9531 98.0788 53.4106 97.8623 53.1936Z" fill="black"/>
<path d="M97.6451 56.0152C97.6451 55.7982 97.5368 55.4727 97.3203 55.4727C97.1037 55.4727 96.7789 55.4727 96.5624 55.4727C96.3458 55.4727 96.021 55.5812 95.8044 55.5812C95.263 55.6897 94.7217 55.6897 94.1803 55.6897C94.072 55.6897 93.9637 55.7982 93.9637 55.9067C93.8555 56.0152 93.8555 56.2322 93.8555 56.4492C93.8555 56.6662 93.9637 57.2086 94.1803 57.2086C94.7217 57.2086 95.263 57.2086 95.8044 57.1001C96.021 57.1001 96.3458 56.9917 96.5624 56.9917C96.8872 56.8832 97.1037 56.8832 97.4286 56.6662C97.6451 56.5577 97.6451 56.2322 97.6451 56.0152Z" fill="black"/>
<path d="M96.2383 58.0775C96.2383 57.969 96.1301 57.535 95.9135 57.535C95.4804 57.535 95.1556 57.6435 94.8307 57.752C94.5059 57.8605 94.0728 57.969 93.748 58.0775C93.6397 58.0775 93.5314 58.2945 93.5314 58.403V58.5115C93.5314 58.2945 93.5314 57.969 93.5314 57.6435C93.5314 57.318 93.6397 56.9925 93.748 56.667C93.8562 56.3415 93.8562 56.016 93.8562 55.6905C93.8562 55.582 93.8562 55.4735 93.8562 55.365C93.8562 55.365 93.8562 55.2565 93.8562 55.148V55.0395V54.931C93.8562 54.8225 93.8562 54.8225 93.9645 54.714C93.9645 54.6055 94.0728 54.497 94.0728 54.497C94.1811 54.1715 94.2894 53.9545 94.2894 53.5205C94.2894 53.3035 94.0728 52.761 93.748 52.978C93.4231 53.195 93.2066 53.412 93.0983 53.7375C93.0983 53.846 92.99 54.28 93.0983 54.497C93.0983 54.6055 93.0983 54.6055 92.99 54.714C92.99 54.931 92.99 55.2565 92.8817 55.4735C92.7735 56.016 92.6652 56.45 92.6652 56.9925C92.5569 57.6435 92.5569 58.186 92.6652 58.837C92.6652 59.054 92.8817 59.488 93.0983 59.3795C93.3148 59.271 93.3149 59.054 93.3149 58.837C93.3149 59.054 93.4231 59.3795 93.748 59.271C94.3976 59.054 95.1556 58.837 95.8052 58.403C96.2383 58.62 96.2383 58.2945 96.2383 58.0775Z" fill="black"/>
<path d="M116.918 56.7757C116.81 56.6672 116.702 56.5587 116.593 56.4502C116.702 56.3417 116.81 56.1247 116.81 56.0162C117.135 53.4122 116.485 50.9167 115.619 48.4212C115.186 47.1192 114.644 45.9257 114.211 44.6237C113.995 43.9727 113.778 43.4302 113.67 42.7792C113.562 42.2367 113.453 41.5857 113.237 41.0432C113.02 40.5007 112.695 41.2602 112.695 41.4772C112.695 42.5622 113.129 43.8642 113.453 44.8407C113.886 46.0342 114.32 47.2277 114.753 48.4212C115.619 50.6997 116.485 53.0867 116.16 55.4737C116.16 55.6907 116.16 56.1247 116.377 56.3417L116.269 56.4502C115.186 58.0777 114.428 60.3562 112.046 60.0307C110.422 59.8137 108.906 58.8372 107.282 58.5117C103.384 57.7522 99.4858 61.6583 95.8044 61.0073C95.9127 61.0073 96.021 60.8987 96.2375 60.8987C96.4541 60.7902 96.5624 60.7902 96.7789 60.6817C96.8872 60.6817 96.9955 60.5732 96.9955 60.5732C97.1037 60.5732 97.212 60.4648 97.212 60.4648C97.4286 60.3563 97.4286 59.9223 97.4286 59.7053C97.4286 59.5968 97.4286 59.4882 97.3203 59.3797C97.3203 59.2712 97.212 59.1627 97.1037 59.1627C96.9955 59.1627 96.8872 59.1627 96.7789 59.1627C96.6706 59.1627 96.5624 59.1627 96.4541 59.2712C96.2375 59.2712 96.021 59.3797 95.9127 59.4882C95.5879 59.5967 95.1548 59.7052 94.8299 59.8137C94.7217 59.8137 94.6134 60.0307 94.6134 60.1392C94.6134 60.2477 94.5051 60.4647 94.6134 60.6817C94.1803 60.4647 93.8555 60.2477 93.4224 59.9222C92.881 59.4882 92.5562 60.6818 92.4479 61.0073C92.3396 61.6583 92.4479 62.4178 92.9893 62.8518C97.7534 66.7578 102.518 60.3562 107.606 61.6582C109.231 62.0922 110.855 63.1773 112.695 63.0688C115.077 62.8518 116.593 60.3563 117.135 58.2947C117.243 57.9692 117.243 57.2097 116.918 56.7757Z" fill="black"/>
<path d="M104.9 129.686C104.9 129.578 104.9 129.578 104.9 129.578C104.792 129.361 104.683 129.252 104.575 129.361C104.575 129.361 104.575 129.361 104.467 129.469C104.359 129.578 104.359 129.686 104.359 129.795C104.359 129.795 104.359 129.903 104.25 129.903C104.25 129.903 104.25 130.012 104.142 130.012L104.034 130.12C103.926 130.229 103.926 130.229 103.817 130.337C103.384 130.663 102.735 130.988 102.193 131.097C100.894 131.531 99.378 131.639 98.1869 131.205C97.6456 130.988 97.5373 132.507 97.9704 132.616C99.4862 133.158 101.11 132.941 102.626 132.507C103.276 132.29 103.817 131.965 104.359 131.531C104.575 131.314 104.792 131.097 104.9 130.88C105.008 130.663 105.117 130.446 105.117 130.12C105.008 130.012 105.008 129.795 104.9 129.686Z" fill="black"/>
<path d="M119.084 146.071C118.976 146.18 118.11 145.637 117.893 145.42C117.027 144.769 116.377 143.793 115.728 142.925C113.995 140.646 112.371 138.151 110.964 135.547C107.174 128.928 105.766 120.899 105.983 113.304C105.983 112.87 105.875 111.785 105.225 111.785C104.575 111.785 104.467 112.87 104.467 113.304C104.359 115.474 104.467 117.753 104.684 119.923C102.951 121.442 100.677 121.876 98.512 121.984C96.3465 122.093 93.0982 122.093 91.6906 120.14C91.4741 119.814 91.2575 120.248 91.1493 120.465C91.041 120.791 91.041 121.225 91.2575 121.55C92.7734 123.72 96.3465 123.829 98.6203 123.612C100.028 123.503 101.435 123.286 102.735 122.852C103.493 122.635 104.359 122.201 104.792 121.55C105.009 123.069 105.225 124.48 105.55 125.89H105.442C104.9 126.107 104.359 126.107 103.818 126.216C102.626 126.433 101.544 126.65 100.353 126.975C99.1617 127.301 97.9706 127.626 96.6713 127.626C95.2637 127.626 93.9644 127.084 92.7734 126.324C92.3403 125.999 92.1237 127.518 92.5568 127.735C93.8561 128.603 95.372 129.145 96.9961 129.145C98.6203 129.037 100.136 128.494 101.652 128.169C102.843 127.843 104.142 127.735 105.333 127.409C105.442 127.409 105.55 127.301 105.658 127.301C105.983 128.82 106.416 130.23 106.849 131.641C106.849 131.641 106.849 131.641 106.741 131.641C106.2 131.966 105.658 132.292 105.117 132.617C104.467 132.943 103.709 133.377 102.951 133.485C102.626 133.594 102.518 133.919 102.626 134.245C102.626 134.462 102.626 134.57 102.735 134.787C102.735 134.896 102.843 135.004 102.951 135.004C104.251 134.679 105.55 133.919 106.741 133.268C106.957 133.16 107.174 133.051 107.282 132.834C107.607 133.594 107.932 134.353 108.257 135.113C108.257 135.221 108.365 135.221 108.365 135.33C108.257 135.438 108.149 135.438 108.04 135.547C107.607 135.872 107.174 136.089 106.633 136.306C106.524 136.306 106.416 136.523 106.416 136.632C106.416 136.849 106.308 137.066 106.416 137.174C106.416 137.391 106.524 137.825 106.849 137.717C107.391 137.5 107.824 137.283 108.257 136.957C108.473 136.74 108.69 136.632 108.906 136.415C109.34 137.391 109.881 138.259 110.422 139.236C110.314 139.344 110.206 139.344 110.097 139.344C109.989 139.344 109.989 139.453 109.989 139.453C109.989 139.561 109.881 139.561 109.881 139.67C109.881 139.778 109.881 139.887 109.881 139.995C109.881 140.104 109.881 140.212 109.881 140.321V140.538C109.881 140.646 109.989 140.755 109.989 140.863L110.097 140.972C110.206 140.972 110.206 140.972 110.314 140.972C110.422 140.972 110.531 140.863 110.531 140.863C110.531 140.863 110.639 140.863 110.639 140.755C110.747 140.755 110.747 140.646 110.855 140.646L110.964 140.538C110.964 140.538 110.964 140.429 111.072 140.429C112.48 142.816 114.104 145.203 115.944 147.156C116.919 148.133 118.543 149.977 119.626 148.241C120.275 147.699 120.059 145.203 119.084 146.071Z" fill="black"/>
<path d="M53.5774 89.8678C53.3609 89.3253 52.9278 88.9998 52.3864 88.5658C51.845 88.2403 51.3036 87.9148 50.7623 87.4808C49.5712 86.8298 48.3802 86.0703 47.6223 84.8768C47.4057 84.5513 47.1892 84.9853 47.0809 85.2023C46.9726 85.5278 46.9726 85.9618 47.1892 86.2873C47.9471 87.3723 49.2464 88.1318 50.4374 88.8913C50.9788 89.2168 51.5202 89.5423 52.0616 89.8678C52.2781 89.9763 52.4947 90.1933 52.7112 90.3018C52.8195 90.4103 53.0361 90.6273 53.2526 90.7358C53.6857 91.0613 53.6857 90.0848 53.5774 89.8678Z" fill="black"/>
<path d="M49.3557 110.157C49.3557 110.048 49.2474 109.831 49.2474 109.723C49.1391 109.614 49.0309 109.397 48.9226 109.289C48.8143 109.18 48.5977 109.18 48.4895 109.072C47.4067 108.529 46.4323 107.77 45.5661 106.902C45.3495 106.685 45.133 106.902 45.0247 107.227C45.0247 107.444 44.9164 107.661 45.0247 107.77C45.0247 107.878 45.133 108.095 45.2412 108.204C45.8909 108.746 46.4323 109.289 47.1902 109.831C47.515 110.048 47.8398 110.265 48.1646 110.482C48.2729 110.591 48.3812 110.591 48.4895 110.699C48.5977 110.808 48.5977 110.808 48.706 110.916C48.8143 111.025 48.9226 111.242 49.1391 111.133C49.3557 110.916 49.3557 110.482 49.3557 110.157Z" fill="black"/>
<path d="M43.9413 114.171C43.833 113.845 43.5082 113.628 43.2916 113.52C43.1833 113.52 43.1833 113.52 43.0751 113.52C42.9668 113.628 42.9668 113.737 42.9668 113.737C42.9668 113.845 42.9668 113.954 42.9668 114.062C42.9668 114.171 43.0751 114.171 43.0751 114.279C43.1833 114.388 43.2916 114.388 43.3999 114.496C43.3999 114.496 43.3999 114.496 43.5082 114.605C43.3999 114.713 43.3999 114.93 43.3999 115.039C43.3999 115.147 43.5082 115.364 43.6165 115.256C43.7247 115.147 43.9413 115.039 43.9413 114.93C44.0496 114.713 44.0496 114.388 43.9413 114.171Z" fill="black"/>
<path d="M53.5773 94.2078C53.4691 93.4483 52.9277 93.0144 52.4946 92.4719C51.8449 91.9293 51.1953 91.4953 50.5456 91.0613C49.3546 90.3018 48.0553 89.6508 46.756 88.8913C46.9725 86.3958 47.0808 83.9003 46.6477 81.5133C47.6222 82.2728 48.5967 82.8153 49.7877 83.2493C49.896 83.2493 50.0043 83.2493 50.1125 83.1408C50.6539 83.4663 50.6539 81.9473 50.3291 81.7303C50.3291 81.4048 50.2208 81.0793 50.1125 80.9708C50.1125 80.9708 50.0043 80.9708 50.0043 80.8623C49.6794 80.6453 49.3546 80.3198 49.0298 80.1028C49.0298 79.8858 48.9215 79.6688 48.8132 79.5603C48.2718 79.2348 47.7305 78.9093 47.1891 78.5838C47.1891 78.4753 47.1891 78.3668 47.1891 78.2583C46.756 76.9563 46.5394 75.5458 46.3229 74.2438C46.2146 73.5928 46.1063 72.9418 45.998 72.2908C45.8898 71.9653 45.8898 71.6398 45.7815 71.3143C45.6732 70.9888 45.6732 70.6633 45.4567 70.5548C45.2401 70.3378 45.0236 70.8803 45.0236 70.9888C44.9153 71.6398 45.1318 72.2908 45.2401 72.9418C45.3484 73.5928 45.4567 74.2438 45.565 75.0033C45.6732 75.9798 45.8898 76.9563 46.1063 78.0413C45.7815 77.8243 45.565 77.6073 45.3484 77.2818C44.3739 76.1968 43.8325 75.0033 43.5077 73.5928C43.3994 73.0503 43.0746 73.1588 42.9663 73.4843C42.6415 72.1823 42.425 70.8803 42.2084 69.4698C42.2084 69.2528 41.9919 68.8188 41.7753 68.9273C41.4505 69.0358 41.4505 69.5783 41.5588 69.9038C41.8836 72.6163 42.425 75.4373 43.8325 77.9328C44.0491 78.3668 44.2657 78.6923 44.5905 79.1263C44.5905 79.3433 44.6988 79.4518 44.807 79.5603C44.807 79.5603 44.9153 79.5603 44.9153 79.6688C45.1318 79.9943 45.3484 80.3198 45.6732 80.5368C45.1319 80.9708 45.2401 82.0558 45.4567 82.5983C45.4567 82.7068 45.4567 82.7068 45.4567 82.8153C45.4567 83.0323 45.4567 83.2493 45.565 83.4663C45.565 83.5748 45.565 83.5748 45.565 84.0088C45.565 84.3343 45.565 84.6598 45.565 84.9853C45.565 86.2873 45.4567 87.5893 45.3484 88.9998C45.0236 92.6889 44.5905 96.2694 43.9408 99.9584C42.8581 107.011 41.5588 114.172 39.3932 121.007C39.0684 122.092 38.7436 123.069 38.2022 124.045C37.9857 124.479 38.0939 124.371 37.7691 124.696C37.7691 124.696 37.7691 124.805 37.6608 124.805C36.9029 124.696 36.6863 127.083 37.4443 127.517C37.336 127.409 37.7691 127.734 37.9857 127.626C38.3105 127.517 38.527 127.3 38.7436 126.975C39.285 126.215 39.7181 125.13 40.0429 124.262C41.1256 121.224 41.8836 118.078 42.5332 114.931C42.8581 113.521 43.1829 112.11 43.3994 110.591C43.3994 110.808 43.5077 111.025 43.616 111.134C44.0491 111.459 44.4822 111.893 44.9153 112.219C45.0236 112.327 45.2401 112.436 45.3484 112.327C45.4567 112.327 45.4567 112.327 45.565 112.327C45.6732 112.219 45.6732 112.11 45.7815 112.11C45.8898 111.893 45.8898 111.568 45.7815 111.459C45.7815 111.459 45.7815 111.351 45.6732 111.351C45.6732 111.242 45.565 111.242 45.565 111.134C45.4567 111.025 45.4567 111.025 45.3484 110.917C45.2401 110.808 45.1319 110.7 45.0236 110.591C44.807 110.374 44.4822 110.157 44.2656 109.94C44.1574 109.832 44.0491 109.723 43.9408 109.723C43.8325 109.615 43.7243 109.723 43.7243 109.832C44.1574 107.662 44.5905 105.6 44.9153 103.43C44.9153 103.647 45.0236 103.864 45.1319 103.973C46.4312 104.841 47.5139 106.143 48.4884 107.336C48.8132 107.662 49.0298 107.987 49.3546 108.204C49.5712 108.421 49.896 108.855 50.2208 108.855C50.7622 108.747 50.7622 107.553 50.3291 107.336C50.2208 107.336 50.2208 107.228 50.1125 107.228C48.4884 105.709 47.1891 103.756 45.3484 102.454C45.2401 102.345 45.1319 102.454 45.0236 102.562C45.2401 101.369 45.3484 100.284 45.565 99.0904C45.565 99.3074 45.5649 99.5244 45.7815 99.6329C46.6477 100.392 47.5139 101.152 48.3801 101.911C48.8132 102.237 49.2463 102.562 49.6794 102.996C49.896 103.105 50.0043 103.322 50.2208 103.43C50.2208 103.539 50.3291 103.647 50.3291 103.756C50.6539 104.081 50.9787 104.515 51.3036 104.081C51.5201 103.756 51.6284 103.105 51.3036 102.779C50.8705 102.345 50.4374 102.02 50.0043 101.694C49.5712 101.369 49.138 101.043 48.7049 100.609C47.8387 99.9584 46.9725 99.1989 46.2146 98.4394C45.9981 98.2224 45.7815 98.4394 45.6732 98.6564C45.7815 97.5714 45.9981 96.5949 46.1063 95.5099C47.0808 96.4864 48.3801 97.1374 49.5711 97.7884C50.1125 98.1139 50.7622 98.4394 51.3036 98.7649C51.5201 98.8734 51.7367 99.0904 51.9532 99.1989C52.1698 99.3074 52.278 99.6329 52.6029 99.6329C53.036 99.6329 52.9277 98.8734 52.9277 98.6564C52.8194 98.1139 52.1698 97.6799 51.7367 97.3544C51.1953 97.0289 50.6539 96.7034 50.0043 96.3779C48.8132 95.7269 47.5139 95.0758 46.5394 94.2078C46.4312 94.0993 46.3229 94.0994 46.3229 94.0994C46.4312 92.9059 46.5394 91.8209 46.6477 90.6273V90.5188C47.8387 91.1698 49.0298 91.8208 50.2208 92.5803C50.8705 93.0143 51.5201 93.4484 52.0615 93.8824C52.278 94.0994 52.4946 94.3163 52.7112 94.5333C52.9277 94.7504 53.036 94.9674 53.2525 95.0759C53.5774 95.1844 53.5773 94.3163 53.5773 94.2078Z" fill="black"/>
<path d="M166.184 23.0323C165.968 22.8153 165.643 22.9238 165.427 23.1408C165.21 23.4663 165.102 24.0089 164.993 24.4429C164.885 25.4194 164.993 26.5044 164.993 27.4809C164.993 27.5894 164.993 27.6979 164.993 27.8064V27.9149C164.993 27.9149 164.993 27.9149 164.993 28.0234C164.993 28.2404 164.993 28.3489 164.993 28.5659C164.993 28.7829 165.102 29.3254 165.318 29.3254C165.643 29.3254 165.643 28.7829 165.643 28.5659C165.643 28.1319 165.643 27.5894 165.535 27.1554C165.535 27.0469 165.535 26.8299 165.535 26.7214C165.535 26.6129 165.535 26.6129 165.535 26.5044C165.535 26.1789 165.535 25.9619 165.535 25.6364C165.535 25.4194 165.535 25.0939 165.535 24.8769C165.535 24.7684 165.535 24.7684 165.535 24.6599V24.5514V24.4429C165.535 24.4429 165.535 24.4429 165.643 24.3344H165.751C165.751 24.3344 165.86 24.3344 165.751 24.3344C166.509 24.1174 166.509 23.2494 166.184 23.0323Z" fill="black"/>
<path d="M170.624 21.8385C170.516 21.6215 170.299 21.6215 170.191 21.8385C169.866 22.381 169.758 23.032 169.649 23.683C169.541 24.334 169.541 25.0935 169.541 25.7445C169.541 25.853 169.541 26.287 169.758 26.287C169.974 26.287 170.082 25.853 169.974 25.7445C169.974 25.0935 169.974 24.551 170.082 24.0085C170.191 23.5745 170.299 23.032 170.516 22.598C170.732 22.381 170.732 22.0555 170.624 21.8385Z" fill="black"/>
<path d="M177.338 22.0538C177.338 21.9453 177.229 21.9453 177.121 21.9453C177.013 21.9453 177.013 22.0538 176.904 22.0538C176.58 22.9218 176.471 23.7898 176.58 24.6578C176.58 24.7663 176.58 24.8748 176.688 24.9833C176.688 25.0918 176.796 25.0918 176.904 25.0918C177.121 24.9833 177.121 24.6578 177.121 24.4408V24.3323C177.121 24.2238 177.121 24.2238 177.121 24.1153V24.0068C177.121 23.8983 177.121 23.8983 177.121 23.7898C177.121 23.6813 177.121 23.6813 177.121 23.5728V23.4643C177.121 23.3558 177.121 23.3558 177.229 23.2473V23.1388C177.446 22.5963 177.554 22.2708 177.338 22.0538Z" fill="black"/>
<path d="M165.209 44.0801C164.993 44.0801 164.993 44.7311 165.209 44.7311C165.426 44.7311 165.426 44.0801 165.209 44.0801Z" fill="black"/>
<path d="M168.133 43.2109C167.917 43.2109 167.917 43.8619 168.133 43.8619C168.35 43.8619 168.35 43.2109 168.133 43.2109Z" fill="black"/>
<path d="M152.758 16.1968C152.433 16.0883 152.325 16.5223 152.325 16.7393C152.108 17.9328 152 19.2348 151.783 20.5368C151.675 21.1878 151.567 21.8388 151.458 22.3813C151.458 22.7068 151.35 22.9238 151.242 23.2493C151.242 23.2493 151.134 23.4663 151.134 23.5748C151.025 23.7918 151.025 24.1173 151.025 24.3343C151.025 24.4428 151.134 24.7683 151.35 24.7683C151.675 24.7683 151.892 24.2258 151.892 23.9003C151.892 23.7918 151.892 23.6833 151.892 23.5748C151.892 23.4663 151.892 23.4663 151.892 23.3578C152 22.7068 152.108 21.9473 152.216 21.2963C152.433 19.8858 152.541 18.4753 152.866 17.0648C153.083 16.8478 153.083 16.3053 152.758 16.1968Z" fill="black"/>
<path d="M149.727 14.2422C149.619 14.2422 149.51 14.5677 149.619 14.7847L149.51 14.6762C149.185 14.6762 149.077 15.2187 149.185 15.4357C149.294 17.9312 148.319 20.2097 147.561 22.5967C147.453 22.8137 147.453 23.2477 147.67 23.4647C147.778 23.6817 147.994 23.7902 148.103 23.5732C148.536 23.0307 148.752 22.3797 148.969 21.8372C148.969 21.7287 148.969 21.5117 148.969 21.2947C149.619 19.3417 150.052 17.3887 149.943 15.3272C149.943 15.2187 149.943 14.8932 149.835 14.6762C149.835 14.6762 149.835 14.6762 149.943 14.6762C149.943 14.8932 149.943 14.2422 149.727 14.2422Z" fill="black"/>
<path d="M148.21 14.4584C147.994 14.2414 147.777 14.4584 147.669 14.7839C147.452 15.652 147.344 16.4115 147.128 17.2795C147.019 17.7135 147.019 17.9305 146.911 18.3645C146.803 18.69 146.694 19.0155 146.586 19.341L146.478 19.4495C146.261 19.775 146.37 20.426 146.694 20.643C146.803 20.7515 147.019 20.5345 147.019 20.426C147.236 20.1005 147.344 19.6665 147.452 19.2325C147.561 18.7985 147.669 18.3645 147.777 17.9305C147.885 17.171 148.102 16.303 148.21 15.5434C148.427 15.2179 148.427 14.7839 148.21 14.4584Z" fill="black"/>
<path d="M145.287 17.714C145.287 17.6055 145.287 17.6055 145.287 17.6055C145.287 17.3885 145.287 17.28 145.287 17.063C145.287 16.7375 145.395 16.3035 145.395 15.978C145.395 15.761 145.395 15.2185 145.179 15.0015C144.854 14.893 144.746 15.327 144.746 15.544C144.638 16.412 144.529 17.28 144.529 18.1481C144.529 18.5821 144.529 19.0161 144.638 19.4501C144.638 19.6671 144.854 20.2096 145.071 20.1011C145.395 19.9926 145.287 19.5586 145.287 19.3416V19.2331C145.287 19.1246 145.287 19.1246 145.287 19.0161C145.287 19.0161 145.287 19.0161 145.287 18.9076C145.287 18.7991 145.287 18.5821 145.287 18.4736C145.287 18.2566 145.287 18.1481 145.287 17.9311C145.179 17.9311 145.287 17.8225 145.287 17.714Z" fill="black"/>
<path d="M193.252 26.3941C190.221 23.7901 186.323 23.6816 182.75 24.8751C184.157 20.2096 184.699 14.676 180.584 11.5295C177.986 9.57652 174.304 8.70852 171.056 8.60002C167.483 8.49152 163.91 9.25102 160.77 10.8785C158.279 12.072 156.114 13.9165 154.706 16.195C154.381 14.459 153.732 12.8315 152.216 11.855C150.05 10.4445 147.127 10.8785 144.853 11.7465C139.006 13.808 133.376 19.233 133.051 25.6346C132.943 27.2621 133.268 28.6726 133.809 30.0831C132.835 29.9746 131.752 30.0831 130.777 30.4086C127.746 31.3851 125.255 33.8806 123.848 36.7016C120.708 43.2116 124.064 49.7216 128.612 54.6042C129.262 55.2552 130.019 56.0147 130.777 56.6657C132.726 59.0527 135.542 60.7887 138.357 61.9822C140.847 62.9587 143.446 63.7182 146.153 63.9352C146.153 64.0437 146.044 64.0437 146.044 64.1522C145.828 64.5862 145.719 65.1287 145.828 65.6712C145.395 66.8647 144.853 67.9497 144.312 69.1432C144.312 69.0347 144.312 69.0347 144.204 68.9262C144.095 68.7092 143.879 68.3837 143.662 68.6007C143.446 68.9262 143.446 69.3602 143.554 69.6857C143.662 69.9027 143.662 70.1197 143.77 70.3367C143.121 71.8557 142.363 73.2662 141.713 74.7852C141.605 74.5682 141.497 74.3512 141.388 74.2427C141.388 74.2427 141.388 74.2427 141.388 74.1342C141.388 74.1342 141.388 74.1342 141.388 74.0257C141.28 73.8087 141.28 73.8087 141.388 73.9172L141.28 73.7002V73.5917C141.28 73.4832 141.28 73.3747 141.28 73.2662V73.1577C141.28 73.0492 141.28 73.0492 141.28 72.9407V72.8322C141.28 72.8322 141.28 72.8322 141.28 72.9407C141.28 72.7237 141.28 72.5067 141.28 72.3982C141.28 72.2897 141.172 72.0727 141.064 72.0727C140.739 71.9642 140.63 72.3982 140.63 72.6152C140.63 73.2662 140.63 73.9172 140.739 74.4597C140.847 74.8937 141.064 75.3277 141.388 75.6532C140.847 76.7382 140.306 77.8232 139.656 78.9082V78.7997C139.656 78.6912 139.656 78.6912 139.656 78.5827C139.656 78.3657 139.548 78.2572 139.548 78.1488V78.0402C139.548 77.9317 139.548 77.9317 139.548 77.8232C139.548 77.6062 139.439 77.4977 139.439 77.2807C139.331 76.9552 139.331 76.5212 139.223 76.1957C139.006 74.8937 138.79 73.4832 138.573 72.1812C138.573 71.9642 138.465 71.5302 138.14 71.6387C137.815 71.7472 137.815 72.2897 137.924 72.6152C138.14 73.7002 138.248 74.8937 138.465 75.9787C138.573 76.6297 138.682 77.2807 138.79 77.9317C138.898 78.2572 138.898 78.5827 139.006 78.9082C139.006 79.0167 139.115 79.1252 139.115 79.3422V79.4508C139.223 79.5592 139.006 79.2337 139.223 79.5592C139.223 79.6677 139.331 79.6678 139.331 79.7763C138.682 80.8613 138.14 81.9463 137.382 83.0313C137.274 82.4888 137.057 82.0548 136.949 81.6208C136.516 79.6677 136.299 77.7147 136.191 75.7617C136.191 75.5447 135.975 75.1107 135.758 75.2192C135.433 75.3277 135.433 75.8702 135.542 76.1957C135.758 78.4742 135.975 80.8612 136.624 83.1398C136.733 83.4653 136.841 83.7908 136.949 84.1163C136.408 85.0928 135.758 85.9608 135.108 86.8288C135 86.3948 134.892 85.9608 134.892 85.5268C134.567 83.6823 134.134 81.8378 133.917 79.8847C133.917 79.6677 133.701 79.2337 133.484 79.3422C133.159 79.4507 133.159 79.9933 133.268 80.3188C133.484 82.1633 133.917 84.0078 134.242 85.8523C134.35 86.5033 134.459 87.0458 134.567 87.6968C133.917 88.6733 133.159 89.5413 132.51 90.4093C132.402 90.0838 132.402 89.7583 132.293 89.4328C132.077 88.1308 131.968 86.7203 131.86 85.4183C131.86 85.2013 131.644 84.7673 131.427 84.8758C131.102 84.9843 131.102 85.5268 131.211 85.8523C131.319 87.5883 131.427 89.2158 131.86 90.8433C131.86 90.9518 131.968 91.0603 131.968 91.1688C131.319 92.0368 130.561 92.7963 129.911 93.5558C129.803 92.4708 129.695 91.2773 129.586 90.1923C129.586 89.9753 129.37 89.5413 129.153 89.6498C128.828 89.7583 128.828 90.3008 128.937 90.6263C129.045 91.4943 129.153 92.3623 129.153 93.3388C129.153 93.6643 129.153 93.9898 129.262 94.4238C128.287 95.5088 127.204 96.4853 126.122 97.4618C126.122 97.3533 126.122 97.2448 126.122 97.1363C126.013 96.5938 126.013 96.0513 125.905 95.6173C125.797 94.5323 125.58 93.5558 125.472 92.4708C125.472 92.2538 125.255 91.8198 125.039 91.9283C124.714 92.0368 124.714 92.5793 124.822 92.9048C124.931 93.9898 125.147 94.9663 125.255 96.0513C125.364 96.5938 125.364 97.0278 125.472 97.5703C125.472 97.7873 125.472 98.0043 125.58 98.2213C125.472 98.3298 125.364 98.4383 125.255 98.5468C119.842 103.104 113.345 106.142 106.199 106.033C96.8871 105.925 88.8747 99.5233 80.8623 95.7258C78.1554 94.4238 75.5568 93.1218 72.8499 91.9283C72.8499 91.8198 72.8499 91.8198 72.8499 91.7113C72.7416 91.0603 72.5251 90.5178 72.2003 89.8668C72.092 89.6498 71.9837 89.3243 71.7671 89.1073C71.6589 88.9988 71.6589 88.8903 71.5506 88.7818C71.4423 88.5648 71.334 88.4563 71.1175 88.3478C71.0092 88.3478 70.9009 88.5648 70.7927 88.6733C70.7927 88.7818 70.7927 88.7818 70.7927 88.8903C70.7927 88.8903 70.7927 88.8903 70.7927 88.7818C70.7927 88.8903 70.7927 88.8903 70.7927 88.9988C70.7927 89.1073 70.7927 89.2158 70.7927 89.3243C70.7927 89.4328 70.9009 89.5413 70.9009 89.6498C71.0092 89.7583 71.0092 89.8668 71.1175 90.0838C71.2258 90.3008 71.4423 90.6263 71.5506 90.8433C71.6589 90.9518 71.6589 91.0603 71.7671 91.2773C71.7671 91.2773 71.7671 91.2773 71.7671 91.3858C70.7927 90.9518 69.9265 90.5178 68.952 90.0838C68.952 89.9753 68.952 89.8668 68.952 89.8668C68.8437 89.1073 68.7354 88.3478 68.5189 87.4798C68.4106 87.0458 68.4106 86.7203 68.3023 86.2863C68.194 85.8523 68.194 85.4183 67.9775 85.0928C67.7609 84.6588 67.5444 85.0928 67.4361 85.3098C67.3278 85.7438 67.4361 86.1778 67.5444 86.6118C67.6527 87.0458 67.6527 87.3713 67.7609 87.8053C67.8692 88.3478 67.9775 88.9988 68.0858 89.5413C67.4361 89.2158 66.7865 88.8903 66.1368 88.5648C66.1368 88.3478 66.1368 88.1308 66.1368 88.0223C65.9203 87.1543 65.812 86.1778 65.7037 85.2013C65.5954 84.7673 65.4872 84.2248 65.3789 83.7908C65.2706 83.3568 65.1623 82.7058 64.8375 82.3803C64.7292 82.2718 64.5127 82.2718 64.4044 82.4888C64.2961 82.7058 64.2961 83.0313 64.2961 83.2483C64.2961 83.6823 64.5127 84.2248 64.621 84.6588C64.7292 85.0928 64.7292 85.4183 64.8375 85.8523C64.9458 86.6118 65.0541 87.4798 65.2706 88.2393C65.1623 88.1308 65.054 88.1308 64.9458 88.0223C64.4044 87.6968 63.863 87.3713 63.2134 87.1543C62.8885 85.9608 62.672 84.7673 62.3472 83.6823C62.1306 83.1398 62.0223 82.5973 61.8058 81.9463C61.6975 81.7293 61.5892 81.4037 61.481 81.1867C61.3727 80.9697 61.1561 80.6442 60.9396 80.6442C60.6147 80.6442 60.6147 81.2952 60.6147 81.5122C60.723 82.0547 61.0479 82.4888 61.2644 83.0313C61.481 83.5738 61.6975 84.1163 61.8058 84.5503C62.0223 85.2013 62.1306 85.9608 62.3472 86.6118C61.6975 86.2863 60.9396 85.8523 60.2899 85.5268C60.2899 85.4183 60.2899 85.2013 60.2899 85.0928C59.9651 83.7908 59.6403 82.4887 59.4237 81.1867C59.3154 80.5357 59.2072 79.8848 59.0989 79.2337C59.0989 78.9082 58.9906 78.5827 58.9906 78.3657C58.9906 78.0402 58.9906 77.7147 58.7741 77.3892C58.5575 77.0637 58.341 77.2807 58.2327 77.4977C58.1244 77.8232 58.1244 78.2572 58.2327 78.6912C58.2327 79.0168 58.2327 79.3422 58.341 79.6677C58.4492 80.3187 58.5575 81.0782 58.6658 81.7292C58.8823 82.8142 59.0989 84.0078 59.4237 85.0928C57.583 84.1163 55.8506 83.1397 54.0099 82.2718C54.1182 82.0547 54.1182 81.6208 54.0099 81.4038C53.4686 79.8848 53.1437 78.3657 52.8189 76.7382C52.7106 75.9787 52.4941 75.2192 52.3858 74.4597C52.2775 73.7002 52.1692 72.8322 51.8444 72.0727C51.7361 71.8557 51.6279 71.6387 51.4113 71.7472C51.1948 71.8557 51.1948 72.3982 51.1948 72.6152C51.303 73.3747 51.5196 74.2427 51.6279 75.0022C51.7361 75.7617 51.9527 76.6297 52.061 77.3892C52.3858 78.9082 52.7106 80.4273 53.252 81.9463C51.8444 81.1868 50.4368 80.5357 49.0292 79.8847C48.0548 79.3422 47.7299 82.3802 48.5962 82.8142C58.341 87.5883 67.761 93.1218 77.614 97.5703C82.0533 99.5233 86.1678 101.91 90.4988 104.189C94.505 106.25 98.8361 108.312 103.384 108.963C103.817 109.071 104.142 109.071 104.575 109.071C104.575 109.288 104.575 109.505 104.575 109.722C102.517 110.265 100.46 110.807 98.403 110.807C95.9126 110.807 93.5306 110.048 92.0147 107.878C91.7981 107.552 91.5816 107.986 91.4733 108.095C91.365 108.42 91.365 108.854 91.5816 109.18C93.0975 111.35 95.4795 112.326 98.0781 112.326C100.244 112.326 102.517 111.892 104.683 111.241C104.683 111.458 104.791 111.784 104.791 112.001C104.25 112.218 103.817 112.543 103.384 112.652C102.517 113.086 101.543 113.411 100.677 113.628C98.2947 114.171 96.1292 113.737 93.9637 112.543C93.5306 112.326 93.314 113.737 93.7471 113.954C95.9126 115.147 98.1864 115.69 100.568 115.039C101.543 114.822 102.409 114.496 103.275 114.062C103.708 113.845 104.033 113.737 104.466 113.52C104.466 114.171 104.575 114.93 104.9 115.581H104.791C104.575 115.473 104.466 115.907 104.466 116.232C104.358 116.341 104.142 116.449 104.033 116.449C103.6 116.666 103.167 116.775 102.626 116.992C101.543 117.317 100.46 117.534 99.3774 117.534C97.645 117.643 95.263 117.643 93.8554 116.341C93.314 115.907 93.0975 117.317 93.4223 117.643C95.263 119.379 98.5112 119.27 100.893 118.945C102.193 118.728 103.492 118.402 104.575 117.751C105.116 117.426 105.657 117.1 105.657 116.341C105.657 116.124 105.549 115.69 105.333 115.581C105.441 115.364 105.441 115.147 105.441 115.039V115.147C105.549 115.364 105.874 115.473 105.982 115.147C106.091 114.93 106.199 114.713 106.199 114.496C106.307 114.388 106.415 114.171 106.415 114.062C106.415 114.062 106.415 113.954 106.415 113.845C106.74 112.76 106.848 111.675 106.74 110.59C106.848 110.048 106.957 109.505 107.065 108.963C117.351 108.637 126.013 101.802 132.51 93.6643C132.726 93.6643 132.835 93.3388 132.943 93.2303C133.809 92.1453 134.567 91.0603 135.433 89.9753C136.299 88.6733 137.166 87.3713 138.032 86.1778C138.032 86.0693 138.14 85.9608 138.14 85.9608L138.248 85.8523C140.847 81.6208 143.229 77.1722 145.286 72.6152C145.395 72.7237 145.611 72.5067 145.611 72.3982C145.719 72.1812 145.719 71.9642 145.611 71.7472C146.694 69.3602 147.668 66.8647 148.643 64.4777C148.643 64.4777 148.643 64.3692 148.643 64.2607C152.649 64.2607 156.33 62.8502 159.687 60.6802C163.152 58.4017 166.184 55.4722 169.865 53.6277C173.871 51.6747 178.094 51.7832 182.425 51.6747C185.998 51.6747 190.004 51.5662 192.928 49.2876C196.176 46.7921 197.367 42.2351 197.692 38.3291C197.583 33.9891 196.501 29.3236 193.252 26.3941ZM191.52 46.6836C191.412 46.7921 191.304 46.7921 191.195 46.9006C191.087 46.7921 190.979 46.7921 190.87 46.7921C190.329 46.6836 189.679 46.6836 189.138 46.6836C189.03 46.6836 188.921 46.7921 188.813 46.9006C185.998 47.0091 183.508 45.3816 180.801 44.9476C177.986 44.5136 175.062 44.4051 172.247 44.8391C170.298 45.1646 168.349 45.5986 166.4 46.2496C166.184 46.0326 165.967 46.0326 165.642 46.1411C165.209 46.3581 164.776 46.5751 164.451 46.7921C163.91 47.0091 163.477 47.1176 162.935 47.3346C163.044 47.2261 163.044 47.1176 163.044 46.9006V46.3581C163.044 46.2496 163.044 46.2496 163.044 46.1411C163.044 46.0326 163.044 46.0326 162.935 45.9241C162.935 45.9241 162.935 45.8156 162.827 45.8156H162.719C162.61 45.8156 162.61 45.9241 162.502 45.9241C162.394 46.0326 162.394 46.1411 162.394 46.3581V46.9006C162.394 47.0091 162.394 47.0091 162.394 47.1176C162.394 47.2261 162.394 47.2261 162.502 47.3346C162.502 47.3346 162.502 47.4431 162.61 47.4431C161.636 47.7686 160.77 48.0941 159.795 48.5281C159.687 48.3111 159.687 48.0941 159.579 47.8771C159.47 47.6601 159.47 47.4431 159.362 47.1176C159.362 47.0091 159.362 47.0091 159.362 46.9006C159.362 46.9006 159.362 46.9006 159.362 46.7921C159.362 46.6836 159.362 46.5751 159.254 46.3581C159.254 46.2496 159.146 46.0326 159.037 45.9241C158.929 45.8156 158.821 45.8156 158.713 45.8156C158.388 46.0326 158.388 46.4666 158.496 46.7921C158.604 47.3346 158.713 47.9856 158.929 48.5281C158.929 48.6367 159.037 48.6366 159.037 48.7451C158.388 48.9621 157.846 49.1792 157.197 49.3962C157.197 49.2877 157.088 49.2876 157.088 49.1791C157.088 49.0706 156.98 48.9622 156.98 48.8537C156.98 48.8537 156.98 48.7451 156.872 48.7451C156.872 48.7451 156.872 48.7451 156.872 48.6366C156.764 48.4196 156.764 48.2026 156.655 47.9856V47.8771C156.655 47.8771 156.655 47.7686 156.655 47.6601C156.655 47.5516 156.655 47.4431 156.655 47.6601C156.655 47.4431 156.655 47.3346 156.547 47.1176C156.547 47.0091 156.439 46.9006 156.33 46.9006C156.006 46.9006 156.006 47.3346 156.006 47.5516C156.006 48.0941 156.114 48.6366 156.33 49.1791C156.33 49.2876 156.439 49.3961 156.439 49.5046C155.681 49.7216 155.031 50.0471 154.273 50.2641C154.273 50.1556 154.165 50.0471 154.165 49.8302C154.057 49.5047 153.948 49.1792 153.948 48.8537C153.84 48.0942 153.732 47.2261 153.515 46.4666C153.407 46.2496 153.19 45.9241 152.974 46.2496C152.757 46.4666 152.757 47.0091 152.866 47.3346C152.974 47.6601 152.974 47.9856 153.082 48.4196C153.19 48.8536 153.19 49.2876 153.299 49.7216C153.407 50.0471 153.407 50.2641 153.515 50.5896C153.082 50.6982 152.649 50.9152 152.216 51.0237C152.216 50.9152 152.216 50.8067 152.216 50.6982C152.216 50.5897 152.108 50.2642 151.891 50.3727C151.783 50.3727 151.783 50.4812 151.675 50.4812C151.566 50.2642 151.458 49.9386 151.458 49.7216C151.35 49.2876 151.35 49.0706 151.242 48.6366C151.133 47.7686 151.025 46.9006 150.808 46.0326C150.7 45.8156 150.484 45.4901 150.267 45.8156C150.05 46.0326 150.05 46.5751 150.159 46.9006C150.159 47.1176 150.267 47.2261 150.267 47.4431C150.267 47.6601 150.375 47.8771 150.375 48.0941C150.484 48.5281 150.484 48.9622 150.592 49.3962C150.7 49.8302 150.808 50.2642 150.917 50.6982C151.025 50.9152 151.025 51.1321 151.133 51.3491C150.484 51.5662 149.834 51.6747 149.184 51.7832L149.076 51.6747C149.076 51.6747 149.076 51.6747 149.076 51.5662C148.968 51.4577 148.968 51.3492 148.968 51.2407C148.859 51.1322 148.859 50.8066 148.751 50.5896C148.535 49.8301 148.426 49.0707 148.318 48.3112C148.102 46.7921 148.102 45.2731 147.993 43.8626C147.993 43.6456 147.885 43.1031 147.668 43.1031C147.344 43.1031 147.235 43.6456 147.235 43.8626C147.344 45.5986 147.452 47.3346 147.668 49.0707C147.777 49.9387 147.885 50.8067 148.102 51.5662C148.102 51.6747 148.21 51.7832 148.21 52.0002C147.56 52.1087 147.019 52.2172 146.369 52.3257C146.369 52.2172 146.369 52.2172 146.369 52.2172C146.044 51.5662 145.719 50.9152 145.503 50.1557C145.286 49.1791 145.178 48.2027 145.07 47.2261C144.962 45.3816 144.962 43.3201 144.42 41.4756C144.312 41.2586 144.095 40.9331 143.879 41.1501C143.662 41.3671 143.662 41.9096 143.77 42.2351C144.312 44.0796 144.204 46.2496 144.42 48.2026C144.528 49.1791 144.637 50.2642 144.962 51.2407C145.07 51.5662 145.178 52.1087 145.395 52.5427C144.853 52.5427 144.312 52.6512 143.77 52.6512C142.904 51.5662 142.796 49.7216 142.688 48.4196C142.471 46.5751 142.471 44.7306 142.146 42.9946C142.038 42.7776 141.822 42.4521 141.605 42.7776C141.388 42.9946 141.388 43.5371 141.497 43.8626C141.497 43.6456 141.497 43.9711 141.497 43.9711C141.497 44.0796 141.497 44.1881 141.497 44.1881C141.497 44.4051 141.605 44.6221 141.605 44.8391C141.605 45.2731 141.713 45.8156 141.713 46.2496C141.822 47.3346 141.93 48.4196 142.038 49.5046C142.146 50.4811 142.255 51.5662 142.579 52.4342C142.579 52.5427 142.688 52.6512 142.688 52.7597C142.146 52.7597 141.713 52.7597 141.172 52.6512C141.172 52.5427 141.172 52.4342 141.172 52.3257C141.064 51.6747 140.739 51.0237 140.522 50.3727C140.306 49.7216 140.197 48.9621 140.197 48.2026C140.089 46.7921 139.981 45.3816 140.089 43.9711C140.089 43.7541 139.981 43.2116 139.764 43.2116C139.439 43.2116 139.439 43.7541 139.439 43.9711C139.331 45.4901 139.439 47.1176 139.548 48.6366C139.656 49.3961 139.764 50.2642 139.981 51.0237C140.089 51.3492 140.197 51.6747 140.306 52.1087C140.306 52.2172 140.414 52.4342 140.522 52.5427C139.981 52.4342 139.439 52.3257 138.898 52.2172C138.898 52.0002 138.898 51.8917 138.898 51.7832C138.79 51.2407 138.573 50.6982 138.357 50.1557C138.248 49.6132 138.14 48.9622 138.032 48.3112C137.815 47.0091 137.707 45.7071 137.49 44.5136C137.382 44.2966 137.166 43.9711 136.949 44.2966C136.733 44.5136 136.733 45.0561 136.841 45.3816C137.166 46.5751 137.166 47.8771 137.382 49.1791C137.49 49.8301 137.599 50.4811 137.815 51.1322C137.924 51.4577 138.032 51.7832 138.14 52.0002C138.14 52.0002 138.14 52.1087 138.248 52.1087C137.599 51.8917 136.949 51.6746 136.299 51.3491V51.2407C136.299 51.1322 136.299 51.0237 136.299 50.9152C136.299 50.8067 136.299 50.8067 136.299 50.6982C136.299 50.4812 136.299 50.1556 136.191 50.0471L136.083 49.9387C135.975 49.1792 135.866 48.3111 135.758 47.5516C135.65 46.3581 135.542 45.1646 135.217 43.9711C135.108 43.7541 134.892 43.4286 134.675 43.7541C134.459 43.9711 134.459 44.5136 134.567 44.8391C135 46.9006 135 48.9621 135.325 50.9152C134.892 50.6982 134.459 50.3727 134.026 50.1557C134.026 49.9387 134.026 49.7217 134.026 49.3962C134.026 49.2877 134.026 48.9622 133.809 48.8537H133.701C133.376 46.9006 133.268 44.9476 132.943 42.9946C132.943 42.7776 132.835 42.3436 132.51 42.4521C132.185 42.5606 132.185 43.1031 132.293 43.4286C132.618 45.3816 132.726 47.3346 133.051 49.2876C132.726 48.9621 132.402 48.6367 132.077 48.3112C132.077 48.0942 132.077 47.9856 131.968 47.7687C131.86 47.6601 131.752 47.5516 131.644 47.6601C131.644 47.3346 131.535 47.1176 131.535 46.7921C131.427 46.1411 131.427 45.3816 131.535 44.7306C131.535 43.3201 131.644 41.9096 131.644 40.6076C131.644 40.3906 131.535 39.8481 131.319 39.8481C130.994 39.8481 130.994 40.3906 130.994 40.6076C130.994 42.1266 130.886 43.5371 130.886 45.0561C130.886 45.3816 130.886 45.7071 130.886 46.0326C130.777 45.7071 130.561 45.3816 130.453 45.0561C130.344 44.8391 130.236 44.8391 130.128 44.8391C130.128 44.7306 130.019 44.5136 130.019 44.4051C130.453 43.5371 130.453 42.2351 130.344 41.3671C130.236 40.8246 130.128 40.2821 130.019 39.7396C130.344 38.8716 130.777 38.1121 131.319 37.4611C132.51 36.0506 134.134 35.3996 135.866 35.5081C135.975 35.5081 135.975 35.6166 136.083 35.6166C136.299 35.7251 136.408 35.7251 136.624 35.6166C137.057 35.7251 137.599 35.8336 138.032 36.0506C138.248 36.1591 138.465 35.8336 138.465 35.5081C138.573 35.6166 138.79 35.7251 138.898 35.8336C139.873 36.4846 139.873 33.5551 139.439 33.0126C138.79 32.2531 138.032 31.6021 137.166 31.0596C135.758 29.6491 134.784 27.9131 134.784 26.0686C134.784 24.4411 135.542 22.8136 136.516 21.4031C136.408 22.0541 136.299 22.7051 136.299 23.4646C136.299 23.7901 136.408 24.2241 136.516 24.5496C136.624 24.8751 136.733 25.3091 137.057 25.5261C137.166 25.6346 137.382 25.6346 137.49 25.4176C137.599 25.2006 137.599 24.8751 137.49 24.6581C137.49 24.5496 137.382 24.4411 137.382 24.3326C137.382 24.3326 137.382 24.3326 137.382 24.2241C137.382 24.1156 137.382 24.1156 137.274 24.0071C137.274 23.8986 137.274 23.8986 137.166 23.7901C137.166 23.6816 137.166 23.6816 137.166 23.5731V23.4646C137.166 23.3561 137.166 23.2476 137.166 23.1391V23.0306C137.166 22.9221 137.166 22.9221 137.166 22.8136C137.166 22.8136 137.166 22.4881 137.166 22.7051C137.166 22.5966 137.166 22.5966 137.166 22.4881C137.166 22.3796 137.166 22.3796 137.166 22.2711V22.1626C137.166 22.0541 137.274 21.9456 137.274 21.7286C137.382 21.4031 137.382 20.9691 137.166 20.6436C137.166 20.6436 137.057 20.6436 137.057 20.5351C137.382 20.2096 137.599 19.7756 137.924 19.4501C138.357 18.9075 138.898 18.3651 139.548 17.9311C139.439 18.6906 139.331 19.4501 139.223 20.3181C139.223 21.1861 139.223 22.0541 139.548 22.8136C139.656 22.9221 139.764 23.0306 139.873 23.0306C139.981 22.9221 140.089 22.7051 140.089 22.4881C140.089 22.0541 140.089 21.7286 140.089 21.1861C140.089 21.0776 140.089 20.8606 139.981 20.7521V20.6436C139.981 20.5351 139.981 20.535 139.981 20.4265V20.3181V20.2095V20.1011C139.981 19.9926 139.981 19.9925 139.981 19.884C139.981 19.667 139.981 19.5585 140.089 19.3415C140.089 19.016 140.197 18.6905 140.306 18.2565C140.306 18.0395 140.306 17.6056 140.197 17.3885C140.847 16.846 141.605 16.195 142.471 15.761C142.363 16.412 142.255 17.063 142.146 17.714C142.038 18.148 141.93 18.582 141.93 18.9075C141.822 19.3415 141.713 19.7756 141.713 20.3181C141.713 20.5351 141.713 20.8605 141.93 20.969C142.146 21.0775 142.255 20.8606 142.363 20.6436C142.471 20.1011 142.688 19.5586 142.796 19.0161C142.796 18.7991 142.796 18.6906 142.796 18.4736C142.796 18.3651 142.904 18.148 142.904 18.0395C143.121 17.1715 143.229 16.3035 143.337 15.544C143.337 15.4355 143.337 15.327 143.337 15.2185C145.828 13.808 148.643 13.0485 151.133 13.808C153.624 14.5675 154.057 16.846 153.84 19.1245C153.732 19.667 153.732 20.6436 154.273 20.8606C154.706 21.1861 155.031 20.7521 155.248 20.2095C156.98 14.242 164.235 11.5295 169.865 11.204C174.196 10.987 181.884 12.072 182.75 17.3885C183.183 20.2096 181.992 23.2476 181.017 25.7431C181.017 25.5261 180.909 25.4176 180.801 25.3091C178.635 24.6581 176.578 24.7666 174.412 25.2006C174.412 25.0921 174.413 24.9836 174.521 24.8751C174.521 24.7666 174.629 24.5496 174.629 24.4411C174.629 24.3326 174.629 24.3326 174.629 24.2241C174.737 24.0071 174.737 23.6816 174.846 23.4646V23.3561C174.846 23.3561 174.846 23.3561 174.846 23.2476C174.954 23.1391 174.954 22.9221 175.062 22.7051C175.17 22.4881 175.17 22.1626 175.062 21.8371C174.954 21.6201 174.846 21.6201 174.629 21.7286C174.413 21.9456 174.304 22.2711 174.196 22.5966C174.088 22.8136 173.979 23.1391 173.979 23.4646C173.871 24.1156 173.763 24.7666 173.546 25.3091V25.4176C172.247 25.7431 171.056 26.2856 169.757 26.8281C169.215 27.1536 168.674 27.3706 168.133 27.6961C168.133 26.8281 168.024 25.8516 168.024 24.9836C168.024 24.8751 168.024 24.7666 168.024 24.6581V24.5496C168.024 24.7666 168.024 24.4411 168.024 24.4411C168.024 24.3326 168.024 24.2241 168.024 24.1156V24.0071V23.8986V23.7901V23.6816V23.5731C168.024 23.5731 168.024 23.4646 168.133 23.4646C168.241 23.2476 168.349 23.1391 168.457 22.8136C168.566 22.5966 168.566 22.0541 168.241 21.9456C167.808 21.7286 167.483 22.5966 167.375 22.9221C167.158 23.4646 167.158 24.1156 167.158 24.6581C167.158 25.7431 167.266 26.7196 167.266 27.8046C167.266 27.9131 167.266 28.0216 167.266 28.1301C166.4 28.6726 165.534 29.2151 164.776 29.7576C164.343 29.9746 164.018 30.3001 163.585 30.5171C163.693 29.3236 163.585 28.2386 163.693 27.0451C163.693 26.5026 163.693 25.9601 163.801 25.4176C163.91 24.8751 164.235 24.4411 164.343 24.0071C164.451 23.7901 164.343 22.8136 164.018 23.0306C163.585 23.3561 163.368 24.1156 163.26 24.5496C163.044 25.2006 163.044 25.8516 162.935 26.6111C162.827 27.8046 162.935 29.1066 162.827 30.1916C162.827 30.4086 162.827 30.7341 162.935 30.9511C162.719 31.1681 162.394 31.2766 162.177 31.4936C162.177 31.2766 162.177 31.0596 162.177 30.9511C162.177 30.8426 162.069 30.6256 162.069 30.5171C162.069 30.4086 162.069 30.3001 161.961 30.3001V30.1916C161.961 30.1916 161.961 30.1916 161.961 30.3001C161.961 30.3001 161.961 30.3001 161.961 30.1916C161.853 29.7576 161.744 29.2151 161.744 28.7811C161.744 28.5641 161.636 28.2386 161.636 28.0216C161.636 27.9131 161.636 27.9131 161.636 27.8046C161.636 27.8046 161.636 27.8046 161.636 27.6961C161.636 27.5876 161.636 27.4791 161.636 27.3706C161.636 27.1536 161.636 26.9366 161.636 26.7196V26.6111V26.5026C161.744 26.5026 161.744 26.5026 161.853 26.5026C162.069 26.5026 162.177 26.1771 162.177 26.0686C162.177 25.8516 162.177 25.5261 162.069 25.3091C161.853 24.9836 161.528 24.9836 161.203 25.3091C160.878 25.7431 160.878 26.3941 160.878 26.9366C160.878 28.1301 160.986 29.2151 161.203 30.4086C161.311 30.9511 161.419 31.3851 161.528 31.9276C161.528 32.0361 161.636 32.0361 161.636 32.1446C161.311 32.3616 160.986 32.6871 160.553 32.9041C160.228 33.1211 160.228 34.4231 160.77 34.2061C162.177 33.5551 163.477 32.4701 164.776 31.4936C166.292 30.4086 167.916 29.4321 169.54 28.5641C172.897 26.8281 176.686 25.7431 180.476 26.8281C180.584 26.8281 180.801 26.8281 180.801 26.6111C180.801 27.3706 181.017 28.3471 181.775 28.0216C185.132 26.5026 189.138 25.9601 192.386 28.1301C195.093 29.9746 196.392 33.3381 196.392 36.4846C195.851 40.4991 194.768 44.7306 191.52 46.6836Z" fill="black"/>
<path d="M150.917 32.3621C150.809 32.0366 150.592 31.7111 150.376 31.4941C149.943 30.8431 149.51 30.3006 148.968 29.7581C147.994 28.7816 146.586 28.1306 145.287 28.7816C144.854 28.9986 144.962 30.5176 145.503 30.1921C146.694 29.6496 147.885 30.3006 148.752 31.0601C149.185 31.4941 149.618 32.0366 149.943 32.5791C150.159 32.9046 150.267 33.1216 150.376 33.4471C150.484 33.6641 150.592 34.2066 150.917 34.2066C151.242 34.2066 151.242 33.6641 151.242 33.5556C151.242 33.1216 151.025 32.7961 150.917 32.3621Z" fill="black"/>
<path d="M181.235 36.5939C181.235 36.4854 181.127 36.377 181.018 36.377C180.693 36.377 180.693 36.9194 180.693 37.1364C180.693 37.5704 180.693 38.113 180.693 38.547C180.693 38.764 180.693 38.9809 180.693 39.1979C180.693 39.5234 180.693 39.9575 180.91 40.1745C181.018 40.283 181.127 40.283 181.235 40.1745C181.451 39.9575 181.451 39.5234 181.451 39.1979C181.451 38.9809 181.451 38.764 181.451 38.547C181.451 38.113 181.451 37.5704 181.451 37.1364C181.343 36.9194 181.343 36.7024 181.235 36.5939Z" fill="black"/>
<path d="M184.375 36.1588C183.617 35.0738 182.101 34.5312 180.802 34.5312C179.502 34.5312 177.986 35.2908 177.986 36.8098C177.986 37.0268 177.986 37.2438 178.203 37.3523C178.311 37.4608 178.419 37.4608 178.528 37.3523C178.528 37.7863 178.528 38.3288 178.528 38.7628C178.528 39.0883 178.636 39.3053 178.636 39.6308C178.636 39.7393 178.744 39.8478 178.744 39.9563C178.853 40.0648 178.853 40.2818 178.961 40.3903C179.177 40.6073 179.286 40.3903 179.394 40.1733C179.394 40.2818 179.394 40.1733 179.394 40.0648C179.394 40.0648 179.394 40.0648 179.394 39.9563V39.8478C179.394 39.8478 179.394 39.8478 179.394 39.7393C179.394 39.6308 179.394 39.5223 179.394 39.4138C179.394 39.3053 179.394 39.1968 179.286 38.9798C179.286 38.7628 179.177 38.5458 179.177 38.2203C179.177 38.1118 179.177 38.1118 179.177 38.0033C179.177 37.8948 179.177 37.7863 179.177 37.5693C179.177 37.4608 179.177 37.3523 179.177 37.1353C179.177 37.0268 179.177 37.0268 179.177 36.9183C179.177 36.7013 179.177 36.4843 179.177 36.3758C179.177 36.2673 179.177 36.2673 179.069 36.1588C179.177 36.1588 179.177 36.0503 179.286 36.0503C179.719 35.8333 180.26 35.7248 180.802 35.7248C181.559 35.7248 182.426 35.9418 183.075 36.3758C183.075 36.5928 183.075 36.7013 183.075 36.9183C183.075 37.2438 183.184 37.5693 183.184 37.7863C183.292 38.0033 183.292 38.3288 183.508 38.5458C183.508 38.6543 183.617 38.6543 183.725 38.7628C183.833 38.7628 183.833 38.7628 183.942 38.6543C184.05 38.4373 184.158 38.2203 184.05 37.8948C184.05 37.6778 183.942 37.3523 183.942 37.1353V37.0268C184.158 37.1353 184.375 36.8098 184.375 36.7013C184.591 36.8098 184.591 36.4843 184.375 36.1588Z" fill="black"/>
<path d="M185.891 35.9434C185.674 35.9434 185.674 36.5944 185.891 36.5944C186.216 36.5944 186.216 35.9434 185.891 35.9434Z" fill="black"/>
<path d="M186.756 38.8723C186.756 38.7638 186.647 38.5468 186.539 38.5468C186.539 38.4383 186.539 38.2213 186.431 38.1128C186.431 37.8958 186.323 37.7873 186.323 37.5703V37.4618C186.323 37.3533 186.323 37.2448 186.323 37.1363C186.323 37.0278 186.214 36.8107 186.106 36.7022C185.998 36.5937 185.89 36.5938 185.781 36.5938C185.456 36.8108 185.456 37.2447 185.565 37.5703C185.565 37.8958 185.673 38.2213 185.781 38.5468C185.781 38.6553 185.781 38.6553 185.781 38.7638C185.673 38.5468 185.781 38.7638 185.781 38.7638V38.8723C185.781 38.8723 185.781 38.8723 185.781 38.9808V39.0893V39.1978C185.781 39.4148 185.781 39.7403 185.89 39.9573C185.998 40.1743 186.214 40.2828 186.323 40.1743C186.431 40.0658 186.539 39.8488 186.539 39.7403V39.6318C186.539 39.6318 186.539 39.6318 186.539 39.5233C186.539 39.4148 186.539 39.4148 186.539 39.3063C186.539 39.3063 186.539 39.3063 186.539 39.4148C186.864 39.1978 186.864 38.9808 186.756 38.8723Z" fill="black"/>
<path d="M188.489 38.2204C188.489 38.2204 188.489 38.1119 188.489 38.2204C188.489 38.1119 188.489 38.1119 188.489 38.1119C188.489 38.0034 188.489 38.0034 188.381 37.8949C188.272 37.7864 188.272 37.5694 188.164 37.4609C188.056 37.2439 188.056 37.0269 187.947 36.8099C187.947 36.7014 187.839 36.4844 187.731 36.4844C187.623 36.4844 187.514 36.4844 187.406 36.5929C187.189 36.9184 187.189 37.3524 187.298 37.6779C187.406 38.0034 187.514 38.2204 187.623 38.5459C187.623 38.6544 187.731 38.7629 187.731 38.8714C187.731 38.8714 187.731 38.9799 187.839 38.9799C187.839 39.0884 187.947 39.0884 187.947 39.0884C188.056 39.1969 188.056 39.3054 188.272 39.3054C188.489 39.3054 188.489 39.0884 188.597 38.8714C188.597 38.5459 188.597 38.3289 188.489 38.2204C188.489 38.1119 188.489 38.1119 188.489 38.2204Z" fill="black"/>
<path d="M188.488 38.2207V38.3292C188.597 38.4377 188.597 38.4377 188.488 38.2207Z" fill="black"/>
<path d="M189.139 35.6172C188.922 35.6172 188.922 36.2682 189.139 36.2682C189.356 36.2682 189.356 35.6172 189.139 35.6172Z" fill="black"/>
<path d="M190.871 35.291C190.655 35.291 190.655 35.942 190.871 35.942C191.088 35.942 191.088 35.291 190.871 35.291Z" fill="black"/>
<path d="M190.979 38.3306C190.979 38.2221 190.979 38.1136 190.871 38.1136V38.0052C190.871 37.8967 190.871 37.8966 190.763 37.7881C190.763 37.6796 190.763 37.5711 190.655 37.5711C190.655 37.4626 190.655 37.3541 190.546 37.2456C190.546 37.1371 190.438 36.9201 190.33 36.8116C190.221 36.7031 190.113 36.7031 190.005 36.7031C189.897 36.8116 189.788 36.9201 189.788 37.0286C189.788 37.2456 189.68 37.4626 189.788 37.5711C189.788 37.7881 189.897 38.1136 189.897 38.3306C189.897 38.4392 189.897 38.5477 190.005 38.6562V38.7647C190.005 38.8732 190.113 38.9817 190.113 39.0902C190.221 39.1987 190.221 39.3072 190.33 39.3072H190.438C190.546 39.3072 190.546 39.3072 190.546 39.1987C190.655 39.0902 190.655 38.9817 190.655 38.9817C190.655 38.8732 190.655 38.7647 190.655 38.6562C190.979 38.5477 190.979 38.4392 190.979 38.3306Z" fill="black"/>
<path d="M192.387 38.2221C192.387 37.8966 192.387 37.5711 192.279 37.2456C192.279 37.1371 192.171 37.0286 192.062 37.0286C191.954 36.7031 191.846 36.3776 191.846 36.0521C191.846 35.9436 191.737 35.7266 191.629 35.7266C191.521 35.7266 191.413 35.7266 191.304 35.8351C191.088 36.1606 191.088 36.5946 191.196 36.9201C191.304 37.4626 191.521 38.1136 191.629 38.6561C191.629 38.7646 191.629 38.8731 191.737 38.9816C191.846 39.1986 191.954 39.5241 192.171 39.3071C192.279 39.1986 192.387 39.0901 192.387 38.8731C192.495 38.6561 192.495 38.4391 192.387 38.2221Z" fill="black"/>
<path d="M18.4958 36.4844C17.9544 36.4844 17.6295 37.5694 17.5213 38.0034C17.3047 38.7629 17.3047 39.6309 17.3047 40.3904C17.3047 41.8009 17.6295 43.4284 17.3047 44.7304C17.3047 44.9474 17.3047 45.4899 17.5213 45.7069C17.8461 45.8154 17.9544 45.3814 17.9544 45.1644C18.2792 43.8624 18.0626 42.3434 17.9544 41.0414C17.9544 40.3904 17.9544 39.7394 18.0626 39.0884C18.0626 38.8714 18.1709 38.6544 18.2792 38.4374C18.3875 38.2204 18.604 37.8949 18.7123 37.6779C18.8206 37.3524 18.9289 36.4844 18.4958 36.4844Z" fill="black"/>
<path d="M37.8783 42.0186C37.8783 41.4761 37.77 40.9336 37.77 40.2826C37.6618 39.7401 37.6618 39.1976 37.5535 38.6551C37.5535 38.4381 37.3369 38.2211 37.1204 38.3296C36.9038 38.4381 36.7955 38.8722 36.9038 39.0892C36.9038 40.0657 37.1204 40.9336 37.2286 41.9101C37.2286 42.7781 37.2286 43.6461 37.0121 44.5141C36.9038 44.8396 36.9038 45.2736 37.1204 45.5991C37.3369 45.8161 37.5535 45.5991 37.6617 45.2736C37.77 44.1886 37.8783 43.1036 37.8783 42.0186Z" fill="black"/>
<path d="M41.8841 38.5477C41.8841 38.3307 41.8841 38.0052 41.6675 38.0052H41.5593C41.6675 38.0052 41.5593 38.0052 41.5593 38.0052C41.451 37.8967 41.3427 37.6797 41.2344 37.6797C41.0179 37.6797 40.9096 37.8967 40.8014 38.1137C40.5848 38.4392 40.6931 38.8732 40.6931 39.3072C40.6931 40.3922 40.6931 41.5857 40.6931 42.6707C40.6931 42.8877 40.8013 43.4302 41.1262 43.4302C41.451 43.4302 41.451 42.8877 41.451 42.6707C41.451 41.5857 41.451 40.5007 41.451 39.4157C41.5593 39.4157 41.6675 39.4157 41.6675 39.3072C41.8841 38.9817 41.8841 38.7647 41.8841 38.5477Z" fill="black"/>
<path d="M56.0687 28.1309C55.8521 28.1309 55.8521 28.7819 56.0687 28.7819C56.2853 28.7819 56.2853 28.1309 56.0687 28.1309Z" fill="black"/>
<path d="M56.0687 33.1208C56.0687 33.0123 55.9605 32.6868 55.7439 32.6868C55.6356 32.6868 55.6356 32.6868 55.5274 32.7953C55.4191 32.3613 55.4191 32.0358 55.4191 31.6018C55.4191 30.6253 55.4191 29.6488 55.5274 28.7808C55.5274 28.5638 55.5274 28.0212 55.3108 27.8042C54.986 27.6957 54.8777 28.1297 54.8777 28.3467C54.7695 29.5402 54.6612 30.6253 54.7695 31.8188C54.8777 32.9038 54.986 34.2058 55.5274 35.1823C55.7439 35.6163 56.0687 35.1823 56.177 34.8568C56.177 34.2058 56.0687 33.6633 56.0687 33.1208Z" fill="black"/>
<path d="M58.5588 31.6025C58.4505 31.06 58.3422 30.5175 58.3422 29.975C58.234 28.89 58.0174 27.8049 57.8009 26.7199C57.6926 26.5029 57.476 26.1774 57.2595 26.5029C57.0429 26.7199 57.0429 27.2624 57.1512 27.588C57.3677 28.5645 57.476 29.6495 57.6926 30.7345C57.8008 31.277 57.8008 31.8195 57.9091 32.2535C58.0174 32.579 58.0174 32.796 58.1257 33.1215C58.234 33.447 58.2339 33.664 58.4505 33.881C58.7753 34.2065 58.9919 33.5555 58.9919 33.3385C58.8836 32.6875 58.667 32.145 58.5588 31.6025Z" fill="black"/>
<path d="M61.2647 31.6029C60.8316 30.8434 60.5068 29.9754 60.3985 29.1074C60.2902 28.6734 60.2902 28.1309 60.2902 27.6969C60.2902 27.4799 60.2902 27.2629 60.2902 27.0459C60.2902 26.9374 60.2902 26.8289 60.2902 26.7204C60.2902 26.6119 60.2902 26.6119 60.2902 26.5034C60.2902 26.2864 60.2902 25.7439 60.0737 25.5269C59.7488 25.4184 59.6406 25.8524 59.6406 26.0694C59.5323 27.2629 59.6406 28.4564 59.7488 29.5414C59.8571 30.0839 59.9654 30.7349 60.1819 31.2774C60.3985 31.8199 60.5068 32.3624 60.9399 32.6879C61.1564 32.9049 61.2647 32.6879 61.373 32.4709C61.373 32.2539 61.373 31.9284 61.2647 31.6029Z" fill="black"/>
<path d="M63.4316 30.0833C63.4316 29.9748 63.3233 29.8662 63.2151 29.6492V29.5408C63.2151 29.4323 63.215 29.4323 63.1068 29.3238V29.2152C63.1068 29.1067 63.1068 29.1067 63.1068 29.1067V28.9983V28.8897C63.1068 28.6727 62.9985 28.4557 62.9985 28.2387C62.9985 28.1302 62.9985 28.0217 62.9985 27.9132V27.8047V27.6962V27.5877V27.4792C62.9985 27.3707 62.9985 27.2622 62.9985 27.1537C62.9985 26.7197 62.9985 26.2857 62.8902 25.7432C62.8902 25.5262 62.6737 25.0922 62.4571 25.2007C62.1323 25.3092 62.1323 25.8517 62.2405 26.0687C62.2405 26.1772 62.2405 26.1772 62.2405 26.2857C62.2405 26.3942 62.2405 26.5027 62.2405 26.6112C62.2405 26.8282 62.2405 27.0452 62.2405 27.3707C62.2405 27.9132 62.3488 28.4557 62.3488 29.1067C62.4571 29.5407 62.4571 30.0833 62.6737 30.5173C62.7819 30.7343 62.9985 31.4938 63.4316 31.2768C63.6482 30.8428 63.5399 30.3003 63.4316 30.0833Z" fill="black"/>
<path d="M65.705 28.7819C65.705 28.5649 65.5967 28.4564 65.4885 28.2394C65.4885 28.1309 65.3802 28.1308 65.3802 28.0223V27.9138C65.3802 27.8053 65.2719 27.5883 65.2719 27.4798V27.3713C65.2719 27.2628 65.2719 27.1543 65.2719 27.0458C65.2719 26.9373 65.2719 26.8288 65.2719 26.8288V26.7203C65.2719 26.6118 65.2719 26.5033 65.2719 26.5033C65.2719 26.3948 65.2719 26.2863 65.2719 26.2863C65.2719 25.8523 65.2719 25.4183 65.1636 25.0928C65.1636 24.8758 64.9471 24.4418 64.7305 24.5503C64.4057 24.6588 64.4057 25.2013 64.514 25.5268V25.6353C64.514 25.7438 64.514 25.8523 64.514 25.9608C64.514 26.1778 64.514 26.3948 64.514 26.5033C64.514 26.9373 64.514 27.3713 64.6223 27.8053C64.7305 28.2393 64.8388 28.6733 64.9471 28.9989C65.0553 29.2159 65.3802 29.7583 65.705 29.6498C65.8133 29.4328 65.8133 28.9989 65.705 28.7819Z" fill="black"/>
<path d="M67.7614 28.4554C67.8697 28.5639 67.7614 28.4554 67.7614 28.4554C67.6532 28.3469 67.6532 28.3469 67.6532 28.3469L67.5449 28.2384C67.6532 28.3469 67.5449 28.1299 67.5449 28.1299C67.5449 28.1299 67.5449 28.0214 67.4366 28.0214C67.3283 27.8044 67.3283 27.6958 67.2201 27.4788C67.2201 27.3703 67.2201 27.3704 67.2201 27.2619C67.2201 27.1534 67.22 27.0448 67.1118 26.9363C67.0035 26.0683 66.8952 25.0918 66.5704 24.2238C66.4621 24.0068 66.2456 23.6813 66.029 24.0068C65.8124 24.2238 65.8125 24.7663 65.9207 25.0918C66.029 25.3088 66.029 25.5258 66.029 25.6343C66.029 25.7428 66.029 25.7428 66.029 25.8513C66.029 25.9598 66.029 26.0684 66.1373 26.1769C66.2456 26.6109 66.2456 27.1534 66.3538 27.5874C66.4621 28.0214 66.5704 28.5639 66.787 28.9979C67.0035 29.3234 67.22 29.6489 67.6532 29.5404C67.8697 29.5404 67.8697 29.1064 67.8697 28.9979C67.978 28.8894 67.978 28.6724 67.7614 28.4554Z" fill="black"/>
<path d="M70.1434 26.9368C70.1434 26.8283 70.0351 26.6113 69.9268 26.5028C69.9268 26.6113 69.9268 26.6113 69.9268 26.5028C69.9268 26.3943 69.9268 26.3943 69.8185 26.2858V26.1773C69.8185 26.0688 69.7103 25.8518 69.7103 25.7433V25.6348C69.7103 25.5263 69.7103 25.5263 69.7103 25.4178C69.602 24.7668 69.602 24.1158 69.4937 23.5733C69.4937 23.3563 69.2772 22.9223 69.0606 23.0308C68.7358 23.1393 68.7358 23.6818 68.8441 24.0073C68.9523 24.6583 68.9523 25.4178 69.0606 26.0688C69.1689 26.5028 69.1689 26.8283 69.3854 27.2623C69.4937 27.5878 69.7103 27.9133 69.9268 28.0218C70.1434 28.1303 70.2517 27.9133 70.2517 27.6963C70.2517 27.4793 70.2517 27.1538 70.1434 26.9368Z" fill="black"/>
<path d="M79.6713 24.0076C79.563 23.4651 79.3465 23.0311 79.1299 22.5971C78.9134 22.1631 78.8051 21.7291 78.5885 21.2951C78.5885 21.1866 78.4803 21.0781 78.372 21.0781C78.2637 21.0781 78.1554 21.1866 78.1554 21.2951C78.0471 21.6206 78.0471 22.0546 78.1554 22.3801C78.372 22.8141 78.4803 23.2481 78.6968 23.6821C78.8051 23.8991 78.9134 24.1161 79.0216 24.2246C79.1299 24.4416 79.2382 24.6586 79.4548 24.8756C79.563 24.9841 79.7796 24.9841 79.7796 24.7671C79.6713 24.5501 79.6713 24.2246 79.6713 24.0076Z" fill="black"/>
<path d="M88.0101 23.4648C87.7935 23.4648 87.7935 24.1159 88.0101 24.1159C88.2267 24.1159 88.2267 23.4648 88.0101 23.4648Z" fill="black"/>
<path d="M27.4826 9.36117C27.4826 9.25267 27.4826 9.14417 27.4826 9.36117C27.4826 9.25267 27.4826 9.14418 27.4826 9.14418C27.4826 9.03568 27.4826 9.03568 27.4826 8.92718V8.81867C27.4826 8.60167 27.4826 8.49317 27.4826 8.27617V8.16768V8.27617V8.16768C27.4826 8.05917 27.4826 7.95067 27.4826 7.84217C27.4826 7.62517 27.4826 7.40817 27.4826 7.29966C27.4826 7.19116 27.3743 6.97416 27.266 6.97416C26.9412 6.86566 26.8329 7.29966 26.8329 7.51666C26.8329 7.95067 26.7246 8.49317 26.7246 8.92718C26.7246 9.14418 26.7246 9.46968 26.8329 9.68668C26.8329 9.90368 26.9412 10.1207 27.1577 10.2292L27.266 10.3377C27.3743 10.3377 27.3743 10.3377 27.4826 10.3377C27.6991 10.3377 27.6991 10.1207 27.6991 9.90368C27.6991 9.79518 27.6991 9.46968 27.4826 9.36117Z" fill="black"/>
<path d="M30.8404 7.9505C30.8404 7.842 30.8404 7.73351 30.8404 7.62501V7.5165C30.8404 7.2995 30.9487 7.0825 31.0569 6.974C31.1652 6.757 31.1652 6.54 31.0569 6.4315C31.0569 6.323 30.9487 6.10601 30.8404 5.99751C30.6238 5.78051 30.4073 5.99749 30.299 6.323C29.9742 7.191 29.8659 8.1675 29.9742 9.0355C29.9742 9.361 29.9742 9.6865 30.299 9.9035C30.4073 10.012 30.6238 10.012 30.7321 9.9035C30.8404 9.6865 30.9487 9.46951 30.9487 9.25251C31.0569 9.14401 31.0569 8.92701 30.9487 8.71001C30.9487 8.60151 30.8404 8.49301 30.7321 8.38451V8.276C30.8404 8.059 30.8404 8.059 30.8404 7.9505Z" fill="black"/>
<path d="M32.2474 7.73284C32.1391 7.62434 32.0308 7.73285 31.9225 7.84135C31.9225 7.62434 31.9225 7.40734 31.9225 7.19033C31.9225 6.43083 31.8143 5.56282 31.5977 4.80332C31.4895 4.58632 31.2729 4.26081 31.0564 4.47781C30.8398 4.69481 30.8398 5.23732 30.9481 5.56282C31.1646 6.21383 31.1646 6.75633 31.1646 7.40733C31.1646 8.16684 31.1646 8.81784 31.2729 9.57735C31.2729 9.79435 31.4895 10.3369 31.8143 10.0114C32.0308 9.79436 32.1391 9.57736 32.2474 9.25186C32.3556 9.03486 32.3557 8.81784 32.3557 8.49234C32.4639 8.27534 32.4639 7.94984 32.2474 7.73284Z" fill="black"/>
<path d="M33.3308 7.08224C33.3308 6.32273 33.2225 5.67172 33.0059 5.02072C32.8977 4.80372 32.6811 4.47822 32.4646 4.80372C32.248 5.02072 32.248 5.56322 32.3563 5.88873C32.3563 5.99723 32.4646 6.21422 32.4646 6.32272C32.4646 6.43122 32.4646 6.43123 32.4646 6.53973C32.4646 6.64823 32.4646 6.86523 32.4646 6.97373V7.08224C32.4646 7.19074 32.4646 7.19073 32.4646 7.29923C32.4646 7.95023 32.4646 8.60123 32.4646 9.14373C32.4646 9.25223 32.5728 9.57773 32.7894 9.57773C33.0059 9.57773 33.1142 9.25223 33.1142 9.14373C33.4391 8.49273 33.4391 7.73324 33.3308 7.08224Z" fill="black"/>
<path d="M35.17 4.15238C34.9534 3.93538 34.7368 4.15239 34.6286 4.36939C34.3037 5.34589 34.1955 6.43087 34.0872 7.40737C34.0872 7.94987 33.9789 8.49236 34.0872 9.03486C34.0872 9.25186 34.3037 10.0114 34.7369 9.90286C34.9534 9.79436 34.9534 9.25186 34.8451 9.03486V8.81787C34.8451 8.60087 34.8451 8.38388 34.8451 8.16688V8.05837C34.8451 7.94987 34.8451 7.84137 34.8451 7.73287C34.8451 7.29887 34.9534 6.75637 35.0617 6.32237C35.0617 6.21387 35.0617 6.10539 35.0617 5.99689V5.88838C35.0617 5.77988 35.17 5.56289 35.17 5.45439C35.3865 4.91189 35.3865 4.47788 35.17 4.15238Z" fill="black"/>
<path d="M37.5529 4.80247C37.5529 4.58547 37.4446 4.04297 37.228 4.04297C36.9032 4.04297 36.9032 4.58547 36.9032 4.80247C36.9032 5.77897 36.9032 6.86398 36.9032 7.84048C36.9032 8.05749 36.9032 8.38298 36.9032 8.59998C36.9032 8.70849 36.9032 8.70848 36.9032 8.81698V8.92549C36.9032 9.03399 36.9032 9.14249 36.9032 9.25099C36.9032 9.46799 36.9032 9.68499 36.7949 9.90199C36.7949 10.0105 36.7949 10.0105 36.7949 9.90199C36.7949 9.79349 36.7949 9.79349 36.7949 10.0105V10.119V10.2275C36.7949 10.4445 36.7949 10.6615 36.9032 10.77C37.0115 10.8785 37.1198 10.987 37.228 10.77C37.4446 10.4445 37.5529 10.0105 37.6611 9.57648C37.7694 9.03398 37.7694 8.49148 37.7694 7.94898C37.5529 6.97247 37.5529 5.88747 37.5529 4.80247Z" fill="black"/>
<path d="M39.501 9.90347V4.26145C39.501 4.04445 39.3927 3.50195 39.1761 3.50195C38.8513 3.50195 38.8513 4.04445 38.8513 4.26145V9.79498C38.8513 10.1205 38.743 10.663 38.9596 10.9885C38.9596 11.097 39.0679 11.314 39.1761 11.314H39.2844C39.3927 11.314 39.501 11.097 39.501 10.9885C39.501 10.663 39.501 10.229 39.501 9.90347Z" fill="black"/>
<path d="M42.534 4.36869C42.2091 4.26019 42.1009 4.69419 42.1009 4.91119C41.8843 5.99619 41.776 7.08119 41.6677 8.16619C41.5594 9.2512 41.4512 10.3362 41.4512 11.3127C41.4512 11.6382 41.4512 11.9637 41.6677 12.0722C41.9926 12.2892 42.1008 11.8552 42.2091 11.6382C42.3174 10.5532 42.3174 9.46818 42.4257 8.49168C42.534 7.40668 42.6423 6.43019 42.8588 5.34518C42.8588 5.01968 42.8588 4.47719 42.534 4.36869Z" fill="black"/>
<path d="M45.024 10.879V5.34544C45.024 5.12844 44.9157 4.58594 44.6991 4.58594C44.3743 4.58594 44.3743 5.12844 44.3743 5.34544V10.879C44.3743 11.4215 44.266 12.0725 44.3743 12.615C44.3743 12.832 44.4826 13.1575 44.5909 13.1575H44.6991C44.8074 13.049 44.9157 12.832 44.9157 12.7235C45.1322 12.181 45.024 11.53 45.024 10.879Z" fill="black"/>
<path d="M47.1891 11.3121C47.0808 9.57613 46.8643 7.94863 46.9725 6.21262C46.9725 5.99562 46.8643 5.45312 46.6477 5.45312C46.3229 5.45312 46.3229 5.99562 46.3229 6.21262C46.2146 7.94863 46.5394 9.68463 46.5394 11.3121C46.5394 11.7461 46.5394 12.0716 46.5394 12.5056C46.5394 12.7226 46.5394 12.9396 46.5394 13.1566C46.5394 13.2651 46.5394 13.2651 46.5394 13.3736C46.5394 13.3736 46.5394 13.3736 46.5394 13.4821V13.5907C46.5394 13.6992 46.6477 13.9161 46.8643 13.9161C47.0808 13.9161 47.1891 13.6991 47.1891 13.4821C47.1891 13.4821 47.1891 13.4821 47.1891 13.3736C47.1891 13.2651 47.1891 13.1566 47.1891 13.0481C47.1891 12.8311 47.1891 12.7226 47.1891 12.5056C47.2974 12.1801 47.2974 11.7461 47.1891 11.3121Z" fill="black"/>
<path d="M87.6838 23.7904C87.6838 23.6819 87.6838 23.5734 87.6838 23.4649C87.6838 23.2479 87.6838 23.1394 87.5756 22.9224C87.4673 22.7054 87.4673 22.4884 87.359 22.2714C87.359 22.1629 87.2507 22.1629 87.1425 22.1629C87.0342 22.1629 87.0342 22.2714 86.9259 22.2714C86.8176 22.3799 86.8176 22.4884 86.8176 22.5969C86.8176 22.4884 86.7094 22.4884 86.7094 22.3799C85.0852 20.2099 82.7032 18.0399 80.1045 17.2804C79.5632 17.1719 79.1301 17.0634 78.5887 17.0634C78.9135 15.8699 79.0218 14.6763 79.0218 13.3743C79.0218 13.2658 79.0218 13.2658 79.0218 13.1573C79.1301 12.6148 79.0218 11.6383 78.5887 11.2043C78.5887 11.2043 78.4804 11.2043 78.4804 11.0958C77.7225 8.92583 76.2066 7.29833 73.9328 6.43032C65.9204 3.28381 58.2329 8.27482 52.8191 13.9168C51.5198 8.49182 49.6791 2.30731 43.6157 0.679801C39.826 -0.296703 35.6033 0.137296 31.8136 0.896798C28.6736 1.5478 25.5336 2.63281 23.2598 5.12832C20.986 7.62383 20.2281 10.9873 20.0116 14.3509C15.3557 10.6618 8.3178 13.4829 4.52815 17.3889C2.25436 19.7759 0.846774 22.8139 0.955049 26.0689C0.955049 29.2154 2.4709 31.8194 4.96125 33.7724C6.58538 35.0744 8.42607 36.0509 10.375 36.9189C8.64262 37.7869 7.23504 39.1974 6.69366 41.3674C5.82746 44.8394 7.23503 48.5285 9.18399 51.458C11.2412 54.496 14.3812 57.2085 17.846 58.402C23.0433 60.138 29.215 58.9445 34.304 57.317C35.2784 56.9915 36.1446 56.666 37.1191 56.3405C37.3357 56.666 37.6605 56.7745 37.9853 56.5575C38.5267 56.232 38.9598 55.798 39.3929 55.364C42.5329 53.9535 45.6729 52.2175 48.4881 50.156C48.5963 50.156 48.7046 50.156 48.7046 50.156C48.5963 50.59 48.7046 51.1325 48.8129 51.5665C50.6536 57.968 56.9336 61.006 63.3218 59.704C66.2453 59.1615 68.8439 57.751 70.9011 55.581C73.0666 53.411 74.5825 50.807 76.6397 48.5285C79.0218 45.816 81.837 44.2969 85.5183 44.6224C85.7349 44.6224 85.9514 44.2969 86.0597 44.1884C89.5245 38.3294 91.3652 30.0834 87.6838 23.7904ZM80.9707 38.6549C78.9135 39.4144 77.1811 40.8249 75.4487 42.2354C73.9328 43.3204 72.3087 44.6225 71.0094 46.1415C70.1432 46.7925 69.3853 47.4435 68.4108 47.986C68.1942 48.0945 68.086 48.203 67.8694 48.203C67.7611 48.203 67.5446 48.203 67.328 48.203C66.8949 48.3115 66.4618 48.5285 66.0287 48.7455C65.3791 48.854 64.6211 48.9625 63.9715 49.071C61.806 49.288 59.5322 48.9625 57.4749 48.203C57.2584 48.0945 57.1501 48.0945 56.9336 47.986C56.0674 47.6605 55.0929 47.1179 54.4432 46.4669C53.7936 45.8159 53.2522 45.0564 52.9274 44.1884C52.8191 43.9714 52.7108 43.7544 52.6025 43.4289C52.386 42.8864 52.1694 42.4524 51.9529 41.9099C51.628 41.1504 51.3032 40.4994 50.8701 39.8484C50.7618 39.3059 50.5453 38.6549 49.8956 38.6549C49.4625 38.6549 49.1377 39.1974 49.0294 39.7399C48.8129 39.8484 48.5963 40.0654 48.3798 40.1739C48.3798 40.0654 48.2715 40.0654 48.2715 40.0654C48.1632 40.0654 48.1632 40.1739 48.055 40.3909C46.7557 41.2589 45.5646 42.1269 44.2653 42.8864C44.2653 42.7779 44.3736 42.6694 44.3736 42.5609C44.4819 42.0184 44.5901 41.4759 44.6984 40.9334C44.6984 40.7164 44.8067 40.3909 44.8067 40.1739C44.915 39.8484 44.915 39.4144 44.8067 39.0889C44.8067 38.9804 44.6984 38.7634 44.5901 38.6549C44.4819 38.5464 44.3736 38.5464 44.2653 38.6549C44.0488 38.9804 44.0488 39.3059 43.9405 39.6314C43.9405 39.8484 43.8322 40.1739 43.8322 40.3909C43.7239 40.9334 43.6157 41.4759 43.5074 42.0184C43.5074 42.2354 43.5074 42.7779 43.7239 42.9949C42.966 43.4289 42.2081 43.8629 41.3419 44.2969C39.0681 45.2734 36.686 46.0329 34.304 46.4669C34.4122 46.2499 34.4122 46.0329 34.4122 45.9244C34.4122 44.6224 34.304 43.4289 34.304 42.1269C34.304 41.8014 34.304 41.4759 34.304 41.1504C34.304 40.9334 34.304 40.8249 34.304 40.6079V40.4994C34.304 40.3909 34.304 40.3909 34.304 40.2824C34.304 40.1739 34.304 40.0654 34.304 39.9569C34.304 39.9569 34.304 39.9569 34.304 39.8484V39.7399V39.6314C34.4122 39.5229 34.4122 39.4144 34.4122 39.3059C34.5205 39.0889 34.5205 38.4379 34.1957 38.3294C33.2212 38.0039 33.3295 41.2589 33.3295 41.8014C33.3295 43.2119 33.4377 44.5139 33.4377 45.9244C33.4377 46.0329 33.4377 46.3585 33.6543 46.5755C32.7881 46.684 32.0302 46.7925 31.1639 46.901C31.3805 46.7925 31.4888 46.3585 31.3805 46.1415C31.2722 44.6225 30.9474 43.2119 30.8391 41.6929C30.7308 40.9334 30.6226 40.1739 30.6226 39.5229C30.6226 39.4144 30.6226 39.1974 30.6226 39.0889C30.6226 38.9804 30.6226 38.9804 30.6226 38.8719C30.6226 38.8719 30.6226 38.8719 30.6226 38.7634V38.6549C30.6226 38.5464 30.7309 38.4379 30.7309 38.3294C30.8391 38.1124 30.8391 37.3529 30.406 37.3529C29.7564 37.3529 29.7564 38.6549 29.7564 38.9804C29.7564 39.8484 29.8647 40.6079 29.9729 41.4759C30.0812 42.3439 30.1895 43.2119 30.2977 44.0799C30.406 44.5139 30.406 44.8395 30.5143 45.2735C30.5143 45.4905 30.5143 45.599 30.6226 45.816C30.6226 45.9245 30.6226 45.9244 30.6226 46.033C30.6226 46.033 30.6226 46.3585 30.6226 46.1415C30.6226 46.3585 30.7309 46.7925 30.9474 46.901C30.7309 46.901 30.6226 47.0094 30.406 47.0094C29.6481 47.1179 28.8902 47.118 28.1322 47.118C28.2405 46.901 28.3488 46.5754 28.3488 46.4669C28.2405 44.7309 27.9157 43.1034 27.6991 41.3674C27.5909 40.4994 27.4826 39.7399 27.5908 38.8719C27.5908 38.5464 27.5909 38.1124 27.6991 37.7869C27.8074 37.4614 27.9157 37.1359 28.024 36.8104C28.024 36.5934 28.024 35.3999 27.5908 35.8339C27.0495 36.3764 26.9412 37.4614 26.9412 38.1124C26.8329 39.0889 26.9412 40.0654 27.0495 41.0419C27.266 42.8864 27.5909 44.6224 27.6991 46.4669C27.6991 46.6839 27.6991 47.0095 27.9157 47.118C27.266 47.118 26.6164 47.118 25.9667 47.118C25.9667 47.0095 25.9667 46.901 25.9667 46.901C25.5336 45.165 25.2088 43.3204 24.9922 41.4759C24.884 40.4994 24.7757 39.5229 24.884 38.5464C24.884 37.6784 25.1005 36.9189 25.1005 36.1594C25.1005 35.9424 24.884 35.2914 24.6674 35.6169C24.126 36.2679 24.126 37.4614 24.126 38.3294C24.126 39.4144 24.126 40.4994 24.2343 41.5844C24.4509 43.4289 24.7757 45.3819 25.2088 47.118C24.6674 47.118 24.0178 47.118 23.4764 47.118C23.5847 46.901 23.5847 46.6839 23.4764 46.4669C23.1516 44.7309 22.8267 42.9949 22.7184 41.2589C22.6102 39.7399 22.5019 38.1124 23.3681 36.8104C23.4764 36.5934 23.4764 35.7254 23.1516 35.7254C22.3936 35.8339 22.1771 37.1359 22.0688 37.6784C21.8522 38.7634 21.9605 39.7399 21.9605 40.8249C22.0688 42.7779 22.3936 44.8394 22.7184 46.7924C22.7184 46.7924 22.7184 46.9009 22.7184 47.0094C22.3936 47.0094 22.0688 47.0094 21.744 47.0094C21.5274 47.0094 21.4191 47.0094 21.2026 47.0094C20.8778 47.0094 20.6612 46.901 20.3364 46.7924H20.4447C20.6612 46.5754 20.6612 46.0329 20.5529 45.7074C20.1198 44.1884 20.0116 42.6694 20.0116 41.1504C20.0116 40.2824 20.0116 39.5229 20.1198 38.6549C20.2281 37.8954 20.4447 37.2444 20.5529 36.4849C20.5529 36.2679 20.4447 35.3999 20.1198 35.8339C19.5785 36.3764 19.4702 37.4614 19.4702 38.1124C19.3619 39.0889 19.2536 40.0654 19.2536 41.0419C19.2536 42.8864 19.4702 44.7309 19.9033 46.4669C19.9033 46.5754 20.0116 46.684 20.0116 46.684C19.5785 46.5755 19.2536 46.467 18.8205 46.3585C18.4957 46.25 18.2792 46.3584 18.0626 46.4669C17.8461 46.4669 17.6295 46.3585 17.4129 46.3585C16.3302 46.1415 15.3557 45.7075 14.4895 44.9479C14.1647 44.0799 13.6233 43.4289 12.9736 42.6694C12.8654 42.3439 12.7571 42.0184 12.7571 41.6929C12.7571 41.5844 12.7571 41.4759 12.7571 41.3674C12.9736 41.0419 13.0819 40.7164 13.0819 40.2824C13.4067 39.8484 13.8398 39.4144 14.3812 39.1974C14.5978 39.0889 14.7061 38.8719 14.7061 38.5464C15.3557 38.0039 15.2474 36.0509 14.5978 35.7254C12.1074 34.6404 9.61709 33.6639 7.34331 32.2534C5.28607 31.0599 3.01229 29.4324 2.36264 27.0454C0.846777 21.7289 7.55986 16.8464 11.9992 15.7614C14.9226 15.0019 18.0626 15.4359 20.1198 17.8229C20.1198 18.0399 20.1198 18.1484 20.2281 18.3654C22.3936 23.2479 28.7819 24.3329 33.3295 22.8139C33.6543 22.7054 34.0874 22.5969 34.4122 22.3799C34.9536 22.3799 35.3867 22.2714 35.9281 22.0544C36.0364 22.0544 36.0364 21.9459 36.1446 21.8374C36.2529 21.7289 36.2529 21.6204 36.2529 21.5119C36.2529 21.4034 36.2529 21.2949 36.2529 21.1864C36.4695 20.9694 36.686 20.8609 36.9026 20.6439C37.1191 20.4269 37.2274 19.2334 36.686 19.2334C33.1129 19.3419 29.215 18.9079 26.2915 16.6293C24.6674 15.4358 23.6929 13.4828 23.4764 11.5298C23.4764 11.2043 23.4764 10.8788 23.4764 10.5533C23.4764 10.3363 23.5847 10.2278 23.5847 10.0108V9.90233C23.5847 10.0108 23.5847 10.1193 23.5847 10.3363C23.5847 11.2043 23.8012 12.1808 24.2343 12.9403C24.3426 13.0488 24.5591 13.2659 24.6674 13.0489C24.884 12.8319 24.9922 12.6148 25.2088 12.3978C25.4253 12.1808 25.4253 11.2043 24.9922 11.4213C24.884 11.4213 24.6674 11.5298 24.5591 11.6383C24.4509 11.4213 24.4509 11.2043 24.3426 10.9873C24.3426 10.9873 24.3426 10.9873 24.3426 10.8788C24.3426 10.7703 24.3426 10.7703 24.3426 10.6618C24.3426 10.6618 24.3426 10.3363 24.3426 10.4448C24.3426 10.3363 24.3426 10.3363 24.3426 10.2278C24.3426 10.1193 24.3426 10.1193 24.3426 10.0108V9.90233C24.3426 9.90233 24.3426 9.90234 24.3426 9.79384V9.68533C24.3426 9.57683 24.3426 9.57684 24.3426 9.46834C24.3426 9.35984 24.3426 9.25134 24.3426 9.25134V9.14283C24.3426 8.92583 24.4509 8.81733 24.4509 8.60033C24.4509 8.38333 24.5591 8.16633 24.4509 8.05783C24.6674 7.84083 24.884 7.62382 25.2088 7.40682C25.8584 6.86432 26.6164 6.32182 27.266 5.88782C27.3743 5.77932 27.4826 5.67082 27.5908 5.67082C27.5908 5.77932 27.5908 5.88782 27.5908 5.88782C27.5908 6.64732 27.4826 7.51532 27.5908 8.27483C27.5908 8.70883 27.5909 9.14283 27.6991 9.57683C27.8074 9.79383 28.024 10.2278 28.3488 10.1193C28.4571 10.0108 28.5653 9.79383 28.5653 9.68533C28.5653 9.46833 28.5653 9.25133 28.4571 9.14283C28.4571 9.03433 28.4571 9.03433 28.4571 8.92583C28.4571 8.81733 28.4571 8.81734 28.4571 8.70884C28.4571 8.70884 28.4571 8.70883 28.4571 8.60033C28.4571 8.38333 28.4571 8.27483 28.4571 8.05783C28.4571 7.29833 28.4571 6.64732 28.4571 5.88782C28.4571 5.67082 28.4571 5.34531 28.2405 5.23681C28.3488 5.12831 28.3488 5.12831 28.4571 5.01981C28.4571 5.01981 28.4571 5.01981 28.5653 5.01981C28.5653 5.01981 28.5653 5.12831 28.5653 5.01981C28.5653 5.12831 28.6736 5.34533 28.7819 5.45383C28.9984 5.67083 29.215 5.34531 29.3233 5.23681C29.4315 5.01981 29.4315 4.80282 29.3233 4.58582C29.9729 4.36882 30.5143 4.26031 31.1639 4.15181C36.4695 3.06681 44.157 2.19881 47.8384 7.18982C47.5136 7.29832 47.5136 7.84083 47.6218 8.16633C47.8384 9.14284 47.9467 10.1193 48.055 11.2043C48.055 11.7468 48.1632 12.1808 48.2715 12.7233C48.3798 13.2658 48.3798 13.8083 48.5963 14.3509C48.8129 14.7849 49.0294 14.4593 49.1377 14.2423C49.246 13.8083 49.3543 13.4829 49.3543 13.0489C49.3543 12.8319 49.3543 12.6148 49.246 12.5063C49.1377 12.3978 49.0294 12.5063 49.0294 12.5063C49.0294 12.3978 49.0294 12.3978 49.0294 12.2893C48.9212 11.8553 48.9212 11.3128 48.8129 10.8788C48.7046 9.90234 48.5963 9.03433 48.3798 8.05783C48.9212 9.03433 49.4625 10.0108 49.7874 11.0958C49.5708 11.3128 49.5708 11.7468 49.6791 12.0723C49.8956 12.7233 50.0039 13.3743 50.1122 14.0253C50.2205 14.3508 50.2205 14.6764 50.3287 14.8934C50.437 15.1104 50.5453 15.5443 50.7619 15.5443C50.8701 15.5443 50.9784 15.4358 50.9784 15.3273C51.0867 15.8699 51.1949 16.5209 51.4115 17.0634C51.5198 17.4974 51.9529 18.1484 52.4943 17.6059C57.2584 12.5063 63.5384 7.94933 70.9011 9.14283C72.8501 9.46833 75.1239 10.3363 76.2066 11.9638C76.0984 12.9404 75.557 13.9168 75.0156 14.7848C74.5825 15.2188 74.1494 15.6528 73.8246 16.0868C72.3087 17.2804 70.2515 17.4974 68.3025 17.7144C66.2453 17.9314 64.2963 18.4739 62.4556 19.2334C62.2391 19.3419 61.9142 19.4504 61.6977 19.5589C61.5894 19.5589 61.5894 19.6674 61.4811 19.6674C59.4239 20.6439 57.5832 21.9459 55.9591 23.4649C54.1184 25.2009 52.4943 27.2624 51.4115 29.5409C51.3032 29.8664 51.1949 30.1919 51.4115 30.5174C51.5198 30.7344 51.7363 30.9514 51.9529 30.7344C54.3349 27.2624 57.6915 25.0924 61.6977 23.8989C64.9459 23.0309 68.3025 22.7054 71.5508 22.7054C71.5508 22.8139 71.6591 22.8139 71.6591 22.8139C71.4425 22.9224 71.3342 23.3564 71.3342 23.5734C71.3342 24.2244 71.4425 24.8754 71.7673 25.5264C71.9839 25.9604 72.3087 26.5029 72.7418 26.7199C72.9584 26.8284 73.0666 26.5029 73.0666 26.3944C73.0666 26.1774 73.0666 25.8519 72.9584 25.6349C72.8501 25.4179 72.6335 25.3094 72.5252 25.0924C72.5252 25.0924 72.5252 25.0924 72.5252 24.9839C72.5252 24.9839 72.5252 24.9839 72.5252 24.8754C72.417 24.7669 72.417 24.6584 72.417 24.5499V24.4414V24.3329C72.417 24.2244 72.3087 24.1159 72.3087 24.0074C72.3087 23.8989 72.3087 23.8989 72.3087 23.7904C72.3087 23.7904 72.3087 23.6819 72.3087 23.5734C72.3087 23.7904 72.3087 23.5734 72.3087 23.5734C72.3087 23.3564 72.3087 23.2479 72.2004 23.0309C72.3087 23.0309 72.3087 23.0309 72.417 23.0309C72.7418 22.9224 72.9584 22.8139 73.2832 22.7054C73.608 22.7054 73.9328 22.7054 74.1494 22.7054C74.3659 22.7054 74.4742 22.4884 74.4742 22.2714C74.5825 22.5969 74.6908 22.9224 74.9073 23.1394C74.9073 23.2479 74.9073 23.4649 74.9073 23.5734C74.9073 23.6819 74.9073 23.6819 74.9073 23.7904C74.9073 23.8989 75.0156 24.0074 75.0156 24.0074C75.0156 24.0074 75.0156 23.8989 74.9073 23.8989C75.0156 24.1159 75.1239 24.3329 75.2321 24.5499C75.2321 24.6584 75.3404 24.7669 75.3404 24.9839L75.2321 24.8754C75.2321 24.9839 75.3404 24.9839 75.3404 25.0924C75.3404 25.3094 75.557 25.5264 75.7735 25.3094C75.9901 25.0924 75.9901 24.7669 75.9901 24.5499C75.9901 23.8989 75.6652 23.3564 75.3404 22.8139C75.8818 22.1629 76.4232 21.4034 76.8563 20.6439C77.8308 19.9929 79.1301 20.2099 80.4294 20.8609C80.4294 20.9694 80.4294 21.0779 80.5377 21.0779C80.7542 21.4034 80.9707 21.6204 81.1873 21.8374C81.4038 22.0544 81.7287 22.1629 82.0535 22.1629C82.1618 22.1629 82.2701 22.0544 82.2701 22.0544C82.2701 22.0544 82.2701 22.0544 82.2701 21.9459C83.5694 22.9224 84.7604 24.1159 85.4101 24.8754C88.8749 29.2154 88.0087 34.7489 86.0597 39.5229C84.8687 38.2209 83.028 37.8954 80.9707 38.6549Z" fill="black"/>
<path d="M69.3869 41.8017C69.3869 41.5847 69.3869 41.4762 69.1704 41.2592C69.1704 41.2592 69.0621 41.2592 69.0621 41.1507C69.0621 41.0422 69.0621 41.0422 68.9538 40.9337C68.8456 40.7167 68.8455 40.4997 68.7373 40.2827C68.7373 40.1742 68.7373 40.0657 68.629 40.0657C68.629 39.9572 68.5207 39.7402 68.4125 39.7402C68.3042 39.7402 68.1959 39.7402 68.0876 39.8487C67.9794 39.9572 67.9794 40.1742 67.8711 40.2827C67.8711 40.4997 67.8711 40.7167 67.8711 40.8252C67.9794 41.1507 67.9794 41.4762 68.0876 41.8017C68.0876 42.0187 68.1959 42.1272 68.1959 42.3442C68.3042 42.5612 68.4124 42.9952 68.7373 42.8867C68.9538 42.7782 68.9538 42.4527 69.0621 42.2357C69.4952 42.1272 69.4952 42.0187 69.3869 41.8017Z" fill="black"/>
<path d="M72.526 38.3292C72.526 38.2207 72.526 38.2207 72.526 38.3292C72.526 38.2207 72.526 38.2207 72.526 38.3292C72.4178 38.1122 72.3095 37.8952 72.2012 37.7867C72.2012 37.7867 72.2012 37.8952 72.3095 37.8952C72.3095 37.8952 72.3095 37.7867 72.2012 37.7867C72.2012 37.6782 72.0929 37.4612 71.9847 37.4612C71.8764 37.4612 71.7681 37.4612 71.6599 37.5697V37.6782C71.5516 37.4612 71.5516 37.3527 71.335 37.2442C71.0102 37.1357 70.6854 37.2442 70.2523 37.3527C69.8192 37.4612 69.6026 37.4612 69.1695 37.5697C68.4116 37.7867 67.7619 38.0037 67.1123 38.4377C65.7047 39.1972 64.8385 40.3907 64.5137 41.9097C64.5137 42.1267 64.5137 42.6692 64.7302 42.8862C64.8385 42.9947 64.9468 42.8862 65.055 42.7777C65.055 42.8862 65.0551 43.1032 65.1633 43.2117C65.2716 43.4287 65.3799 43.6457 65.4881 43.9712C65.4881 44.0797 65.5964 44.1882 65.5964 44.2967C65.7047 44.4052 65.7047 44.6222 65.813 44.6222C65.9212 44.7307 66.0295 44.6222 66.0295 44.5137C66.1378 44.4052 66.1378 44.2967 66.1378 44.0797C66.1378 43.7542 66.0295 43.4287 65.9213 43.1032C65.813 42.7777 65.7047 42.5607 65.5964 42.2352C65.5964 42.1267 65.4882 42.0182 65.3799 42.0182C65.3799 42.0182 65.2716 42.0182 65.2716 42.1267C65.3799 41.9097 65.3799 41.8012 65.4881 41.5842C65.5964 41.3672 65.813 41.0417 66.0295 40.8247C66.1378 40.7162 66.3544 40.6077 66.4626 40.3907C66.5709 40.3907 66.5709 40.2822 66.5709 40.1737C66.5709 40.1737 66.6792 40.1737 66.6792 40.0652C66.5709 40.2822 66.5709 40.6077 66.5709 40.8247C66.5709 41.3672 66.7875 41.9097 66.8957 42.4522C67.004 42.6692 67.004 42.9947 67.1123 43.2117C67.1123 43.2117 67.1123 43.2117 67.1123 43.3202C67.1123 43.3202 67.1123 43.3202 67.1123 43.4287C67.2206 43.5372 67.2206 43.6457 67.4371 43.6457C67.6537 43.6457 67.7619 43.2117 67.7619 42.9947V42.8862C67.7619 42.8862 67.7619 42.8862 67.7619 42.9947C67.7619 42.8862 67.7619 42.7777 67.7619 42.6692C67.7619 42.4522 67.6537 42.2352 67.5454 41.9097C67.5454 41.8012 67.4371 41.6927 67.4371 41.5842C67.4371 41.4757 67.4371 41.4757 67.4371 41.3672C67.4371 41.1502 67.3288 40.9332 67.3288 40.7162C67.3288 40.6077 67.2206 40.3907 67.1123 40.2822L67.004 40.1737C67.1123 40.0652 67.2206 40.0652 67.3288 39.9567C67.3288 40.0652 67.4371 40.0652 67.4371 40.0652C67.5454 40.0652 67.6537 39.9567 67.6537 39.7397C68.195 39.5227 68.7364 39.3057 69.2778 39.0887C69.4943 38.9802 69.7109 38.9802 69.9274 38.9802C69.9274 39.0887 69.9274 39.1972 69.9274 39.3057C70.0357 39.6312 70.0357 39.9567 70.144 40.2822C70.144 40.3907 70.144 40.3907 70.144 40.4992C70.144 40.4992 70.144 40.4992 70.144 40.3907C70.144 40.3907 70.144 40.3907 70.144 40.4992C70.144 40.4992 70.144 40.6077 70.144 40.4992C70.144 40.6077 70.144 40.6077 70.144 40.7162C70.144 40.8247 70.144 40.9332 70.144 41.0417C70.144 41.2587 70.3606 41.5842 70.5771 41.5842C70.9019 41.6927 71.0102 41.2587 71.1185 41.0417C71.1185 40.8247 71.1185 40.7162 71.1185 40.4992V40.3907C71.1185 40.3907 71.1185 40.3907 71.1185 40.2822C71.1185 40.3907 71.1185 40.3907 71.1185 40.3907V40.4992C71.1185 40.3907 71.1185 40.2822 71.1185 40.0652C71.1185 39.9567 71.1185 39.8482 71.0102 39.7397H70.9019C70.9019 39.6312 70.9019 39.5227 70.7936 39.4142C70.7936 39.3057 70.6854 39.1972 70.6854 38.9802C70.6854 38.8717 70.6854 38.8717 70.5771 38.7632V38.6547C70.7937 38.6547 71.0102 38.5462 71.1185 38.4377C71.1185 38.4377 71.2267 38.4377 71.2267 38.3292V38.4377C71.2267 38.5462 71.335 38.7632 71.335 38.8717L71.4433 38.9802V39.0887C71.4433 39.3057 71.4433 39.5227 71.5516 39.6312C71.5516 39.7397 71.6599 39.7397 71.6599 39.8482L71.7681 39.9567H71.8764H71.9847C72.0929 39.9567 72.093 39.8482 72.2012 39.7397C72.3095 39.6312 72.3095 39.4142 72.3095 39.1972C72.3095 39.0887 72.3095 38.8717 72.3095 38.7632C72.7426 38.6547 72.7426 38.4377 72.526 38.3292Z" fill="black"/>
<path d="M72.9593 34.8574C72.7427 34.8574 72.7427 35.5085 72.9593 35.5085C73.1758 35.5085 73.1758 34.8574 72.9593 34.8574Z" fill="black"/>
<path d="M74.9079 38.005C74.9079 37.8965 74.9078 37.788 74.7996 37.6795C74.7996 37.788 74.7996 37.788 74.7996 37.788C74.7996 37.6795 74.7996 37.6795 74.6913 37.571C74.6913 37.4625 74.583 37.4625 74.583 37.354C74.4747 37.137 74.4747 36.92 74.4747 36.703C74.4747 36.5945 74.4747 36.5945 74.4747 36.486C74.4747 36.3775 74.4747 36.269 74.3665 36.052V35.9435C74.3665 35.9435 74.3665 35.9435 74.3665 35.835C74.3665 35.7265 74.3665 35.618 74.3665 35.5095C74.3665 35.2925 74.2582 34.75 74.0416 34.75C73.7168 34.75 73.7168 35.2925 73.7168 35.5095C73.7168 36.052 73.7168 36.5945 73.8251 37.0285C73.9334 37.4625 74.0416 37.8965 74.1499 38.3305C74.1499 38.439 74.2582 38.5475 74.3665 38.656C74.3665 38.656 74.3665 38.656 74.3665 38.7645C74.3665 38.7645 74.3665 38.7645 74.3665 38.873C74.4747 38.9815 74.583 38.9815 74.6913 38.9815C74.9078 38.873 74.9079 38.5475 74.9079 38.3305C75.0161 38.1135 75.0161 38.1135 74.9079 38.005Z" fill="black"/>
<path d="M76.9657 36.7023C76.9657 37.1363 76.9657 36.4853 76.9657 36.5938C76.9657 36.4853 76.9657 36.3768 76.8575 36.2683C76.8575 36.1598 76.6409 35.8343 76.5327 35.9428C76.4244 35.9428 76.4244 36.0513 76.3161 36.1598C76.3161 36.1598 76.3161 36.1598 76.3161 36.0513C76.3161 35.9428 76.3161 35.8343 76.2078 35.7258V35.6173C76.2078 35.5088 76.2078 35.4003 76.2078 35.2918V35.1833C76.2078 35.0748 76.2078 34.9663 76.2078 35.1833C76.2078 34.9663 76.2078 34.8578 76.0995 34.6408C76.0995 34.5323 75.9913 34.4238 75.883 34.4238C75.5582 34.4238 75.4499 34.9663 75.5582 35.1833C75.6665 36.1598 75.883 37.2448 76.3161 38.1128C76.4244 38.3298 76.6409 38.4383 76.7492 38.2213C76.9657 37.8958 77.074 37.4618 77.074 37.1363C76.9657 37.0278 76.9657 36.8108 76.9657 36.7023Z" fill="black"/>
<path d="M79.1315 34.8574C79.1315 34.8574 79.0232 34.8574 79.1315 34.8574C79.0232 34.6404 79.0232 34.5318 78.8067 34.5318C78.6984 34.5318 78.5901 34.6404 78.5901 34.7489C78.5901 34.6404 78.4818 34.5318 78.4818 34.5318C78.3735 34.3148 78.2653 34.2063 78.157 33.9893L78.0487 33.8809H77.9404C77.8322 33.8809 77.8322 33.9893 77.8322 33.9893C77.8322 34.0978 77.7239 34.0979 77.7239 34.2064C77.7239 34.4234 77.6156 34.6404 77.7239 34.7489V34.9659C77.7239 35.0744 77.8322 35.1829 77.8322 35.1829C77.8322 35.2914 77.9404 35.3999 77.9404 35.3999C77.9404 35.5084 77.9405 35.5083 78.0487 35.6168V35.7254L78.157 35.8339C78.157 35.8339 78.157 35.9423 78.2653 35.9423L78.3736 36.0509C78.4818 36.1594 78.4818 36.1594 78.5901 36.2679C78.6984 36.2679 78.8067 36.2679 78.9149 36.2679L79.0232 36.1593L79.1315 36.0509C79.2398 35.9424 79.2398 35.7253 79.2398 35.6168C79.1315 35.3998 79.1315 35.1829 79.1315 34.8574Z" fill="black"/>
<path d="M79.1312 33.2305C78.9146 33.2305 78.9146 33.8815 79.1312 33.8815C79.3477 33.8815 79.3477 33.2305 79.1312 33.2305Z" fill="black"/>
<path d="M47.1896 23.7895C47.1896 23.681 47.0813 23.3555 46.8647 23.3555C46.6482 23.3555 46.4316 23.5725 46.3234 23.681C46.2151 23.898 46.1068 24.0065 45.9985 24.2235C45.8903 24.4405 45.782 24.766 45.782 24.983C45.782 24.983 45.6737 24.983 45.6737 25.0915C45.3489 25.417 45.2406 25.9595 44.9158 26.285C44.6992 26.502 44.4827 26.8275 44.2661 27.0445C44.2661 26.936 44.2661 26.719 44.1578 26.6105C44.1578 26.6105 44.1578 26.6105 44.1578 26.502V26.3935C44.1578 26.3935 44.1578 26.3935 44.1578 26.285C44.1578 26.1765 44.0496 26.068 44.0496 25.9595V25.851V25.7425C44.0496 25.7425 44.0496 25.7425 44.0496 25.634C44.0496 25.634 44.0496 25.634 44.1578 25.5255C44.2661 25.417 44.2661 25.3085 44.3744 25.2C44.3744 25.3085 44.2661 25.417 44.2661 25.417L44.3744 25.3085C44.3744 25.3085 44.3744 25.3085 44.3744 25.2C44.4827 24.983 44.4827 24.766 44.4827 24.549C44.4827 24.4405 44.4827 24.332 44.3744 24.2235C44.3744 24.115 44.2661 24.0065 44.2661 24.0065C44.1578 24.0065 44.1578 24.0065 44.0496 24.0065H43.9413C43.7247 24.0065 43.5082 24.4405 43.3999 24.549C43.2916 24.8745 43.1834 25.2 43.1834 25.634C43.1834 26.285 43.2916 26.936 43.6165 27.587C42.9668 28.021 42.2089 28.3465 41.4509 28.5635C41.2344 28.5635 41.1261 28.672 40.9096 28.672C40.9096 28.5635 40.9096 28.5635 40.9096 28.455V25.417C40.9096 25.0915 40.9096 24.6575 40.5847 24.549C40.4765 24.549 40.4765 24.549 40.3682 24.549C40.1516 24.6575 40.0433 25.0915 40.0433 25.3085C40.0433 25.7425 40.0433 26.285 40.0433 26.719V28.455C40.0433 28.5635 40.0433 28.672 40.0433 28.7805C39.502 28.889 38.9606 28.889 38.4192 28.889C38.4192 28.889 38.4192 28.889 38.4192 28.7805C38.5275 28.455 38.5275 28.238 38.5275 27.9125C38.5275 27.4785 38.5275 27.153 38.6358 26.719C38.6358 26.3935 38.6358 26.068 38.6358 25.851C38.6358 25.7425 38.6358 25.5255 38.6358 25.3085C38.6358 25.2 38.6358 25.0915 38.5275 24.8745C38.5275 24.8745 38.5275 24.8745 38.5275 24.766C38.5275 24.6575 38.4192 24.6575 38.3109 24.6575C38.0944 24.6575 38.0944 24.8745 37.9861 24.983C37.9861 25.0915 37.9861 25.0915 37.9861 25.2C37.9861 25.3085 37.9861 25.417 37.9861 25.5255C37.9861 25.7425 37.9861 25.9595 37.9861 26.1765C37.9861 26.3935 37.9861 26.6105 37.9861 26.936C37.9861 27.0445 37.9861 27.153 37.9861 27.2615V27.37C37.9861 27.4785 37.9861 27.587 37.9861 27.6955C37.8778 27.9125 37.8778 28.1295 37.9861 28.238C37.9861 28.3465 37.9861 28.455 38.0944 28.455C37.6613 28.455 37.2282 28.3465 36.7951 28.3465C36.7951 28.1295 36.7951 27.9125 36.7951 27.804C36.6868 27.37 36.5785 26.936 36.4703 26.6105C36.362 26.1765 36.2537 25.7425 36.1454 25.3085C36.1454 25.2 36.0371 25.2 36.0371 25.0915C36.0371 24.983 36.0372 24.983 35.9289 24.8745C35.8206 24.6575 35.604 24.549 35.4958 24.8745C35.3875 25.0915 35.3875 25.417 35.3875 25.634V25.7425C35.3875 25.7425 35.3875 25.7425 35.3875 25.634C35.3875 25.7425 35.3875 25.851 35.4958 26.068C35.604 26.6105 35.8206 27.2615 35.9289 27.804C35.9289 27.9125 36.0371 28.1295 36.0371 28.238V28.3465C35.9289 28.3465 35.8206 28.3465 35.7123 28.238C35.1709 28.1295 35.0627 29.54 35.4958 29.6485C37.553 30.191 39.7185 30.191 41.7758 29.54C42.7503 29.2145 43.7247 28.7805 44.4827 28.021C45.024 27.587 45.6737 26.8275 45.9985 26.1765C45.9985 26.285 46.1068 26.285 46.2151 26.285C46.5399 26.285 46.6482 25.7425 46.5399 25.5255V25.417C46.5399 25.417 46.5399 25.417 46.5399 25.3085V25.2C46.5399 25.2 46.5399 25.3085 46.5399 25.2C46.5399 25.2 46.5399 25.2 46.5399 25.0915C46.5399 25.0915 46.5399 25.0915 46.5399 24.983V24.8745C46.5399 24.766 46.6482 24.766 46.6482 24.6575C46.6482 24.6575 46.6482 24.549 46.7565 24.549C46.7565 24.4405 46.8647 24.4405 46.973 24.332L47.0813 24.2235C47.1896 24.115 47.1896 24.115 47.1896 24.0065C47.1896 23.898 47.2979 23.7895 47.2979 23.681C47.1896 24.115 47.1896 23.898 47.1896 23.7895Z" fill="black"/>
<path d="M50.1125 22.8147C50.1125 22.7062 50.0043 22.5977 49.896 22.5977C49.896 22.5977 49.7877 22.5977 49.6795 22.5977C49.5712 22.5977 49.4629 22.5977 49.3546 22.7062C49.2463 22.7062 49.1381 22.8147 49.1381 22.9232C49.0298 22.9232 49.0298 23.0317 49.0298 23.1402C48.705 23.4657 48.5967 24.0082 48.3802 24.4422C48.3802 24.6592 48.2719 24.8762 48.3802 24.9847C48.3802 25.0932 48.4884 25.3102 48.5967 25.4187C48.705 25.5272 48.8133 25.5272 48.9215 25.5272C49.0298 25.4187 49.1381 25.3102 49.1381 25.2017C49.1381 25.0932 49.2463 24.9847 49.2463 24.8762C49.2463 24.7677 49.3546 24.6592 49.4629 24.5507C49.5712 24.4422 49.5712 24.3337 49.6795 24.2252L49.7877 24.1167C49.7877 24.1167 49.896 24.1167 49.896 24.0082C50.0043 23.8997 50.0043 23.8997 50.1125 23.7912C50.2208 23.6827 50.2208 23.4657 50.2208 23.3572C50.2208 23.0317 50.2208 22.9232 50.1125 22.8147Z" fill="black"/>
<path d="M49.3541 21.8383C49.3541 21.6213 49.2459 21.4043 48.921 21.4043C48.7045 21.5128 48.4879 21.7298 48.2714 21.9468C48.0548 22.1638 47.9465 22.3808 47.8383 22.7063C47.5134 23.2488 47.4052 23.7913 47.2969 24.4423C47.2969 24.6593 47.2969 24.8763 47.2969 24.9848C47.2969 25.0933 47.4051 25.3103 47.5134 25.3103C47.8383 25.4188 47.9465 24.9848 47.9465 24.7678V24.6593C47.9465 24.6593 47.9465 24.6593 47.9465 24.5508C47.9465 24.4423 48.0548 24.3338 48.0548 24.2253C48.0548 24.2253 48.0548 24.2253 48.0548 24.1168C48.0548 24.1168 48.0548 24.0083 48.1631 24.0083C48.1631 23.8998 48.2714 23.7913 48.2714 23.6828C48.2714 23.6828 48.2714 23.5743 48.3796 23.5743C48.4879 23.4658 48.4879 23.3573 48.5962 23.2488C48.8127 23.0318 48.921 22.9233 49.0293 22.7063C49.4624 22.4893 49.4624 22.1638 49.3541 21.8383Z" fill="black"/>
<path d="M53.5774 20.8615C53.5774 20.753 53.4691 20.6445 53.3608 20.6445C53.2525 20.6445 53.1443 20.6445 53.1443 20.753L53.036 20.8615L52.9277 20.97C52.8194 21.0785 52.8194 21.187 52.7112 21.2955C52.6029 21.5125 52.4946 21.7295 52.2781 21.838C51.9532 22.1635 51.7367 22.5975 51.4119 22.923C51.3036 23.0315 51.3036 23.2486 51.1953 23.3571C51.1953 23.5741 51.1953 23.7911 51.1953 23.8996C51.1953 24.0081 51.3036 24.2251 51.4119 24.2251C51.5201 24.2251 51.6284 24.2251 51.7367 24.1166C52.0615 23.7911 52.3863 23.3571 52.6029 23.0316C52.9277 22.5975 53.2525 22.1635 53.4691 21.7295C53.5774 21.5125 53.6856 21.187 53.5774 20.8615Z" fill="black"/>
<path d="M18.2801 24.0064C18.3884 23.6809 18.3883 23.2469 18.1718 23.0299C17.089 21.9449 15.0318 22.3789 13.7325 22.9214C12.3249 23.4639 10.7007 24.3319 9.72627 25.5254C9.50971 25.7424 9.50972 26.1764 9.618 26.5019C9.618 26.7189 9.618 26.9359 9.618 27.1529C9.618 27.1529 9.618 27.0444 9.618 27.1529V27.2614C9.618 27.3699 9.618 27.3699 9.618 27.4784C9.618 27.5869 9.618 27.8039 9.618 27.9124C9.618 28.0209 9.618 28.0209 9.618 28.1294C9.618 28.2379 9.618 28.4549 9.618 28.5634C9.618 28.8889 9.61799 29.2144 9.72627 29.5399C9.72627 29.8654 9.83455 30.1909 10.0511 30.4079C10.2676 30.6249 10.4842 30.5164 10.5925 30.2994C10.7008 29.9739 10.809 29.4314 10.4842 29.2144C10.4842 29.1059 10.4842 28.9974 10.4842 28.8889C10.4842 28.7804 10.4842 28.7804 10.4842 28.6719C10.4842 28.6719 10.4842 28.6719 10.4842 28.5634C10.4842 27.9124 10.3759 27.2614 10.2676 26.6104C10.4842 26.3934 10.7008 26.1764 11.0256 25.9594C10.9173 26.1764 10.9173 26.6104 10.9173 26.8274C10.9173 26.8274 10.9173 26.8274 10.9173 26.9359V27.0444C10.9173 27.1529 10.9173 27.2614 11.0256 27.4784C11.0256 27.5869 11.0256 27.6954 11.0256 27.9124C11.0256 28.0209 11.0256 28.1294 11.1339 28.2379C11.1339 28.3464 11.1339 28.3464 11.2421 28.4549C11.2421 28.4549 11.2421 28.5634 11.3504 28.5634V28.6719L11.4587 28.7804C11.567 28.7804 11.6752 28.5634 11.6752 28.5634C11.6752 28.4549 11.6752 28.4549 11.6752 28.3464C11.7835 28.1294 11.6752 27.8039 11.6752 27.5869C11.6752 27.4784 11.6752 27.3699 11.6752 27.1529C11.6752 26.8274 11.567 26.5019 11.4587 26.2849C11.4587 26.1764 11.3504 25.9594 11.2421 25.9594C11.4587 25.8509 11.6752 25.6339 11.8918 25.5254C11.8918 26.1764 11.8918 26.7189 12.1084 27.2614C12.2166 27.4784 12.3249 27.6954 12.5414 27.8039C12.758 27.9124 12.9746 27.8039 13.0828 27.8039C13.1911 27.8039 13.1911 27.5869 13.1911 27.5869C13.1911 27.4784 13.1911 27.3699 13.1911 27.2614C13.1911 27.1529 13.1911 27.0444 13.0828 26.9359C13.0828 26.8274 12.9746 26.8274 12.8663 26.8274C12.758 26.8274 12.6497 26.7189 12.5414 26.7189C12.5414 26.7189 12.4332 26.6104 12.4332 26.5019V26.3934C12.4332 26.3934 12.4332 26.3934 12.4332 26.2849C12.4332 26.2849 12.4332 26.2849 12.4332 26.1764V26.0679V25.9594V25.8509C12.4332 25.6339 12.4332 25.4169 12.4332 25.3084C12.758 25.0914 13.1911 24.9829 13.5159 24.7659C13.6242 24.7659 13.6242 24.6574 13.7325 24.6574C13.6242 24.8744 13.6242 25.1999 13.7325 25.5254C13.8408 25.7424 13.8408 25.9594 13.949 26.1764C13.949 26.2849 14.0573 26.3934 14.0573 26.5019C14.0573 26.5019 14.0573 26.5019 14.0573 26.6104V26.7189C14.0573 26.9359 14.1656 27.2614 14.3821 27.2614C14.5987 27.2614 14.707 26.9359 14.707 26.7189C14.8152 26.2849 14.8152 25.7424 14.9235 25.3084C14.9235 24.9829 15.0318 24.7659 15.1401 24.4404H15.2483C15.2483 24.5489 15.2484 24.5489 15.3566 24.6574C15.4649 24.8744 15.5732 25.0914 15.6814 25.3084C15.898 25.6339 16.2228 25.8509 16.4394 26.0679C16.5477 26.1764 16.6559 26.1764 16.7642 25.9594C16.8725 25.7424 16.9808 25.5254 17.1973 25.3084C17.3056 25.1999 17.3056 25.0914 17.3056 24.9829C17.4139 25.3084 17.4139 25.7424 17.4139 26.0679C17.4139 26.1764 17.4139 26.5019 17.6304 26.6104C17.847 26.6104 17.847 26.2849 17.847 26.0679C17.847 25.6339 17.847 25.1999 17.7387 24.7659C18.2801 24.3319 18.2801 24.1149 18.2801 24.0064Z" fill="black"/>
</svg>
