<svg xmlns="http://www.w3.org/2000/svg" viewBox="0 0 141.21 190.1"><defs><style>.cls-1{fill:#fff;}.cls-2{fill:#231f20;}</style></defs><title>feet_1</title><g id="Layer_2" data-name="Layer 2"><g id="Layer_1-2" data-name="Layer 1"><path class="cls-1" d="M23.34,146.81s-6.29-40-12.41-51.76L4.7,75.83,3.61,63.29.35,52.48s-.34-10.66,7.17-8c0,0-3.69-17.15,4.83-14.53l5.29,5.83S14.72,20,19.72,19.52l4.46-.93S21.14,10,30,10.82L37.24,14s-4-13.19,18-6.76L60,13.59l3.25,21,3.11,10.75,2.43,9.13-.59-9,2.72-9.88L70.6,18S71.42-.21,84.47.57c0,0,8.77,3.93,9,7.95,0,0,3.41-9.43,9.52-5.85,0,0,3.46,3.11,1.57,11.09,0,0,6.71-6.23,9.33-2.61l1.23,4.61-1.31,7.06,2.23-1s2.62-5.94,7.32,0l1.31,4.56-.85,8.23s6.24-3.47,8.4,2.31c0,0,3.16,4.62-1.23,14.87l.92,18.49-4.5,30.08-1.57,21.53.68,11.17.08,11.09s-21.72,1.08-28.19,6.47a50.61,50.61,0,0,0-9.86,10.86H84.73s-6.6-4.34-9-14.45l-.16-20.67L75,101.8s.54-26-2.46-29.5l-1.08-7.16-2.08-8.93-.92,2.46L68,72.46l-.69,24.28s.69,26.33,1.46,28.79S70.6,136,70.6,136l2.77,13.86v9.94L69.95,170.1l-1.31.41S64.32,157.18,43,150.94c0,0-10.74-3.08-19-1.77Z"/><path class="cls-2" d="M110.49,13.12c0-.15,0-.08,0,0"/><path class="cls-2" d="M60.75,159.12a48.48,48.48,0,0,0-28.19-11.47,41.29,41.29,0,0,0-16.76,2.21c-.37.13-.54.72-.54,1.32-.61.83-1.24,1.64-1.82,2.49a18.8,18.8,0,0,0-1,1.66,8.23,8.23,0,0,0-.84,2,2.32,2.32,0,0,0,.18,1.76c.27.42.68.32.9-.11l.08-.18.11-.28v0l.05-.12.08-.19q.18-.41.39-.8a13.46,13.46,0,0,1,.86-1.4c.68-1,1.43-1.92,2.13-2.89a1.89,1.89,0,0,0,.28-.66c17.93-6.15,41.23,1.61,51,18.09A30.58,30.58,0,0,1,72,186.22c0,.41.12,1.4.7,1.4s.7-1,.7-1.4a35.7,35.7,0,0,0-12.63-27.1"/><path class="cls-2" d="M90.11,16.27c0-.23-.14-.57-.43-.49a22.37,22.37,0,0,1-2.63.59l-1.3.21a2.69,2.69,0,0,0-1.06.28c-.26.15-.32,1,0,1.08a2,2,0,0,0,1.06,0l1.37-.22a23.23,23.23,0,0,0,2.75-.63c.11,0,.18-.24.21-.32a1.32,1.32,0,0,0,0-.54"/><path class="cls-2" d="M90.39,34.26c-.06-.19-.27-.51-.48-.25a11.65,11.65,0,0,0-1,1.49q-.2.36-.37.73a3.23,3.23,0,0,0-.35,1.16.88.88,0,0,0,.13.51c.05.08.18.2.28.11a2,2,0,0,0,.43-.77q.17-.37.37-.73l.2-.35.1-.17.05-.08h0q.23-.34.48-.67a1.1,1.1,0,0,0,.13-1"/><path class="cls-2" d="M90.11,21.9c0-.21-.14-.59-.43-.49a17.87,17.87,0,0,0-3.44,1.76.7.7,0,0,0-.22.45c0-.23-.16-.39-.31-.35a8.18,8.18,0,0,1-4.17-.15,8,8,0,0,1-1.92-.86,6.24,6.24,0,0,1-.83-.61c-.27-.24-.47-.53-.74-.76-.49-.42-.55.8-.41,1.06a5,5,0,0,0,1.61,1.55,7.88,7.88,0,0,0,2,1,8.48,8.48,0,0,0,4.41.22c.17,0,.27-.23.32-.46.06.22.19.38.4.32A2.67,2.67,0,0,0,87,24.2l.63-.37a.29.29,0,0,0,.07-.07,15.7,15.7,0,0,1,2.15-1c.11,0,.18-.23.21-.32a1.27,1.27,0,0,0,0-.54"/><path class="cls-2" d="M84.14,21.08a11.1,11.1,0,0,1-3.07-.71,5.79,5.79,0,0,1-2.4-2c-.19-.26-.42.07-.47.25a1.14,1.14,0,0,0,.12.94,5.93,5.93,0,0,0,2.56,2.16,11.85,11.85,0,0,0,3.25.76c.45.06.51-1.33,0-1.4"/><path class="cls-2" d="M89.37,18.91c-.66.29-1.33.55-2,.78-.33.11-.67.21-1,.3l-.26.07a.12.12,0,0,0-.15,0s0,0,0,0h-.21a.7.7,0,0,0-.27.06h.11c-.4,0-.48.86-.2,1.24a.71.71,0,0,0,.15.38.22.22,0,0,0,.27.07l.63-.35.32-.16.16-.08h0l.07,0a21.82,21.82,0,0,0,2.58-1c.42-.19.3-1.56-.19-1.35"/><path class="cls-2" d="M52.36,19.62c-.22-.24-.4.05-.47.25a3.71,3.71,0,0,1-2,2.11,9.59,9.59,0,0,1-3.07.67.26.26,0,0,0-.15.08.36.36,0,0,0,0-.09.84.84,0,0,0-.79-.24,10.1,10.1,0,0,0-1.12.27c-.76.21-1.51.45-2.28.61-.29.06-.35.45-.35.7s.07.76.35.7c.79-.16,1.56-.41,2.33-.62l1-.26.42-.11a.69.69,0,0,0,.21-.09l.07,0c0,.23.12.52.33.5a9.79,9.79,0,0,0,3.37-.78,4.53,4.53,0,0,0,2.25-2.71,1.06,1.06,0,0,0-.12-.94"/><path class="cls-2" d="M35.34,24.94c0-.18-.1-.53-.29-.6s-.3.12-.34.27a2,2,0,0,0,0,.62v0h0v0h0l0,.06,0,0-.08.08s-.08.08,0,0a1.58,1.58,0,0,1-.24.16,2.65,2.65,0,0,1-.54.23A7.07,7.07,0,0,1,31,26a7.3,7.3,0,0,1-1.29-.23c-.29-.09-.4.26-.43.49s0,.78.24.86a8.6,8.6,0,0,0,3,.32,3.11,3.11,0,0,0,2.59-1.08,1.94,1.94,0,0,0,.25-.8,2.43,2.43,0,0,0,0-.64"/><path class="cls-2" d="M34.68,25.29v0h0"/><path class="cls-2" d="M34.68,25.27v0s0,0,0,0h0Z"/><path class="cls-2" d="M25.22,30.22c0-.12-.12-.32-.28-.32s-.25.2-.28.32a3.59,3.59,0,0,0-.06.44c0-.19,0,0,0,.07h0v0h0l0,0,0,0h0l-.11.12s0,0-.07.06l-.14.09a2.68,2.68,0,0,1-1.38.24,12.36,12.36,0,0,1-3.11-.6c-.29-.08-.4.26-.43.49s0,.78.24.86a16,16,0,0,0,2.72.61,3,3,0,0,0,2.54-.56,2.19,2.19,0,0,0,.43-2"/><path class="cls-2" d="M25.8,32.73a1.31,1.31,0,0,0-.58-.11.56.56,0,0,0-.43.44,1.46,1.46,0,0,0-.05.53,3.48,3.48,0,0,1-2.93.64c-.1,0-.21.14-.25.2a1.11,1.11,0,0,0-.1.49c0,.26.06.63.35.7A4,4,0,0,0,25.89,34a1,1,0,0,0,.17-.69c0-.16-.06-.52-.25-.58"/><path class="cls-2" d="M26.39,34.75c-.14-.21-.34-.16-.45.05s-.12.29-.2.43l-.06.1h0l-.12.16-.14.15-.06.06h0a1.83,1.83,0,0,1-.34.21l-.18.07h0l-.1,0a1.75,1.75,0,0,1-.39,0l-.21,0L24,36h-.06a2.74,2.74,0,0,1-.45-.18c-.47-.23-.61,1.14-.19,1.35a2.19,2.19,0,0,0,1.91.1,2.11,2.11,0,0,0,.72-.58,2.84,2.84,0,0,0,.56-1.06,1.15,1.15,0,0,0-.09-.88"/><path class="cls-2" d="M110.6,24.38c-.16-.14-.28-.1-.47-.07a1.61,1.61,0,0,1-.41,0,2.92,2.92,0,0,1-1-.32,5.26,5.26,0,0,1-1.88-1.57c-.19-.26-.43.06-.48.25a1.14,1.14,0,0,0,.13,1,5.81,5.81,0,0,0,2.07,1.72,3.66,3.66,0,0,0,1.1.35c.35,0,.83,0,1-.36a1.13,1.13,0,0,0,.08-.51.69.69,0,0,0-.15-.45"/><path class="cls-2" d="M111,26.71c-.08-.2-.23-.33-.41-.16a4.25,4.25,0,0,1-.64.56,1.2,1.2,0,0,1-.71.18,2.15,2.15,0,0,1-1.45-.79c-.21-.23-.42,0-.48.25a1.11,1.11,0,0,0,.13,1,2.64,2.64,0,0,0,1.82,1A2,2,0,0,0,111,27.55a1.1,1.1,0,0,0,0-.84"/><path class="cls-2" d="M121.1,33.67c-.19,0-.31.18-.46.26a.7.7,0,0,1-.36.11,1.39,1.39,0,0,1-.8-.25,13.32,13.32,0,0,1-1.73-1.41c-.08-.07-.21,0-.27.07a.81.81,0,0,0-.16.42,1,1,0,0,0,.24.86,11,11,0,0,0,1.86,1.48,1.64,1.64,0,0,0,1,.22,1.32,1.32,0,0,0,.49-.17,1.07,1.07,0,0,0,.51-.63c.07-.23.1-.93-.27-1"/><path class="cls-2" d="M130.17,44.47c0-.13-.07-.38-.22-.44a.4.4,0,0,0-.24,0l-.21,0a1.54,1.54,0,0,1-.43,0,2.44,2.44,0,0,1-.84-.3,6.72,6.72,0,0,1-1.63-1.29c-.21-.22-.42,0-.48.25a1.1,1.1,0,0,0,.13,1,7.37,7.37,0,0,0,1.84,1.46,2.91,2.91,0,0,0,1,.33,1.47,1.47,0,0,0,.45,0l.26-.07a.63.63,0,0,0,.29-.3,1,1,0,0,0,.08-.61"/><path class="cls-2" d="M16.29,42.2c-.21-.18-.38.1-.43.28a1.35,1.35,0,0,0,0,.2v-.07l0,.1-.07.21h0l-.05.12-.09.17-.06.11h0l-.12.17a2.79,2.79,0,0,1-.29.31l-.08.07c.08-.07,0,0,0,0l-.18.13a3.76,3.76,0,0,1-.38.23,5,5,0,0,1-.9.36c-.11,0-.18.24-.21.32a1.25,1.25,0,0,0,0,.54.77.77,0,0,0,.16.42.23.23,0,0,0,.27.07,4.23,4.23,0,0,0,1.76-1,3.19,3.19,0,0,0,.6-.8A3.25,3.25,0,0,0,16.49,43a1,1,0,0,0-.2-.82"/><path class="cls-2" d="M15.74,42.93h0c-.06.11,0,.05,0,0"/><path class="cls-2" d="M8.28,54.83c-.06-.12-.18-.25-.33-.18a.62.62,0,0,0-.24.48,2,2,0,0,0,0,.44v.1s0,0,0,.06v.13L7.64,56h0l0,.06-.08.08a1.58,1.58,0,0,1-.52.26,3.26,3.26,0,0,1-.84.08c-.11,0-.2.12-.25.2a1.11,1.11,0,0,0-.1.49,1.07,1.07,0,0,0,.1.49c.05.1.13.2.25.2a2.62,2.62,0,0,0,1.43-.3,1.87,1.87,0,0,0,.81-1.35,2.85,2.85,0,0,0,0-.54,2.09,2.09,0,0,0-.14-.85"/><path class="cls-2" d="M8,69.48a1.15,1.15,0,0,0-.38.63l-.26.68-.49,1.29c-.33.89-.66,1.79-.94,2.7a1.08,1.08,0,0,0,.13,1c.21.24.41,0,.48-.25.28-.9.59-1.78.92-2.65L8,71.55a4.46,4.46,0,0,0,.43-1.49c0-.12-.1-.76-.38-.58"/><path class="cls-2" d="M10.71,71.58c-.56-.16-.92.63-1.12,1a15,15,0,0,0-1,2.38,21.67,21.67,0,0,0-1.11,4.81c0,.24,0,.73.24.86s.41-.3.43-.49a19.72,19.72,0,0,1,1-4.25A15.06,15.06,0,0,1,10,73.78a5.33,5.33,0,0,1,.8-1.15c.16-.19.27-1-.07-1.06"/><path class="cls-2" d="M13,72.31a12,12,0,0,0-1.27,2.48c-.44.93-.86,1.88-1.23,2.84a15.21,15.21,0,0,0-1.16,5.81c0,.2.06.7.35.7s.36-.51.35-.7a13.44,13.44,0,0,1,1.16-5.33c.34-.85.72-1.68,1.11-2.5a14.92,14.92,0,0,0,1.1-2.48c0-.17-.05-1.27-.41-.83"/><path class="cls-2" d="M14,74a4.38,4.38,0,0,0-.65,1.36c-.21.56-.4,1.12-.57,1.7-.36,1.2-.64,2.42-.89,3.64C11.34,83.13,11,85.59,10.4,88c0,.2-.1.61.1.76s.33,0,.38-.2c.56-2.35,1-4.74,1.49-7.1.25-1.16.53-2.31.86-3.45s.89-2.28,1.12-3.44c0-.17-.1-.89-.37-.58"/><path class="cls-2" d="M21.66,102.19c-.07-.15-.26-.27-.39-.1-1.95,2.69-2.67,6.06-3.92,9.09a1,1,0,0,0,0,.81c.1.19.31.23.41,0,1.19-2.85,2-5.91,3.66-8.52a1.92,1.92,0,0,1,.06.5c0,.13,0,.41.2.45s.24-.2.25-.33a3.43,3.43,0,0,0-.27-1.9"/><path class="cls-2" d="M21.94,107.89c-.48,0-.75.51-.94.88a14.55,14.55,0,0,0-.78,2,37.69,37.69,0,0,1-1.27,3.84,1,1,0,0,0,0,.88c.12.21.33.24.44,0a32.65,32.65,0,0,0,1.28-3.77,16,16,0,0,1,.7-1.85,3.82,3.82,0,0,1,.7-1.11c.16-.16.2-.86-.12-.88"/><path class="cls-2" d="M22.4,113.7a1.57,1.57,0,0,0-1.1.76,6.24,6.24,0,0,0-.81,1.55,10.06,10.06,0,0,0-.66,3.19c0,.16,0,.52.26.53s.26-.39.26-.53v-.1s0-.07,0-.09,0-.21,0-.31.07-.45.11-.62a9.05,9.05,0,0,1,.41-1.39,5.61,5.61,0,0,1,.66-1.25,6.76,6.76,0,0,1,.92-.94c.14-.13.18-.79-.11-.79"/><path class="cls-2" d="M22.46,118.06c-.14-.06-.23.1-.26.21a12.26,12.26,0,0,1-.89,2.41,11.85,11.85,0,0,0-1,2.59.94.94,0,0,0,.11.81c.18.19.36,0,.41-.21.4-1.84,1.91-3.42,1.82-5.37,0-.13,0-.38-.17-.44"/><path class="cls-2" d="M22.81,122.49a2.47,2.47,0,0,0-.67.86A8.81,8.81,0,0,0,21,126.67c0,.19,0,.55.18.65s.31-.23.33-.37a6.49,6.49,0,0,1,.54-1.9c.14-.32.3-.63.47-.94a7.33,7.33,0,0,0,.52-1c0-.11,0-.77-.24-.61"/><path class="cls-2" d="M23.29,126.82c0-.07-.09-.24-.19-.22-.27,0-.46.41-.6.62a5.08,5.08,0,0,0-.4.83,7.64,7.64,0,0,0-.45,1.83c0,.22,0,.62.21.74s.35-.27.37-.42,0-.27.06-.4l0-.2c0,.12,0-.09,0-.11a6.48,6.48,0,0,1,.23-.76l0-.09.08-.19c.06-.12.12-.25.18-.37a4.49,4.49,0,0,0,.4-.81.82.82,0,0,0,0-.45"/><path class="cls-2" d="M23.85,130.5a.77.77,0,0,0-.76.23,1.88,1.88,0,0,0-.43.64c-.23.51-.34,1.07-.53,1.59a1.11,1.11,0,0,0,0,.48.72.72,0,0,0,.14.38c.21.21.36,0,.43-.23s.16-.47.23-.7l.11-.36.05-.16h0l0-.06a2.73,2.73,0,0,1,.15-.29l0-.06.1-.12.11-.11s.06-.05,0,0l.11-.09,0,0,.08-.06.19-.16a.67.67,0,0,0,.11-.48c0-.11,0-.35-.17-.4"/><path class="cls-2" d="M66.3,82.93a7.4,7.4,0,0,0-.59-1.75l-.76-2c-.48-1.31-1-2.61-1.48-3.91A75.1,75.1,0,0,0,60,67.49c-.14-.27-.35-.23-.49,0a1.15,1.15,0,0,0,0,1,73.43,73.43,0,0,1,3.33,7.42c.5,1.27,1,2.56,1.46,3.85L65,81.57l.36,1c.05.13.13.29.2.44a.69.69,0,0,0,0,.18c.07.14.07.3.15.44s.18.26.33.17h0c.26-.16.26-.57.24-.83"/><path class="cls-2" d="M43.35,57.92c-1.78-1.25-4.22-.71-6,.15a9.1,9.1,0,0,0-4.6,4.29,1.2,1.2,0,0,0,0,1c.13.23.38.28.49,0a8.42,8.42,0,0,1,4.29-3.93c1.75-.82,3.95-1.29,5.67-.16.41.27.56-1.07.19-1.34"/><path class="cls-2" d="M49.87,136.63c-.33-.8-1.49-1.43-2.19-1.86a19.41,19.41,0,0,0-3.37-1.65c-2.09-.79-4.66-1.48-6.83-.62-.42.17-.32,1.55.19,1.35,2.08-.82,4.63-.08,6.61.68a19.31,19.31,0,0,1,3.16,1.56,12.88,12.88,0,0,1,1.19.82c.27.21.61.69.94.78.49.14.4-.81.3-1"/><path class="cls-2" d="M108.75,51.93a12.31,12.31,0,0,0-6-.7,6.17,6.17,0,0,0-2.66.88c-.39.26-.22,1.62.18,1.35,1.74-1.17,4.32-1.07,6.29-.72,1.7.3,4.28,1.06,4.62,3.05.13.74.63.43.64-.17,0-1.84-1.53-3.07-3.09-3.68"/><path class="cls-2" d="M110.1,124.94c-1.86.33-3.76.4-5.61.8s-3.58,1-4.54,2.59a1.12,1.12,0,0,0,0,1c.14.26.35.25.49,0,.87-1.46,2.87-2,4.41-2.26,1.73-.34,3.5-.42,5.24-.72.5-.09.44-1.47,0-1.39"/><path class="cls-2" d="M79.36,68.62a.65.65,0,0,0-.44-.59.22.22,0,0,0-.27.07,59.15,59.15,0,0,0-4,5.51,1.16,1.16,0,0,0-.13,1c.05.17.29.53.48.25,1.2-1.83,2.51-3.59,3.87-5.3a.56.56,0,0,0,.09.14c.15.15.28,0,.34-.14a.86.86,0,0,0,.05-.36h0a1.3,1.3,0,0,0,0-.53"/><path class="cls-2" d="M83.2,75c-.35-.4-.82-.17-1.17.1a11.12,11.12,0,0,0-1.64,1.68,46.64,46.64,0,0,0-3.46,4.82,18,18,0,0,0-1.12,1.92,1.09,1.09,0,0,0,0,.92c.12.22.34.25.46,0a25.68,25.68,0,0,1,2.34-3.71A25,25,0,0,1,82,76.67a4.55,4.55,0,0,1,.66-.51l.28-.17c.07,0,.06,0,.17,0,.34.09.25-.81.13-.95"/><path class="cls-2" d="M83.54,88.77c-.46-1.31-2.08.67-2.46,1.1A48.7,48.7,0,0,0,77.87,94c-.36.52-.73,1-1.06,1.57a1.09,1.09,0,0,0,0,1c.14.26.33.23.48,0l.09-.14.18-.27.49-.7q.67-1,1.38-1.88a25,25,0,0,1,3-3.53,5.71,5.71,0,0,1,.56-.44l.11-.07h0c.05,0,0,0,.09,0,.29.22.33-.62.28-.74"/><path class="cls-2" d="M81.57,92.73c-.61.14-1.15.86-1.55,1.31a21.78,21.78,0,0,0-1.37,1.78C77.8,97,77,98.3,76.13,99.48a1.08,1.08,0,0,0-.12.93c.05.18.27.5.46.24.88-1.16,1.66-2.41,2.5-3.6.41-.58.84-1.16,1.3-1.7a15.59,15.59,0,0,0,1.5-1.66c.1-.15.14-1-.2-1"/><path class="cls-2" d="M84,94.08a.19.19,0,0,0-.23-.06,20.9,20.9,0,0,0-4.57,4.62A21.55,21.55,0,0,0,76,104.28c-.15.42.24,1.33.52.6a19.77,19.77,0,0,1,3.17-5.33,48.62,48.62,0,0,1,4.1-4.25,1.77,1.77,0,0,0,.05.23c.18.55.44-.07.42-.35a1.77,1.77,0,0,0-.27-1.1"/><path class="cls-2" d="M81.12,115.47c-1-.31-2,.62-2.61,1.25a23.8,23.8,0,0,0-2.11,2.44.89.89,0,0,0-.1.76c0,.15.22.41.38.2a25.28,25.28,0,0,1,2-2.33,8,8,0,0,1,1.22-1,2.54,2.54,0,0,1,1.15-.47c.27,0,.29-.75.06-.83"/><path class="cls-2" d="M80.26,120.23c0-.1-.11-.35-.26-.26a11.38,11.38,0,0,0-2.6,1.92.91.91,0,0,0-.11.82c.06.18.22.42.41.21a9.25,9.25,0,0,1,1.22-1,7.1,7.1,0,0,0,1.25-1.11.69.69,0,0,0,.09-.55"/><path class="cls-2" d="M128.06,85.51v0s0,.08,0,0"/><path class="cls-2" d="M126.8,78.63c-.08-.21-.25-.47-.48-.25a1.08,1.08,0,0,0-.12,1c.44,1.21.89,2.41,1.28,3.64.11.35.22.71.31,1.07s.16.63.2.86,0,.27.06.41,0,.05,0,.08v.11s0-.06,0,.05l0,.15c-.08.24-.11.87.21.86,1.61,0-1.16-7.09-1.46-7.92"/><path class="cls-2" d="M128.06,85.51c0,.15,0,.06,0,0"/><path class="cls-2" d="M128.06,85.51v0h0"/><path class="cls-2" d="M125.5,102.71c-.21-.67-.47-1.33-.71-2-.07-.2-.26-.49-.48-.25a1.08,1.08,0,0,0-.12,1c.21.58.43,1.15.63,1.74.1.31.2.63.28.95,0,0,0,.25,0,.1,0,.07,0,.14,0,.2s0,.13,0,.2v0h0c0,.05,0,.16,0,.23v0c0,.06,0,.13,0,.19s.06.5.27.51.26-.23.3-.36a1.88,1.88,0,0,0,.09-.58,6.58,6.58,0,0,0-.38-2"/><path class="cls-2" d="M125.35,110.83c0,.07,0,0,0,0"/><path class="cls-2" d="M141.18,157.2a8.13,8.13,0,0,0-.88-2.12c-.35-.73-.69-1.46-1-2.2a22.16,22.16,0,0,1-1.58-4.43,1.08,1.08,0,0,0-.23-.47,1.77,1.77,0,0,0-.42-1.46,19.35,19.35,0,0,0-9.92-3.16c.75-8.45-.77-16.86-.5-25.31a231.9,231.9,0,0,1,2.8-26.76c.6-4.05,1.25-8.1,1.89-12.15a1.71,1.71,0,0,0,.37.36c.38.25.32-.78.27-.92-.13-.31-.27-.61-.41-.91a62.16,62.16,0,0,0,.91-12.26c-.17-4.08-.67-8.17-.5-12.27.16-3.82,2.27-7.24,2.21-11.11-.07-4.44-3.61-13.29-9.08-8.65a.86.86,0,0,0-.23.4,49.12,49.12,0,0,0,.35-8.95c-.18-3-1.74-5.93-4.82-6.85-2.86-.85-4.6,1.06-5.11,3.72-.08.42,0,1.55.49,1.72s.78-.55.86-1a2.32,2.32,0,0,1,.55-1.15,4.36,4.36,0,0,0,1.39,3.5,4.05,4.05,0,0,0,2.84.74,4.67,4.67,0,0,0,.86-.14,2.91,2.91,0,0,0,.52-.18,1.2,1.2,0,0,0,.54-.57,1.53,1.53,0,0,0,.14-.83s0-.1,0-.15a10.83,10.83,0,0,1,.34,4,49.61,49.61,0,0,1-.76,8.45,29.83,29.83,0,0,1-2.57,7.14c-.1,0-.21.05-.32.21a2.91,2.91,0,0,0-.83,1.64,1.69,1.69,0,0,0,.8,1.77c.31.15.54-.11.68-.36a34.34,34.34,0,0,0,3.78-10.67c.08-.46.14-.95.2-1.42,0,.9.38,1.89,1,1.34a.89.89,0,0,0,.37.6,4.88,4.88,0,0,1,.7.46L127,37l0,0h0l.27.23a4.88,4.88,0,0,0,1.26.88,3.19,3.19,0,0,0,1.79.23c.36-.06.71-.17,1.05-.26l.29-.08a9.58,9.58,0,0,1,.73,6.34c-.41,1.74-1.08,3.41-1.48,5.15a23.27,23.27,0,0,0-.47,5.09c0,3.9.45,7.79.57,11.69a49.4,49.4,0,0,1-.56,8.28l-.26-1a14.52,14.52,0,0,0-2.11-5.26c-.2-.26-.42.07-.48.25a1.12,1.12,0,0,0,.13,1,14.52,14.52,0,0,1,2,5.3c.14.56.29,1.12.45,1.68q-.13.86-.27,1.73l-.14.93,0,0a23.8,23.8,0,0,0-2.34-5.92c-.15-.24-.35-.26-.49,0a1.14,1.14,0,0,0,0,1A18.36,18.36,0,0,1,129,78.87c.19.63.37,1.25.61,1.87l0,.08c-.53,3.32-1.05,6.65-1.55,10l-.1.69a8.53,8.53,0,0,0-.33-1.61,42.9,42.9,0,0,0-1.43-4.26,12.43,12.43,0,0,0-.7-1.61c-.14-.25-.36-.25-.49,0a1.16,1.16,0,0,0,0,1,21.87,21.87,0,0,1,1.51,3.89c.24.74.48,1.49.66,2.26l0,.18,0,.14c0,.08,0,.16,0,.23a.86.86,0,0,0,.16.87c.19.14.31,0,.4-.2-.18,1.24-.35,2.49-.52,3.73a12.87,12.87,0,0,0-.68-2.46,32.26,32.26,0,0,0-1.89-4.11c-.13-.25-.36-.24-.49,0a1.16,1.16,0,0,0,0,1A31.57,31.57,0,0,1,126,94.17a12.91,12.91,0,0,1,.58,1.9,18.17,18.17,0,0,1,.23,1.86c0,.2.13.32.24.31-.07.57-.14,1.13-.21,1.7a10.51,10.51,0,0,0-.46-1.73,11,11,0,0,0-1.68-3.27c-.2-.25-.42.05-.48.25a1.11,1.11,0,0,0,.13,1,9.33,9.33,0,0,1,1.39,2.66,10.54,10.54,0,0,1,.43,1.45c0,.13,0,.25.06.38s0,.19,0,.21,0,.17,0,.26a2.09,2.09,0,0,0,0,.26s0,.3,0,.1c0,.17.14.45.33.35q-.46,3.88-.8,7.78c-.06-.21-.13-.41-.21-.6a9.62,9.62,0,0,0-1.41-2.48c-.19-.24-.4.05-.46.24a1.08,1.08,0,0,0,.12.92,8.8,8.8,0,0,1,1.16,1.95l.13.3,0,.08,0,.1.08.26,0,.14v.06l0,.23v0a1.06,1.06,0,0,0,0,.11V111h0v0h0a.82.82,0,0,0,0,.56c0,.09.14.31.26.21l0,0c0,.35,0,.69-.07,1a7.07,7.07,0,0,0-.61-.79c-.21-.23-.42,0-.48.25a1.1,1.1,0,0,0,.13,1,7,7,0,0,1,.49.62l0,.07,0,0,.07.12c.07.11.13.22.18.34l0,.05c0,.4-.06.79-.08,1.19-.48,9,1.25,18.07.43,27.08a4.67,4.67,0,0,0,0,.56c-1.15,0-2.3,0-3.42,0a57.88,57.88,0,0,0-16.73,3.47A34.83,34.83,0,0,0,92,155.33a31,31,0,0,0-4.45,6,.32.32,0,0,0-.24-.19A9.53,9.53,0,0,1,84,160.2a5.68,5.68,0,0,1-1.89-1.41,1.79,1.79,0,0,0-.32-1.39c-3-2.58-4-6.76-4.62-10.49A90.77,90.77,0,0,1,76.25,133c0-4.48-.14-8.93-.27-13.41,0-.94,0-1.89-.06-2.83a23.19,23.19,0,0,0,1.83-2.22A12.51,12.51,0,0,1,80.18,112a2.89,2.89,0,0,1,.6-.34,3.07,3.07,0,0,1,.53-.12c.33-.07.31-.78.06-.93s-.8,0-1.09.21A6.26,6.26,0,0,0,79,112c-.87,1-1.69,2-2.51,3-.21.25-.42.51-.64.75,0-.92,0-1.84,0-2.77a23.61,23.61,0,0,0,3.59-3.42,22.22,22.22,0,0,1,1.88-1.86,11.71,11.71,0,0,1,1.57-1.09c0,.1.12.26.22.17.37-.31.61-.46.69-1,0-.21,0-.76-.33-.67-1.67.47-3,2-4.16,3.23a25.77,25.77,0,0,1-3.45,3.48c0-.84,0-1.67,0-2.51.86-1.22,1.76-2.4,2.7-3.55a28.48,28.48,0,0,1,4.91-5,6.66,6.66,0,0,1,2.37-1.16c.31-.08.4-.93.07-1a2.72,2.72,0,0,0-2.11.57,15,15,0,0,0-2.52,2.1A46.55,46.55,0,0,0,76.41,107c-.19.26-.36.54-.55.8,0-3.53,0-7.05,0-10.58q0-2.12,0-4.24c.13.22.36.25.48,0a34.16,34.16,0,0,1,4-6.31,30.68,30.68,0,0,1,2.57-2.94A28,28,0,0,1,85,82c.05.05.13.06.23,0s.27,0,.38-.27a1.49,1.49,0,0,0,0-1c0-.17-.17-.37-.36-.29a8.91,8.91,0,0,0-2.71,2.14,30.69,30.69,0,0,0-2.68,3.07,35.33,35.33,0,0,0-4,6.46l0,.05c0-1.15-.05-2.31-.1-3.46a.17.17,0,0,0,.29,0c1.32-1.86,2.53-3.79,3.92-5.6a23.05,23.05,0,0,1,2.25-2.57,12.29,12.29,0,0,1,1.26-1.06l1.25-.93c.18-.13.29-1-.07-.95a2.38,2.38,0,0,0-.62.11,4.1,4.1,0,0,0-.64.37,10.38,10.38,0,0,0-1.23,1,21.06,21.06,0,0,0-2.41,2.68c-1.45,1.86-2.7,3.87-4.06,5.8,0,0,0,0,0,0-.13-2.53-.32-5.05-.63-7.57a.17.17,0,0,0,.24-.06c1.18-1.53,2.06-3.28,3.08-4.91A21.48,21.48,0,0,1,80,72.45a14.64,14.64,0,0,1,1.67-1.52c.21-.19.22-1-.14-1-.72-.07-1.39.77-1.82,1.27A21.16,21.16,0,0,0,78,73.64c-1,1.65-1.93,3.44-3.12,5l0,.07c-.12-.83-.25-1.66-.39-2.49q-.3-1.67-.64-3.33a.28.28,0,0,0,.24-.19c.55-1.1,1.19-2.18,1.84-3.23A18.06,18.06,0,0,1,78.4,66l.31-.28.22-.17c.16-.11.2-.15.37-.12.37.06.24-.8.13-1-.69-.9-2,1-2.34,1.44a39.18,39.18,0,0,0-2.65,4.13c-.31.55-.62,1.1-.9,1.66-.17-.78-.33-1.56-.51-2.34a.3.3,0,0,0,.24-.19c1.57-2.87,3.19-5.71,4.79-8.55a1.23,1.23,0,0,0,0,.15c.22.42.46-.14.45-.37,0-.56.06-.95-.42-1.35-.14-.11-.28.09-.33.18-1.82,2.9-3.39,6-5,9v0c-.92-4-1.9-8-2.71-12.09a32.2,32.2,0,0,1-.81-10.53c.43-3.36,1.3-6.64,1.63-10,.6-6.21-.19-12.46.54-18.67.6-5.13,2.29-10.87,7.4-13.18a10.31,10.31,0,0,1,3-.84c-1,2.64-1.87,5.78-.12,8.2a7.22,7.22,0,0,0,3.37,2.12,18,18,0,0,0,4,1.26,4.47,4.47,0,0,0,2.31-.18c-.17.92-.32,1.83-.45,2.72-.37,2.44-.63,4.89-.82,7.35q-.88.75-1.72,1.56c-.32.31-.64.63-.94,1a5,5,0,0,0-.33.4,1.25,1.25,0,0,0-.2.38s0,.1,0,.16v0a1.12,1.12,0,0,0,0,.82.26.26,0,0,0,.4.12.42.42,0,0,0,.17-.29l.15-.2.33-.37c.56-.6,1.16-1.16,1.77-1.71L90,26c-.07,1.1-.1,2.19-.15,3.29-.12-.07-.26,0-.35.15l-.09.15h0l-.06.08-.18.23a5.41,5.41,0,0,1-.43.45c-.3.28-.62.54-.92.8A4.94,4.94,0,0,0,87,32a3.78,3.78,0,0,0-.6,1.45c0,.24,0,1,.42.84s.49-.38.79-.51.24-.76,0-.88a6.73,6.73,0,0,1,.69-.68,8.21,8.21,0,0,0,1.48-1.52c0,.46-.05.92-.07,1.38s.13,1.4.7,1.4.69-1,.7-1.4c.12-4,.34-7.91.82-11.84a53,53,0,0,1,1.78-9.36c.55.3,1.1-1.22.8-2l0-.1a19.43,19.43,0,0,1,1-2.13,7,7,0,0,1,2.65-2.8,2.59,2.59,0,0,0-.06.26c-.24,1.34-.2,3.59,1.4,4.11a5.22,5.22,0,0,0,3.33-.35,5.12,5.12,0,0,0,.82-.34l.07,0s.3-.28.11-.09c.09-.08.18-.16.27-.24a2,2,0,0,0,.24-.33,14.79,14.79,0,0,1,.09,3.44,69.28,69.28,0,0,1-1.14,8.17l-.09,0a5.35,5.35,0,0,1-2.12,0c-1.9-.43-3.21-2.1-4.25-3.62-.19-.27-.42.07-.48.25a1.14,1.14,0,0,0,.13,1c1.22,1.78,2.94,3.84,5.3,3.89a7.23,7.23,0,0,0,1.25-.08c-.11.61-.22,1.21-.33,1.82a1.88,1.88,0,0,1-.6.07,5.41,5.41,0,0,1-1.75-.37,6.74,6.74,0,0,1-3.21-2.15c-.19-.26-.42.07-.48.25a1.13,1.13,0,0,0,.13,1,7.23,7.23,0,0,0,3.56,2.35,5.37,5.37,0,0,0,2.11.35c-.07.41-.13.83-.19,1.24a3.56,3.56,0,0,1-.79-.09c-.76-.17-1.48-.5-2.22-.75-.28-.09-.4.27-.43.49s0,.77.24.86a19.9,19.9,0,0,0,2.59.84l.4,0c-.09.7-.18,1.41-.25,2.12a16.73,16.73,0,0,0,.63,7.64c.23.58.72.42,1,0a2.37,2.37,0,0,0,0-2c-.76-2-.35-4.46-.1-6.47.07-.59.16-1.19.25-1.78a1,1,0,0,0,.27-.61,1.17,1.17,0,0,0-.08-.62c.26-1.59.55-3.18.83-4.76a.89.89,0,0,0,.32-.46,1.29,1.29,0,0,0-.07-.9c.14-.84.28-1.68.41-2.52,0,.42.16.85.49,1,.56.18.82-.54.86-1a4.46,4.46,0,0,1,2.54-3.38,3.48,3.48,0,0,0,0,.78c.09,1.25.49,2.85,1.73,3.44a2.83,2.83,0,0,0,1.45.24,5,5,0,0,0,.76-.13l.5-.13a3.81,3.81,0,0,0,.43-.2,1.22,1.22,0,0,0,.25-.18c0,.52-.11,1-.17,1.49-.25,1.78-.63,3.55-1,5.32-.56,2.93-.81,5.89-1.19,8.84-.24,1.87-.82,4-.63,5.88,0,.43.29,1.12.83.95s.51-1.28.47-1.66c.06.63,0,.82.08.19.07-.45.12-.91.18-1.36.15-1.13.3-2.25.44-3.38.35-2.76.57-5.53,1.09-8.28.79-4.16,3.69-14.17-3.13-15-2.82-.34-4.91,1.88-5.68,4.38.15-1.28.27-2.57.3-3.86,0-2.17-.1-4.61-1.29-6.49A5.35,5.35,0,0,0,99.78.64a6,6,0,0,0-4.29,2.61,16.82,16.82,0,0,0-2,3.46C91.34,2.78,87.5-.19,82.78,0c-5.42.23-9.23,4.13-11.05,9-1.93,5.13-2.07,10.81-2,16.22a77.33,77.33,0,0,1-.32,11.07c-.48,3.55-1.4,7-1.66,10.59-.89-3.67-2-7.29-3.09-10.92a63.89,63.89,0,0,1-2.33-10.5c-.33-2.85-.31-5.7-.85-8.53C60.52,12,58.2,6.73,53.22,4.74,49.53,3.25,44.65,3.65,41,5a7.61,7.61,0,0,0-4.31,3.54A6.46,6.46,0,0,0,36.13,12a7.76,7.76,0,0,0-4.27-2.3c-2.55-.46-6-.16-7.8,1.91-1.53,1.73-1.55,4-.9,6.15a6.13,6.13,0,0,0-5,1.57c-3.12,2.83-2.21,8.75-1.51,12.37.15.81.33,1.63.52,2.46a12.55,12.55,0,0,0-3.42-4.71A4.51,4.51,0,0,0,7.28,31c-1.53,2.68-1.18,6.31-.71,9.22.15.92.34,1.84.55,2.75a3.38,3.38,0,0,0-1.32-.57C3.43,42,1.41,44.84.72,46.72c-1.45,3.95-.39,8.56.47,12.52.44,2,1,4,1.32,6.09.4,2.38.42,4.79.87,7.16,1.13,6,3.45,11.63,5.38,17.36q3,8.88,5.59,17.87a175.68,175.68,0,0,1,4.71,19.78c1.08,6.5,2,13.09,4.28,19.3.63,1.71,1.57-.43,1.21-1.41-1.94-5.3-2.87-10.87-3.78-16.42a168.52,168.52,0,0,0-3.54-16.66c-.26-1-.54-1.91-.81-2.86a.38.38,0,0,0,.06.1c.19.16.35,0,.4-.21.47-2,.9-4,1.49-5.94a23.61,23.61,0,0,1,1.08-3,15.64,15.64,0,0,1,1.32-2.26c0,.09,0,.2,0,.25,0,.56.44.57.47,0A2.74,2.74,0,0,0,21,96.88c-.09-.17-.24-.25-.39-.1a8.81,8.81,0,0,0-1.54,2.5,24.39,24.39,0,0,0-1.17,3.14c-.63,2.08-1.06,4.22-1.55,6.33a1.61,1.61,0,0,0,0,.41c-.31-1.09-.61-2.18-.92-3.27a.18.18,0,0,0,.14,0c.22-.08.21-.52.2-.69-.22-2.36.85-4.71,1.84-6.78.82-1.71,1.74-3.38,2.5-5.12.1.35.43.51.49,0a8.38,8.38,0,0,0,0-1.47c0-.43-.38-1-.63-.34-1.64,4.49-5.08,8.68-4.79,13.68-.35-1.19-.7-2.38-1.06-3.56.08,0,.16-.08.23-.28,1.68-4.68,2.13-10.23,5.41-14.17,0,.12,0,.24.07.38.11.58.49.34.5-.14a2.88,2.88,0,0,0-.29-1.58c-.1-.17-.26-.27-.41-.11a18,18,0,0,0-3.54,7.09c-.8,2.6-1.34,5.28-2.26,7.84-.37-1.2-.72-2.4-1.1-3.6.77-2.73,1.62-5.43,2.36-8.17.29-1.09.55-2.18.8-3.28a7,7,0,0,1,.85-2.37,3.59,3.59,0,0,1,.1.62c.05.56.47.32.48-.13a5.14,5.14,0,0,0-.24-1.72c-.07-.22-.23-.45-.46-.24a5.25,5.25,0,0,0-1.16,2.61c-.28,1.14-.5,2.29-.79,3.43-.71,2.75-1.51,5.47-2.28,8.21l-.36-1.14c-.16-.5-.33-1-.49-1.48C12.4,90.17,13,87,14.15,83.88c.26-.71.48-1.42.74-2.13a10.85,10.85,0,0,1,.46-1.11,1.22,1.22,0,0,1,.19-.35c.06-.05,0-.08,0,0,.21.46.39-.36.35-.54-.2-.88-.77-.35-1,.17a18.54,18.54,0,0,0-.95,2.72c-.48,1.58-1,3.14-1.32,4.75-.41,1.78-.78,3.57-1.24,5.33-1.63-4.93-3.42-9.81-5-14.76a48.54,48.54,0,0,1-2-8.48c-.27-2.08-.33-4.15-.75-6.21-.82-4-2.18-8.14-2.16-12.3a8.54,8.54,0,0,1,.78-3.36A1.37,1.37,0,0,0,2.4,48a3,3,0,0,0,2.17,1,2.68,2.68,0,0,0,2.23-.69,2.54,2.54,0,0,0,.54-2,8.39,8.39,0,0,1,1,1.55l.45,1.52c.1.32.31.64.58.66a65.59,65.59,0,0,1,2.36,6.9c.3,1,.59,2,1,3,.22.59.49,1.53,1.21,1.67s1-2.26.18-2.73a1.39,1.39,0,0,1-.1-.19,6.07,6.07,0,0,1-.32-.85c-.36-1-.66-2.11-1-3.17A54,54,0,0,0,10,47c-.14-.3-.31-.63-.48-1a56.06,56.06,0,0,1-1.4-5.51A23.09,23.09,0,0,1,7.61,36,6.83,6.83,0,0,1,8,33.58a2.47,2.47,0,0,0,.1.31c.44,1,1.3,2.17,2.57,1.88a4.28,4.28,0,0,0,2.45-1.9,7.2,7.2,0,0,0,.71-1.3,6.69,6.69,0,0,1,.48.53c2.14,2.64,3.22,6.17,4.53,9.27a32.24,32.24,0,0,0,2.45,5,5.48,5.48,0,0,0,1.51,1.82.77.77,0,0,0,1.13-.3,2.24,2.24,0,0,0,.22-1.06,2.88,2.88,0,0,0,0-.33,2.11,2.11,0,0,0-.17-1.35c-.23-.4-.63-.53-.89-.18a2.11,2.11,0,0,0-.11-1.32A40.63,40.63,0,0,1,18.47,33a28.75,28.75,0,0,1-1-6.78,10.13,10.13,0,0,1,.21-2.28.41.41,0,0,0,.08.06,6.3,6.3,0,0,0,4.24.28,5.58,5.58,0,0,0,1.52-.9c.31-.24.6-.49.89-.75a4.17,4.17,0,0,0,.84-.92,4.22,4.22,0,0,1,.69.86c1.69,2.78,2,6.44,2.49,9.58a56.9,56.9,0,0,0,1.1,5.78,12.91,12.91,0,0,0,.87,2.42c0,.07,0,.14.06.2a3,3,0,0,0,1.11,1.39c.81.59,1.05-2.06.54-2.55A6.73,6.73,0,0,1,30.63,36c-.3-1.24-.51-2.51-.7-3.78a3.77,3.77,0,0,0,2.25.33,1.92,1.92,0,0,0,1-.52,2.05,2.05,0,0,0,.55-1.45.74.74,0,0,0-.19-.56c-.14-.11-.25,0-.33.13l-.05.09-.06.15-.1.21,0,.06,0,.05-.15.16h0l0,0-.11.07-.19.1a1.19,1.19,0,0,1-.38.11,3.54,3.54,0,0,1-2-.33c-.14-.06-.24,0-.32.14l-.07-.44-.25-1.59a.29.29,0,0,0,.14.11,9.55,9.55,0,0,0,4.47.56c1.43-.18,3-.92,3.13-2.55,0-.24,0-.63-.19-.79s-.36.09-.42.27a1.9,1.9,0,0,1-.94,1.19,4.58,4.58,0,0,1-1.86.5,9.27,9.27,0,0,1-4-.53c-.25-.09-.4.18-.44.51-.48-2.91-1.12-6-2.8-8.32a5,5,0,0,0-1-1,1,1,0,0,0-.1-.23c-.62-1-1.53-2.39-1.2-3.62a1.67,1.67,0,0,0,.13.25,4.1,4.1,0,0,0,2,1.64,3.06,3.06,0,0,0,2.23-.11,5.24,5.24,0,0,0,2.8-4.3A7,7,0,0,1,36,15.09c2.45,3.16,3.15,7.8,3.91,11.61.44,2.19.85,4.38,1.36,6.55s1,4.86,2.21,6.75c.8,1.23,1.14-1,1-1.54l0-.05a7.06,7.06,0,0,1,1.3-.37l.58-.09s0,0,0,0c0,.16.16.3.31.16A1.18,1.18,0,0,1,47,38a.7.7,0,0,0,.35-.35,1,1,0,0,0,.06-.66c0-.15-.1-.34-.28-.37a1.7,1.7,0,0,0-.36-.06l-.33,0-.74.11a8,8,0,0,0-1.46.42.3.3,0,0,0-.13.14q-.29-1-.61-1.92a14.22,14.22,0,0,0,3.74-1.42.37.37,0,0,0,.16.29c.14.06.23-.08.27-.2s0,0,0,0l.13-.08a1,1,0,0,0,.22-1c-.07-.23-.28-.53-.55-.53s-.3.15-.4.21l-.41.23a14.05,14.05,0,0,1-3.29,1.18.4.4,0,0,0-.27.25c-.22-.69-.44-1.39-.61-2.1,0-.09,0-.18-.06-.28A22.41,22.41,0,0,0,45.08,31l1.43-.55.66-.26.1,0s0,0,0,0c.07.22.27.37.4.1l.06-.07a1.31,1.31,0,0,0,.2-.16A1.14,1.14,0,0,0,48,28.92a.46.46,0,0,0-.29-.24.62.62,0,0,0-.46.06l-1,.4a25.69,25.69,0,0,1-4.08,1.33q-.3-1.42-.58-2.83c.06.11.14.18.25.17a17.21,17.21,0,0,0,3.25-.88l1.56-.55.79-.26h0c.06.29.2.51.42.42a25.14,25.14,0,0,0,3.92-1.82,6.27,6.27,0,0,0,2.86-3.21,1.1,1.1,0,0,0-.09-.88c-.14-.2-.33-.17-.45.05a6.27,6.27,0,0,1-1.08,1.59,8.1,8.1,0,0,1-1.62,1.22,22.09,22.09,0,0,1-3,1.42.38.38,0,0,0-.2-.27,1.26,1.26,0,0,0-.82.1l-.74.24-1.56.55a16.86,16.86,0,0,1-3.22.88c-.24,0-.35.37-.35.7l-.32-1.59c-.26-1.26-.52-2.54-.82-3.83.05.1.13.17.23.16a17.78,17.78,0,0,0,3-.82c.44-.14.88-.29,1.32-.39a2,2,0,0,0,.52-.16l.09,0h0l.1,0c.33-.05.27-.65.18-.86a.49.49,0,0,0-.32-.27.82.82,0,0,0-.49-.05c-.48.1-.94.25-1.41.4a18.09,18.09,0,0,1-3,.83c-.29,0-.35.46-.35.7,0,0,0,0,0,.06A29.4,29.4,0,0,0,38,14.83a2.11,2.11,0,0,0,.1-.75c1.16,2.31,3.07,4.14,5.95,3.95a9.58,9.58,0,0,0,2.82-.68,13.22,13.22,0,0,0,2.59-1.21c1.8-1.21,2.13-3.35,1.72-5.36a19.44,19.44,0,0,0-1-3.3c-.1-.25-.21-.51-.32-.76A11.28,11.28,0,0,1,53,7.49c4.87,2.08,6.78,7.18,7.41,12.07.36,2.76.35,5.55.78,8.3a76,76,0,0,0,2.24,9.48c1.84,6.3,4.15,12.65,4.35,19.28.08,2.46-.08,4.94-.24,7.42,0-.15-.05-.29-.15-.29s-.21.6,0,.6.15-.14.15-.28c-.07,1-.13,2.08-.18,3.12s-.1,2.37-.15,3.56a6.71,6.71,0,0,0-.28-1c-.05-.14-.13-.27-.27-.24a22.25,22.25,0,0,1-1.23-3c-.45-1.39-.81-2.81-1.2-4.22-.06-.23-.26-.46-.48-.25a1.09,1.09,0,0,0-.13,1c.41,1.48.79,3,1.27,4.41a16,16,0,0,0,1.83,4.14c.11.16.29.07.38-.05a.77.77,0,0,0,.09-.24c-.08,1.88-.17,3.76-.24,5.64a6.69,6.69,0,0,0-.52-1.56c-.24-.6-.5-1.19-.76-1.79C65.11,72.3,64.53,71,64,69.76a73.12,73.12,0,0,1-3.19-7.9c-.08-.24-.25-.45-.48-.25a1.08,1.08,0,0,0-.12,1,73.65,73.65,0,0,0,3.16,7.89c.58,1.28,1.16,2.55,1.72,3.84.26.6.52,1.2.77,1.8a4.78,4.78,0,0,0,.73,1.6c.2.2.31,0,.36-.22,0,.22,0,.43,0,.65q-.2,5.37-.3,10.75c-1.37-4.76-4.3-9-6.11-13.54-.11-.29-.36-.21-.49,0a1.19,1.19,0,0,0,0,1c1.81,4.56,4.5,8.69,6,13.36a1.32,1.32,0,0,0,0,.39c.08.2.2.38.27.58s.14.29.26.31c0,.61,0,1.22,0,1.83v0a28.29,28.29,0,0,0-2-3.6c-.78-1.28-1.59-2.55-2.34-3.86a11.88,11.88,0,0,1-1.46-3.15c-.06-.25-.26-.44-.48-.25s-.18.7-.12,1a11.74,11.74,0,0,0,1.33,3c.68,1.21,1.42,2.38,2.15,3.56s1.4,2.27,2,3.46a5.61,5.61,0,0,1,.76,2.31.89.89,0,0,0,.14.44c0,1.15,0,2.3,0,3.45a18.38,18.38,0,0,1-1.12-2c-.59-1.25-1.14-2.52-1.85-3.7A7.2,7.2,0,0,0,61,90.61c-.45-.24-.6,1.12-.19,1.35,1.93,1,2.89,3.51,3.77,5.4a18.7,18.7,0,0,0,1.29,2.51c.23.34.47.68.69,1,0,.73,0,1.46.05,2.19l-.22-.54c-.36-.85-.74-1.69-1.17-2.51a10.48,10.48,0,0,0-3.3-4.11c-.41-.26-.59,1.09-.18,1.35a9.85,9.85,0,0,1,3.1,4c.4.77.75,1.55,1.09,2.35.15.37.3.73.45,1.1a2.62,2.62,0,0,0,.29.62c0,.66,0,1.33.07,2-.33-.67-.71-1.32-1.07-1.93-.8-1.33-1.8-3-3.29-3.63-.46-.2-.57,1.08-.17,1.26a4.81,4.81,0,0,1,1.62,1.37,15.12,15.12,0,0,1,1.43,2.08c.42.71.8,1.44,1.15,2.18.13.27.26.55.4.81,0,.5.06,1,.08,1.48-.15-.19-.28-.39-.43-.57-.84-1-1.73-2.06-2.62-3.06-.21-.23-.42,0-.48.25a1.1,1.1,0,0,0,.13,1c.88,1,1.76,2,2.59,3,.32.4.62.8.92,1.21.05.92.12,1.84.18,2.75-.21-.28-.42-.57-.65-.85a13.73,13.73,0,0,0-2.08-2.1c-.09-.07-.21,0-.27.07a.8.8,0,0,0-.16.42.94.94,0,0,0,.24.86,12.88,12.88,0,0,1,1.93,2c.29.36.58.74.86,1.12l.24.33c.09,1.16.19,2.32.3,3.47a1.48,1.48,0,0,0-.12-.24,7.48,7.48,0,0,0-.58-.79c-.22-.27-.45-.54-.66-.82l-.29-.39a.49.49,0,0,0-.07-.1h0l-.12-.2c0-.09-.13-.21-.25-.21s-.2.11-.25.21a1.19,1.19,0,0,0,0,1,9.72,9.72,0,0,0,1.16,1.58c.19.22.37.45.54.69l0,0v0l.08.13,0,.07c0,.13.11.26.22.29s.26-.16.31-.29,0-.08,0-.11,0,.14,0,.21c.4,4,.89,8,1.64,11.89s1.67,7.61,2.41,11.44c1.52,7.82,2,15.68-1.82,22.94a2.25,2.25,0,0,0,0,2c.3.46.7.55,1,0,7.29-13.9.66-29-1.23-43.4-.52-4-.91-8-1.19-11.95a.28.28,0,0,0,.22-.17,1.14,1.14,0,0,0,0-.93,5,5,0,0,0-.32-.61c-.69-11.14-.58-22.34-.19-33.48.14-4,.31-7.92.5-11.88.14-2.85.4-5.73.45-8.6.65,3.07,1.37,6.12,2.07,9.17a111.48,111.48,0,0,1,3.09,22.07c.22,7.79.05,15.58.12,23.37,0,5.57.34,11.12.36,16.69A114.1,114.1,0,0,0,75.73,147c.67,4.42,1.81,9.7,5.36,12.77.25.21.45.2.62.05a5.87,5.87,0,0,0,2,1.61,9.36,9.36,0,0,0,3.26,1,30.46,30.46,0,0,0-2.85,8,27.84,27.84,0,0,0,3.1,19.2c.77,1.36,1.43-1.2,1-2a23.48,23.48,0,0,1-2.86-15.83,27.79,27.79,0,0,1,7.42-14.16c7.13-7.46,18.2-10.74,28.24-11.53,5.17-.41,11-.17,15.43,2.83a3.9,3.9,0,0,0,.08.82,26.2,26.2,0,0,0,1.75,4.88c.33.74.67,1.48,1,2.22l.46,1a2.21,2.21,0,0,0,.62.94c.28.19.55-.14.66-.35a2.24,2.24,0,0,0,.17-1.32M122.61,22.9l-.42,0a8.62,8.62,0,0,1-.89.09,5,5,0,0,1-.87,0l-.39-.08-.14,0-.18-.06a3,3,0,0,1-.69-.38l-.07-.05-.11-.1c-.09-.09-.16-.2-.24-.29h0l-.1-.19v0l-.05-.17,0-.18s0,0,0-.06,0-.19,0-.29a2.18,2.18,0,0,0,0-.41,4.53,4.53,0,0,1,2.89.59,4.63,4.63,0,0,1,1.87,1.85.7.7,0,0,0-.55-.21m6.25,12.93a2.87,2.87,0,0,1-.59-.38l0,0-.15-.14-.23-.22-.19-.17a3.18,3.18,0,0,1,2.74,1.1,2.61,2.61,0,0,1-1.55-.17M113.77,13.19a2.94,2.94,0,0,1,.24.49l-.25,0a4.83,4.83,0,0,0-.61.13l.17,0a4.14,4.14,0,0,1-1.89.12,1.85,1.85,0,0,1-.51-.22l-.08-.06,0,0a2.92,2.92,0,0,1-.2-.25h0l-.09-.17,0,0,0,.07c0-.07,0-.14-.07-.21l-.05-.21v0c0-.18-.05-.36-.07-.54a1.58,1.58,0,0,0-.15-.5,3.19,3.19,0,0,1,3.61,1.46M103.54,4.89c.05.07.09.15.14.22a4.11,4.11,0,0,0-.83.29c-.23.1-.47.18-.71.26l-.16,0-.08,0-.37.08a4,4,0,0,1-1.41.06l-.16,0h0l-.28-.12-.13-.08h0v0l0,0,0,0s0,0,0,0l-.13-.13,0-.06h0s0-.1,0-.15V5.16c0-.12,0-.23.05-.35a2.12,2.12,0,0,0-.18-1.3,4.6,4.6,0,0,1,4.37,1.37m-21.4,2.6c0,.35,0,0,0-.07s0-.3.06-.45l0-.12,0-.23c.08-.33.18-.66.28-1,.25-.78.45-1.25.73-2a2.9,2.9,0,0,0,.19-.82A11.14,11.14,0,0,1,92.7,8.91c-.2.61-.37,1.24-.53,1.87a.76.76,0,0,0-.43.36c.12-.18-.06.08-.1.13s-.23.21-.13.14a1.87,1.87,0,0,1-.6.29,4.21,4.21,0,0,1-1.43.05,13.33,13.33,0,0,1-3.42-1A11.61,11.61,0,0,1,83,9.31a3.23,3.23,0,0,1-.5-.53.56.56,0,0,1-.14-.22l-.07-.14,0,0v0l-.06-.23c0-.06,0-.19,0-.25s0-.1,0-.15,0-.14,0-.22M6.23,45.9a1.82,1.82,0,0,0,0,.23h0l0,0h0l0,0h0s-.05,0,0,0L6,46.28a1.92,1.92,0,0,1-.4.16,3.46,3.46,0,0,1-1.54,0,3,3,0,0,1-.65-.27l-.13-.08a2.89,2.89,0,0,1,2-.9,2.17,2.17,0,0,1,1.11.31,1.52,1.52,0,0,0-.2.42m6.22-14.19-.13.18a5.38,5.38,0,0,1-.6.67l-.16.15c.16-.15,0,0-.06,0a3.4,3.4,0,0,1-.34.23,2.59,2.59,0,0,1-.35.17l-.18.06c.18-.06,0,0-.05,0a1.45,1.45,0,0,1-.35,0l-.17,0c.19,0,0,0,0,0A2,2,0,0,1,9.68,33L9.6,33c-.07-.05-.05,0,0,0s-.13-.12-.16-.16l-.15-.18-.07-.1,0,0A1.14,1.14,0,0,1,9,32.17a3.94,3.94,0,0,1,2.26-.7,3.14,3.14,0,0,1,1.18.2l0,0M23.21,20.65a5.85,5.85,0,0,1-1.45.9l-.32.11-.12,0-.22,0a4.23,4.23,0,0,1-.86,0,6.1,6.1,0,0,1-1.1-.16,5.05,5.05,0,0,1,4.11-1l0,0m6.7-8.26-.06.14-.14.28L29.6,13l-.07.1a3.84,3.84,0,0,1-.32.39l-.15.15-.1.09h0a3.58,3.58,0,0,1-.8.47l-.21.08-.06,0h0a3.57,3.57,0,0,1-.44.06,2.74,2.74,0,0,1-.44,0l-.25,0h-.07a3.35,3.35,0,0,1-.87-.45q-.11-.09,0,0l-.12-.11-.17-.17,0-.06a6.42,6.42,0,0,1,2.35-.91,11.26,11.26,0,0,1,2.16-.21v0M50,12.54a2.55,2.55,0,0,1-1.23,1.15c-2.39,1.33-5.81,2.48-8.16.46a8.06,8.06,0,0,1-2.26-4.32l0-.12c.06-.07.11-.14.18-.21a9.45,9.45,0,0,1,4.39-2.23,21.31,21.31,0,0,1,5-.67,1.45,1.45,0,0,0,.33.86,8.82,8.82,0,0,1,1.66,3.74A2.69,2.69,0,0,1,50,12.54"/></g></g></svg>