<svg xmlns="http://www.w3.org/2000/svg" viewBox="0 0 23.63 132.81"><defs><style>.cls-1{fill:#231f20;}.cls-2{fill:#fff;}</style></defs><title>light 1</title><g id="Layer_2" data-name="Layer 2"><g id="Layer_1-2" data-name="Layer 1"><path class="cls-1" d="M11.67,87.57h0"/><path class="cls-1" d="M13,.41a.21.21,0,0,0-.1,0L12.83.39a1.44,1.44,0,0,0-.57-.33,1.13,1.13,0,0,0-.59,0,1.24,1.24,0,0,0-.61.34,1.88,1.88,0,0,0-.43.79.24.24,0,0,0-.19,0c-.27.09-.27.66-.24.86.76,5.37,0,10.73-.29,16.1-.35,5.68-.14,11.37-.08,17.05S9.9,46.54,10,52.24q0,1.45,0,2.89a1.27,1.27,0,0,0,0,.53c.07,4.56.14,9.13.15,13.69,0,6.38.35,12.76.35,19.14,0,.2.06.7.35.7s.35-.51.35-.7,0-.19,0-.29l.24-.34.15-.24,0,0h0l.1-.15.05-.09v0l0,0,.12-.18.27-.37a.52.52,0,0,0,.07-.18v1.21c0,.2.06.7.35.7s.35-.51.35-.7Q13,80.41,13,73a.83.83,0,0,0,0-.22q0-9.46,0-18.93c.06-11.24.17-22.49.24-33.73q.06-9.52.07-19c0-.2-.06-.7-.35-.7m-.7,85.73c0-.07-.05-.15-.12-.17A.14.14,0,0,0,12,86a5.21,5.21,0,0,0-.79,1c0-.49,0-1,0-1.46l0,0a8.37,8.37,0,0,0,1.07-1.25Zm0-2.89c-.37.42-.73.84-1.12,1.24,0-.33,0-.66,0-1,.24-.3.45-.61.67-.93l.48-.72Zm0-2.48,0,0a6.88,6.88,0,0,0-.72.88l-.42.56c0-.32,0-.65,0-1a.17.17,0,0,0,.13-.05,8.15,8.15,0,0,0,.75-.8L12.3,80Zm0-1.88c-.2.23-.38.47-.57.7a8.07,8.07,0,0,1-.65.69c0-.5,0-1,0-1.5a.17.17,0,0,0,.08-.06c.24-.31.46-.64.71-.95a6.85,6.85,0,0,1,.47-.52v1.62m0-2.8a3.23,3.23,0,0,0-.74.74c-.19.24-.37.49-.55.74,0-.51,0-1,0-1.52l0,0a12.31,12.31,0,0,0,1-1.24l.26-.38v1.69m0-3.22c-.21.26-.4.54-.6.8s-.49.61-.75.91c0-.68,0-1.36,0-2a.26.26,0,0,0,.11.11.21.21,0,0,0,.25-.07,6.91,6.91,0,0,0,.78-.87l.25-.31v1.45m0-4.17v1.16l0,0-.18.23-.36.48a6.57,6.57,0,0,1-.79.9.38.38,0,0,0,0,.08c0-.07,0-.14,0-.21,0-.56,0-1.12,0-1.68a.15.15,0,0,0,.18,0,4.92,4.92,0,0,0,.8-.64l.33-.34.11-.12s0,.07,0,.11m0-1.39a2.11,2.11,0,0,0-.3.24l-.24.24c-.15.15-.31.29-.47.43a4.14,4.14,0,0,1-.4.3l0,0c0-.31,0-.63,0-.94a.55.55,0,0,0,.12.29c.16.18.32,0,.36-.19s.07-.25.11-.37l0-.09v0l.07-.18c.1-.24.22-.47.35-.69s.26-.45.4-.67c0,.54,0,1.08,0,1.62m0-3a12,12,0,0,0-.79,1.28,6.93,6.93,0,0,0-.65,1.56,1.07,1.07,0,0,0,0,.15c0-.55,0-1.09,0-1.64h0a.24.24,0,0,0,.19-.16,3.71,3.71,0,0,1,.33-.64h0l0,0,0-.07.1-.15.23-.31c.18-.23.37-.47.55-.72,0,.24,0,.47,0,.71m0-1.92-.38.46-.48.59a6.46,6.46,0,0,0-.64,1c0-.45,0-.9,0-1.35.23-.34.45-.68.69-1s.55-.72.83-1.07c0,.46,0,.92,0,1.37m0-2.4h0a6.08,6.08,0,0,0-1.06,1.21c-.16.22-.31.45-.46.67,0-.31,0-.62,0-.92.28-.4.57-.79.88-1.18s.47-.62.68-1c0,.39,0,.78,0,1.17M12.48,35q-.09,11.27-.13,22.55c-.35.43-.68.88-1,1.32-.19.25-.37.51-.56.77,0-.48,0-1,0-1.43a.41.41,0,0,0,.06-.13c0-.09,0-.17.08-.25s.06-.11.08-.16a.16.16,0,0,0,.13.07.25.25,0,0,0,.19-.16,3.29,3.29,0,0,1,.2-.37l.1-.15.07-.1,0-.05a.69.69,0,0,0,.11-.22.93.93,0,0,0,0-.5.48.48,0,0,0-.09-.18.17.17,0,0,0-.12-.07c-.07,0-.14.06-.19.1l-.07.08-.14.19,0,.06a.15.15,0,0,0-.17,0,1.57,1.57,0,0,0-.25.35c0-.39,0-.77,0-1.15l.32-.6c.08-.14.16-.29.24-.42l0,0,.07-.09a1.66,1.66,0,0,0,.18-.3,1,1,0,0,0,.06-.61.63.63,0,0,0-.09-.22c0-.05-.1-.13-.17-.12a.35.35,0,0,0-.15,0,.89.89,0,0,0-.13.11,1.67,1.67,0,0,0-.15.17,3.62,3.62,0,0,0-.22.33c0-.2,0-.39,0-.59a5.66,5.66,0,0,0,.9-2,.8.8,0,0,0-.09-.54c-.06-.1-.2-.16-.28,0a7.07,7.07,0,0,0-.47.89l-.08.16c0-.42,0-.85,0-1.27a.3.3,0,0,0,.16-.15c.11-.26.23-.51.36-.75l.2-.35.1-.17a2.31,2.31,0,0,0,.12-.29,1,1,0,0,0,0-.61.39.39,0,0,0-.11-.17.16.16,0,0,0-.18,0,.64.64,0,0,0-.29.27,4.79,4.79,0,0,0-.26.44l-.09.19c-.05-3.93-.1-7.85-.11-11.78,0-5.69-.25-11.39,0-17.08C10.77,14,11.67,8.15,11,2.26c0,0,0,0,.06,0a.53.53,0,0,0,.21-.32l0-.09.07-.14,0-.06.06-.07a1,1,0,0,1,.3-.16,1,1,0,0,1,.4,0,1.26,1.26,0,0,1,.38.2l.13.13,0,0c0,11.06-.08,22.13-.17,33.19"/><path class="cls-2" d="M7.11,96.58s-.35-1.73.08-2.21a.75.75,0,0,1-.06-1.19s-1-.45.34-1.37c0,0-1.33-1,1.38-1.91,0,0-.94-1.64,2.77-1.9,0,0,3-.23,2.93,1.43,0,0,2.41.56,1.9,1.71,0,0,1.31.93.25,1.56,0,0,.53,1.39-.23,1.52,0,0,.8.75.1,1.33A1,1,0,0,1,16.79,97s1.76.06,1.17,3.51c0,0-.52,3.32-.1,4.29,0,0-.16,5.42,1.37,6.76,0,0,3.14,4.23,3.25,4.89s3.45,4.92-1.94,12.2c0,0-4.45,5-13.44,2.86,0,0-4.57-2.19-5.56-4.13,0,0-2.52-5.12-.93-8.91l4.05-7.72.65-5.94-.07-4.67S5.19,97.09,7.11,96.58Z"/><polygon class="cls-1" points="6.99 93.82 6.99 93.81 6.99 93.82 6.99 93.82"/><path class="cls-1" d="M8.61,91.36A1.36,1.36,0,0,1,8.42,91h0s0-.06,0-.08a.08.08,0,0,0,0-.06h0s0-.06,0-.06-.05,0-.07.06a.22.22,0,0,0,0,.19,1.54,1.54,0,0,0,.24.49s.05,0,.06,0a.14.14,0,0,0,0-.11"/><path class="cls-1" d="M11.7,91.22l-.06-.11a.4.4,0,0,0-.06-.1,0,0,0,0,0,0,0,.1.1,0,0,0,0,.07.42.42,0,0,0,0,.09l0,.06.06.11s0,0,0,0,0,0,0,0a.13.13,0,0,0,0-.06.13.13,0,0,0,0-.06"/><path class="cls-1" d="M8.35,94.08l0-.06h0v0l0,0,0-.1,0,0v0h0l0-.1v0h0v0h0l.1,0c.05,0,0-.1,0-.13s-.12-.07-.18,0S8,93.5,8,93.56a1.16,1.16,0,0,0,.15.47.86.86,0,0,0,.12.19s0,0,.06,0a.13.13,0,0,0,0-.11"/><polyline class="cls-1" points="8.13 93.53 8.13 93.53 8.13 93.53 8.13 93.53 8.13 93.53"/><polyline class="cls-1" points="8.13 93.54 8.13 93.54 8.13 93.53 8.13 93.54"/><polyline class="cls-1" points="10.67 94.18 10.67 94.18 10.67 94.19 10.67 94.18"/><path class="cls-1" d="M14.94,93.23v0h0l0,0-.13.15-.15.18a.13.13,0,0,0,0,.11s0,.06.06,0l.27-.31a.21.21,0,0,0,.06-.12.15.15,0,0,0,0,0"/><path class="cls-1" d="M13,93.11s0,0,0,0,0,0,0,.06v.06l0,.06h0v0a.64.64,0,0,1-.14.19.13.13,0,0,0,0,.11s0,.06.06,0a.75.75,0,0,0,.16-.22.77.77,0,0,0,0-.13.57.57,0,0,0,0-.08.19.19,0,0,0,0-.11"/><path class="cls-1" d="M12.46,93.59s0,.07,0,.07,0-.07,0-.07"/><path class="cls-1" d="M12.52,93.19s0,0,0,0l0,.06v0h0l0,.06,0,0v0h0a.14.14,0,0,0,0,.11s0,0,0,0h0a.71.71,0,0,0,.12-.31.11.11,0,0,0,0-.09"/><path class="cls-1" d="M9.5,92.92s0,0,0,0h0a.57.57,0,0,1-.14.09s0,0,0,0a.11.11,0,0,0,0,0s0,.05,0,0l.08,0L9.49,93a.06.06,0,0,0,0,0,.1.1,0,0,0,0,0"/><polyline class="cls-1" points="15.22 91.29 15.23 91.28 15.23 91.28 15.22 91.29"/><polyline class="cls-1" points="15.23 91.28 15.23 91.28 15.23 91.28"/><path class="cls-1" d="M15.6,94.6s0,0,0,0a.13.13,0,0,0,0,.08v0h0v0h0v0h0v0l-.05.05a1.09,1.09,0,0,1-.33.17s0,0,0,0a.15.15,0,0,0,0,.06s0,.07.05.06a1.19,1.19,0,0,0,.3-.15.39.39,0,0,0,.18-.26.24.24,0,0,0-.06-.21"/><polyline class="cls-1" points="7.47 94.99 7.47 94.99 7.47 95 7.47 94.99"/><path class="cls-1" d="M8.52,95.29s0-.06,0-.06H8.38l0,0h0l0,0h0v0h0v0h0v0h0v0s0,0,0,0h0a.06.06,0,0,1,0,0v0s0-.09,0-.1,0,0-.05.06a.6.6,0,0,0,0,.33.24.24,0,0,0,.16.15.16.16,0,0,0,.12,0,.08.08,0,0,0,0-.07"/><path class="cls-1" d="M9.15,95.23s0-.06,0-.05a.48.48,0,0,1-.16,0l-.06,0,0,0,0,0-.05-.06,0-.07a.86.86,0,0,1-.06-.17s0-.06-.06,0a.13.13,0,0,0,0,.11,1,1,0,0,0,.11.26h0l-.05,0h0l0,0,0,0,0,0h0l0-.06v0h0v0s0-.06-.06,0a.13.13,0,0,0,0,.11.67.67,0,0,0,.15.27l.11.09a.19.19,0,0,0,.14,0s0,0,0,0a.26.26,0,0,0,.12,0,.22.22,0,0,0,.18-.06.1.1,0,0,0,0-.08"/><path class="cls-1" d="M10.26,95.12H10.1l-.07,0h0l0,0s-.05,0-.06,0a.16.16,0,0,0,0,.08H9.77a.26.26,0,0,1-.12,0,.62.62,0,0,1-.19-.22s0,0,0,0,0,0,0,0a.14.14,0,0,0,0,.12l.1.14H9.43a.27.27,0,0,1-.12-.05l0,0,0,0v0h0l0-.07,0,0h0v0s0-.06-.06,0a.13.13,0,0,0,0,.11.65.65,0,0,0,.2.31.26.26,0,0,0,.31,0v0h0a.26.26,0,0,0,.28,0,.09.09,0,0,0,0-.08v0h0a.33.33,0,0,0,.15.11l.09,0,.1,0s0,0,0,0a.15.15,0,0,0,0,0s0-.07,0-.07"/><path class="cls-1" d="M10.46,102.6a2.68,2.68,0,0,0-.47,0l-.5,0c-.35,0-.7.06-1,.12a7.65,7.65,0,0,0-2,.56,3.71,3.71,0,0,0-.92.58s0,.2,0,.14a4.5,4.5,0,0,1,1.75-.87,10.48,10.48,0,0,1,2.09-.35l.55,0a5,5,0,0,0,.53,0c.05,0,.05-.14,0-.15"/><path class="cls-1" d="M8.32,101.68a3.53,3.53,0,0,0-1.45.21,4.55,4.55,0,0,0-1.3.71s0,.2,0,.16a4.11,4.11,0,0,1,2.73-.91c.06,0,.06-.16,0-.17"/><path class="cls-1" d="M8.08,98.82a1,1,0,0,0-.26,0l-.27,0a3.94,3.94,0,0,0-.58.11,3.36,3.36,0,0,0-1.07.47,1.59,1.59,0,0,0-.41.4.14.14,0,0,0,0,.11s0,.06.06,0a2,2,0,0,1,.82-.63A3.89,3.89,0,0,1,7.5,99l.3,0h.28c.06,0,.05-.15,0-.16"/><path class="cls-1" d="M11.1,110a3,3,0,0,0-.4-.68s-.05,0-.06,0a.13.13,0,0,0,0,.11,2.83,2.83,0,0,1,.32.5.68.68,0,0,0,.07.14h0s0,0,.05,0a.15.15,0,0,0,0-.11"/><polyline class="cls-1" points="17.6 111.54 17.6 111.54 17.6 111.54"/><path class="cls-1" d="M16.78,110.73h0s0,0,0,0"/><path class="cls-1" d="M18.45,111a3.06,3.06,0,0,0-1.16-.38l-.3,0h-.16a.19.19,0,0,0-.09,0,.11.11,0,0,0,0,.16h.12l0,0H17l.3,0a3,3,0,0,1,1.15.37c.05,0,.07-.13,0-.16"/><path class="cls-1" d="M17.71,110a6.92,6.92,0,0,0-1.22-.43l-.16,0c-.05,0-.06.15,0,.17a7.2,7.2,0,0,1,1.36.47c.06,0,.07-.14,0-.16"/><path class="cls-1" d="M17.62,109.38a8.26,8.26,0,0,1-1-.37,1.45,1.45,0,0,1,.45,0s0-.12,0-.13a.89.89,0,0,0-.63.07.12.12,0,0,0,0,.16,5.58,5.58,0,0,0,1.17.46c.06,0,.07-.14,0-.16"/><path class="cls-1" d="M17.71,108.73c-.16-.12-.33-.23-.48-.36a.83.83,0,0,1-.16-.17l0,0h0l0,0a.1.1,0,0,0,0-.08s0-.05,0,0-.07.27,0,.37a1.89,1.89,0,0,0,.39.33l.25.18s0,0,.05-.06a.11.11,0,0,0,0-.1"/><path class="cls-1" d="M19.29,112.44s0-.06,0-.06,0,0,0,.06h0a.89.89,0,0,1-.69.26,1.22,1.22,0,0,1-.34-.05l-.14-.06a.45.45,0,0,0-.1-.05s0,.1,0,.12a.43.43,0,0,0,.25.15,1.3,1.3,0,0,0,.37.06.94.94,0,0,0,.73-.28.15.15,0,0,0,0-.15"/><path class="cls-1" d="M17.8,107.41l0-.09v-.08h0a.28.28,0,0,1,0-.1l0,0v.05c0,.09,0,.18,0,.28"/><path class="cls-1" d="M15.87,132.54l.31-.06.09,0-.4.11"/><path class="cls-1" d="M5,120.62c0-.05,0-.13-.07-.17a.16.16,0,0,0-.11,0,.21.21,0,0,0-.1.06,3.31,3.31,0,0,0-.37.36,6,6,0,0,0-.69,1,7.41,7.41,0,0,0-.91,2.38,3.52,3.52,0,0,0,0,1.22s0,.07.05.06,0-.08,0-.1a4.31,4.31,0,0,1,.31-2.13,7.16,7.16,0,0,1,1.14-2.09,4.13,4.13,0,0,1,.39-.42c.06-.05.14-.16.22-.15s0,0,0,0a.22.22,0,0,0,.05.1s.05-.08,0-.11"/><path class="cls-1" d="M4.93,121.63a.08.08,0,0,0-.05,0,.07.07,0,0,0-.1,0c-.11.13-.21.28-.3.42a9.14,9.14,0,0,0-.58,1,6.6,6.6,0,0,0-.72,2.27,3.12,3.12,0,0,0,.09,1.2s0,.05.06,0,0-.08,0-.11a3.59,3.59,0,0,1,.12-2,8.31,8.31,0,0,1,.94-2q.15-.23.31-.46l.08-.11,0,0,0,0h0s0,0,0,0a.22.22,0,0,0,0,.1c0,.06.06,0,0-.08a.16.16,0,0,1,0-.07.18.18,0,0,0,0-.1"/><path class="cls-1" d="M5.64,125.52a2.47,2.47,0,0,1,.25-.34s0-.15,0-.12a1.34,1.34,0,0,0-.41.61,2.48,2.48,0,0,0-.14.77,6,6,0,0,0,.22,1.63c.07.28.15.56.22.83,0,0,0,.05.05,0s0-.08,0-.11c-.12-.48-.26-1-.34-1.44a3.35,3.35,0,0,1,0-1.49,1.69,1.69,0,0,1,.15-.36"/><path class="cls-1" d="M6.89,129.5a7.22,7.22,0,0,1-.53-1.16A2.93,2.93,0,0,1,6.15,127a1.06,1.06,0,0,1,.29-.57s0-.15,0-.12a.82.82,0,0,0-.31.51,2,2,0,0,0,0,.69A5.1,5.1,0,0,0,6.51,129c.1.22.2.44.32.65s.09-.07.06-.12"/><path class="cls-1" d="M8.13,129.67a2.42,2.42,0,0,1-.43-.82,2.36,2.36,0,0,1-.09-.44,2.29,2.29,0,0,1,0-.43s0-.07,0-.08,0,0,0,0a1.33,1.33,0,0,0,0,.46,2.5,2.5,0,0,0,.1.51,2.6,2.6,0,0,0,.47.91s0,0,.06,0a.13.13,0,0,0,0-.11"/><path class="cls-1" d="M5.35,107.28s0,0,0,.05a.57.57,0,0,1,0,.16.62.62,0,0,1-.07.16.09.09,0,0,0,0,.08s0,0,0,0a.72.72,0,0,0,.1-.4s0-.05,0-.05"/><path class="cls-1" d="M20.21,125.79a2.3,2.3,0,0,1-.58-.07.15.15,0,0,1-.08-.05c0,.26-.12.52-.19.78a13.82,13.82,0,0,1-.54,1.61l-.14.31.2-.2a7.9,7.9,0,0,0,.77-1l.38-.58h-.35a.17.17,0,1,1,0-.33c.15,0,.29,0,.44,0h.08l0,0h0c.06-.11.12-.23.17-.35l0-.09-.24,0m-.54,1a.08.08,0,0,1,0,.17h0a.53.53,0,0,1-.21.07.08.08,0,0,1,0-.17h.05a.51.51,0,0,1,.2-.07"/><path class="cls-1" d="M21.15,123.53a.89.89,0,0,0-1,.39,3.33,3.33,0,0,0-.43,1.11c0,.13-.06.25-.08.38a.18.18,0,0,1,.12,0,1.83,1.83,0,0,0,.49.06h.24l.15,0,.11-.29h-.05a6.18,6.18,0,0,1-.72,0,.17.17,0,0,1,0-.33c.22,0,.44,0,.67,0h.15l.09,0h0l.12-.32,0-.08h-.1a3.75,3.75,0,0,1-.74-.07.17.17,0,0,1-.12-.21.17.17,0,0,1,.21-.12,3.31,3.31,0,0,0,.67.06h.21l.12-.33.06-.17a.15.15,0,0,1-.14,0"/><path class="cls-1" d="M23.27,123.85c0-.18,0-.36.06-.53a9.19,9.19,0,0,0,.26-3.22.17.17,0,0,0,0-.15l0,0h0q0-.39-.12-.79a14.28,14.28,0,0,0-1.67-4.3,20.51,20.51,0,0,0-1.23-1.88l-.16-.21s0-.09,0-.1a.31.31,0,0,0-.24-.18c-.33-.42-.66-.83-1-1.27a5.11,5.11,0,0,1-.89-2.09,12.93,12.93,0,0,1-.31-2.48l0-1.06a.41.41,0,0,0,0-.29c0-.09,0-.18,0-.27a.37.37,0,0,0,.09-.21c0-.09,0-.36-.11-.41s0-.25,0-.38c0-.35,0-.71,0-1.06,0,0,0-.13,0-.15h0c0-.35,0-.71,0-1.06h0s0-.1,0-.13v-.08l0-.23h0s0,0,0,0a.12.12,0,0,0,0-.07l0,0,.05-.4h0a.09.09,0,0,0,0-.12l0-.3,0,0a.1.1,0,0,0,0-.11h0c0-.27.06-.53.07-.8h0v0a.09.09,0,0,0,0-.07v-.07l0,0s0,0,0,0a.08.08,0,0,0,0-.07.24.24,0,0,0-.06-.13c0-.08,0-.17,0-.26l.08,0a.28.28,0,0,0,.07,0s0-.08,0-.1a.39.39,0,0,0-.15-.15l0,0a2.52,2.52,0,0,0-.34-1.21,1.31,1.31,0,0,0-.76-.54l0-.07a.7.7,0,0,0,0-.17,1.64,1.64,0,0,0,0-.54,1.11,1.11,0,0,0-.26-.61A1,1,0,0,0,17,94.8a1.37,1.37,0,0,0-.2-.53l0,0a.82.82,0,0,0,.24-.63,1.53,1.53,0,0,0-.15-.66l.09,0a.62.62,0,0,0,.29-.51,1.31,1.31,0,0,0-.55-1.24h0a.67.67,0,0,0,0-.54v0a1.47,1.47,0,0,0-.41-.67,3,3,0,0,0-.9-.61,2.61,2.61,0,0,0-.68-.18,1.42,1.42,0,0,0-.51-.8,2.94,2.94,0,0,0-1.55-.51,6.67,6.67,0,0,0-1.89.11,4.41,4.41,0,0,0-1.53.55,1,1,0,0,0-.46,1.25h0l-.47.18a2.9,2.9,0,0,0-.84.55h0a.24.24,0,0,0-.14.17h0a1,1,0,0,0-.23.86.58.58,0,0,0,.16.27,1.24,1.24,0,0,0-.29.32,1,1,0,0,0,0,1.18.85.85,0,0,0-.17.54.83.83,0,0,0,.21.55,1.33,1.33,0,0,0-.14.51,4,4,0,0,0,.13,1.35,1,1,0,0,0-.27.27l0,.06-.15.11a.08.08,0,0,0-.1,0,4.31,4.31,0,0,0-1.27,3.06,35.68,35.68,0,0,0,.08,3.6c0,.4,0,.81,0,1.21a.59.59,0,0,0,0,.49l0,.32c-.07.81-.17,1.63-.31,2.43a18.23,18.23,0,0,1-1.32,4.34c-.21.28-.41.56-.59.85l-.16.21c-.09.13-.19.26-.27.4a2.94,2.94,0,0,0-.3.35,7.71,7.71,0,0,0-.73,1.28c-.22.46-.44.91-.64,1.38a4.42,4.42,0,0,0-.44,1.58s0,0,0,.06A12.46,12.46,0,0,0,0,121.33a15,15,0,0,0,.56,4.29,8.83,8.83,0,0,0,2.16,3.66c.16.16.33.32.51.47a.13.13,0,0,1,.14,0l0,0h0l0,0,.08.11a11.11,11.11,0,0,0,1.13.8,2.75,2.75,0,0,0,.44.47,5.14,5.14,0,0,0,.58.4l.28.1a11.83,11.83,0,0,0,1.46.34c.62.12,1.24.26,1.86.39a15.68,15.68,0,0,0,1.93.3,9.73,9.73,0,0,0,1.24,0,18.59,18.59,0,0,0,2.43-.35c.4-.09.8-.18,1.2-.29l.17-.06c.87-.35,1.65-1,2.54-1.27h0a13.72,13.72,0,0,0,1.29-1.09c.42-.4.82-.82,1.22-1.24a7,7,0,0,0,.92-1.15,7.93,7.93,0,0,0,.95-2.7l0-.16.1-.15a.52.52,0,0,0,0-.46h0M16.76,93.7a.27.27,0,0,1-.1.11.42.42,0,0,1-.17.06l.09-.11a.78.78,0,0,0,.1-.19.53.53,0,0,0,0-.2l0,0,0,.06v.09h0a.15.15,0,0,1,0,.1m-.12,1a.78.78,0,0,1,.07.18.18.18,0,0,1,0,.19.32.32,0,0,1-.21.12.81.81,0,0,0,.16-.34.41.41,0,0,0,0-.14m.25-2.83.06.11a.36.36,0,0,1,0,.09l0,.08,0,0-.15.13-.16.11,0,0-.19-.06a.77.77,0,0,0,.36-.57l.05.07m-.19-.2-.05,0-.08.1s0,.15,0,.13a.4.4,0,0,0,.09-.07l.07,0v.06a.59.59,0,0,1-.11.16,1.58,1.58,0,0,1-.31.26s-.07,0-.09.06l-.12,0a.78.78,0,0,0,.21-.22.85.85,0,0,0,.09-.22c0-.09.06-.21,0-.29a.05.05,0,0,0-.08,0,.16.16,0,0,1-.06,0s0,.06,0,.08,0,.06,0,.06a.1.1,0,0,0,.08,0h0a.68.68,0,0,1-.11.28.69.69,0,0,1-.3.24.05.05,0,0,0,0,0l-.15,0A.87.87,0,0,0,16,92a1.07,1.07,0,0,0,.08-.33h0a.61.61,0,0,1,.59.07m-1.87.36a.59.59,0,0,0,.17-.36l.45-.05a.08.08,0,0,0,0,0v0h0v0h0a.79.79,0,0,1-.12.18,1.06,1.06,0,0,1-.38.3s0,0,0,.07h-.31a1.65,1.65,0,0,0,.22-.21m-.4.16a.07.07,0,0,0,0,0H14l.14-.15.13-.16a.7.7,0,0,0,.11-.2.16.16,0,0,0,0,0l.44,0h.11l0,.07a1,1,0,0,1-.12.16,1.46,1.46,0,0,1-.33.29m.69-.7.07,0,.21,0h.09l-.36,0m.21.6a.76.76,0,0,0,.22-.37.29.29,0,0,0,0-.12l.33,0s0,.11,0,.11a.12.12,0,0,0,.07,0h0a.76.76,0,0,1-.46.61h-.39l.18-.16M14.16,89h0l0,0v0a1.15,1.15,0,0,1,.13.17h-.2v0h0v0M14,88.87l0-.08.11.09h0l0,0a.38.38,0,0,0,0,.11.11.11,0,0,0,0,0h-.15l0-.14,0-.08m-.18-.21,0,0,.1.06v0l0,.08-.06.17a.14.14,0,0,0,0,.05H13.7a3.09,3.09,0,0,0,.09-.31l0-.1m-.24-.11.16.07,0,.07a2.87,2.87,0,0,1-.09.3.14.14,0,0,0,0,.08h-.16a.14.14,0,0,0,0-.07,1.14,1.14,0,0,1,0-.33l0-.12m-.1,0,0,.07a1.43,1.43,0,0,0-.06.41.13.13,0,0,0,0,.07h-.26a3,3,0,0,0,.14-.6l.18.06m-.37-.08v0l.11,0v.06a2.35,2.35,0,0,1-.13.51.16.16,0,0,0,0,.05h-.18c.06-.13.12-.26.16-.4a1.23,1.23,0,0,0,.06-.22m-.24-.07.16,0v0a1.42,1.42,0,0,1-.06.18c0,.12-.1.24-.15.37a.16.16,0,0,0,0,.09h-.1c0-.1.06-.2.08-.3l.05-.23c0-.05,0-.11,0-.16m-.25.06,0-.08h.12l0,.11-.05.22c0,.13-.06.25-.1.38h-.12c0-.14,0-.28.07-.42a1.31,1.31,0,0,1,.06-.22M12,88.32h.12l0,.16a1.54,1.54,0,0,1-.14.38.14.14,0,0,0,0,.12s0,0,.06,0a1.62,1.62,0,0,0,.15-.4l.07-.26h0v0a1.4,1.4,0,0,0-.06.2c0,.13-.05.27-.08.4a.13.13,0,0,0,0,.11s.05,0,.06,0,0-.25.08-.38a1.41,1.41,0,0,1,.05-.18c0-.05,0-.1.07-.15h.21a1.44,1.44,0,0,0-.07.22c0,.17-.06.35-.09.52l-.67,0h0c0-.15.07-.31.12-.46a2.15,2.15,0,0,1,.07-.21l.06-.12m-.29.06,0,0h.14c0,.07-.06.15-.08.23s-.08.32-.12.48a.15.15,0,0,0,0,.1l-.16,0c0-.13.05-.27.08-.41a1.92,1.92,0,0,1,.06-.25l0-.11m-.21,0h.12v0a1.65,1.65,0,0,0-.08.28,5,5,0,0,1-.11.52l-.23,0,.17-.42.09-.25.05-.17m-.71.09.13,0c0,.08-.05.16-.08.24s-.08.3-.13.45a.13.13,0,0,0,0,.11s0,0,.06,0,.09-.3.13-.46a2.22,2.22,0,0,1,.07-.21L11,88.4h.09l0,0a2.15,2.15,0,0,0-.07.2c0,.13-.08.27-.12.41a.13.13,0,0,0,0,.11s0,0,.06,0,.07-.26.11-.39,0-.12.06-.18a1.51,1.51,0,0,0,.07-.17h.14l0,.06-.09.25c-.06.17-.13.33-.2.49v0l-.54.09c0-.15.07-.3.11-.45a2.42,2.42,0,0,1,.07-.24c0-.06.05-.11.07-.16m-.22.12,0-.08h.06v0a2.23,2.23,0,0,0-.08.25c0,.17-.07.35-.12.52a.17.17,0,0,0,0,.05h-.08v0c0-.16.08-.33.12-.49l.07-.25m-.11,0h0l-.06.2c0,.17-.08.34-.12.51a.13.13,0,0,0,0,.11l-.15,0c0-.15.06-.31.1-.46a1.21,1.21,0,0,1,.08-.23,1.12,1.12,0,0,1,.11-.15m-.83.42a1.81,1.81,0,0,1,.08-.18l.2-.08,0,.12-.12.39a.13.13,0,0,0,0,.11s0,0,.06,0l.12-.38.05-.19,0-.06h0L10,88.8c0,.16-.07.33-.11.49a.13.13,0,0,0,0,.11s.05,0,.06,0,.06-.31.1-.47a1.45,1.45,0,0,1,.07-.22l.05-.09.13,0a1.35,1.35,0,0,0-.09.23c-.05.18-.08.37-.12.56a.15.15,0,0,0,0,0h0l-.52.13a.13.13,0,0,0,0-.07,1.51,1.51,0,0,1,.1-.51m-.11,0,0,0a1.7,1.7,0,0,0-.08.52s0,.07,0,.08l-.16,0c.05-.13.09-.27.13-.4s0-.14.07-.2m-.62.38h0l0-.05h0l0,0,.09-.09h0a1,1,0,0,0,0,.42s0,.07.05.06,0-.08,0-.1A.9.9,0,0,1,9.18,89l.07,0,.19-.11L9.38,89a4.24,4.24,0,0,1-.15.45.15.15,0,0,0,0,.09l-.3.09a.44.44,0,0,0,0-.29v0h0s0,0,0,0h0M7.29,91.2h0a.88.88,0,0,0,.18.28l0,0a.57.57,0,0,1-.15-.09l0-.05a.62.62,0,0,1,.05-.11M7,92.73v0l0-.07a.92.92,0,0,1,.84-.55,0,0,0,0,0,0,0H8a.08.08,0,0,0,.07,0h.07A3.45,3.45,0,0,0,9,91.83H9l.87,0s.05-.12,0-.15l.74,0c.32,0,.63,0,.95,0a2.92,2.92,0,0,1,.91.12c.06,0,.07-.13,0-.15a1.83,1.83,0,0,0-.8-.14h-.38a.15.15,0,0,0,0-.1,1.38,1.38,0,0,0-.05-.15.42.42,0,0,0-.07-.12s0,0,0,0a.11.11,0,0,0,0,.08l0,.08h0v0h0v0h0l0,.14h-.19l0,0L11,91.23a.08.08,0,0,0,0-.05.12.12,0,0,0,0,0s0,0,0,0a.11.11,0,0,0-.09,0,.08.08,0,0,0,0,0,.2.2,0,0,0,0,.1.27.27,0,0,0,0,.09l.05.06h-.11a.1.1,0,0,0,0,0,.93.93,0,0,1-.11-.18v0l0,0s0,0,0,0a.09.09,0,0,0,0-.08.56.56,0,0,1-.06-.08.1.1,0,0,0-.1,0s0,.09,0,.12a1.43,1.43,0,0,0,.09.22l.07.12h-.18a.05.05,0,0,0,0,0l-.13,0h0a.14.14,0,0,0,0-.11l-.07-.11,0-.06h0v0l0-.06h0v0h0s0,0,0,0a.08.08,0,0,0,0-.06s0,0,0,0a.28.28,0,0,0,0,.16.67.67,0,0,0,0,.14,1,1,0,0,0,.13.26H10v0a.63.63,0,0,1-.18-.23h0v0h0l0-.06a.12.12,0,0,0,0-.09s0,0,0,0a.22.22,0,0,0-.09.16.43.43,0,0,0,0,.2.62.62,0,0,0,.12.21l-.23.05a.13.13,0,0,0,0-.15.63.63,0,0,1-.17-.22h0s0,0,0,0l0-.06a.13.13,0,0,0,0-.09s0,0,0,0a.2.2,0,0,0-.08.14.39.39,0,0,0,0,.18.66.66,0,0,0,.21.29h0l-.37,0a.14.14,0,0,0,0-.09,1.72,1.72,0,0,1-.07-.24V91a.57.57,0,0,0,0-.14s0,0,0,0,0,0,0,.05a.47.47,0,0,0,0,.15s0,.09,0,.14a1.77,1.77,0,0,0,.07.25H9v0a2.63,2.63,0,0,1-.13-.28.66.66,0,0,1,0-.13h0v0a.13.13,0,0,0,0-.07s0,0,0,0a.22.22,0,0,0,0,.17.68.68,0,0,0,0,.18,1.83,1.83,0,0,0,.11.26h0l-.46.07a.12.12,0,0,0,0-.07A2,2,0,0,1,8.11,91h0s0-.11,0-.14v0s0,0-.06,0A.15.15,0,0,0,8,91a.54.54,0,0,0,0,.17,2.35,2.35,0,0,0,.23.48H8.21s0-.1,0-.11a.89.89,0,0,1-.31-.3A.54.54,0,0,1,7.8,91v0h0v0l0,0a.13.13,0,0,0,0-.09s0,0,0,0-.09.16-.08.23a.61.61,0,0,0,.08.26,1,1,0,0,0,.33.36h0A.13.13,0,0,0,8,91.58l-.12,0H7.8s0-.09,0-.1a.58.58,0,0,1-.39-.36l.17-.18a2.73,2.73,0,0,1,.77-.49,9.2,9.2,0,0,1,1.55-.49,14.43,14.43,0,0,1,3.35-.36,10.75,10.75,0,0,1,1.23.07v0c0,.09,0,.26.09.31s.15-.11.15-.18,0-.1,0-.15l.23,0a2.08,2.08,0,0,1,.76.34,2.65,2.65,0,0,1,.47.38.08.08,0,0,0,0,.05l0,0a1.16,1.16,0,0,1,.16.24.31.31,0,0,1,0,.08.46.46,0,0,1-.09.12l0,0a.81.81,0,0,0-.06-.21,1.21,1.21,0,0,0-.2-.28s0,0-.06,0a.13.13,0,0,0,0,.11,1.13,1.13,0,0,1,.17.24.58.58,0,0,1,0,.12v0H16l0-.23s0-.07-.05-.06,0,.08,0,.1l0,.2-.19,0a1.22,1.22,0,0,0,0-.24s0-.07-.05-.06,0,.08,0,.1a1,1,0,0,1,0,.22l-.17.07-.13,0a2.12,2.12,0,0,1,.14-.27.13.13,0,0,0,0-.12s0,0-.06,0a2.44,2.44,0,0,0-.16.32l0,.09-.18,0a2.68,2.68,0,0,0,.08-.39s0-.09,0-.1,0,0-.05.06a2.53,2.53,0,0,1-.07.34l0,.1h-.07v0a1.1,1.1,0,0,0,0-.42s0-.07-.05-.06,0,.07,0,.1v0h0v0s0,0,0,0v0h0v.12h0v.05h0l0,.05h0s0,0,0,0h-.18l0-.05a1,1,0,0,0,.06-.39s0-.08,0-.08,0,.06,0,.08a.73.73,0,0,1,0,.29.64.64,0,0,1-.06.12l0,0h0a1.67,1.67,0,0,0,.14-.4.13.13,0,0,0,0-.11s-.05,0-.06,0a1.52,1.52,0,0,1-.12.36l-.07.12h-.13a2.17,2.17,0,0,0,.09-.36s0-.09,0-.1,0,0-.05.06a2,2,0,0,1-.09.37v0h-.44s0,0,0,.08l-.14,0c-.06,0,0,.13,0,.16a.91.91,0,0,0,.52.21.55.55,0,0,0,.31.08h0l-.05.08-.13.16c-.09.1-.18.19-.28.28h-.23l.11-.17a1.05,1.05,0,0,0,.17-.35.12.12,0,0,0,0-.09s0,0,0,0l-.07.16-.09.15-.19.28h-.37a1.93,1.93,0,0,0,.17-.2l.11-.16a.25.25,0,0,0,0-.15s0-.08-.06,0,0,0,0,0l0,0,0,.05h0l0,0-.06.08a1.33,1.33,0,0,1-.26.28.08.08,0,0,0,0,.05h-.28l.14-.14.13-.18a.49.49,0,0,0,.09-.23s0-.08,0-.07,0,.06-.05.08l-.05.09L12.7,92a1.55,1.55,0,0,1-.3.28h-.58l.1-.07.14-.14a.46.46,0,0,0,.11-.18.14.14,0,0,0,0-.08s0,0,0,0,0,0-.05.07L12,92l-.13.13a1.31,1.31,0,0,1-.33.19.06.06,0,0,0,0,0l-.44,0,.12-.07c.15-.1.34-.25.35-.44,0,0,0-.11-.06-.07s0,.07-.06.11l-.07.09a1.13,1.13,0,0,1-.21.17,3.79,3.79,0,0,1-.47.24h-.06c-.06,0-.06.17,0,.17h.07q1.17-.08,2.33-.1H14.4a2.72,2.72,0,0,0,.45.07l0,0,.39.05c.36.07.71.18,1.07.27a1.06,1.06,0,0,1,.3.32l0,.09s0,0,0,0a.64.64,0,0,0,0,.09l0,.08a.66.66,0,0,1-.09.15,1.82,1.82,0,0,1-.22.23h-.06l-.14,0a.09.09,0,0,0-.08,0H16a.54.54,0,0,0,.14-.17.37.37,0,0,0,0-.18.3.3,0,0,0,0-.1.13.13,0,0,0-.05-.08s0,0,0,0a.12.12,0,0,0,0,.08l0,0h0l0,0h0l0,0-.05,0-.15.1a.07.07,0,0,0,0,.06.62.62,0,0,0-.21,0,.07.07,0,0,0,0,0h-.18a.88.88,0,0,0,.2-.17.57.57,0,0,0,.15-.37s0-.06,0-.07,0,0,0,0l0,.08v0h0v0a.53.53,0,0,1-.09.13.92.92,0,0,1-.27.2s0,0,0,.09h0l-.33-.05.17-.17.09-.09,0,0a.19.19,0,0,0,0-.06.14.14,0,0,0,0-.08s0,0,0,0,0,0-.06,0l-.33.33a.1.1,0,0,0,0,.05.15.15,0,0,0,0,.06h0l-.15,0-.38-.06h0l.14-.15.11-.1.12-.1a.12.12,0,0,0,0-.09s0-.06,0,0l-.12.09-.11.1a1.41,1.41,0,0,0-.19.23l0,0-.25-.06a.6.6,0,0,0,.12-.15.53.53,0,0,0,0-.43s0,0,0,0a.09.09,0,0,0,0,.06v.08h0s0,0,0,0h0v0h0v.05h0v0l0,0a.57.57,0,0,1-.24.21l-.1,0s0,0,0,.1h-.06l-.17-.09.1-.07a.52.52,0,0,0,.21-.43.07.07,0,0,0,0-.05s0,0,0,0v.06h0v0l0,.08a.5.5,0,0,1-.12.13,1.11,1.11,0,0,1-.25.13H13s0,0,0,.09l-.1,0c-.06,0-.07.14,0,.16a2.09,2.09,0,0,0,.64.14h0a1.43,1.43,0,0,0,.62.09h0l.51.14a5.52,5.52,0,0,0,1.28.18H16l.05,0,.11,0a.71.71,0,0,1,.3.19h0s0,0,0,.05a.1.1,0,0,0,0,.08l.07.05,0,0s0,0,0,0v0h0v0s0,0,0,0v0h0v.06l0,.08-.09.14a.13.13,0,0,0,0,.11h-.1s-.08,0-.1.09h-.1a.61.61,0,0,0,.2-.34.41.41,0,0,0,0-.22c0-.05-.06-.11-.12-.09s0,0,0,.05a.09.09,0,0,0,0,.06l0,.05h0v0s0,0,0,0v0h0v0h0v0l0,.07a.57.57,0,0,1-.15.14.11.11,0,0,0,0,.1h0l-.16,0-.28,0a.92.92,0,0,0,.39-.33.44.44,0,0,0,.07-.26.32.32,0,0,0,0-.13s-.06-.09-.1-.09,0,.09,0,.12,0,.06.07.09v0s0,0,0,0,0,0,0,0h0v0l-.05.08a.9.9,0,0,1-.36.27s0,.09,0,.13c-.26,0-.52-.05-.79-.06A1.81,1.81,0,0,0,15,95a.58.58,0,0,0,.12-.14.22.22,0,0,0,0-.22,0,0,0,0,0,0,0,.26.26,0,0,0,0,.07h0l0,0h0l0,0-.06.06a2,2,0,0,1-.31.22s0,.07,0,.1v0h-.29a1,1,0,0,0,.19-.14.72.72,0,0,0,.22-.4.1.1,0,0,0,0-.08s0,0,0,0a1.52,1.52,0,0,1-.09.18.76.76,0,0,1-.12.15,1.05,1.05,0,0,1-.35.21s0,0,0,.07h-.42l.16-.13a.91.91,0,0,0,.22-.24.11.11,0,0,0,0-.09s0,0,0,0l-.22.2-.25.19a.1.1,0,0,0,0,.09h-.38a1.51,1.51,0,0,1,.2-.21l.13-.1a.94.94,0,0,0,.15-.09s0-.12,0-.13l-.08,0-.08,0-.14.1a1.69,1.69,0,0,0-.25.26.13.13,0,0,0,0,.11l-.43,0,.27-.15a1.49,1.49,0,0,0,.36-.23s0-.15,0-.13-.24.14-.36.2-.25.13-.37.21,0,.07,0,.1h0l-.78,0h-.41a.47.47,0,0,1-.23,0s-.06.12,0,.15a.4.4,0,0,0,.19.06h.34c.3,0,.6,0,.89,0l1-.07s0,.05,0,.06a3.24,3.24,0,0,0,1,.09,4.75,4.75,0,0,0,.62.11,3.65,3.65,0,0,0,.55,0h.15a2.44,2.44,0,0,0,.7.12s0,0,0-.08a.54.54,0,0,1,.35.43.55.55,0,0,1,0,.13,4.5,4.5,0,0,0-1.92-.56c-.74-.08-1.49-.08-2.24-.1A27.46,27.46,0,0,0,9,95.62a3.22,3.22,0,0,0-1.56.48.73.73,0,0,0-.25,0,3.67,3.67,0,0,1-.14-.94.47.47,0,0,0,0,.14.29.29,0,0,0,.17.17.19.19,0,0,0,.18,0h0s0,0,0,0h0a.19.19,0,0,0,.17,0,.06.06,0,0,0,0,0l0,0a.18.18,0,0,0,.17,0s0,0,0-.07l0,.06s.1.09.14.06a.1.1,0,0,0,0-.12l-.06,0,0,0A.36.36,0,0,1,8,95.15l0-.08v0h0v0l0-.18s0-.08-.05-.06,0,.07,0,.1a2.35,2.35,0,0,0,.08.4v0l-.09,0-.07,0a.2.2,0,0,1-.06-.11h0v0h0s0,0,0,0v0s0,0,0,0v-.06h0v-.07h0a.14.14,0,0,0,0-.12v0h0a.1.1,0,0,0,.09-.06l.75,0A1.7,1.7,0,0,0,9,94.7a5.68,5.68,0,0,0,.82,0l.65-.06.53,0h.08l.47,0L13,94.49c.06,0,.06-.17,0-.17h-.05s0-.05,0-.05c-.34,0-.67,0-1,0,0,0,0,0,0,0h-.13v-.06a.6.6,0,0,0,0-.13s0,0,0,0,0,0,0,0a.56.56,0,0,0,0,.17h0l-.18,0h0v0h0v0h0s0,0,0,0v-.06a.1.1,0,0,0,0-.07s0,0,0,0a.26.26,0,0,0,0,.1.48.48,0,0,0,0,.12.51.51,0,0,0,0,.1v0h0l-.13,0a.09.09,0,0,0,0,0h0v0h0v0h0v0h0s0,0,0,0,0,0,0-.05,0,0,0,0a.36.36,0,0,0,0,.19l-.08,0,0,0h0l0,0,0,0s0-.12,0-.11a.09.09,0,0,0,0,.05.26.26,0,0,0,0,.1.24.24,0,0,0,0,.15l0,0h-.19a.12.12,0,0,0,0-.1l0,0v0h0v0h0v0h0v0h0l0,0a.12.12,0,0,0,0-.08s0,0,0,0a.26.26,0,0,0-.08.25.43.43,0,0,0,.08.2h-.21a.13.13,0,0,0,0-.1.59.59,0,0,1-.07-.11h0v0h0s0,0,0,0h0v0h0l0,0,0-.05a.11.11,0,0,0,0-.08s0-.06,0-.05-.15.17-.15.27a.55.55,0,0,0,.1.29l-.27,0a.12.12,0,0,0,0-.07,1.06,1.06,0,0,1-.13-.3v0h0a.66.66,0,0,1,.08-.12.12.12,0,0,0,0-.08s0,0,0,0-.1.09-.12.15a.47.47,0,0,0,0,.21,1,1,0,0,0,.12.33H9.91l0,0H9.78a.08.08,0,0,0,0,0A.75.75,0,0,1,9.52,94a.42.42,0,0,1,0-.09.28.28,0,0,1,0-.06.36.36,0,0,1,.1-.15s0-.14,0-.13a.26.26,0,0,0-.15.19.59.59,0,0,0,0,.29.86.86,0,0,0,.16.31,7.44,7.44,0,0,0-.92-.12.13.13,0,0,0,0-.1.75.75,0,0,1-.21-.39v0h0s0,0,0,0h0a.19.19,0,0,1,0-.08.37.37,0,0,1,.18-.14H8.9a.65.65,0,0,0,0,.24,1,1,0,0,0,.22.54s0,0,.06,0a.13.13,0,0,0,0-.11.82.82,0,0,1-.17-.4v0H9s0,0,0,0v0a.21.21,0,0,1,0-.08l0-.06h.35a10.93,10.93,0,0,0,1.22,0c.06,0,0-.14,0-.16a.42.42,0,0,0-.18,0h0a1.57,1.57,0,0,0-.68-.13l0,0L9.86,93a.09.09,0,0,0,0-.07s0,0,0,0l-.1,0-.1.05-.19.11a.06.06,0,0,0,0,0H8.93a1.67,1.67,0,0,0,.2-.2.88.88,0,0,0,.17-.26.12.12,0,0,0,0-.08s0,0,0,0l-.08.1-.09.11a1.54,1.54,0,0,1-.2.19.11.11,0,0,0,0,.1.15.15,0,0,0,0,0H8.69l-.16,0L8.65,93l.1-.14a.4.4,0,0,0,.08-.2s0-.08,0-.07,0,0-.05.07l0,.07-.1.13a3.31,3.31,0,0,1-.24.24H8.05a.75.75,0,0,0,.17-.17,1.2,1.2,0,0,0,.19-.33.12.12,0,0,0,0-.08s0,0,0,0a.87.87,0,0,0-.09.14l-.09.14A.6.6,0,0,1,7.9,93s0,0,0,0a.15.15,0,0,0,0,.06h0a.12.12,0,0,0-.1-.09H7.61a1.28,1.28,0,0,0,.22-.19l.11-.13A.42.42,0,0,0,8,92.5s0-.08,0-.09,0,0-.06.05l-.05.07-.11.13a1.13,1.13,0,0,1-.26.21s0,.07,0,.1v0H7.45A.65.65,0,0,1,7,92.86.22.22,0,0,1,7,92.78H7v0H7m0,1.09H7s0,0,0-.06a.45.45,0,0,1,.12-.13l.07,0a1.51,1.51,0,0,0,.1.29,1.38,1.38,0,0,0,.13.24H7.29l-.11-.06A.52.52,0,0,1,7,93.91l0-.06v0H7m.82.36h0c-.17,0-.31-.15-.38-.28a1.4,1.4,0,0,1-.12-.28l0-.07.09,0,.06,0s0,0,0,0h.1s0,0,0,0a.53.53,0,0,0,0,.07,1.22,1.22,0,0,0,.21.55m-.13-.62h.06l.12,0s0,0,0-.05a4.84,4.84,0,0,1,.53-.05.52.52,0,0,0-.06.31.89.89,0,0,0,.21.48H8.28l-.22,0a.08.08,0,0,0,0-.06.9.9,0,0,1-.26-.37l0-.11,0-.05v0h0v0h0v0h0s0,0,0,0h0m.24.77H7.86l0,0a.18.18,0,0,0,0-.06l.08.1m-.32.78a.51.51,0,0,0,.05.19H7.58l0,0h0l0,0h0v0h0v-.08s0,0,0,0v0h0V94.9s0-.09,0-.1,0,0-.05.06a1.08,1.08,0,0,0,0,.34l0,.07h0l0,0,0,0h0v0h0v0h0v0h0a.13.13,0,0,0,0-.11,0,0,0,0,0,0,0s0-.08-.05-.06l-.08.08h0v0a.14.14,0,0,0,0-.12s0,0,0,0a.31.31,0,0,1,.07-.08.26.26,0,0,1,.1-.05,1.19,1.19,0,0,0,.4.08v0a.84.84,0,0,0-.06.38m-.47.08h0v0h0v0h0v0h0L7.23,95a.5.5,0,0,0,0,.26l-.06,0,0,0h0s0,0,0,0M5.42,99.3h0s0,.06.06,0a2.91,2.91,0,0,1,1-.75,3.25,3.25,0,0,1,1.29-.32l.34,0c.11,0,.21.06.32.07s0-.12,0-.14a.71.71,0,0,0-.28-.09l-.3,0a2.74,2.74,0,0,0-.66.07A3.68,3.68,0,0,0,6,98.72a2.56,2.56,0,0,0-.52.47,4.77,4.77,0,0,1,.21-.81v0c0,.05,0,.1,0,.08a5.07,5.07,0,0,1,3.2-.92l.47,0,.47,0c.05,0,.05-.14,0-.15A4.68,4.68,0,0,0,9,97.35a7.23,7.23,0,0,0-.84,0,5.18,5.18,0,0,0-1.63.4,4.16,4.16,0,0,0-.83.49,3,3,0,0,1,.61-.93,0,0,0,0,0,.05,0l.14-.12h.05a1.1,1.1,0,0,0,.21,0s.07-.08.08-.12v0l0,0,.06,0a22.19,22.19,0,0,1,4.24-.27c.62,0,1.24.09,1.86.1s1.21,0,1.81.08a6.76,6.76,0,0,1,1,.17c.32.08.62.24.93.34.07,0,.11,0,.13-.09a1.12,1.12,0,0,1,.89.69.65.65,0,0,0-.21-.11l-.08,0c-.25-.13-.51-.25-.77-.35a3.79,3.79,0,0,0-1.15-.28,3.57,3.57,0,0,0-.77,0c-.06,0-.05.18,0,.17a3.44,3.44,0,0,1,1.28,0,5.09,5.09,0,0,1,1,.39H17c-.06,0,0,.18,0,.17a1,1,0,0,1,.39,0l.35.17,0,0,0,.05c0,.07,0,.15,0,.22h0l-.09-.06a1.89,1.89,0,0,0-.33-.13,5.27,5.27,0,0,0-.84-.19,1.06,1.06,0,0,0-.32,0c-.06,0-.06.15,0,.17.39.1.76.28,1.16.37,0,0,.06-.12,0-.16l.13,0h0c-.05,0,0,.18,0,.16a.59.59,0,0,1,.26,0s0,0,0,0,0,.16,0,.25a1.35,1.35,0,0,0-.27,0s0,.05,0,.08,0,.09,0,.08l.27,0q0,.11,0,.23l0,0-.29.1s0,.05,0,.08,0,.09,0,.08a1.87,1.87,0,0,0,.31-.11v.14l-.18,0s0,0,0,0a.15.15,0,0,0,0,.06s0,.07.05.06l.14,0V100l0,.17h0a1.46,1.46,0,0,0-.29.06s0,0,0,0a.16.16,0,0,0,0,.06s0,.07.05.06l.27-.06,0,.26h-.37c-.06,0-.06.17,0,.17h.35l0,.26a.9.9,0,0,0-.25,0s0,.06,0,.08,0,.09,0,.08a.9.9,0,0,1,.24,0c0,.1,0,.2,0,.29a1.32,1.32,0,0,0-.39-.09c-.06,0-.06.17,0,.17a1.25,1.25,0,0,1,.37.09c0,.13,0,.25,0,.38v0a2.92,2.92,0,0,0-.65-.12c-.06,0-.06.17,0,.17a2,2,0,0,1,.41.06l.2,0h0a.09.09,0,0,0,0,0c0,.11,0,.23,0,.34a1.47,1.47,0,0,0-.83-.18c-.06,0-.06.17,0,.17a1.43,1.43,0,0,1,.82.18c0,.26,0,.51,0,.77l-.19-.17a2.56,2.56,0,0,0-.4-.27,1.27,1.27,0,0,0-.85-.19c-.06,0-.05.18,0,.17a1.22,1.22,0,0,1,.83.18,2.55,2.55,0,0,1,.39.26l.17.15.07.08c0,.11,0,.22,0,.34l-.06,0a2.31,2.31,0,0,0-.9-.53,1,1,0,0,0-.74-.21,9.64,9.64,0,0,0-1.91-.26,14.73,14.73,0,0,0-2.23-.09l-.43,0a6,6,0,0,0-1.22.14l-.07,0-.65,0a10.79,10.79,0,0,0-2.63.5,5.79,5.79,0,0,0-1.37.72h0c0-.33,0-.66,0-1v-.08h0a8.2,8.2,0,0,1,3.15-1.11,6.24,6.24,0,0,1,.93,0c.06,0,.06-.17,0-.17a7.56,7.56,0,0,0-3.27.73,8.41,8.41,0,0,0-.83.43h0c0-.36,0-.71-.05-1.06h0a1.88,1.88,0,0,1,.38-.28,5.31,5.31,0,0,1,.56-.29,4.41,4.41,0,0,1,1.26-.38,1.63,1.63,0,0,1,.53,0s0-.12,0-.14a.74.74,0,0,0-.47-.07,3.13,3.13,0,0,0-.6.12,5.67,5.67,0,0,0-1.26.54,2.11,2.11,0,0,0-.44.32v-.22l0-.36h0a1.88,1.88,0,0,1,1.07-.6,7.3,7.3,0,0,1,1.45-.22l.37,0a2.66,2.66,0,0,0,.32,0c.05,0,.05-.15,0-.15a1.71,1.71,0,0,0-.29,0H8l-.73.07a4.42,4.42,0,0,0-1.4.37,1.41,1.41,0,0,0-.49.38c0-.18,0-.36,0-.54a2.28,2.28,0,0,1,1-.66,4.76,4.76,0,0,1,1.46-.32,2.15,2.15,0,0,1,.68.05c.06,0,.07-.15,0-.16a3,3,0,0,0-1.34,0,4.37,4.37,0,0,0-1.42.52,1.77,1.77,0,0,0-.43.35,7.91,7.91,0,0,1,.09-1.2m10.48,6.46.13.07-.14,0a.16.16,0,0,0,0-.11m-.13-.33a4,4,0,0,0-.44-.32,3,3,0,0,0-1.15-.31,10.87,10.87,0,0,0-1.29-.05c-.44,0-.89,0-1.33,0s-1,.06-1.45.1L8.88,105a5.56,5.56,0,0,0-1.14.24c-.15,0-.37.11-.44.27a.22.22,0,0,0,0,.27H7.26s0-.08,0-.08a1.44,1.44,0,0,1-.58-.19,1.64,1.64,0,0,1,.7-.39,5.76,5.76,0,0,1,1.06-.21l1.14-.13c.4,0,.79,0,1.19,0,.94,0,1.88-.08,2.82,0,.54,0,1.09.06,1.63.12h.05a3.77,3.77,0,0,1,.83.33,1.41,1.41,0,0,1,.54.49v0l-.36.12,0,0a4.08,4.08,0,0,1-.45-.31m-2.09.28v-.1h0a3,3,0,0,1,.48.16A4.35,4.35,0,0,0,15,106l-.21,0c-.35-.13-.71-.26-1.08-.36m.71.4-.27,0-.21,0-.2,0v-.16l.69.23m-.15-.44a3.61,3.61,0,0,0-.43-.15l-.16,0v0c0-.07-.05-.22-.15-.18s-.08.11-.09.19h-.08c-.39,0-.77,0-1.16,0h-.49a.32.32,0,0,0-.06-.24c-.08-.08-.15,0-.17.09l0,.16h-.68l-.41,0,0-.28a.42.42,0,0,0,0-.07h.11a18,18,0,0,1,2.13,0,15.78,15.78,0,0,1,2,.25,6.41,6.41,0,0,1,.74.19,1.82,1.82,0,0,1,.48.22l.06.05h0l-.37.08-.34.06s0-.07,0-.07a3.2,3.2,0,0,1-.87-.27m-1.18,4.86v0l-.07.09-.07.07a1.75,1.75,0,0,1,.13-.26l0,0v0s0,0,0,0m-.35-.37h0l0-.06a.11.11,0,0,0,0-.08s0,0,0,0l-.08.13a2.88,2.88,0,0,1,.26-.57.14.14,0,0,0,0-.12s0,0-.06,0a3,3,0,0,0-.31.7h-.31a2.26,2.26,0,0,1,.12-.5.14.14,0,0,0,0-.12s0,0-.06,0a2.75,2.75,0,0,0-.15.61h-.18c0-.3,0-.61,0-.91,0,0,0-.08,0-.08s0,.06,0,.08c0,.3,0,.61,0,.91h0l-.23,0c0-.28-.11-.56-.17-.84,0,0,0-.05-.06,0s0,.08,0,.11c.06.25.12.51.16.76l-.18,0a2.23,2.23,0,0,0-.26-.89c0-.08-.09.07-.06.12a2,2,0,0,1,.23.78l-.13,0H11a1.51,1.51,0,0,0-.26-.51h0a.19.19,0,0,0-.08-.08h0a1,1,0,0,0-.41-.26,4.58,4.58,0,0,1,.83-.2,5.57,5.57,0,0,1,1.12-.07h0l.07,0a4.33,4.33,0,0,1,.69.1,2.4,2.4,0,0,1,.46.16l-.13.06a.13.13,0,0,0,0-.06s0,0-.06,0l-.1.18a1.83,1.83,0,0,0-.47.62m0,1.18a1.33,1.33,0,0,1,.26.08,1.3,1.3,0,0,1-.26.15v-.05s0-.08,0-.12h0v0m-.19-.79a3.16,3.16,0,0,0-.1.37,2.35,2.35,0,0,1-.45,0h-.16a.65.65,0,0,0,0-.21,3.72,3.72,0,0,0,0-.45h.15c0,.09,0,.19,0,.28a.12.12,0,0,0,0,.09s0,0,.05,0,.09-.19.13-.29a.11.11,0,0,0,0-.07h.22s0,.12,0,.09l.09-.08h.05c0,.08-.06.16-.09.23m0,1.9-.08,0v0a.87.87,0,0,1-.06-.24l.06,0a2,2,0,0,0,.09.25m-1.26-2.07v0h0l.19,0c0,.05,0,.11,0,.16s-.06,0-.05.07a.92.92,0,0,0,.06.36l0,0-.35,0a1.74,1.74,0,0,0-.11-.47v0l.17,0c0,.1,0,.2,0,.3s0,.08,0,.08,0-.06,0-.08,0-.19,0-.28m0,1.51a7.21,7.21,0,0,0,1.06,0,2.13,2.13,0,0,0,0,.22l-.17,0a4.75,4.75,0,0,1-1.32.21,2.58,2.58,0,0,0,.2-.42h.24m-.18-.16c0-.06,0-.12,0-.18a5.1,5.1,0,0,1,1.19-.25h.06c0,.07,0,.13,0,.2s0,.12,0,.18a9.67,9.67,0,0,1-1.26.05m.08-.35a2.17,2.17,0,0,0,0-.31c.27,0,.53,0,.8,0a2.55,2.55,0,0,0,.43,0v0a4.55,4.55,0,0,0-1.24.25m.41-1.07h0l.23,0c0,.11,0,.22,0,.34a.52.52,0,0,1-.06.26.09.09,0,0,0,0,0h-.19a.08.08,0,0,0,0-.06,2.72,2.72,0,0,0,0-.56M8.25,105.8l-.11,0H8a.27.27,0,0,1,0-.07.59.59,0,0,1,.14-.15l.12-.08.46-.16c.23-.07.46-.13.69-.17l.62-.06-.06.35a5.19,5.19,0,0,0-.58.08,2.61,2.61,0,0,0-.9.35l-.28,0s0-.09,0-.09m-.68-.09a.48.48,0,0,1-.2-.13h0l0,0a1,1,0,0,1,.43-.21,5.59,5.59,0,0,1,1.08-.22l.21,0-.29.07a2.2,2.2,0,0,0-.51.2,7.2,7.2,0,0,0-.73.33m.43,0a.52.52,0,0,0,0,.11v0l-.21,0,.26-.12m1,.18-.14.11H8.79l.23-.1m.27,0a3.65,3.65,0,0,1,.7-.17l-.06.42L9,106a1.43,1.43,0,0,1,.28-.13m.71,1.88q.05-.59.12-1.17c.35,0,.7.06,1.06.08,0,.46-.05.93-.08,1.39l0,.45a4.81,4.81,0,0,0-.85.22l-.31.13c0-.37,0-.73.08-1.1m2.09-1.94-.52,0c0-.08,0-.15.06-.23h.45a.51.51,0,0,0,0,.21m-.15.17h.19c0,.08,0,.16.05.24H11.5c0-.07,0-.14,0-.22l.41,0m.31.7a11,11,0,0,1,0,1.16c0,.2,0,.4,0,.6h-.05a5.65,5.65,0,0,0-.88,0l0-.3c0-.5,0-1,.08-1.49h.82m-1-.82-.25,0c-.28,0-.56.1-.84.17l.06-.4.14,0,.32,0h.62c0,.08,0,.17-.05.25m0,.16,0,.19-.8,0q.41-.09.83-.14m2.05-.25.11,0c0,.05,0,.11,0,.16l-.43-.09a4.9,4.9,0,0,0-.65-.07l-.05-.2a6.44,6.44,0,0,1,1,.16m-.25-.22h.34v.06l-.34-.08m.4.59v0l-.58,0h-.44c0-.08,0-.15,0-.23l.52,0c.18,0,.36.07.53.11m0,2.5a3.45,3.45,0,0,0-.9-.2c0-.22,0-.44,0-.66s0-.74,0-1.11h0l.93,0c0,.66,0,1.33-.06,2m-.5-3.74c.34,0,.67,0,1,0a5.74,5.74,0,0,1,.67.09,2.33,2.33,0,0,1,.62.19,2.3,2.3,0,0,1,.3.19,8.07,8.07,0,0,0-2.59-.5m-6.41.64h0l-.16,0-.16-.05c.16-.11.32-.23.48-.32a2.14,2.14,0,0,1,.43-.17,1.58,1.58,0,0,0-.46.27,1,1,0,0,0-.15.16.12.12,0,0,0,0,.15m-.6-.21h0a1.5,1.5,0,0,1-.31-.18,10.24,10.24,0,0,1,3.12-.84,17.73,17.73,0,0,1,3-.09l1.49.09-.65,0c-.5,0-1,0-1.5.06l-1,0a15.53,15.53,0,0,0-2.26.17,3.6,3.6,0,0,0-1.85.78m10.39-.21a1.28,1.28,0,0,1,.4.26.43.43,0,0,1,.09.12s0,0,.06,0a.14.14,0,0,0,0-.12.87.87,0,0,0-.43-.37,1.11,1.11,0,0,1,.52.3c0,.06.08-.1,0-.14a1.2,1.2,0,0,0-.56-.32,4.89,4.89,0,0,0-.84-.18l-.4,0-.08,0a8.49,8.49,0,0,0-1.52-.25h0l-.35,0a18.39,18.39,0,0,1,2.86.42,5.23,5.23,0,0,1,1.08.37l.26.15a6.5,6.5,0,0,1-.76.35,1.23,1.23,0,0,0-.39-.48M4.13,111.34q.11-.3.21-.61l0,0v0l-.07.2a.41.41,0,0,0,0,.21l-.07.12,0,0a.1.1,0,0,0,0,.08l-.05.09.13-.28-.09.11m-3.32,6L.94,117l.2-.45,0,.09L1,117a.33.33,0,0,0,0,.15q-.08.18-.15.37l0-.14M2,128.3l.07.07.16.17,0,0,0,.06a.35.35,0,0,0,0,.12c-.12-.15-.24-.31-.35-.46m.82-.13c-.09-.11-.2-.21-.3-.31l-.29-.33c-.18-.21-.35-.42-.51-.64a5.66,5.66,0,0,1-.4-.64,6.23,6.23,0,0,1-.3-.72,14.23,14.23,0,0,1-.5-1.66c0-.15-.07-.3-.1-.45v0c0-.1,0-.21,0-.31s0-.32,0-.48,0-.11,0-.17,0-.05,0-.08h0s0,0,0-.07c0-.53.05-1.06.05-1.59a.17.17,0,0,1,.33,0c0,.58-.06,1.16-.05,1.75A6.38,6.38,0,0,0,.91,124c.14.54.3,1.08.46,1.61a4.25,4.25,0,0,0,.69,1.29c.15.2.31.39.48.58s.31.38.48.55-.08.3-.17.17m18.84-4.93a1.86,1.86,0,0,1-.11.48l-.09.25a.29.29,0,0,1,.13,0,.15.15,0,0,1,0,.23.44.44,0,0,1-.29.1l-.1.27a.14.14,0,0,1,.08.09c0,.15-.11.27-.23.33a12,12,0,0,1-.45,1.14h0a.38.38,0,0,1-.13.25,12.48,12.48,0,0,1-.72,1.12,7.12,7.12,0,0,1-.84,1,8.29,8.29,0,0,1-1.23,1,9.58,9.58,0,0,1-1.35.77,12.56,12.56,0,0,1-1.51.55,13,13,0,0,1-1.71.41,16.6,16.6,0,0,1-3.44.19.16.16,0,0,1-.14-.08l-.25-.05h.23a.15.15,0,0,1,.16-.19,15.85,15.85,0,0,0,3.72-.24,12.78,12.78,0,0,0,1.63-.43,10.72,10.72,0,0,0,1.42-.55,10.39,10.39,0,0,0,1.29-.78l.27-.2a.16.16,0,0,1,.07-.25h0l0,0,.07-.1a3.13,3.13,0,0,0,.17-.32,4.55,4.55,0,0,0,.25-.63,14.43,14.43,0,0,0,.58-1.94,7.66,7.66,0,0,1,.27-1.17,2.26,2.26,0,0,1,.62-1,1.16,1.16,0,0,1,.25-.16l0,0a4.06,4.06,0,0,1,.63-.4.72.72,0,0,1,.43-.07.42.42,0,0,1,.16.07l0,0h0l.08.09h0l0,0a.19.19,0,0,1,0,.08.16.16,0,0,1-.1.19m.92-.61,0,.09,0,0,0-.06h0l.06-.22h0l0,.15m-4.38-4.42a5.25,5.25,0,0,1,2.35,0,5,5,0,0,1,2.06,1h0a4.14,4.14,0,0,1-.48.8,4.29,4.29,0,0,0-1.66-.84,4.68,4.68,0,0,0-1.28-.14c-.06,0-.06.17,0,.17a4.48,4.48,0,0,1,2.13.45,4.12,4.12,0,0,1,.73.47c-.11.13-.22.26-.32.37a4.24,4.24,0,0,1-.39.36,7.58,7.58,0,0,0-.58-.51,3.3,3.3,0,0,0-.48-.32.78.78,0,0,0-.36-.12c-.06,0-.06.17,0,.17a.67.67,0,0,1,.29.09,2.74,2.74,0,0,1,.39.25,6.48,6.48,0,0,1,.62.53,4.81,4.81,0,0,1-.49.33,2.64,2.64,0,0,0-.87-.75c-.06,0-.07.14,0,.16a2.51,2.51,0,0,1,.78.65l-.34.18-.43.21a4.81,4.81,0,0,0-.54-.46s-.07.13,0,.16a4.57,4.57,0,0,1,.44.36,2.84,2.84,0,0,0-1.08.85,2,2,0,0,0-.34,1c0,.36,0,.71,0,1.07a4.16,4.16,0,0,1-.08.61c-.11-.34-.23-.68-.35-1,0-.1-.09,0-.07.08.14.37.27.74.38,1.11a5.21,5.21,0,0,1-.38,1l0,0a6.53,6.53,0,0,0-.06-.68,2.06,2.06,0,0,0-.61-1.37l-.13-.08s0,0,0,0,0,0,0,0,0,.13,0,.16a1.6,1.6,0,0,1,.66,1.18,6,6,0,0,1,.08.94,5.64,5.64,0,0,1-.48.75c0-.17,0-.34,0-.5a3.38,3.38,0,0,0-.37-1.34s0,0-.06,0a.14.14,0,0,0,0,.12,3.72,3.72,0,0,1,.38,1.83,6.25,6.25,0,0,1-.69.73,1.19,1.19,0,0,0-.12-.4s0,0-.06,0a.14.14,0,0,0,0,.12,1,1,0,0,1,.1.35,6.94,6.94,0,0,1-1.17.83,7.49,7.49,0,0,1-.95.45,2.4,2.4,0,0,0-1.19.35c-.57.12-1.15.2-1.73.29s-1.07.16-1.61.19a1.24,1.24,0,0,1-.29-.52s0,0,0,0,0,0,0,.06a.91.91,0,0,0,.22.5H9.5a1.66,1.66,0,0,1-.17-.23,3.36,3.36,0,0,1-.15-.31,0,0,0,0,0,0,0,.1.1,0,0,0,0,.07,1.26,1.26,0,0,0,.14.35l.08.13H8.94a.14.14,0,0,0,0-.12c-.11-.2-.24-.38-.34-.59s-.16-.37,0-.54,0-.14,0-.12c-.21.15-.13.46-.05.66a6,6,0,0,0,.39.7,4.26,4.26,0,0,1-1.48-.34l0,0a.13.13,0,0,0,0-.11A10.32,10.32,0,0,1,7,128.83a1.48,1.48,0,0,1,0-1.09s0-.14,0-.1a.69.69,0,0,0-.14.39,1.82,1.82,0,0,0,0,.5,5.2,5.2,0,0,0,.33,1l.21.49h0a4,4,0,0,1-.43-.22,14.09,14.09,0,0,1-1.68-1.3l-.12-.1,0-.09c0-.14-.06-.28-.09-.42-.07-.38-.12-.77-.17-1.15s-.08-.82-.08-1.23a3.94,3.94,0,0,1,.08-1c0-.2.15-.44.39-.42,0,0,0-.12,0-.13-.23-.07-.36.14-.43.33a3.12,3.12,0,0,0-.13,1,13.31,13.31,0,0,0,.23,2.53c0,.17.06.34.1.51-.35-.29-.69-.59-1-.91a8,8,0,0,1,0-1.26,7,7,0,0,1,.37-2.07,3.39,3.39,0,0,1,.47-.88c.07,0,.1.1.15.16s0,0,0,0a.1.1,0,0,0,0-.09.59.59,0,0,0-.18-.21h0a2.78,2.78,0,0,0-.46.81,5.8,5.8,0,0,0-.29,1,8.51,8.51,0,0,0-.13,2.21q0,.13,0,.25l-.23-.25a9.29,9.29,0,0,1-1.94-3.37,6,6,0,0,1,.78-1.57,11.11,11.11,0,0,1,1.67-2,9.51,9.51,0,0,1,.92-.76c0,.08,0,.16,0,.24s.06.08.06,0a2.4,2.4,0,0,0,0-.37s0-.07,0-.06a6.19,6.19,0,0,0-.86.69,11.27,11.27,0,0,0-.9.93,9,9,0,0,0-1.46,2.19,5,5,0,0,0-.21.54l0-.06c-.06-.21-.11-.42-.16-.64.37-.6.73-1.2,1.12-1.78.28-.42.56-.83.87-1.24a7,7,0,0,1,.82-.94,1.33,1.33,0,0,1,.37-.26c.07,0,.19-.06.26,0s.06-.08,0-.11a.25.25,0,0,0-.25-.06.94.94,0,0,0-.32.19,5.23,5.23,0,0,0-.81.87A27.45,27.45,0,0,0,2,122l-.44.72q-.08-.43-.12-.86a17.33,17.33,0,0,1,.95-1.5,13.9,13.9,0,0,1,1.61-1.94,8.24,8.24,0,0,1,.86-.73l0,.09s0,.13.06.05.06-.17.09-.25,0-.15,0-.12a5.22,5.22,0,0,0-.86.69,11.19,11.19,0,0,0-.85.91,17.19,17.19,0,0,0-1.49,2.08l-.31.53c0-.07,0-.13,0-.2s0-.21,0-.31l0,0a16.67,16.67,0,0,1,2.78-4q.24-.24.49-.47l.42-.35c0,.06,0,.11,0,.17s0,.12.06,0a1.19,1.19,0,0,1,.05-.29s0-.17,0-.13a7.05,7.05,0,0,0-.9.79c-.29.29-.56.59-.82.9a16.82,16.82,0,0,0-1.41,2q-.34.56-.65,1.15c0-.38,0-.76,0-1.14h0a9,9,0,0,1,.83-1.32,20,20,0,0,1,1.62-1.87l.47-.48c.14-.15.3-.29.43-.44a.4.4,0,0,0,.1.09s0-.09,0-.11l-.06-.06s0-.07,0,0,0-.1,0-.07a5.48,5.48,0,0,0-.4.4l-.43.44c-.29.3-.58.6-.86.92a12.72,12.72,0,0,0-1.5,2l-.07.12c.06-.28.12-.57.17-.86a8.57,8.57,0,0,1,1.07-1.5c.55-.64,1.16-1.23,1.76-1.82l.48-.47.23-.23s0,0,.06,0l0,0s0,.07.07.11.05-.08,0-.11-.05-.15-.12-.18-.06,0-.1,0L5,114.5l-.43.43-.91.9a14.63,14.63,0,0,0-1.71,2c-.11.16-.22.33-.32.51q.06-.37.1-.74.46-.75,1-1.46A21,21,0,0,1,4.53,114c.34-.35.69-.68,1-1l0,.05a1,1,0,0,0-.06.13s0,.15.05.08a2,2,0,0,0,.1-.18.37.37,0,0,0,0-.24s0-.05-.06,0a16.65,16.65,0,0,0-1.91,2A21.59,21.59,0,0,0,2,117l-.22.35c0-.12,0-.24,0-.36s.1-.27.15-.4c.19-.46.4-.91.61-1.37.11-.18.23-.35.35-.52a9.2,9.2,0,0,1,1.36-1.57,5.13,5.13,0,0,1,.79-.57s0-.16,0-.14a2.74,2.74,0,0,0-.71.48,7.28,7.28,0,0,0-.72.72,10.67,10.67,0,0,0-.81,1.05l0-.11a10.7,10.7,0,0,0,1.41-2.35,3.15,3.15,0,0,1,.38-.34c.17-.13.35-.25.53-.38l.26-.18.07,0s.06,0,.08,0l.17.11s0-.1,0-.12l-.11-.1a.36.36,0,0,0-.15-.09s-.06,0-.09,0l-.12.08-.46.31a5,5,0,0,0-.45.35q.17-.41.32-.83l.29-.24.4-.33.2-.17a1.23,1.23,0,0,0,.19-.17s0-.16,0-.13a.94.94,0,0,0-.19.15l-.19.16-.41.34-.17.14.16-.48a.24.24,0,0,0,0-.07c.16-.17.33-.33.47-.51a3.38,3.38,0,0,0,.34-.47,1.25,1.25,0,0,0,.2-.52s0-.1-.06,0a2.15,2.15,0,0,0-.09.24,2.19,2.19,0,0,1-.13.24,3.5,3.5,0,0,1-.34.47c-.13.16-.27.3-.42.45L5,110a6.08,6.08,0,0,0,.08-.61l.62-.74.3-.37a2.68,2.68,0,0,0,.3-.41s0-.14,0-.1a2.83,2.83,0,0,0-.31.36l-.31.38-.56.66c0-.09,0-.19,0-.28a.41.41,0,0,0,0-.18,3.12,3.12,0,0,0,.43-.46,1.32,1.32,0,0,0,.19-.35.55.55,0,0,0,0-.38s0,0-.05,0,0,.11,0,.16a.7.7,0,0,1,0,.16,1.38,1.38,0,0,1-.2.33,3.3,3.3,0,0,1-.32.34,5.56,5.56,0,0,0,0-.69c.14-.81.24-1.62.31-2.44v0a1.77,1.77,0,0,0,.77.46,6.2,6.2,0,0,0,.94.23h0c.08.09.17.07.28.08s0,0,0,0l1.4.22h0l.84.12.23,0q-.07.54-.11,1.09t-.09,1.29V109a2.09,2.09,0,0,0-.26.19.22.22,0,0,0-.06.1h0a.16.16,0,0,0,0,.11c0,.22.08.49.24.36,0,.12.08.21.16.2a1,1,0,0,1,.73.17l.1.1,0,.06,0,0-.09,0-.09,0s0,.19,0,.16a1,1,0,0,1,.22-.1,1,1,0,0,1,.05.18v.23a1.06,1.06,0,0,0-1.07.52.12.12,0,0,0,0,.14,1.12,1.12,0,0,0,1,.12l0,.11a1.45,1.45,0,0,0-.58.25.12.12,0,0,0,0,.15.71.71,0,0,0,.28.21h0c-.08.11-.2.18-.28.29a.34.34,0,0,0-.06.21.89.89,0,0,0-.4.1s0,.11,0,.14v0l-.2.06s0,.12,0,.15a1.05,1.05,0,0,0,.4.26l0,0,.07.05a.33.33,0,0,0,.22,0l.18,0a.76.76,0,0,0,.27-.12.12.12,0,0,0,0-.15.13.13,0,0,0,0-.14l0,0a.12.12,0,0,0,0-.14l-.16-.08a2.5,2.5,0,0,0,.3-.45v0l0,0a2.83,2.83,0,0,0,.53,0,7.77,7.77,0,0,0,1.08-.23,1.19,1.19,0,0,0,.06.27h0s0,.09,0,.12h0l0,.05a.13.13,0,0,0,0,.14h0l0,.06a.13.13,0,0,0,0,.14.6.6,0,0,0,.37.14l.11,0a1.67,1.67,0,0,0,.18.6,6.81,6.81,0,0,0,1.08,1.28,2.7,2.7,0,0,1,.48.7,2.8,2.8,0,0,1,.22,1.11,5.66,5.66,0,0,1-.53,2.31c-.2.46-.43.91-.62,1.38a2.73,2.73,0,0,0-.21-.42,1.08,1.08,0,0,0-.53-.48,1.13,1.13,0,0,0-.81.05,1.52,1.52,0,0,0-.6.5,2.08,2.08,0,0,0-.34-.44,1.13,1.13,0,0,0-.91-.35,1.63,1.63,0,0,0-.83.37l-.18.06A4.41,4.41,0,0,0,9,119.4c-.16-.35-.36-.68-.53-1a1.82,1.82,0,0,1-.22-1c.11-.66.73-1.13,1.15-1.6a2.83,2.83,0,0,0,.55-.85,3.11,3.11,0,0,0,.19-1.05s0-.07,0-.11H9.9a3.11,3.11,0,0,1,0,.36,1.89,1.89,0,0,1-.29.83,5.3,5.3,0,0,1-.62.73,2.83,2.83,0,0,0-1,1.67,3.72,3.72,0,0,0,.63,2.06,5.63,5.63,0,0,1,.3.65,2.07,2.07,0,0,0-.52.42,3.67,3.67,0,0,0-.72,1.4,13.32,13.32,0,0,0-.34,1.51,8,8,0,0,0-.16,1.75,2.64,2.64,0,0,0,.39,1.42.7.7,0,0,0,.79.65.37.37,0,0,0,.28,0,.39.39,0,0,0,.22-.2,1,1,0,0,0,.14-.2,3.55,3.55,0,0,0,.33-1,4.74,4.74,0,0,0,.28-1.09,14.06,14.06,0,0,0,.07-2.08,6.89,6.89,0,0,0-.25-1.75c0-.16-.05-.31-.09-.47l.09-.08a2.28,2.28,0,0,1,.4-.08c.08,0,.12-.11.13-.22l.12,0a1.08,1.08,0,0,1,1.18.59,4.46,4.46,0,0,0-.23.51,7.48,7.48,0,0,0-.3,1q-.11.34-.19.68a8.22,8.22,0,0,0-.23,1.56c0,.13,0,.27,0,.4a5.61,5.61,0,0,0,0,1.52.43.43,0,0,0,0,.29,1.29,1.29,0,0,0,.12.2h0c.15.37.58,1,1.06.76a1.25,1.25,0,0,0,.43-.53,3.31,3.31,0,0,0,.2-.48,1,1,0,0,0,.19-.68.28.28,0,0,0,0-.08,5.44,5.44,0,0,0,.05-.74,14.63,14.63,0,0,0-.23-2.68,8,8,0,0,0-.38-1.42l-.1-.23a1.3,1.3,0,0,1,.49-.38.83.83,0,0,1,1.17.43,2.73,2.73,0,0,1,.15.35,5.47,5.47,0,0,0-.16.55c-.08.32-.12.66-.17,1s-.11.67-.16,1a8.7,8.7,0,0,0-.09,2.15,2.37,2.37,0,0,0,.79,1.61.65.65,0,0,0,.81.1,1,1,0,0,0,.37-.84,4.78,4.78,0,0,0-.14-1c-.08-.37-.11-.74-.16-1.11a16.32,16.32,0,0,0-.55-2.71c-.08-.25-.14-.5-.22-.76.28-.71.66-1.39.91-2.12a5.78,5.78,0,0,0,.33-2.24,3.15,3.15,0,0,0-.68-1.84c-.34-.41-.75-.75-1.06-1.18a1.41,1.41,0,0,1-.2-.41,1,1,0,0,0,.48-.24s0-.1,0-.13h0a.26.26,0,0,0,0-.05h0a.42.42,0,0,0,0-.2.35.35,0,0,0-.28-.19,1.24,1.24,0,0,1-.23-.16l-.09-.12h0s0,0,0,0,0,0,.06,0a.14.14,0,0,0,0-.12c0-.05-.11,0-.18,0a1,1,0,0,1-.06-.21,1.38,1.38,0,0,0,.41-.26.12.12,0,0,0,0-.15,1.35,1.35,0,0,0-.38-.15,2,2,0,0,1,0-.2.67.67,0,0,0,.32-.36.3.3,0,0,0,0-.24l.09-.11.26-.21.11,0h0a1.94,1.94,0,0,1-.21.4.12.12,0,0,0,0,.1s0,.05.05,0a1.32,1.32,0,0,0,.24-.43l0-.15a.25.25,0,0,0,.08-.12l.32-.21s0-.19,0-.16l-.1.07a.54.54,0,0,0,.07-.16h0c.06,0,.07-.14,0-.16h0a.37.37,0,0,0-.12-.29,1.82,1.82,0,0,0-.25-.16c0-.71.08-1.42.06-2.12.49,0,1-.08,1.45-.15a8.34,8.34,0,0,0,1.39-.33,4.31,4.31,0,0,0,1.14-.55c0,.44,0,.88,0,1.32a.44.44,0,0,0-.11.3.63.63,0,0,0,.12.36s0,0,0,0q0,.24.06.48a1.49,1.49,0,0,1-.38-.32l-.05-.07,0,0v0h0l0,0s0-.16,0-.14a.18.18,0,0,0-.09.18.41.41,0,0,0,.08.22,1.47,1.47,0,0,0,.47.4h0c.06.42.14.84.24,1.26a6.12,6.12,0,0,0,.86,2l.24.34a2,2,0,0,0-1.17-.41l-.24,0a1.11,1.11,0,0,0-.2,0c-.07,0-.09.07-.07.13a.08.08,0,0,0,0,0s0,0,0,0h0l.1,0a0,0,0,0,0,0,0l.14,0,.43.05a1.57,1.57,0,0,1,1,.41s.06,0,.06-.09l.27.35-.24,0s0,0,0,.08,0,.09,0,.08l.24,0h.11l0,0a.67.67,0,0,0-.26.13.11.11,0,0,0,0,.1s0,.08.05.06a.68.68,0,0,1,.35-.14l.47.61.06.09H20.2a2.08,2.08,0,0,0-.69.14c-.05,0,0,.19,0,.16a2,2,0,0,1,.67-.13h.29l.39.55c-.63,0-1.33-.29-1.8.22,0,0,0,.2,0,.14a1.18,1.18,0,0,1,1-.27,7,7,0,0,0,.86.07c.21.32.41.64.61,1h0l-.06,0-.17-.06c-.25-.06-.5-.1-.75-.13a4.4,4.4,0,0,0-1.33,0,1.88,1.88,0,0,0-.68.24s0,.19,0,.16a2.44,2.44,0,0,1,1.46-.25c.25,0,.51.06.76.1a3.18,3.18,0,0,1,.68.16s.13.07.17,0v0c.2.35.38.71.56,1.07l-.23-.09a7.27,7.27,0,0,0-.82-.26,6.8,6.8,0,0,0-.92-.17,2.54,2.54,0,0,0-.78,0,.51.51,0,0,0-.45.35s0,.09,0,.11.05,0,.06,0,.21-.23.36-.26a2.41,2.41,0,0,1,.75,0,7,7,0,0,1,1.7.41,3,3,0,0,1,.41.18h0s0,.17,0,.15h.06l0,.11a.33.33,0,0,0-.08.24.53.53,0,0,0,0,.1.4.4,0,0,0,0,.27c0,.09.13.09.18,0l0,0a1.43,1.43,0,0,1,.17.35l-.32-.21a4.38,4.38,0,0,0-2.63-.83,1.55,1.55,0,0,0-1,.37s0,.2,0,.14a2.08,2.08,0,0,1,1.86-.25,5.84,5.84,0,0,1,.91.3,4.11,4.11,0,0,1,.7.4l.39.25.05,0a1.92,1.92,0,0,1-.14,1,4.94,4.94,0,0,0-.87-.57,5.1,5.1,0,0,0-2.24-.56,5.34,5.34,0,0,0-1.36.16c-.06,0,0,.18,0,.17m-7.44-7.15v.06c0,.06,0,.12,0,.19s0,.13,0,.19l-.36.05a.91.91,0,0,1-.54-.11,1.07,1.07,0,0,1,1-.38m-.2.92,0,.09a1.88,1.88,0,0,1-.11.2.75.75,0,0,1-.24-.13,1.43,1.43,0,0,1,.39-.16m-.13,1.2,0,0-.23-.05.07,0,.19.07m-.45.32,0,0-.21,0a.27.27,0,0,1,0-.08.64.64,0,0,0,.21.1m-.23-.36H9.72v0l.19,0-.12.06m3.33,12.41v.06h0a3.92,3.92,0,0,1,0-.45c0,.13,0,.25,0,.38m1.41.86a1,1,0,0,1-.57.07h0a3.12,3.12,0,0,1-.43-.47,2.46,2.46,0,0,1-.13-.56,7.52,7.52,0,0,1,0-1.36c0-.44.06-.88.11-1.35s.09-.68.13-1a.67.67,0,0,0,0-.11l0-.1.21.7a16.54,16.54,0,0,1,.49,2.54c0,.34.08.67.15,1a5.83,5.83,0,0,1,.12.67h0M11,125.68s0,0,0,0l0,0v0l0,0h0v0l0-.07c0-.06,0-.09,0-.15a6.42,6.42,0,0,1-.09-.85c0-.27,0-.53,0-.8h0v-.1q0-.18,0-.36a6.68,6.68,0,0,1,.14-.68,5,5,0,0,1,.58-1.39,8.89,8.89,0,0,1,.51,2.45c0,.39.06.74.06,1.15,0,.14,0,.29,0,.43s0,.11,0,.16h0v.08c0,.06,0,.13,0,.19a4.57,4.57,0,0,1-.1.48.55.55,0,0,1-.14.1.69.69,0,0,1-.58,0l-.17-.1h0c.06-.13,0-.39-.09-.39m-1.61-3.06s0,.06,0,.08,0,.13,0,.2a14.8,14.8,0,0,1-.2,2.3c0,.11,0,.22-.06.33l-.05.13a.16.16,0,0,0-.08.11l0,.12a1.85,1.85,0,0,1-.23.34.63.63,0,0,1-.36.22,1.63,1.63,0,0,1-.22-.36A3,3,0,0,1,7.9,125a7.75,7.75,0,0,1,.52-3.08,4.8,4.8,0,0,1,.64-1.2v0a3.24,3.24,0,0,1,.12.32c0,.18.05.35.07.53,0,.34.07.68.1,1,0-.1,0,0,0,0M7.65,125l0-.07a.12.12,0,0,0-.07-.07v0a.07.07,0,0,0,.06,0l0,0c0,.06,0,.12,0,.18m15.27-5.63a.73.73,0,0,0-.14.17l.09-.21,0,0h0"/></g></g></svg>