<svg fill="none" height="41" viewBox="0 0 52 41" width="52" xmlns="http://www.w3.org/2000/svg" xmlns:xlink="http://www.w3.org/1999/xlink"><clipPath id="a"><path d="m0 0h52v41h-52z"/></clipPath><g clip-path="url(#a)"><path d="m52 20.4999c.0282-5.3141-2.0074-10.4313-5.6771-14.27177-3.6698-3.84042-8.6866-6.103612-13.9918-6.3119685-5.3051-.2083565-10.4837 1.6544185-14.4428 5.1952285-3.959 3.5408-6.3889 8.48261-6.7769 13.78261h-.0642c-2.92986 0-5.73977 1.165-7.81154 3.2387-2.07176 2.0737-3.23566 4.8862-3.23566 7.8189 0 2.9326 1.1639 5.7451 3.23566 7.8188 2.07177 2.0737 4.88168 3.2387 7.81154 3.2387h40.9528zm-50.16643 9.4425c.00243-2.4452.97393-4.7895 2.7013-6.5184 1.72738-1.729 4.0695-2.7014 6.51233-2.7039v18.4445c-2.44283-.0024-4.78495-.9748-6.51233-2.7038-1.72737-1.729-2.69887-4.0733-2.7013-6.5184zm48.33283 9.1764h-33.0042c1.8626-1.2076 3.3168-2.9508 4.1716-5.0007.8549-2.0499 1.0703-4.3106.6181-6.4853-.4521-2.1747-1.5508-4.1616-3.1517-5.6999-1.601-1.5383-3.6292-2.5561-5.8185-2.9196.3373-4.8331 2.5409-9.34507 6.1441-12.5803 3.6031-3.23524 8.3228-4.93971 13.1596-4.75245 4.8369.18726 9.411 2.25155 12.7536 5.75569 3.3427 3.50416 5.1915 8.17296 5.1549 13.01776z" fill="#000"/></g></svg>