<svg width="50" height="42" viewBox="0 0 50 42" fill="none" xmlns="http://www.w3.org/2000/svg">
<mask id="path-1-inside-1" fill="white">
<path fill-rule="evenodd" clip-rule="evenodd" d="M50.0001 19.6429V41.0714H10.7144V19.6429V17.8572H10.7944C11.6966 7.84554 20.1107 0 30.3572 0C40.6037 0 49.0178 7.84554 49.92 17.8572H50.0001V19.6429Z"/>
</mask>
<path d="M50.0001 41.0714V43.0714H52.0001V41.0714H50.0001ZM10.7144 41.0714H8.71436V43.0714H10.7144V41.0714ZM10.7144 17.8572V15.8572H8.71436V17.8572H10.7144ZM10.7944 17.8572V19.8572H12.6223L12.7864 18.0367L10.7944 17.8572ZM49.92 17.8572L47.9281 18.0367L48.0921 19.8572H49.92V17.8572ZM50.0001 17.8572H52.0001V15.8572H50.0001V17.8572ZM48.0001 19.6429V41.0714H52.0001V19.6429H48.0001ZM50.0001 39.0714H10.7144V43.0714H50.0001V39.0714ZM12.7144 41.0714V19.6429H8.71436V41.0714H12.7144ZM12.7144 19.6429V17.8572H8.71436V19.6429H12.7144ZM10.7144 19.8572H10.7944V15.8572H10.7144V19.8572ZM12.7864 18.0367C13.5965 9.04653 21.1551 2 30.3572 2V-2C19.0663 -2 9.79674 6.64456 8.8025 17.6777L12.7864 18.0367ZM30.3572 2C39.5593 2 47.1179 9.04653 47.9281 18.0367L51.9119 17.6777C50.9177 6.64456 41.6481 -2 30.3572 -2V2ZM49.92 19.8572H50.0001V15.8572H49.92V19.8572ZM48.0001 17.8572V19.6429H52.0001V17.8572H48.0001Z" fill="black" mask="url(#path-1-inside-1)"/>
<circle cx="11.6071" cy="29.4641" r="10.6071" stroke="black" stroke-width="2"/>
</svg>
