<svg xmlns="http://www.w3.org/2000/svg" viewBox="0 0 92.74 197.34"><defs><style>.cls-1{fill:#231f20;}.cls-2{fill:#fff;}</style></defs><title>moon</title><g id="Layer_2" data-name="Layer 2"><g id="Layer_1-2" data-name="Layer 1"><path class="cls-1" d="M17.27,53.69l0,0,0,.07Z"/><path class="cls-1" d="M17.62,96.68c-.82-2.53-.6-5.33-.53-7.94s0-5.23,0-7.85c0-.07.09-.14.13-.21a.79.79,0,0,0,0-.61.24.24,0,0,0-.15-.16c0-.21,0-.42,0-.63,0-3.54,0-7.08.08-10.62a.65.65,0,0,0,0-.15q0-1.18,0-2.35l.07-.08a.73.73,0,0,0,.09-.57.5.5,0,0,0-.15-.26l0-1.34,0-.05a.8.8,0,0,0,.1-.63.47.47,0,0,0-.14-.26q0-1.89.05-3.77c0-.12,0-.25,0-.37a.84.84,0,0,0,0-.2c0-3.2,0-6.4,0-9.59-.05-3.36-.25-6.72-.32-10.08s0-6.57-.09-9.86-.36-6.48-.65-9.72c-.17-1.89-.29-3.79-.29-5.69,0-1.31,0-2.61,0-3.92s-.07-2.66,0-4a9.41,9.41,0,0,1,.46-3.16,1.08,1.08,0,0,0,.07-.13,1.9,1.9,0,0,0,.15-.69,1.82,1.82,0,0,0-.24-1,2.87,2.87,0,0,0-.47-.6L15.83.1a.29.29,0,0,0-.2-.1h-.08a2.06,2.06,0,0,0-.37.1,1.66,1.66,0,0,0-.64.44.82.82,0,0,0-.16.42,1.34,1.34,0,0,0,0,.47c-1.29,5.2-.61,10.71-.31,16,.36,6.3.1,12.63.34,18.93.1,2.5.17,5,.23,7.49a.76.76,0,0,0,0,.14,1,1,0,0,0,0,.26.9.9,0,0,0,0,.24l0,.07q.11,4.75.14,9.49c-.21,0-.21.6,0,.6,0,.54,0,1.08,0,1.62,0,6.55-.11,13.1-.07,19.64q0,2.83.11,5.66c0,.22,0,.45,0,.67a.91.91,0,0,0-.06.52.79.79,0,0,0,.1.28c.06,1.3.14,2.61.12,3.91,0,.15,0,.3,0,.45a1,1,0,0,0-.06.24,1.28,1.28,0,0,0,0,.53,38.62,38.62,0,0,0-.2,7.52s0,.08,0,.12a1.25,1.25,0,0,0,0,.54.58.58,0,0,0,.18.29c0,.15.05.3.09.45s.25.45.48.25.19-.7.13-1c0-.08,0-.15,0-.23l.45-.57.42-.51h0a13.23,13.23,0,0,0,.51,2.3c.08.23.25.45.48.25a1.07,1.07,0,0,0,.13-1m-1.36-2.75a4.17,4.17,0,0,0-.5.48c-.12.13-.23.28-.34.42,0-.3-.05-.61-.06-.92a3.94,3.94,0,0,0,1-1.05c0,.33,0,.66,0,1l-.12.08m.16-15.79-.3.34a7.55,7.55,0,0,1-.6.59c0-.37,0-.74,0-1.12l.07,0,.62-.62.24-.24c0,.1,0,.19,0,.29v.82m0,1.25c0,.39,0,.78,0,1.18-.12.16-.25.32-.37.48s-.3.36-.47.52c0-.45,0-.89,0-1.34a7.52,7.52,0,0,0,.79-.74l.08-.1m-.2,10.73.15-.2c0,.43,0,.85,0,1.28a1.47,1.47,0,0,0-.16.21l0,.06v0l-.14.22.07-.11a4.24,4.24,0,0,1-.67.8c0-.49.06-1,.1-1.49a8.26,8.26,0,0,0,.74-.79m.19-1.87h0l-.17.2-.37.48c-.07.08-.15.16-.23.24,0-.32,0-.64.06-1,.14-.16.27-.32.41-.48l.31-.34c0,.29,0,.57,0,.86m0-2.39h0a.77.77,0,0,0-.21.17L16,86.2l-.3.33c0-.43,0-.87,0-1.3l0,0a.6.6,0,0,1,.06-.1h0l0-.06.16-.22.42-.57c0,.54,0,1.09,0,1.64m0-2.78a6,6,0,0,0-.69.82v0c0-.37,0-.75-.05-1.12a6.79,6.79,0,0,0,.71-.75l.1-.13c0,.37,0,.75,0,1.12l-.05,0m.05-7.21a5,5,0,0,0-.51.38c-.16.13-.3.28-.44.43,0-.22,0-.44,0-.66l.51-.6.46-.58c0,.34,0,.68,0,1m0-2.06h0a4.6,4.6,0,0,0-.71.71l-.26.3c0-.41,0-.82,0-1.23A5.27,5.27,0,0,0,16,73l.47-.61c0,.48,0,1,0,1.44m0-2.48h0a2.59,2.59,0,0,0-.7.72l-.26.34c0-.53,0-1.07,0-1.6a10.32,10.32,0,0,1,.73-.85l.29-.31c0,.57,0,1.13,0,1.69m0-2.83-.57.56-.47.5c0-.45,0-.9,0-1.35l.83-1,.21-.24c0,.5,0,1,0,1.5m0-2.72c-.16.18-.32.37-.48.56l-.58.69V65.67a8.25,8.25,0,0,1,.73-.79l.34-.31q0,.6,0,1.21m0-2.48-.07.06c-.19.16-.38.33-.56.51s-.3.31-.44.47c0-.33,0-.67,0-1a6.78,6.78,0,0,0,.83-.74l.25-.3c0,.33,0,.67,0,1m0-2.56-.11.1-.35.37q-.3.32-.63.62,0-.45,0-.9c.34-.39.73-.73,1.1-1.09,0,.3,0,.6,0,.91m0-2.24-.14.12-.5.45-.47.44q0-.51,0-1v-.22a6.94,6.94,0,0,0,1.12-1.06V58.5m0-2.44-.39.4c-.21.21-.41.42-.63.61l-.1.08c0-.2,0-.4,0-.6a6.44,6.44,0,0,0,.59-.52l.34-.37.16-.19,0-.07c0,.22,0,.44,0,.66m-.06-1.88a.43.43,0,0,0-.14,0,1,1,0,0,0-.12.1,1.38,1.38,0,0,0-.14.15l-.29.31c-.12.13-.25.25-.38.37,0-.13,0-.26,0-.4a.54.54,0,0,0,.11-.14l.12-.2c.16-.24.34-.46.5-.71l.07-.12a1.12,1.12,0,0,0,.1-.33.94.94,0,0,0,0-.41l0-.11a.31.31,0,0,0-.12-.14.24.24,0,0,0-.25,0l-.12.08a1.54,1.54,0,0,0-.18.17l-.11.13-.06.09c0-.25,0-.51,0-.76l0-.07a2.62,2.62,0,0,0,.38-1,.83.83,0,0,0,0-.29.45.45,0,0,0-.09-.21.18.18,0,0,0-.11-.06c-.07,0-.14.08-.16.13l-.07.17c0-.21,0-.42,0-.62l.27-.35.16-.21c.08-.1.14-.21.21-.32l0-.11a.67.67,0,0,0,0-.19.91.91,0,0,0,0-.33.57.57,0,0,0-.09-.19.16.16,0,0,0-.2-.05l-.09.05a1.24,1.24,0,0,0-.15.13l-.16.15c0-.25,0-.49,0-.74h0l.11-.17-.06.1.11-.16.12-.17a.69.69,0,0,0,.13-.33,1.12,1.12,0,0,0,0-.36.43.43,0,0,0,0-.12.4.4,0,0,0-.08-.14l-.07-.06a.15.15,0,0,0-.15,0l-.1.05c0-.09,0-.18,0-.27l.18-.23.13-.18.07-.1a.78.78,0,0,0,.09-.15l0-.07a1.2,1.2,0,0,0,.08-.26,1.13,1.13,0,0,0,0-.39.69.69,0,0,0-.09-.24s-.11-.15-.18-.13h0l-.11,0a.55.55,0,0,0-.09.08l0,0,0,0,0,0c0-.21,0-.42,0-.62l.1-.12a1.54,1.54,0,0,0,.13-.23l.09-.23a1.72,1.72,0,0,0,.06-.26v-.14s0-.1,0-.14a.69.69,0,0,0-.1-.28.16.16,0,0,0-.06-.07.09.09,0,0,0-.07,0,.07.07,0,0,0-.07,0,.14.14,0,0,0-.1.06h0c0-.28,0-.56,0-.84l0,0a.27.27,0,0,0,.05-.1.43.43,0,0,0,0-.13.57.57,0,0,0,0-.15.5.5,0,0,0,0-.14l0-.08a.22.22,0,0,0-.09-.1h0c0-.76,0-1.52-.06-2.27-.13-3.28-.24-6.57-.27-9.85s0-6.29-.08-9.43-.38-6-.49-9.06a30,30,0,0,1,.73-9.14,1.56,1.56,0,0,1,.33-.15l.11,0a3.16,3.16,0,0,1,.29.32,1,1,0,0,0-.09.29s0,0,0,.07A18.43,18.43,0,0,0,15.26,8c0,2.61,0,5.23.06,7.84.14,3.36.63,6.7.79,10.06s.13,6.73.15,10.09.22,6.85.31,10.27c.07,2.64.08,5.28.08,7.92,0,0,0,0-.06,0"/><path class="cls-2" d="M29.46,91S4.91,96.89,1.59,124.51,20,163.12,20,163.12s17.59,10.77,39-1.24c0,0,14.31-7,15.92-14.81,0,0-18.55,9.55-39.34-3,0,0-11.13-4.83-12.62-25.6C22.91,118.51,23.58,95.71,29.46,91Z"/><path class="cls-1" d="M50.18,134.68c-.06,0-.06.16,0,.16s.06-.16,0-.16"/><path class="cls-1" d="M17.06,114.5h0v0"/><path class="cls-1" d="M8.86,124.93h0"/><path class="cls-1" d="M8.81,125.28h0v0h0"/><path class="cls-1" d="M10.61,124.68h0v0"/><path class="cls-1" d="M8.8,125.16h0v0h0"/><path class="cls-1" d="M10.58,124.91v0h0v0"/><path class="cls-1" d="M8.83,125.33h0"/><path class="cls-1" d="M8.81,125.1h0"/><path class="cls-1" d="M41.35,156.14a1.64,1.64,0,0,0-.42-1,1.49,1.49,0,0,0-1.62-.31.94.94,0,0,0-.53.54,1.14,1.14,0,0,0,.13.93l0,0a1.57,1.57,0,0,0,.62.76,1.27,1.27,0,0,0,1.54,0,1.21,1.21,0,0,0,.25-.94m-.18.25a.61.61,0,0,1-.09.28c-.26.41-.87.35-1.26.18a1.47,1.47,0,0,1-.61-.48.25.25,0,0,0,0-.15l-.11-.15a1.1,1.1,0,0,1,0-.56.36.36,0,0,0,0-.15.84.84,0,0,1,.19-.14,1.39,1.39,0,0,1,1.4.09,1.17,1.17,0,0,1,.46.67,1.36,1.36,0,0,1,0,.21,1.22,1.22,0,0,1,0,.2"/><path class="cls-1" d="M18.56,104.64c0-.07-.09-.06-.13,0a3.05,3.05,0,0,0-.23.5c-.08.2-.15.4-.21.6a.29.29,0,0,0,0,.25c.06.06.11,0,.13-.07s.12-.37.19-.54l.06-.13h0s.07-.07.07-.11V105a.41.41,0,0,1,0-.12.3.3,0,0,0,0-.26"/><path class="cls-1" d="M20.62,104.89A2.76,2.76,0,0,0,19.24,103a2.3,2.3,0,0,0-2.51.34,2.15,2.15,0,0,0-.49,2,1.8,1.8,0,0,0,1.19,1.48,1.36,1.36,0,0,0,.52,0c.06,0,.09-.08.09-.16a3.11,3.11,0,0,0,1.54.13,1.38,1.38,0,0,0,.93-.55,1.71,1.71,0,0,0,.13-1.38m-.19,1a1.12,1.12,0,0,1-.73.53l-.25,0a2.27,2.27,0,0,0,.35-.83.22.22,0,0,0,0-.2c-.05,0-.09,0-.1.07a3.19,3.19,0,0,1-.22.53,2.3,2.3,0,0,1-.34.46,3,3,0,0,1-.5,0,.14.14,0,0,0,0-.05,4.11,4.11,0,0,1,.21-.68s0,.11.06.13.07-.06.07-.1a1.83,1.83,0,0,1,.07-.47.32.32,0,0,0,0-.26c0-.07-.09-.06-.13,0a4.13,4.13,0,0,0-.44,1.2.34.34,0,0,0,0,.22,3.43,3.43,0,0,1-1-.38l0,0a6.86,6.86,0,0,1,.27-.67l.15-.34,0-.07s0,.08.07.07.06-.1.06-.14,0-.12,0-.18a.89.89,0,0,0,0-.23c0-.08-.09-.12-.14,0s-.09.23-.14.35l-.16.35a7.07,7.07,0,0,0-.29.72v.06a2.05,2.05,0,0,1-.26-.22c.08-.21.17-.41.27-.61l.17-.36.06-.12v0h0v0l0-.07s0-.29-.09-.23-.1.13-.14.2l-.17.37c-.1.23-.2.45-.3.68a1.17,1.17,0,0,1-.09-.14.86.86,0,0,1-.06-.18.81.81,0,0,1,0-.15,1,1,0,0,1,.16-.45,2,2,0,0,1,.2-.25c.08-.08,0-.44-.09-.32a1.4,1.4,0,0,0,.17,2.2,2.81,2.81,0,0,0,.4.26,1.71,1.71,0,0,1-.87-2.55,2.09,2.09,0,0,1,2.16-.65,2.33,2.33,0,0,1,1.57,1.54,2.17,2.17,0,0,1,.15.65.87.87,0,0,1-.09.44"/><path class="cls-1" d="M14.67,114a5.92,5.92,0,0,0-.78.58A2.84,2.84,0,0,1,13,115c-.11,0-.09.4,0,.36a2.83,2.83,0,0,0,.85-.48l.49-.37a.23.23,0,0,0,0,0s.06.08.09,0a1.56,1.56,0,0,0,.24-.38c0-.05,0-.33-.1-.27"/><path class="cls-1" d="M16.79,112.73a2.91,2.91,0,0,0-1.7-.67,3.58,3.58,0,0,0-2.06.47.67.67,0,0,0-.19.52,4.2,4.2,0,0,0-.53,3.36,2.51,2.51,0,0,0,2,2c1.28.11,2.37-1.09,2.89-2.13a2.93,2.93,0,0,0-.46-3.52m.28,2s0,.08,0,.1v.08h0c0,.07,0,.15-.06.22l0,.07,0,0-.09.18a3.39,3.39,0,0,1-.23.39,4.54,4.54,0,0,1-.63.74c0-.05,0-.1-.08-.11s-.13.1-.17.14l-.14.17-.2.24a1.94,1.94,0,0,1-.68.23,1.74,1.74,0,0,1-.35,0,4.2,4.2,0,0,0,.41-.35,5,5,0,0,0,.45-.51h0l0,0,.07,0a.25.25,0,0,0,.06-.31.11.11,0,0,0-.09-.06c-.06,0-.09,0-.13.07l-.19.23a4.18,4.18,0,0,1-.9.8.17.17,0,0,0-.06.13,1.69,1.69,0,0,1-.41-.18l-.19-.13c.22-.18.44-.38.66-.55a2.79,2.79,0,0,1,.45-.3l.16-.07a.23.23,0,0,1,.11,0c.05,0,.08,0,.09-.08a.23.23,0,0,0,0-.18.26.26,0,0,0-.34,0,2.28,2.28,0,0,0-.45.29c-.3.23-.57.49-.88.72h0a2.23,2.23,0,0,1-.17-.23v0a3.29,3.29,0,0,0,.62-.4c.26-.2.51-.41.77-.61l.13-.11,0,0s0,0,0,0,.08,0,.09-.09a.24.24,0,0,0,0-.19c0-.06-.14,0-.19,0a1.85,1.85,0,0,0-.32.24,10.06,10.06,0,0,1-.87.66,1.7,1.7,0,0,1-.4.2v0l0-.06,0-.09,0-.18,0-.09c0-.07,0-.13,0-.2,0,.15,0-.06,0-.1s0-.17,0-.15,0-.1,0-.15l0-.11v0s0,.06.09,0a6.93,6.93,0,0,0,1-.56c.16-.09.32-.19.49-.27l.21-.09.16-.07c.09,0,.07-.26,0-.28a.27.27,0,0,0-.17,0l-.21.09c-.17.08-.33.18-.5.27a7.7,7.7,0,0,1-1,.54,2.08,2.08,0,0,1,.08-.2,3.51,3.51,0,0,1,.44-.71l.67-.21.46-.12.15-.05.05,0h0s.05,0,.06-.07a2.82,2.82,0,0,1,1.35.29,2,2,0,0,1,.5.35,2,2,0,0,1,.19.22l0,.05,0,0,.08.15,0,.08,0,.14v.14a1.26,1.26,0,0,0,0,.13"/><path class="cls-1" d="M5.66,135.91a3.13,3.13,0,0,0-.92,1.1,6.51,6.51,0,0,0-.67,1.43.28.28,0,0,0,0,.25c.06.06.11,0,.13-.07a6.15,6.15,0,0,1,.62-1.32,4.43,4.43,0,0,1,.67-.91l0,.08s0,.13,0,.16.08,0,.09-.06a4,4,0,0,0,.13-.47s0-.27-.1-.21"/><path class="cls-1" d="M6.35,136a17.89,17.89,0,0,0-2.27,3.44c-.06.1,0,.44.13.26a31.19,31.19,0,0,1,1.91-3c0,.05,0,.09.08,0a1,1,0,0,0,.28-.51c0-.07,0-.31-.13-.21"/><path class="cls-1" d="M7.44,136.47a10.58,10.58,0,0,0-2.88,4.2.31.31,0,0,0,0,.26c0,.06.1.08.13,0a11.91,11.91,0,0,1,1.18-2.23A9.17,9.17,0,0,1,7.29,137c0,.09.07.22.12.1a2.28,2.28,0,0,0,.13-.37s0-.36-.1-.27"/><path class="cls-1" d="M8.25,138.29a8.64,8.64,0,0,0-1.61,2.12c-.45.78-.85,1.59-1.26,2.39a.3.3,0,0,0,0,.26c0,.06.09.07.13,0a17,17,0,0,1,2.67-4.31c0,.1,0,.2-.07.3a.23.23,0,0,0,0,.19s.07,0,.09,0a1.92,1.92,0,0,0,.15-.79c0-.07,0-.24-.14-.16"/><path class="cls-1" d="M12.23,142a.27.27,0,0,0-.16.06,1,1,0,0,0-.14.14,2.87,2.87,0,0,0-.26.42c-.17.31-.3.63-.45.94a.31.31,0,0,0,0,.26c0,.07.1.07.13,0,.15-.3.28-.6.43-.9a2.72,2.72,0,0,1,.24-.38l.12-.14.13-.13s.06-.27,0-.26"/><path class="cls-1" d="M46.69,149.94h0s0,0,0-.05a.34.34,0,0,0,0-.12c-.06-.11-.13,0-.17,0a1.63,1.63,0,0,0-.11.4c0,.14,0,.28-.06.42a4.3,4.3,0,0,0,.14,1.73c0,.06.07.12.13.07a.29.29,0,0,0,0-.25,3.42,3.42,0,0,1-.14-1.09,4.32,4.32,0,0,1,0-.56c0-.09,0-.18,0-.26l0-.08,0,0c.1.06.1-.2.07-.27"/><path class="cls-1" d="M47.38,152.5a4.09,4.09,0,0,1-.12-1.06,10.29,10.29,0,0,0,0-1.09s0-.13-.08-.13-.08.09-.08.13,0,.39,0,.58,0,.4,0,.6a4.68,4.68,0,0,0,.14,1.17c0,.06.07.12.13.07a.29.29,0,0,0,0-.25"/><path class="cls-1" d="M48.11,151.46c0-.21,0-.42,0-.63s0-.18,0-.27a.84.84,0,0,0,0-.25c0-.07-.08-.12-.13,0a1.09,1.09,0,0,0,0,.52c0,.22,0,.44.05.67a9.61,9.61,0,0,1,.05,1.35c0,.05,0,.18.09.18s.09-.13.09-.18a9.74,9.74,0,0,0-.05-1.36"/><path class="cls-1" d="M49.14,152.95a5.82,5.82,0,0,1-.31-1.41c0-.23,0-.45,0-.68v-.09h0c.13,0,.12-.25,0-.31s-.13-.1-.2-.05-.07.19-.06.27,0,.18,0,.28,0,.27,0,.41a6,6,0,0,0,.35,1.77c0,.06.07.12.13.07a.28.28,0,0,0,0-.25"/><path class="cls-1" d="M49.81,153.54a13.09,13.09,0,0,0-.21-1.37c0-.22-.08-.45-.1-.67s0-.48,0-.7-.11-.17-.15,0a2.13,2.13,0,0,0,0,.74c0,.23.06.47.1.7a14.4,14.4,0,0,1,.22,1.45c0,.05,0,.16.11.13s.07-.17.06-.23"/><path class="cls-1" d="M51.24,153.17c-.12-.39-.18-.8-.26-1.2a5.84,5.84,0,0,0-.14-.59c0-.11-.09-.35-.22-.37s-.08.19-.07.23.11.26.15.39.09.36.13.54a11.35,11.35,0,0,0,.26,1.17c0,.06.07.12.13.07a.29.29,0,0,0,0-.25"/><path class="cls-1" d="M51.79,153.06l-.21-.88c-.08-.34-.16-.67-.22-1l0-.09a.3.3,0,0,0,0-.16s-.06-.1-.11-.06-.06.14-.06.2a2,2,0,0,0,.06.41c.09.42.19.84.29,1.26l.12.49c0,.06.07.12.13.07a.29.29,0,0,0,0-.25"/><path class="cls-1" d="M22.19,119.42a11.69,11.69,0,0,0-2.95,2c-1,.76-2,1.41-3,2.12a17.58,17.58,0,0,0-1.64,1.28c-.09.08,0,.43.09.32a27,27,0,0,1,3-2.18c.5-.34,1-.68,1.48-1.05s.91-.75,1.39-1.11a7,7,0,0,1,1.72-1c.11,0,.08-.41,0-.35"/><path class="cls-1" d="M29.17,138.68a1.83,1.83,0,0,0-.39.36l-.42.41c-.31.3-.63.6-.93.92a10.22,10.22,0,0,0-1.61,2c-.05.09,0,.4.12.24a10,10,0,0,1,1.61-2c.3-.3.6-.6.91-.89l.41-.39a2.12,2.12,0,0,0,.37-.41s0-.31-.07-.25"/><path class="cls-1" d="M30.54,140.37a1.13,1.13,0,0,0-.59.34,6,6,0,0,0-.59.59,12.58,12.58,0,0,0-1,1.3.3.3,0,0,0,0,.25s.08.14.13.07a12.69,12.69,0,0,1,1-1.27,6.08,6.08,0,0,1,.58-.59l.28-.21c.09-.06.19-.11.28-.18s.1-.31,0-.31"/><path class="cls-1" d="M32.22,142.07s0-.11-.08-.1-.13.09-.18.14l-.17.19c-.11.14-.22.28-.33.42a3.79,3.79,0,0,0-.49.92.28.28,0,0,0,0,.25c.06.06.11,0,.13-.07a3.33,3.33,0,0,1,.45-.83c.09-.13.19-.25.29-.38l.16-.18a.74.74,0,0,0,.16-.2.3.3,0,0,0,0-.18"/><path class="cls-1" d="M38.28,147s0-.12-.09-.1a1.56,1.56,0,0,0-.54.37,6.27,6.27,0,0,0-.5.51c-.31.35-.6.72-.93,1.06-.07.07,0,.37.08.27.32-.32.61-.68.91-1a6.58,6.58,0,0,1,.48-.49c.15-.13.31-.25.47-.37a.55.55,0,0,0,0,.08s0,.1.07.08,0-.11,0-.14,0-.16,0-.24"/><path class="cls-1" d="M41,149c-.05,0-.06.16,0,.16s.06-.16,0-.16"/><path class="cls-1" d="M41.89,149c-.06,0-.06.16,0,.16s.06-.16,0-.16"/><path class="cls-1" d="M43,149.12c-.06,0-.06.16,0,.16s.06-.16,0-.16"/><path class="cls-1" d="M22.65,112.66a.61.61,0,0,0-.2.14l-.29.3-.71.74-.35.33c-.09.08,0,.43.09.32.47-.41.87-.88,1.31-1.32.09-.09.13-.14.2-.23s.06-.31-.06-.27"/><path class="cls-1" d="M12.65,153.07c-.19-1.55-.26-3.12-.44-4.68,0,0,.09-.11.08-.18a1.48,1.48,0,0,0-.21-.59c-.09-.13-.14.16-.13.21.23,1.77.32,3.56.53,5.34,0,.06,0,.15.11.13s.07-.17.06-.23"/><path class="cls-1" d="M14.14,154.3a17.43,17.43,0,0,1-.32-2.9c0-.47-.07-.93-.13-1.4q0-.34-.12-.67l0-.08a.34.34,0,0,0,0-.15h0l0,0h0l0-.07a.47.47,0,0,0-.09-.16c-.08-.08-.13.05-.14.11a.31.31,0,0,0,0,.22.42.42,0,0,1,0,.14c0,.11.06.23.08.34s.08.46.11.68c.06.46.09.93.12,1.39a16.14,16.14,0,0,0,.32,2.76c0,.06.07.12.13.07s0-.18,0-.25"/><path class="cls-1" d="M24.56,161.7a38.08,38.08,0,0,1-1.31-4.35.19.19,0,0,0,0-.1,3.81,3.81,0,0,0-.2-1,.06.06,0,0,0-.11,0c-.05,0,0,.15,0,.21a27.25,27.25,0,0,0,1.49,5.45c0,.06.07.12.13.07a.28.28,0,0,0,0-.25"/><path class="cls-1" d="M27.21,163.06a7.83,7.83,0,0,1-.64-1.44c-.1-.26-.19-.51-.27-.77l-.09-.27a.32.32,0,0,0,0-.07l0,0v0c0-.12-.11,0-.12.1a.34.34,0,0,0,0,.1h0a.52.52,0,0,0,0,.12c0,.09.05.19.08.28.09.26.18.53.28.79a8.19,8.19,0,0,0,.66,1.49c.11.18.19-.16.13-.26"/><path class="cls-1" d="M28.27,163.56c-.1-.35-.2-.71-.31-1.06-.06-.17-.12-.34-.19-.51s-.12-.36-.26-.44-.08.17-.08.2a3,3,0,0,0,.2.5c.07.16.12.32.18.49.11.33.19.67.29,1,0,.06.07.12.13.07a.29.29,0,0,0,0-.25"/><path class="cls-1" d="M9.32,149c-.06,0-.06.16,0,.16s.06-.16,0-.16"/><path class="cls-1" d="M13.65,103.46c-.08-.17-.28-.06-.4,0a5.83,5.83,0,0,0-.76.53,15.35,15.35,0,0,0-1.76,1.62,3.19,3.19,0,0,0-.52.68,3.72,3.72,0,0,0-1.3,1.44.27.27,0,0,0,0,.24c0,.05.09.07.12,0a4.1,4.1,0,0,1,1.86-1.72c.39-.21.79-.4,1.19-.58a4.73,4.73,0,0,0,1.1-.59c.06,0,.05-.29-.06-.26a3.74,3.74,0,0,0-.57.26l-.6.29c-.38.18-.77.36-1.14.57.22-.24.45-.46.69-.68a12,12,0,0,1,1.64-1.33,2.24,2.24,0,0,1,.3-.17l.1,0s0,0,0,0,.11-.17.09-.22"/><path class="cls-1" d="M12.21,106.66a2.5,2.5,0,0,0-.65.23q-.35.15-.68.33a11.09,11.09,0,0,0-1.28.81,8.43,8.43,0,0,0-2.07,2.1.28.28,0,0,0,0,.23s.07.13.12.06a8.26,8.26,0,0,1,2.06-2.07,11.11,11.11,0,0,1,1.25-.79l.65-.33a6,6,0,0,0,.64-.3c.06,0,.08-.3,0-.29"/><path class="cls-1" d="M8.53,113.51c-.52-.2-1.16.27-1.55.56a9.94,9.94,0,0,0-1.55,1.47,6.73,6.73,0,0,0-.55.71.3.3,0,0,0,0,.25s.08.14.13.07a8.46,8.46,0,0,1,1.11-1.32A6.57,6.57,0,0,1,7.69,114a2.08,2.08,0,0,1,.82-.23c.09,0,.09-.23,0-.26"/><path class="cls-1" d="M7.47,115.59a2.44,2.44,0,0,0-.85.41,6.07,6.07,0,0,0-.78.6,5.41,5.41,0,0,0-1.21,1.56.29.29,0,0,0,0,.25c0,.06.09.07.12,0a5.21,5.21,0,0,1,1.16-1.48,6,6,0,0,1,.76-.58c.27-.17.57-.3.82-.49.05,0,.08-.28,0-.26"/><path class="cls-1" d="M6.29,117.33a1.28,1.28,0,0,0-.34.2l-.3.23a5.37,5.37,0,0,0-.52.48,11.49,11.49,0,0,0-.94,1.18.24.24,0,0,0,0,.2s.06.11.1.05a10.56,10.56,0,0,1,.94-1.15,6.05,6.05,0,0,1,.51-.47l.31-.23a2.5,2.5,0,0,0,.33-.25s.05-.27-.05-.24"/><path class="cls-1" d="M5.5,119.29a.69.69,0,0,0-.46.11,2.59,2.59,0,0,0-.52.41,3.74,3.74,0,0,0-.82,1.11.31.31,0,0,0,0,.26c0,.06.1.07.13,0a3.54,3.54,0,0,1,.76-1,3.07,3.07,0,0,1,.48-.39,1.34,1.34,0,0,1,.43-.2c.09,0,.09-.24,0-.26"/><path class="cls-1" d="M4.52,121.18s-.07-.1-.11,0c-.16.22-.32.45-.47.68a.3.3,0,0,0,0,.25.14.14,0,0,0,.05.08.06.06,0,0,0,.07,0c.16-.24.32-.49.47-.74a.27.27,0,0,0,0-.22"/><path class="cls-1" d="M18.92,137.76c-.11-.05-.24,0-.33.09s-.38.24-.56.36c-.46.32-.91.65-1.36,1l-.56.4c-.1.07-.06.43,0,.36.81-.54,1.55-1.17,2.38-1.67l.24-.13.08,0,0,0c.1,0,.11-.27,0-.31"/><path class="cls-1" d="M19.9,138.41a1.13,1.13,0,0,0-.32.21l-.3.25-.64.54a6.12,6.12,0,0,1-1.33.92c-.11.05-.08.41,0,.36a6.2,6.2,0,0,0,1.35-.93l.64-.54a6,6,0,0,0,.62-.51c.05-.06.06-.33-.06-.29"/><path class="cls-1" d="M22.38,138.63a1.6,1.6,0,0,0-.91-.47,1.06,1.06,0,0,0-.88.27.92.92,0,0,0-.21.17,1.17,1.17,0,0,0-.25.75,1.63,1.63,0,0,0,.08.49h0L20,140c-.16.11-.32.22-.47.34-.31.24-.6.49-.9.74a.25.25,0,0,0-.06.23s0,.18.11.13c.3-.25.59-.5.9-.74.15-.12.31-.23.47-.34s.21-.13.31-.2a1.54,1.54,0,0,0,.52.58l-.24.13a3.81,3.81,0,0,0-.55.41c-.09.08,0,.43.09.32a3.5,3.5,0,0,1,.51-.38c.18-.11.39-.18.57-.28l0,0a1.39,1.39,0,0,0,1.22-.47,1.29,1.29,0,0,0-.1-1.78M22.5,140a1.14,1.14,0,0,1-1.93.11,1.36,1.36,0,0,1-.17-.29.83.83,0,0,1,0-.12.76.76,0,0,1,0-.14v-.09s0-.06,0-.07v0s0,0,0,0v-.1s0,0,0-.05v0h0a.72.72,0,0,1,.07-.13,1,1,0,0,1,.71-.36s.06,0,.08-.08h.1a1.38,1.38,0,0,1,.75.25,1.31,1.31,0,0,1,.49.59l0,.06a.36.36,0,0,1,0,.08s0,.09,0,.06,0,0,0,0v0a.68.68,0,0,1-.11.32"/><path class="cls-1" d="M22,141.2a.58.58,0,0,0-.23.14l-.34.24a5,5,0,0,1-.75.41c-.11,0-.08.41,0,.36a5,5,0,0,0,.76-.42l.33-.24a.61.61,0,0,0,.23-.29s0-.21-.06-.2"/><path class="cls-1" d="M22.75,142.1a.13.13,0,0,0-.07-.09h0s0,0,0,0h0l-.11,0-.11.05c-.18.09-.36.19-.54.27,0,0,0,.06-.05.09a.33.33,0,0,0,0,.14c0,.05,0,.16.11.13s.35-.17.52-.26l.2-.09s.06,0,.05,0h0l.05,0a.21.21,0,0,0,0-.19"/><path class="cls-1" d="M23.08,142.8a.76.76,0,0,0-.59.06c-.08,0-.06.32,0,.27a1.09,1.09,0,0,1,.26-.09l.28,0s0-.06.05-.09,0-.1,0-.12"/><path class="cls-1" d="M23,143.57c-.06,0-.06.16,0,.16s.06-.16,0-.16"/><path class="cls-1" d="M23.85,144.42a.35.35,0,0,0-.22-.31s-.05,0-.06.07,0,.11,0,.12a.25.25,0,0,1,.12.07l0,.05h0v0h0v0h0s0,0,0,0h0a.37.37,0,0,1,0,.08l0,.08a.54.54,0,0,0-.05.11.19.19,0,0,0,0,.13s0,0,.07,0a.36.36,0,0,0,.06-.15l0-.12a.79.79,0,0,0,0-.25"/><path class="cls-1" d="M24.22,96.9a1.24,1.24,0,0,0-.58-.35,4.93,4.93,0,0,0-.92-.22,8.61,8.61,0,0,0-2.07-.08,3.09,3.09,0,0,0-.85.17c-.11,0-.08.41,0,.36a4.44,4.44,0,0,1,1.65-.18,7,7,0,0,1,2,.27,1.86,1.86,0,0,1,.68.35c.13.12.15-.23.09-.31"/><path class="cls-1" d="M24.62,95.77a4.36,4.36,0,0,0-3.22-.29c-.13,0-.11.4,0,.37a4.46,4.46,0,0,1,2.89.14.22.22,0,0,0,0,.08.2.2,0,0,0,.3.05c.09-.06.1-.3,0-.36"/><path class="cls-1" d="M25.38,94.82a3.83,3.83,0,0,0-2.71-.36c-.11,0-.09.41,0,.36A3.29,3.29,0,0,1,25,95a.72.72,0,0,0,.37.14c.12,0,.12-.32,0-.36"/><path class="cls-1" d="M59.63,151.18c0-.05,0-.18-.09-.18s-.09.13-.09.18a7.93,7.93,0,0,1-1.15,3.39c0,.07,0,.42.11.29a3,3,0,0,0,.21-.24.42.42,0,0,0,0-.21,7.47,7.47,0,0,0,1-3.23"/><path class="cls-1" d="M60.73,151.21c0-.06-.1-.07-.13,0a7.31,7.31,0,0,0-.37,1.3,2.93,2.93,0,0,1-.31.82s-.06-.08-.09,0a1.36,1.36,0,0,0-.19.23.52.52,0,0,0,0,.33c0,.07.05.18.14.11.72-.61.63-1.7,1-2.5a.31.31,0,0,0,0-.26"/><path class="cls-1" d="M61.91,151.1c-.06-.06-.1,0-.13.07a5.93,5.93,0,0,0-.23,1,2.48,2.48,0,0,1-.12.45,1.35,1.35,0,0,1-.26.39.26.26,0,0,0,0,.21s0,.13.1.1a.81.81,0,0,0,.3-.38,2.61,2.61,0,0,0,.17-.54,6.87,6.87,0,0,1,.24-1.07.28.28,0,0,0,0-.25"/><path class="cls-1" d="M63,151.33c-.07,0-.11.08-.11.13a6.14,6.14,0,0,1-.3,1.14.29.29,0,0,0,0,.24c0,.05.09,0,.12,0a.59.59,0,0,1,.12-.13.24.24,0,0,0,0-.18.25.25,0,0,0,0-.09,4.48,4.48,0,0,0,.2-.86c0-.07,0-.19-.06-.23"/><path class="cls-1" d="M64.06,151.16c-.07,0-.11.08-.11.13s-.06.36-.1.54,0,.17,0,.25a.46.46,0,0,0,0,.26.07.07,0,0,0,.06,0h0l0,0h0a.52.52,0,0,0,0-.11c0-.09,0-.19.06-.29s.07-.36.1-.54,0-.19-.06-.23"/><path class="cls-1" d="M65,151.08c-.07,0-.11.08-.11.13a6,6,0,0,1-.19.79,2.37,2.37,0,0,0-.07.44c0,.12,0,.33.09.41s.09-.08.09-.1a.8.8,0,0,0,0-.19.91.91,0,0,1,0-.15,2.43,2.43,0,0,1,.07-.34,4.88,4.88,0,0,0,.18-.76c0-.06,0-.19-.06-.23"/><path class="cls-1" d="M66.2,151.13c0-.06-.1-.08-.13,0a16.45,16.45,0,0,0-.52,1.78c-.09.32-.18.64-.3,1a2,2,0,0,1-.28.57c0,.05-.06.3.06.27s.27-.34.33-.49c.13-.32.22-.65.32-1a17.88,17.88,0,0,1,.53-1.84.31.31,0,0,0,0-.26"/><path class="cls-1" d="M67.39,150.78c-.06-.06-.11,0-.13.07a13.88,13.88,0,0,0-.56,2.32.67.67,0,0,0,0,.17c0,.05,0,.17.08.18s.09-.08.1-.13v-.08l0,0,.08-.13a.25.25,0,0,0,0-.2.09.09,0,0,0-.05-.05,13.92,13.92,0,0,1,.48-1.85.28.28,0,0,0,0-.25"/><path class="cls-1" d="M68.16,150.7c0-.06,0-.18-.09-.18s-.09.14-.09.18a7.2,7.2,0,0,1-.29,1.44l0,.05c0,.07,0,.21.05.26s.12-.06.14-.16h0s0,0,0,0h0l0-.05a.34.34,0,0,0,0-.09l.11-.42a4.26,4.26,0,0,0,.15-1"/><path class="cls-1" d="M69.83,151.1h0s0,0,0,0"/><path class="cls-1" d="M70.61,150.5h0v0s0,0,0,0"/><path class="cls-1" d="M71.51,149.36s0-.06-.07-.05-.09.13-.09.18,0,.14,0,.21a1.74,1.74,0,0,0,0,.24.2.2,0,0,0,0,.08s0,0,0,0,.07-.07.07-.11a1.78,1.78,0,0,0,0-.24c0-.07,0-.14,0-.21a.3.3,0,0,0,0-.13"/><path class="cls-1" d="M72.08,149.51h0"/><path class="cls-1" d="M42.37,159.34a1.11,1.11,0,0,1-.07-.27c0-.16,0-.32-.05-.48,0-.37,0-.75,0-1.12,0-.06,0-.18-.09-.18s-.09.14-.09.18c0,.42,0,.84,0,1.26a3.59,3.59,0,0,0,.07.52.59.59,0,0,0,.14.31c.1.09.11-.17.08-.21"/><path class="cls-1" d="M43.74,159s-.06,0-.08,0-.16.26-.24.38a5.52,5.52,0,0,0-.23-1.77c0-.06-.07-.12-.13-.07a.29.29,0,0,0,0,.25,5.22,5.22,0,0,1,.18,2c0,.06,0,.17.05.21s.1,0,.11-.07a5.17,5.17,0,0,1,.37-.74.19.19,0,0,0,0-.17"/><path class="cls-1" d="M44.29,159.9c-.1,0-.1-.17-.11-.26a5.36,5.36,0,0,1,0-.61,4.78,4.78,0,0,0-.17-1.46c0-.06-.07-.12-.13-.07a.28.28,0,0,0,0,.25,5.09,5.09,0,0,1,.15,1.5c0,.18,0,1,.33.91.1,0,.09-.25,0-.27"/><path class="cls-1" d="M45.33,159.93a3.67,3.67,0,0,1-.37-1.18,6.17,6.17,0,0,1,0-1.24c0-.06,0-.2-.06-.23s-.11.08-.11.13a7,7,0,0,0,0,1.45,2.37,2.37,0,0,0,.47,1.28c.09.1.1-.17.08-.21"/><path class="cls-1" d="M46.54,160c0-.26-.11-.52-.14-.78s0-.49-.05-.73a7.17,7.17,0,0,0-.2-1.5c0-.06-.07-.12-.13-.07s-.05.19,0,.25a7.45,7.45,0,0,1,.19,1.54,3.93,3.93,0,0,0,.23,1.43c.07.14.14-.08.13-.15"/><path class="cls-1" d="M47.89,159.34a3.53,3.53,0,0,1-.28-.66,3,3,0,0,1-.1-.64c0-.46,0-.91,0-1.37,0-.05,0-.18-.09-.18s-.09.13-.09.18c0,.51-.05,1,0,1.53a2.24,2.24,0,0,0,.47,1.35c.09.1.11-.17.08-.22"/><path class="cls-1" d="M50.27,159.37a6.48,6.48,0,0,1-.21-.92,3.2,3.2,0,0,1,0-.93c0-.06,0-.2-.06-.23s-.1.08-.11.13a3.87,3.87,0,0,0,0,1.12,3.65,3.65,0,0,0,.1.54,1.52,1.52,0,0,0,.19.48s.07,0,.09,0a.25.25,0,0,0,0-.17"/><path class="cls-1" d="M51.82,158.53a1.75,1.75,0,0,1-.42-.58,1.61,1.61,0,0,1-.11-.68c0-.06,0-.18-.09-.18s-.09.14-.09.18a2.27,2.27,0,0,0,.16.91,1.14,1.14,0,0,0,.51.6c.1,0,.1-.2.05-.25"/><path class="cls-1" d="M52.64,158.38a7.48,7.48,0,0,1-.31-.82,2.62,2.62,0,0,1-.06-.83c0-.06,0-.19-.06-.23s-.11.08-.11.13a3.51,3.51,0,0,0,.06,1.05,3.1,3.1,0,0,0,.15.48,1.2,1.2,0,0,0,.24.42c.09.09.11-.14.1-.19"/><path class="cls-1" d="M54,157.4a1.07,1.07,0,0,0-.12-.22l-.11-.2,0-.1,0-.05v0h0v0l0-.05,0-.11c0-.05-.07-.13-.12-.06a.29.29,0,0,0,0,.25,2.43,2.43,0,0,0,.18.45l.12.21.07.09s.05.07.09.08.09-.15.08-.2"/><path class="cls-1" d="M54.74,156.93a.47.47,0,0,1-.25-.1l0,0,0,0a.91.91,0,0,1-.07-.14,1.62,1.62,0,0,1-.08-.39,4,4,0,0,1,0-.51c0-.06,0-.18-.09-.18s-.09.14-.09.18a3.06,3.06,0,0,0,.14,1.14.75.75,0,0,0,.23.34.33.33,0,0,0,.33,0c.08,0,.08-.27,0-.28"/><path class="cls-1" d="M54.74,155.42c-.06,0-.06.16,0,.16s.06-.16,0-.16"/><path class="cls-1" d="M11.37,123.13h0"/><path class="cls-1" d="M11.49,123.09l-.07,0h0a.09.09,0,0,0-.07.08l-.17.06-.42.11-.7.17-.05,0h0a3.22,3.22,0,0,0-.47.41c-.11.12-.23.23-.33.36v0S9,124.13,9,124.2a1.5,1.5,0,0,0-.3,1.33.71.71,0,0,0,.68.39,1.66,1.66,0,0,0,.91-.26,1.23,1.23,0,0,0,.35-.32,1,1,0,0,0,.18-.54,1.29,1.29,0,0,0-.45-1c.27-.06.55-.12.81-.21s.42-.11.43-.32,0-.22-.11-.21m-1.39.91,0,0h0l.08.07a1.85,1.85,0,0,1,.22.25l0,.06h0l0,0,.06.12h0v0l0,.06h0v0h0v.05h0s0,.09,0,0v.13h0v0l0,.07,0,0h0l0,0-.07.08-.08.08h0l0,0a1.57,1.57,0,0,1-.4.21l-.11,0H9.7l-.22,0H9.1l-.16-.08,0,0h0l-.05-.06h0l0,0h0v0h0v0h0s0,0,0,0v0h0v-.07h0v0l0-.14h0v0l0-.08.06-.12a.1.1,0,0,0,0,0h.06l0,0h0l0,0,.15-.17c.14-.15.28-.3.43-.44L9.8,124l0,0h0l0,0h.05l.06,0,.1.08"/><path class="cls-1" d="M11.74,122.49c-.06-.07-.15,0-.22,0l-.31.11c-.41.14-.83.22-1.25.34-.07,0-.07.17-.06.23s0,.15.11.13l.87-.23.41-.12.2-.07,0,0a.14.14,0,0,0,0,.07s.07,0,.09,0,.07-.06.09-.1a.3.3,0,0,0,0-.31"/><path class="cls-1" d="M12.17,121.78s0-.17-.09-.16l-.22,0a.09.09,0,0,0-.05,0l-.19.05-.45.09a7.94,7.94,0,0,0-.88.19c-.11,0-.09.4,0,.36a8.32,8.32,0,0,1,.9-.18,3.49,3.49,0,0,0,.87-.23c.06,0,.07-.14.06-.2"/><path class="cls-1" d="M12,121.07A.09.09,0,0,0,12,121h-.07s-.07,0-.08.06h0l-.24,0-.48.09c-.08,0-.09.12-.09.18a.3.3,0,0,0,0,.13s0,.06.07.05l.79-.14.1,0a.14.14,0,0,0,.08,0,.3.3,0,0,0,0-.3"/><path class="cls-1" d="M12.21,120.39H12.1s0,0,0,0l-.09,0-.3.08a4,4,0,0,0-.56.22c-.11.05-.08.42,0,.36a3.69,3.69,0,0,1,.81-.28l.21,0a.18.18,0,0,0,.13-.2c0-.07,0-.16-.1-.18"/><path class="cls-1" d="M12.06,119.89a.19.19,0,0,0-.13-.06h-.11a.62.62,0,0,0-.22.08.15.15,0,0,0-.05.08.33.33,0,0,0,0,.14.2.2,0,0,0,0,.11s0,0,.07,0l.16-.07h0l.12,0H12l0,0,0-.05a.25.25,0,0,0,0-.07.19.19,0,0,0,0-.12"/><path class="cls-1" d="M12,119.36s0,0,0,0a.44.44,0,0,0-.2.08.68.68,0,0,0-.17.19.2.2,0,0,0,0,.09.21.21,0,0,0,0,.09s0,0,0,0a.06.06,0,0,0,0,0h0a.57.57,0,0,1,.3-.23s0,0,0-.05a.23.23,0,0,0,0-.08.17.17,0,0,0,0-.07"/><path class="cls-1" d="M11.53,119.2c-.06,0-.06.16,0,.16s.06-.16,0-.16"/><path class="cls-1" d="M11.43,132.92s0-.1-.08-.08l-.07.05,0,0v0h0a.32.32,0,0,0-.07.14,1.32,1.32,0,0,0,0,.15,2,2,0,0,0,0,.65s0,.17.11.13.07-.16.06-.23v-.09h0s0-.08,0-.12,0,0,0-.06h0v0s0-.08,0-.12v-.11h0a.4.4,0,0,0,0-.08h0v0h0v0l0,0a.2.2,0,0,0,0-.17"/><path class="cls-1" d="M12.1,133.73s-.07,0-.11,0a.29.29,0,0,0-.07.12.46.46,0,0,0-.05.17c0,.05,0,.1,0,.15s0,.23,0,.34a.36.36,0,0,0,0,.14.14.14,0,0,0,.06.09c.07,0,.11-.08.11-.13l0-.33,0-.14s0-.08,0-.13v0h0s0,0,0,0h0c.09,0,.09-.2,0-.24"/><path class="cls-1" d="M92.53,196.55c-.27,0-.28.79,0,.79s.28-.79,0-.79"/><path class="cls-1" d="M31.44,150.4a11.09,11.09,0,0,0-.49-1.14,6.39,6.39,0,0,0-.39-1,4.37,4.37,0,0,0-1.86-1.92l-.29-.25a3.2,3.2,0,0,0-2.16-.83,3.23,3.23,0,0,0-2.48,1.26,2.38,2.38,0,0,0,.2,2.81c.05.13.14.24.28.18s.22-.51.19-.68,0-.24,0-.33a1.7,1.7,0,0,1,0-.31,1.13,1.13,0,0,1,.14-.47,1.55,1.55,0,0,1,.78-.68h0a3.28,3.28,0,0,0-.48,1.47c0,.05,0,.18.09.18s.09-.13.09-.18a2.24,2.24,0,0,1,.13-.57,3.84,3.84,0,0,1,.3-.65,2.81,2.81,0,0,1,.25-.36,3.33,3.33,0,0,1,1.08,0,4.33,4.33,0,0,0-.3.52c-.26.51-.45,1-.67,1.57a.31.31,0,0,0,0,.26c0,.06.1.07.13,0,.21-.5.39-1,.63-1.49a2.52,2.52,0,0,1,.54-.81,4.94,4.94,0,0,1,.65.17h0a5.2,5.2,0,0,0-.28.56,14.17,14.17,0,0,0-.64,1.93c0,.07,0,.2,0,.25s.11,0,.13-.07a14,14,0,0,1,.59-1.79,4.24,4.24,0,0,1,.42-.8,4.73,4.73,0,0,1,.46.22l.13.12h0a4.58,4.58,0,0,0-.53.89c-.16.34-.31.69-.46,1a5.62,5.62,0,0,1-.4.81c-.06.1,0,.44.13.26a15,15,0,0,0,.8-1.75,5,5,0,0,1,.49-.88l.16-.18.41.43c-.48.94-1,1.87-1.41,2.84a.31.31,0,0,0,0,.26c0,.06.1.08.13,0,.44-1,1-1.94,1.45-2.91l.18.2c.13.16.25.32.37.49-.39.73-.72,1.49-1.17,2.19-.06.1,0,.44.13.26.45-.7.79-1.48,1.18-2.21q.2.32.37.65v0l0,.13s0,0-.06,0c-.55.6-.75,1.44-1.29,2a.29.29,0,0,0,0,.25c0,.05.07.13.13.07a21.94,21.94,0,0,0,1.18-1.9.72.72,0,0,0,0,.15c0,.15.14,0,.13-.07a1.77,1.77,0,0,1,0-.18l0,.19a2.09,2.09,0,0,1,0,.28q0,.09,0,.18s0,.14,0,.14a2.64,2.64,0,0,1-.08.49l-.16.26a4.25,4.25,0,0,1-.4.5.24.24,0,0,0,0,.18,2,2,0,0,1-.44.28c-.29.14-.62.16-.91.29s-.25.91.07,1l.19,0,.09,0c1,.23,2.17.27,2.64-.78a4.34,4.34,0,0,0-.18-3.15m-.17,2.23,0,.07a.77.77,0,0,1-.19.33,1.09,1.09,0,0,1-.44.26h0a3.19,3.19,0,0,0,.5-1.16c0-.14.06-.29.07-.44,0,.07,0,.13,0,.19s0,.21,0,.31v.1s0,0,0,.05,0,.1,0,.14v.14"/><path class="cls-1" d="M75.66,146.21l-.41.15h0c-.1-.18-.3-.23-.39,0l-.08.19c-1.17.47-2.3,1.07-3.45,1.6a17.72,17.72,0,0,1-5.06,1.61,34.77,34.77,0,0,1-5.74.12c-1.84-.06-3.67,0-5.51-.1a42,42,0,0,1-10-1.35A27.58,27.58,0,0,1,36,144a32.69,32.69,0,0,1-11.2-15.46,31.85,31.85,0,0,1-1.62-8.9h0c.11,0,.11-.3,0-.32h0q0-.75,0-1.51a71.19,71.19,0,0,1,.77-10.39,43.35,43.35,0,0,1,1.82-7.8,19.74,19.74,0,0,1,3.79-7,9.74,9.74,0,0,1,1.29-1.2.73.73,0,0,0,.19-.68c0-.11-.14-.54-.34-.39l-.32.26c0-.28-.14-.55-.36-.48-1,.3-2,.65-2.95,1a.23.23,0,0,0-.28-.15,33.56,33.56,0,0,0-12.1,6.81,40.7,40.7,0,0,0-8.74,10.92A47.26,47.26,0,0,0,1,122.15a45.28,45.28,0,0,0-.71,14.17,40.53,40.53,0,0,0,4.3,14.18,32.11,32.11,0,0,0,9.62,11.3A30.4,30.4,0,0,0,21,165.46c1.43.55,2.9,1,4.36,1.52s2.78.9,4.2,1.25a29,29,0,0,0,9.77.71,40.38,40.38,0,0,0,9.38-2.3,109.93,109.93,0,0,0,13.16-5.11c4.17-2.1,8.05-5,10.43-9.07.24-.41.45-.82.65-1.25s.63-.88.92-1.34.52-.87.76-1.32c0,0,0,.05.08,0a.14.14,0,0,0,.06-.09.36.36,0,0,0,0-.1.53.53,0,0,0,0-.07v0h0v0h0v0l.09-.19a1.41,1.41,0,0,0,.05.14l.07.12,0,0,.06,0h.05a.13.13,0,0,0,0-.07.29.29,0,0,0,0-.2l0-.05,0,0L75,148l0-.09h0v-.05l.13-.27.73-.27c.34-.11.27-1.21-.15-1.07m-29.49,4.23a.76.76,0,0,0,.13-.59c1.17.27,2.35.48,3.55.63,0,.14.07.28.1.39s.13.52.2.78a6.71,6.71,0,0,1,.25,1.6c0,.05,0,.18.09.18s.09-.13.09-.18a6.61,6.61,0,0,0-.2-1.47c-.06-.24-.12-.49-.18-.73l-.09-.37v-.05a.31.31,0,0,0,0-.12q.85.11,1.71.18a.31.31,0,0,0,0,.06c0,.12,0,.23,0,.35s0,.12.08.12h0a8.92,8.92,0,0,1,.23,1.43c0,.05,0,.16.11.13s.07-.17.06-.23a9.13,9.13,0,0,0-.33-1.84l.2,0,.3,0a.47.47,0,0,0,0,.1h0a.28.28,0,0,0,0,.1v0l0,.13c0,.13.07.26.1.39a4.45,4.45,0,0,1,.15.79c0,.05,0,.16.11.13s.07-.16.06-.23a5.22,5.22,0,0,0-.17-.87l-.11-.4a1.34,1.34,0,0,0-.06-.19l.61,0a.3.3,0,0,0,0,.12c0,.09.06.17.09.26l0,.13,0,.12a2.41,2.41,0,0,1,0,.27v0s0,0,0,0,0,0,0,.07,0,.1,0,.15,0,.18.09.18.09-.13.09-.18a2.76,2.76,0,0,0-.13-1,1.38,1.38,0,0,0-.07-.18l.36,0a.55.55,0,0,0,.12.23,1.47,1.47,0,0,0,0,.33,1.92,1.92,0,0,0,.1.35.08.08,0,0,0,.06.05s.05,0,.07-.05a.33.33,0,0,0,0-.26h0v0l0-.06,0-.07v0h0l0-.1a2.2,2.2,0,0,1,.85.64A.59.59,0,0,1,55,152h0v0h0v0a.24.24,0,0,0,0,.06s0,0,0,.07v0h0l-.05.17a3.67,3.67,0,0,1-.79,1.21,10.87,10.87,0,0,1-2,1,6.25,6.25,0,0,1-2.44.64,5,5,0,0,1-3.29-1.6l-.12-.13-.05-.14a3.27,3.27,0,0,1,.08-2.08.84.84,0,0,0-.1-.76.2.2,0,0,0-.13-.07l.05-.06M26.55,134.22c.2.36.4.72.61,1.08a5.08,5.08,0,0,1-.32.4c-.19.2-.39.39-.58.59a6.14,6.14,0,0,0-1.06,1.26v0a5.35,5.35,0,0,0-.33-1.57,7.78,7.78,0,0,1,.76-1,6.61,6.61,0,0,1,.5-.51l.25-.21.11-.08s.06.06.09,0m-.18-.34-.27.21a6.15,6.15,0,0,0-.55.54,8.13,8.13,0,0,0-.82,1.07v0c-.12-.3-.26-.6-.4-.9a.05.05,0,0,0,.09,0c.31-.31.64-.6.95-.91a6.76,6.76,0,0,0,.65-.71l.36.72m-1.74,3.82s0,0,0,.06,0,.07,0,.1v0l0,.1,0,0c0-.32,0-.64,0-1v0l0,.11,0,.08c0,.09,0,.17,0,.26v.14m-.3-.21c0,.25,0,.51.05.76a1.06,1.06,0,0,1-.25.14l-.14,0s0,0,0,0a2.15,2.15,0,0,0,.33-.89m-.3.35c0-.56.05-1.12.07-1.68l.06.25a2.67,2.67,0,0,1-.12,1.43m1.59-5.5.26.54-.18.21c-.14.16-.29.31-.44.46-.31.3-.63.6-.94.9a.32.32,0,0,0,0,.27l-.11-.21c0-.2-.1-.4-.16-.59.54-.51,1-1.08,1.55-1.62,0,0,0,0,0,0m-.15-.33c-.19.18-.36.38-.54.57-.32.35-.64.71-1,1l-.11-.29c0-.13-.08-.26-.13-.39l.67-.75c.2-.22.4-.44.61-.66l.2-.19.3.68m-.78-1.89q.17.46.36.92l-.27.28-.57.63-.62.7,0,0a4.76,4.76,0,0,0-.46-.82,3.84,3.84,0,0,1,.78-1,4.36,4.36,0,0,1,.51-.45l.24-.16.06,0m-.12-.32-.24.16a4.76,4.76,0,0,0-.54.47,4,4,0,0,0-.84,1.11v0l-.13-.16a5.62,5.62,0,0,0-.45-.44l.09-.08c.23-.21.46-.4.7-.6a10.33,10.33,0,0,0,1.21-1.09c.07.2.14.4.21.59M23.95,128a.13.13,0,0,0,0,.05c.08.28.18.56.27.84a6.24,6.24,0,0,1-.53.5c-.44.38-.9.74-1.33,1.14l-.26.24-.33-.27-.19-.15A26.17,26.17,0,0,1,23.94,128a.18.18,0,0,0,0,0m-.08-.36a27.33,27.33,0,0,0-2.47,2.55,8.88,8.88,0,0,0-.76-.55,15,15,0,0,1,1.28-1.31,16.46,16.46,0,0,0,1.69-1.68c.08.33.17.66.27,1m-.38-1.44,0,.1c-.22.27-.45.53-.7.78s-.68.65-1,1a13.49,13.49,0,0,0-1.38,1.45,3.08,3.08,0,0,0-.71-.29l-.17,0c.53-.7,1.07-1.39,1.64-2.05a11.51,11.51,0,0,1,2.11-2c.07.35.14.69.22,1m5.59-34.66a.3.3,0,0,0,0,0,.28.28,0,0,0,0,.13s0,0,.05.05l-.11.12a1.31,1.31,0,0,0-.59-.13h0l.63-.22m-1.48.54v0c0,.06,0,.15.11.13a2.58,2.58,0,0,1,.75-.11,1.45,1.45,0,0,1,.35,0q-.27.33-.52.68a.85.85,0,0,0-.36-.32,1.75,1.75,0,0,0-.5-.18,1.94,1.94,0,0,0-.45,0l.63-.25m-9.77,4.47-.61.48-.66.54-.07,0,0,0q.67-.52,1.36-1M5.18,112.91l.37-.86v0l0,0q-.28.65-.53,1.31l.1-.51M.66,129.64a.94.94,0,0,0-.06.33c0,.43,0,.86,0,1.29s0,.87,0,1.3v0a42.82,42.82,0,0,1,.11-4.3v.17a1,1,0,0,0,0,.24l0,.26c0,.23,0,.45-.06.68m.08,5.27c0-.17,0-.35,0-.52,0,.17,0,.34.06.5q.08.83.19,1.65a10.77,10.77,0,0,1-.25-1.64m.72,5.15.17.53.15.81q-.17-.67-.32-1.34m5.09,6.32-.34-.57,0-.11.28.14a.57.57,0,0,0,.17.4.56.56,0,0,0-.07.14m3.26-6.79s-.07-.2-.13-.11a16.66,16.66,0,0,0-1.55,2.8c-.41.87-.81,1.75-1.26,2.6a3,3,0,0,1-.73-.34L6,144.46c.37-.63.7-1.28,1-1.92.21-.38.41-.77.59-1.16s.37-.83.59-1.24a3.67,3.67,0,0,1,.59-.88c0,.05,0,.11,0,.14s.08,0,.1-.06.09-.22.12-.34,0-.34-.1-.27a2.65,2.65,0,0,0-.71.87,13,13,0,0,0-.62,1.25c-.41.91-.88,1.78-1.35,2.66-.15.28-.3.55-.46.83a2.67,2.67,0,0,1-.43-.46q-.25-.56-.52-1.12a4.59,4.59,0,0,1-.11-.51s.07.08.11,0a13.7,13.7,0,0,0,1-1.69,18.31,18.31,0,0,1,1.18-2,2.89,2.89,0,0,1,.25-.3s.1-.1.14-.09.11-.22.06-.27-.31.06-.4.16a6,6,0,0,0-.55.81c-.44.73-.84,1.48-1.25,2.22a7.08,7.08,0,0,1-.5.82.24.24,0,0,0,0,.11c0-.16-.13-.46-.34-.37l-.05,0,0-.08a22.23,22.23,0,0,1-1-4.93.17.17,0,0,0,.11,0l.09,0c0,.25,0,.49,0,.74s0,.55.28.55.28-.4.28-.55,0-.09,0-.13a5.14,5.14,0,0,0,.4-.62,4.48,4.48,0,0,1,.52-.79.32.32,0,0,1,.1-.09h.07c.06,0,.09-.06.1-.09a.25.25,0,0,0,0-.2c-.17-.21-.42.17-.5.29-.21.31-.39.65-.59,1l0,.05a4.2,4.2,0,0,1,.11-.66.82.82,0,0,0,.06-.2A2.6,2.6,0,0,1,5,134.91a2.3,2.3,0,0,1,.48-.36,5.38,5.38,0,0,1,.94,0,9.92,9.92,0,0,1,4.81,1.62,4.6,4.6,0,0,1,1.51,1.44,4.35,4.35,0,0,1,.43,1.78,10.47,10.47,0,0,1-.09,2.1l-.06.09-.15.27-.31.52a.3.3,0,0,0,0,.26h0a6,6,0,0,1-2.86,2.15c.71-1,.91-2.29,1.54-3.36a.51.51,0,0,0,0,.07s0,.09.09.06,0-.13,0-.18a3.11,3.11,0,0,0,0-.33s-.06-.2-.13-.11c-.79,1-.89,2.45-1.64,3.53a.3.3,0,0,0,0,.25.18.18,0,0,0,.06.08,5.37,5.37,0,0,1-.88.22l-.23,0a10.14,10.14,0,0,0,1-2.17,11.81,11.81,0,0,1,.53-1.3,3,3,0,0,1,.37-.63.05.05,0,0,1,0,0,.38.38,0,0,0,.06.16s.07,0,.09,0a.23.23,0,0,0,0-.17v-.06a.38.38,0,0,0,0-.15c0-.11-.09-.14-.19-.15l0,0c-1,1.37-1.1,3.19-2.15,4.52h0a3.94,3.94,0,0,1-1-.1c.4-.77.76-1.57,1.13-2.35A22.93,22.93,0,0,1,9.66,140c0,.05,0,.11,0,.16s.14.09.15,0a3.53,3.53,0,0,0,0-.5m-1,15.92.86.83,0,.08c.21.29.44.58.68.86q-.82-.85-1.58-1.77m4.26.28,0-.09.31.33-.32-.24m7.79,4a.89.89,0,0,0,0-.45c-.13-.36-.27-.71-.4-1.07-.07-.19-.13-.38-.19-.57l0-.12v-.05h0l0-.08s0,0,0-.06,0-.26-.15-.29h-.09c-.12-.44-.25-.87-.38-1.31a.18.18,0,0,0,0-.07,1.3,1.3,0,0,0,.32.17.9.9,0,0,0,.5,0V156c0,.23.11.47.16.7q.23.93.49,1.85c.07.26.15.53.23.79,0,0,0,.08.07.08.07.29.15.59.24.88l0,.06-.78-.53m-1.76-5.37h0v-.06l0-.06,0,0,0,0,.1-.11a1,1,0,0,1,.37-.18c.07,0,.09-.18.05-.28h0a1.64,1.64,0,0,1,.8,0,.9.9,0,0,1,.55.38.83.83,0,0,1,0,.72,1.25,1.25,0,0,1-.61.79h0s-.07,0-.09,0a.7.7,0,0,1-.31,0,1.33,1.33,0,0,1-.9-.77,1,1,0,0,1-.08-.27v0s0,0,0,0v0h0m2.82,6.1.07-.06a.55.55,0,0,0,.08-.14c0,.12.09.25.13.38l-.27-.18m3.45,5.32-1.41-.48.25,0,1.12.41.06,0h0m.27-1.77h0l0,0,.46,0,.48.23c-.29-.08-.59-.15-.89-.21m7.11,1.1a.91.91,0,0,0,0-.17c0-.11,0-.22,0-.34a.26.26,0,0,0,0,0v-.05c0-.06,0-.12,0-.18v-.06l0-.14a1,1,0,0,1,.05-.16,3.19,3.19,0,0,1,.35-.33c0,.1,0,.2,0,.3,0,.44.11.86.17,1.29l-.68-.14m1.53.29a.35.35,0,0,0,0-.2,2.27,2.27,0,0,1-.07-.39c0-.16,0-.3,0-.47a5.63,5.63,0,0,0,0-.73s0-.11-.07-.11-.07.08-.07.11a4.75,4.75,0,0,0,0,.78,4.24,4.24,0,0,0,.11,1l-.5-.08a10.16,10.16,0,0,1-.2-1.7.23.23,0,0,0,.09.09c.1,0,.11-.18.07-.26a4.46,4.46,0,0,1,1-.43.44.44,0,0,0,0,.07c0,.42,0,.85,0,1.26s0,.76.06,1.14l-.37-.06m.56.09c0-.39,0-.78-.06-1.17s0-.84,0-1.26a.41.41,0,0,0,0-.11l.5-.12a11.54,11.54,0,0,0,.22,2.41c0,.05,0,.16.11.13s.07-.17.06-.23a11.75,11.75,0,0,1-.22-2.14,2.18,2.18,0,0,1,.17.69s0,.11.07.1.06-.1.06-.13a2.49,2.49,0,0,0-.17-.87l.38,0a.25.25,0,0,0,0,.09c0,.9.08,1.8.08,2.7a.34.34,0,0,0,0,.13l-1.17-.16m2.08.26a.36.36,0,0,0,0-.12c0-.66.07-1.32,0-2,0-.15,0-.3,0-.45s0-.17,0-.25,0-.17-.09-.19-.11.05-.14.09-.05.31,0,.29v.1c0,.26,0,.52,0,.78,0,.54,0,1.07,0,1.61a.39.39,0,0,0,0,.1l-.64-.07a.31.31,0,0,0,0-.15c0-.76,0-1.53-.06-2.3a.19.19,0,0,0,0-.13.72.72,0,0,0-.09-.37h.41a7.71,7.71,0,0,1,1,.06v0a2,2,0,0,0,0,.57c0,.25,0,.49,0,.73q0,.76.07,1.52c0,.05,0,.18.09.18l-.7-.06m1.67.13-.32,0a.32.32,0,0,0,0-.06,10.15,10.15,0,0,1-.1-1.48c0-.23,0-.47,0-.7a4.08,4.08,0,0,0,0-.57c0-.14-.13-.14-.15,0a8.85,8.85,0,0,0,0,1.31,10.94,10.94,0,0,0,.1,1.48l-.45,0c.07,0,.09-.13.09-.18q0-.76-.07-1.52,0-.36,0-.72a2.44,2.44,0,0,0,0-.59h0a6.84,6.84,0,0,1,.87.18.28.28,0,0,0,0,0c0,.88.21,1.74.2,2.61,0,.05,0,.18.09.18s.09-.13.09-.18c0-.76-.14-1.5-.19-2.25l.06.07c.1.1.13-.18.09-.24l-.1-.17.5.19a12.86,12.86,0,0,0,.1,2.68l-.69,0m2.54.06H40c0-.59,0-1.18,0-1.77,0-.07,0-.14,0-.21a.37.37,0,0,0,0,0h0a.13.13,0,0,0-.06-.11h0s-.05.06-.06.11h0v0c0,.19,0,.38,0,.57V166h-.37v-.05a10.34,10.34,0,0,1-.1-2.55,4,4,0,0,1,1.27.92,2.58,2.58,0,0,1,.21.27c0,.17,0,.34,0,.52s0,.44-.08.66c0,.06,0,.19.06.23s.11-.08.11-.13c0-.23.07-.46.08-.68s0-.2,0-.3a1.76,1.76,0,0,1,.1.25,1.79,1.79,0,0,1,.07.37,2.54,2.54,0,0,1-.05.51m32.1-17.63a5.93,5.93,0,0,0-.14.76c-.12.33-.26.65-.4,1a.19.19,0,0,0,0-.09h0v0h0v0h0v0s0,0,0-.07h0v0c0-.06,0-.11,0-.17a3.65,3.65,0,0,0,.05-.81c0-.05,0-.16-.11-.13s-.07.16-.06.23a1.93,1.93,0,0,1,0,.35c0,.13,0,.27-.05.4a1.48,1.48,0,0,0,0,.39.28.28,0,0,0,.15.24l0,.08q-.57.76-1.18,1.48a32.27,32.27,0,0,1-5.22,4.89,24.61,24.61,0,0,1-2.76,1.8c-1.06.59-2.17,1.07-3.24,1.62-2.4,1.24-4.76,2.57-7.25,3.61A30.19,30.19,0,0,1,43,166c.1-2.13-2-3.7-3.83-4.43a8.39,8.39,0,0,0-4.11-.66l-.18-.46c-.06-.16-.15,0-.11.13l.14.36A3.39,3.39,0,0,0,32.83,162a3.15,3.15,0,0,0-.2.26,2.64,2.64,0,0,0-.48.38,2.44,2.44,0,0,0-.53,2.3,29.54,29.54,0,0,1-5.38-1.89.91.91,0,0,0,0-.31c-.14-.41-.31-.8-.48-1.19L25.5,161l0-.1,0-.12a2,2,0,0,0-.14-.37c0-.06-.09-.14-.17-.15S25,160,25,159.86a3.63,3.63,0,0,1-.08-.7c0,.07.07.14.12.21s.11-.15.08-.2-.14-.31-.22-.45-.11,0-.13,0a3.39,3.39,0,0,0,.17,1.67.61.61,0,0,0-.05.12,1.56,1.56,0,0,0,.13,1c.08.22.17.44.26.65l.22.51-.59-.3c-.33-.18-.66-.37-1-.56l0-.11a.7.7,0,0,0,0-.19.92.92,0,0,0,0-.26,2.72,2.72,0,0,0-.31-.81c0-.05-.08-.14-.16-.13a.18.18,0,0,0-.14.1.55.55,0,0,0-.08.23v0a11.39,11.39,0,0,1-.77-1.8,5.87,5.87,0,0,1-.34-2.61.48.48,0,0,0,.13.08c.1,0,.09-.21,0-.25a.35.35,0,0,1-.15-.16c0-.1-.11-.11-.15,0a4.54,4.54,0,0,0,.08,2.34,11.2,11.2,0,0,0,.9,2.44c.13.26.28.52.43.77v0l-1.07-.68a.38.38,0,0,0,0-.2c-.08-.3-.18-.59-.29-.88v0c-.13-.38-.22-.78-.32-1.17a3.33,3.33,0,0,0-.43-1.18l0,0c0-.15-.06-.29-.09-.44s0-.15,0-.18a.64.64,0,0,1,0-.14c0-.05,0,0,0-.07a.13.13,0,0,1,.06-.05c.07,0,.08-.27,0-.28s-.25.32-.25.48a3.15,3.15,0,0,0,.1.73l0,0a.52.52,0,0,0-.07.2l-.12-.48c-.09-.35-.18-.69-.26-1l-.05-.24a1.31,1.31,0,0,0,.56-.65c.27-.6.36-1.46-.3-1.83a1.5,1.5,0,0,0-1-.15,1.71,1.71,0,0,0-1,.48c0,.05-.05.37.06.31L19,154l0,.07a1.14,1.14,0,0,0-.06.78,1.65,1.65,0,0,0,.26.55.41.41,0,0,0,0,.08c.17.61.36,1.22.53,1.83a.52.52,0,0,0,0,.12,1,1,0,0,0,0,.29,1.81,1.81,0,0,0,0,.23,4.15,4.15,0,0,0,.19.72c.08.24.17.47.25.7L19.6,159a1.1,1.1,0,0,0-.07-.44l0-.09-.06-.16-.09-.27q-.1-.3-.2-.61c-.12-.39-.21-.8-.34-1.19a.39.39,0,0,0-.16-.22,6.75,6.75,0,0,1-.25-.76,4.56,4.56,0,0,1-.09-.51c0-.07-.07-.24-.17-.23a.08.08,0,0,0-.06.05.87.87,0,0,0,0,.27c0,.08,0,.22.1.18a5.46,5.46,0,0,0,.31,1.08.78.78,0,0,0-.09.5,7.84,7.84,0,0,0,.32,1.39c0,.15.1.3.15.45l-.47-.33c-.11-.42-.25-.84-.4-1.25-.09-.24-.17-.48-.25-.72l-.1-.34c0-.12-.08-.35-.21-.41-.15-.74-.28-1.48-.42-2.23a.3.3,0,0,0,0-.21,2.78,2.78,0,0,1-.15-.41c0-.06,0-.15-.11-.13s-.07.18-.06.23c.17.93.33,1.87.52,2.8a.41.41,0,0,0-.07.14,1.74,1.74,0,0,0,.12,1c.08.25.17.49.27.73l.09.24-.82-.6a.36.36,0,0,0,0-.21c-.13-.47-.28-.93-.42-1.4,0-.14,0-.28-.07-.41a2.36,2.36,0,0,0-.26-.87l0,0a8.59,8.59,0,0,1-.29-1.6.89.89,0,0,1,.12-.67c0-.05.06-.33-.06-.28s-.25.48-.25.69a5.14,5.14,0,0,0,.12,1.11c.05.28.12.55.18.82a.64.64,0,0,0-.08.32,4.52,4.52,0,0,0,.11.9c0,.27.08.53.12.8l0,.24-.84-.66v0l0-.12c.08.22.21-.06.16-.19a7.27,7.27,0,0,1-.23-.84c-.11-.44-.2-.89-.29-1.34a19.05,19.05,0,0,1-.4-2.78,3.5,3.5,0,0,1,0-.49v-.1a.18.18,0,0,1,0-.06.25.25,0,0,1,0-.08c0-.05.05-.34-.06-.28s-.2.53-.2.72a9.37,9.37,0,0,0,.1,1.31c0,.2.06.4.09.61a.13.13,0,0,0-.11,0c-.1,0-.13.2-.14.28a4.26,4.26,0,0,0,0,1c0,.31.09.62.14.93s.11.56.17.85l-.83-.69h0a1,1,0,0,0,0-.78,2.48,2.48,0,0,1-.2-.66c0-.28-.07-.57-.09-.85s0-.55-.1-.82a4.22,4.22,0,0,0-.11-.47,1,1,0,0,0-.22-.44c-.23-.21-.35.22-.34.39,0,.36.12.62.16,1s.06.57.08.86a6.41,6.41,0,0,0,.22,1.32L12,153c-.06-.42-.12-.84-.18-1.27s-.09-.56-.15-.83c0-.12-.06-.24-.1-.36s-.1-.32-.23-.38-.24.19-.26.29a1.38,1.38,0,0,0,0,.41l-.05-.22v0L11,150a1.49,1.49,0,0,0-.1-.39c0-.06-.09-.06-.12,0a.29.29,0,0,0,0,.21h0c0-.07,0,0,0,0v.08l0,.22.1.51a8.66,8.66,0,0,1,.33,1.52l-.61-.62a.09.09,0,0,0,.05,0,.32.32,0,0,0,0-.26,6.2,6.2,0,0,1-.3-1.15c0-.19-.07-.38-.09-.57s0-.16,0-.24a1,1,0,0,0,0-.11l0-.07s0,0,0,0-.1-.09-.12,0a1.4,1.4,0,0,0,0,.5c0,.21.06.42.1.62a7.14,7.14,0,0,0,.32,1.23l-.31-.34s0-.07,0-.1l0-.19v-.07q0-.1,0-.19v-.17s0-.06,0-.08,0-.12,0-.18,0-.31,0-.47-.07-.3-.19-.33-.17.08-.21.17h0v-.16l0-.06a1,1,0,0,0,0-.12.27.27,0,0,0,0-.16s0-.07-.08-.05-.12.16-.14.25a1.41,1.41,0,0,0,0,.35,1.89,1.89,0,0,0,.09.57c0,.11,0,.22,0,.33a30.1,30.1,0,0,1-2.44-3.15,3.08,3.08,0,0,0,2.31.19,2.81,2.81,0,0,0,1.16-.27,3.89,3.89,0,0,0,1.63-1.13,5.13,5.13,0,0,0,.45-.39,6.36,6.36,0,0,0,1.6-2.68l0,0a.75.75,0,0,0,.09-.35,8.62,8.62,0,0,0-.26-4.84A8.21,8.21,0,0,0,11,134.13l-.64-.44a2.67,2.67,0,0,1,0-.3,1.82,1.82,0,0,1,0-.34.74.74,0,0,1,.26-.46.18.18,0,0,0,.05-.16s0-.13-.07-.12c-.25.05-.35.32-.4.54a2.6,2.6,0,0,0-.06.72c-.3-.18-.6-.36-.92-.52a2.09,2.09,0,0,0,.08-1.73c-.06-.12-.15,0-.15.08a.9.9,0,0,0,.05.41l.05.13a1.32,1.32,0,0,1,0,.32,1.84,1.84,0,0,1-.25.68c-.23-.11-.47-.21-.72-.3a5.13,5.13,0,0,0,.13-1.73h0s0,0,0,0,0-.15-.1-.13-.08.13-.08.18,0,.4,0,.6a4.49,4.49,0,0,1-.15,1.07q-.29-.09-.59-.16a5.57,5.57,0,0,0,0-.82,9.32,9.32,0,0,0-.08-1,.25.25,0,0,0,0-.19,1.63,1.63,0,0,0-.09-.17c0-.11,0-.22-.07-.32s0-.1-.1-.08-.06.13-.07.17a.68.68,0,0,0,0,.29,11.22,11.22,0,0,1,.15,1.24,5.15,5.15,0,0,1,0,.82,5.1,5.1,0,0,0-.82-.09l-.37,0c0-.32,0-.63,0-1s0-.72-.05-1.09a.2.2,0,0,0,0-.15c0-.1,0-.21,0-.31a.58.58,0,0,0-.14-.29c-.1-.12-.13.15-.13.2,0,.57.1,1.13.12,1.7,0,.3,0,.61,0,.91a2.37,2.37,0,0,0-1.39.7l-.09.11c-.08-.17-.22-.28-.36-.08A.18.18,0,0,0,4,133c-.23,0-.27.4-.28.55a1.77,1.77,0,0,1,0,.35l0-.1c.2-.3,0-1.25-.31-.91l-.12.13c0-1.71,0-3.42,0-5.13a40.83,40.83,0,0,1,0-4.24,28.66,28.66,0,0,1,.64-4.19,38.46,38.46,0,0,1,1.21-4.2h0a15.2,15.2,0,0,1,1.51-1.57,10.6,10.6,0,0,1,2-1.6,1.86,1.86,0,0,1,.42-.18.53.53,0,0,1,.3,0c.09,0,.09-.19,0-.23s-.41-.1-.62,0a5,5,0,0,0-1,.63,19.82,19.82,0,0,0-2.06,1.91l-.43.47q.32-.86.67-1.69A0,0,0,0,0,6,113a8.12,8.12,0,0,1,1.63-1.68,12.31,12.31,0,0,1,2.15-1.42c.38-.19.78-.34,1.17-.51.07,0,.07-.27,0-.26a3.22,3.22,0,0,0-1,.35,10.1,10.1,0,0,0-1.11.63,12.43,12.43,0,0,0-2.05,1.63c-.15.15-.29.3-.43.46l.17-.38a36.74,36.74,0,0,1,4.64-7.41s.06.07.11,0c.31-.35.64-.68,1-1a6.68,6.68,0,0,1,1.2-1,.69.69,0,0,1,.43-.14c.11,0,.08-.26,0-.31s-.28,0-.4,0a3.29,3.29,0,0,0-.57.37l-.39.32.56-.61.75-.73a15.57,15.57,0,0,0,2.57-2.49,40.06,40.06,0,0,1,7.18-5c-.07.1,0,.35,0,.33a10,10,0,0,1,2.33-.09h.15c.13,0,.13-.37,0-.37a11.4,11.4,0,0,0-2.45.09l1.13-.58a.06.06,0,0,0,.07,0,2,2,0,0,1,1.15,0c.2,0,.4.1.59.15l.28.08a1,1,0,0,0,.27.06c.12,0,.11-.3,0-.34a1.36,1.36,0,0,0-.28-.09l-.3-.09c-.2-.06-.4-.11-.61-.16l-.31,0,.63-.29c0,.1,0,.2.12.18a2,2,0,0,1,1-.07,1.59,1.59,0,0,1,.46.16L28,93l.08.07a20.76,20.76,0,0,0-2,3.79,40,40,0,0,0-2.39,8.3c-.29,1.59-.51,3.21-.68,4.83l-.09,0a2.28,2.28,0,0,0-.4.29.2.2,0,0,0,0,.11.32.32,0,0,0,0,.14c0,.06.06.12.12.06a2,2,0,0,1,.36-.25v.13h0l-.24.15a3.49,3.49,0,0,0-.45.36.21.21,0,0,0,0,.11.34.34,0,0,0,0,.14c0,.06.07.12.13.07a3.11,3.11,0,0,1,.42-.33l.16-.1c0,.19,0,.39-.05.58l-.19.12-.44.31a7.42,7.42,0,0,0-.79.7.28.28,0,0,0,0,.25c0,.06.07.13.13.07a7,7,0,0,1,.77-.68l.41-.3.11-.07q-.08,1-.14,2l-.19.16-.58.44a4.72,4.72,0,0,0-1.1,1,.3.3,0,0,0,0,.25s.08.14.13.07a4.74,4.74,0,0,1,1.12-1c.2-.14.39-.28.58-.44l.06-.05c0,.15,0,.31,0,.46s0,.29,0,.44A4.87,4.87,0,0,1,21,116.75,11.86,11.86,0,0,0,19,118.28c-.08.08,0,.44.09.32a8.86,8.86,0,0,1,1.63-1.23,8.89,8.89,0,0,0,1.7-1.33,3.06,3.06,0,0,0,.25-.32c0,.44,0,.88,0,1.33a1.76,1.76,0,0,0-.41.21,5.85,5.85,0,0,0-.61.42l-1.09.87c-.78.64-1.52,1.31-2.33,1.92a11,11,0,0,1-1.42.92c-.11.06-.07.42,0,.36A14.38,14.38,0,0,0,19.2,120c.75-.63,1.49-1.25,2.25-1.86a8,8,0,0,1,.64-.47l.32-.19.18-.08c0,.72,0,1.45,0,2.17a7.63,7.63,0,0,0-.7.63l-.63.64c-.27.27-.56.51-.84.77-.81.72-1.62,1.44-2.4,2.18-.45.43-.95.81-1.4,1.23a5.51,5.51,0,0,0-.76.82,1.32,1.32,0,0,0-.3.78c0,.05,0,.18.09.18s.09-.13.09-.18a1,1,0,0,1,.28-.57,6,6,0,0,1,.66-.7c.43-.4.9-.76,1.33-1.16q1.11-1,2.25-2.05c.52-.47,1-.93,1.53-1.43a10,10,0,0,1,.77-.73l.06-.05q0,.85.12,1.7a4.75,4.75,0,0,1-.68.69c-.39.34-.81.64-1.22,1A29.84,29.84,0,0,0,18,125.8a12.19,12.19,0,0,0-1.39,1.7.28.28,0,0,0,0,.24s.07.13.12.06a14.81,14.81,0,0,1,2.67-2.87c.5-.43,1-.84,1.53-1.25s.83-.62,1.22-1a5.26,5.26,0,0,0,.67-.66c0,.45.1.89.17,1.34a7.87,7.87,0,0,1-1.86,1.81,14.55,14.55,0,0,0-2.39,2.05,4,4,0,0,0-.8,1.46c0,.07,0,.2,0,.25s.11,0,.13-.07a5,5,0,0,1,1.81-2.36c.81-.67,1.7-1.25,2.46-2a5.44,5.44,0,0,0,.67-.79c.05.35.11.7.18,1.05a11.64,11.64,0,0,0-2.1,2c-.67.76-1.28,1.57-1.89,2.37a5.74,5.74,0,0,0-.89,0l-.48-.15a1.4,1.4,0,0,0-1,0,.14.14,0,0,0-.06.1h0c-.12,0-.13.33,0,.36h0l.28.07a.08.08,0,0,0,.07.05h.24c.27,0,.55.07.82.09-.3.2-.23,1.13.08,1.07a2.86,2.86,0,0,1,2,.57,9.35,9.35,0,0,1,2.06,1.9,12.92,12.92,0,0,1,1.53,2.27s0,.1,0,.15a13.57,13.57,0,0,0-.06,2.84h0l-.2,0c-.38,0-.38,1.08,0,1.09a1.42,1.42,0,0,0,1.49-1.16,3,3,0,0,0,.08-.64v0c0,.07.09.07.13,0a6.14,6.14,0,0,1,1.06-1.24,7.4,7.4,0,0,0,.92-1h0c.16.26.32.52.49.78a4.93,4.93,0,0,0-.41.35A17.17,17.17,0,0,0,26.2,138l-.45.53a.27.27,0,0,0,0,.23s.07.12.12.06c.29-.35.6-.69.91-1a8.35,8.35,0,0,1,1.15-1.1l.08-.05.56.83-.07.05a5.89,5.89,0,0,0-.52.47c-.39.4-.76.82-1.12,1.24l-.45.53a.29.29,0,0,0,0,.25c0,.05.07.13.13.07.3-.35.59-.69.89-1a11,11,0,0,1,1.09-1.12l.23-.17,0,0q.55.79,1.15,1.54a3.06,3.06,0,0,0-.44.47c-.5.55-1.07,1-1.56,1.58a5.56,5.56,0,0,0-.87,1.25.28.28,0,0,0,0,.24c0,.06.09.07.12,0A8.42,8.42,0,0,1,29,140.59c.21-.2.4-.4.6-.61l.27-.29.08-.08,0,0a.29.29,0,0,0,.08-.13c.39.48.79,1,1.21,1.41l0,0-.44.47c-.29.3-.6.59-.9.88-.08.08,0,.44.09.32.3-.29.61-.58.9-.88l.43-.46.14-.15q.81.88,1.67,1.7c-.22.28-.42.56-.63.85l-.28.41a.3.3,0,0,0,0,.25s.08.14.13.07l.56-.81c.14-.2.29-.4.44-.59l.34.31.56.48a4.24,4.24,0,0,0-.41.39c-.34.37-.63.78-1,1.15a.29.29,0,0,0,0,.25c0,.05.07.13.13.07.32-.36.6-.76.93-1.12a3.48,3.48,0,0,1,.54-.5l0,0,.89.72-.05.05L35,145l-.52.55c-.34.37-.68.74-1,1.1-.08.08,0,.42.09.3.35-.35.68-.72,1-1.08l.5-.53a5.92,5.92,0,0,0,.47-.49l.56.41-.23.22-.38.37a5.88,5.88,0,0,0-.69.8.3.3,0,0,0,0,.25s.08.14.13.07a5.84,5.84,0,0,1,.68-.79,10.52,10.52,0,0,0,.75-.74h0l.81.55-.17.11a5.5,5.5,0,0,0-.57.52c-.43.44-.84.92-1.23,1.4-.16.2-.32.4-.47.61a.3.3,0,0,0,0,.25s.08.14.13.07c.29-.41.62-.8.94-1.18a10.29,10.29,0,0,1,1.19-1.24,1.44,1.44,0,0,1,.44-.28s0,0,.05-.07q.88.57,1.81,1.07l-.18.27a5.8,5.8,0,0,1-.38.46c-.27.3-.57.58-.87.86a10,10,0,0,0-1.66,1.79.27.27,0,0,0,0,.22s.07.13.11.06a10.22,10.22,0,0,1,1.7-1.81c.3-.27.59-.55.86-.85a3.63,3.63,0,0,0,.63-.89l.82.42a1.71,1.71,0,0,0-.56.39,7.3,7.3,0,0,0-.61.64c-.39.45-.75.93-1.14,1.38a.25.25,0,0,0,0,.22s.06.12.11.06c.38-.44.73-.9,1.12-1.33a7.89,7.89,0,0,1,.59-.61c.19-.18.42-.32.62-.49a.29.29,0,0,0,0-.19l.68.31-.1,0a3,3,0,0,0-.42.28,4.86,4.86,0,0,0-.72.71.27.27,0,0,0,0,.24s.07.12.12.06a4.78,4.78,0,0,1,.69-.67,4.32,4.32,0,0,1,.4-.28l.2-.12a1.45,1.45,0,0,0,.2-.11l.85.35a29.08,29.08,0,0,0,3.49,1.1,3.54,3.54,0,0,0-.18,4.08,5.2,5.2,0,0,0,.43.59,4.23,4.23,0,0,0,.64,1.06,4.65,4.65,0,0,0,1.75,1.28h0c.09.49.14,1,.23,1.48,0,.24.09.47.15.7s.07.24.12.36a.79.79,0,0,0,.15.29c.08.08.11-.11.1-.16,0-.23-.15-.45-.21-.68a6.6,6.6,0,0,1-.15-.68c-.07-.41-.12-.83-.19-1.25a3.67,3.67,0,0,0,1.74.22,6.73,6.73,0,0,0,3.07-1.45,8.9,8.9,0,0,0,1-.94,5.75,5.75,0,0,0,.9-.76,2.41,2.41,0,0,0,.71-1.64,2,2,0,0,0-.51-1.34l2,0c2,0,3.92.13,5.88.11a18,18,0,0,0,5.41-.77s0,.06,0,.08v.08l0,.11c0,.15-.08.3-.1.45a1.35,1.35,0,0,0,0,.44c0,.12.06.29.2.31s.06-.07.07-.09a.25.25,0,0,0,0-.17l-.07-.12h0v0h0s0,0,0-.06V151a6,6,0,0,0,.16-.74s0,0,0-.06l.73-.27a.28.28,0,0,0,0,.07c0,.21-.07.42-.09.63a2.58,2.58,0,0,0,0,.33.57.57,0,0,0,.08.35c.06.07.11,0,.12-.09a.59.59,0,0,0,0-.12V151s0,0,0,0,0,0,0-.06,0,0,0-.08v0s0-.09,0-.14.06-.39.08-.58a.27.27,0,0,0,0-.21l.76-.32a4.79,4.79,0,0,0-.16.54,2,2,0,0,0,0,.31.7.7,0,0,0,0,.14.26.26,0,0,0,.06.15.09.09,0,0,0,0,0c.09,0,.1-.15.08-.21v0s0,0,0,0v0a.29.29,0,0,0,0,0h0l0-.11v-.09c0-.17.09-.33.15-.5a.3.3,0,0,0,0-.23l1.25-.57a.3.3,0,0,0,0,.24l0,.15v0h0v.15s0,.05,0,.08,0,.11,0,.16,0,.14.06.16.09,0,.09-.08a1.1,1.1,0,0,0,0-.24,1.84,1.84,0,0,0,0-.21,1.63,1.63,0,0,0-.09-.37.15.15,0,0,0-.05-.08h0l1.1-.52h0m-59.85-5.68,0-.07A6.18,6.18,0,0,0,14,140a7.28,7.28,0,0,1,.05.78,5.87,5.87,0,0,1-.05.81.22.22,0,0,0-.18.15c-.14.33-.28.67-.44,1m32.49,8.13a5.46,5.46,0,0,0-.26,1.49,2.12,2.12,0,0,1-.06-.25,1.67,1.67,0,0,1,.33-1.25m28.08-2.56-.21.34a.43.43,0,0,0-.09-.15l-.06,0a.19.19,0,0,0,0-.09c-.06-.06-.11,0-.13.07v.05l0,0a.2.2,0,0,0,0-.13l.4-.19L74,148a1.18,1.18,0,0,0-.06.25"/></g></g></svg>