<svg xmlns="http://www.w3.org/2000/svg" viewBox="0 0 64.56 154.85"><defs><style>.cls-1{fill:#231f20;}.cls-2{fill:#fff;}.cls-3{fill:none;stroke:#231f20;stroke-miterlimit:10;}</style></defs><title>planet 2</title><g id="Layer_2" data-name="Layer 2"><g id="Layer_1-2" data-name="Layer 1"><path class="cls-1" d="M34.88,93.92v0c0,.06,0,.07,0,0"/><path class="cls-1" d="M37.3,2.1l0-.11,0,.11"/><path class="cls-1" d="M33.27,90.22c0-.13,0-.26,0-.38,0-.66,0-1.32,0-2a.88.88,0,0,0,0-.52c-.09-2.42-.26-4.83-.34-7.25-.22-6.51-.07-13,.05-19.55.24-13.15.41-26.29.36-39.43,0-6.3-1.84-12.89,0-19.09.08-.26.11-.76-.12-1A.23.23,0,0,0,32.86,1a1.21,1.21,0,0,0-.25-.53A1.56,1.56,0,0,0,31.67,0a1.48,1.48,0,0,0-1,.15,1.64,1.64,0,0,0-.56,1.7.86.86,0,0,0,.16.42.22.22,0,0,0,.27.07.85.85,0,0,0,.25-.78h0a.94.94,0,0,1,.27-.14,1.6,1.6,0,0,1,.71,0,1.36,1.36,0,0,1,.4.2,1.18,1.18,0,0,0,0,.33V2a1.37,1.37,0,0,0,.1.2l0,0c-1.27,5.34-.24,10.93.1,16.32.19,3.1.09,6.23.09,9.34,0,3.29,0,6.59,0,9.88,0,6.61-.17,13.22-.3,19.82,0,.06,0,.12,0,.18a2.31,2.31,0,0,0-.3.41l-.46.71-.2.32h0l-.06.09-.1.15c-.15.22-.3.43-.46.64a1.09,1.09,0,0,0-.12.94.51.51,0,0,0,.21.32.21.21,0,0,0,.26-.07c.34-.44.64-.9.93-1.36l.29-.45q0,1,0,2.08a.13.13,0,0,0-.13,0,4.87,4.87,0,0,0-1,1.06c-.3.41-.59.84-.86,1.27a1,1,0,0,0-.1.49,1.08,1.08,0,0,0,.1.49c0,.09.13.21.25.2s.18-.11.25-.2,0,.05,0,0l0-.07.1-.16.19-.28.42-.59c.23-.33.48-.66.7-1,0,.77,0,1.53,0,2.3l-.27.37-.41.55c-.3.39-.6.79-.86,1.21a1.05,1.05,0,0,0-.1.49,1.09,1.09,0,0,0,.1.49c0,.09.13.21.25.2s.19-.11.25-.2l0,0,0,0,.1-.14.21-.28.42-.55.26-.36c0,.54,0,1.08,0,1.62a2.83,2.83,0,0,0-.3.38l-.32.47c-.22.32-.44.63-.68.93a.89.89,0,0,0-.16.42,1.29,1.29,0,0,0,0,.54c0,.11.09.27.21.32a.22.22,0,0,0,.27-.07q.37-.47.7-1l.24-.37c0,.65,0,1.3,0,1.94a.15.15,0,0,0-.18.07c-.12.18-.21.37-.32.55l-.08.14,0,.06,0,0-.05.08h0l-.09.14c-.26.38-.54.74-.79,1.13a1,1,0,0,0-.1.49,1.07,1.07,0,0,0,.1.49c0,.08.13.21.24.2s.18-.11.24-.2,0,.06,0,0l0-.06.09-.13.19-.26.39-.54a5.71,5.71,0,0,0,.39-.65c0,.39,0,.78,0,1.17a2.5,2.5,0,0,0-.15.29l-.19.41c-.13.27-.26.54-.4.8-.29.54-.61,1.07-.94,1.59a1.05,1.05,0,0,0,0,.92c.13.25.32.22.46,0,.33-.54.67-1.07,1-1.63l.27-.54c0,.32,0,.63,0,.95s0,.47,0,.7a6.12,6.12,0,0,0-.42.72l-.39.72c-.27.5-.55,1-.8,1.51a1,1,0,0,0,0,.88c.11.22.33.23.44,0,.25-.51.53-1,.8-1.5.14-.26.29-.51.42-.78,0,.77,0,1.54.08,2.3h0c-.12,0-.2.18-.27.27l-.23.3-.46.63a10.62,10.62,0,0,1-1,1.17.65.65,0,0,0-.13.34,1,1,0,0,0,0,.43c.06.18.2.38.39.2a10.53,10.53,0,0,0,1-1.19L32,83.6c.1-.14.21-.28.31-.43,0,.44,0,.88.06,1.32a.16.16,0,0,0-.11.07,5.71,5.71,0,0,0-.41.64l-.18.3-.1.16,0,.07h0a7.94,7.94,0,0,1-.95,1.18.81.81,0,0,0-.16.42,1.25,1.25,0,0,0,0,.54c.07.22.25.48.48.25a8,8,0,0,0,1-1.22,6.79,6.79,0,0,0,.55-1c0,.57.06,1.15.08,1.72l-.23.34c-.2.28-.39.56-.6.83a16.35,16.35,0,0,1-1.35,1.58,1.06,1.06,0,0,0-.12,1c.07.22.25.48.48.25A13.31,13.31,0,0,0,32,89.95c.17-.25.35-.5.52-.76,0,.35,0,.7,0,1.05a2.3,2.3,0,0,0-.24.24,7.88,7.88,0,0,0-.7,1l-.34.56-.09.14v0h0l-.18.27a4.46,4.46,0,0,1-.36.45l-.18.17-.07.05-.11.07c-.26.16-.29.59-.24.86s.17.65.43.49A5.49,5.49,0,0,0,32,92.67l.32-.52,0-.06.08-.12.11-.15v0c0,.46,0,.92,0,1.39,0,.17,0,.34,0,.51s0,.51,0,.19c0,.19.05.64.32.64s.32-.46.32-.64c0,.31,0,0,0-.13s0-.24,0-.37c0-.39,0-.79,0-1.18V91a.81.81,0,0,0,0-.78"/><path class="cls-1" d="M31.15,46.47h0l.06-.1-.07.11"/><path class="cls-1" d="M30.8,48.88a.15.15,0,0,0-.18,0,2.88,2.88,0,0,0-.58.7l-.12.2V48.56l.07-.1c.16-.27.33-.53.5-.8s.17-.26.24-.4a2,2,0,0,0,.23-.69,1,1,0,0,0,0-.47c0-.08-.1-.23-.21-.21l-.11,0a.6.6,0,0,0-.1.09l-.1.11c-.09.11-.16.23-.23.34l-.25.38V45.58a.41.41,0,0,0,.07-.1,10.22,10.22,0,0,1,.54-1,2.76,2.76,0,0,0,.55-1.3c0-.18,0-.46-.25-.51s-.2.1-.26.16l-.16.19-.3.43c-.07.11-.12.23-.19.34q0-1,0-2c0-6.39.18-12.79-.22-19.17-.11-1.77-.29-3.52-.27-5.29s.17-3.57.3-5.36a41.54,41.54,0,0,0-.08-10.24c-.11-.66-.56-.21-.48.27,1.05,6.16-.64,12.38-.13,18.57.53,6.36.37,12.75.37,19.13q0,4,0,8a1.81,1.81,0,0,0,0,.21,1.53,1.53,0,0,0,0,.22v2.49a1.4,1.4,0,0,0,0,.27,1.46,1.46,0,0,0,0,.28q0,2.85,0,5.7s0,0,0,0a1.22,1.22,0,0,0,0,.54l0,.05q0,.69,0,1.38c0,6.38.08,12.78-.11,19.16-.05,1.74-.12,3.47-.17,5.21s0,3.52-.16,5.28a45.2,45.2,0,0,0-.13,5.31s0,0,0-.07,0,0,0,.07a.19.19,0,0,1,0,0V94c0,.22.21.75.43.35a.78.78,0,0,0,.07-.36h0s0,0,0,0,0,0,0,0,0,0,0,0a38.8,38.8,0,0,1,.06-4.34c.22-3,.21-6.08.32-9.13.22-6.4.19-12.82.18-19.22,0-1.12,0-2.24,0-3.36a.4.4,0,0,0,.05-.07c.07-.17.14-.34.23-.5a2.44,2.44,0,0,0,.28-.79,1,1,0,0,0-.05-.5c0-.09-.11-.24-.23-.23l-.11,0a.49.49,0,0,0-.11.09l-.07.08V55a.16.16,0,0,0,.14,0,.56.56,0,0,0,.21-.32c.07-.21.15-.41.23-.62s.07-.21.11-.31.08-.3.11-.46a1,1,0,0,0,0-.3.71.71,0,0,0-.1-.29.23.23,0,0,0-.13-.11.17.17,0,0,0-.18.07,2.17,2.17,0,0,0-.35.59l0,.1q0-.88,0-1.76l.07-.1a7.2,7.2,0,0,1,.37-.62,4,4,0,0,0,.58-1.13,1,1,0,0,0,0-.62.4.4,0,0,0-.11-.17"/><ellipse class="cls-2" cx="32.27" cy="122.45" rx="31.78" ry="31.77"/><path class="cls-2" d="M.5,122.44a31.78,31.78,0,1,1,31.78,31.78A31.78,31.78,0,0,1,.5,122.44"/><circle class="cls-3" cx="32.28" cy="122.44" r="31.78"/><path class="cls-1" d="M14.18,147.9a.66.66,0,0,0,0-.31c0-.07-.1-.22-.19-.16a.36.36,0,0,0-.13.15c-.16-.3-.33-.6-.48-.91s-.18-.35-.26-.53l-.12-.27-.06-.15,0-.07v0a.38.38,0,0,0-.14-.22.15.15,0,0,0-.19,0,.76.76,0,0,0-.09.66,18.59,18.59,0,0,0,1.08,2.22.47.47,0,0,0,.23.24.59.59,0,0,0,.17,0c.18,0,.25-.18.27-.33a1,1,0,0,0,0-.4"/><path class="cls-1" d="M16,148a1.51,1.51,0,0,1-.25-.12l0,0,0,0-.1-.09-.1-.12-.06-.09a3,3,0,0,1-.16-.31l0-.09,0-.05-.06-.16c0-.13-.08-.26-.12-.4s-.15-.57-.21-.85-.19-.33-.33-.17a.77.77,0,0,0-.09.66,9.22,9.22,0,0,0,.55,1.8c.18.38.55,1,1.05.72.11-.06.13-.23.13-.34s0-.3-.13-.34"/><path class="cls-1" d="M17.39,149.43c0-.1-.13-.2-.23-.09l0,0,0,0-.06,0h0l0,0h0l0,0-.07-.14,0-.06h0l-.06-.19-.05-.2,0-.1v0h0q0-.25-.09-.49c0-.32-.09-.64-.12-1q0-.24,0-.49v-.26c0-.14,0-.48-.24-.48s-.25.35-.24.48c0,.67.1,1.34.21,2a8.2,8.2,0,0,0,.23,1.1,1.22,1.22,0,0,0,.42.73c.27.16.49-.12.59-.34a.62.62,0,0,0,0-.47"/><path class="cls-1" d="M19.49,150.14a1.8,1.8,0,0,1-.28-.62,5.64,5.64,0,0,1-.19-1c-.09-.74-.11-1.49-.2-2.23,0-.14-.11-.41-.3-.34s-.19.44-.17.59c.09.8.11,1.61.22,2.42a6,6,0,0,0,.25,1.17,1.09,1.09,0,0,0,.27.5.7.7,0,0,0,.25.17c.29.08.25-.52.14-.65"/><path class="cls-1" d="M18.19,149.76q-.08-.52-.15-1c-.1-.72-.21-1.43-.29-2.15,0-.14-.11-.42-.3-.34s-.19.44-.17.59c.08.73.19,1.45.29,2.18q.08.52.15,1a2.12,2.12,0,0,0,.18.7c0,.09.12.15.21.08a.48.48,0,0,0,.12-.36,3.65,3.65,0,0,0-.06-.7"/><path class="cls-1" d="M21.18,150.28c0-.12,0-.33-.1-.41s-.17,0-.2.1c0-.1-.08-.21-.11-.31-.1-.33-.19-.67-.26-1-.15-.69-.24-1.39-.33-2.09,0-.14-.11-.42-.3-.34s-.19.44-.17.59c.11.78.21,1.55.38,2.32a6.58,6.58,0,0,0,.76,2.17c.16.25.32-.18.34-.27,0-.26,0-.51,0-.76"/><path class="cls-1" d="M23.87,151.53c0-.09,0-.3-.14-.33s-.17.15-.18.24v0c-.12-.59-.25-1.18-.35-1.77a26.7,26.7,0,0,1-.33-2.76c0-.14,0-.48-.24-.48s-.25.35-.24.48a36.12,36.12,0,0,0,.91,5.88c0,.12.19.35.32.17a2.31,2.31,0,0,0,.25-1.47"/><path class="cls-1" d="M25.1,152h0v0c0-.06,0,0,0-.06l-.07-.31,0-.21c-.1-.5-.16-1-.22-1.53-.11-1-.18-2-.25-3,0-.14-.11-.41-.3-.34s-.18.44-.17.59c.08,1.1.15,2.2.28,3.29a12.14,12.14,0,0,0,.26,1.6,1.8,1.8,0,0,0,.11.33l.07.12,0,0c.07.11.15.23.29.23s.22-.62,0-.72"/><path class="cls-1" d="M26.82,152.69c0-.11,0-.31-.09-.38s-.17,0-.2.13h0c0-.22-.09-.45-.12-.67-.07-.48-.13-1-.18-1.45-.11-1-.21-2-.4-3,0-.14-.1-.42-.3-.34s-.2.44-.17.59c.2,1,.3,2,.41,3.06.06.5.12,1,.19,1.51a6.49,6.49,0,0,0,.35,1.51c0,.07.13.17.21.11a.77.77,0,0,0,.33-.53c0-.2-.05-.39,0-.59"/><path class="cls-1" d="M28.45,152.7c0-.12,0-.34-.1-.41a.11.11,0,0,0-.14,0c0-.17-.08-.33-.11-.51-.07-.43-.12-.87-.17-1.3a13.15,13.15,0,0,0-.51-2.7c-.05-.15-.17-.32-.33-.17a.74.74,0,0,0-.09.66,13.18,13.18,0,0,1,.49,2.7c.05.45.11.9.19,1.34a4.72,4.72,0,0,0,.38,1.34c.12.22.3.12.35-.09a2,2,0,0,0,.06-.47c0-.13,0-.26,0-.39"/><path class="cls-1" d="M29.84,154.29c0-.41,0-.82-.07-1.23,0-.09-.06-.24-.17-.22l0,0v0c-.09-.46-.16-.91-.24-1.37-.16-1-.33-1.91-.55-2.85,0-.16-.18-.31-.33-.17a.76.76,0,0,0-.09.66c.22.94.37,1.88.54,2.83.08.46.16.91.25,1.37a8.16,8.16,0,0,0,.35,1.44.16.16,0,0,0,.27.07.67.67,0,0,0,.1-.51"/><path class="cls-1" d="M34.59,153.46h0v0h0a1,1,0,0,0,0-.15c0-.1-.06-.2-.1-.3l-.27-.82a18.58,18.58,0,0,0-.62-1.76c-.08-.18-.26-.16-.34,0a.83.83,0,0,0,0,.68l.08.18,0,.06,0,.08.16.44c.1.3.2.61.3.91s.18.57.3.84a1.1,1.1,0,0,0,.16.31l.05,0h0l.09.08c.1.06.17-.09.19-.16a.62.62,0,0,0,0-.4"/><path class="cls-1" d="M36.17,153.38a1.23,1.23,0,0,1-.16-.16l-.08-.11c0,.05,0,0,0-.07l-.06-.12,0-.07h0c0-.11-.07-.22-.1-.34l0-.18h0l0-.11q0-.2-.06-.4c0-.15,0-.3,0-.45h0v-.12c0-.08,0-.16,0-.25s0-.48-.24-.48-.24.35-.24.48a8.67,8.67,0,0,0,.26,2c.09.33.33,1.06.79,1,.23,0,.22-.53.09-.65"/><path class="cls-1" d="M37.3,153.71h0Z"/><path class="cls-1" d="M37.54,153.71c0-.08-.13-.14-.2-.05l0,0h0c0-.19-.11-.39-.16-.58l0-.09v0l0-.2c0-.15-.05-.29-.07-.44s-.08-.57-.11-.85c0-.12,0-.24,0-.35s0-.1,0-.15c0,.19,0,0,0,0s0-.48-.24-.48-.25.35-.24.48a16.51,16.51,0,0,0,.18,1.67c0,.32.11.64.18,1s.12.59.3.71.13.15.24.15.25-.22.3-.36a.56.56,0,0,0,0-.41"/><path class="cls-1" d="M39.2,153.37c0-.11,0-.26-.16-.29H39l-.09-.05-.1-.06,0,0h0l-.15-.17,0,0h0v0l-.05-.09-.06-.13v0c0,.07,0,0,0,0s-.06-.2-.09-.31l0-.08c0,.13,0,0,0,0l0-.18c0-.14,0-.27,0-.41s-.11-.43-.3-.34-.18.42-.17.59a4.25,4.25,0,0,0,.41,1.63,1,1,0,0,0,.42.47.51.51,0,0,0,.26.05l.07,0h0l.15-.05c.11-.06.13-.26.12-.36"/><path class="cls-1" d="M38.53,152.7v0h0"/><path class="cls-1" d="M40.24,152.65v0l0-.07h0v0l0-.11v0l0-.07-.08-.22c-.05-.16-.1-.32-.14-.48l0-.13,0-.08v-.11l0-.14a.58.58,0,0,0-.11-.29.15.15,0,0,0-.19,0c-.18.11-.2.42-.17.59a6.07,6.07,0,0,0,.31,1.2,2.81,2.81,0,0,0,.2.45.37.37,0,0,0,.11.12h0l0,0a.18.18,0,0,0,.15,0c.08,0,.11-.17.12-.24a.57.57,0,0,0,0-.31"/><path class="cls-1" d="M41.56,152.11q-.22-.6-.47-1.19a.22.22,0,0,0-.17-.14c-.08,0-.14.08-.17.14a.85.85,0,0,0,0,.68l.22.54.19.49,0,.12.05.14v0l.12.31a1.43,1.43,0,0,0,.25.49c.18.17.27-.18.26-.3a4.09,4.09,0,0,0-.34-1.31"/><path class="cls-1" d="M43.72,152.38l-.15-.36-.07-.16v0l0-.09c-.08-.23-.16-.45-.22-.68s-.16-.28-.27-.14a.64.64,0,0,0-.07.54,4.22,4.22,0,0,0,.63,1.43c.08.11.18,0,.21-.08a.57.57,0,0,0,0-.43"/><path class="cls-1" d="M8.07,128.19c0-.32-.05-.64-.08-1,0-.08,0-.2-.13-.23-.34-1.83-.77-3.64-1.15-5.46,0-.14-.1-.42-.3-.34s-.2.44-.17.59c.45,2.22,1,4.42,1.35,6.65,0,.14.1.41.29.33s.19-.44.17-.59"/><path class="cls-1" d="M15.63,124.54h-.11l0,0c-.08-.22-.14-.45-.21-.68-.21-.66-.48-1.3-.66-2-.37-1.38-.58-2.8-.95-4.18,0-.16-.18-.32-.33-.17a.75.75,0,0,0-.09.66c.42,1.55.62,3.14,1.09,4.68.21.67.46,1.34.68,2,.11.33.35.76.68.37.09-.1.16-.71-.09-.67"/><path class="cls-1" d="M25.77,114.53s0-.07,0-.08a.59.59,0,0,1,0,.06h0"/><path class="cls-1" d="M26.08,111.38l0,0h0l0,0v0l0-.08-.07-.14,0-.08,0-.06c-.05-.13-.09-.27-.13-.4a20.44,20.44,0,0,1-.46-2.09c-.07-.35-.13-.7-.21-1.05,0-.16-.19-.32-.33-.17a.77.77,0,0,0-.09.66h0l0,.08,0,.24.1.51c.08.43.17.86.26,1.29s.17.76.29,1.13a2,2,0,0,0,.39.84.33.33,0,0,0,.57-.07c.07-.11.07-.71-.17-.58"/><path class="cls-1" d="M27.09,110.46c0-.12,0-.32-.1-.4s-.15,0-.19.08l0-.17c-.09-.35-.15-.7-.22-1.06a20.83,20.83,0,0,0-.48-2.29c0-.15-.18-.33-.33-.17a.75.75,0,0,0-.09.66,21,21,0,0,1,.46,2.23c.07.38.15.77.24,1.15a3.52,3.52,0,0,0,.36,1c.18.28.35,0,.39-.2s0-.54,0-.82"/><path class="cls-1" d="M36.58,102.55s0,0,0,0h0v0"/><path class="cls-1" d="M36.55,102.15v0h0s0,0,0,0"/><path class="cls-1" d="M40.85,101.25h0v0h0"/><path class="cls-1" d="M7.68,102.14c0-.28-.06-.56-.09-.83a2.36,2.36,0,0,0-.16-.89c-.11-.2-.25-.09-.31.08a2.59,2.59,0,0,0,0,1c0,.27.05.54.08.8.06.54.11,1.07.12,1.61,0,.14,0,.48.24.48s.24-.35.24-.48c0-.59-.07-1.19-.13-1.78"/><path class="cls-1" d="M9.86,99.6a.14.14,0,0,0-.28,0,2.52,2.52,0,0,0-.1,1v2.74c0,.14,0,.47.24.48s.24-.35.24-.48v-2.74a2.52,2.52,0,0,0-.1-1"/><path class="cls-1" d="M11.83,103.25c-.08-.79-.29-1.56-.39-2.35a4,4,0,0,1,0-1,8.89,8.89,0,0,1,.35-1.15c0-.1,0-.71-.22-.56s-.48.81-.56,1.18a5.15,5.15,0,0,0-.06,1.44c.07.92.33,1.8.43,2.72,0,.14.11.41.3.34s.18-.44.17-.59"/><path class="cls-1" d="M13.69,103.14a15.4,15.4,0,0,1-.45-2.8c0-.44,0-.89-.05-1.33a6.07,6.07,0,0,0-.07-1.47c-.07-.24-.27-.23-.34,0a5.33,5.33,0,0,0-.07,1.58q0,.74.07,1.48a16.88,16.88,0,0,0,.5,3c0,.16.18.32.33.17a.75.75,0,0,0,.09-.66"/><path class="cls-1" d="M15.84,102.06a16.51,16.51,0,0,1-.43-3c0-.47-.06-.94-.07-1.41a4.4,4.4,0,0,0-.08-1.19c-.08-.25-.26-.23-.34,0a3.47,3.47,0,0,0-.06,1.25c0,.53,0,1.07.08,1.6a17.74,17.74,0,0,0,.48,3.24c0,.16.18.32.33.17a.75.75,0,0,0,.09-.66"/><path class="cls-1" d="M19.88,98.83a21.83,21.83,0,0,1-.5-3.07c-.06-.49-.11-1-.16-1.46A2.81,2.81,0,0,0,19,93.16c-.15-.23-.29,0-.32.17a4.92,4.92,0,0,0,.08,1.23c.06.51.11,1,.17,1.54a23.05,23.05,0,0,0,.54,3.22c0,.16.18.32.33.17a.75.75,0,0,0,.09-.66"/><path class="cls-1" d="M20.42,93.42v0"/><path class="cls-1" d="M21,98.14c-.07-.92-.2-1.84-.31-2.76L20.5,94l0-.27s0-.28,0-.25l0-.13h0v-.07a.61.61,0,0,0,0-.12c0-.07-.12-.16-.2-.11a.3.3,0,0,0-.09.11.92.92,0,0,0,0,.13h0c0,.07,0,.13,0,.2s0,.16,0,.24c0,.35.07.7.11,1,.11.88.21,1.75.31,2.63,0,.35.08.71.11,1.06,0,.14.11.41.3.34s.18-.44.17-.59"/><path class="cls-1" d="M20.4,93.29c0-.1,0-.1,0-.08v.07h0"/><path class="cls-1" d="M20,93.23c0-.16-.05.14,0,0"/><path class="cls-1" d="M26.45,91h0s0,0,0,0"/><path class="cls-1" d="M26.45,91h0s0,0,0-.06V91"/><path class="cls-1" d="M28.45,90.94h0"/><path class="cls-1" d="M56.28,101.3l-.32.34a.72.72,0,0,0,0-.28.35.35,0,0,0-.14-.17.82.82,0,0,0,0-.27c0-.13-.19-.35-.33-.17l-.15.21a.84.84,0,0,0,0-.22c0-.08-.14-.32-.27-.22l-.19.13c-.31-.44-.73-.84-1.08-1.26-.11-.13-.22,0-.28.07l0,0c-.09-.16-.25-.18-.34,0a2.72,2.72,0,0,0-.15,1.18,5.87,5.87,0,0,1-.07,1.35A5.25,5.25,0,0,1,51,104.55,19.84,19.84,0,0,1,44.67,108c-3.17,1.13-6.52,1.82-9.47,3.51-.31.18-.62.37-.92.57l-.29.07a5.49,5.49,0,0,0-2,1.18,11.36,11.36,0,0,0-2.1,2.45,8.68,8.68,0,0,0-.67.72,9.35,9.35,0,0,0-1.9,7.12s0,.08,0,.11a9.14,9.14,0,0,0,0,1.89,5.06,5.06,0,0,0,1.42,3.06c.15.15.24,0,.28-.17.1,0,.19-.15.22-.24a19.29,19.29,0,0,1,3.22-6.4,11.5,11.5,0,0,1,4.71-3.29,41.31,41.31,0,0,1,7.14-1.78,13.52,13.52,0,0,0,7.76-4.55,9.65,9.65,0,0,0,1.4-2.32c0,.07,0,.13.1.13s.14-.37,0-.41c.19-.45.37-.92.53-1.39a17.93,17.93,0,0,1,1.6-4,5.3,5.3,0,0,1,.59-.75.74.74,0,0,0,.09-.66.52.52,0,0,0-.07-.14h0a.78.78,0,0,0,.11-.5l.13-.2c.11-.18,0-1-.28-.73m-6.67,8.18c0,.07,0,.08,0,0s0-.09,0-.14,0,0,0,0l0-.07a.56.56,0,0,0,0-.32l.12-.06c0,.33,0,.65,0,1v1l0-.08-.08-.34,0-.09,0-.14q0-.14,0-.28l0-.16h0v0c0-.06,0-.19,0-.25M44.39,109l.84-.3v0c-.55.2-1.11.4-1.67.56l.84-.27m-15.22,17.7-.2.59c-.12-.18-.23-.36-.34-.54a20.64,20.64,0,0,1-.8-3.15c0-.34.11-.68.19-1a14.68,14.68,0,0,1,.57-1.82c0,.3,0,.6,0,.9a13,13,0,0,0,.32,4c0,.16.18.32.33.17a.75.75,0,0,0,.09-.66,12.71,12.71,0,0,1-.24-3.87c0-.51,0-1,0-1.54.19-.32.4-.62.62-.92,0,.07,0,.14,0,.21q0,.9.05,1.8.07,1.81.21,3.62a.6.6,0,0,0,.05.2c-.3.67-.57,1.36-.82,2m1.2-2.86c-.07-1-.13-2.08-.17-3.12q0-.84,0-1.69c0-.28,0-.55,0-.83l.41-.48q0,.35,0,.71c0,.89.14,1.78.15,2.67,0,.14,0,.47.24.48s.24-.35.24-.48c0-.84-.1-1.67-.14-2.5a12.17,12.17,0,0,1,0-1.22c0-.06,0-.13,0-.19l.45-.44c0,.08,0,.17,0,.25,0,.48,0,1,0,1.44a10.7,10.7,0,0,0,.35,2.91l0,.07a15.34,15.34,0,0,0-1.49,2.43m2.21-3.28-.31.35v-.05a9.33,9.33,0,0,1-.29-2.62c0-.45,0-.89,0-1.34,0-.2,0-.41,0-.62.28-.25.56-.48.85-.71,0,.44,0,.89.09,1.33a20.26,20.26,0,0,0,.49,2.83,10.38,10.38,0,0,0-.87.83m1.31-1.19s0-.08,0-.12a18.62,18.62,0,0,1-.44-2.61q-.06-.65-.08-1.3s0-.09,0-.14q.46-.34.93-.66a5.14,5.14,0,0,0,.16,1.27,15.76,15.76,0,0,1,.6,2.47.58.58,0,0,0,.09.26,11.94,11.94,0,0,0-1.24.84m1.61-1a1.52,1.52,0,0,0,0-.3,11.47,11.47,0,0,0-.54-2.27,4.9,4.9,0,0,1-.21-1,1.84,1.84,0,0,1,.05-.51q.68-.44,1.4-.83c0,.13-.06.26-.08.38A6.92,6.92,0,0,0,36,115a9.92,9.92,0,0,0,.37,2.56.35.35,0,0,0,.15.22c-.36.16-.72.33-1.07.52m2-.91-.76.3a.82.82,0,0,0,.05-.61,8.06,8.06,0,0,1-.3-2,6.58,6.58,0,0,1,.26-1.86.86.86,0,0,0,0-.17c.34-.17.68-.33,1-.48l0,.14a4.86,4.86,0,0,0-.1,1.53,14.56,14.56,0,0,0,.6,2.8.46.46,0,0,0,0,.1l-.8.27m3.32-.94c-.71.16-1.43.34-2.13.55a1,1,0,0,0,0-.47,15.15,15.15,0,0,1-.53-2.29,3.32,3.32,0,0,1,0-1,3.75,3.75,0,0,1,.43-1l.52-.18c0,.1,0,.2-.06.3a7.08,7.08,0,0,0-.1,1.38,10.44,10.44,0,0,0,.39,2.73c0,.15.18.32.33.17a.75.75,0,0,0,.09-.66,8.6,8.6,0,0,1-.32-2.18,6.05,6.05,0,0,1,.06-1.08c0-.29.19-.57.23-.86l.8-.23a5.34,5.34,0,0,0,0,1.24,7.33,7.33,0,0,0,.77,2.61c.09.18.25.16.34,0a.81.81,0,0,0,0-.68,6.14,6.14,0,0,1-.63-2,3.39,3.39,0,0,1,0-.93,2.76,2.76,0,0,1,.09-.35l.33-.09.79-.2a2.24,2.24,0,0,0-.15.36,4.66,4.66,0,0,0-.18,1.46,11.47,11.47,0,0,0,.43,2.91.39.39,0,0,0,.11.19c-.53.1-1.06.2-1.59.32m11.58-5.93a11.61,11.61,0,0,1-3.28,3.25A13.06,13.06,0,0,1,45,115.66c-.76.19-1.54.33-2.31.47a.8.8,0,0,0,.06-.63,10,10,0,0,1-.36-2.26,2,2,0,0,1,.51-1.75.69.69,0,0,0,.09-.44l.58-.15c0,.13,0,.26,0,.39a15.25,15.25,0,0,0,.88,3.6c.05.15.17.33.33.17a.74.74,0,0,0,.09-.66,13.48,13.48,0,0,1-.84-3.64l.61-.16,0,.14a4.39,4.39,0,0,0,0,1.35,21.57,21.57,0,0,0,.64,2.52c0,.15.18.32.33.17a.76.76,0,0,0,.09-.66c-.18-.68-.42-1.35-.55-2a3.75,3.75,0,0,1-.08-.89,2.25,2.25,0,0,1,.23-.76l.67-.19a5.49,5.49,0,0,0-.05,1.59,19,19,0,0,0,.43,2.24c0,.16.19.32.33.17a.77.77,0,0,0,.09-.66c-.13-.61-.29-1.21-.36-1.83a4.24,4.24,0,0,1,0-.79,3,3,0,0,1,.08-.47l.13.09a6.28,6.28,0,0,0,.05,1.06c.11.91.33,1.8.52,2.7,0,.16.19.32.33.17a.77.77,0,0,0,.09-.66c-.16-.74-.34-1.48-.44-2.24a4.81,4.81,0,0,1-.06-1h0v-.21l0-.09,0-.11.09-.16a.48.48,0,0,0,0-.2l.3-.1a1.72,1.72,0,0,0-.08.37,5.7,5.7,0,0,0,.06,1.3c.11.85.3,1.69.4,2.54,0,.14.11.42.3.34s.19-.44.17-.59c-.09-.75-.26-1.5-.36-2.25,0-.2-.05-.39-.07-.59v-.17c0-.08,0-.16,0-.23s0-.07,0-.11h0c0-.14,0-.16,0-.05v0s0-.05,0-.08c0,.12,0,0,0,0l0,0a.67.67,0,0,0,.07-.55l.7-.26a6.32,6.32,0,0,0-.05,1.71,8.7,8.7,0,0,0,.33,2c0,.14.18.33.33.17a.76.76,0,0,0,.09-.66A6.81,6.81,0,0,1,49.2,111c0-.21,0-.43,0-.65l0,.2a13.65,13.65,0,0,0,.37,1.44c0,.14.18.33.33.17h0a.18.18,0,0,0,.14.08c.2,0,.24-.35.24-.48v-1.84c0-.26,0-.52,0-.78.06,0,.12,0,.14-.1a.56.56,0,0,0,0-.41h0l.71-.41a16.21,16.21,0,0,1,0,2.62c0,.17,0,.5.17.59s.28-.21.3-.34a16.7,16.7,0,0,0,0-2.67l.18.13c.11.1.19,0,.22-.12a.53.53,0,0,0-.06-.45,1.72,1.72,0,0,0-.18-.21,11,11,0,0,0,1.1-.89,20.19,20.19,0,0,1-.67,3,.73.73,0,0,0,.09.66l.06,0h0m2-5,0,.1-.26.74a26.94,26.94,0,0,1-1.27,3.36c.11-.39.19-.79.26-1.18,0-.25.09-.5.13-.75.11,0,.17-.12.2-.2a1.67,1.67,0,0,0,0-1.12l0-.1a8.89,8.89,0,0,0,1.35-1.8,7.25,7.25,0,0,0-.32.95"/><path class="cls-1" d="M64.22,116c-.09-.16-.26-.19-.34,0-.3.74-.6,1.49-.89,2.23,0-.3,0-.6-.06-.89a20.93,20.93,0,0,0-.3-2.26c-.28-1.49-.67-3-1.06-4.42,0-.16-.18-.32-.33-.17a.75.75,0,0,0-.09.66c.36,1.37.74,2.75,1,4.14.13.69.23,1.39.29,2.09s0,1.4,0,2.1c-1.39-2.69-1.3-5.92-2-8.83,0-.16-.18-.31-.33-.17a.76.76,0,0,0-.09.66c.39,1.64.53,3.33.82,5a19.34,19.34,0,0,0,.61,2.57,9.09,9.09,0,0,0,.67,1.6q-.29.72-.58,1.43l-.09-.24c-.09-.23-.19-.18-.25,0-.09-.24-.18-.49-.26-.74a21.83,21.83,0,0,1-.51-2.15c-.29-1.53-.48-3.07-.69-4.61-.11-.79-.22-1.58-.36-2.36,0-.14-.1-.42-.3-.34s-.19.44-.17.59c.55,3,.7,6.16,1.55,9.15a12,12,0,0,0,.62,1.78l-.31.68-.09-.17c0-.11,0-.24,0-.36s-.06-.27-.19-.24a.11.11,0,0,0-.06,0,10,10,0,0,1-.58-1.52,19.88,19.88,0,0,1-.53-2.57c-.26-1.72-.38-3.46-.72-5.16,0-.14-.1-.42-.3-.34s-.2.44-.17.59c.36,1.78.48,3.6.76,5.39a20.25,20.25,0,0,0,.59,2.74,9,9,0,0,0,1,2.29c-.26.53-.53,1.05-.82,1.57a6.34,6.34,0,0,0,0-.64c0-.31-.3-.31-.34,0,0,0,0,.07,0,.11a19.75,19.75,0,0,1-1.1-3.44,39.25,39.25,0,0,1-.7-4.53c-.08-.8-.15-1.6-.21-2.4v0a37.58,37.58,0,0,1,2.22-4.29q.42-.67.89-1.3a.73.73,0,0,0,.11-.52l.11-.19a.78.78,0,0,0,0-.68c-.06-.11-.14-.15-.21-.12h0c-.1-.14-.24-.13-.32,0l0,0a.22.22,0,0,0-.1.06l0,0s0,0,0-.07h0v-.07c0-.14-.1-.81-.33-.57l0-.07c-.16-.16-.28,0-.33.17A14.56,14.56,0,0,1,57.81,110c-.55.89-1.1,1.78-1.59,2.71A50.59,50.59,0,0,1,53,118.2a58.92,58.92,0,0,1-4,5.09c-1.39,1.58-2.89,3.05-4.29,4.61a18.14,18.14,0,0,1-2,2,12.54,12.54,0,0,1-2.7,1.54c-1,.47-2,.9-3.06,1.34s-1.87.79-2.83,1.1a29.15,29.15,0,0,1-6,1.22,27,27,0,0,1-5.42.06,24.7,24.7,0,0,1-4.19-.8,11.39,11.39,0,0,1-3.87-1.72,3.51,3.51,0,0,1-.57-.55c-.1-.12-.21,0-.27.05l-.25-.22c-.21-.19-.33.11-.35.29a4.51,4.51,0,0,0,1.58,3.86,12.33,12.33,0,0,0,2.08,1.6l.06.13c.06.12.18.19.28.08.62.36,1.26.69,1.9,1a27.3,27.3,0,0,0,4.2,1.57,2.69,2.69,0,0,0,.32.7c.09.12.21,0,.26-.07a.74.74,0,0,0,0-.46,23,23,0,0,0,2.67.48.11.11,0,0,0,.11,0h0c.64.08,1.28.13,1.92.17a.45.45,0,0,0,.08.12c.12.13.21,0,.26-.1l1.23.06q1.53.06,3.07,0l0,0c.1.1.18.05.23,0a44.07,44.07,0,0,0,4.9-.45,25.69,25.69,0,0,0,7.07-2.15,38,38,0,0,0,6-3.53l.07,0h0l.59-.43q1.51-1.12,2.93-2.37a26.9,26.9,0,0,0,2.5-2.43,25.35,25.35,0,0,0,4-6.56c.13,0,.25-.14.27-.32a2.2,2.2,0,0,0,0-.33c.26-.61.51-1.23.75-1.84.12.12.27-.08.3-.2a1.65,1.65,0,0,0,.06-.43,2.09,2.09,0,0,0,0-.22l.79-2q.26-.67.53-1.33a.82.82,0,0,0,0-.68M54,117.89l0,.05c-.14.23-.27.47-.4.71l-.33.38q.39-.56.76-1.14M17.42,137v-.2a.52.52,0,0,0-.08-.39c-.07-.08-.17,0-.21.05a1,1,0,0,0-.08.25l-.3-.62-.11-.25-.06-.13,0-.09a4.47,4.47,0,0,1-.16-.51c0-.14-.19-.34-.33-.17a.78.78,0,0,0-.09.66,5.21,5.21,0,0,0,.18.57,5.69,5.69,0,0,1-2.51-3.06v-.07a17.19,17.19,0,0,0,4.32,2.7h0a.78.78,0,0,0-.09.66,3.69,3.69,0,0,0,.43,1.05h0c-.29-.15-.58-.31-.87-.48m3.44,1.64c-.45-.18-.9-.37-1.34-.57a.51.51,0,0,0,.07-.23c0-.12,0-.35-.13-.41l-.23-.11-.1-.06h0L19,137.2l-.1-.07,0,0h0l-.18-.19-.07-.1,0,0h0l0,0a2.58,2.58,0,0,1-.13-.25l-.06-.14h0l0-.07c0-.11-.07-.21-.1-.32l0-.05a19.21,19.21,0,0,0,2.26.78,1.28,1.28,0,0,0,0,.3,16.09,16.09,0,0,0,.5,1.75l-.18-.07m.91.34v-.1q0-.08,0-.17c0-.07,0,0,0,0s0-.06,0-.09a.43.43,0,0,0-.11-.33.11.11,0,0,0-.15,0c-.17-.49-.32-1-.44-1.49q.73.18,1.48.31h0a.76.76,0,0,0-.09.66c.16.53.31,1.06.48,1.59-.38-.12-.76-.24-1.14-.37m3.14.86c-.46-.08-.91-.19-1.36-.31-.07-.21-.14-.41-.21-.62-.17-.54-.33-1.09-.5-1.64a.48.48,0,0,0-.06-.13l.39.06c.5.07,1,.12,1.51.16h0a.75.75,0,0,0-.09.66,5.87,5.87,0,0,1,.21.82v0l0,.15.06.3.1.52h-.07m8.56.54-.11-.37q-.13-.43-.23-.87a14,14,0,0,1-.3-1.75c0-.13-.11-.42-.3-.34s-.19.43-.17.59a15.8,15.8,0,0,0,.34,1.92c.07.28.14.56.22.83h-1l-.06-.12-.12-.26,0-.05v0l0-.14,0-.09,0-.14s0-.09,0-.14,0-.05,0-.08,0-.1,0-.16v-.07l0-.16v-.16l0-.08.05-.17a.74.74,0,0,0-.09-.66c-.15-.17-.28,0-.33.17a4,4,0,0,0-.17,1.7,3.17,3.17,0,0,0,.14.62h-.74c-.1-.18-.22-.36-.3-.55a1.68,1.68,0,0,1-.09-.28v-.1s0-.1,0-.15,0-.06,0-.09,0-.11,0-.16V139l0-.17s0,0,0,0l0-.1.05-.2c0-.12.07-.23.12-.35a.84.84,0,0,0,0-.68c-.08-.16-.26-.19-.34,0a4.53,4.53,0,0,0-.37,2.07,3,3,0,0,0,.19.84l-.9,0,0-.1c0-.23-.08-.47-.11-.7a5.69,5.69,0,0,1,0-1.33c0-.17,0-.5-.17-.59s-.28.22-.3.34a7.65,7.65,0,0,0,0,1.78c0,.19,0,.37.08.56l-.22,0a7.85,7.85,0,0,0-.2-1.18q-.14-.63-.3-1.26c0-.15-.19-.33-.33-.17a.77.77,0,0,0-.09.66q.15.62.29,1.24l.06.3,0,.09,0,.2,0,.08-.84-.09a8.59,8.59,0,0,0-.14-.87,10.52,10.52,0,0,0-.39-1.44c0-.14-.18-.34-.33-.17a.75.75,0,0,0-.09.66c.08.22.15.44.21.67l.08.29,0,.2,0,.08c0,.17.06.35.08.52l-.84-.12c0-.08,0-.16,0-.24l-.11-.56c-.08-.41-.16-.81-.26-1.22a3.24,3.24,0,0,0-.11-.38.57.57,0,0,0-.1-.17,28.63,28.63,0,0,0,9.5-1.09l.12,0a4.81,4.81,0,0,0-.1,2.52,11.14,11.14,0,0,0,.32,1.22l.11.32-1.37.06m3.33-.23a.58.58,0,0,0,0-.13c0-.07,0-.15-.06-.22v0c0-.06,0-.12,0-.17l-.05-.21c-.09-.35-.19-.69-.28-1-.18-.71-.35-1.44-.6-2.13-.05-.14-.18-.33-.33-.17a.75.75,0,0,0-.09.66c.21.6.36,1.23.52,1.84l.25,1c0,.14.07.28.11.41a1.63,1.63,0,0,0,.11.31l-.93.08c-.06-.21-.14-.42-.21-.62-.12-.35-.22-.71-.3-1.07a3.31,3.31,0,0,1,.06-1.9.81.81,0,0,0,0-.55q.92-.28,1.82-.61a.82.82,0,0,0-.06.62c.16.71.22,1.53.41,2.27a3.69,3.69,0,0,0,.39,1A1.55,1.55,0,0,0,38,140l-1.22.16m1.57-.21a.7.7,0,0,0,0-.17.6.6,0,0,0-.09-.44,4.4,4.4,0,0,1-.57-.7,3.3,3.3,0,0,1-.29-.86c-.15-.65-.22-1.42-.37-2.12a.32.32,0,0,0-.15-.21c.56-.21,1.11-.44,1.65-.68a.89.89,0,0,0-.06.33,15.52,15.52,0,0,0,.43,3,13.83,13.83,0,0,0,.37,1.35l.09.3-1,.18M45,138a33.52,33.52,0,0,0-1.18-5.27c-.05-.15-.17-.32-.33-.17a.74.74,0,0,0-.09.66A30.93,30.93,0,0,1,44.49,138c0,.06,0,.13,0,.19-.75.32-1.52.62-2.3.87a1.14,1.14,0,0,0,0-.17c0-.07,0-.13,0-.19s0-.48-.2-.42l0,0c-.32-1.27-.51-2.57-.77-3.86,0-.14-.1-.42-.3-.34s-.2.44-.17.59c.24,1.22.41,2.45.7,3.65a3.25,3.25,0,0,0,.27.89c-.38.11-.77.22-1.16.31l-.51.11c-.07-.24-.18-.44-.27-.71s-.24-.84-.34-1.27a13.81,13.81,0,0,1-.38-2.57c0-.12,0-.36-.15-.45a36.78,36.78,0,0,0,5.88-3.38l.28-.2c.36,1.51.69,3,1,4.53l.25,1.09a3.49,3.49,0,0,0,.15.58c-.48.25-1,.49-1.46.71m8.63-5.43-.41.33a.52.52,0,0,0-.09-.26,2.74,2.74,0,0,1-.66-1.05,10.29,10.29,0,0,1-.37-1.84c-.16-1.24-.19-2.52-.48-3.74,0-.16-.18-.31-.33-.17a.76.76,0,0,0-.09.66c.27,1.15.29,2.6.48,3.86a9.53,9.53,0,0,0,.44,1.93,2.09,2.09,0,0,0,.61,1l-1.13.85c0-.14,0-.29,0-.43s-.19-.29-.28-.15a14.54,14.54,0,0,1-1-5.54c0-.17,0-.5-.17-.59s-.29.21-.3.34a16.57,16.57,0,0,0,1.2,6.79c-.44.3-.88.6-1.32.89a1.21,1.21,0,0,1,0-.19c0-.13,0-.38-.11-.46s-.21,0-.24.16h0a18.3,18.3,0,0,1-.94-5.58c0-.14-.11-.41-.3-.34s-.18.44-.17.59c.11,1.15.16,2.3.34,3.44a9.32,9.32,0,0,0,.8,2.76l-.74.45a1.86,1.86,0,0,1,0-.23c0-.12,0-.33-.1-.4s-.17,0-.2.1c-.1-.23-.19-.47-.27-.7a15.17,15.17,0,0,1-.43-1.56,10.62,10.62,0,0,1-.27-3c0-.17,0-.5-.17-.59s-.29.21-.3.34a12.7,12.7,0,0,0,.27,3.54,15.88,15.88,0,0,0,.46,1.71,11.09,11.09,0,0,0,.43,1.18l-.4.22L47,137a1.38,1.38,0,0,0,0-.15c0-.23-.05-.59-.22-.46l0,0c0-.06,0-.12,0-.18l-.18-.76-.37-1.63c-.23-1-.46-2-.7-3.07a33.09,33.09,0,0,0,6.9-6.73,40.79,40.79,0,0,1,1.8,6.68c0,.12.13.28.27.22s.18-.33.18-.46c0-.45,0-.91-.1-1.36,0-.18-.13-.25-.21-.2a32.53,32.53,0,0,0-1.55-5.42q.42-.59.82-1.2l.11-.18c.91,2.76.48,6,2.19,8.48-.73.69-1.49,1.34-2.26,2m2.75-2.45a6,6,0,0,0-.58-.93l0,0a11,11,0,0,1-.87-3.23,24.45,24.45,0,0,0-.85-4.42c.15-.25.28-.5.42-.75.92,3,1.39,6.14,2,9.22l-.13.14m.65-.69a9.1,9.1,0,0,0-.36-1.48.3.3,0,0,0-.07-.13,68.34,68.34,0,0,0-1.75-7.74c.29-.56.56-1.12.82-1.69a43.4,43.4,0,0,1,1,4.38c.16.81.3,1.63.45,2.44.05.29.1.58.15.87-.46-2.11-1.09-4.2-1.67-6.27,0-.16-.18-.32-.33-.17a.75.75,0,0,0-.09.66,65.49,65.49,0,0,1,2.12,8.77l-.32.36m1.39-1.71c-.19.27-.39.53-.59.78q0-.27,0-.55a.14.14,0,0,0,.15,0c.15-.11.15-.39.13-.54s0-.47-.06-.7a.29.29,0,0,0-.09-.2c-.1-.54-.22-1.09-.32-1.63-.15-.83-.3-1.66-.46-2.49a43.66,43.66,0,0,0-1.15-4.7c.29-.65.58-1.3.87-1.95a37.09,37.09,0,0,0,1.45,8.51,12,12,0,0,0,.92,2.25c-.26.42-.53.84-.82,1.25"/><path class="cls-1" d="M61.08,136c-.16-.16-.28,0-.33.17a5.13,5.13,0,0,1-1.08,1.55,7.46,7.46,0,0,1-.75.73c-.2.16-.42.26-.62.41a2.63,2.63,0,0,0-.4.54,6.46,6.46,0,0,1-.45.52,6.14,6.14,0,0,1-.94.79,14.13,14.13,0,0,1-2,1.08,15.72,15.72,0,0,0-1.81,1,9.31,9.31,0,0,0-2,.78c-.7.35-1.35.78-2,1.16A16.47,16.47,0,0,1,46,145.84a37.78,37.78,0,0,1-5.56,1.3,37.88,37.88,0,0,1-4,.53h0c-.68,0-1.37,0-2.06,0a7,7,0,0,1-.82-.14,10.85,10.85,0,0,1-2.71-1.14c-.14-.08-.22,0-.26.2a18,18,0,0,0-5-2.07,6.92,6.92,0,0,0-1.8-.15,9.94,9.94,0,0,0-1.61-.29c-3.09-.34-6.23.15-9.31-.29a11.82,11.82,0,0,1-2.64-.7,2.68,2.68,0,0,1-.48-.64c-.09-.17-.25-.17-.34,0h0c-.37-.25-.76-.49-1.14-.73a7.9,7.9,0,0,1-1.27-.9c-.31-.3-.44.6-.24.82a5.1,5.1,0,0,0,.94.73.64.64,0,0,0,.17.52,14.67,14.67,0,0,0,1.69.89l.06,0a4.6,4.6,0,0,0,.66.34,5.12,5.12,0,0,0,2.17.93,20.23,20.23,0,0,0,4.19.25c.9,0,1.8,0,2.7.11,0,0,0,.07.08.07a.09.09,0,0,0,.08-.06l1.6.14a1.11,1.11,0,0,0,0,.25,15.82,15.82,0,0,0,.32,3.28c.11.55.23,1.1.36,1.64a8.47,8.47,0,0,0,.42,1.52c.14.3.35,0,.37-.19a10.83,10.83,0,0,0,0-1.41c0-.09,0-.28-.14-.31s-.15.1-.17.19l-.05-.19c-.12-.5-.24-1-.33-1.51a14.58,14.58,0,0,1-.31-3,1,1,0,0,0,0-.22,21.79,21.79,0,0,1,4.59.8,16.86,16.86,0,0,0,1.6.79,6.56,6.56,0,0,0,.75.26c.41.24.82.49,1.24.73s.58.32.88.46a.8.8,0,0,0-.09.53c.13.75.18,1.52.29,2.28.05.38.12.76.21,1.13a3.6,3.6,0,0,0,.39,1.08c.05.08.11.15.21.11s.35-.16.39-.42a1,1,0,0,0,0-.37v0a.51.51,0,0,0,0-.39c-.08-.1-.15-.08-.22,0a.63.63,0,0,0-.08.18c-.07-.22-.14-.44-.2-.66a10,10,0,0,1-.18-1c-.1-.72-.15-1.44-.27-2.16l0-.1c.32.15.64.29,1,.42a.87.87,0,0,0,0,.59l0,.08h0l0,.22c0,.17.06.34.09.52.06.4.13.79.19,1.19s.14.82.24,1.23a4.4,4.4,0,0,0,.12.45,1.34,1.34,0,0,0,.09.23l.06.09,0,0,0,0c.16.2.36.16.48,0a.54.54,0,0,0,0-.39c0-.06-.1-.22-.18-.15l0,0v0l0,0c-.07-.27-.15-.54-.21-.82v0l0-.12-.05-.27q-.05-.28-.1-.57c-.06-.36-.12-.73-.18-1.09s-.11-.65-.18-1a18.6,18.6,0,0,0,5,1.09,31.46,31.46,0,0,0,7.53-.35.69.69,0,0,0,0,.14.88.88,0,0,0,0,.37,2.78,2.78,0,0,0,.41.8,1.62,1.62,0,0,0,.23.26l.18.14a.59.59,0,0,0,.19.06l.06,0a.18.18,0,0,0,.07-.08.53.53,0,0,0,.08-.22,1,1,0,0,0,0-.23.48.48,0,0,0-.1-.26l-.08-.09L45.7,151a2.09,2.09,0,0,1-.36-.41l-.11-.2,0-.11,0-.06,0-.08,1.39-.26a26.87,26.87,0,0,0,4.34-1.22,9.55,9.55,0,0,0,3.35-2,4.31,4.31,0,0,0,.52-.62.78.78,0,0,0,.09-.66c0-.12-.2-.36-.33-.17a6.75,6.75,0,0,1-2.87,2.13l-.23.1a5.8,5.8,0,0,0,.69-.48,4.33,4.33,0,0,0,2.15-2l.07-.06h.06a.89.89,0,0,0,.6-.49,14.7,14.7,0,0,0,2-2.09.76.76,0,0,0,.1-.55c.43-.37.85-.75,1.25-1.14a1,1,0,0,0,0-.79l0,0c.14-.2.46-.33.65-.49a7.93,7.93,0,0,0,.78-.74,6.11,6.11,0,0,0,1.33-2,.72.72,0,0,0-.09-.66"/><path class="cls-1" d="M47.25,101.94a1.92,1.92,0,0,0-.51-.75.46.46,0,0,0-.17-.38c-3-1.59-6.54-1.75-9.81-1.33A20.07,20.07,0,0,0,28.08,103c-2.62,1.78-4.89,4-7.34,6a25.11,25.11,0,0,1-8.18,4.32,24.25,24.25,0,0,1-9.17,1.22q-.53,0-1.06-.11c-.18,0-.26.28-.24.55l-.13-.15c-.12-.14-.23,0-.27.14-.36,1-1,2.4-.5,3.45a.66.66,0,0,0,.06.3v.06l-.09,0c-.19.1-.22.82.05.78h.14c0,.1.08.25.18.23l.29-.06a7.69,7.69,0,0,0,2.69.71h0a.74.74,0,0,0-.09.66A22.75,22.75,0,0,1,5.25,125c.11.66.23,1.33.4,2a8.15,8.15,0,0,0,.65,1.84,4,4,0,0,1-1-.25,3.54,3.54,0,0,1-.54-.28.62.62,0,0,0,.05-.26c0-.64,0-1.28-.08-1.91,0-.1-.06-.27-.19-.25s-.15.25-.15.35v0c-.34-1.82-.31-3.71-.67-5.53,0-.14-.1-.42-.3-.34s-.2.44-.17.59c.45,2.3.31,4.7,1,7a9.87,9.87,0,0,1-1-1l0-.07a1.48,1.48,0,0,0,.06-.76.43.43,0,0,0-.08-.22l0-.18c-.07-.5-.18-1-.25-1.5a18.82,18.82,0,0,0-.69-3.63c-.05-.15-.17-.32-.33-.17a.74.74,0,0,0-.09.66,32.55,32.55,0,0,1,.86,4.64c0,.25.05.52.1.78a7,7,0,0,0-1.1-1l-.11-.07a3.06,3.06,0,0,1-.13-.35,10,10,0,0,1-.29-1.54,30.37,30.37,0,0,1-.23-3.22c0-.14,0-.48-.24-.48s-.24.35-.24.48A31.62,31.62,0,0,0,.87,124c.05.36.11.73.19,1.09L.81,125c-.37-.1-.42.85-.13.93a3.1,3.1,0,0,1,.77.33c.11.2.26.37.47.34h0c.82.67,1.45,1.63,2.27,2.3,1.52,1.23,3.56,1.06,5.34.58a17.94,17.94,0,0,0,2-.68l.17.37c.15.32.38,0,.4-.21a2.59,2.59,0,0,0,0-.4A22.59,22.59,0,0,0,19.65,123l.44-.5a.14.14,0,0,0,.2,0,.53.53,0,0,0,.14-.44c.76-.91,1.47-1.87,2.15-2.84a.57.57,0,0,0,.23.25c.22.12.39-.1.48-.28s.06-.78-.18-.62l-.13.09h0l.34-.5c.68-1,1.33-2,2-3.07a.49.49,0,0,0,.16.14c.22.12.32-.15.35-.33a1.14,1.14,0,0,0,0-.32l0-.1h0l0,.07a.66.66,0,0,0,0-.09s0-.07,0-.07v0c.23-.35.47-.69.71-1a37,37,0,0,1,5.29-6.07l0,.07.08.07h0c.07.06.1.08.19,0s.15-.36.13-.47l0-.1q.7-.6,1.44-1.16a.53.53,0,0,0,.13.23.25.25,0,0,0,.29.06c.13-.08.17-.29.19-.42v-.08h0l0,0a.39.39,0,0,0,.08-.27l.46-.3.14.09c.16.08.21-.12.21-.31q.76-.46,1.55-.85a.66.66,0,0,0,.44.1c.13,0,.17-.2.17-.31s0-.05,0-.08q.49-.21,1-.39c0,.14.09.29.14.43s.14.35.3.37.14-.13.16-.19a.67.67,0,0,0,0-.34v-.07a2.08,2.08,0,0,0-.07-.31l0-.06a13.62,13.62,0,0,1,1.51-.38,1.78,1.78,0,0,0,0,.19c0,.11.11.33.26.34s.13-.11.15-.18a.63.63,0,0,0,0-.26s0,0,0,0a.92.92,0,0,0,0-.12h0v0a12.27,12.27,0,0,1,1.34-.13l0,.06c.07.08.14,0,.16-.07a11.25,11.25,0,0,1,2.24.16A12.2,12.2,0,0,1,46,103c.36.11.42-.84.13-.93A12.41,12.41,0,0,0,42,101.5l-.07-.17v0l0-.07,0-.14c0-.08-.11-.2-.19-.1a.45.45,0,0,0-.05.38l.05.15c-.29,0-.57,0-.86.09,0-.07,0-.15,0-.22l0-.13h0v-.08a.76.76,0,0,0-.09-.66c-.14-.16-.29,0-.33.17a4.91,4.91,0,0,0-.13,1,13.69,13.69,0,0,0-1.76.46c-.12-.39-.25-.78-.38-1.17,0-.14-.18-.34-.33-.17a.75.75,0,0,0-.09.66c.1.29.19.57.29.86q-.66.25-1.3.55l-.05-.06,0-.05,0-.1,0-.05,0-.06v0h0v0h0v-.05l0-.08s0,0,0,0,0,0,0-.07,0-.09,0-.13,0,.06,0,0h0s0,0,0,0h0v-.06c0-.06,0-.12,0-.18a.89.89,0,0,0,0-.37.37.37,0,0,0-.14-.22c-.19-.1-.28.22-.3.34a3.24,3.24,0,0,0,.09,1.52l-.61.33-.73.45a1.54,1.54,0,0,1-.08-.18,3.2,3.2,0,0,1-.16-.78c-.06-.59-.08-1.18-.18-1.76a16.11,16.11,0,0,1,3.56-.8,17.24,17.24,0,0,1,4.55.26l.48.09c-.1.07-.09.4,0,.4s.14-.29.06-.38a14,14,0,0,1,1.73.44,5,5,0,0,1,1.65.81,1.74,1.74,0,0,1,.22.22l.06.08s.07.15,0,.07c.05.15.17.32.33.17a.73.73,0,0,0,.09-.65M1.93,115.68a3.78,3.78,0,0,0-.2.5,3.61,3.61,0,0,0-.34,1.22,2,2,0,0,1,.08-.54,12.66,12.66,0,0,1,.43-1.22l0,0h0M16.46,125a21.07,21.07,0,0,1-2.5,1.67s0-.07,0-.1,0-.18,0-.19h0c0-.2-.05-.61-.25-.41a.37.37,0,0,0-.07.09c-.06-.12-.12-.24-.17-.37s-.23-.54-.33-.82c-.2-.56-.37-1.14-.52-1.72-.3-1.15-.51-2.31-.74-3.47,0-.14-.1-.42-.3-.34s-.2.44-.17.59a43.55,43.55,0,0,0,1.11,4.8q.19.59.42,1.17.11.27.23.54a2.08,2.08,0,0,0,.26.51h0c-.48.25-1,.49-1.45.71-.06-.17-.12-.34-.19-.52s-.12-.23-.24-.12l0,.05a20.89,20.89,0,0,1-1.24-6.48c0-.14,0-.48-.24-.48s-.24.35-.24.48a23,23,0,0,0,.57,4.4,22.16,22.16,0,0,0,.88,3h0q-.49.2-1,.37a1.27,1.27,0,0,0,0-.2s0-.09,0-.14,0-.09,0,0c0-.11-.09-.65-.27-.41l-.05.09c0-.12-.07-.26-.11-.38q-.14-.47-.26-.94-.25-1-.45-1.94c-.26-1.3-.48-2.6-.69-3.91,0-.14-.1-.42-.3-.34s-.19.44-.17.59c.28,1.77.57,3.54,1,5.29q.16.66.34,1.31l.18.63a2,2,0,0,0,.21.57,10.74,10.74,0,0,1-1.44.31,7.28,7.28,0,0,1-1.49.06.66.66,0,0,0,.07-.3c0-.54,0-1.09-.08-1.63,0-.1-.06-.27-.19-.24s-.15.24-.15.33,0,.18,0,.27c-.1-.29-.19-.58-.27-.88-.16-.64-.27-1.3-.38-1.95a22,22,0,0,0-.85-3.87.53.53,0,0,0-.09-.16h.38a.13.13,0,0,0,.09,0l.32,0,.42,0A12.77,12.77,0,0,0,10.38,119a26.42,26.42,0,0,0,3.94-2.51.86.86,0,0,0,0,.3c.74,2.13,1.14,4.37,2,6.46.16.38.28.94.47,1.4l-.38.31m4.23-4.29-.37.45a.16.16,0,0,0-.08-.07c-.09-.34-.19-.68-.29-1-.19-.67-.41-1.34-.63-2-.44-1.3-.91-2.58-1.33-3.88-.05-.15-.17-.32-.33-.17a.74.74,0,0,0-.09.66c.42,1.28.88,2.55,1.31,3.83.21.63.42,1.26.6,1.9.13.44.23.88.34,1.32q-.52.59-1.06,1.16c0-.31,0-.61,0-.92,0-.1,0-.31-.15-.33s-.18.15-.19.24,0,.13,0,.2a15.3,15.3,0,0,1-1-2.78c-.32-1.17-.59-2.35-1-3.5-.05-.15-.17-.32-.33-.17a.74.74,0,0,0-.09.66c.41,1.19.68,2.42,1,3.63a11.77,11.77,0,0,0,1.39,3.37c-.31.3-.62.6-.94.88l0-.15c0-.24-.19-.29-.28-.16l-.08-.26c-.19-.61-.44-1.19-.65-1.79-.64-1.8-1-3.68-1.64-5.48a.59.59,0,0,0-.05-.12c1.32-1,2.58-2.15,3.8-3.28l.11-.08a.68.68,0,0,0,0,.08,41.23,41.23,0,0,0,1.42,5.25l.44,1.3.21.62c0,.13.08.27.12.4l-.14.17m.71-.93a.12.12,0,0,0-.17-.05l-.07,0-.12-.34-.32-.94c-.22-.64-.43-1.29-.63-1.94a34.55,34.55,0,0,1-1-3.87,1.09,1.09,0,0,0,0-.16l.93-.74a.49.49,0,0,0,.16-.37l.14-.13a28,28,0,0,0,1.42,5.42c.15.39.33.78.45,1.18.06.2.11.39.17.59-.3.44-.61.87-.92,1.3m5.92-8.64c-.67.87-1.3,1.77-1.91,2.68l-.16-.53-.44-1.5c-.29-1-.59-2-.9-3,0-.15-.17-.32-.33-.17a.75.75,0,0,0-.09.66c.44,1.4.84,2.81,1.26,4.21l.27.89-.64,1,0,0h0a1.4,1.4,0,0,1-.08-.17l-.14-.26a11.3,11.3,0,0,1-.57-1.52c-.35-1.07-.61-2.18-1-3.24-.05-.15-.17-.33-.33-.17a.74.74,0,0,0-.09.66c.31.87.53,1.78.8,2.66.15.49.31,1,.49,1.47A5.11,5.11,0,0,0,24,115.9l0,0c-.42.65-.85,1.3-1.28,1.94v0c-.2-.73-.51-1.42-.76-2.13a27,27,0,0,1-1.22-4.86c1.71-1.63,3.42-3.25,5.28-4.72l.71-.55a1,1,0,0,0,0,.46c.19.78.33,1.55.51,2.36.08.37.17.74.29,1.1a1.49,1.49,0,0,0,.25.49c0,.05,0,0,0,0l0,.06a.59.59,0,0,0,.12.1.08.08,0,0,0,.11,0l-.75.94m6.51-6.49a15.37,15.37,0,0,1-.48-1.91c0-.12-.11-.43-.3-.34s-.2.43-.17.59a17.08,17.08,0,0,0,.48,2q-.75.57-1.46,1.19l0,0c0-.14-.08-.29-.11-.43v0h0l0-.11,0-.23c0-.08,0-.15,0-.23v-.16c0-.15,0-.31,0-.46h0v-.13l0-.1v0a.77.77,0,0,0-.09-.66c-.14-.16-.29,0-.33.17a5.49,5.49,0,0,0,.05,2.39q.05.24.12.48-.83.76-1.61,1.58h0l0-.09,0-.06h0c0-.11-.07-.22-.1-.34l0-.12v0h0l0-.24c0-.16-.05-.33-.08-.5-.09-.62-.15-1.25-.2-1.87,0-.13-.11-.42-.3-.34s-.18.43-.17.59c.05.66.12,1.32.21,2a10.46,10.46,0,0,0,.2,1,3,3,0,0,0,.15.49q-.67.73-1.29,1.5a.46.46,0,0,0,0-.09.61.61,0,0,0,0-.43l-.06-.14h0l0-.13c0-.14-.1-.28-.14-.42-.11-.36-.2-.72-.28-1.08-.17-.75-.31-1.5-.49-2.25a.36.36,0,0,0-.13-.2,28.35,28.35,0,0,1,7-4c.12.66.13,1.34.21,2a4.85,4.85,0,0,0,.18.86l-.53.36"/><path class="cls-1" d="M43.7,92.64a9.34,9.34,0,0,0-3.87-.72l-.08,0a8.53,8.53,0,0,0-.83-.24,4.21,4.21,0,0,0-3.29-.36,9.9,9.9,0,0,0-1.7.27q-.81.17-1.6.39l-.08,0a.88.88,0,0,0,0-.54v0l0-.09,0-.07h0l0-.13v-.06s0,0,0-.06l0-.13a.92.92,0,0,0,0-.14v0l0-.09a.69.69,0,0,0-.05-.54S32.1,90,32,90a.2.2,0,0,0-.15.12,2.37,2.37,0,0,0,0,2c-.41.12-.82.25-1.22.39a.79.79,0,0,0-.1-.6c0,.07,0,0,0,0l-.05-.1a.74.74,0,0,1-.09-.2v0l0-.05,0-.1v-.18h0s0-.06,0-.09h0a1.72,1.72,0,0,0,0-.64.23.23,0,0,0-.17-.19c-.07,0-.14.08-.17.13a.78.78,0,0,0-.05.12,1.34,1.34,0,0,0-.08.33,2.6,2.6,0,0,0,0,.68,2.81,2.81,0,0,0,.39,1.06l-1,.39-.5.23a1,1,0,0,0-.06-.2c-.08-.21-.16-.42-.23-.64a3.6,3.6,0,0,1-.13-.57c0-.05,0-.11,0-.16v-.05c0-.06,0-.12,0-.17v0l0-.12v-.09l0-.12,0-.18a.73.73,0,0,0,0-.48c-.06-.11-.15-.15-.24-.06a1.28,1.28,0,0,0-.29.74,3.44,3.44,0,0,0,0,.91,6.14,6.14,0,0,0,.4,1.48L27.4,94q-.05-.17-.1-.34l-.05-.21,0-.09v0h0c-.07-.32-.12-.64-.17-1s-.08-.57-.12-.85c0-.11,0-.22,0-.33v-.06a.42.42,0,0,0,0-.08h0a.3.3,0,0,0,0,0c0-.1-.05-.27-.18-.3s-.19.11-.21.2a1.26,1.26,0,0,1,0,.16.64.64,0,0,0,0,.12s0,.08,0,.11a4.27,4.27,0,0,0,0,.43c0,.3.07.6.12.9a14.2,14.2,0,0,0,.34,1.68q-1,.55-1.9,1.18a.93.93,0,0,0,0-.34l0-.15v-.06c0-.12,0-.24-.06-.36,0-.27-.06-.55-.09-.82V93.6h0v-.2c0-.12,0-.24,0-.36a2.39,2.39,0,0,0-.09-.81l.06.2v-.1a.47.47,0,0,0,0-.12h0c0-.16-.19-.33-.3-.1a1,1,0,0,0-.09.32,2.87,2.87,0,0,0,0,.63c0,.3,0,.61.05.91a7.5,7.5,0,0,0,.25,1.61.5.5,0,0,0,.06.12l-.81.59-.14.11a1,1,0,0,0,0-.23,8.47,8.47,0,0,1-.2-.92c-.07-.39-.13-.78-.18-1.18s-.08-.67-.11-1c0,0,0-.23,0-.09,0-.09,0-.18,0-.27s0-.08,0-.12a.82.82,0,0,0,0-.16.31.31,0,0,0-.06-.11h0c-.05,0-.09-.07-.15,0-.27.12-.18.76-.16,1s.07.71.11,1.06a16.73,16.73,0,0,0,.43,2.35l0,.07-1,.8a.84.84,0,0,0,0-.55,9.75,9.75,0,0,1-.47-2,8.61,8.61,0,0,1-.07-1,3,3,0,0,0-.08-1.08c0-.09-.15-.15-.22-.06A2,2,0,0,0,21.28,94a10.83,10.83,0,0,0,.6,3.46c0,.1.11.22.21.23-1.28,1.1-2.52,2.25-3.81,3.34-.14-1.08-.36-2.15-.53-3.23-.09-.54-.17-1.09-.23-1.64,0-.39,0-.81-.07-1.21,0-.18-.19-.43-.33-.17A2.74,2.74,0,0,0,17,96.2c0,.56.13,1.12.22,1.68.19,1.16.43,2.32.57,3.48v0c-.32.26-.64.52-1,.76a.82.82,0,0,0,.06-.62,23.81,23.81,0,0,1-.57-3.1c-.12-.89-.14-1.79-.25-2.68,0-.09-.06-.29-.19-.29s-.17.2-.19.29a4.85,4.85,0,0,0,0,1.32c0,.54.1,1.08.17,1.62A25.62,25.62,0,0,0,16.5,102c0,.13.13.25.24.22A20,20,0,0,1,14,104l-.2.09A15.86,15.86,0,0,1,9,105.28a8.47,8.47,0,0,1-2.55-.42c-.11,0-.19,0-.25.14-.35-.07-.4.84-.11.93a8.24,8.24,0,0,0,2.73.3,9.72,9.72,0,0,0,3.71-.62,13.57,13.57,0,0,0,1.56-.7,28,28,0,0,0,5.12-2.78c2.13-1.44,4-3.28,6.16-4.63a19.09,19.09,0,0,1,8.54-2.6c1.63-.12,3.27,0,4.9-.06a11.85,11.85,0,0,0,4.54-1c.11-.05.17-.23.17-.42l0,0c.29.12.36-.69.11-.78m-23.93,8.1.64-.57-.07.13v0l-.46.34-.1.07"/><path class="cls-1" d="M6,137c-.14,0-.15.42,0,.42s.15-.42,0-.42"/></g></g></svg>