<svg xmlns="http://www.w3.org/2000/svg" viewBox="0 0 52.8 202.08"><defs><style>.cls-1{fill:#231f20;}.cls-2{fill:#fff;}.cls-3{fill:none;stroke:#231f20;stroke-miterlimit:10;}</style></defs><title>planet 1</title><g id="Layer_2" data-name="Layer 2"><g id="Layer_1-2" data-name="Layer 1"><path class="cls-1" d="M29.94,163.2l0,0h0l0,0"/><path class="cls-1" d="M26.38,130.29a.82.82,0,0,0-.1-.58c-.08-.11-.2-.17-.3,0l0,.07q0-6.17.05-12.34a2.47,2.47,0,0,0,.1-.52.88.88,0,0,0-.1-.58h0q0-6.37.05-12.75a1.85,1.85,0,0,0,.2-.66,1.11,1.11,0,0,0,0-.49.44.44,0,0,0-.14-.21c0-.16,0-.32,0-.49.06-11,.13-22,.12-33s-.36-21.88-.81-32.82c-.22-5.38.24-10.76.29-16.14,0-2.6-.51-5.16-.52-7.75s.68-4.93.79-7.42a12.51,12.51,0,0,0-.31-3.43c-.06-.27-.25-.41-.48-.25,0,0,0,0,0,0A1.76,1.76,0,0,0,24.34.1a.82.82,0,0,0-.48-.1.8.8,0,0,0-.51.31,2.24,2.24,0,0,0-.38,1,1.32,1.32,0,0,0,0,.54c0,.1.1.27.21.32h.06c1.11,4.48.25,9.27.15,13.82-.12,5.48.67,10.93.53,16.41-.29,11.21-.33,22.41-.29,33.63,0,7.5,0,15,0,22.5,0,0,0,0,0,.07a1.32,1.32,0,0,0,0,.43c0,.86,0,1.72,0,2.58v0a1.41,1.41,0,0,0,0,.34q0,3.87,0,7.74,0,8.22-.09,16.44a1.4,1.4,0,0,0,0,.43v.06c0,2.15,0,4.31,0,6.46-.06.13-.13.25-.18.38a1.21,1.21,0,0,0,0,1,.4.4,0,0,0,.18.17c0,3,0,5.91,0,8.87,0,1.15,0,2.31,0,3.46-.07.12-.12.24-.19.35a1.06,1.06,0,0,0-.1.49,1.07,1.07,0,0,0,.1.49.36.36,0,0,0,.21.19c0,3.86.08,7.72-.1,11.59-.12,2.56-.24,5.13-.2,7.7,0,.3,0,.6,0,.9a1.27,1.27,0,0,0,0,.45s0,.1,0,.15c0,.8,0,1.59,0,2.39A.62.62,0,0,0,23,162a1.25,1.25,0,0,0,0,.54.77.77,0,0,0,.16.42h0c0,.19,0,.38,0,.58a6.77,6.77,0,0,1-.42,2.25,1.13,1.13,0,0,0,0,1c.14.21.36.29.49,0a6.08,6.08,0,0,0,.31-.9,3.33,3.33,0,0,0,.67-.52l0,0s0,0,0,0,.18,0,.27-.07a5,5,0,0,0,.87-1.08l.1-.18c0,.92,0,1.84,0,2.76,0,.73.61.73.61,0,0-10.67-.25-21.33-.22-32q0-1.62,0-3.25a5.64,5.64,0,0,0,.45-1.26m-.89,28.85a1.69,1.69,0,0,0-.23.21l-.3.32a8.44,8.44,0,0,1-.62.64.78.78,0,0,0-.16.41,1.57,1.57,0,0,0,0,.2,3.38,3.38,0,0,1-.27.29c0-.58,0-1.15,0-1.73a2.25,2.25,0,0,0,.58-.56,2,2,0,0,0,.32-.66c0-.07,0-.15,0-.23a5.74,5.74,0,0,0,.43-.44,4.18,4.18,0,0,0,.26-.36c0,.64,0,1.28,0,1.92M25,108.29l.33-.59q0,1.08,0,2.16l-.05,0-.1.14c-.09.13-.18.27-.26.41l-.18.29h0c-.11,0-.2.19-.25.28l-.1.19-.16.31v-1.76l.83-1.48m-.82-.41v-1.77s0,.05.06.07a.21.21,0,0,0,.27-.07c.3-.43.57-.87.83-1.33,0,.38,0,.77,0,1.15a1.16,1.16,0,0,0-.23.27l-.19.33-.42.76-.33.58m.6,26.94c-.13,0-.24.11-.31.2a3,3,0,0,0-.24.38l-.11.23c0-1.54,0-3.08,0-4.62a13.25,13.25,0,0,0,.88-1.41l.24-.46c0,.62,0,1.23,0,1.85l-.05.1c-.13.24-.27.48-.41.72l-.11.18,0,0,0,.07-.24.35a1.12,1.12,0,0,0-.12,1,.52.52,0,0,0,.21.32.22.22,0,0,0,.27-.07c.2-.28.37-.58.55-.88q0,2.47,0,4.93a4,4,0,0,0-.24.43c-.11.21-.22.42-.35.63l-.09.15v0l0,.06-.2.29-.16.22c0-.16,0-.31,0-.47,0-.48,0-1,0-1.45l.25-.51c.1-.21.21-.43.32-.64a2.43,2.43,0,0,0,.35-.9c0-.2,0-.67-.27-.71m-.41-14.72c.3-.44.61-.88.89-1.33,0,.58,0,1.16,0,1.74a.25.25,0,0,0-.18,0c-.13.06-.23.29-.3.4l0,0,0,0-.1.14-.21.3-.32.48c0-.58,0-1.17,0-1.75a.21.21,0,0,0,.26-.07m-.25-1.36q0-1.09,0-2.19v0h0q.08-.19.18-.37a2.64,2.64,0,0,0,.43-1,1.72,1.72,0,0,0,0-.22l.1-.2c.1-.18.22-.36.33-.54l.09-.15,0,2.89h0c-.13.24-.25.47-.39.7l-.1.17-.05.08h0l-.22.33-.37.53m1.13,22.3-.07.22,0,.16,0,.09,0,0v0l0,.07-.08.18c-.06.12-.12.24-.2.36h0l0,.07-.12.16a3.46,3.46,0,0,1-.25.29l-.14.14,0,0c0-.59,0-1.18,0-1.77,0,0,0,0,.06,0,.32-.43.64-.87.92-1.33l.11-.19c0,.49,0,1,0,1.48m-.87-17.8.05-.08.1-.14.19-.29.4-.59.12-.2q0,1.08,0,2.16a1.94,1.94,0,0,0-.44.61c-.11.22-.21.45-.32.68a7.17,7.17,0,0,1-.32.66l-.06.1c0-.81,0-1.62,0-2.43.09-.16.18-.32.28-.48m.56,3.19c.1-.21.19-.43.28-.65,0,.5,0,1,0,1.49a1,1,0,0,0-.19.27c-.06.11-.12.22-.17.33s-.23.47-.35.7-.25.45-.38.66l0,.06c0-.49,0-1,0-1.48a5,5,0,0,0,.86-1.38m-.77,18a4,4,0,0,0,1.11-1.21c0,.8,0,1.61,0,2.42a.14.14,0,0,0-.17,0,1.41,1.41,0,0,0-.38.5l-.13.23-.07.12,0,.05v0h0l0,.05-.08.12-.15.21-.08.09c0-.87,0-1.74,0-2.6m.43-31.77.08-.15a.19.19,0,0,0,.13-.09c.17-.26.34-.53.49-.8,0,.21,0,.41,0,.62a2.07,2.07,0,0,0-.14.23l-.15.27c-.1.19-.22.36-.34.54a6.45,6.45,0,0,0-.52,1c0-.27,0-.54,0-.8h0c.16-.27.3-.54.45-.82m-.51,36a.25.25,0,0,0,.13-.08,7.17,7.17,0,0,0,.72-1c.1-.15.19-.31.28-.46l.1-.19c0,.6,0,1.2,0,1.8a.25.25,0,0,0-.2.16c-.1.21-.19.43-.31.64l-.1.17-.05.09h0l-.22.31c-.14.18-.29.35-.45.53,0-.67.05-1.33.08-2m.78,2.6a4.39,4.39,0,0,0,.49-.82q0,1,0,1.93a.6.6,0,0,0-.2.15c-.19.21-.35.45-.53.68s-.26.3-.39.45a.17.17,0,0,0-.09.07l0,0,0,.05-.11.12a.71.71,0,0,0-.15.36h0c0-.65.05-1.3.08-2,.32-.35.64-.7.93-1.08m.48-48.31-.36.67q-.2.36-.41.71l-.11.17-.05.09h0l-.21.32c0-.07,0-.14,0-.2v-1.9a.53.53,0,0,0,.15-.26,3.52,3.52,0,0,1,.1-.36l0-.07h0l.08-.19a6.1,6.1,0,0,1,.38-.7l0-.06,0,0,.11-.16.23-.32,0,0c0,.77,0,1.54,0,2.3m-1,52.4a2.24,2.24,0,0,0,.18-.37c.15-.15.29-.31.43-.48s.32-.4.46-.61c0,.6,0,1.21,0,1.82h0a1,1,0,0,0-.17.16l-.17.25.07-.11a5.87,5.87,0,0,1-1,1.13.79.79,0,0,0-.16.42,1.45,1.45,0,0,0,0,.3l-.16.17c0-.68,0-1.37,0-2.06a2.87,2.87,0,0,0,.51-.62M23.85,1.42h0a.55.55,0,0,1,.19,0,1,1,0,0,1,.27.15,1.57,1.57,0,0,1,.22.26l.11.21c0,.08.14.21.24.2a.24.24,0,0,0,.15-.08c.49,2.48-.17,5-.46,7.47a33.37,33.37,0,0,0,.24,7.25,60,60,0,0,1,0,8.07c-.1,2.69-.21,5.38-.21,8.07,0,5.43.44,10.86.6,16.28s.24,10.9.26,16.35c0,11.1,0,22.19-.07,33.28a11.94,11.94,0,0,0-1.16,1.71c0-.61,0-1.21,0-1.82a.39.39,0,0,0,.18-.17,5.66,5.66,0,0,0,.65-1.73.88.88,0,0,0-.1-.59.23.23,0,0,0-.13-.11.18.18,0,0,0-.18.07,1.34,1.34,0,0,0-.23.34c-.06.11-.12.22-.17.34V95.3a3.86,3.86,0,0,0,.46-.73,3.63,3.63,0,0,0,.35-1,.89.89,0,0,0-.1-.59.23.23,0,0,0-.13-.11c-.08,0-.12,0-.18.07a1.86,1.86,0,0,0-.34.55l0,.08c0-.44,0-.87,0-1.31A3,3,0,0,0,25,90.34a.71.71,0,0,0-.17-.51c-.12-.11-.24,0-.31.12a2.08,2.08,0,0,0-.14.3s0-.05,0,0l0,.07,0,.05c0-.41,0-.82,0-1.23l.45-.72-.07.11L25,88l-.07.11a3.39,3.39,0,0,0,.36-.67.89.89,0,0,0,0-.53c0-.1-.1-.26-.23-.26a.71.71,0,0,0-.44.26,2.93,2.93,0,0,0-.3.39v0c0-.38,0-.77,0-1.15a.42.42,0,0,0,.12-.14c.14-.28.31-.55.47-.82s.15-.27.23-.4a2,2,0,0,0,.24-.7,1.08,1.08,0,0,0-.12-.69.27.27,0,0,0-.15-.13.21.21,0,0,0-.21.08,1,1,0,0,0-.16.26l-.1.21c-.07.14-.15.27-.23.4l-.08.14c0-4.7,0-9.4,0-14.1,0-11.38-.19-22.76.16-34.14.09-2.86.19-5.69.06-8.55s-.36-5.72-.44-8.59c-.14-4.88.67-9.77.23-14.64a18.78,18.78,0,0,0-.51-3m1.49,161.17-.08.11-.08.12,0,0,0,.07-.21.33h0v0h0l0,0-.08.13-.19.25a.16.16,0,0,0-.21,0,1.65,1.65,0,0,0-.41.39l-.2.2c0-.47.06-.94.07-1.41a2.56,2.56,0,0,0,1-1.42c.15-.15.31-.31.45-.48l.2-.26c0,.6,0,1.2,0,1.8l-.16.21"/><circle class="cls-2" cx="26.39" cy="183.65" r="17.93"/><circle class="cls-3" cx="26.39" cy="183.65" r="17.93"/><path class="cls-1" d="M18.47,199.59c-.09,0-.09.25,0,.25s.09-.25,0-.25"/><path class="cls-1" d="M23,191.09c-.06-.09-.13-.06-.19,0a11.57,11.57,0,0,0-1.35,3.41c-.31,1.23-.53,2.48-.78,3.72-.14.67-.29,1.33-.48,2a.44.44,0,0,0,.05.39c.09.09.17,0,.2-.1.69-2.37.87-4.86,1.71-7.19a9.86,9.86,0,0,1,.68-1.49c.06,0,.1-.05.12-.12s.05-.17.08-.25a.46.46,0,0,0,0-.37"/><path class="cls-1" d="M20.75,191.8c-.06-.08-.14-.07-.19,0a15.09,15.09,0,0,0-.7,1.66c-.19.5-.37,1-.56,1.49a21.37,21.37,0,0,0-.95,2.7,4.76,4.76,0,0,0-.14,1.56c0,.08.07.25.18.2s.11-.27.1-.36a5.91,5.91,0,0,1,.55-2.5q.49-1.32,1-2.63c.23-.6.52-1.19.74-1.79a.44.44,0,0,0,0-.36"/><path class="cls-1" d="M23.64,193.1c0-.12-.16-.32-.24-.12-.23.55-.39,1.14-.58,1.71s-.39,1.15-.57,1.72c-.38,1.16-.73,2.32-1,3.49a.45.45,0,0,0,.05.4c.09.09.17,0,.2-.1.31-1.16.66-2.32,1-3.46q.28-.85.56-1.69c.15-.46.33-.91.47-1.37,0,0,.08,0,.1-.1a1.35,1.35,0,0,0,0-.47"/><path class="cls-1" d="M24.63,192.86c0-.14-.14-.31-.24-.13a17.26,17.26,0,0,0-1.14,2.82,22,22,0,0,0-.77,3.13,14.8,14.8,0,0,0-.19,1.69c0,.08,0,.28.14.28s.14-.21.14-.28a15.61,15.61,0,0,1,.45-2.86,22.18,22.18,0,0,1,.92-2.92c.14-.36.3-.71.46-1.05v.08c0,.2.18.19.21,0a3.45,3.45,0,0,0,0-.76"/><path class="cls-1" d="M25.47,194.28c-.12-.31-.36.08-.41.21a9.94,9.94,0,0,0-.35,1.08c-.3,1.07-.66,2.11-1,3.17a19.34,19.34,0,0,0-.62,2.22c0,.08,0,.23.07.28s.13,0,.15-.1a31.71,31.71,0,0,1,1.11-3.53c.27-.79.47-1.59.73-2.38,0-.15.1-.3.17-.44l.06-.14s.09,0,.11-.08a.4.4,0,0,0,0-.3"/><path class="cls-1" d="M26,195a.42.42,0,0,0-.29.2,2.29,2.29,0,0,0-.24.43,7.54,7.54,0,0,0-.4,1.22c-.24,1-.4,2-.56,3-.06.39-.12.79-.19,1.18,0,.1,0,.31.1.36s.16-.13.18-.2c.15-.77.24-1.54.38-2.31a14.2,14.2,0,0,1,.63-2.63,2.18,2.18,0,0,1,.45-.75c.07-.07.1-.47-.06-.45"/><path class="cls-1" d="M27.11,195.74a1.55,1.55,0,0,0-.39.75,10.48,10.48,0,0,0-.29,1.07c-.18.82-.32,1.64-.45,2.47-.06.38-.12.76-.18,1.14,0,.09,0,.29.09.33s.15-.11.17-.19a33.22,33.22,0,0,1,.84-4.34c.09-.3.24-.58.34-.88,0-.06,0-.46-.14-.36"/><path class="cls-1" d="M27.82,196.57c0-.06,0-.19-.13-.19s-.12.13-.13.19a10.14,10.14,0,0,0,0,1.15c0,.38,0,.77-.07,1.15A9.53,9.53,0,0,1,27,201.1a.44.44,0,0,0,.05.4c.09.1.17,0,.2-.1a10.14,10.14,0,0,0,.5-2.38c0-.4.06-.81.07-1.21q0-.3,0-.61a3.52,3.52,0,0,0,0-.63"/><path class="cls-1" d="M28.95,197.07a.94.94,0,0,0-.17.36,4.26,4.26,0,0,0-.12.42c-.08.34-.14.68-.19,1a18.42,18.42,0,0,1-.35,2,.45.45,0,0,0,.05.4c.09.09.17,0,.2-.1a17.69,17.69,0,0,0,.36-2c0-.32.09-.63.16-.94,0-.14.07-.29.11-.43s.1-.24.13-.36,0-.55-.18-.37"/><path class="cls-1" d="M30,197.5c-.24-.13-.4.29-.44.45a4.45,4.45,0,0,0-.12,1c0,.38,0,.75,0,1.13,0,.17,0,.33,0,.5v.23h0a.43.43,0,0,0,0,.38c.09.09.17,0,.19-.1a3.56,3.56,0,0,0,.07-.84c0-.35,0-.69,0-1a5.87,5.87,0,0,1,.06-.94A.54.54,0,0,1,30,198c.11-.09.14-.39,0-.47"/><path class="cls-1" d="M31.29,197.35a.09.09,0,0,0-.17,0,2,2,0,0,0-.06.74c0,.29,0,.58,0,.87a5.78,5.78,0,0,1-.29,1.71.44.44,0,0,0,.05.4c.1.1.17,0,.2-.1a6.61,6.61,0,0,0,.32-1.9c0-.3,0-.6,0-.9a2.21,2.21,0,0,0-.06-.8"/><path class="cls-1" d="M32.52,197.51c0-.14-.17-.14-.2,0a2.84,2.84,0,0,0,0,.66c0,.2,0,.39,0,.59a4.21,4.21,0,0,1-.19,1.14.44.44,0,0,0,.05.4c.09.1.17,0,.2-.1a5.18,5.18,0,0,0,.23-1.34c0-.21,0-.42,0-.63a3.14,3.14,0,0,0,0-.71"/><path class="cls-1" d="M33.55,198.69v-.53q0-.1,0-.19a1.32,1.32,0,0,0,0-.14.54.54,0,0,0,0-.09.18.18,0,0,0-.08-.15h-.06s-.07.08-.08.15a.52.52,0,0,0,0,.09,1.36,1.36,0,0,0,0,.14q0,.1,0,.19v1.44c0,.08,0,.29.15.29s.15-.21.15-.29q0-.46,0-.91"/><path class="cls-1" d="M34.56,197.23a.07.07,0,0,0-.13,0,5.38,5.38,0,0,0-.27,1.06.48.48,0,0,0,0,.2.21.21,0,0,0,.08.12c.11.05.15-.12.16-.19.06-.34.14-.67.19-1a.31.31,0,0,0,0-.23"/><path class="cls-1" d="M35.47,196.79a.17.17,0,0,0-.06-.06.08.08,0,0,0-.1,0,1,1,0,0,0-.12.22,2.17,2.17,0,0,0-.09.28,3.23,3.23,0,0,0-.09.6.44.44,0,0,0,0,.21s.06.09.1.09.14-.2.15-.29v-.16l0-.11h0v-.05c0-.14.08-.29.13-.43a.42.42,0,0,0,0-.3"/><path class="cls-1" d="M10,181.27c0-.07,0-.41-.13-.34s-.15.16-.19.25a3.07,3.07,0,0,0-.14.3c-.09.22-.17.46-.25.69a5.24,5.24,0,0,1-.55,1.29.45.45,0,0,0,0,.37c0,.07.11.21.19.1a5.56,5.56,0,0,0,.61-1.34l.12-.35,0,.12-.08.53L9.33,184c-.12.76-.24,1.53-.43,2.28a.45.45,0,0,0,.05.4c.09.09.18,0,.2-.1.2-.78.33-1.57.45-2.36l.18-1.16A4.86,4.86,0,0,0,9.92,182c0-.09-.07-.19-.14-.17l.08-.18a1.83,1.83,0,0,0,.16-.35"/><path class="cls-1" d="M10,179.93c0-.06-.08-.11-.14-.05a2.59,2.59,0,0,0-.34.48,5.49,5.49,0,0,0-.3.52,4.58,4.58,0,0,0-.4,1.21c0,.08,0,.24.08.28s.13-.1.14-.16a3.68,3.68,0,0,1,.38-1c.09-.16.18-.32.27-.47s.22-.31.3-.48a.36.36,0,0,0,0-.28"/><path class="cls-1" d="M36.35,196.46a.1.1,0,0,0-.11-.07c-.05,0-.08.08-.09.12a1.73,1.73,0,0,0,0,.38c0,.05,0,.11,0,.16v.07h0q0,.15,0,.3v.1l0,.15a.46.46,0,0,0,.05.4c.09.1.18,0,.2-.1a3.94,3.94,0,0,0,.12-.7,1.94,1.94,0,0,0,0-.83"/><path class="cls-1" d="M37.15,196.19c0-.06-.06-.15-.14-.13h0l0,0h0a.32.32,0,0,0-.06.16h0a1,1,0,0,0,0,.1.47.47,0,0,0,0,.1h0a.62.62,0,0,1,0,.07c0,.11,0,.21,0,.32v.11c0,.05,0,.1,0,.16v.11l0,.16a.45.45,0,0,0,.05.4c.09.1.17,0,.2-.1a3.23,3.23,0,0,0,.13-.68c0-.12,0-.25,0-.37a1.46,1.46,0,0,0,0-.42"/><path class="cls-1" d="M38.11,195.59a.1.1,0,0,0-.19,0,.46.46,0,0,0,0,.09h0a.76.76,0,0,0,0,.08v.1c0,.1,0,.19,0,.29l0,.15v0l0,.08,0,.15s0,.1,0,0l0,.06a.49.49,0,0,0,0,.41s.05.09.1.09.08,0,.1-.09a2.86,2.86,0,0,0,.2-.74c0-.1,0-.2,0-.31a.83.83,0,0,0,0-.43"/><path class="cls-1" d="M39.11,195.09s0-.11-.09-.12a.09.09,0,0,0-.1.07,2.07,2.07,0,0,0-.09.57q0,.26-.07.51a.52.52,0,0,0,0,.22s0,.11.09.13.16-.12.18-.2.06-.35.07-.52,0-.21,0-.32a1.07,1.07,0,0,0,0-.35"/><path class="cls-1" d="M39.69,194.33a.44.44,0,0,0,0-.19.13.13,0,0,0-.08-.07c-.09,0-.14.12-.14.19a2.28,2.28,0,0,1,0,.25l0,.07,0,.12v0a.53.53,0,0,0,0,.2.45.45,0,0,0,0,.21s.05.09.1.09a.13.13,0,0,0,.1-.09,2.2,2.2,0,0,0,.12-.39,1.43,1.43,0,0,0,0-.36"/><path class="cls-1" d="M29.93,166.19a5.74,5.74,0,0,0-1.57,2.51c-.17.47-.32.94-.48,1.42a13,13,0,0,1-.57,1.37.46.46,0,0,0,0,.4c.06.11.14.1.2,0a7.36,7.36,0,0,0,.57-1.34c.17-.47.31-.95.48-1.42a5.46,5.46,0,0,1,1.51-2.44c.14-.12.06-.68-.15-.5"/><path class="cls-1" d="M30.65,166.89c-.05-.1-.15-.11-.21,0-.3.65-.56,1.31-.85,2-.14.32-.29.64-.45,1-.06.11-.12.22-.19.33a3.29,3.29,0,0,0-.36.59.48.48,0,0,0,0,.36c0,.08.1.15.18.07a3.94,3.94,0,0,0,.55-.86c.18-.33.33-.66.48-1,.29-.66.56-1.33.86-2a.49.49,0,0,0,0-.41"/><path class="cls-1" d="M31.64,166.79c-.05-.1-.16-.12-.21,0-.26.59-.51,1.18-.75,1.77a14.33,14.33,0,0,0-.65,1.81.49.49,0,0,0,0,.34c0,.06.11.12.17,0a2.16,2.16,0,0,0,.29-.53.37.37,0,0,0,0-.25c.12-.34.24-.69.38-1,.24-.58.48-1.16.74-1.74a.49.49,0,0,0,0-.41"/><path class="cls-1" d="M32.74,167.22c-.06-.1-.15-.11-.21,0a10.62,10.62,0,0,0-.6,1.71c-.08.28-.16.57-.26.84s-.1.27-.16.4a.1.1,0,0,0-.06.06,3.4,3.4,0,0,0-.16.43.48.48,0,0,0,0,.34c0,.06.12.13.17,0a6.21,6.21,0,0,0,.66-1.68,10.88,10.88,0,0,1,.59-1.73.48.48,0,0,0,0-.41"/><path class="cls-1" d="M33.41,167.69c-.12,0-.15.21-.15.29s0,.06,0,.08a.22.22,0,0,1,0,.06c0,.06,0,.13,0,.19s-.06.27-.09.4c-.08.31-.18.61-.29.9s-.18.52-.26.78a1.43,1.43,0,0,0-.08.38s0,.08,0,.09,0,0,0,0a.52.52,0,0,0,0,.21c.06.12.15,0,.18,0V171h0a.62.62,0,0,0,0-.09l.09-.31c.09-.27.19-.54.28-.82a5.45,5.45,0,0,0,.4-1.79c0-.09,0-.29-.15-.29"/><path class="cls-1" d="M34.32,168.25c-.12-.05-.17.13-.18.2a3,3,0,0,1-.06.3c0,.13-.06.26-.1.38-.08.3-.17.59-.27.89s-.18.52-.26.77c0,.1-.07.19-.09.29l0,.08v0s0,.08,0,.13,0,.34.15.23a.23.23,0,0,0,.06-.08h0l0,0,0,0h0l0,0a1.36,1.36,0,0,0,.12-.26c.11-.28.2-.56.29-.84a11.25,11.25,0,0,0,.46-1.71c0-.1,0-.31-.1-.36"/><path class="cls-1" d="M33.52,171.47h0v0h0"/><path class="cls-1" d="M35.42,168.53c0-.08,0-.29-.15-.29s-.15.21-.15.29a4.08,4.08,0,0,1-.3,1.62c-.1.27-.21.52-.33.78l-.17.36s-.07.19-.12.27a.37.37,0,0,0-.14.32c0,.07,0,.29.14.27s.17-.14.22-.23l.23-.45c.15-.31.29-.62.41-.94a5,5,0,0,0,.37-2"/><path class="cls-1" d="M36.19,169.35c-.12-.05-.16.13-.18.2-.1.49-.17,1-.27,1.48,0,.23-.1.46-.16.68l-.09.26,0,.12a.76.76,0,0,0,0,.14v0c0,.09,0,.38.13.33s.24-.36.28-.51a8.17,8.17,0,0,0,.2-.8c.11-.52.19-1.05.29-1.57,0-.1,0-.31-.1-.36"/><path class="cls-1" d="M37.07,170.11c-.12-.05-.16.13-.18.2-.1.45-.16.91-.25,1.37a5.49,5.49,0,0,1-.16.62,4.77,4.77,0,0,1-.18.47.35.35,0,0,0,0,.22s0,.14.09.12.27-.25.33-.42a5.06,5.06,0,0,0,.2-.74c.1-.49.17-1,.27-1.49,0-.1,0-.31-.1-.36"/><path class="cls-1" d="M37.92,170.91c0-.09-.11-.2-.2-.1a.46.46,0,0,0-.05.4l0,.06h0s0,.09,0,.13v.07h0v0s0,.1,0,.15,0,.1,0,.15v0h0v.08q0,.15,0,.3a3.35,3.35,0,0,1-.13.49l0,.1,0,.09c0,.07-.05.17-.07.21a.37.37,0,0,0,0,.25s.06.14.12.1a.48.48,0,0,0,.16-.15,1.57,1.57,0,0,0,.12-.27,3.9,3.9,0,0,0,.17-.67,3.32,3.32,0,0,0,0-1.46"/><polyline class="cls-1" points="38.61 173.42 38.61 173.42 38.61 173.42"/><path class="cls-1" d="M39,171.71c0-.08,0-.29-.15-.29s-.15.21-.15.29,0,.32,0,.48,0,.18,0,.26v.23a4.49,4.49,0,0,1-.06.47v.07l0,.1,0,.11h0a.36.36,0,0,0,0,.25s.06.13.11.09.06,0,0,0,0,0,.07,0l0-.06a.91.91,0,0,0,.08-.21,3.08,3.08,0,0,0,.09-.57,9.24,9.24,0,0,0,0-1.16"/><path class="cls-1" d="M39.57,174.45h0a.08.08,0,0,0,0,0h0"/><path class="cls-1" d="M39.91,172.73c0-.08-.07-.26-.18-.2s-.12.26-.1.36V173h0c0,.08,0,.15,0,.23s0,.16,0,.23v.06c0-.08,0,0,0,0v.12c0,.14,0,.28-.05.43s0,.15,0,.23a.72.72,0,0,0,0,.1v0s0,0,0,.05v0h0a.25.25,0,0,0,0,.15s.08.06.11,0v0a.66.66,0,0,0,.13-.36c0-.15,0-.3.05-.45a4.36,4.36,0,0,0,0-1.06"/><path class="cls-1" d="M40.54,173.84c-.12,0-.14.21-.15.29v.1l0,.15q0,.14,0,.29v.07h0v0l0,.14a2.76,2.76,0,0,0-.08.34.41.41,0,0,0,.06.3c.06.07.13,0,.16,0a1.39,1.39,0,0,0,.11-.33q0-.18.08-.35a4.91,4.91,0,0,0,.08-.69c0-.08,0-.29-.15-.29"/><path class="cls-1" d="M40.95,175.08s0-.06-.07-.06-.1.15-.1.21V176a.33.33,0,0,0,0,.15s0,.06.07.06.1-.15.1-.21v-.77a.33.33,0,0,0,0-.15"/><path class="cls-1" d="M41.81,176.75l0-.08,0,0h0l-.06-.16,0-.16v-.13a.24.24,0,0,0,0-.12.06.06,0,0,0-.08,0c-.08,0-.08.18-.07.25a2,2,0,0,0,.09.4,1.22,1.22,0,0,0,.18.36c0,.05.09,0,.11,0a.3.3,0,0,0,0-.22"/><path class="cls-1" d="M42.41,176.74a.2.2,0,0,0-.08-.12c-.1-.05-.15.12-.16.18s0,.17,0,.26l0,.13h0v.06a3.42,3.42,0,0,0-.13.59.3.3,0,0,0,.06.2.07.07,0,0,0,.12,0,.79.79,0,0,0,.12-.28c0-.09,0-.18.06-.26s.08-.38.1-.57a.48.48,0,0,0,0-.2"/><path class="cls-1" d="M28.15,166.51c0-.09-.11-.2-.2-.1a8.1,8.1,0,0,0-1.46,3.82v.09h0v.07a.38.38,0,0,0,.08.34c.09.06.16,0,.18-.12.34-1.26.46-2.7,1.38-3.71a.45.45,0,0,0,.05-.4"/><path class="cls-1" d="M27.18,166.36c0-.06-.07-.27-.18-.2a3,3,0,0,0-1,1.21,5.62,5.62,0,0,0-.31.77,3.24,3.24,0,0,0-.18.82c0,.07.09.41.21.24a1.57,1.57,0,0,0,.2-.46.39.39,0,0,0,0-.22l0-.08a4.81,4.81,0,0,1,.27-.67,2.64,2.64,0,0,1,.86-1.06.38.38,0,0,0,.1-.36"/><path class="cls-1" d="M26,166.19c0-.08-.11-.21-.2-.1A4.55,4.55,0,0,0,25,167.4c-.18.46-.34.93-.51,1.4,0,.1,0,.57.2.39a1,1,0,0,0,.21-.42.37.37,0,0,0,0-.09,6.69,6.69,0,0,1,.94-2.08.46.46,0,0,0,.05-.4"/><path class="cls-1" d="M24.48,166.41c-.09-.1-.17,0-.2.1-.09.32-.2.64-.31,1a7.22,7.22,0,0,0-.32,1,.45.45,0,0,0,0,.27s.08.11.14.07a.68.68,0,0,0,.23-.27,2.54,2.54,0,0,0,.11-.34.36.36,0,0,0,0-.23l.07-.2c.11-.32.22-.63.31-1a.45.45,0,0,0-.05-.4"/><path class="cls-1" d="M23.87,166.51c0-.08-.12-.21-.2-.1a3.1,3.1,0,0,0-.49,1c-.05.17-.09.33-.13.5a3.1,3.1,0,0,0-.11.61c0,.08,0,.22.1.27s.11,0,.13-.07h0v-.06h0l0-.08a1,1,0,0,0,0-.18s0-.07,0-.1v-.07c0-.16.07-.32.12-.47a2.5,2.5,0,0,1,.4-.82.46.46,0,0,0,.05-.4"/><path class="cls-1" d="M22.42,166.68c-.05-.11-.15-.11-.21,0a3.57,3.57,0,0,0-.32,1c-.06.32-.12.64-.15,1,0,.1,0,.29.1.35s.13-.05.16-.13h0v-.05c.07-.29.09-.6.15-.9a2.86,2.86,0,0,1,.26-.82.48.48,0,0,0,0-.41"/><path class="cls-1" d="M21.62,166.41c-.09-.1-.18,0-.2.1-.09.32-.18.63-.27.94,0,.08,0,.16-.06.24s-.07.09-.07.12,0,.2,0,.31h0a1.59,1.59,0,0,0,0,.34.36.36,0,0,0,.07.26c.08.09.17,0,.19-.1s.05-.34.08-.5.06-.28.1-.41c.08-.3.18-.61.26-.91a.46.46,0,0,0-.05-.4"/><path class="cls-1" d="M20.52,167c-.09-.09-.17,0-.19.1s-.13.46-.19.69a6.07,6.07,0,0,0-.19.73h0a.36.36,0,0,0,0,.2c0,.05.09.14.15.06a.93.93,0,0,0,.11-.22l.07-.09a.28.28,0,0,0,0-.18l.06-.21c.06-.23.13-.46.19-.7a.44.44,0,0,0-.05-.38"/><path class="cls-1" d="M19.62,167.25c-.06-.07-.12,0-.14.07s-.06.25-.08.38l0,.24V168h0v.08l0,.08a.3.3,0,0,0,0,.06.57.57,0,0,0,0,.21s0,.14.11.1l0,0a.38.38,0,0,0,.07-.18l.06-.26.09-.45v-.12a.33.33,0,0,0,0-.29"/><path class="cls-1" d="M18.86,168.53h0"/><path class="cls-1" d="M18.86,168.38v0h0s0-.07,0-.1v-.07a.39.39,0,0,0,0-.15.23.23,0,0,0,0-.12c-.06-.06-.12,0-.14.07a1.81,1.81,0,0,0-.05.54,1,1,0,0,0,0,.25s0,.13.11.13.06,0,.07-.08a.29.29,0,0,0,0-.12v0h0v0h0v-.12h0a.13.13,0,0,0,0,0v0s0-.06,0-.09v0h0"/><path class="cls-1" d="M18.86,168.37h0"/><path class="cls-1" d="M18.88,168.71h0"/><path class="cls-1" d="M18,168.68a.22.22,0,0,0,0-.1.32.32,0,0,0,0-.14s0-.07-.05-.08a.05.05,0,0,0-.07,0,.51.51,0,0,0-.11.32.4.4,0,0,0,.12.3s0,0,.06,0a.13.13,0,0,0,0-.08.27.27,0,0,0,0-.23h0v0"/><path class="cls-1" d="M52.68,178.85a3.29,3.29,0,0,0-2.26-1.8,9.29,9.29,0,0,0-3.72-.23,10.59,10.59,0,0,0-3.94,1.25c-.23.13-.41.26-.41.55a.42.42,0,0,0,.38.46c.12,0,.18-.26.12-.44l.15-.09.36-.18c0,.14.11.25.22.25h.35A.89.89,0,0,0,44,179a1.06,1.06,0,0,0-.44.33.48.48,0,0,0-.05.4c0,.07.12.22.2.1a1,1,0,0,1,.46-.32,4.72,4.72,0,0,1,.83-.27,6.34,6.34,0,0,1,2-.18l.29,0a3.63,3.63,0,0,0,.8.36l.08.11,0,.08v0a.24.24,0,0,1,0,.06.83.83,0,0,1-.16.23,2.58,2.58,0,0,1-.64.46,11,11,0,0,1-1.8.74c-.49.16-1,.3-1.48.5s-.82.4-1.23.58-1,.44-1.57.64a31.68,31.68,0,0,1-3.32,1,98.05,98.05,0,0,1-13.47,1.91c-2.31.25-4.6.63-6.9.94v0c.06-.21.12-.42.17-.63a.65.65,0,0,0,0-.54.09.09,0,0,0-.11,0,.33.33,0,0,0-.11.29l-.28,1-2,.23c.26-.74.6-1.44.91-2.15a.43.43,0,0,0,0-.36c-.05-.1-.13-.09-.18,0a10.81,10.81,0,0,0-.88,1.95c-.07.2-.14.4-.21.6l-.9.1.27-.91a4.82,4.82,0,0,1,.67-1.56.4.4,0,0,0,0-.35c0-.09-.09-.17-.17-.09a3,3,0,0,0-.69,1.36c-.17.52-.31,1.06-.47,1.58l-.92.09q.1-.39.21-.78c.17-.61.41-1.18.62-1.78a.42.42,0,0,0,0-.34c-.06-.08-.13-.07-.17,0a8.41,8.41,0,0,0-.58,1.54c-.14.45-.26.91-.37,1.37l-.88.07c.09-.25.17-.49.25-.74.14-.47.26-.94.37-1.41l.2-.82a3.2,3.2,0,0,0,.11-.7c0-.1-.1-.34-.19-.16a2.18,2.18,0,0,0-.16.53l-.18.77c-.12.5-.24,1-.39,1.49s-.24.72-.36,1.08l-.51,0,0-.1.37-1.63a11.28,11.28,0,0,0,.31-1.51c0-.07,0-.2-.05-.25a.08.08,0,0,0-.14,0,8.71,8.71,0,0,0-.37,1.45L10.53,187l-.09.4-.48,0h-.2A7.7,7.7,0,0,1,10,185.8c.09-.39.19-.79.28-1.18a4.25,4.25,0,0,0,.16-1c0-.13-.12-.31-.19-.1s-.18.66-.26,1-.21.83-.29,1.26a8.64,8.64,0,0,0-.23,1.78,7.33,7.33,0,0,0-.81.07l-1,.19a4.42,4.42,0,0,1-2.18.05.84.84,0,0,1-.54-.59.79.79,0,0,1,.26-.62,3.52,3.52,0,0,1,1.74-1,2.37,2.37,0,0,1,.79-.08c0,.12.07.25.18.25h.24a.94.94,0,0,0,.24,0c.15,0,.19-.24.19-.38a.48.48,0,0,0-.1-.32c.26-.17.22-1-.09-1H8.27c.09-.14.07-.5-.1-.52a7.59,7.59,0,0,0-3.39.5,13.28,13.28,0,0,0-3.14,1.53A2.91,2.91,0,0,0,0,188.27a2.51,2.51,0,0,0,1.85,1.82,8.87,8.87,0,0,0,1.94.37l2.37.27c1.44.16,2.88.3,4.32.37a3.18,3.18,0,0,0,.08.41c0,.09.1.18.19.1a.43.43,0,0,0,0-.37l0-.13h.94c-.11.51-.24,1-.38,1.52a.45.45,0,0,0,.05.4c.09.09.17,0,.2-.1.17-.6.32-1.21.45-1.82l.71,0-.07.32q-.25,1.19-.47,2.4c0,.1,0,.3.1.35s.16-.13.18-.2q.25-1.44.57-2.86a.22.22,0,0,0,.18.12l.66,0q-.17.8-.33,1.61c-.16.79-.31,1.59-.48,2.38,0,.09,0,.29.09.33s.15-.11.17-.19c.29-1.37.55-2.75.84-4.12q.81,0,1.62,0c-.31.87-.62,1.74-.91,2.62s-.49,1.58-.7,2.39a.42.42,0,0,0,0,.37c.09.09.16,0,.19-.1.47-1.8,1.1-3.55,1.73-5.3l.85-.05,0,.08q-.55,1.73-1,3.5-.23,1-.43,2c0,.1,0,.31.1.36s.16-.13.18-.2a48.1,48.1,0,0,1,1.49-5.76l.87-.1c-.24.57-.45,1.15-.64,1.73a40.48,40.48,0,0,0-1.07,4.06c-.16.75-.32,1.5-.47,2.25,0,.08,0,.24.07.29s.14,0,.16-.1a41.88,41.88,0,0,1,2.15-7.8c.07-.16.14-.32.22-.48l.54-.09a.26.26,0,0,0,.18-.17h.38l-.14.27a18.45,18.45,0,0,0-.81,1.83,21.53,21.53,0,0,0-1.14,4,12,12,0,0,0-.2,2.06c0,.08,0,.28.14.28s.14-.2.14-.28a13.84,13.84,0,0,1,.58-3.64,20.44,20.44,0,0,1,1.39-3.68c.15-.31.33-.61.51-.9h0l2-.11a2.77,2.77,0,0,0-.45.68c-.14.25-.26.51-.38.77a18,18,0,0,0-.65,1.75c-.4,1.24-.7,2.5-1,3.77-.17.67-.34,1.33-.53,2a.45.45,0,0,0,.05.4c.09.09.17,0,.2-.1a66.45,66.45,0,0,1,2.06-7.16c.12-.3.26-.59.41-.88s.33-.54.46-.83a.43.43,0,0,0,0-.33.21.21,0,0,0,0-.07,72.74,72.74,0,0,0,7.23-.84c1.52-.26,3-.61,4.51-.94s3-.6,4.56-.94c.74-.16,1.47-.34,2.2-.55s1.34-.43,2-.63l1.38-.4.66-.09a.24.24,0,0,0,.19-.15c.41-.12.82-.25,1.23-.39a11.14,11.14,0,0,0,2.73-1.33,2.33,2.33,0,0,0,1.34-1.2l.31-.33.08-.09a5,5,0,0,0,.74-.78l.28-.32a2.89,2.89,0,0,0,.86-2.78M7.91,184.17l-.51.06,0-.07a4.92,4.92,0,0,1,.54,0M.33,188.23a.82.82,0,0,1,0-.34,1.86,1.86,0,0,0,.08.49,1.08,1.08,0,0,1-.06-.14m3.5-3.16a12.7,12.7,0,0,1,1.81-.63.21.21,0,0,0-.09.07l-.17.06c-.5.15-1,.3-1.47.48H3.83m43.3-3.83a.49.49,0,0,0,0-.09l.18-.08a4.81,4.81,0,0,0,.58-.33h0c-.25.15-.49.32-.72.5m1.41-1.47h0a1.07,1.07,0,0,0,0-.25h.05c0,.08,0,.16-.05.24"/></g></g></svg>