<svg width="78" height="78" viewBox="0 0 78 78" fill="none" xmlns="http://www.w3.org/2000/svg">
<path d="M39.4729 77.9988C60.7209 77.9988 77.9458 60.7739 77.9458 39.5259C77.9458 18.2779 60.7209 1.05298 39.4729 1.05298C18.2249 1.05298 1 18.2779 1 39.5259C1 60.7739 18.2249 77.9988 39.4729 77.9988Z" fill="white"/>
<path d="M1.91992 39.2028C1.91992 18.5054 18.6943 1.73096 39.3918 1.73096C60.0892 1.73096 76.8636 18.5054 76.8636 39.2028C76.8636 59.9003 60.0892 76.6747 39.3918 76.6747C18.6943 76.6747 1.91992 59.9003 1.91992 39.2028Z" fill="white"/>
<path d="M39.3918 76.6747C60.0869 76.6747 76.8636 59.898 76.8636 39.2028C76.8636 18.5077 60.0869 1.73096 39.3918 1.73096C18.6966 1.73096 1.91992 18.5077 1.91992 39.2028C1.91992 59.898 18.6966 76.6747 39.3918 76.6747Z" stroke="black" stroke-width="2" stroke-miterlimit="10"/>
<path d="M18.0719 69.2338C18.099 69.1256 18.099 68.9633 18.0449 68.8821C18.0178 68.8009 17.9367 68.6386 17.8284 68.6927C17.7473 68.7468 17.7202 68.8009 17.6661 68.8821C17.4767 68.5304 17.2873 68.1787 17.098 67.7999C16.9897 67.5834 16.8815 67.3941 16.8003 67.1776C16.7462 67.0694 16.6921 66.9612 16.665 66.8529C16.638 66.7988 16.6109 66.7447 16.5839 66.6636C16.5839 66.6365 16.5568 66.6094 16.5568 66.5824V66.5553C16.5298 66.4742 16.4757 66.3389 16.3945 66.2848C16.3133 66.2577 16.2322 66.2848 16.1781 66.3389C16.0157 66.5283 15.9887 66.88 16.0698 67.1235C16.4216 68.0434 16.8815 68.8821 17.3414 69.7479C17.3955 69.8832 17.4767 69.9643 17.612 70.0455C17.6661 70.0726 17.7473 70.0996 17.8284 70.0996C18.0449 70.1267 18.126 69.8832 18.1531 69.7208C18.126 69.5314 18.099 69.3962 18.0719 69.2338Z" fill="black"/>
<path d="M20.1552 69.3154C20.047 69.2884 19.9658 69.2343 19.8576 69.1801C19.8306 69.1801 19.8306 69.1531 19.8035 69.1531L19.7764 69.126C19.7494 69.099 19.6953 69.0449 19.6682 69.0178C19.6141 68.9637 19.5871 68.9366 19.56 68.8825C19.56 68.8555 19.5059 68.8014 19.4788 68.7743C19.3977 68.6661 19.3436 68.5308 19.2895 68.4226C19.2624 68.3955 19.2624 68.3414 19.2353 68.3144L19.2083 68.2603C19.1812 68.2061 19.1542 68.152 19.1542 68.0709C19.1001 67.9085 19.046 67.7733 19.0189 67.6109C18.9377 67.2863 18.8566 66.9345 18.7754 66.6099C18.7213 66.4475 18.559 66.2311 18.3966 66.3934C18.2072 66.5828 18.2343 66.9345 18.2884 67.178C18.4507 67.9085 18.6131 68.612 18.9377 69.2884C19.1542 69.7483 19.5871 70.4518 20.1823 70.1271C20.3176 70.073 20.3446 69.8565 20.3446 69.7213C20.2905 69.586 20.2635 69.3695 20.1552 69.3154Z" fill="black"/>
<path d="M21.8328 71.0471C21.7786 70.9118 21.6704 70.8035 21.5622 70.9388C21.5622 70.9388 21.5351 70.9659 21.5081 70.9929C21.481 71.02 21.454 71.02 21.454 71.02C21.4269 71.0471 21.3728 71.047 21.3728 71.0741H21.3457C21.3457 71.0741 21.3187 71.0741 21.3187 71.0471C21.3187 71.02 21.2916 71.02 21.2916 70.9929C21.2646 70.9388 21.2375 70.8847 21.2105 70.8306C21.2105 70.8035 21.1834 70.7765 21.1834 70.7494C21.1564 70.6683 21.1293 70.5871 21.1022 70.533C21.0752 70.4518 21.0481 70.3707 21.0481 70.2895C21.0481 70.2624 21.0211 70.2083 21.0211 70.1813C21.0211 70.1542 21.0211 70.1542 21.0211 70.1272C20.994 69.9378 20.9399 69.7484 20.9129 69.5319C20.8587 69.1532 20.8046 68.7744 20.7776 68.3956C20.7505 68.2062 20.7505 68.0168 20.7234 67.8274C20.7234 67.7463 20.7235 67.6651 20.6964 67.611C20.6964 67.5839 20.6964 67.5569 20.6964 67.5298C20.6964 67.3675 20.6423 66.9617 20.4258 66.9617C20.2094 66.9617 20.1282 67.3675 20.1553 67.5298C20.2094 68.3144 20.2635 69.0991 20.3988 69.8837C20.48 70.3165 20.5341 70.7494 20.6694 71.1823C20.7505 71.4799 20.8858 71.8587 21.1564 72.0481C21.481 72.2375 21.7245 71.9128 21.8598 71.6423C21.9139 71.4258 21.9139 71.2094 21.8328 71.0471Z" fill="black"/>
<path d="M24.3219 71.8851C24.1596 71.6957 24.0784 71.3981 23.9972 71.1546C23.889 70.7758 23.8349 70.4241 23.7808 69.9642C23.6726 69.0984 23.6455 68.2056 23.5373 67.3398C23.5102 67.1775 23.402 66.8528 23.1856 66.934C22.9691 67.0151 22.9691 67.448 22.9962 67.6374C23.1044 68.5843 23.1314 69.5313 23.2667 70.4782C23.3208 70.9382 23.402 71.3981 23.5643 71.8581C23.6455 72.0745 23.6996 72.2909 23.889 72.4533C23.9702 72.5074 24.0513 72.6156 24.1866 72.6697C24.5113 72.7509 24.4572 72.0474 24.3219 71.8851Z" fill="black"/>
<path d="M22.7797 71.4257C22.7256 71.0199 22.6444 70.614 22.5903 70.2082C22.4821 69.3695 22.3468 68.5037 22.2386 67.665C22.2115 67.5027 22.1033 67.178 21.8868 67.2592C21.6704 67.3403 21.6704 67.7732 21.6975 67.9626C21.8057 68.8284 21.9139 69.6671 22.0492 70.5329C22.1033 70.9387 22.1574 71.3445 22.2386 71.7504C22.2927 72.0209 22.3197 72.3185 22.455 72.5891C22.5091 72.6973 22.5903 72.7785 22.6985 72.6973C22.8067 72.6161 22.8338 72.3997 22.8338 72.2644C22.8608 71.9668 22.8338 71.6963 22.7797 71.4257Z" fill="black"/>
<path d="M26.3239 72.0482C26.3239 71.9129 26.351 71.6694 26.2157 71.5612C26.1075 71.48 26.0263 71.5882 25.9722 71.6694C25.9181 71.5612 25.891 71.4259 25.8369 71.2906C25.7016 70.9118 25.6205 70.506 25.5393 70.1002C25.377 69.2885 25.2688 68.4498 25.1335 67.6381C25.1064 67.4758 24.9982 67.1511 24.7817 67.2323C24.5653 67.3135 24.5653 67.7463 24.5924 67.9357C24.7276 68.8556 24.8359 69.7755 25.0523 70.6683C25.2417 71.5341 25.4581 72.4811 25.9451 73.2386C26.1345 73.5362 26.3239 73.0222 26.351 72.9139C26.378 72.6163 26.2969 72.3458 26.3239 72.0482Z" fill="black"/>
<path d="M29.4894 73.5086C29.4894 73.4004 29.4624 73.1569 29.3271 73.1298C29.1918 73.1028 29.1377 73.2922 29.1106 73.4004C29.1106 73.4274 29.1106 73.4274 29.1106 73.4545C28.9753 72.7511 28.813 72.0747 28.7048 71.3712C28.5154 70.289 28.3801 69.2068 28.326 68.1246C28.326 67.9622 28.2719 67.5564 28.0555 67.5564C27.839 67.5564 27.7579 67.9622 27.7849 68.1246C27.8661 69.2879 28.0014 70.4513 28.1908 71.6147C28.3801 72.751 28.5695 73.9415 28.8671 75.0508C28.8942 75.186 29.0836 75.4566 29.2459 75.2402C29.5706 74.6991 29.4894 74.1579 29.4894 73.5086Z" fill="black"/>
<path d="M30.9234 74.0498C30.9234 74.0498 30.9234 74.0498 30.8963 74.0228C30.8693 73.9416 30.8693 73.9957 30.8693 73.9416C30.8422 73.8063 30.8152 73.6981 30.7881 73.5628C30.7611 73.5087 30.734 73.2923 30.734 73.3193C30.5987 72.7241 30.5446 72.1289 30.4634 71.5066C30.3281 70.3162 30.247 69.1257 30.1658 67.9623C30.1658 67.8 30.0306 67.4753 29.8141 67.5565C29.5977 67.6377 29.5977 68.0706 29.6247 68.26C29.7059 69.5586 29.8141 70.8573 29.9494 72.1559C30.0306 72.7782 30.1117 73.4276 30.2741 74.0498C30.3011 74.1851 30.3552 74.3204 30.4093 74.4286C30.4364 74.4827 30.4635 74.5368 30.4905 74.5639C30.4364 74.4827 30.5176 74.5909 30.5176 74.618C30.5987 74.7533 30.6799 74.8886 30.8693 74.8886C31.1939 74.8886 31.1398 74.1581 30.9234 74.0498Z" fill="black"/>
<path d="M32.9525 74.8886C32.9795 74.7534 32.9795 74.5099 32.8443 74.4287C32.736 74.3475 32.6278 74.4557 32.6008 74.591C32.5466 74.3205 32.4925 74.077 32.4655 73.8064C32.3843 73.2383 32.3032 72.6701 32.2491 72.1019C32.1138 70.9385 32.0055 69.7751 31.7891 68.6118C31.762 68.4494 31.6809 68.1248 31.4374 68.2059C31.2209 68.2871 31.1939 68.72 31.248 68.9094C31.4915 70.0998 31.5997 71.3173 31.735 72.5348C31.7891 73.13 31.8703 73.7252 31.9514 74.3205C32.0326 74.9157 32.1408 75.538 32.3573 76.1061C32.3843 76.1873 32.5196 76.2955 32.6008 76.2414C32.8172 76.0791 32.9525 75.8897 32.9795 75.6191C33.0337 75.3486 32.9254 75.1051 32.9525 74.8886Z" fill="black"/>
<path d="M34.8735 74.8883C34.8735 74.7531 34.9005 74.4825 34.7653 74.4013C34.7112 74.3472 34.63 74.3743 34.6029 74.4013C34.5488 74.2119 34.4947 73.9955 34.4677 73.8061C34.3865 73.2921 34.3324 72.778 34.2783 72.264C34.143 71.1817 34.0077 70.0995 33.683 69.0714C33.6289 68.882 33.4666 68.6926 33.3043 68.855C33.1419 69.0173 33.142 69.4231 33.1961 69.6396C33.5478 70.6677 33.656 71.7499 33.7642 72.8321C33.8183 73.3732 33.8995 73.8873 33.9806 74.4013C34.0889 74.9154 34.1701 75.5106 34.4406 75.9706C34.5759 76.2141 34.7923 76.1058 34.8464 75.8623C34.9006 75.6729 34.9276 75.4836 34.9276 75.2942C34.9005 75.213 34.8735 75.0507 34.8735 74.8883Z" fill="black"/>
<path d="M36.5239 76.7558C36.4698 76.2688 36.4968 75.7818 36.4427 75.3218C36.4427 75.2136 36.3616 75.0242 36.2263 75.0513C36.1992 75.0513 36.1992 75.0783 36.1722 75.0783C36.1722 75.0513 36.1722 75.0513 36.1722 75.0242C36.064 74.4831 35.9828 73.942 35.8745 73.4009C35.6852 72.2646 35.4958 71.1553 35.2252 70.046C35.1711 69.8566 35.0088 69.6672 34.8465 69.8296C34.6571 70.019 34.6841 70.3977 34.7382 70.6142C34.9817 71.7235 35.1711 72.8327 35.3605 73.942C35.4417 74.4831 35.5499 75.0242 35.6581 75.5653C35.7663 76.1335 35.8475 76.7287 36.0639 77.2698C36.1181 77.4322 36.2804 77.4592 36.3886 77.351C36.5509 77.2157 36.5509 76.9452 36.5239 76.7558Z" fill="black"/>
<path d="M42.1243 75.781C42.1243 75.7539 42.1243 75.7539 42.0972 75.7269C42.0972 75.6727 42.0702 75.6186 42.0431 75.5645C42.0161 75.4563 41.962 75.321 41.9349 75.2128C41.8267 74.8881 41.7185 74.5635 41.6103 74.2388C41.3938 73.5354 41.1774 72.8319 40.8797 72.1555C40.7986 71.9391 40.5821 71.9661 40.4739 72.1555C40.3386 72.399 40.3657 72.7237 40.4739 72.9672C40.501 73.0484 40.528 73.1025 40.5551 73.1836L40.5821 73.2648C40.5821 73.2919 40.6092 73.3189 40.6092 73.346C40.6633 73.5083 40.7445 73.6977 40.7986 73.86C40.9068 74.2118 41.0421 74.5905 41.1503 74.9423C41.2585 75.2669 41.3668 75.6186 41.502 75.9433C41.5561 76.0515 41.6102 76.2139 41.6914 76.295C41.7185 76.3221 41.7185 76.3221 41.7455 76.3491C41.7726 76.3762 41.8267 76.4032 41.8538 76.4303C41.962 76.5115 42.0702 76.3221 42.0702 76.2409C42.2055 76.1056 42.1784 75.9433 42.1243 75.781Z" fill="black"/>
<path d="M43.9913 75.7006C43.9371 75.6465 43.856 75.5924 43.8019 75.5112C43.7748 75.4571 43.7478 75.43 43.7207 75.3759C43.7748 75.43 43.6937 75.3218 43.6666 75.2948C43.6395 75.2406 43.6125 75.1865 43.5854 75.1595C43.5584 75.1324 43.5584 75.1054 43.5584 75.0783C43.5043 74.943 43.4772 74.8078 43.4501 74.6725C43.4231 74.5913 43.4231 74.5372 43.396 74.456C43.396 74.4019 43.369 74.3749 43.369 74.3208C43.3419 74.1584 43.3149 73.9961 43.2878 73.8608C43.2608 73.6985 43.2608 73.5091 43.2337 73.3468C43.2337 73.2926 43.2337 73.2385 43.2337 73.2115C43.2337 73.1033 43.2337 73.0221 43.2337 72.9139C43.2337 72.7515 43.1796 72.3457 42.9632 72.3457C42.7197 72.3457 42.6656 72.7515 42.6926 72.9139C42.7197 73.7255 42.7738 74.5372 42.9902 75.3218C43.0984 75.7006 43.369 76.5664 43.9101 76.5122C44.1536 76.4311 44.1536 75.8359 43.9913 75.7006Z" fill="black"/>
<path d="M45.6145 76.0788C45.5604 75.9977 45.4522 75.9165 45.371 76.0247C45.344 76.0518 45.344 76.0518 45.3169 76.0788C45.2628 75.8624 45.1816 75.6189 45.1275 75.4024C45.1275 75.3754 45.1005 75.3213 45.1005 75.2942C45.1005 75.2942 45.1005 75.2942 45.1005 75.2672C45.0734 75.186 45.0734 75.1048 45.0464 75.0237C45.0193 74.8613 44.9923 74.6719 44.9652 74.5096C44.9111 74.1849 44.884 73.8332 44.8299 73.5086C44.8029 73.3733 44.8028 73.238 44.8028 73.1027C44.8028 73.0486 44.8028 72.9945 44.8028 72.9133C44.8299 73.1298 44.8028 72.9404 44.8028 72.8863C44.8028 72.7239 44.7487 72.3181 44.5323 72.3181C44.3158 72.3181 44.2347 72.7239 44.2617 72.8863C44.2888 73.5356 44.37 74.212 44.4782 74.8613C44.5323 75.2401 44.6135 75.6189 44.6946 75.9977C44.7488 76.2141 44.8299 76.7011 45.0464 76.8364C45.1275 76.9176 45.2087 77.0258 45.3169 76.9987C45.5063 76.9717 45.6145 76.7282 45.6686 76.5658C45.6957 76.4306 45.6686 76.2141 45.6145 76.0788Z" fill="black"/>
<path d="M47.5625 75.6736C47.5625 75.5383 47.5084 75.376 47.3731 75.349C47.3731 75.349 47.319 75.349 47.3461 75.349C47.319 75.349 47.319 75.349 47.292 75.349C47.292 75.349 47.292 75.349 47.2649 75.349C47.2108 75.3219 47.1837 75.3219 47.1567 75.2948C47.1296 75.2678 47.0755 75.2407 47.0485 75.2137L47.0214 75.1866C47.0214 75.1866 47.0214 75.1866 46.9944 75.1596C46.9403 75.1055 46.8591 75.0243 46.805 74.9702C46.7779 74.9431 46.7779 74.9431 46.7509 74.9161C46.7509 74.9161 46.7509 74.9161 46.7509 74.889C46.7238 74.862 46.7238 74.862 46.7509 74.862C46.7238 74.8349 46.6967 74.7808 46.6967 74.7537C46.6697 74.6996 46.6426 74.6455 46.6156 74.6185C46.6156 74.5914 46.5615 74.5102 46.5885 74.5914C46.6156 74.6726 46.5885 74.5643 46.5615 74.5373C46.5073 74.4291 46.4803 74.2938 46.4533 74.1856C46.4533 74.1585 46.4262 74.1315 46.4262 74.0773C46.4532 74.2397 46.4262 74.1044 46.4262 74.0773C46.4262 73.9962 46.3991 73.9421 46.3991 73.8609C46.3721 73.6986 46.345 73.5362 46.345 73.3739C46.345 73.2116 46.2097 72.8598 45.9933 72.9681C45.7768 73.0763 45.7769 73.4551 45.8039 73.6715C45.858 74.3208 45.9662 75.0243 46.2909 75.5925C46.3991 75.8089 46.5615 76.0524 46.7779 76.1336C46.8591 76.1606 46.9943 76.2147 47.0755 76.1877C47.1026 76.1877 47.1296 76.1606 47.1567 76.1606H47.2108C47.2649 76.1336 47.319 76.1336 47.4002 76.1065C47.5625 76.0524 47.5625 75.8089 47.5625 75.6736Z" fill="black"/>
<path d="M46.7781 74.8891C46.7781 74.8618 46.7781 74.8618 46.7509 74.8618C46.7509 74.8618 46.7508 74.8891 46.7781 74.8891Z" fill="black"/>
<path d="M48.78 74.8348C48.78 74.8077 48.78 74.7807 48.7529 74.7807C48.7529 74.7536 48.7258 74.7266 48.7258 74.6995V74.6725C48.6988 74.6184 48.6988 74.5913 48.6717 74.5372C48.6717 74.5372 48.6717 74.5101 48.6447 74.5101C48.6447 74.4831 48.6176 74.456 48.6176 74.429C48.5906 74.3478 48.5635 74.2666 48.5365 74.1855C48.4823 73.9961 48.4282 73.8067 48.3741 73.6173C48.3741 73.5632 48.3471 73.5091 48.3471 73.455C48.3471 73.4279 48.32 73.4009 48.32 73.3738C48.32 73.3467 48.32 73.3197 48.32 73.3197C48.32 73.2926 48.32 73.2656 48.293 73.2385C48.293 73.1844 48.2659 73.1303 48.2659 73.0762C48.2388 72.968 48.2118 72.8327 48.1306 72.7245C48.0765 72.6704 47.9953 72.6163 47.9142 72.6704C47.6977 72.8056 47.6707 73.1574 47.7248 73.3738C47.806 73.8608 47.9142 74.3478 48.0765 74.7807C48.1577 74.9701 48.2118 75.1324 48.32 75.2947C48.3471 75.3489 48.4012 75.403 48.4553 75.43C48.4823 75.4571 48.4824 75.4571 48.5094 75.4841C48.5635 75.5112 48.6176 75.5112 48.6717 75.4841C48.7529 75.4571 48.807 75.2677 48.807 75.2136C48.8341 75.1054 48.8341 74.943 48.78 74.8348Z" fill="black"/>
<path d="M50.3493 74.1854C50.1869 73.7255 49.9976 73.2385 49.7811 72.7785C49.7541 72.6974 49.6729 72.6162 49.5917 72.6162C49.5106 72.6162 49.4294 72.6974 49.4023 72.7785C49.2941 73.022 49.2941 73.3197 49.4023 73.5902C49.4835 73.8067 49.5917 74.0231 49.6729 74.2395C49.7811 74.483 49.8082 74.5913 49.8893 74.8077C49.9164 74.8618 49.9164 74.8889 49.9434 74.943C49.9705 74.9971 49.9705 75.0512 49.9976 75.1053C49.9976 75.1324 49.9976 75.1324 50.0246 75.1324C50.0787 75.2406 50.1058 75.3759 50.1599 75.5112C50.2411 75.7005 50.2952 75.944 50.4575 76.0793C50.6739 76.2958 50.7822 75.8629 50.7551 75.7276C50.7281 75.2135 50.5387 74.6724 50.3493 74.1854Z" fill="black"/>
<path d="M52.8924 74.5099C52.8383 74.3747 52.7842 74.2394 52.7031 74.077C52.676 74.0229 52.6489 73.9418 52.6219 73.8877V73.8606C52.5948 73.8336 52.5948 73.8065 52.5948 73.7524C52.4866 73.4818 52.4054 73.2113 52.3243 72.9407C52.2972 72.8054 52.1349 72.6161 51.9996 72.7784C51.8643 72.9407 51.8643 73.2113 51.9184 73.4007C52.0808 73.9959 52.2972 74.5911 52.6489 75.0781C52.7301 75.2134 52.8654 75.0781 52.8924 74.9699C52.9736 74.8617 52.9736 74.6723 52.8924 74.5099Z" fill="black"/>
<path d="M10.8483 45.9935C10.7942 45.6147 10.7942 45.2359 10.7671 44.8572C10.7671 44.776 10.713 44.6137 10.6048 44.5866C10.1989 42.4222 9.68487 40.2848 9.25199 38.1474C9.22493 37.9851 9.14377 37.6604 8.90027 37.7416C8.68382 37.8227 8.65677 38.2556 8.71088 38.445C9.25199 41.0694 9.84721 43.6667 10.3072 46.2911C10.3342 46.4534 10.4154 46.7781 10.6589 46.6969C10.8753 46.5887 10.8753 46.1829 10.8483 45.9935Z" fill="black"/>
<path d="M19.7765 41.6915C19.7224 41.6915 19.6953 41.6915 19.6412 41.6915C19.6412 41.6915 19.6412 41.6645 19.6142 41.6374C19.533 41.3668 19.4518 41.0963 19.3707 40.8528C19.1272 40.0682 18.8025 39.3106 18.5861 38.526C18.1532 36.9027 17.9097 35.2253 17.4768 33.6019C17.4227 33.4125 17.2604 33.2231 17.098 33.3855C16.9086 33.5478 16.9357 33.9536 16.9898 34.1701C17.4768 35.9828 17.7203 37.8767 18.2885 39.6894C18.532 40.474 18.8296 41.2586 19.1001 42.0432C19.2354 42.422 19.5059 42.9361 19.9118 42.4761C19.9929 42.3679 20.0741 41.6374 19.7765 41.6915Z" fill="black"/>
<path d="M32.0868 26.1615C32.0327 26.1885 32.0868 26.1615 32.0327 26.1885H32.0057C32.0057 26.1885 31.9786 26.1615 31.9786 26.1344C31.9786 26.1344 31.9786 26.1344 31.9786 26.1074C31.9786 26.0803 31.9516 26.0533 31.9245 26.0262C31.8974 25.9721 31.8704 25.918 31.8434 25.8639C31.8163 25.8368 31.8163 25.8098 31.8163 25.7556C31.8163 25.7286 31.7892 25.7015 31.7892 25.7015C31.7351 25.5392 31.681 25.3769 31.6269 25.2145C31.3834 24.3488 31.2481 23.6453 31.0858 22.7525C31.0046 22.3466 30.9234 21.9138 30.8423 21.5079C30.8152 21.3185 30.6258 21.1292 30.4635 21.2915C30.2741 21.4809 30.3012 21.8326 30.3553 22.0761C30.3553 22.1031 30.3553 22.1302 30.3823 22.1573C30.4094 22.2655 30.4094 22.3466 30.4364 22.4549C30.4635 22.6443 30.5176 22.8607 30.5447 23.0501C30.6529 23.5641 30.7341 24.0782 30.8423 24.5652C30.9505 25.0251 31.0317 25.458 31.167 25.8909C31.2752 26.2156 31.3834 26.6214 31.6269 26.892C31.8704 27.1355 32.1139 27.1084 32.3033 26.8108C32.3574 26.7296 32.3574 26.0262 32.0868 26.1615Z" fill="black"/>
<path d="M33.2772 25.0794C33.2772 24.9441 33.3042 24.7006 33.1689 24.6195C33.0607 24.5383 32.9796 24.6195 32.9525 24.7006C32.9255 24.6465 32.9254 24.5654 32.8984 24.5113C32.7902 24.1054 32.709 23.6725 32.6549 23.2667C32.4926 22.3739 32.3573 21.454 32.0867 20.5611C32.0326 20.3718 31.8703 20.1824 31.708 20.3447C31.5456 20.5341 31.5456 20.9129 31.5997 21.1293C31.8432 21.9951 31.9785 22.8879 32.1409 23.7537C32.222 24.2136 32.3032 24.6736 32.4385 25.1065C32.5467 25.4852 32.6549 25.9452 32.8713 26.2699C33.0878 26.5945 33.2772 26.2969 33.3313 26.0264C33.3313 25.7287 33.2501 25.4041 33.2772 25.0794Z" fill="black"/>
<path d="M44.4781 15.7441C44.4781 15.7708 44.5048 15.7708 44.4781 15.6907C44.4514 15.7174 44.4781 15.7441 44.4781 15.7441Z" fill="black"/>
<path d="M10.3882 15.2853C10.3612 14.9606 10.307 14.6359 10.28 14.3113C10.2529 13.9866 10.2529 13.5537 10.0906 13.2561C9.95533 13.0126 9.79298 13.1479 9.73887 13.3373C9.63065 13.716 9.68476 14.1489 9.73887 14.5277C9.76593 14.8524 9.79299 15.15 9.8471 15.4746C9.90121 16.124 9.98238 16.7463 9.98238 17.3685C9.98238 17.5309 10.0365 17.9367 10.2529 17.9367C10.4964 17.9367 10.5505 17.5309 10.5235 17.3685C10.5235 16.6651 10.4694 15.9616 10.3882 15.2853Z" fill="black"/>
<path d="M12.9585 12.2824C12.8773 12.1201 12.715 12.1201 12.6338 12.2824C12.4715 12.6612 12.5256 13.0941 12.5256 13.4999V16.7466C12.5256 16.9089 12.5797 17.3147 12.7962 17.3147C13.0397 17.3147 13.0667 16.9089 13.0667 16.7466V13.4999C13.0667 13.0941 13.1208 12.6612 12.9585 12.2824Z" fill="black"/>
<path d="M15.2853 16.584C15.1771 15.637 14.9336 14.7442 14.8254 13.7972C14.7713 13.3914 14.7442 12.9856 14.7983 12.6068C14.8524 12.1198 15.0959 11.714 15.2042 11.254C15.2312 11.1458 15.2312 10.4153 14.9607 10.5776C14.5548 10.8211 14.3925 11.5246 14.3113 11.9845C14.2031 12.5527 14.2031 13.1208 14.2572 13.689C14.3384 14.7712 14.6631 15.8264 14.7713 16.8816C14.7983 17.0439 14.9066 17.3686 15.123 17.2874C15.3124 17.1792 15.3124 16.7733 15.2853 16.584Z" fill="black"/>
<path d="M17.4768 16.449C17.2062 15.3668 17.0168 14.2575 16.9356 13.1482C16.9086 12.6342 16.8816 12.0931 16.8816 11.579C16.8816 11.0108 16.9356 10.3886 16.8004 9.84746C16.7192 9.54985 16.4757 9.57691 16.3945 9.84746C16.2322 10.4156 16.3134 11.1191 16.3134 11.7143C16.3134 12.3095 16.3404 12.8777 16.3945 13.4729C16.4757 14.6904 16.6651 15.8808 16.9898 17.0442C17.0439 17.2336 17.2062 17.423 17.3686 17.2607C17.558 17.0442 17.5309 16.6654 17.4768 16.449Z" fill="black"/>
<path d="M20.0201 15.177C19.7225 14.0136 19.6143 12.8232 19.506 11.6328C19.4519 11.0916 19.4519 10.5235 19.4249 9.98237C19.4249 9.52243 19.479 9.00838 19.3437 8.57549C19.2625 8.27788 19.0461 8.30493 18.9379 8.57549C18.7755 9.00838 18.8567 9.57654 18.8567 10.0635C18.8838 10.6858 18.9108 11.3081 18.9649 11.9574C19.0461 13.229 19.2084 14.5277 19.5331 15.7723C19.5872 15.9616 19.7495 16.151 19.9119 15.9887C20.1013 15.7723 20.0742 15.3935 20.0201 15.177Z" fill="black"/>
<path d="M24.7818 11.3618C24.4842 10.1714 24.3219 8.95386 24.1866 7.73636C24.1325 7.1682 24.0513 6.57298 23.9972 6.00481C23.9431 5.59898 23.9702 5.03081 23.7267 4.65204C23.5643 4.38148 23.3749 4.62498 23.3479 4.84143C23.2667 5.32842 23.402 5.81542 23.429 6.30242C23.4831 6.89764 23.5643 7.51992 23.6184 8.11514C23.7537 9.38675 23.916 10.6584 24.2407 11.9029C24.2948 12.0923 24.4571 12.2817 24.6195 12.1194C24.863 11.9841 24.8359 11.5782 24.7818 11.3618Z" fill="black"/>
<path d="M26.0804 10.5506C25.9992 9.46836 25.8369 8.38614 25.7287 7.30392C25.6746 6.73576 25.5934 6.16759 25.5393 5.62648C25.5393 5.51826 25.5123 5.41004 25.5123 5.30182C25.5123 5.24771 25.4581 4.97715 25.4581 5.00421C25.4581 4.95009 25.4311 4.89598 25.4311 4.84187C25.4311 4.81482 25.4311 4.81482 25.4311 4.78776V4.76071C25.4311 4.70659 25.404 4.65248 25.377 4.62543C25.3499 4.54426 25.2417 4.43604 25.1335 4.49015C25.0794 4.51721 25.0523 4.57132 25.0252 4.62543C24.9982 4.67954 24.9982 4.73365 24.9711 4.78776C24.9711 4.86893 24.9441 4.95009 24.9441 5.03126C24.9441 5.13948 24.9441 5.22065 24.9441 5.32887C24.9711 5.7347 25.0253 6.14054 25.0794 6.54637C25.2146 7.57448 25.3228 8.60259 25.4581 9.65775C25.5122 10.0636 25.5663 10.4965 25.5934 10.9023C25.5934 11.0646 25.7287 11.3893 25.9451 11.3081C26.1075 11.1729 26.0804 10.74 26.0804 10.5506Z" fill="black"/>
<path d="M25.3769 4.84229C25.3769 4.73407 25.3499 4.73407 25.3499 4.76112C25.3769 4.76112 25.3769 4.78818 25.3769 4.84229Z" fill="black"/>
<path d="M24.9171 4.76105C24.9442 4.57166 24.863 4.92338 24.9171 4.76105V4.76105Z" fill="black"/>
<path d="M32.5197 2.10949C32.5197 2.08243 32.5197 2.05538 32.5197 2.02832C32.5467 2.08243 32.5467 2.10949 32.5197 2.10949Z" fill="black"/>
<path d="M67.7188 14.2844C67.5835 14.4197 67.4482 14.5549 67.34 14.6902C67.34 14.582 67.313 14.4738 67.2859 14.3656C67.2588 14.2844 67.2047 14.2032 67.1235 14.1762C67.1235 14.0679 67.1235 13.9597 67.0965 13.8515C67.0424 13.6892 66.88 13.4457 66.7177 13.6351C66.6636 13.7162 66.5824 13.7974 66.5283 13.8786C66.5283 13.7974 66.5283 13.6892 66.5013 13.608C66.4742 13.4998 66.3389 13.2292 66.1766 13.3375C66.0954 13.3916 66.0413 13.4457 65.9602 13.4727C65.5814 12.9587 65.0944 12.4717 64.6885 11.9847C64.5533 11.8223 64.418 11.9306 64.3639 12.0658C64.3639 12.0388 64.3639 12.0388 64.3368 12.0117C64.2286 11.8223 64.0392 11.7953 63.931 12.0117C63.7146 12.4446 63.7416 12.9587 63.7416 13.4186C63.7416 13.9327 63.7957 14.5008 63.6605 15.0149C63.3628 16.2594 62.3888 17.2605 61.4419 18.0722C59.3045 19.9119 56.6801 21.1565 54.0287 22.1034C50.295 23.4292 46.3449 24.2408 42.8548 26.2429C42.476 26.4594 42.1243 26.6758 41.7726 26.9193C41.6643 26.9464 41.529 26.9734 41.4208 27.0005C40.528 27.271 39.7434 27.7851 39.04 28.4074C38.093 29.219 37.2543 30.2201 36.5779 31.3023C36.3074 31.5729 36.0368 31.8434 35.7933 32.141C33.8453 34.4949 33.196 37.5521 33.5477 40.5282C33.5477 40.5823 33.5477 40.6094 33.5477 40.6635C33.4665 41.394 33.4665 42.1516 33.5477 42.8821C33.71 44.2619 34.2511 45.4794 35.2251 46.4804C35.4145 46.6698 35.4957 46.5075 35.5498 46.291C35.658 46.291 35.7662 46.1287 35.7933 46.0205C36.6861 43.342 37.7683 40.6635 39.5811 38.472C41.0691 36.6863 42.9901 35.4418 45.1274 34.6031C47.833 33.5479 50.7009 33.088 53.5417 32.5198C57.1401 31.7893 60.3326 29.9495 62.6865 27.1358C63.3899 26.297 63.904 25.3771 64.3368 24.4031C64.3639 24.4843 64.391 24.5655 64.4451 24.5655C64.6074 24.5655 64.6074 24.1326 64.4721 24.0785C64.6886 23.5374 64.905 22.9963 65.0944 22.4552C65.6355 20.8859 66.0684 19.2085 66.9883 17.7746C67.2047 17.4499 67.4212 17.1523 67.6917 16.8817C67.8541 16.6923 67.854 16.3406 67.7999 16.0971C67.7729 16.043 67.7458 15.9889 67.7188 15.9348C67.827 15.7724 67.8811 15.556 67.8541 15.3396C67.9082 15.2584 67.9623 15.1772 68.0164 15.0961C68.1787 14.9337 68.0705 13.9327 67.7188 14.2844ZM59.8456 23.9162C59.8456 23.9973 59.8456 24.0244 59.8456 23.9703C59.8456 23.9161 59.8456 23.862 59.8456 23.8079C59.8456 23.7809 59.8456 23.7809 59.8456 23.7538C59.8456 23.7268 59.8727 23.6997 59.8727 23.6727C59.9268 23.5644 59.9538 23.4292 59.9268 23.2939C59.9809 23.2668 60.0079 23.2398 60.0621 23.2127C60.0621 23.5915 60.0621 23.9703 60.0621 24.3761V25.5124C60.0621 25.4854 60.035 25.4583 60.035 25.4313C60.008 25.296 59.9809 25.1607 59.9268 25.0254C59.9268 25.0254 59.8997 24.9443 59.8997 24.9172C59.8997 24.8631 59.8727 24.809 59.8727 24.7549C59.8456 24.6466 59.8456 24.5384 59.8186 24.4302C59.8186 24.3761 59.7915 24.2949 59.7915 24.2408C59.7915 24.2408 59.7915 24.2408 59.7915 24.2138C59.8456 24.1596 59.8186 23.9973 59.8456 23.9162ZM53.677 23.4021C54.0016 23.2939 54.3533 23.1586 54.678 23.0504C54.678 23.0504 54.678 23.0504 54.678 23.0774C54.0287 23.3209 53.3794 23.5644 52.703 23.7268C53.0276 23.6185 53.3523 23.5103 53.677 23.4021ZM35.7392 44.2619C35.658 44.5054 35.5769 44.7218 35.4957 44.9653C35.3604 44.7489 35.2251 44.5324 35.0899 44.316C34.7111 43.0985 34.3323 41.8539 34.1429 40.6094C34.197 40.2036 34.2782 39.7977 34.3593 39.446C34.5217 38.7155 34.7652 38.0121 35.0357 37.3086C35.0357 37.6603 35.0357 38.0121 35.0087 38.3638C34.9816 39.9059 34.9275 41.5293 35.3875 43.0444C35.4416 43.2338 35.6039 43.4232 35.7662 43.2608C35.9556 43.0985 35.9285 42.6927 35.8744 42.4762C35.4416 41.0152 35.5498 39.419 35.5768 37.9038C35.5768 37.3086 35.6039 36.6863 35.5768 36.0911C35.7933 35.7123 36.0368 35.3606 36.3074 35.0089C36.3074 35.0901 36.3074 35.1712 36.3074 35.2524C36.3074 35.9558 36.3344 36.6593 36.3615 37.3627C36.4156 38.7967 36.4967 40.2036 36.605 41.6375C36.605 41.6916 36.632 41.7998 36.6591 41.881C36.3344 42.6656 36.0097 43.4502 35.7392 44.2619ZM37.1461 40.907C37.0649 39.6895 36.9837 38.472 36.9567 37.2275C36.9296 36.5511 36.9026 35.9017 36.9026 35.2253C36.9026 34.9007 36.9026 34.576 36.9026 34.2514C37.0649 34.062 37.2272 33.8726 37.3896 33.6832C37.3896 33.9537 37.3896 34.2514 37.4166 34.5219C37.4707 35.5771 37.5789 36.6052 37.606 37.6603C37.606 37.8227 37.6601 38.2285 37.8766 38.2285C38.1201 38.2285 38.1742 37.8227 38.1471 37.6603C38.1471 36.6863 38.0389 35.6853 37.9848 34.7113C37.9577 34.2243 37.9307 33.7644 37.9577 33.2774C37.9577 33.1962 37.9577 33.1421 37.9848 33.0609C38.1471 32.8715 38.3365 32.7092 38.4988 32.5469C38.4988 32.6551 38.4988 32.7362 38.4988 32.8445C38.4718 33.4126 38.4718 33.9808 38.4718 34.549C38.4718 35.7123 38.58 36.8757 38.8776 37.985C38.8776 38.0121 38.9047 38.0391 38.9047 38.0662C38.2283 38.932 37.6601 39.906 37.1461 40.907ZM39.7434 37.0381C39.6081 37.1733 39.4999 37.3086 39.3646 37.4439C39.3646 37.4168 39.3646 37.3898 39.3376 37.3898C39.0399 36.3887 38.9858 35.3336 38.9858 34.3055C38.9858 33.7914 39.0129 33.2503 39.0129 32.7362C39.0129 32.4927 39.04 32.2492 39.04 32.0057C39.3646 31.7081 39.7163 31.4376 40.041 31.167C40.068 31.6811 40.0951 32.2222 40.1492 32.7362C40.2574 33.8726 40.4468 34.9818 40.7174 36.0641C40.4198 36.3617 40.0681 36.6863 39.7434 37.0381ZM41.2855 35.6312C41.2855 35.5771 41.2585 35.523 41.2585 35.4959C41.015 34.4949 40.8527 33.4667 40.7444 32.4116C40.6903 31.8975 40.6633 31.3835 40.6633 30.8694C40.6633 30.8153 40.6633 30.7612 40.6633 30.7071C41.015 30.4365 41.3938 30.166 41.7455 29.9225C41.7455 30.4365 41.8267 30.9235 41.9349 31.4105C42.1513 32.3845 42.5842 33.3044 42.6383 34.3055C42.6383 34.3866 42.6924 34.5219 42.7465 34.6031C42.2595 34.9277 41.7725 35.2524 41.2855 35.6312ZM43.2065 34.3866C43.2336 34.2514 43.2065 34.1161 43.2065 34.0349C43.1524 33.115 42.8277 32.2492 42.5842 31.3564C42.476 30.9506 42.3678 30.5447 42.3407 30.1389C42.3407 29.9225 42.3678 29.7331 42.3948 29.5437C42.936 29.192 43.4771 28.8673 44.0452 28.5697C44.0182 28.732 43.9911 28.8673 43.964 29.0026C43.8829 29.4896 43.8558 30.0036 43.8558 30.5177C43.8829 31.5458 44.0182 32.5739 44.2887 33.5479C44.3158 33.6561 44.3969 33.7644 44.4781 33.7914C44.0182 33.9537 43.6123 34.1702 43.2065 34.3866ZM45.5874 33.3044C45.2898 33.4126 44.9922 33.5209 44.6946 33.6561C44.8298 33.4667 44.8028 33.1421 44.7487 32.9256C44.5322 32.1681 44.424 31.3564 44.3969 30.5447C44.3699 29.7872 44.5052 29.0837 44.6946 28.3533C44.7216 28.2991 44.7216 28.218 44.7216 28.1639C45.1274 27.9745 45.5333 27.7851 45.9391 27.5957C45.912 27.6498 45.912 27.7039 45.885 27.758C45.7497 28.3533 45.7226 28.9485 45.7497 29.5708C45.8309 30.7071 46.1556 31.7893 46.4532 32.8715C46.4532 32.8986 46.4802 32.9527 46.5073 32.9797C46.2097 33.088 45.912 33.1962 45.5874 33.3044ZM49.5104 32.1951C48.6717 32.3845 47.833 32.601 46.9943 32.8445C47.0484 32.6551 47.0213 32.4386 46.9672 32.3034C46.7237 31.4105 46.4532 30.5177 46.3449 29.5978C46.2908 29.192 46.2908 28.7861 46.372 28.4074C46.4532 27.9745 46.6696 27.6228 46.886 27.244C47.0754 27.1628 47.2919 27.1087 47.5083 27.0275C47.4812 27.1358 47.4542 27.271 47.4272 27.3793C47.3189 27.9204 47.2919 28.4615 47.3189 29.0026C47.346 30.0848 47.4812 31.1941 47.7789 32.2222C47.833 32.4116 47.9953 32.601 48.1576 32.4386C48.347 32.2763 48.32 31.8705 48.2659 31.654C48.0224 30.8153 47.9141 29.9495 47.8871 29.0837C47.8871 28.6509 47.8871 28.245 47.9683 27.8121C48.0224 27.4604 48.1847 27.1358 48.2388 26.784C48.5635 26.7029 48.8611 26.5946 49.1858 26.5135C49.1046 27.0005 49.1046 27.4875 49.1316 27.9745C49.2128 29.0567 49.5645 30.0848 50.0245 31.0588C50.1327 31.2752 50.3221 31.2482 50.4303 31.0588C50.5656 30.8424 50.5385 30.4906 50.4303 30.2471C50.0515 29.4896 49.781 28.6779 49.6998 27.8392C49.6728 27.4604 49.6728 27.1087 49.7269 26.7299C49.7539 26.5946 49.781 26.4594 49.8351 26.3241C49.9704 26.297 50.1056 26.2429 50.2139 26.2159C50.5115 26.1347 50.8361 26.0535 51.1337 25.9724C51.0526 26.1076 50.9985 26.27 50.9444 26.4053C50.755 26.9464 50.7279 27.5416 50.7279 28.1368C50.7279 29.3002 50.9173 30.4636 51.242 31.5729C51.269 31.654 51.3231 31.7352 51.3773 31.7893C50.755 31.9516 50.1327 32.0599 49.5104 32.1951ZM63.1734 25.2148C62.1994 26.7299 60.7926 28.0556 59.3045 29.0567C57.8165 30.0577 56.139 30.7882 54.4075 31.2211C53.5146 31.4376 52.5947 31.5999 51.6749 31.7893C51.8101 31.5999 51.8101 31.2482 51.756 31.0588C51.5125 30.2201 51.3502 29.2731 51.3232 28.4074C51.2961 27.5957 51.3231 26.9193 51.9184 26.3511C51.9995 26.27 52.0266 26.0265 52.0266 25.8371C52.243 25.783 52.4865 25.7289 52.703 25.6748C52.703 25.8371 52.73 25.9724 52.73 26.1347C52.8653 27.5957 53.2712 29.0026 53.7582 30.3824C53.8123 30.5447 53.9746 30.7612 54.1369 30.5989C54.2992 30.4365 54.3263 30.0307 54.2451 29.8143C53.7311 28.4344 53.3523 27.0005 53.2711 25.5395C53.5146 25.4854 53.7581 25.4042 54.0016 25.3501C54.0016 25.4042 53.9746 25.4583 53.9746 25.5124C53.8934 26.0265 53.9205 26.5676 53.9746 27.1087C54.1099 28.1368 54.4616 29.0838 54.7321 30.0848C54.7863 30.2742 54.9486 30.4636 55.1109 30.3012C55.3003 30.1119 55.2732 29.7601 55.2191 29.5166C55.0027 28.705 54.7321 27.9204 54.5698 27.1087C54.5157 26.757 54.4616 26.3511 54.4886 26.0535C54.5157 25.7289 54.6239 25.4583 54.7592 25.1607C55.0297 25.0795 55.3003 25.0254 55.5438 24.9443C55.4085 25.5665 55.4356 26.2159 55.4897 26.8111C55.5708 27.7039 55.8143 28.5697 56.0037 29.4355C56.0308 29.6249 56.2202 29.8142 56.3825 29.6519C56.5719 29.4625 56.5449 29.1108 56.4907 28.8673C56.3284 28.1368 56.1661 27.4334 56.0579 26.7029C56.0308 26.4053 56.0037 26.0806 56.0308 25.783C56.0308 25.5936 56.0849 25.4042 56.112 25.2419C56.1661 25.2689 56.2202 25.323 56.2743 25.3501C56.2472 25.7559 56.2743 26.1888 56.3284 26.5946C56.4637 27.6769 56.7072 28.732 56.9507 29.7872C56.9777 29.9766 57.1671 30.166 57.3295 30.0036C57.5189 29.8142 57.4918 29.4625 57.4377 29.219C57.2483 28.3533 57.0319 27.4604 56.9236 26.5946C56.8695 26.1618 56.8154 25.8371 56.8424 25.4042V25.3771C56.8424 25.323 56.8425 25.296 56.8695 25.2419C56.8695 25.2148 56.8695 25.1878 56.8966 25.1607C56.8966 25.1607 56.9236 25.0795 56.9236 25.0525C56.9236 25.0254 56.9236 24.9713 56.9507 24.9172C56.9777 24.8631 57.0048 24.7819 57.0589 24.7278C57.086 24.7008 57.113 24.5925 57.113 24.4843C57.2212 24.4573 57.3565 24.4031 57.4647 24.3761C57.4106 24.5384 57.3836 24.7008 57.3836 24.809C57.3294 25.323 57.3836 25.8371 57.4377 26.3511C57.573 27.3522 57.7894 28.3533 57.9247 29.3543C57.9517 29.5166 58.06 29.8413 58.2764 29.7601C58.4928 29.679 58.4928 29.2461 58.4658 29.0567C58.3576 28.1639 58.1682 27.2981 58.0329 26.4053C58.0058 26.1618 57.9788 25.9453 57.9518 25.7018C57.9518 25.6477 57.9517 25.5936 57.9247 25.5395V25.5124C57.9247 25.5124 57.9247 25.5124 57.9247 25.4854C57.9247 25.4042 57.9247 25.296 57.9247 25.2148C57.9247 25.1607 57.9247 25.1336 57.9247 25.0795C57.9247 25.0795 57.9247 25.0795 57.9247 25.0525C57.9247 24.8901 57.9247 24.8631 57.9247 24.9984V24.9713C57.9247 24.9443 57.9247 24.9172 57.9518 24.8631C57.9247 24.9984 57.9518 24.9172 57.9518 24.836L57.9788 24.809C58.087 24.7278 58.1411 24.3761 58.0599 24.1596C58.3305 24.0514 58.6011 23.9432 58.8716 23.862C58.7363 24.5114 58.7634 25.2419 58.8175 25.8912C58.8716 26.6758 58.9799 27.4604 59.1963 28.218C59.2504 28.3803 59.4127 28.6238 59.5751 28.4344C59.7374 28.245 59.7374 27.8933 59.6833 27.6498C59.4939 27.0546 59.3857 26.4053 59.3586 25.783C59.3316 25.5395 59.3586 25.2689 59.3586 25.0254C59.3586 25.1066 59.3857 25.1878 59.3857 25.2689C59.4939 25.8371 59.6562 26.4053 59.8186 26.9734C59.8727 27.1358 60.035 27.3793 60.1973 27.1899C60.1973 27.1899 60.1973 27.1899 60.1973 27.1628C60.2244 27.2169 60.2785 27.244 60.3597 27.244C60.6032 27.244 60.6302 26.8381 60.6302 26.6758C60.6302 25.9453 60.6302 25.2148 60.6302 24.5114C60.6302 24.2138 60.6302 23.8891 60.6302 23.5915C60.6843 23.5915 60.7655 23.5374 60.7926 23.4833C60.8737 23.348 60.8737 23.1315 60.8196 22.9963C60.8196 22.9963 60.8196 22.9963 60.8196 22.9692C61.1172 22.8069 61.3878 22.6445 61.6583 22.4822C61.7125 23.5103 61.7666 24.5384 61.6313 25.5665C61.6042 25.7559 61.6042 26.1618 61.8207 26.27C62.0371 26.3782 62.1453 26.0265 62.1724 25.8641C62.2806 24.809 62.2806 23.7538 62.2265 22.7257C62.3077 22.7798 62.3618 22.8339 62.443 22.888C62.5782 22.9963 62.6594 22.888 62.7135 22.7528C62.7676 22.5904 62.7406 22.374 62.6323 22.2117C62.5782 22.1305 62.4971 22.0493 62.4159 21.9682C62.8759 21.6435 63.3087 21.2918 63.7146 20.913C63.4711 22.1034 63.3628 23.3209 62.9299 24.4843C62.8488 24.7008 62.8758 25.0795 63.0382 25.2689C63.1193 25.1878 63.1464 25.1878 63.1734 25.2148ZM65.5273 19.3167C65.5273 19.3438 65.5002 19.3979 65.5002 19.4249C65.392 19.7225 65.2838 20.0202 65.2026 20.2907C64.7427 21.6164 64.3368 22.9963 63.7146 24.2408C63.8498 23.7809 63.931 23.3209 64.0122 22.8339C64.0663 22.5363 64.1204 22.2387 64.1745 21.9411C64.3098 21.9682 64.3639 21.8058 64.418 21.6976C64.5803 21.2918 64.5262 20.7777 64.3909 20.3719C64.3909 20.3448 64.3639 20.2907 64.3368 20.2637C64.9591 19.6414 65.4732 18.9379 65.9331 18.1533C65.7437 18.5592 65.6085 18.9109 65.5273 19.3167Z" fill="black"/>
<path d="M77.0801 31.6272C76.9719 31.4378 76.7825 31.4108 76.6743 31.6272C76.3225 32.493 75.9708 33.3858 75.6191 34.2516C75.592 33.8999 75.565 33.5482 75.5379 33.1964C75.4838 32.3036 75.3485 31.4108 75.1862 30.545C74.8615 28.7864 74.4016 27.0548 73.9417 25.3233C73.8875 25.1339 73.7252 24.9445 73.5629 25.1068C73.3735 25.2692 73.4005 25.675 73.4546 25.8915C73.8875 27.5148 74.3204 29.1381 74.6451 30.7885C74.8074 31.6002 74.9157 32.4389 74.9968 33.2505C75.078 34.0893 74.9968 34.9009 75.0239 35.7397C73.4005 32.5742 73.4817 28.7593 72.67 25.3233C72.6159 25.1339 72.4536 24.9445 72.2913 25.1068C72.1019 25.2962 72.1289 25.675 72.1831 25.8915C72.643 27.8124 72.8053 29.8145 73.157 31.7625C73.3464 32.7906 73.5629 33.8187 73.8875 34.7927C74.104 35.442 74.3475 36.0914 74.6721 36.6866C74.4557 37.2548 74.2122 37.8229 73.9958 38.364C73.9687 38.2829 73.9416 38.1746 73.8875 38.0935C73.7793 37.8229 73.6711 37.877 73.5899 38.0394C73.4817 37.7418 73.3735 37.4712 73.2923 37.1736C73.0488 36.3349 72.8594 35.4962 72.6971 34.6304C72.3454 32.8177 72.1289 31.0049 71.8854 29.1922C71.7502 28.2723 71.6419 27.3254 71.4525 26.4055C71.4255 26.2432 71.3443 25.9185 71.1008 25.9997C70.8844 26.0808 70.8844 26.5137 70.9114 26.7031C71.5608 30.3015 71.7231 33.981 72.7512 37.4983C72.9406 38.2017 73.157 38.9322 73.4817 39.6086C73.3735 39.8791 73.2382 40.1497 73.13 40.4203C73.1029 40.3661 73.0488 40.285 73.0218 40.2038C72.9947 40.0685 72.9947 39.9333 72.9947 39.7709C72.9677 39.6627 72.9135 39.4463 72.7783 39.4733C72.7512 39.4733 72.7242 39.5004 72.6971 39.5274C72.4266 38.9593 72.1831 38.364 72.0207 37.7418C71.7231 36.7407 71.5608 35.7397 71.3984 34.7115C71.1008 32.6824 70.9656 30.6262 70.5327 28.6241C70.5056 28.4617 70.4244 28.1371 70.1809 28.2182C69.9645 28.2994 69.9375 28.7323 69.9916 28.9217C70.4244 31.032 70.5597 33.1694 70.8844 35.2797C71.0467 36.3619 71.2631 37.4442 71.5878 38.4993C71.8584 39.4192 72.2101 40.3932 72.7512 41.2049C72.4536 41.8271 72.1289 42.4494 71.7772 43.0446C71.7772 42.8011 71.7501 42.5306 71.7231 42.2871C71.669 41.9083 71.3714 41.9083 71.3173 42.2871C71.3173 42.3412 71.3173 42.3683 71.3173 42.4224C70.7491 41.1237 70.3433 39.7709 70.0186 38.364C69.6128 36.6054 69.3693 34.8198 69.1799 33.0341C69.0717 32.0872 68.9905 31.1402 68.9364 30.1933V30.1662C69.721 28.4347 70.5597 26.7302 71.5608 25.1068C71.8854 24.5657 72.2372 24.0787 72.6159 23.5647C72.7512 23.4023 72.7783 23.1588 72.7512 22.9695C72.8053 22.8883 72.8324 22.8071 72.8865 22.753C73.0218 22.5366 72.9947 22.1578 72.8865 21.9414C72.8053 21.8061 72.7241 21.779 72.643 21.8061C72.5348 21.6437 72.3454 21.6708 72.2642 21.8602C72.2642 21.8872 72.2371 21.8872 72.2371 21.8872C72.2101 21.8872 72.156 21.9143 72.1289 21.9684L72.1019 21.9955C72.1019 21.9684 72.1019 21.9414 72.0748 21.9143C72.0748 21.9143 72.0748 21.9143 72.0748 21.8872C72.0748 21.8602 72.0748 21.8331 72.1019 21.8061C72.1289 21.6437 71.9936 20.8591 71.7231 21.1297C71.696 21.1026 71.696 21.0756 71.669 21.0485C71.4796 20.8591 71.3443 21.0756 71.2902 21.265C70.8844 22.4013 70.2351 23.4565 69.6128 24.4846C68.9634 25.5397 68.3141 26.5949 67.7459 27.6771C66.5826 29.8957 65.3651 32.1142 63.9311 34.1975C62.4701 36.2808 60.8468 38.2829 59.1694 40.2038C57.519 42.0706 55.7603 43.8022 54.11 45.642C53.3795 46.4536 52.649 47.3194 51.7832 47.9958C50.8363 48.7804 49.6999 49.2945 48.5906 49.8085C47.4002 50.3496 46.1827 50.8637 44.9923 51.3777C43.883 51.8647 42.8008 52.2976 41.6644 52.6764C39.3647 53.4069 36.9838 53.8668 34.603 54.1103C32.4926 54.3268 30.3282 54.4079 28.2179 54.1915C26.5404 54.0292 24.89 53.7045 23.2667 53.2446C21.6975 52.7846 20.02 52.2435 18.6943 51.2154C18.4508 51.026 18.2344 50.8096 18.0179 50.5661C17.9097 50.4308 17.7744 50.512 17.6933 50.6202C17.585 50.539 17.5039 50.4578 17.3957 50.3496C17.1522 50.1332 17.0169 50.4849 16.9898 50.7013C16.7193 52.46 17.6121 54.0562 18.8567 55.2467C19.5872 55.9772 20.4259 56.5724 21.3187 57.1406C21.3458 57.1947 21.3728 57.2488 21.3999 57.3029C21.481 57.4382 21.6163 57.5193 21.7245 57.3841C22.455 57.8169 23.2126 58.1957 23.9701 58.5474C25.5664 59.305 27.2168 59.9273 28.9213 60.3872C29.0295 60.6848 29.1378 60.9554 29.3001 61.1989C29.4083 61.3342 29.5436 61.2259 29.6247 61.1177C29.7059 60.9554 29.7059 60.766 29.6789 60.5766C30.707 60.8201 31.7621 61.0095 32.8173 61.1448C32.8444 61.1718 32.8985 61.1989 32.9526 61.1718C32.9526 61.1718 32.9796 61.1718 32.9796 61.1448C33.7372 61.2259 34.4947 61.3071 35.2523 61.3612C35.2794 61.4153 35.3064 61.4694 35.3334 61.4965C35.4687 61.6588 35.577 61.5235 35.6311 61.3883C36.1181 61.4153 36.6051 61.4424 37.092 61.4694C38.2825 61.5235 39.5 61.5235 40.7175 61.4694L40.7445 61.4965C40.8528 61.6047 40.961 61.5506 41.0151 61.4424C42.9631 61.3612 44.884 61.1989 46.805 60.9013C49.6999 60.4684 52.4866 59.6026 55.1381 58.3581C57.6272 57.1947 59.981 55.7878 62.1996 54.1915C62.2266 54.1915 62.2537 54.1645 62.2807 54.1374C62.5242 53.9751 62.7407 53.8127 62.9842 53.6233C64.1746 52.7305 65.338 51.8106 66.4473 50.8366C67.4754 49.9438 68.5035 48.9968 69.3963 47.9687C71.3984 45.6961 72.8324 43.0176 74.0499 40.2309C74.2122 40.285 74.3475 40.0685 74.3745 39.8521C74.4016 39.7168 74.4016 39.5815 74.4016 39.4463C74.6992 38.7158 74.9968 38.0123 75.2944 37.2818C75.4297 37.4171 75.6191 37.2007 75.6461 37.0383C75.6732 36.876 75.7273 36.7137 75.7003 36.5243C75.7003 36.4431 75.6732 36.3619 75.6732 36.2537C75.9979 35.442 76.2955 34.6574 76.5931 33.8728C76.8095 33.3588 76.9989 32.8177 77.2154 32.3036C77.1613 32.1954 77.1883 31.8707 77.0801 31.6272ZM64.9863 33.8458C64.9863 33.8728 64.9592 33.8999 64.9592 33.8999C64.7969 34.1704 64.6346 34.441 64.4993 34.7386C64.364 34.8739 64.2287 35.0362 64.0935 35.1985C64.3911 34.7386 64.6887 34.3057 64.9863 33.8458ZM21.8869 56.4101C21.8869 56.383 21.8869 56.3559 21.8869 56.3289C21.8869 56.3018 21.8869 56.3018 21.8869 56.3018V56.2748V56.2477C21.8869 56.2207 21.8869 56.2207 21.8869 56.1936C21.8869 56.1936 21.8869 56.1936 21.8869 56.1666C21.9139 56.0313 21.8869 55.8148 21.8057 55.7066C21.7245 55.5984 21.6163 55.6796 21.5622 55.7607C21.5081 55.8689 21.481 55.9501 21.454 56.0583C21.3458 55.8148 21.2105 55.5713 21.1023 55.3278C21.0481 55.2196 21.0211 55.1385 20.967 55.0302C20.9399 54.9761 20.9129 54.922 20.9129 54.8679C20.9129 54.8679 20.8858 54.7867 20.8588 54.7597C20.7776 54.5703 20.7235 54.3538 20.6694 54.1645C20.6153 54.0021 20.4529 53.7586 20.2906 53.948C20.1283 54.1645 20.1283 54.4891 20.1824 54.7326C20.2365 54.9491 20.3177 55.1926 20.3988 55.409C19.1543 54.5162 17.7474 53.3257 17.4498 51.8106C17.4498 51.7836 17.4498 51.7565 17.4227 51.7295C18.9649 53.0552 20.6964 54.1103 22.5092 54.922C22.3468 55.1385 22.3468 55.4631 22.4009 55.7066C22.5092 56.1395 22.6715 56.5724 22.915 56.9512C22.915 56.9512 22.915 56.9512 22.915 56.9782C22.5633 56.7888 22.2115 56.5994 21.8869 56.4101ZM25.9181 58.331C25.377 58.1146 24.863 57.8981 24.3489 57.6546C24.403 57.5734 24.4301 57.4652 24.4301 57.3841C24.4301 57.2488 24.4301 56.9782 24.2678 56.8971C24.1866 56.8429 24.0784 56.8159 23.9972 56.7618C23.9702 56.7347 23.916 56.7077 23.889 56.6806C23.889 56.6806 23.889 56.6806 23.8619 56.6806C23.8619 56.6806 23.7808 56.6265 23.7537 56.5994C23.7267 56.5724 23.6725 56.5453 23.6455 56.5183C23.6184 56.5183 23.6184 56.4912 23.5914 56.4642C23.5102 56.383 23.4561 56.3289 23.3749 56.2477C23.3479 56.2207 23.3208 56.1666 23.2937 56.1395L23.2667 56.1124C23.2667 56.1124 23.2667 56.0854 23.2396 56.0854C23.1855 55.9772 23.1314 55.896 23.0773 55.7878C23.0503 55.7337 23.0232 55.6796 22.9961 55.6254C22.9961 55.6254 22.9961 55.6255 22.9961 55.5984C22.9961 55.5713 22.9691 55.5443 22.9691 55.5172C22.915 55.382 22.8879 55.2737 22.8609 55.1384C22.8609 55.1114 22.8609 55.0843 22.8338 55.0843C23.6996 55.4361 24.5924 55.7607 25.5123 56.0042C25.5123 56.1395 25.5394 56.2477 25.5394 56.3559C25.7017 57.0594 25.8911 57.7358 26.1346 58.4122C26.0805 58.3851 25.9993 58.3581 25.9181 58.331ZM27.0004 58.7368C27.0004 58.7098 27.0004 58.6557 26.9733 58.6286C26.9733 58.5745 26.9462 58.4933 26.9462 58.4392C26.9462 58.3581 26.9462 58.4663 26.9462 58.4122C26.9462 58.3851 26.9462 58.331 26.9462 58.3039C26.9462 58.1687 26.9192 58.0063 26.811 57.9252C26.7569 57.8711 26.6757 57.8981 26.6216 57.9522C26.4322 57.3841 26.2428 56.7888 26.1075 56.1936C26.6757 56.3289 27.2709 56.4642 27.8391 56.5453C27.6768 56.7347 27.6767 57.0864 27.7309 57.3299C27.9202 57.9522 28.1096 58.5745 28.299 59.1968C27.8932 59.0344 27.4333 58.8992 27.0004 58.7368ZM30.707 59.7649C30.1658 59.6567 29.6247 59.5485 29.1107 59.4132C29.0295 59.1697 28.9484 58.9262 28.8672 58.6827C28.6508 58.0334 28.4614 57.3841 28.272 56.7618C28.2449 56.7077 28.2179 56.6536 28.1908 56.5994C28.3532 56.6265 28.4884 56.6536 28.6507 56.6806C29.246 56.7618 29.8412 56.8159 30.4364 56.87C30.4364 56.87 30.4364 56.87 30.4094 56.87C30.247 57.0594 30.22 57.4382 30.3011 57.6546C30.4093 57.9522 30.4635 58.3039 30.5446 58.6286C30.5717 58.6827 30.5987 58.818 30.5446 58.6827C30.5446 58.7368 30.5717 58.7909 30.5717 58.8451C30.5987 58.9533 30.6258 59.0885 30.6529 59.1968C30.707 59.3862 30.734 59.6026 30.7611 59.792C30.7611 59.7649 30.734 59.7649 30.707 59.7649ZM40.7987 60.3872C40.7446 60.2519 40.7175 60.0896 40.6634 59.9543C40.5552 59.6026 40.474 59.2779 40.3928 58.9262C40.2305 58.2498 40.1223 57.5464 40.0411 56.87C40.014 56.7077 39.9058 56.383 39.6894 56.4642C39.473 56.5724 39.4729 56.9782 39.5 57.1676C39.5812 57.9252 39.7164 58.6827 39.9058 59.4403C39.987 59.7649 40.0682 60.0896 40.1764 60.4143C40.1493 60.4143 40.0952 60.4143 40.0682 60.4143C39.7164 60.4143 39.3377 60.4143 38.9859 60.4143C38.9589 60.3602 38.9318 60.306 38.9318 60.279C38.8777 60.1708 38.8236 60.0896 38.7966 59.9814C38.7966 59.9543 38.7695 59.9273 38.7695 59.9273C38.7695 59.9273 38.7695 59.9273 38.7695 59.9002C38.7425 59.8461 38.7424 59.792 38.7154 59.7379C38.7154 59.7108 38.6883 59.6297 38.6883 59.6297C38.6883 59.5756 38.6613 59.5214 38.6613 59.4673C38.6613 59.4132 38.6613 59.3591 38.6342 59.305C38.6342 59.2779 38.6342 59.2509 38.6342 59.2238C38.6342 59.1697 38.6342 59.0886 38.6342 59.0344C38.6342 59.0344 38.6342 59.0074 38.6342 58.9803C38.6342 58.9533 38.6342 58.9533 38.6342 58.9262C38.6342 58.8721 38.6613 58.7909 38.6613 58.7368C38.6613 58.7098 38.6613 58.6827 38.6883 58.6557C38.6883 58.6557 38.6883 58.6286 38.6883 58.6016C38.6883 58.5745 38.6883 58.5474 38.6883 58.5474C38.6883 58.5204 38.7154 58.4933 38.7154 58.4663C38.7424 58.3851 38.7425 58.331 38.7695 58.2498C38.8507 58.0334 38.8236 57.6546 38.6613 57.4652C38.4719 57.2758 38.3366 57.4923 38.2825 57.6817C38.0661 58.331 38.012 59.0074 38.0931 59.6838C38.1202 59.9273 38.1743 60.1708 38.2554 60.4143C37.9578 60.4143 37.6602 60.4143 37.3897 60.3872C37.2815 60.1708 37.1462 59.9543 37.038 59.7379C36.9838 59.6297 36.9568 59.5485 36.9297 59.4132C36.9297 59.3862 36.9297 59.3862 36.9297 59.3862C36.9297 59.3591 36.9297 59.3321 36.9027 59.305C36.9027 59.2509 36.8756 59.1968 36.8756 59.1427C36.8756 59.1156 36.8756 59.0886 36.8756 59.0344C36.8756 58.9803 36.8756 58.8992 36.8756 58.8451C36.8756 58.818 36.9027 58.7098 36.9027 58.6827C36.9027 58.6286 36.9297 58.5474 36.9297 58.4933C36.9297 58.4663 36.9297 58.4663 36.9297 58.4933C36.9297 58.4663 36.9568 58.4122 36.9568 58.3851C36.9838 58.3039 36.9838 58.2228 37.0109 58.1687C37.065 58.0334 37.0921 57.8981 37.1462 57.7628C37.2544 57.5193 37.2815 57.1947 37.1462 56.9512C37.038 56.7618 36.8486 56.7347 36.7403 56.9512C36.4157 57.7358 36.2534 58.5474 36.3075 59.3862C36.3345 59.7379 36.4157 60.0625 36.5239 60.3872C36.1722 60.3602 35.8204 60.3602 35.4687 60.3331C35.4687 60.306 35.4417 60.2519 35.4417 60.2249C35.3876 59.9543 35.3334 59.6838 35.3064 59.3862C35.2523 58.8721 35.2252 58.331 35.3064 57.8169C35.3334 57.6005 35.3335 57.2217 35.117 57.1135C34.9006 57.0053 34.7923 57.357 34.7653 57.5193C34.6841 58.2228 34.6841 58.9262 34.7653 59.6297C34.7923 59.8461 34.8194 60.0625 34.8735 60.279C34.7923 60.279 34.7112 60.279 34.603 60.2519C34.5759 59.792 34.4677 59.3321 34.3595 58.8721C34.2512 58.3851 34.143 57.8711 34.0077 57.3841C33.9536 57.2217 33.7913 57.0053 33.629 57.1676C33.4666 57.357 33.4666 57.7087 33.5207 57.9522C33.656 58.4392 33.7642 58.9262 33.8725 59.4132C33.8995 59.5214 33.9266 59.6567 33.9536 59.7649C33.9536 59.792 33.9807 59.9543 33.9807 59.8732C34.0077 59.9543 34.0077 60.0355 34.0348 60.1167C34.0348 60.1437 34.0618 60.1708 34.0618 60.2249C33.7372 60.1978 33.4125 60.1708 33.0608 60.1167C33.0338 59.7649 32.9526 59.4132 32.8984 59.0886C32.7902 58.5204 32.6279 57.9522 32.4385 57.3841C32.3844 57.2217 32.2221 56.9782 32.0597 57.1676C31.8974 57.357 31.8703 57.7358 31.9515 57.9522C32.0327 58.2228 32.1138 58.4663 32.195 58.7368C32.2221 58.8451 32.2491 58.9533 32.2762 59.0886C32.3032 59.1697 32.3032 59.2509 32.3303 59.332C32.3573 59.4132 32.3303 59.3321 32.3573 59.4403C32.3844 59.6567 32.4385 59.8461 32.4656 60.0625C32.1409 60.0084 31.7892 59.9814 31.4645 59.9273C31.4375 59.819 31.4375 59.7379 31.4104 59.6297C31.3563 59.4132 31.3292 59.1968 31.2751 58.9803C31.1669 58.4933 31.0857 58.0334 30.9775 57.5464C30.9505 57.3841 30.8963 57.2488 30.8422 57.0864C30.8152 57.0323 30.7881 56.9512 30.734 56.8971C34.4947 57.1406 38.3096 56.6265 41.935 55.6254C41.9891 55.6254 42.0162 55.5984 42.0703 55.5713C41.7456 56.5183 41.7456 57.5734 41.962 58.5474C42.0703 59.0344 42.1785 59.5214 42.3408 59.9814C42.3679 60.1167 42.422 60.2249 42.4761 60.3602C41.8809 60.3602 41.3398 60.3872 40.7987 60.3872ZM44.7217 60.1167C44.7217 60.0625 44.7217 60.0084 44.6947 59.9543C44.6676 59.8732 44.6405 59.792 44.6135 59.6838C44.6135 59.6567 44.6135 59.6567 44.6135 59.6297C44.6135 59.5756 44.5864 59.4944 44.5594 59.4132C44.5323 59.3321 44.5053 59.2509 44.5053 59.1697C44.397 58.7639 44.2888 58.3581 44.1806 57.9522C43.9642 57.1135 43.7748 56.2477 43.4772 55.4361C43.4231 55.2737 43.2607 55.0573 43.0984 55.2196C42.9361 55.3819 42.909 55.7878 42.9902 56.0042C43.2337 56.7077 43.4231 57.4382 43.6125 58.1687C43.7207 58.5474 43.8018 58.9262 43.9101 59.305C43.9642 59.4673 43.9912 59.6297 44.0453 59.792C44.0724 59.9002 44.1265 60.0355 44.1806 60.1437C43.8018 60.1708 43.4501 60.1978 43.0713 60.2249C42.9902 59.9814 42.909 59.7379 42.8278 59.4944C42.6926 59.0886 42.5573 58.6557 42.4761 58.2228C42.3138 57.4652 42.2597 56.7077 42.5302 55.9772C42.5843 55.8148 42.5843 55.5172 42.5031 55.3278C43.2336 55.1114 43.9371 54.8679 44.6405 54.5973C44.5053 54.7867 44.5323 55.1114 44.5594 55.3278C44.7488 56.1666 44.8299 57.1135 45.0464 58.0063C45.1546 58.4122 45.2899 58.818 45.5063 59.1968C45.6416 59.4403 45.8851 59.7379 46.1556 59.8732C45.6957 60.0084 45.2087 60.0625 44.7217 60.1167ZM46.5886 59.8732C46.6156 59.792 46.6427 59.7108 46.6427 59.6838C46.6697 59.5214 46.6426 59.305 46.5344 59.1697C46.2909 58.8992 46.0474 58.6827 45.858 58.3581C45.6957 58.0334 45.5875 57.7087 45.5063 57.357C45.344 56.5994 45.2628 55.6796 45.0734 54.8679C45.0464 54.7597 44.9923 54.6515 44.884 54.6244C45.5334 54.3809 46.1827 54.1103 46.832 53.8127C46.7779 53.948 46.7509 54.1103 46.7509 54.1915C46.7779 55.3819 46.9944 56.5994 47.2649 57.7628C47.3732 58.3039 47.5084 58.8451 47.6978 59.3591C47.7249 59.4403 47.7519 59.5756 47.8061 59.7108C47.4002 59.7379 46.9944 59.819 46.5886 59.8732ZM54.3805 57.5464C54.0288 55.4631 53.6771 53.3528 53.0007 51.3236C52.9466 51.1342 52.7842 50.9448 52.6219 51.1072C52.4596 51.2695 52.4596 51.6753 52.5137 51.8918C53.136 53.7316 53.4606 55.6525 53.7853 57.5734C53.7853 57.6546 53.7853 57.7087 53.7853 57.7899C52.8925 58.1687 51.9996 58.5204 51.0798 58.818C51.0798 58.7368 51.0798 58.6557 51.0798 58.6016C51.0798 58.5204 51.0527 58.4392 51.0256 58.3851C51.0527 58.1687 51.0257 57.8169 50.7822 57.8981C50.7551 57.8981 50.7551 57.8981 50.7551 57.9252C50.3763 56.4101 50.1599 54.8949 49.8623 53.3798C49.8352 53.2175 49.754 52.8928 49.5105 52.974C49.2941 53.0552 49.267 53.4881 49.3212 53.6775C49.6188 55.1114 49.8081 56.5724 50.1599 57.9793C50.241 58.3039 50.2951 58.7368 50.4845 59.0344C50.0246 59.1697 49.5917 59.305 49.1317 59.4132C48.9424 59.4673 48.7259 59.4944 48.5365 59.5485C48.4554 59.2509 48.3201 59.0344 48.2119 58.7098C48.0496 58.2228 47.9143 57.7087 47.8061 57.2217C47.5896 56.2477 47.3731 55.1384 47.3731 54.1915C47.3731 54.0562 47.3461 53.7586 47.1838 53.6504C49.6188 52.5411 51.9185 51.2154 54.11 49.6732C54.2182 49.5921 54.3264 49.5109 54.4347 49.4297C54.8675 51.2154 55.2463 53.0011 55.6521 54.7597C55.7604 55.1926 55.8415 55.6254 55.9498 56.0313C56.0039 56.2477 56.0309 56.4912 56.1121 56.7077C55.5439 57.0053 54.9757 57.3029 54.3805 57.5464ZM64.5805 51.1613C64.4181 51.2966 64.2558 51.4048 64.0935 51.5401C64.0664 51.4048 64.0393 51.2966 63.9852 51.2425C63.6335 50.8637 63.3629 50.512 63.2006 49.9979C62.9842 49.2945 62.8759 48.564 62.7677 47.8335C62.5783 46.3725 62.5513 44.8574 62.1996 43.4234C62.1455 43.234 61.9831 43.0446 61.8208 43.207C61.6314 43.3964 61.6584 43.7751 61.7126 43.9916C62.0372 45.3444 62.0643 47.0489 62.2807 48.5369C62.389 49.2945 62.5242 50.0791 62.7948 50.8096C62.93 51.1613 63.1465 51.7565 63.5253 52C63.0924 52.3517 62.6325 52.6764 62.1996 53.0011C62.1996 52.8387 62.1725 52.6493 62.1725 52.487C62.1455 52.1894 61.9561 52.1353 61.8478 52.2976C61.1444 50.1873 60.5221 48.0229 60.6845 45.7502C60.7115 45.5608 60.7115 45.155 60.4951 45.0467C60.2786 44.9385 60.1704 45.2902 60.1434 45.4526C59.954 48.1852 60.6033 50.9178 61.5502 53.461C61.0362 53.8127 60.5221 54.1645 59.981 54.5162C59.981 54.435 59.981 54.3538 59.981 54.2997C60.0081 54.1374 60.0081 53.8398 59.8457 53.7586C59.6834 53.6504 59.6022 53.8127 59.5481 53.948C58.6553 51.8918 58.6282 49.5921 58.4388 47.3735C58.4118 47.2112 58.3036 46.8865 58.0871 46.9677C57.8707 47.0489 57.8707 47.4817 57.8977 47.6711C58.033 49.0239 58.0871 50.3767 58.3036 51.7295C58.4659 52.8387 58.7365 53.9751 59.2505 54.9761C58.9529 55.1655 58.6553 55.3278 58.3847 55.5172C58.3847 55.4361 58.3847 55.3278 58.3847 55.2467C58.3847 55.1114 58.4118 54.8679 58.2765 54.7597C58.1683 54.6785 58.0871 54.7867 58.033 54.8679C57.9248 54.5973 57.8166 54.3268 57.7084 54.0292C57.519 53.434 57.3296 52.8117 57.1943 52.1894C56.9237 51.026 56.7885 49.7815 56.8696 48.591C56.8967 48.4016 56.8967 47.9958 56.6802 47.8876C56.4638 47.7794 56.3556 48.1311 56.3285 48.2934C56.2203 49.7003 56.3556 51.1072 56.6532 52.46C56.7885 53.1363 56.9779 53.8127 57.1943 54.4891C57.3566 54.9491 57.4919 55.4361 57.7084 55.8689C57.546 55.9501 57.4107 56.0583 57.2484 56.1395C57.1131 56.2207 56.9779 56.2748 56.8696 56.3559C56.8696 56.3289 56.8426 56.2207 56.8426 56.1666C56.8426 55.896 56.7885 55.4631 56.5991 55.6254C56.572 55.6254 56.572 55.6525 56.572 55.6525C56.545 55.5713 56.545 55.5172 56.5179 55.4361C56.4367 55.1385 56.3826 54.8408 56.3015 54.5432C56.1662 53.8939 56.0038 53.2716 55.8686 52.6223C55.598 51.4048 55.3275 50.2143 55.0299 48.9968C58.0871 46.7512 60.8738 44.0998 63.1736 41.0696C64.2017 43.5857 64.7157 46.2913 65.3109 48.9427C65.338 49.078 65.4733 49.2674 65.6356 49.2133C65.7979 49.1321 65.8521 48.8345 65.8521 48.6722C65.825 48.1311 65.7979 47.59 65.7438 47.0759C65.7168 46.8595 65.5815 46.7783 65.5003 46.8324C65.0404 44.668 64.4993 42.5035 63.6876 40.4473C64.0123 39.9874 64.3369 39.5004 64.6616 39.0404C64.7157 38.9593 64.7428 38.9052 64.7969 38.824C65.8791 42.0706 65.3651 45.9125 67.3672 48.8345C66.3661 49.6462 65.4733 50.4037 64.5805 51.1613ZM67.8271 48.2664C67.6377 47.8605 67.3942 47.5359 67.1507 47.1571L67.1237 47.13C66.5284 45.9396 66.285 44.6139 66.0956 43.3152C65.825 41.5836 65.6897 39.7709 65.0945 38.0935C65.2568 37.7959 65.4192 37.4983 65.5815 37.2007C66.6637 40.7449 67.2319 44.4245 67.9624 48.077C67.9083 48.1581 67.8812 48.2122 67.8271 48.2664ZM68.5847 47.4547C68.5035 46.8595 68.3412 46.2913 68.1518 45.7231C68.1247 45.642 68.0977 45.5879 68.0706 45.5608C67.5024 42.5035 66.9343 39.4192 66.0144 36.4431C66.3391 35.7938 66.6637 35.1174 66.9884 34.441C67.5024 36.1455 67.8812 37.877 68.233 39.6086C68.4223 40.5555 68.5847 41.5295 68.7741 42.4765C68.8282 42.8282 68.8823 43.1529 68.9634 43.5046C68.4223 41.0155 67.6918 38.5534 66.9884 36.1184C66.9343 35.929 66.772 35.7397 66.6096 35.902C66.4202 36.0643 66.4473 36.4702 66.5014 36.6866C67.4754 40.0956 68.5035 43.5046 68.9905 47.0218C68.8552 47.1841 68.7199 47.3194 68.5847 47.4547ZM70.235 45.4526C70.0186 45.7772 69.7751 46.0749 69.5316 46.3725C69.5316 46.156 69.5316 45.9396 69.5046 45.7231C69.5587 45.7502 69.6128 45.7502 69.6669 45.6961C69.8563 45.5608 69.8563 45.2361 69.8292 45.0467C69.8021 44.7762 69.8022 44.5056 69.7481 44.208C69.721 44.0728 69.6939 44.0186 69.6398 43.9645C69.5046 43.3152 69.3693 42.6929 69.261 42.0436C69.0717 41.0696 68.9093 40.0956 68.7199 39.0945C68.3682 37.2277 67.9353 35.3609 67.3672 33.5482C67.7189 32.7906 68.0436 32.006 68.3953 31.2484C68.6658 34.6304 69.0716 38.0394 70.0998 41.286C70.3974 42.1789 70.722 43.1258 71.182 43.9375C70.8844 44.4786 70.5597 44.9656 70.235 45.4526Z" fill="black"/>
<path d="M73.3464 55.1655C73.1571 54.9761 73.0218 55.1925 72.9677 55.3819C72.7242 56.0583 72.1831 56.6806 71.6961 57.2217C71.4255 57.5193 71.1279 57.8169 70.8032 58.0875C70.5597 58.2768 70.3162 58.3851 70.0727 58.5745C69.8833 58.7097 69.7481 59.0073 69.5858 59.1967C69.4234 59.4132 69.234 59.6296 69.0446 59.819C68.72 60.1707 68.3412 60.4683 67.9353 60.766C67.2048 61.28 66.3932 61.6588 65.6086 62.0376C64.8781 62.3893 64.1476 62.741 63.4712 63.2009C62.6325 63.3903 61.7938 63.7691 61.0633 64.1208C60.2245 64.5267 59.467 65.0407 58.6553 65.4736C57.6543 66.0418 56.5991 66.4747 55.5169 66.8534C53.3795 67.5839 51.1609 67.9898 48.9694 68.3956C47.4273 68.6662 45.8581 68.9097 44.2618 69.0179C44.2347 69.0179 44.2347 69.0179 44.2077 69.0179C43.396 68.9908 42.5844 69.0449 41.7727 69.072C41.448 69.0449 41.1234 68.9908 40.7987 68.9097C39.6624 68.6391 38.6072 68.125 37.6061 67.5569C37.4438 67.4757 37.3356 67.611 37.3085 67.8004C35.4417 66.7723 33.5478 65.7983 31.4375 65.3654C30.7341 65.2301 30.0306 65.1489 29.3272 65.176C28.7049 64.9866 28.0555 64.9054 27.4333 64.8243C23.7808 64.4184 20.1012 64.9866 16.4487 64.4726C15.3665 64.3102 14.3384 64.0397 13.3374 63.6338C13.1209 63.4174 12.9315 63.1468 12.7692 62.8763C12.661 62.6598 12.4716 62.6869 12.3634 62.8763C11.9305 62.5787 11.4705 62.3081 11.0106 62.0105C10.4965 61.6858 9.95541 61.3612 9.52253 60.9553C9.14375 60.6036 9.00847 61.6588 9.25197 61.9293C9.57664 62.254 9.95542 62.5246 10.3613 62.7951C10.3613 63.0386 10.4154 63.3362 10.5506 63.4174C11.2 63.8232 11.8493 64.1749 12.5527 64.4726C12.5798 64.4996 12.6069 64.4996 12.6339 64.4996C12.8774 64.6619 13.148 64.7972 13.4185 64.9054C14.149 65.4736 15.0418 65.8253 15.9617 66.0147C17.5851 66.3394 19.2625 66.3123 20.9129 66.3123C21.9681 66.3123 23.0503 66.3664 24.1054 66.4476C24.1325 66.5017 24.1595 66.5288 24.2137 66.5288C24.2678 66.5288 24.2948 66.5017 24.2948 66.4476C24.9171 66.5017 25.5394 66.5558 26.1887 66.6099C26.1617 66.7182 26.1346 66.8534 26.1346 66.9075C26.1075 68.2062 26.2699 69.5049 26.5134 70.7765C26.6487 71.4258 26.7839 72.0751 26.9463 72.7245C27.0815 73.3197 27.1898 73.969 27.4333 74.5101C27.5956 74.8619 27.8391 74.5101 27.8662 74.2937C27.9203 73.7255 27.8932 73.1844 27.8662 72.6433C27.8662 72.5351 27.8391 72.3186 27.7038 72.2916C27.5956 72.2645 27.5145 72.4269 27.5145 72.508C27.4874 72.4269 27.4603 72.3457 27.4603 72.2916C27.325 71.6964 27.1898 71.1012 27.0545 70.5059C26.838 69.3425 26.6757 68.1521 26.7028 66.9346C26.7028 66.8805 26.7028 66.7723 26.6757 66.6911C28.4884 66.8534 30.3282 67.0699 32.0868 67.6381C32.7091 67.9627 33.3314 68.3144 33.9807 68.5579C34.2512 68.6662 34.5489 68.7744 34.8735 68.8555C35.3605 69.1261 35.8475 69.4237 36.3345 69.7213C36.6863 69.9107 37.0109 70.1001 37.3626 70.2624C37.2273 70.4248 37.2274 70.7494 37.2544 70.8847C37.4168 71.7775 37.4709 72.6704 37.6061 73.5632C37.6602 74.0231 37.7414 74.456 37.8496 74.8889C37.9579 75.3218 38.0661 75.7818 38.3096 76.1605C38.3637 76.2688 38.4449 76.3499 38.5531 76.2958C38.8236 76.1876 38.9589 76.1064 39.013 75.8088C39.0401 75.6735 39.013 75.5112 38.986 75.3759C38.986 75.3759 38.986 75.3489 38.986 75.3218C39.013 75.1865 39.013 74.9701 38.9319 74.8619C38.8507 74.7536 38.7425 74.7807 38.6613 74.8889C38.6072 74.943 38.5801 75.0242 38.5801 75.1054C38.499 74.8619 38.4178 74.5913 38.3366 74.3208C38.2284 73.9149 38.1743 73.5091 38.1202 73.1303C38.012 72.2916 37.9308 71.4258 37.7955 70.5871C37.7955 70.56 37.7685 70.5059 37.7685 70.4789C38.1472 70.6683 38.526 70.8306 38.9048 70.9659C38.7966 71.1553 38.8236 71.4529 38.8507 71.6693C38.8507 71.6964 38.8778 71.7234 38.8778 71.7775C38.9048 71.8587 38.9048 71.9399 38.9319 72.021C38.9589 72.2104 39.013 72.4269 39.0401 72.6433C39.1213 73.1033 39.1753 73.5632 39.2565 74.0502C39.3377 74.5372 39.4188 75.0242 39.5271 75.4841C39.5812 75.6735 39.6082 75.8359 39.6623 75.9982C39.6894 76.0794 39.7165 76.1876 39.7706 76.2688C39.7976 76.2958 39.8247 76.3499 39.8518 76.377C39.8518 76.377 39.8788 76.404 39.9058 76.4311C39.9058 76.4581 39.9329 76.4581 39.9329 76.4852C40.1223 76.7287 40.3658 76.6746 40.5011 76.4311C40.5823 76.2958 40.5822 76.1064 40.5281 75.9711C40.5011 75.89 40.4199 75.7276 40.3117 75.8088C40.3117 75.8088 40.2846 75.8359 40.2576 75.8359V75.8088C40.2576 75.7818 40.2305 75.7818 40.2305 75.7547C40.1494 75.43 40.0682 75.1054 39.987 74.7807V74.7536C39.987 74.7536 39.987 74.7536 39.987 74.7266C39.987 74.6725 39.96 74.6184 39.96 74.5913C39.9329 74.4831 39.9058 74.3749 39.9058 74.2666C39.8517 74.0502 39.8247 73.8338 39.7976 73.5903C39.7165 73.1574 39.6624 72.7245 39.5812 72.2916C39.5271 71.9128 39.4459 71.534 39.3647 71.1553C41.2586 71.8587 43.2337 72.2645 45.2358 72.4539C48.1848 72.6974 51.188 72.508 54.11 72.0481C54.0829 72.1022 54.0829 72.1563 54.0829 72.2104C54.0559 72.3457 54.0559 72.508 54.11 72.6433C54.2182 72.995 54.3806 73.2927 54.597 73.5903C54.6782 73.6985 54.7593 73.8067 54.8675 73.8879C54.9217 73.942 55.0028 73.9961 55.084 74.0502C55.1381 74.1043 55.2463 74.1043 55.3004 74.1314C55.3275 74.1314 55.3545 74.1314 55.3545 74.1043C55.3816 74.0773 55.4087 74.0502 55.4357 74.0231C55.4898 73.942 55.5169 73.8608 55.5169 73.7526C55.5169 73.6714 55.5169 73.5632 55.5169 73.482C55.5169 73.4009 55.4628 73.2385 55.4087 73.1844C55.3816 73.1574 55.3545 73.1033 55.3004 73.0762C55.2734 73.0492 55.2463 73.0221 55.1922 72.995C55.0299 72.8598 54.8946 72.6974 54.7593 72.508C54.7052 72.4269 54.6782 72.3457 54.624 72.2645C54.597 72.2104 54.597 72.1834 54.5699 72.1293C54.5699 72.1022 54.5429 72.0751 54.5429 72.0481C54.5429 72.021 54.5158 71.994 54.5158 71.9399C55.0569 71.8587 55.6251 71.7505 56.1662 71.6423C57.8977 71.2905 59.6293 70.8577 61.2797 70.2083C62.7136 69.6672 64.1476 68.9638 65.2298 67.8815C65.4462 67.6651 65.6627 67.4216 65.825 67.1511C65.9874 66.9346 66.0144 66.637 65.9333 66.3664C65.8791 66.2312 65.6898 65.9336 65.5545 66.15C64.7428 67.3404 63.4441 68.0709 62.1725 68.6662C62.0914 68.7203 61.9831 68.7473 61.902 68.7744C62.1725 68.612 62.4431 68.4227 62.7136 68.2062C63.7418 67.6651 64.824 66.9346 65.2569 65.8524C65.2839 65.8253 65.311 65.7983 65.338 65.7712C65.3651 65.7712 65.3921 65.7712 65.4192 65.7712C65.7439 65.7171 65.9603 65.4736 66.1226 65.2031C66.9343 64.3914 67.8812 63.715 68.5306 62.741C68.6659 62.5516 68.6929 62.3081 68.6659 62.0917C69.1799 61.6588 69.6669 61.1988 70.1269 60.7389C70.2621 60.6036 70.2621 60.0625 70.1539 59.819C70.1539 59.792 70.181 59.792 70.181 59.7649C70.3433 59.5214 70.7221 59.3861 70.9385 59.1967C71.2632 58.9262 71.5878 58.6286 71.8584 58.331C72.4807 57.6546 73.103 56.87 73.4276 56.0042C73.5358 55.7336 73.5358 55.3278 73.3464 55.1655Z" fill="black"/>
<path d="M57.0589 15.0416C56.9237 14.6898 56.7072 14.3922 56.4637 14.1487C56.4637 13.9594 56.3825 13.77 56.2743 13.6888C52.7842 11.822 48.5635 11.6326 44.7216 12.1196C40.988 12.6066 37.5519 14.1487 34.4676 16.2591C31.3833 18.3694 28.7048 20.9397 25.8098 23.2935C22.969 25.5932 19.6412 27.2707 16.151 28.3799C12.6879 29.4892 8.98132 30.0844 5.32882 29.8139C4.89594 29.7868 4.49011 29.7327 4.08428 29.6786C3.86783 29.6515 3.7596 30.0033 3.78666 30.3279C3.73255 30.2738 3.67844 30.2197 3.62433 30.1385C3.48905 29.9762 3.35377 30.1926 3.29966 30.3009C2.86677 31.4913 2.0551 33.1417 2.70444 34.3592C2.70444 34.4945 2.73151 34.6298 2.78562 34.7109C2.78562 34.738 2.78561 34.765 2.75855 34.7921C2.7315 34.8191 2.67739 34.8191 2.65034 34.8462C2.4339 34.9544 2.40683 35.8202 2.70444 35.7661C2.75855 35.7661 2.81267 35.7661 2.86678 35.739C2.89384 35.8472 2.975 36.0366 3.08322 36.0096C3.19144 35.9825 3.29966 35.9555 3.43494 35.9284C4.43599 36.4154 5.51822 36.686 6.60044 36.7671C6.4381 36.9295 6.4381 37.3353 6.49221 37.5517C7.03332 39.0398 7.24976 40.6361 7.49326 42.1782C7.62854 42.9628 7.76382 43.7475 7.95321 44.505C8.1426 45.2355 8.35904 45.9931 8.71076 46.6694C8.33198 46.6153 7.9532 46.5342 7.57443 46.3718C7.35798 46.2907 7.14154 46.1554 6.95215 46.0472C6.97921 45.966 7.00627 45.8307 7.00627 45.7496C6.97921 44.992 7.00626 44.2345 6.89804 43.504C6.87098 43.3957 6.81688 43.1793 6.6816 43.2063C6.51927 43.2334 6.49221 43.504 6.49221 43.6122V43.6392C6.08637 41.5018 6.1405 39.2562 5.70761 37.1189C5.68055 36.9565 5.59939 36.6319 5.35589 36.713C5.13945 36.7942 5.11239 37.2271 5.1665 37.4165C5.70761 40.122 5.54526 42.9628 6.35693 45.6143C5.9511 45.2626 5.57233 44.8567 5.22061 44.4509C5.24767 44.4238 5.24765 44.3968 5.27471 44.3697C5.40999 44.1262 5.35589 43.7475 5.35589 43.4769C5.35589 43.4228 5.32882 43.2875 5.27471 43.2334C5.27471 43.1522 5.24766 43.0981 5.24766 43.017C5.16649 42.4217 5.03122 41.8536 4.95006 41.2584C4.76067 39.8244 4.59834 38.3634 4.13839 36.9836C4.08428 36.7942 3.92194 36.6048 3.75961 36.7671C3.59728 36.9295 3.59727 37.3353 3.65138 37.5517C4.27366 39.3104 4.32777 41.2042 4.65244 43.017C4.70655 43.3146 4.70655 43.6392 4.76066 43.9368C4.35483 43.504 3.949 43.0711 3.462 42.7464C3.40789 42.7193 3.38084 42.6923 3.32673 42.6652C3.27262 42.53 3.2185 42.3947 3.19145 42.2594C3.02912 41.6642 2.92088 41.0419 2.83971 40.4467C2.67738 39.1751 2.59621 37.9035 2.56916 36.6589C2.56916 36.4966 2.51505 36.0907 2.2986 36.0907C2.0551 36.0907 2.00099 36.4966 2.02805 36.6589C2.0551 38.1199 2.13627 39.5809 2.35272 41.0148C2.40683 41.4477 2.48799 41.8806 2.56916 42.3135C2.46094 42.2865 2.37978 42.2323 2.27156 42.2053C1.83867 42.0971 1.78456 43.2063 2.10923 43.2875C2.4339 43.3687 2.7315 43.504 3.02911 43.6933C3.16438 43.9368 3.32672 44.1262 3.57022 44.0992C3.57022 44.0992 3.57023 44.0992 3.59728 44.0992C4.57128 44.8838 5.30177 46.0201 6.27577 46.8047C8.06143 48.2387 10.4694 48.0493 12.5797 47.4811C13.3914 47.2647 14.176 46.9941 14.9335 46.6965C14.9876 46.8318 15.0688 46.9941 15.1229 47.1294C15.3123 47.5082 15.5558 47.1294 15.5828 46.8859C15.6099 46.7236 15.6099 46.5612 15.5828 46.4259C18.9648 44.9379 21.995 42.6111 24.4571 39.8785C24.6465 39.6891 24.8088 39.4727 24.9711 39.2833C25.0252 39.3645 25.1064 39.3915 25.2146 39.3104C25.3499 39.2021 25.377 38.9857 25.377 38.7963C26.2698 37.7141 27.1085 36.6048 27.9202 35.4414C27.9743 35.5767 28.0825 35.6579 28.1907 35.739C28.4613 35.8743 28.6507 35.6308 28.7589 35.4144C28.813 35.3061 28.84 34.4945 28.5424 34.6839C28.4883 34.7109 28.4342 34.765 28.3801 34.7921C28.3801 34.7921 28.3801 34.7921 28.3531 34.7921C28.4883 34.6027 28.6236 34.4133 28.7589 34.1969C29.5706 33.0064 30.3281 31.7889 31.1127 30.5714C31.1668 30.6526 31.221 30.7067 31.3021 30.7338C31.5456 30.869 31.6809 30.5444 31.708 30.355C31.735 30.2197 31.708 30.1115 31.708 29.9762C31.708 29.9492 31.7079 29.895 31.6809 29.868C31.6809 29.895 31.6809 29.9221 31.6538 29.9492C31.6538 29.9221 31.6809 29.895 31.6809 29.8409C31.6809 29.7868 31.6809 29.7598 31.6809 29.7598V29.7327C31.9514 29.3269 32.222 28.921 32.5196 28.5152C34.3323 25.9449 36.3886 23.4829 38.7424 21.3726C38.7694 21.3996 38.7694 21.4267 38.7965 21.4537C38.8235 21.4808 38.8506 21.5078 38.8777 21.5349C38.9588 21.6161 38.9859 21.6161 39.0941 21.589C39.2564 21.5349 39.2835 21.1561 39.2564 21.0479C39.2564 20.9938 39.2294 20.9667 39.2294 20.9397C39.7705 20.4527 40.3386 20.0198 40.9339 19.5869C40.9609 19.6951 41.015 19.7763 41.0962 19.8574C41.1774 19.9386 41.3127 19.9927 41.4479 19.9386C41.6103 19.8575 41.6373 19.6139 41.6644 19.4516C41.6644 19.4246 41.6644 19.3975 41.6644 19.3434C41.6644 19.3434 41.6643 19.3163 41.6914 19.3163C41.7726 19.2622 41.7996 19.0999 41.7996 18.9917C41.989 18.8835 42.1514 18.7482 42.3407 18.64C42.3949 18.667 42.449 18.7211 42.5031 18.7482C42.6925 18.8293 42.7466 18.6129 42.7466 18.3694C43.3418 17.9906 43.9641 17.666 44.5864 17.3683C44.7487 17.4495 44.911 17.5036 45.1004 17.4766C45.2628 17.4495 45.2898 17.2331 45.3168 17.1248C45.3168 17.0978 45.3168 17.0707 45.3168 17.0437C45.6956 16.8813 46.1015 16.719 46.4802 16.5837C46.5344 16.7461 46.5885 16.9355 46.6426 17.0978C46.6967 17.2601 46.8049 17.5036 46.9943 17.5307C47.1025 17.5577 47.1566 17.3954 47.1837 17.3142C47.2107 17.206 47.2378 17.0437 47.1837 16.9084C47.1837 16.8813 47.1837 16.8543 47.1566 16.8272C47.1296 16.692 47.1025 16.5837 47.0755 16.4485C47.0755 16.4214 47.0484 16.3943 47.0484 16.3673C47.6436 16.1779 48.2388 16.0426 48.8341 15.9073C48.8341 15.9885 48.8611 16.0697 48.8882 16.1238C48.9152 16.2591 49.0235 16.5026 49.1858 16.5296C49.294 16.5296 49.3481 16.3943 49.3752 16.3132C49.4022 16.205 49.4022 16.0967 49.4022 16.0156V15.9885C49.4022 15.9344 49.4022 15.9073 49.4022 15.8532C49.4022 15.8262 49.4022 15.8262 49.4022 15.7991C49.9163 15.718 50.4574 15.6638 50.9715 15.6368C50.9985 15.6638 50.9985 15.6909 51.0256 15.718C51.1067 15.7991 51.1879 15.718 51.215 15.6368C52.0807 15.6097 52.9735 15.6638 53.8664 15.8262C54.4345 15.9344 55.0027 16.0697 55.5438 16.232C55.9767 16.3673 56.0308 15.231 55.7062 15.1498C54.1099 14.6628 52.4595 14.4463 50.8091 14.5275C50.7821 14.4734 50.755 14.3922 50.7279 14.3381C50.7279 14.3111 50.7279 14.3111 50.7279 14.3111C50.7279 14.284 50.7009 14.257 50.7009 14.2299C50.6738 14.1758 50.6739 14.1217 50.6468 14.0676C50.6197 13.9864 50.5115 13.8241 50.4303 13.9594C50.3221 14.0676 50.3221 14.284 50.3762 14.4193C50.4033 14.4734 50.4033 14.5275 50.4303 14.6087C50.1057 14.6357 49.754 14.6628 49.4293 14.7169C49.4293 14.6357 49.4564 14.5546 49.4564 14.4463C49.4564 14.3922 49.4834 14.3381 49.4834 14.3111C49.4834 14.3111 49.4834 14.3111 49.4834 14.3381V14.3111C49.4834 14.284 49.4834 14.284 49.4834 14.284V14.257C49.5375 14.0135 49.5646 13.6888 49.3752 13.4724C49.2128 13.283 49.0234 13.4994 48.9964 13.6888C48.9152 14.0676 48.8611 14.4463 48.8341 14.8522C48.1306 14.9875 47.4272 15.1768 46.7508 15.3933C46.6155 14.9333 46.4532 14.4734 46.2908 14.0135C46.2367 13.8511 46.0744 13.6076 45.9121 13.797C45.7498 13.9864 45.7227 14.3652 45.8039 14.5816C45.9121 14.9063 46.0203 15.258 46.1285 15.6097C45.6145 15.7991 45.1004 16.0156 44.6134 16.2591C44.5864 16.232 44.5593 16.205 44.5593 16.1779C44.5593 16.1508 44.5322 16.1238 44.5322 16.1238C44.5052 16.0967 44.5052 16.0426 44.4781 15.9885C44.4781 15.9615 44.4511 15.9615 44.4511 15.9344C44.4511 15.9073 44.424 15.8803 44.424 15.8532V15.8262V15.7991C44.424 15.7721 44.424 15.745 44.424 15.745C44.424 15.718 44.424 15.6909 44.397 15.6368C44.397 15.6638 44.397 15.6638 44.397 15.6097C44.397 15.5827 44.397 15.5556 44.397 15.5286C44.397 15.4745 44.397 15.4203 44.397 15.3662C44.397 15.3933 44.397 15.4203 44.397 15.3662C44.397 15.3662 44.397 15.3662 44.397 15.3392C44.397 15.3392 44.397 15.3392 44.397 15.3121C44.397 15.3121 44.397 15.3121 44.397 15.3392C44.397 15.3121 44.397 15.2851 44.397 15.2851C44.397 15.2039 44.424 15.1498 44.424 15.0686C44.4511 14.9333 44.424 14.771 44.397 14.6357C44.3699 14.5546 44.3158 14.4193 44.2346 14.3652C44.0182 14.257 43.91 14.6087 43.8829 14.771C43.8018 15.3662 43.8017 15.9885 43.9911 16.5567C43.7476 16.692 43.5041 16.8272 43.2606 16.9625C42.963 17.1248 42.6925 17.3142 42.3949 17.4766C42.3678 17.3954 42.3407 17.3413 42.3137 17.2601C42.2055 16.9355 42.1784 16.692 42.1243 16.3402C42.0432 15.6368 42.0161 14.9604 41.9079 14.257C43.2606 13.797 44.6675 13.4724 46.1015 13.31C47.8871 13.1206 49.7269 13.31 51.4585 13.6076C51.6479 13.6347 51.8372 13.6617 52.0266 13.7159C51.9184 13.797 51.9184 14.1758 52.0807 14.1758C52.216 14.1758 52.2431 13.8241 52.1619 13.7159C52.8653 13.8511 53.5417 14.0135 54.2181 14.2299C54.8945 14.4463 55.625 14.7169 56.1661 15.1768C56.2473 15.258 56.3555 15.3392 56.4367 15.4474C56.4367 15.4474 56.4908 15.5286 56.5178 15.5286C56.5449 15.5827 56.599 15.718 56.5719 15.6097C56.626 15.7721 56.7613 15.9885 56.9507 15.7991C57.113 15.6368 57.1131 15.231 57.0589 15.0416ZM3.59728 31.2478C3.51612 31.4372 3.43494 31.6266 3.35378 31.843C3.13733 32.303 3.00205 32.79 2.94794 33.277C2.94794 33.0876 2.97501 32.8711 3.05617 32.6276C3.19145 32.1406 3.38083 31.6807 3.57022 31.1937C3.59727 31.2208 3.59728 31.2208 3.59728 31.2478C3.62434 31.2478 3.59728 31.2478 3.59728 31.2478ZM20.7505 42.1782C19.8306 42.9087 18.8295 43.5581 17.8014 44.1533C17.8014 44.1262 17.8014 44.0721 17.8014 44.0451C17.8014 44.018 17.7743 43.8286 17.7473 43.8286C17.7473 43.5851 17.6932 43.0981 17.4497 43.3416C17.4226 43.3687 17.3956 43.4228 17.3685 43.4498C17.2874 43.3146 17.2332 43.1522 17.1791 43.017C17.0439 42.6923 16.9086 42.3676 16.8003 42.043C16.5568 41.3666 16.3675 40.6902 16.1781 40.0138C15.8264 38.661 15.5829 37.2812 15.3123 35.9284C15.2853 35.7661 15.2041 35.4414 14.9606 35.5226C14.7441 35.6037 14.7171 36.0366 14.7712 36.226C15.15 38.1199 15.5017 40.0408 16.0699 41.8806C16.2051 42.3406 16.3945 42.8005 16.5569 43.2605C16.638 43.4769 16.7192 43.6933 16.8274 43.9098C16.9086 44.0992 16.9898 44.3427 17.125 44.505C16.5569 44.8026 15.9887 45.0732 15.4205 45.3437C15.3664 45.1543 15.2852 44.9379 15.2041 44.7485C15.15 44.6132 15.0688 44.478 14.9335 44.6132C14.9065 44.6403 14.9065 44.6403 14.8794 44.6673C13.9866 42.2323 13.4725 39.608 13.4184 37.0377C13.4184 36.8754 13.3643 36.4695 13.1479 36.4695C12.9044 36.4695 12.8503 36.8754 12.8773 37.0377C12.9314 38.7963 13.1749 40.5278 13.5537 42.2323C13.8243 43.4228 14.1489 44.5862 14.5818 45.7496C14.203 45.9119 13.7972 46.0472 13.3914 46.1824C13.3914 46.1013 13.3914 46.0201 13.3914 45.9389C13.3914 45.8848 13.3643 45.8307 13.3643 45.7766C13.3643 45.7496 13.3643 45.6684 13.3643 45.7225C13.3914 45.5872 13.2561 44.965 13.0396 45.2355C13.0126 45.2626 12.9855 45.3167 12.9855 45.3437C12.9314 45.2085 12.9044 45.0461 12.8502 44.9108C12.742 44.5321 12.6338 44.1803 12.5526 43.8016C12.3633 43.044 12.1739 42.2865 12.0115 41.5018C11.6869 39.9597 11.4434 38.4446 11.1999 36.9024C11.1728 36.7401 11.0917 36.4154 10.8482 36.4966C10.6317 36.5777 10.6317 37.0106 10.6588 37.2C10.9834 39.2833 11.3351 41.3666 11.8221 43.4498C11.9574 43.9639 12.0656 44.478 12.228 44.992C12.3091 45.2355 12.3632 45.479 12.4444 45.7225C12.4985 45.939 12.5526 46.2095 12.6879 46.3989C12.1198 46.5612 11.5516 46.6694 10.9834 46.7506C10.4153 46.8318 9.82004 46.8588 9.22482 46.8318C9.27893 46.7236 9.30599 46.5612 9.30599 46.4801C9.27893 45.8307 9.27892 45.2085 9.19776 44.5591C9.1707 44.4509 9.11659 44.2345 8.98132 44.2615C8.84604 44.2886 8.81899 44.5591 8.81899 44.6673C8.81899 44.7756 8.81899 44.8838 8.81899 44.992C8.71077 44.6403 8.60254 44.3156 8.49432 43.9639C8.30493 43.2063 8.16966 42.4488 8.06144 41.6642C7.81794 40.122 7.57444 38.5799 7.06038 37.0918C7.03333 37.0377 7.00626 36.9565 6.95215 36.9024C7.11449 36.9024 7.24977 36.9024 7.4121 36.9024C7.43916 36.9295 7.46622 36.9295 7.52033 36.9295C7.65561 36.9295 7.76382 36.9024 7.8991 36.8754C8.06143 36.8754 8.22376 36.8483 8.38609 36.8483C10.2259 36.6589 11.9845 36.0096 13.6349 35.1709C15.2582 34.3321 16.8003 33.3311 18.2884 32.2218C18.2884 32.3571 18.2884 32.4924 18.3425 32.5735C19.2083 35.0897 19.6953 37.7411 20.7234 40.2032C20.9128 40.6361 21.0481 41.3125 21.2645 41.8536C21.0481 41.9618 20.8858 42.07 20.7505 42.1782ZM25.7287 37.1459C25.5934 37.3353 25.4311 37.4976 25.2958 37.687C25.2687 37.66 25.2417 37.6059 25.2146 37.6059C25.1064 37.2 24.9982 36.7942 24.8899 36.4154C24.6735 35.6308 24.403 34.8462 24.1324 34.0616C23.6184 32.5194 23.0772 31.0043 22.5632 29.4892C22.5091 29.2998 22.3467 29.1104 22.1844 29.2728C22.0221 29.4351 22.0221 29.8409 22.0762 30.0574C22.5632 31.5725 23.1314 33.0605 23.6184 34.5756C23.8619 35.3061 24.1053 36.0637 24.3218 36.8212C24.4841 37.3353 24.5923 37.8494 24.7276 38.3905C24.3218 38.8504 23.916 39.3104 23.4831 39.7432C23.5101 39.3915 23.4831 39.0127 23.456 38.661C23.456 38.5528 23.4289 38.2822 23.2937 38.2552C23.1584 38.2281 23.0772 38.4446 23.0772 38.5528C23.0772 38.634 23.0502 38.7151 23.0502 38.7963C22.5361 37.7411 22.1303 36.6589 21.8056 35.5226C21.4268 34.1428 21.1022 32.7629 20.6422 31.4101C20.5881 31.2208 20.4258 31.0314 20.2635 31.1937C20.1011 31.356 20.1011 31.7619 20.1552 31.9783C20.6422 33.3852 20.9669 34.8462 21.3727 36.2531C21.7515 37.6059 22.2114 39.0398 23.0231 40.2302C22.6714 40.582 22.2926 40.9337 21.9138 41.2584C21.9138 41.2042 21.8868 41.1231 21.8868 41.069C21.8327 40.7713 21.6704 40.7172 21.5621 40.8796C21.5351 40.7713 21.508 40.6631 21.4539 40.582C21.2375 39.8515 20.9398 39.1751 20.6963 38.4716C19.9388 36.3613 19.5059 34.1428 18.7754 32.0054C18.7484 31.9513 18.7484 31.9242 18.7213 31.8701C20.2905 30.6526 21.7515 29.3269 23.2125 28.0012C23.2666 27.9741 23.2937 27.947 23.3478 27.8929C23.3478 27.92 23.3478 27.9741 23.3478 28.0012C23.7536 30.1115 24.3488 32.1677 25.0252 34.1969C25.1876 34.7109 25.377 35.225 25.5393 35.739C25.6205 35.9825 25.7016 36.226 25.7828 36.4695C25.8369 36.6319 25.864 36.7942 25.9181 36.9565C25.8369 37.0106 25.7828 37.0647 25.7287 37.1459ZM26.5674 36.0366C26.5404 35.9825 26.4592 35.9284 26.378 35.9825C26.3509 35.9825 26.3239 36.0096 26.2969 36.0366C26.2427 35.9014 26.2157 35.7661 26.1616 35.6308C26.0263 35.252 25.9181 34.9003 25.7828 34.5215C25.5393 33.764 25.2687 33.0064 25.0252 32.2489C24.5653 30.7608 24.1324 29.2187 23.8348 27.6765C23.8348 27.6224 23.8077 27.5683 23.7807 27.4871C24.1595 27.1895 24.5112 26.8919 24.8899 26.6213C25.0252 26.5131 25.0794 26.3508 25.0794 26.1884C25.1335 26.1343 25.1876 26.0802 25.2417 26.0261C25.5934 28.1905 26.1345 30.355 26.9191 32.4112C27.0814 32.8711 27.2979 33.3311 27.4602 33.791C27.5414 34.0345 27.5955 34.251 27.6496 34.4945C27.2979 35.0356 26.9462 35.5496 26.5674 36.0366ZM33.5477 25.8367C32.7631 26.8648 32.0056 27.92 31.3021 29.0022C31.248 28.7858 31.1668 28.5964 31.1127 28.3799C30.9504 27.7847 30.761 27.2165 30.5986 26.6213C30.2469 25.4579 29.8952 24.2675 29.5435 23.1041C29.4894 22.9147 29.3271 22.7253 29.1647 22.8877C29.0024 23.05 29.0024 23.4558 29.0565 23.6723C29.5706 25.3227 30.0576 26.973 30.5446 28.6505C30.6528 29.0022 30.761 29.3539 30.8692 29.7057C30.6257 30.0844 30.3552 30.4632 30.1117 30.869L30.0846 30.842C30.0576 30.7879 29.9493 30.5714 29.9764 30.6526C29.9223 30.5444 29.8682 30.4632 29.8141 30.355C29.5435 29.7868 29.3271 29.1645 29.1377 28.5693C28.7318 27.2977 28.4072 25.999 27.9743 24.7545C27.9202 24.5651 27.7578 24.3757 27.5955 24.5381C27.4332 24.7004 27.4332 25.1062 27.4873 25.3227C27.839 26.3508 28.1095 27.4059 28.4342 28.4611C28.6236 29.0563 28.786 29.6245 29.0024 30.1926C29.1647 30.6526 29.327 31.1396 29.6247 31.5454C29.6517 31.5725 29.6517 31.5725 29.6788 31.5995C29.1918 32.3571 28.6777 33.1417 28.1637 33.8722L28.1366 33.8181C27.8931 32.9523 27.5414 32.1406 27.2438 31.3019C26.5945 29.4351 26.1075 27.5142 25.8098 25.5662C27.839 23.6452 29.8411 21.7243 32.0326 19.9927C32.3032 19.7763 32.6008 19.5598 32.8713 19.3434C32.8172 19.5328 32.8443 19.7492 32.8713 19.8845C33.0878 20.8044 33.2501 21.7243 33.4666 22.6712C33.5748 23.1041 33.683 23.537 33.8183 23.9699C33.8994 24.1863 33.9806 24.3757 34.1159 24.5381C34.17 24.5922 34.0618 24.4839 34.1429 24.5651C34.17 24.5922 34.17 24.6192 34.197 24.6463C34.2512 24.7004 34.2782 24.7274 34.3323 24.7815C34.3864 24.8086 34.4405 24.8086 34.4676 24.7545C34.1429 25.1062 33.8453 25.485 33.5477 25.8367ZM41.2315 18.2071C40.988 17.4495 40.7986 16.692 40.6633 15.9615C40.6363 15.8262 40.528 15.4474 40.3116 15.5556C40.0951 15.6638 40.0681 16.0697 40.1222 16.2591C40.2575 17.0437 40.4469 17.8283 40.6904 18.6129C40.0951 19.0458 39.527 19.5328 38.9588 20.0198C38.9588 19.9927 38.9588 19.9927 38.9318 19.9657C38.8776 19.8033 38.8506 19.641 38.7965 19.4516C38.7965 19.4246 38.7965 19.4246 38.7965 19.4246C38.7965 19.4246 38.7965 19.4246 38.7965 19.3975C38.7965 19.3434 38.7694 19.3163 38.7694 19.2622C38.7424 19.1811 38.7424 19.0728 38.7153 18.9917C38.7153 18.9105 38.6883 18.8023 38.6883 18.7211C38.6883 18.667 38.6883 18.64 38.6883 18.5858C38.6883 18.5588 38.6883 18.5588 38.6883 18.5317C38.6883 18.3423 38.6883 18.18 38.6883 17.9906C38.6883 17.9906 38.6883 17.9906 38.6883 17.9636C38.6883 17.9095 38.6882 17.8824 38.7153 17.8283C38.7153 17.7742 38.7153 17.7471 38.7424 17.693V17.666V17.6389C38.7965 17.3954 38.8235 17.0707 38.6342 16.8543C38.4718 16.6649 38.2824 16.8813 38.2554 17.0707C38.0389 17.9906 38.1201 18.9646 38.3095 19.8845C38.3636 20.0739 38.3906 20.2633 38.4447 20.4527C37.7954 21.0479 37.1461 21.6702 36.5509 22.3195H36.5238C36.5238 22.2924 36.4968 22.2383 36.4697 22.2113C36.4697 22.1842 36.4427 22.1572 36.4427 22.1301C36.4156 21.9948 36.3615 21.8596 36.3344 21.7243C36.3344 21.6702 36.3074 21.6431 36.3074 21.589V21.5619C36.2803 21.4808 36.2803 21.3726 36.2533 21.2914C36.2262 21.102 36.1992 20.9126 36.1721 20.6962C36.0639 19.9657 36.0098 19.2352 35.9286 18.4776C35.9286 18.3153 35.7933 17.9906 35.5769 18.0718C35.3604 18.18 35.3604 18.5858 35.3875 18.7752C35.4416 19.5598 35.5228 20.3174 35.631 21.102C35.6851 21.5078 35.7663 21.9137 35.8745 22.3195C35.9015 22.4277 35.9557 22.6983 36.0368 22.8877C35.5228 23.4558 35.0087 24.0511 34.5217 24.6463C34.5488 24.6192 34.5758 24.5651 34.5758 24.5381C34.6299 24.3757 34.6029 24.1863 34.5488 24.024C34.5217 23.9699 34.4947 23.9158 34.4676 23.8617C34.4676 23.8346 34.4406 23.7264 34.4406 23.6993C34.3864 23.537 34.3323 23.3747 34.2782 23.2123C34.1429 22.8065 34.0347 22.3736 33.9535 21.9407C33.7642 21.0749 33.6018 20.1821 33.3854 19.2893C33.3583 19.2081 33.3042 19.0999 33.2231 19.0458C35.7392 17.179 38.4718 15.4745 41.4208 14.3652C41.5561 15.1498 41.5561 15.9344 41.6644 16.719C41.7185 17.0166 41.7726 17.3954 41.8808 17.7471C41.6373 17.9095 41.4479 18.0447 41.2315 18.2071Z" fill="black"/>
<path d="M52.8653 4.08433C51.4043 3.51616 49.8621 3.16444 48.2929 3.24561C48.2658 3.24561 48.2388 3.27266 48.2117 3.27266C47.8871 3.16444 47.5624 3.05622 47.2377 2.97505C45.9661 2.461 44.5863 2.00105 43.3688 2.54216C42.6924 2.56922 42.016 2.73155 41.3667 2.86683C40.7444 3.00211 40.0951 3.16444 39.4728 3.32677C39.4457 3.32677 39.4187 3.35383 39.3646 3.35383C39.4187 3.13738 39.3916 2.92094 39.3105 2.73155C39.3105 2.73155 39.3105 2.73155 39.3105 2.7045C39.3105 2.67744 39.2834 2.65039 39.2834 2.59627C39.2834 2.56922 39.2563 2.54216 39.2563 2.51511C39.2563 2.461 39.2293 2.40689 39.2293 2.35277C39.2293 2.32572 39.2293 2.29866 39.2293 2.29866C39.2293 2.27161 39.2293 2.24455 39.2293 2.2175C39.2293 2.16339 39.2293 2.10928 39.2563 2.05516C39.2563 2.02811 39.2834 1.94694 39.2834 1.89283V1.86578C39.2834 1.83872 39.3105 1.78461 39.3105 1.75755C39.3646 1.56817 39.3646 1.29761 39.2563 1.10822C39.2293 1.05411 39.1752 1 39.094 1C39.0129 1 38.9587 1.08117 38.9317 1.13528C38.5529 1.83872 38.607 2.73155 38.9046 3.46205C38.4176 3.59733 37.9306 3.75966 37.4707 3.92199C37.5248 3.67849 37.4977 3.43499 37.3625 3.21855C37.4166 3.29972 37.3354 3.1915 37.3354 3.16444C37.3084 3.13738 37.2813 3.08327 37.2813 3.05622C37.2543 3.00211 37.1731 2.89388 37.1731 2.81272C37.2001 2.86683 37.2001 2.89388 37.1731 2.83977C37.1731 2.81272 37.146 2.81272 37.146 2.78566C37.146 2.75861 37.119 2.7045 37.119 2.67744V2.65039C37.119 2.62333 37.119 2.59627 37.0919 2.56922C37.0919 2.54216 37.0919 2.51511 37.0919 2.461C37.0919 2.43394 37.0919 2.37983 37.0919 2.35277C37.119 2.10928 37.1731 1.86578 37.0919 1.59522C37.0648 1.487 37.0108 1.40583 36.9025 1.37878C36.8214 1.35172 36.7402 1.487 36.7132 1.54111C36.6861 1.59522 36.659 1.62228 36.659 1.67639C36.6049 1.81166 36.5779 1.91989 36.5508 2.08222C36.5237 2.35277 36.5237 2.62333 36.5508 2.89388C36.6049 3.35383 36.7673 3.75966 37.0108 4.13844C36.632 4.27372 36.2261 4.43605 35.8474 4.59838C35.658 4.67955 35.4415 4.78777 35.2522 4.86894C35.2251 4.78777 35.2251 4.7066 35.198 4.62544C35.0898 4.38194 35.0086 4.13844 34.9275 3.86788C34.8463 3.59733 34.8193 3.43499 34.7651 3.1915C34.7651 3.13738 34.7381 3.05622 34.7381 3.00211C34.7381 2.97505 34.7381 2.97505 34.7381 2.97505V2.948C34.7381 2.86683 34.7381 2.81272 34.7381 2.73155V2.7045V2.67744C34.7381 2.62333 34.7381 2.56922 34.7651 2.54216C34.7651 2.51511 34.7651 2.51511 34.7651 2.48805C34.7651 2.48805 34.7651 2.461 34.7651 2.43394C34.7922 2.37983 34.7922 2.35277 34.7922 2.29866C34.7922 2.27161 34.8463 2.10928 34.8463 2.08222C34.9004 1.89283 34.9004 1.67639 34.8193 1.51405C34.7652 1.37878 34.6569 1.32467 34.5216 1.43289C34.3052 1.64933 34.224 2.00105 34.1699 2.29866C34.1158 2.65039 34.1158 3.02916 34.1699 3.38088C34.2511 3.9761 34.4134 4.57133 34.6299 5.11244C34.2781 5.27477 33.9264 5.46416 33.6018 5.62649C33.5477 5.49121 33.5206 5.35594 33.4935 5.22066C33.4665 5.13949 33.4394 5.05832 33.4394 4.97716C33.4394 4.9501 33.4124 4.89599 33.4124 4.86894V4.84188C33.3312 4.4631 33.2771 4.08433 33.1959 3.70555C33.1418 3.38088 33.0877 3.02916 33.0607 2.7045C33.0336 2.56922 33.0336 2.43394 33.0065 2.32572C33.0065 2.29866 33.0065 2.27161 33.0065 2.24455C33.0065 2.2175 32.9795 2.19044 32.9795 2.16339C32.9795 2.16339 32.9795 2.16339 32.9795 2.13633C32.9795 2.10928 32.9795 2.10928 32.9795 2.08222C32.9524 1.974 32.9254 1.75755 32.763 1.7305C32.6277 1.70344 32.5466 1.86578 32.5196 1.974C32.5196 1.974 32.4925 2.10928 32.4925 2.16339C32.4925 2.2175 32.4654 2.24455 32.4654 2.29866C32.4654 2.35277 32.4654 2.37983 32.4654 2.43394C32.4654 2.59627 32.4925 2.78566 32.4925 2.948C32.5195 3.29972 32.5736 3.65144 32.6277 4.00316C32.736 4.65249 32.8442 5.32888 33.0336 5.97821C32.276 6.4111 31.5185 6.87104 30.788 7.35804C30.788 7.22276 30.788 7.06043 30.7609 6.95221C30.7339 6.8981 30.7339 6.84399 30.7068 6.76282C30.7068 6.73577 30.7068 6.70871 30.6798 6.70871C30.6527 6.57343 30.6256 6.43816 30.5986 6.27582C30.5445 5.95116 30.5174 5.62649 30.4904 5.30182C30.4904 5.27477 30.4904 5.22066 30.4904 5.1936C30.4904 5.11244 30.4904 5.03127 30.4904 4.9501C30.4904 4.81483 30.4633 4.65249 30.4633 4.51721C30.4633 4.19255 30.4633 3.86788 30.3551 3.57027C30.3822 3.65144 30.4092 3.73261 30.4092 3.81377C30.4092 3.78672 30.4092 3.73261 30.3822 3.70555C30.3822 3.67849 30.3822 3.59733 30.3551 3.57027C30.301 3.38088 30.1387 3.1915 30.0034 3.43499C29.9493 3.54322 29.9222 3.67849 29.8951 3.81377C29.841 4.05727 29.8681 4.30077 29.8681 4.54427C29.8681 4.89599 29.8951 5.24771 29.9222 5.62649C29.9763 6.24877 30.0304 6.92515 30.2198 7.52038C30.2469 7.57449 30.2469 7.6286 30.301 7.65565C29.9763 7.8721 29.6516 8.1156 29.354 8.3591C29.2999 8.41321 29.2458 8.44026 29.1917 8.49437C29.1917 8.38615 29.1647 8.30499 29.1647 8.22382C29.0564 7.81799 29.0023 7.57449 28.9212 7.1416C28.84 6.68165 28.7588 6.22171 28.7047 5.76177C28.6506 5.35594 28.5965 4.97716 28.5694 4.57133C28.5694 4.51721 28.5424 4.30077 28.5694 4.4631C28.5694 4.35488 28.5694 4.24666 28.5424 4.13844C28.5424 4.08433 28.5424 4.03022 28.5153 4.00316C28.5153 3.94905 28.4883 3.86788 28.4612 3.81377C28.4342 3.75966 28.4342 3.73261 28.38 3.67849C28.2989 3.62438 28.2989 3.62438 28.38 3.67849C28.3259 3.62438 28.2718 3.59733 28.1907 3.62438C27.866 3.75966 27.9742 4.51721 28.0013 4.78777C28.0283 5.1936 28.0824 5.62649 28.1365 6.03232C28.2448 6.95221 28.38 7.89915 28.6506 8.79198C28.6506 8.81904 28.6777 8.84609 28.6777 8.87315C28.2989 9.17076 27.8931 9.49543 27.5143 9.82009C27.5955 9.6307 27.5954 9.33309 27.5413 9.17076C27.2708 8.41321 27.0814 7.6286 27.0002 6.81693C26.9461 6.43816 26.919 6.03232 26.919 5.65355C26.919 5.22066 26.9731 4.78777 26.8108 4.38194C26.7567 4.27372 26.6214 4.19255 26.5403 4.30077C26.2697 4.65249 26.3238 5.22066 26.3238 5.65355C26.3238 6.14054 26.3509 6.60049 26.405 7.08749C26.5132 7.98032 26.7297 8.87315 27.0273 9.73893C27.0814 9.84715 27.1626 10.0095 27.2708 10.0095C25.7557 11.3081 24.2947 12.6609 22.7796 13.9596C22.6172 12.688 22.3467 11.4164 22.1573 10.1448C22.0491 9.49543 21.9408 8.87315 21.8867 8.22382C21.8326 7.76388 21.8867 7.27688 21.8055 6.78988C21.7785 6.57343 21.5891 6.27582 21.4268 6.57343C21.1833 7.03338 21.2915 7.76388 21.3186 8.25087C21.3727 8.90021 21.4809 9.57659 21.5891 10.2259C21.8056 11.6058 22.1032 12.9585 22.2655 14.3384V14.3654C21.8867 14.663 21.5079 14.9606 21.1292 15.2582C21.2644 15.0689 21.2374 14.7171 21.1833 14.5277C20.8586 13.3373 20.6692 12.0928 20.5069 10.8753C20.3716 9.82009 20.3446 8.76493 20.2093 7.70976C20.2093 7.60154 20.1281 7.35804 19.9928 7.35804C19.8305 7.35804 19.8034 7.60154 19.7764 7.70976C19.6682 8.22382 19.7223 8.73787 19.7764 9.25193C19.8305 9.90126 19.8846 10.5235 19.9928 11.1729C20.1552 12.4986 20.3716 13.8243 20.7233 15.0959C20.7504 15.2582 20.8857 15.3935 20.9939 15.3665C19.9658 16.124 18.8836 16.8275 17.7472 17.4227C17.6661 17.4497 17.5849 17.5039 17.5038 17.5309C15.7722 18.2344 13.8242 18.8296 11.8762 18.9648C10.8751 18.9648 9.87409 18.8025 8.87304 18.4779C8.73776 18.4237 8.65659 18.5049 8.57542 18.6402C8.16959 18.559 8.11548 19.6412 8.44014 19.7495C9.49531 20.0471 10.5775 20.1553 11.6598 20.1012C13.1207 20.1553 14.6088 19.9118 16.0427 19.3707C16.665 19.1272 17.2873 18.8566 17.8825 18.559C19.9928 17.6932 22.022 16.5569 23.9159 15.2853C26.4321 13.5808 28.5965 11.4164 31.1668 9.82009C34.1699 7.98032 37.7413 7.00632 41.2314 6.76282C43.1524 6.62754 45.0733 6.76282 46.9942 6.68165C48.834 6.60049 50.6738 6.27582 52.3512 5.49121C52.4865 5.4371 52.5406 5.22066 52.5677 5.00421C52.5947 5.00421 52.5947 5.00421 52.6218 5.03127C53.0817 5.13949 53.1629 4.19255 52.8653 4.08433ZM24.6464 13.6349C24.8899 13.4185 25.1604 13.175 25.4039 12.9585C25.3769 13.0126 25.3498 13.0668 25.3228 13.0938C25.3228 13.0938 25.3228 13.1209 25.2957 13.1479C25.1063 13.2832 24.944 13.4185 24.7546 13.5538C24.7275 13.5808 24.7005 13.6079 24.6464 13.6349Z" fill="black"/>
<path d="M8.38628 56.437C8.22394 56.437 8.22394 56.924 8.38628 56.924C8.54861 56.924 8.54861 56.437 8.38628 56.437Z" fill="black"/>
</svg>
