<svg width="54" height="38" viewBox="0 0 54 38" fill="none" xmlns="http://www.w3.org/2000/svg">
<path d="M26.4107 37.0001C36.2286 37.0001 44.1876 29.0411 44.1876 19.2232C44.1876 9.40528 36.2286 1.44629 26.4107 1.44629C16.5928 1.44629 8.63379 9.40528 8.63379 19.2232C8.63379 29.0411 16.5928 37.0001 26.4107 37.0001Z" fill="white"/>
<path d="M26.508 37C36.4492 37 44.508 28.9411 44.508 19C44.508 9.05886 36.4492 1 26.508 1C16.5669 1 8.50806 9.05886 8.50806 19C8.50806 28.9411 16.5669 37 26.508 37Z" stroke="black" stroke-miterlimit="10"/>
<path d="M18.5469 35.0063C18.4632 35.0063 18.4632 35.2573 18.5469 35.2573C18.6445 35.2573 18.6445 35.0063 18.5469 35.0063Z" fill="black"/>
<path d="M23.1202 26.4731C23.0504 26.3755 22.9807 26.4034 22.925 26.501C22.2557 27.5327 21.8653 28.7457 21.5586 29.9309C21.2379 31.1578 21.0288 32.4127 20.7778 33.6675C20.6384 34.3367 20.485 35.006 20.3037 35.6613C20.2759 35.7728 20.2619 35.968 20.3595 36.0517C20.4571 36.1354 20.5268 36.0378 20.5547 35.9541C21.2518 33.5699 21.4331 31.0742 22.2697 28.7318C22.4509 28.2159 22.6879 27.714 22.9529 27.226C23.0086 27.2399 23.0504 27.1702 23.0783 27.1144C23.1062 27.0308 23.1341 26.9471 23.162 26.8635C23.1899 26.738 23.1899 26.5707 23.1202 26.4731Z" fill="black"/>
<path d="M20.8475 27.198C20.7917 27.1143 20.7081 27.1283 20.6662 27.2259C20.3874 27.7557 20.1783 28.3413 19.9691 28.899C19.7739 29.4009 19.6066 29.9029 19.4114 30.4048C19.0628 31.2971 18.6864 32.1895 18.4633 33.1236C18.3378 33.6395 18.2681 34.1554 18.3239 34.6852C18.3378 34.7689 18.3936 34.9362 18.5051 34.8944C18.6167 34.8525 18.6167 34.6294 18.6027 34.5318C18.5191 33.6953 18.8676 32.803 19.1604 32.0222C19.4811 31.1438 19.8297 30.2654 20.1643 29.387C20.4013 28.7875 20.6802 28.1879 20.9033 27.5884C20.9172 27.449 20.9172 27.2817 20.8475 27.198Z" fill="black"/>
<path d="M23.7476 28.4951C23.7337 28.3836 23.5942 28.1744 23.5106 28.3696C23.2875 28.9273 23.1202 29.5129 22.925 30.0846C22.7298 30.6562 22.5346 31.2418 22.3534 31.8135C21.9769 32.9707 21.6144 34.1419 21.3077 35.327C21.2798 35.4386 21.2658 35.6338 21.3634 35.7314C21.461 35.8289 21.5447 35.7174 21.5586 35.6198C21.8654 34.4486 22.2279 33.2914 22.5904 32.1481C22.7716 31.5764 22.9668 31.0187 23.1481 30.4471C23.3015 29.987 23.4827 29.5269 23.6221 29.0668C23.664 29.0807 23.6918 29.0668 23.7197 28.9692C23.7616 28.8018 23.7476 28.6624 23.7476 28.4951Z" fill="black"/>
<path d="M24.7374 28.258C24.7234 28.1186 24.598 27.9513 24.5004 28.1325C24.0263 29.0248 23.6638 30.0008 23.3571 30.9629C23.0224 31.9946 22.7575 33.0403 22.5763 34.1139C22.4787 34.6716 22.4229 35.2433 22.395 35.8149C22.395 35.8986 22.4229 36.0938 22.5344 36.0938C22.6599 36.0938 22.6739 35.8846 22.6739 35.8149C22.7296 34.8529 22.897 33.8908 23.134 32.9427C23.371 31.9528 23.6777 30.9629 24.0542 30.0148C24.1936 29.6523 24.347 29.3037 24.5143 28.9551C24.5143 28.983 24.5143 29.0109 24.5143 29.0388C24.5282 29.234 24.6956 29.22 24.7234 29.0388C24.7653 28.7599 24.7513 28.509 24.7374 28.258Z" fill="black"/>
<path d="M25.5878 29.6801C25.4624 29.3734 25.2253 29.7638 25.1696 29.8893C25.0301 30.2378 24.9186 30.6143 24.821 30.9768C24.5282 32.0504 24.1517 33.0961 23.8032 34.1557C23.5522 34.8947 23.3431 35.6336 23.1758 36.3865C23.1618 36.4563 23.1758 36.6236 23.2455 36.6654C23.3152 36.7072 23.371 36.6375 23.3988 36.5678C23.6638 35.3548 24.1099 34.1975 24.5143 33.0264C24.7931 32.2316 24.9883 31.4369 25.2532 30.6422C25.309 30.4888 25.3508 30.3494 25.4205 30.196C25.4345 30.1542 25.4624 30.0984 25.4763 30.0566C25.5181 30.0705 25.56 30.0287 25.5878 29.9729C25.6297 29.8893 25.6157 29.7777 25.5878 29.6801Z" fill="black"/>
<path d="M26.1596 30.3771C26.0341 30.3911 25.9504 30.4608 25.8668 30.5723C25.7692 30.7117 25.6994 30.8512 25.6297 31.0045C25.4624 31.3949 25.3369 31.8132 25.2393 32.2315C25.0023 33.2075 24.835 34.2113 24.6816 35.2013C24.6259 35.5917 24.5701 35.996 24.4864 36.3864C24.4725 36.484 24.4725 36.6931 24.584 36.7489C24.6956 36.8047 24.7513 36.6234 24.7653 36.5398C24.9187 35.7729 25.0163 34.9921 25.1417 34.2253C25.2951 33.3469 25.4485 32.4267 25.7692 31.5901C25.8807 31.2973 26.0341 31.0324 26.2293 30.8372C26.285 30.7536 26.3269 30.3492 26.1596 30.3771Z" fill="black"/>
<path d="M27.2332 31.1443C27.0101 31.3116 26.9265 31.6462 26.8428 31.8972C26.7173 32.2458 26.6337 32.6083 26.55 32.9708C26.3688 33.7934 26.2293 34.616 26.1038 35.4526C26.0481 35.829 25.9923 36.2194 25.9226 36.5959C25.9086 36.6795 25.9087 36.8887 26.0202 36.9305C26.1317 36.9723 26.1736 36.819 26.1875 36.7353C26.4245 35.2853 26.5918 33.7934 27.0241 32.3852C27.1217 32.0785 27.2611 31.7996 27.3726 31.4929C27.3866 31.451 27.3726 31.0467 27.2332 31.1443Z" fill="black"/>
<path d="M27.9441 31.9804C27.9302 31.9246 27.9023 31.7852 27.8186 31.7852C27.735 31.7852 27.6931 31.9106 27.6931 31.9804C27.6374 32.3568 27.6792 32.7611 27.6792 33.1376C27.6653 33.528 27.6513 33.9044 27.6095 34.2948C27.5398 35.0617 27.4003 35.8146 27.1354 36.5396C27.0936 36.6511 27.0936 36.8463 27.1912 36.9439C27.2888 37.0415 27.3585 36.93 27.3864 36.8324C27.6513 36.0656 27.8047 35.2569 27.8883 34.4482C27.9302 34.0439 27.9581 33.6395 27.9581 33.2352C27.9581 33.0261 27.972 32.8309 27.972 32.6217C27.972 32.3986 27.9859 32.1895 27.9441 31.9804Z" fill="black"/>
<path d="M29.0735 32.4824C28.9898 32.566 28.948 32.7333 28.9062 32.8449C28.8644 32.9843 28.8225 33.1237 28.7947 33.2631C28.711 33.5978 28.6552 33.9463 28.5995 34.281C28.5019 34.9641 28.4321 35.6473 28.2509 36.3166C28.223 36.4281 28.2091 36.6233 28.3067 36.7209C28.4043 36.8185 28.4879 36.707 28.5019 36.6094C28.6831 35.9541 28.7668 35.2709 28.8644 34.5877C28.9062 34.267 28.962 33.9463 29.0317 33.6396C29.0596 33.5002 29.1014 33.3468 29.1432 33.2074C29.185 33.0819 29.2408 32.9703 29.2687 32.8449C29.2826 32.7612 29.2548 32.3011 29.0735 32.4824Z" fill="black"/>
<path d="M30.1611 32.915C29.924 32.7895 29.7707 33.2078 29.7149 33.3751C29.6173 33.7097 29.6034 34.0722 29.5894 34.4347C29.5755 34.8112 29.5894 35.1876 29.5894 35.578C29.5894 35.7453 29.5894 35.9126 29.5894 36.08C29.5894 36.0939 29.5894 36.1497 29.5894 36.1497C29.5894 36.1776 29.5894 36.2054 29.5894 36.2194C29.5894 36.2473 29.5755 36.2752 29.5755 36.303V36.317C29.5755 36.317 29.5755 36.317 29.5755 36.3309C29.5476 36.4425 29.5336 36.6237 29.6312 36.7074C29.7149 36.791 29.7986 36.6934 29.8264 36.6098C29.8962 36.3309 29.8962 36.0521 29.8962 35.7732C29.8962 35.4247 29.8962 35.0761 29.8962 34.7275C29.8962 34.3929 29.9101 34.114 29.9519 33.7934C29.9798 33.5982 30.0356 33.5145 30.175 33.403C30.2726 33.2914 30.3144 32.9986 30.1611 32.915Z" fill="black"/>
<path d="M31.4299 32.7612C31.402 32.6776 31.2905 32.6776 31.2626 32.7612C31.165 32.9983 31.2068 33.2632 31.2068 33.5002C31.2068 33.793 31.2068 34.0858 31.1929 34.3786C31.165 34.9502 31.0953 35.5498 30.9001 36.0935C30.8583 36.2051 30.8583 36.4003 30.9559 36.4979C31.0535 36.5955 31.1232 36.4839 31.1511 36.3863C31.3741 35.7728 31.4438 35.1175 31.4717 34.4762C31.4857 34.1694 31.4996 33.8766 31.4996 33.5699C31.4857 33.305 31.5275 33.0122 31.4299 32.7612Z" fill="black"/>
<path d="M32.6568 32.9149C32.6289 32.7754 32.4895 32.7754 32.4477 32.9149C32.3919 33.138 32.4059 33.361 32.4059 33.5841C32.4059 33.7793 32.4059 33.9745 32.3919 34.1697C32.378 34.5601 32.3222 34.9366 32.1967 35.313C32.1549 35.4246 32.1549 35.6198 32.2525 35.7174C32.3501 35.815 32.4198 35.7034 32.4477 35.6058C32.5871 35.1736 32.6568 34.7135 32.6708 34.2534C32.6847 34.0442 32.6847 33.8351 32.6847 33.626C32.6987 33.4029 32.7126 33.1519 32.6568 32.9149Z" fill="black"/>
<path d="M33.7026 34.1137V33.5839C33.7026 33.5141 33.7026 33.4584 33.7026 33.3887C33.7026 33.3468 33.7026 33.2911 33.6887 33.2492C33.6887 33.2213 33.6747 33.1935 33.6608 33.1656C33.6468 33.0959 33.6329 33.0401 33.5771 33.0122C33.5632 33.0122 33.5353 33.0122 33.5214 33.0122C33.4795 33.0261 33.4516 33.0959 33.4377 33.1656C33.4238 33.1935 33.4238 33.2213 33.4098 33.2492C33.4098 33.2911 33.3959 33.3468 33.3959 33.3887C33.3959 33.4584 33.3959 33.5141 33.3959 33.5839V34.1137C33.3959 34.4204 33.3959 34.7272 33.3959 35.0339C33.3959 35.1176 33.4238 35.3267 33.5353 35.3267C33.6608 35.3267 33.6747 35.1176 33.6747 35.0339C33.7026 34.7132 33.7026 34.4204 33.7026 34.1137Z" fill="black"/>
<path d="M34.7064 32.6361C34.6645 32.5943 34.6088 32.6083 34.5809 32.664C34.4415 33.0126 34.3718 33.3751 34.302 33.7376C34.2881 33.8073 34.302 33.877 34.316 33.9468C34.3299 33.9886 34.3578 34.0444 34.3996 34.0722C34.5112 34.128 34.553 33.9467 34.5669 33.891C34.6227 33.5564 34.7064 33.2217 34.7621 32.8871C34.7621 32.8035 34.7621 32.6919 34.7064 32.6361Z" fill="black"/>
<path d="M35.6266 32.2036C35.6127 32.1757 35.5988 32.1478 35.5709 32.1339C35.543 32.1199 35.4872 32.1339 35.4733 32.1618C35.4314 32.2315 35.3896 32.3012 35.3478 32.3849C35.306 32.4825 35.2781 32.5661 35.2502 32.6637C35.1944 32.8589 35.1665 33.068 35.1526 33.2632C35.1526 33.333 35.1665 33.4166 35.1944 33.4724C35.2084 33.5003 35.2502 33.556 35.292 33.556C35.4175 33.5421 35.4314 33.3608 35.4314 33.2632C35.4314 33.2493 35.4314 33.2214 35.4314 33.2075C35.4314 33.1656 35.4454 33.1378 35.4454 33.0959C35.4454 33.0541 35.4593 33.0262 35.4593 32.9844C35.4593 32.9704 35.4733 32.9426 35.4733 32.9286C35.5151 32.7892 35.5569 32.6358 35.5988 32.4964C35.6685 32.4127 35.6685 32.2873 35.6266 32.2036Z" fill="black"/>
<path d="M10.0558 16.6158C10.0697 16.5461 10.0837 16.1975 9.93031 16.2672C9.83271 16.3091 9.77694 16.4345 9.73511 16.5182C9.67934 16.6158 9.63751 16.7134 9.59568 16.8249C9.49809 17.048 9.42837 17.285 9.34472 17.5081C9.19135 17.9543 9.05192 18.4005 8.78701 18.8048C8.7173 18.9163 8.70335 19.0558 8.73124 19.1812C8.74518 19.2509 8.84278 19.3904 8.91249 19.2788C9.19135 18.8606 9.35866 18.4005 9.52597 17.9403C9.5678 17.8288 9.60963 17.7033 9.65145 17.5778C9.65145 17.6197 9.63751 17.6615 9.63751 17.7033C9.60963 17.8846 9.58174 18.0519 9.55386 18.2331C9.49809 18.6096 9.44232 18.986 9.38654 19.3625C9.26106 20.1293 9.14952 20.8962 8.95432 21.6491C8.92644 21.7606 8.91249 21.9558 9.01009 22.0534C9.09375 22.151 9.19135 22.0395 9.20529 21.9419C9.40049 21.1611 9.53991 20.3664 9.6654 19.5716C9.72117 19.1812 9.77694 18.7908 9.84665 18.4004C9.90242 18.0519 10.014 17.6754 9.98608 17.3129C9.97214 17.2153 9.91637 17.1177 9.84665 17.1456C9.87454 17.0898 9.90242 17.0201 9.93031 16.9644C9.95819 16.8528 10.0279 16.7413 10.0558 16.6158Z" fill="black"/>
<path d="M10.0419 15.2634C10.014 15.2077 9.97217 15.1519 9.90246 15.2077C9.76303 15.3471 9.66544 15.5284 9.55389 15.6817C9.44235 15.849 9.34475 16.0303 9.2611 16.1976C9.0659 16.588 8.92647 16.9923 8.85676 17.4106C8.84282 17.4943 8.85676 17.6476 8.94042 17.6895C9.03802 17.7313 9.0659 17.5919 9.07984 17.5222C9.14956 17.1596 9.28898 16.8111 9.4563 16.4765C9.53995 16.3091 9.63755 16.1558 9.73515 16.0024C9.83275 15.8351 9.95823 15.6817 10.0419 15.5144C10.0698 15.4726 10.0698 15.3471 10.0419 15.2634Z" fill="black"/>
<path d="M36.5051 31.8691C36.4911 31.8273 36.4493 31.7854 36.3935 31.7994C36.3378 31.8133 36.3099 31.8691 36.2959 31.9249C36.268 32.0503 36.268 32.1758 36.268 32.3013C36.268 32.3571 36.268 32.4129 36.268 32.4686C36.268 32.4965 36.268 32.5104 36.268 32.5383V32.5523V32.5662C36.2541 32.6638 36.2541 32.7614 36.2262 32.859C36.2262 32.8869 36.2123 32.9148 36.2123 32.9427C36.2123 32.9427 36.2123 32.9566 36.2123 32.9706C36.1983 33.0263 36.1844 33.0681 36.1704 33.1239C36.1426 33.2494 36.1286 33.4167 36.2262 33.5283C36.3099 33.6259 36.4075 33.5143 36.4214 33.4167C36.4772 33.1797 36.519 32.9427 36.5469 32.7056C36.5748 32.4268 36.6027 32.12 36.5051 31.8691Z" fill="black"/>
<path d="M37.3136 31.6044C37.2997 31.5486 37.2579 31.451 37.1742 31.465C37.1742 31.465 37.1603 31.465 37.1324 31.4929C37.1324 31.4929 37.1324 31.4929 37.1185 31.5068C37.0766 31.5486 37.0627 31.6183 37.0627 31.6741C37.0627 31.702 37.0487 31.7438 37.0487 31.7717C37.0487 31.7996 37.0487 31.8414 37.0487 31.8693C37.0487 31.8693 37.0487 31.8693 37.0487 31.8554C37.0487 31.8832 37.0487 31.8972 37.0487 31.9251C37.0487 32.0366 37.0487 32.1342 37.0487 32.2458C37.0487 32.2597 37.0487 32.2736 37.0487 32.2736C37.0487 32.3015 37.0487 32.3294 37.0348 32.3573C37.0348 32.4131 37.0209 32.4688 37.0069 32.5107C37.0069 32.5386 36.993 32.5664 36.993 32.5943C37.0069 32.5246 36.993 32.6083 36.979 32.6222C36.9651 32.678 36.9511 32.7338 36.9372 32.7895C36.8954 32.915 36.8954 33.0963 36.993 33.1939C37.0766 33.2915 37.1603 33.1799 37.1882 33.0823C37.2579 32.8592 37.2997 32.6362 37.3136 32.3991C37.3276 32.2736 37.3276 32.1482 37.3276 32.0227C37.3555 31.8833 37.3555 31.7299 37.3136 31.6044Z" fill="black"/>
<path d="M38.2758 30.9907C38.2339 30.8931 38.1224 30.8931 38.0806 30.9907C38.0666 31.0186 38.0527 31.0604 38.0527 31.0883C38.0527 31.1162 38.0387 31.1301 38.0387 31.1719C38.0387 31.1998 38.0387 31.2416 38.0248 31.2695C38.0108 31.3671 37.9969 31.4647 37.983 31.5623C37.969 31.6181 37.969 31.6599 37.9551 31.7157C37.9551 31.7296 37.9551 31.7296 37.9551 31.7436C37.9551 31.7715 37.9411 31.7994 37.9411 31.8272C37.9272 31.883 37.9132 31.9248 37.8993 31.9806C37.8854 32.0085 37.8575 32.0782 37.8993 32.0085C37.8854 32.0224 37.8854 32.0503 37.8714 32.0643C37.8156 32.1898 37.8017 32.3571 37.8714 32.4825C37.8993 32.5244 37.9272 32.5662 37.969 32.5662C38.0108 32.5662 38.0527 32.5244 38.0666 32.4825C38.1782 32.2455 38.2339 31.9946 38.2758 31.7436C38.2897 31.646 38.3036 31.5344 38.3176 31.4368C38.3315 31.2835 38.3315 31.1301 38.2758 30.9907Z" fill="black"/>
<path d="M39.2796 30.4888C39.2657 30.447 39.2378 30.3772 39.196 30.3772C39.1541 30.3633 39.1123 30.4051 39.0984 30.447C39.0286 30.6282 39.0286 30.8374 39.0147 31.0186C39.0008 31.1859 38.9729 31.3672 38.945 31.5345C38.931 31.6042 38.945 31.6879 38.9589 31.7576C38.9729 31.7994 39.0008 31.8691 39.0426 31.897C39.1681 31.9528 39.2099 31.7715 39.2238 31.6879C39.2517 31.5205 39.2796 31.3393 39.2936 31.158C39.3075 31.0465 39.3075 30.9489 39.3214 30.8374C39.3075 30.7258 39.3075 30.6143 39.2796 30.4888Z" fill="black"/>
<path d="M39.8512 29.7358C39.8512 29.68 39.8372 29.6103 39.8094 29.5545C39.7954 29.5266 39.7675 29.4848 39.7396 29.4848C39.642 29.4569 39.6002 29.6103 39.6002 29.68C39.6002 29.7637 39.5723 29.8473 39.5584 29.931C39.5584 29.9588 39.5444 29.9728 39.5444 30.0007C39.5305 30.0425 39.5166 30.0843 39.5026 30.1262C39.5026 30.1122 39.5026 30.1122 39.5166 30.0983C39.4887 30.168 39.4747 30.2238 39.4747 30.2935C39.4747 30.3632 39.4887 30.4468 39.5166 30.5026C39.5305 30.5444 39.5723 30.5863 39.6142 30.5863C39.656 30.5863 39.6978 30.5444 39.7118 30.5026C39.7675 30.3771 39.7954 30.2516 39.8372 30.1122C39.8651 29.9728 39.8651 29.8473 39.8512 29.7358Z" fill="black"/>
<path d="M30.0635 1.47419C29.2827 2.1295 28.8365 3.04971 28.4879 3.98387C28.3206 4.45792 28.1673 4.93198 28 5.40603C27.8326 5.88008 27.6374 6.32625 27.4283 6.78635C27.3586 6.8979 27.3725 7.07915 27.4283 7.19069C27.4841 7.30223 27.5677 7.28829 27.6374 7.19069C27.8884 6.77241 28.0557 6.29836 28.2091 5.85219C28.3764 5.37814 28.5298 4.90409 28.6971 4.43004C29.0317 3.50982 29.45 2.6175 30.2168 1.97613C30.3423 1.86459 30.2587 1.29294 30.0635 1.47419Z" fill="black"/>
<path d="M30.7885 2.18496C30.7328 2.08736 30.6352 2.07342 30.5794 2.18496C30.2727 2.84027 30.0217 3.49557 29.7289 4.15087C29.5895 4.47155 29.4361 4.79224 29.2688 5.11292C29.213 5.22446 29.1433 5.336 29.0736 5.4336C28.9481 5.6288 28.7947 5.81005 28.7111 6.03313C28.6692 6.14467 28.6553 6.28411 28.6971 6.39565C28.725 6.4793 28.7947 6.54902 28.8784 6.46536C29.1154 6.22834 29.2688 5.89371 29.4361 5.60091C29.6173 5.26629 29.7707 4.93166 29.9241 4.59704C30.2169 3.92779 30.4818 3.25855 30.7885 2.60324C30.8443 2.47776 30.8582 2.2965 30.7885 2.18496Z" fill="black"/>
<path d="M31.7785 2.07363C31.7227 1.97603 31.6251 1.96209 31.5693 2.07363C31.3184 2.65922 31.0535 3.25876 30.8164 3.85829C30.5794 4.44388 30.3145 5.05736 30.1611 5.67084C30.1333 5.76844 30.1333 5.90786 30.189 6.00546C30.2169 6.06123 30.3006 6.13095 30.3563 6.04729C30.4818 5.87998 30.5655 5.69872 30.6491 5.51746C30.677 5.44775 30.691 5.35015 30.6631 5.2665C30.7886 4.91793 30.9001 4.56937 31.0395 4.23475C31.2766 3.64915 31.5275 3.06356 31.7785 2.49191C31.8343 2.36643 31.8482 2.18517 31.7785 2.07363Z" fill="black"/>
<path d="M32.88 2.50576C32.8243 2.40816 32.7267 2.39422 32.6709 2.50576C32.406 3.04952 32.2387 3.63512 32.0714 4.22071C31.9877 4.49956 31.904 4.79236 31.8064 5.07122C31.7646 5.21064 31.7088 5.33612 31.6391 5.47555C31.6112 5.47555 31.5973 5.50344 31.5694 5.53132C31.4997 5.67075 31.4579 5.81017 31.4021 5.96354C31.3742 6.06114 31.3742 6.21451 31.43 6.31211C31.4579 6.36788 31.5415 6.43759 31.5973 6.35393C31.9319 5.852 32.0992 5.23852 32.2666 4.66687C32.4339 4.08128 32.5872 3.48175 32.8661 2.92404C32.9358 2.79856 32.9497 2.63124 32.88 2.50576Z" fill="black"/>
<path d="M33.5491 2.97998C33.4236 2.97998 33.3957 3.18912 33.4097 3.27277C33.4097 3.30066 33.4097 3.32854 33.4097 3.35643C33.4097 3.39825 33.4097 3.35643 33.4097 3.4122C33.4097 3.48191 33.3957 3.53769 33.3818 3.6074C33.3539 3.74683 33.326 3.87231 33.2842 4.01173C33.2005 4.31847 33.1029 4.62521 32.9914 4.91801C32.9077 5.18292 32.8101 5.43389 32.7265 5.6988C32.6846 5.82429 32.6568 5.94976 32.6428 6.07525C32.6428 6.10313 32.6428 6.15891 32.6428 6.15891V6.17285C32.6428 6.24256 32.6568 6.31227 32.6846 6.38199C32.7404 6.50747 32.838 6.42382 32.8659 6.34016C32.838 6.40987 32.8659 6.34016 32.8798 6.31227C32.8798 6.29833 32.8798 6.28439 32.8938 6.27045C32.8938 6.27045 32.8938 6.27044 32.8938 6.28439V6.27045C32.9077 6.24256 32.9217 6.21467 32.9217 6.17285C32.9496 6.07525 32.9774 5.9637 33.0193 5.86611C33.1029 5.58725 33.2005 5.32235 33.2981 5.04349C33.4933 4.47184 33.7025 3.85836 33.7025 3.24489C33.6885 3.17517 33.6746 2.97998 33.5491 2.97998Z" fill="black"/>
<path d="M34.4693 3.53757C34.3578 3.4818 34.302 3.66305 34.2881 3.74671C34.2602 3.88614 34.2602 3.92796 34.2323 4.05344C34.2044 4.17892 34.1626 4.30442 34.1347 4.44384C34.051 4.73664 33.9534 5.04337 33.8698 5.33617C33.7861 5.60108 33.6885 5.85205 33.6049 6.11696C33.577 6.21456 33.5352 6.31216 33.5073 6.40975C33.5073 6.43764 33.4933 6.46552 33.4933 6.49341C33.4933 6.50735 33.4933 6.52129 33.4933 6.52129C33.4794 6.56312 33.4655 6.60495 33.4655 6.64678C33.4515 6.73044 33.4933 6.98141 33.6188 6.88381C33.6467 6.86987 33.6607 6.82803 33.6746 6.80015C33.6746 6.80015 33.6746 6.80015 33.6746 6.78621C33.6746 6.78621 33.6607 6.80015 33.6467 6.8141C33.6607 6.80015 33.6746 6.80015 33.6746 6.78621L33.6885 6.77226C33.7025 6.75832 33.7025 6.75833 33.7164 6.74438C33.7722 6.66073 33.8001 6.57707 33.828 6.47947C33.9395 6.20061 34.0232 5.92176 34.1208 5.62897C34.302 5.07126 34.4972 4.49961 34.5809 3.91401C34.5948 3.80247 34.5809 3.59334 34.4693 3.53757Z" fill="black"/>
<path d="M33.6606 6.77329C33.6758 6.75819 33.6758 6.75819 33.6606 6.77329C33.6758 6.75819 33.6758 6.77329 33.6606 6.77329Z" fill="black"/>
<path d="M35.5709 3.81648C35.5709 3.73283 35.543 3.52368 35.4315 3.52368C35.32 3.52368 35.2781 3.73283 35.2921 3.81648C35.32 4.37419 35.1805 4.91795 34.9853 5.44777C34.8877 5.71268 34.7762 5.9776 34.6507 6.22856C34.5949 6.35405 34.5392 6.46559 34.4695 6.59107C34.4555 6.6329 34.3997 6.78627 34.344 6.86992C34.2603 6.95358 34.1906 7.03723 34.2045 7.1906C34.2045 7.26032 34.2324 7.4834 34.344 7.46946C34.4695 7.45551 34.5113 7.33004 34.5671 7.23244C34.6507 7.07907 34.7204 6.92569 34.7901 6.77232C34.9435 6.46558 35.0829 6.1449 35.2084 5.82422C35.4454 5.18286 35.6128 4.51362 35.5709 3.81648Z" fill="black"/>
<path d="M36.3516 4.63889C36.24 4.58312 36.1843 4.76437 36.1703 4.84803C36.0727 5.33602 36.003 5.83796 35.9054 6.33989C35.8636 6.56298 35.8078 6.80001 35.7381 7.02309C35.7102 7.10674 35.6684 7.21828 35.6544 7.28799C35.6266 7.37165 35.6266 7.34376 35.6126 7.39953C35.5987 7.44136 35.5847 7.49713 35.5708 7.53896C35.5569 7.58079 35.5708 7.51108 35.5708 7.56685C35.5569 7.6505 35.5429 7.9433 35.6963 7.90147C35.8636 7.8457 35.9333 7.53896 35.9891 7.38559C36.0727 7.12068 36.1285 6.85577 36.1843 6.57692C36.2958 6.0471 36.3655 5.51728 36.4771 5.0014C36.4631 4.9038 36.4492 4.69466 36.3516 4.63889Z" fill="black"/>
<path d="M37.2301 5.40598C37.1046 5.35021 37.0628 5.53146 37.0488 5.61512C36.9512 6.07522 36.8954 6.53534 36.7978 6.99544C36.756 7.19064 36.7002 7.41372 36.6445 7.62286C36.5887 7.79018 36.5329 7.94354 36.4632 8.09691C36.4353 8.16662 36.4214 8.23634 36.4493 8.32C36.4632 8.34788 36.4911 8.45942 36.5469 8.44548C36.7421 8.38971 36.8118 8.19451 36.8815 8.01326C36.9652 7.77623 37.0209 7.52527 37.0767 7.2743C37.1743 6.7863 37.244 6.28437 37.3556 5.78243C37.3556 5.67089 37.3416 5.46175 37.2301 5.40598Z" fill="black"/>
<path d="M38.0806 6.21441C38.0527 6.13075 37.969 6.01921 37.8854 6.10287C37.8017 6.20047 37.8017 6.38173 37.8296 6.50721C37.8296 6.52115 37.8435 6.54903 37.8435 6.56298C37.8435 6.56298 37.8435 6.56298 37.8435 6.57692C37.8435 6.57692 37.8435 6.57692 37.8435 6.59086C37.8575 6.63269 37.8575 6.67452 37.8575 6.73029C37.8575 6.75818 37.8575 6.77212 37.8575 6.8V6.81395C37.8575 6.86972 37.8575 6.91155 37.8575 6.96732C37.8575 7.02309 37.8575 7.06491 37.8575 7.12068C37.8575 7.13463 37.8575 7.13463 37.8575 7.14857C37.8575 7.14857 37.8575 7.14858 37.8575 7.16252C37.8575 7.1904 37.8575 7.21829 37.8435 7.24617C37.8296 7.34377 37.8156 7.45531 37.8017 7.55291C37.7738 7.70628 37.732 7.87359 37.6762 8.05484C37.6623 8.08273 37.6483 8.15244 37.6483 8.15244C37.6483 8.15244 37.6205 8.20821 37.6065 8.2361C37.5786 8.30581 37.5507 8.40341 37.5368 8.44524C37.495 8.51495 37.495 8.6265 37.5229 8.69621C37.5368 8.73804 37.5786 8.83563 37.6483 8.7938C37.7041 8.76592 37.7599 8.72409 37.8156 8.64044C37.8714 8.55678 37.8993 8.45918 37.9411 8.37552C38.0248 8.15244 38.0666 7.92936 38.1084 7.70628C38.1921 7.20434 38.22 6.67452 38.0806 6.21441Z" fill="black"/>
<path d="M39.2099 7.02303C39.2099 6.93937 39.182 6.73022 39.0705 6.73022C38.9589 6.73022 38.9171 6.93937 38.931 7.02303C38.931 7.1764 38.945 7.3437 38.931 7.49707C38.931 7.58073 38.931 7.67833 38.9171 7.76199C38.9171 7.80381 38.9171 7.85958 38.9032 7.90141C38.9032 7.91535 38.9032 7.91536 38.9032 7.9293C38.9032 7.94324 38.9032 7.97112 38.9032 7.98506C38.8892 8.13843 38.8753 8.30575 38.8334 8.45912C38.8334 8.47306 38.8334 8.487 38.8195 8.50095V8.51488C38.8056 8.54277 38.8056 8.5846 38.7916 8.61248C38.7777 8.65431 38.7777 8.6822 38.7637 8.72402C38.7637 8.72402 38.7637 8.72403 38.7637 8.73797C38.7219 8.80769 38.7219 8.90528 38.7498 8.98894C38.7637 9.03077 38.8056 9.11442 38.8613 9.08654C38.8753 9.08654 38.9171 9.04471 38.8892 9.05865C38.945 9.03077 38.9171 9.0726 38.9589 9.01683C38.9729 9.00288 38.9868 8.97499 39.0008 8.96105C39.0426 8.89134 39.0705 8.82162 39.0844 8.75191C39.1402 8.57066 39.1541 8.37546 39.182 8.18027C39.2099 7.78987 39.2238 7.39948 39.2099 7.02303Z" fill="black"/>
<path d="M40.0883 8.0413C40.0744 7.97158 40.0186 7.77638 39.9071 7.83216C39.7955 7.88793 39.7955 8.09706 39.8095 8.19466C39.8095 8.22255 39.8234 8.26438 39.8234 8.29226C39.8234 8.3062 39.8234 8.32015 39.8234 8.33409C39.8234 8.41774 39.8234 8.48746 39.8234 8.57111C39.8234 8.65477 39.8234 8.72449 39.8095 8.80814C39.8095 8.82208 39.8095 8.84996 39.8095 8.86391C39.8095 8.78025 39.8095 8.86391 39.8095 8.87786C39.8095 8.91968 39.8095 8.96151 39.7955 9.00333C39.7816 9.14276 39.7677 9.29614 39.7398 9.43556C39.7258 9.50528 39.7258 9.58893 39.7258 9.65864C39.7258 9.68653 39.7258 9.72836 39.7258 9.75624C39.7258 9.7423 39.7258 9.72835 39.7258 9.72835C39.7258 9.7423 39.7258 9.77019 39.7258 9.78413V9.79807C39.7258 9.79807 39.7258 9.79807 39.7258 9.78413C39.7258 9.8399 39.7398 9.89567 39.7677 9.93749C39.7955 9.97932 39.8513 10.0072 39.8792 9.95144C39.8792 9.9375 39.8931 9.9375 39.8931 9.92356C39.9907 9.8399 40.0047 9.67258 40.0326 9.56104C40.0605 9.40767 40.0744 9.2543 40.0883 9.10093C40.1162 8.75237 40.1441 8.38986 40.0883 8.0413Z" fill="black"/>
<path d="M40.7158 9.15649C40.5903 9.15649 40.5763 9.36563 40.5763 9.44929C40.5763 9.44929 40.5763 9.49112 40.5763 9.50506C40.5763 9.519 40.5763 9.53294 40.5763 9.54689C40.5763 9.60266 40.5624 9.64448 40.5624 9.70025C40.5484 9.79785 40.5345 9.89546 40.5206 9.99305C40.5206 10.0209 40.5066 10.0349 40.5066 10.0628C40.5066 10.0767 40.5066 10.0767 40.5066 10.0907C40.4927 10.1325 40.4927 10.1883 40.4787 10.2301C40.4508 10.3416 40.423 10.4532 40.409 10.5786C40.3951 10.6762 40.3951 10.8017 40.4648 10.8854C40.5206 10.9551 40.5903 10.9133 40.6321 10.8436C40.6879 10.746 40.7158 10.6205 40.7436 10.5089C40.7715 10.3974 40.7994 10.2719 40.8134 10.1604C40.8552 9.93729 40.8831 9.70026 40.897 9.46323C40.8691 9.36564 40.8412 9.15649 40.7158 9.15649Z" fill="black"/>
<path d="M41.12 10.3971C41.106 10.3692 41.0781 10.3413 41.0503 10.3413C40.9666 10.3413 40.9387 10.4947 40.9387 10.5504V11.3173C40.9387 11.3591 40.9527 11.4288 40.9666 11.4707C40.9805 11.4985 41.0084 11.5264 41.0363 11.5264C41.12 11.5264 41.1479 11.3731 41.1479 11.3173V10.5504C41.1479 10.4947 41.1479 10.4389 41.12 10.3971Z" fill="black"/>
<path d="M41.9845 12.0847C41.9706 12.0568 41.9566 12.0289 41.9566 12.001C41.9566 11.9871 41.9427 11.9732 41.9427 11.9592V11.9453C41.9288 11.8895 41.9009 11.8477 41.8869 11.7919C41.873 11.7361 41.859 11.6804 41.8451 11.6246V11.6106C41.8451 11.5967 41.8451 11.5967 41.8451 11.5828C41.8451 11.5549 41.8312 11.527 41.8312 11.4991C41.8312 11.4573 41.8172 11.4015 41.7893 11.3736C41.7754 11.3457 41.7336 11.3318 41.7057 11.3597C41.636 11.4015 41.622 11.5409 41.636 11.6106C41.6499 11.7501 41.6778 11.8756 41.7336 12.001C41.7754 12.1265 41.8312 12.252 41.9148 12.3636C41.9566 12.4193 42.0124 12.3636 42.0264 12.3217C42.0264 12.2381 42.0264 12.1544 41.9845 12.0847Z" fill="black"/>
<path d="M42.598 12.0703C42.5841 12.0284 42.5562 11.9727 42.5144 11.9448C42.4168 11.889 42.361 12.0563 42.361 12.126C42.3471 12.2097 42.3331 12.3073 42.3192 12.3909C42.3052 12.4328 42.3052 12.4746 42.2913 12.5164C42.2913 12.5443 42.2773 12.5583 42.2773 12.5861C42.2355 12.7813 42.1658 12.9765 42.1519 13.1857C42.1519 13.2554 42.1658 13.339 42.2076 13.3809C42.2355 13.4227 42.2913 13.4227 42.3192 13.3809C42.3889 13.2972 42.4028 13.1996 42.4307 13.102C42.4586 13.0184 42.4725 12.9208 42.5004 12.8371C42.5423 12.6419 42.5841 12.4607 42.612 12.2655C42.612 12.2097 42.612 12.126 42.598 12.0703Z" fill="black"/>
<path d="M28.279 1.79455C28.2511 1.7109 28.1674 1.5854 28.0838 1.683C27.1357 2.71476 26.9126 4.20663 26.6198 5.51724C26.6198 5.53118 26.6058 5.54513 26.6058 5.57301C26.6058 5.58695 26.6058 5.60089 26.5919 5.61484C26.5919 5.64272 26.578 5.65667 26.578 5.68455C26.564 5.78215 26.578 5.9634 26.6616 6.03312C26.7453 6.10283 26.815 6.00524 26.8429 5.90764C27.1775 4.63886 27.303 3.20276 28.2232 2.18494C28.3068 2.10129 28.3068 1.92004 28.279 1.79455Z" fill="black"/>
<path d="M27.2888 1.64163C27.2749 1.57191 27.2191 1.36277 27.1076 1.43249C26.6614 1.72528 26.3547 2.18539 26.1177 2.6455C25.9922 2.89647 25.8946 3.14744 25.797 3.41235C25.7133 3.67726 25.6297 3.95612 25.6157 4.23497C25.6157 4.30468 25.7133 4.65324 25.8249 4.47199C25.9225 4.31862 25.9643 4.17919 26.0201 4.01188C26.034 3.94217 26.0479 3.85851 26.0201 3.80274C26.034 3.77486 26.034 3.74697 26.0479 3.73303C26.1177 3.496 26.2153 3.27292 26.3268 3.06378C26.5359 2.65944 26.8009 2.25511 27.1912 1.99019C27.3028 1.93442 27.3167 1.76711 27.2888 1.64163Z" fill="black"/>
<path d="M26.0619 1.46007C26.034 1.37642 25.9504 1.25093 25.8667 1.34853C25.546 1.73893 25.3369 2.19903 25.1556 2.67309C24.9744 3.13319 24.821 3.60724 24.6398 4.08129C24.5979 4.17889 24.6537 4.65294 24.835 4.47168C24.9605 4.36014 24.9883 4.20678 25.0441 4.03947C25.0581 4.01158 25.058 3.98369 25.058 3.94186C25.323 3.21685 25.5042 2.45 26.0062 1.85046C26.1037 1.76681 26.1037 1.58556 26.0619 1.46007Z" fill="black"/>
<path d="M24.5841 1.69714C24.5004 1.59954 24.4028 1.71108 24.3889 1.80868C24.2913 2.12936 24.1937 2.45004 24.0821 2.77072C23.9706 3.0914 23.8312 3.42602 23.7615 3.76065C23.7475 3.8443 23.7615 3.95585 23.8033 4.0395C23.8312 4.08133 23.8869 4.15104 23.9427 4.10922C24.0403 4.0395 24.124 3.95585 24.1797 3.83036C24.2216 3.71882 24.2494 3.60728 24.2913 3.49573C24.3052 3.42602 24.3052 3.34237 24.2773 3.27266C24.3052 3.20294 24.3192 3.13323 24.347 3.06352C24.4586 2.74283 24.5701 2.43609 24.6538 2.10147C24.6677 1.97598 24.6677 1.79473 24.5841 1.69714Z" fill="black"/>
<path d="M23.9706 1.79455C23.9427 1.7109 23.8591 1.5854 23.7754 1.683C23.5524 1.9758 23.399 2.31043 23.2874 2.67294C23.2317 2.84025 23.1898 3.00756 23.162 3.17487C23.1201 3.37007 23.0504 3.57921 23.0504 3.78835C23.0504 3.87201 23.0644 4.01143 23.148 4.05326C23.2038 4.08114 23.2596 4.03931 23.2874 3.98354C23.2874 3.9696 23.2874 3.96961 23.3014 3.95566C23.3014 3.94172 23.3153 3.92778 23.3153 3.92778V3.91383C23.3293 3.88594 23.3293 3.85806 23.3432 3.83018C23.3572 3.77441 23.385 3.71864 23.385 3.64892C23.385 3.62104 23.399 3.57921 23.399 3.55132C23.399 3.52344 23.4129 3.5095 23.4129 3.48161C23.4548 3.32824 23.4826 3.16093 23.5384 3.00756C23.6221 2.71476 23.7475 2.43591 23.9427 2.18494C23.9985 2.08735 24.0125 1.92004 23.9706 1.79455Z" fill="black"/>
<path d="M22.5206 1.96207C22.4648 1.85053 22.3672 1.85053 22.3114 1.96207C22.1441 2.28276 22.0605 2.61738 21.9908 2.96595C21.935 3.28663 21.8792 3.60731 21.8374 3.94193C21.8234 4.03953 21.8234 4.23473 21.935 4.2905C22.0186 4.33233 22.0744 4.23474 22.0884 4.16502C22.0884 4.15108 22.0884 4.15108 22.0884 4.13714C22.0884 4.12319 22.0884 4.10925 22.1023 4.10925C22.172 3.81645 22.1999 3.50971 22.2557 3.20298C22.2975 2.93806 22.3812 2.64526 22.5206 2.38035C22.5763 2.25487 22.5763 2.07362 22.5206 1.96207Z" fill="black"/>
<path d="M21.7118 1.69714C21.6281 1.59954 21.5305 1.71108 21.5166 1.80868C21.4329 2.12936 21.3353 2.43609 21.2517 2.75677C21.2238 2.84043 21.2098 2.92409 21.1959 2.9938C21.1541 3.00774 21.1262 3.07746 21.1262 3.11929C21.1122 3.21689 21.1122 3.32842 21.0983 3.42602C21.0704 3.53756 21.0565 3.66305 21.0704 3.77459C21.0704 3.87219 21.0844 3.96979 21.1401 4.0395C21.2238 4.1371 21.3074 4.02556 21.3353 3.9419C21.3771 3.77459 21.3911 3.60728 21.419 3.43997C21.4469 3.31449 21.4887 3.16112 21.5166 3.02169C21.6002 2.71495 21.6978 2.40821 21.7815 2.10147C21.7954 1.97598 21.8094 1.79473 21.7118 1.69714Z" fill="black"/>
<path d="M20.6104 2.25504C20.5267 2.15744 20.4431 2.26899 20.4152 2.35264C20.3455 2.57572 20.2897 2.81275 20.22 3.03583C20.1503 3.27285 20.0666 3.52382 20.0248 3.76085C20.0108 3.83056 20.0108 3.90028 20.0387 3.95605C20.0666 4.01182 20.1363 4.09547 20.1921 4.01181C20.2339 3.9421 20.2758 3.87239 20.3036 3.78874C20.3315 3.76085 20.3455 3.73296 20.3734 3.69113C20.4012 3.64931 20.4012 3.5796 20.4012 3.50988C20.4291 3.44017 20.4431 3.37046 20.4709 3.30074C20.5407 3.06372 20.5964 2.84063 20.6661 2.60361C20.694 2.51995 20.694 2.35264 20.6104 2.25504Z" fill="black"/>
<path d="M19.7042 2.53357C19.6345 2.46386 19.5787 2.54752 19.5648 2.60329C19.5229 2.72877 19.509 2.85426 19.4811 2.97974C19.4672 3.0634 19.4532 3.14705 19.4253 3.23071C19.4253 3.24465 19.4114 3.27253 19.4114 3.28647C19.4114 3.30042 19.4114 3.30042 19.4114 3.31436C19.4114 3.31436 19.4114 3.31436 19.4114 3.32831C19.4114 3.34225 19.4114 3.34224 19.4114 3.35619C19.4114 3.37013 19.3975 3.39802 19.3975 3.41196C19.3975 3.43985 19.3835 3.46773 19.3835 3.48167C19.3696 3.50956 19.3696 3.5235 19.3696 3.53745C19.3556 3.60716 19.3417 3.67687 19.3556 3.74659C19.3696 3.78842 19.3975 3.88601 19.4672 3.85813C19.4811 3.84418 19.4951 3.83024 19.509 3.8163C19.5508 3.77447 19.5648 3.69081 19.5787 3.63504C19.5927 3.55138 19.6205 3.46773 19.6345 3.37013C19.6624 3.21676 19.6903 3.0634 19.7321 2.91003V2.89608C19.7321 2.88214 19.7321 2.8682 19.746 2.85425C19.746 2.84031 19.76 2.81242 19.76 2.79848C19.7739 2.74271 19.7739 2.60329 19.7042 2.53357Z" fill="black"/>
<path d="M18.9371 3.67693V3.66298C18.9371 3.64904 18.9371 3.6351 18.9371 3.64904C18.9371 3.62116 18.9371 3.57933 18.951 3.55144C18.951 3.5375 18.951 3.52356 18.951 3.50962C18.951 3.49567 18.951 3.49567 18.965 3.48173C18.9789 3.42596 18.9789 3.38413 18.9789 3.32836C18.9789 3.28654 18.965 3.23076 18.9371 3.20288C18.8813 3.14711 18.8116 3.21682 18.7977 3.27259C18.7559 3.45384 18.728 3.6351 18.7419 3.81636C18.7419 3.90001 18.7559 3.98367 18.7698 4.06732C18.7837 4.10915 18.8116 4.20675 18.8813 4.20675C18.9232 4.20675 18.9371 4.16492 18.951 4.12309C18.965 4.08126 18.965 4.03944 18.951 3.99761C18.951 3.99761 18.951 4.01155 18.951 4.0255C18.951 4.01155 18.951 4.01155 18.951 3.99761V3.98366C18.951 3.98366 18.951 3.98367 18.951 3.99761C18.951 3.98367 18.951 3.98367 18.951 3.96972C18.951 3.95578 18.951 3.94183 18.951 3.91395C18.951 3.88606 18.951 3.87212 18.951 3.84424V3.8303C18.951 3.81635 18.951 3.81635 18.951 3.80241V3.81636V3.80241C18.951 3.77452 18.951 3.74664 18.951 3.70481C18.9371 3.69087 18.9371 3.67693 18.9371 3.67693C18.9371 3.66299 18.9371 3.66299 18.9371 3.67693Z" fill="black"/>
<path d="M18.9373 3.66392C18.9524 3.64881 18.9524 3.64881 18.9373 3.66392C18.9524 3.64881 18.9524 3.64881 18.9373 3.66392C18.9373 3.64881 18.9373 3.64881 18.9373 3.66392Z" fill="black"/>
<path d="M18.9659 3.99841C18.9659 3.99841 18.9508 3.99841 18.9659 3.99841C18.9508 3.98331 18.9508 3.99841 18.9659 3.99841Z" fill="black"/>
<path d="M18.0448 3.96955C18.0727 3.94167 18.0867 3.89984 18.0867 3.85801C18.0867 3.81618 18.0867 3.76041 18.0727 3.71859C18.0588 3.6907 18.0448 3.64887 18.0169 3.63492C17.9891 3.62098 17.9612 3.63493 17.9472 3.64887C17.8775 3.74647 17.8357 3.85801 17.8357 3.96955C17.8357 4.08109 17.8636 4.19264 17.9472 4.27629C17.9612 4.29024 17.9891 4.30417 18.0169 4.29023C18.0448 4.27629 18.0588 4.23446 18.0727 4.22052C18.0867 4.15081 18.0867 4.05321 18.0448 3.99744C18.0448 3.99744 18.0448 3.98349 18.0309 3.98349C18.0448 3.98349 18.0448 3.98349 18.0448 3.96955Z" fill="black"/>
<path d="M52.9016 14.1898C52.553 13.2278 51.5631 12.6701 50.629 12.3773C49.4438 12.0148 48.1193 12.0148 46.8923 12.1542C45.512 12.3076 44.1596 12.7258 42.9326 13.409C42.6956 13.5345 42.5283 13.66 42.5143 13.9528C42.5143 14.2177 42.6538 14.3571 42.8908 14.4129C43.0163 14.4408 43.072 14.1619 43.0163 13.9667C43.072 13.9388 43.1139 13.897 43.1557 13.8831C43.2812 13.8134 43.3927 13.7576 43.5182 13.7018C43.5461 13.8412 43.6297 13.9528 43.7413 13.9528C43.8528 13.9528 43.9783 13.9528 44.0898 13.9528C44.0898 14.0783 44.1177 14.2038 44.1596 14.2874C43.9922 14.3711 43.8249 14.4687 43.7273 14.622C43.6576 14.7336 43.6297 14.8869 43.6716 15.0264C43.6995 15.0961 43.797 15.2495 43.8668 15.1379C43.9644 14.9845 44.1596 14.8869 44.3269 14.8172C44.5918 14.6917 44.8846 14.6081 45.1634 14.5384C45.8327 14.385 46.5298 14.2874 47.213 14.3571C47.3106 14.3711 47.4082 14.385 47.5058 14.3989C47.7568 14.5523 48.0356 14.6778 48.3145 14.7615C48.3424 14.7893 48.3702 14.8312 48.3981 14.873C48.4121 14.9009 48.44 14.9567 48.44 14.9567C48.44 14.9706 48.44 14.9706 48.44 14.9706C48.44 14.9845 48.44 14.9985 48.426 15.0264C48.3842 15.11 48.3284 15.1937 48.2587 15.2495C48.0774 15.4447 47.8404 15.5841 47.6173 15.7096C47.0457 16.0163 46.4183 16.2394 45.8048 16.4485C45.3168 16.6158 44.8009 16.7413 44.3269 16.9505C43.9086 17.1317 43.5042 17.3548 43.086 17.5361C42.5701 17.7731 42.0403 17.9822 41.5105 18.1774C40.4229 18.5818 39.3075 18.9303 38.1782 19.2092C33.7444 20.3246 29.1712 20.6313 24.6538 21.1193C22.3393 21.3703 20.0387 21.7607 17.7243 22.0674C17.7243 22.0535 17.7243 22.0395 17.7382 22.0395C17.794 21.8304 17.8497 21.6213 17.9055 21.4121C17.9473 21.2169 17.9892 21.0357 17.8776 20.8684C17.8637 20.8405 17.8079 20.8126 17.7661 20.8405C17.6685 20.9102 17.6545 21.0217 17.6545 21.1333C17.5569 21.4679 17.4593 21.8025 17.3757 22.1232C16.7204 22.2068 16.0651 22.2905 15.4098 22.3602C15.6747 21.6213 16.0093 20.9102 16.33 20.1991C16.3718 20.0876 16.3858 19.9481 16.33 19.8366C16.2742 19.739 16.2045 19.7529 16.1487 19.8366C15.7723 20.4361 15.5213 21.1333 15.2703 21.7886C15.2006 21.9838 15.1309 22.1929 15.0612 22.402C14.7545 22.4299 14.4617 22.4718 14.1549 22.4996C14.2386 22.1929 14.3362 21.8862 14.4198 21.5794C14.5732 21.0357 14.7545 20.478 15.0891 20.0178C15.1588 19.9202 15.1727 19.7808 15.1309 19.6693C15.103 19.5856 15.0473 19.502 14.9636 19.5717C14.5872 19.9063 14.4198 20.464 14.2804 20.9381C14.1131 21.4679 13.9737 21.9977 13.8064 22.5275C13.4996 22.5554 13.1929 22.5833 12.8862 22.6112C12.9559 22.3463 13.0256 22.0814 13.0953 21.8304C13.2765 21.2169 13.5136 20.6453 13.7227 20.0457C13.7506 19.9481 13.7506 19.7808 13.6948 19.6972C13.6391 19.6135 13.5693 19.6275 13.5136 19.7251C13.2487 20.1991 13.0813 20.7568 12.928 21.2727C12.7886 21.7328 12.6631 22.1929 12.5655 22.653C12.2727 22.6809 11.9799 22.7088 11.6871 22.7227C11.7707 22.4718 11.8683 22.2347 11.9381 21.9838C12.0775 21.5097 12.203 21.0357 12.3145 20.5616C12.3842 20.2828 12.4539 20.0178 12.5097 19.739C12.5655 19.502 12.6212 19.2789 12.6212 19.0279C12.6212 18.9303 12.5236 18.6933 12.426 18.8746C12.3424 19.0419 12.3006 19.2231 12.2587 19.4044C12.203 19.6553 12.1332 19.9203 12.0775 20.1712C11.952 20.6732 11.8405 21.1751 11.6871 21.6631C11.5755 22.0256 11.4501 22.3881 11.3246 22.7367C11.1573 22.7506 10.9899 22.7646 10.8087 22.7785C10.8226 22.7506 10.8226 22.7088 10.8366 22.6809C10.9621 22.1371 11.0875 21.5934 11.1991 21.0496C11.3106 20.5477 11.464 20.0457 11.5058 19.5299C11.5058 19.4601 11.5198 19.3347 11.4501 19.2789C11.3943 19.2371 11.3385 19.251 11.3106 19.3207C11.1154 19.7808 11.0457 20.2967 10.9481 20.7708C10.8226 21.3145 10.7111 21.8583 10.5856 22.416C10.5577 22.5554 10.5298 22.6809 10.502 22.8203C10.3486 22.8343 10.1813 22.8482 10.0279 22.8482C9.95819 22.8482 9.90242 22.8482 9.83271 22.8622C9.83271 22.2905 9.94425 21.7189 10.0697 21.1751C10.1534 20.7847 10.251 20.3804 10.3486 19.99C10.4322 19.6414 10.5159 19.3068 10.5159 18.9443C10.5159 18.8188 10.3904 18.6375 10.3346 18.8467C10.2231 19.1673 10.1534 19.502 10.0697 19.8366C9.97213 20.2549 9.86059 20.6732 9.77694 21.0914C9.65145 21.6631 9.53991 22.2766 9.53991 22.8761C9.26106 22.89 8.99615 22.904 8.73124 22.9458C8.38267 23.0016 8.0341 23.0713 7.68554 23.1271C7.00235 23.2526 6.16579 23.4338 5.49654 23.1828C5.23163 23.0852 5.00854 22.8622 4.95277 22.5833C4.91094 22.3602 5.06431 22.1371 5.21768 21.9698C5.64991 21.4818 6.3331 21.1611 6.96052 21.0078C7.21149 20.9381 7.49034 20.8962 7.75525 20.9241C7.76919 21.0496 7.82496 21.1751 7.9365 21.1751C8.02016 21.1751 8.08987 21.1751 8.17353 21.1751C8.25718 21.1751 8.34084 21.189 8.41055 21.1611C8.56392 21.1193 8.60575 20.9241 8.60575 20.7847C8.60575 20.6732 8.59181 20.5337 8.50815 20.464C8.75912 20.2967 8.73124 19.4741 8.4245 19.502C8.39661 19.502 8.36873 19.502 8.34084 19.5159C8.4245 19.3765 8.41055 19.014 8.24324 18.9861C7.09994 18.8327 5.91482 19.1255 4.84123 19.488C3.73976 19.8645 2.65223 20.3664 1.69019 21.0217C0.769972 21.5934 -0.136302 22.4857 0.0170679 23.6429C0.156495 24.591 1.02094 25.1766 1.87144 25.4694C2.49886 25.6925 3.15417 25.7622 3.80947 25.8319C4.60421 25.9295 5.39894 26.0132 6.17973 26.0969C7.61582 26.2502 9.06586 26.4036 10.5159 26.4733C10.5298 26.6127 10.5577 26.7522 10.5856 26.8916C10.6135 26.9892 10.6832 27.0728 10.7669 26.9892C10.8505 26.9055 10.8366 26.7243 10.8226 26.6127C10.8087 26.5709 10.8087 26.5291 10.7948 26.4872C10.8505 26.4872 10.9063 26.4872 10.9481 26.5012C11.213 26.5151 11.464 26.5151 11.7289 26.5151C11.6174 27.031 11.4919 27.5329 11.3385 28.0488C11.3106 28.1604 11.2967 28.3556 11.3943 28.4532C11.4919 28.5508 11.5616 28.4392 11.5895 28.3416C11.7707 27.7421 11.9102 27.1286 12.0356 26.5151C12.2727 26.5151 12.5097 26.5012 12.7467 26.4872C12.7188 26.5988 12.7049 26.6964 12.677 26.8079C12.5097 27.6027 12.3563 28.4113 12.203 29.22C12.189 29.3176 12.189 29.5267 12.3006 29.5686C12.4121 29.6243 12.4679 29.4431 12.4818 29.3734C12.6491 28.4113 12.8443 27.4493 13.0535 26.5012C13.0953 26.5709 13.1511 26.6267 13.2347 26.6267C13.4578 26.6406 13.6809 26.6546 13.904 26.6546C13.7924 27.1983 13.6809 27.7281 13.5693 28.2719C13.416 29.0666 13.2626 29.8614 13.0953 30.6561C13.0813 30.7398 13.0953 30.9489 13.1929 30.9907C13.3044 31.0326 13.3463 30.8792 13.3602 30.7955C13.653 29.4152 13.904 28.0349 14.2107 26.6546C14.7545 26.6685 15.2982 26.6685 15.8281 26.6546C15.5074 27.5329 15.2006 28.4113 14.9078 29.2897C14.6429 30.0845 14.4059 30.8792 14.2107 31.6879C14.1828 31.7994 14.1689 31.9807 14.2665 32.0643C14.3501 32.148 14.4338 32.0504 14.4477 31.9667C14.9218 30.1542 15.5492 28.3974 16.1906 26.6406C16.4694 26.6267 16.7622 26.6127 17.0411 26.5848C17.0271 26.6127 17.0271 26.6406 17.0132 26.6685C16.6507 27.8257 16.33 28.9969 16.0511 30.1821C15.8978 30.8513 15.7583 31.5206 15.6189 32.1898C15.605 32.2874 15.6189 32.4965 15.7165 32.5523C15.8281 32.6081 15.8838 32.4268 15.8978 32.3432C16.2742 30.3912 16.7762 28.4532 17.3896 26.557C17.6824 26.5291 17.9752 26.5012 18.268 26.4594C18.031 27.031 17.8219 27.6166 17.6267 28.1883C17.1805 29.5268 16.8459 30.8931 16.5531 32.2595C16.3858 33.0124 16.2324 33.7653 16.079 34.5182C16.0651 34.6019 16.079 34.7692 16.1487 34.811C16.2185 34.8668 16.2882 34.7831 16.3021 34.7134C16.8598 32.0783 17.4036 29.3873 18.4632 26.8916C18.5329 26.7243 18.6026 26.5709 18.6863 26.4036C18.8676 26.3757 19.0488 26.3478 19.2301 26.3199C19.3137 26.306 19.3695 26.2363 19.4113 26.1526C19.5368 26.1526 19.6623 26.1387 19.7878 26.1387C19.7459 26.2363 19.6902 26.3199 19.6483 26.4036C19.3416 27.0031 19.0767 27.6166 18.8257 28.244C18.3238 29.5546 17.9195 30.921 17.6824 32.3013C17.5569 32.9845 17.4872 33.6677 17.4872 34.3649C17.4872 34.4485 17.5151 34.6437 17.6267 34.6437C17.7382 34.6437 17.7661 34.4346 17.7661 34.3649C17.7661 33.1379 18.031 31.897 18.3517 30.7119C18.7002 29.4431 19.1604 28.1883 19.7459 27.0171C19.8993 26.7103 20.0806 26.4036 20.2479 26.1108H20.2618C20.945 26.0829 21.6143 26.0411 22.2975 25.9993C22.1023 26.1945 21.9768 26.4454 21.8513 26.6824C21.7119 26.9334 21.5864 27.1983 21.4748 27.4632C21.2239 28.0349 21.0147 28.6205 20.8195 29.22C20.4152 30.4609 20.1085 31.7297 19.8017 32.9985C19.6344 33.6677 19.4671 34.337 19.2719 35.0062C19.244 35.1178 19.2301 35.313 19.3277 35.4106C19.4253 35.5082 19.495 35.3966 19.5229 35.299C20.22 32.9148 20.6243 30.4191 21.5864 28.1046C21.7119 27.8118 21.8513 27.5051 21.9907 27.2262C22.1441 26.9474 22.3253 26.6824 22.4508 26.3896C22.4927 26.292 22.5066 26.1666 22.4648 26.055C22.4508 26.0271 22.4369 25.9993 22.4229 25.9853C24.849 25.818 27.275 25.5531 29.6871 25.1348C31.2068 24.8699 32.7126 24.5213 34.2184 24.1867C35.7382 23.8521 37.2719 23.5872 38.7916 23.2386C39.5306 23.0713 40.2696 22.89 40.9946 22.6809C41.6778 22.4857 42.3331 22.2487 43.0163 22.0535C43.4764 21.9141 43.9365 21.7886 44.3966 21.6491C44.6197 21.6073 44.8427 21.5794 45.0519 21.5515C45.1355 21.5376 45.2053 21.4818 45.2331 21.3982C45.6514 21.2727 46.0558 21.1472 46.474 21.0078C47.4361 20.6732 48.3842 20.2549 49.2207 19.6693C49.8203 19.4741 50.2943 19.0279 50.5732 18.4563C50.6708 18.3447 50.7823 18.2332 50.8799 18.1216C50.9078 18.0938 50.9357 18.0659 50.9636 18.038C51.2424 17.801 51.4934 17.5361 51.7165 17.2572C51.8141 17.1596 51.9117 17.0481 51.9953 16.9365C52.6925 16.2115 53.2781 15.2216 52.9016 14.1898ZM7.95045 19.5299C7.78313 19.5438 7.60188 19.5717 7.43457 19.5856C7.43457 19.5577 7.42063 19.5438 7.40668 19.5159C7.58794 19.502 7.76919 19.5159 7.95045 19.5299ZM0.337749 23.6151C0.309864 23.5035 0.295921 23.378 0.309864 23.2665C0.309864 23.4338 0.337749 23.5872 0.39352 23.7545C0.365635 23.7127 0.351692 23.6569 0.337749 23.6151ZM3.8513 20.4361C4.43689 20.1852 5.05037 19.9621 5.66385 19.7948C5.63596 19.8087 5.59414 19.8366 5.58019 19.8645C5.52442 19.8784 5.46865 19.9063 5.41288 19.9342C4.91094 20.0736 4.42295 20.227 3.93496 20.4222C3.90707 20.4222 3.87919 20.4222 3.8513 20.4361ZM47.3385 16.588C47.3245 16.5461 47.3106 16.5182 47.2967 16.4904C47.3524 16.4625 47.4221 16.4346 47.4779 16.4067C47.6731 16.3091 47.8683 16.2115 48.0635 16.0721C47.8125 16.2394 47.5616 16.4067 47.3385 16.588ZM48.7467 15.11C48.7467 15.0264 48.7606 14.9427 48.7467 14.8591C48.7606 14.8591 48.7885 14.873 48.8025 14.873C48.7746 14.9567 48.7606 15.0264 48.7467 15.11Z" fill="black"/>
</svg>
