<svg xmlns="http://www.w3.org/2000/svg" viewBox="0 0 19.95 112.23"><defs><style>.cls-1{fill:#231f20;}.cls-2{fill:#fff;}.cls-3{fill:none;stroke:#231f20;stroke-miterlimit:10;}</style></defs><title>star 3</title><g id="Layer_2" data-name="Layer 2"><g id="Layer_1-2" data-name="Layer 1"><path class="cls-1" d="M14.11,53.86l0,0L14,54l.07-.1"/><path class="cls-1" d="M11.4,79.33c0-.26,0-.52,0-.78,0,0,0,0,0,0s0,0,0-.05c-.08-2.31-.18-4.62-.23-6.93a1.53,1.53,0,0,0,.13-.25c0-.08.06-.16.09-.24a1.44,1.44,0,0,0,0-.56c0-.16-.1-.41-.28-.44,0-.36,0-.73,0-1.09a1.54,1.54,0,0,0,.06-.43,1.37,1.37,0,0,0-.06-.33c0-1.46,0-2.92,0-4.37a1.14,1.14,0,0,0,0-.21c0-.88,0-1.77,0-2.65.09-6.3-.18-12.59-.1-18.89,0-3.14.23-6.29.29-9.43s.05-6.22,0-9.33c-.08-6.93-.3-13.86-.32-20.79l0,0a1.47,1.47,0,0,0,.21-.42,1.7,1.7,0,0,0,0-1A1.38,1.38,0,0,0,10.55.2a2.06,2.06,0,0,0-1-.2,1.1,1.1,0,0,0-.92.55,1.92,1.92,0,0,0-.17,1.12,2.85,2.85,0,0,0,.32,1,.33.33,0,0,0,.23.2c.52,2.26.19,4.72,0,7-.19,3-.09,6-.09,9,0,6.5,0,13,0,19.5q0,9.45,0,18.91a.55.55,0,0,0,0,.24Q9,67.29,9,77.1c0,3.53.12,7.08,0,10.6a50.54,50.54,0,0,0-.24,6.64l0,0a1.29,1.29,0,0,0,0,.54.78.78,0,0,0,.16.42l0,0c0,.26.1.52.16.77s.25.45.48.25.19-.7.13-1-.05-.26-.08-.39a5.36,5.36,0,0,0,.44-.4,2.29,2.29,0,0,0,.38-.51,1.89,1.89,0,0,0,.22-.93.72.72,0,0,0-.18-.53c-.13-.11-.25,0-.32.12L10,93l.07-.11-.12.2a3.16,3.16,0,0,1-.57.62h0c0-.25,0-.5,0-.76a.22.22,0,0,0,.19-.08,11.29,11.29,0,0,0,.77-.94c.16-.21.32-.43.46-.67,0,1.72-.12,3.43-.22,5.14,0,.2.07.7.35.7s.34-.51.35-.7c.35-5.68.35-11.39.18-17.08m-.64,5.1a.91.91,0,0,0-.14.13l-.19.22c-.13.15-.25.32-.36.48l-.38.56c0-.64,0-1.29,0-1.93a.23.23,0,0,0,.18-.08,6.26,6.26,0,0,0,.76-1l.12-.21c0,.61,0,1.22,0,1.83m0-3.61h0a2.22,2.22,0,0,0-.3.49c-.09.17-.17.33-.27.49l0,0-.07.1-.17.23-.2.23c0-.5,0-1,0-1.5l0,0a.22.22,0,0,0,.27-.07c.24-.25.49-.49.73-.75,0,.23,0,.46,0,.69m-1-12.63a4.93,4.93,0,0,1,.48-.45l.17-.14c0,.19,0,.39,0,.58s0,.2,0,.31l0,0a2.65,2.65,0,0,1-.46.53l-.26.18q0-.48,0-1l.08-.06m-.08-1.46c0-.38,0-.75,0-1.13.22-.18.45-.36.66-.55l.1-.1c0,.37,0,.75,0,1.12l-.19.16-.57.49m.12,3.88a2.78,2.78,0,0,0,.64-.51c0,.23,0,.47,0,.7a5,5,0,0,1-.58.59l-.13.11-.05.06c0-.31,0-.62,0-.93a.16.16,0,0,0,.12,0m.12,2.23a7.3,7.3,0,0,0,.57-.5c0,.37,0,.73,0,1.1l0,0-.15.15-.3.29-.36.34c0-.49,0-1,0-1.46.07.06.16.11.24,0m-.15,2.87c.2-.2.41-.39.62-.59l.18-.18c0,.35,0,.71,0,1.06l0,0-.26.32a6.09,6.09,0,0,1-.65.63q0-.61,0-1.22l.09-.06m.74-15.06a.29.29,0,0,0-.11,0l-.07.05a2.12,2.12,0,0,0-.2.19c-.09.1-.18.21-.26.31l-.17.18V60.15c.17-.19.32-.39.48-.59l.26-.3.09-.09q0,.74,0,1.47m-.29,1.78c.09-.1.18-.2.26-.3l0,0c0,.42,0,.85,0,1.28l-.18.19c-.15.15-.31.29-.47.43l-.13.11q0-.56,0-1.12a6.64,6.64,0,0,0,.53-.55M9.67,78.48a7.16,7.16,0,0,0,1-.92c0,.32,0,.64,0,1,0,.06-.12.17,0,0l-.08.11-.17.21c-.23.27-.49.5-.73.76,0-.38,0-.77,0-1.15h0m.44-77a1.8,1.8,0,0,1,.35.15,1.34,1.34,0,0,0-.09.47c0,6.29.19,12.58.29,18.86s0,12.59-.23,18.89c-.19,6,.1,12,.08,17.95h-.07c-.1,0-.15.07-.22.13l-.14.14-.27.3-.14.17v-.93l0,0a.51.51,0,0,0,.09-.18l0,.09a1.24,1.24,0,0,1,.11-.22l0,.08.07-.11,0,0a.33.33,0,0,0,.07-.12.51.51,0,0,0,0-.16v-.12a.6.6,0,0,0,0-.18.34.34,0,0,0,0-.1.33.33,0,0,0-.07-.12l-.05,0a.12.12,0,0,0-.12,0l-.08.06v-.21h0a.24.24,0,0,0,.18-.1L10,56l.12-.09.08-.06.11-.1,0,0a.67.67,0,0,0,.12-.25.87.87,0,0,0,0-.24,1,1,0,0,0,0-.26l0-.15a.64.64,0,0,0-.12-.23h0a.17.17,0,0,0-.12-.08H10l-.06,0,0,0-.12.08-.15.13V54.5a.41.41,0,0,0,.15-.18l.1-.17L10,54l-.07.11.16-.24.09-.14,0-.06a1.62,1.62,0,0,0,.07-.18,1,1,0,0,0,0-.27.78.78,0,0,0,0-.21.58.58,0,0,0-.06-.18.31.31,0,0,0-.12-.14.25.25,0,0,0-.14,0,.54.54,0,0,0-.15.05.85.85,0,0,0-.15.12V52.6a.48.48,0,0,0,.15-.16,3.24,3.24,0,0,0,.19-.36c0-.1.08-.2.12-.31l0-.1a1.7,1.7,0,0,0,.05-.42v.18c0-.08,0-.16,0-.24a1.36,1.36,0,0,0,0-.35l0-.12a.27.27,0,0,0-.1-.12.11.11,0,0,0-.08,0,.12.12,0,0,0-.12,0c-.06,0-.1.08-.13.13l0,.06c0-.36,0-.71,0-1.07l0-.07.07-.12c0-.07.06-.15.09-.23a1,1,0,0,0,0-.26V48.9a.72.72,0,0,0,0-.18.34.34,0,0,0,0-.11.35.35,0,0,0-.07-.12l-.06,0-.06,0h0q0-14.12,0-28.25c0-3.36-.13-6.75.08-10.1.17-2.8.57-5.77-.28-8.51a.72.72,0,0,0-.06-.14,1.65,1.65,0,0,1,.71,0m.66,88.34a.16.16,0,0,0-.1,0,1.21,1.21,0,0,0-.4.43l-.35.49c-.17.23-.37.46-.56.68,0-.4.06-.81.1-1.21a5,5,0,0,0,1-1.09l.33-.5c0,.39,0,.79,0,1.18m-.28-2.49-.35.54a6.29,6.29,0,0,1-.55.69c0-.22,0-.44,0-.66s0-.24,0-.35a.2.2,0,0,0,.11-.08c.23-.33.44-.66.67-1,.11-.16.23-.31.35-.47,0,.31,0,.62,0,.93a1.55,1.55,0,0,0-.29.38"/><polygon class="cls-2" points="7.97 100.38 9.98 93.89 11.98 100.38 18.48 100.38 13.22 104.39 15.01 110.7 9.93 106.78 4.72 110.88 6.73 104.39 1.48 100.38 7.97 100.38"/><polygon class="cls-3" points="9.98 93.89 11.98 100.38 18.48 100.38 13.22 104.39 15.23 110.88 9.98 106.87 4.72 110.88 6.73 104.39 1.48 100.38 7.97 100.38 9.98 93.89"/><path class="cls-1" d="M3.62,100.36a.72.72,0,0,0-.2.11l-.19.15a2.69,2.69,0,0,0-.33.34.1.1,0,0,0,0,.09s0,0,0,0a2.68,2.68,0,0,1,.33-.34l.18-.14.19-.14s0-.1,0-.09"/><path class="cls-1" d="M4.32,100.26l-.08.08a2,2,0,0,0-.21.22l-.56.57-.25.23a.09.09,0,0,0,0,.08s0,.06,0,0a6,6,0,0,0,.5-.48c.17-.17.35-.35.51-.53l.1-.13s0-.11,0-.08"/><path class="cls-1" d="M5.94,100.45a1.48,1.48,0,0,0-.4.24,3.77,3.77,0,0,0-.36.31c-.23.23-.45.47-.67.7a4.52,4.52,0,0,1-.39.37.09.09,0,0,0,0,.08s0,.06,0,0c.5-.4.87-.94,1.37-1.34a4.28,4.28,0,0,1,.45-.28s0-.13,0-.11"/><path class="cls-1" d="M5.08,100.48a.67.67,0,0,0-.22.13s0-.06,0-.05a.89.89,0,0,0-.28.17c-.11.09-.22.19-.32.29l-.63.64s0,.15,0,.11l.61-.63c.1-.1.21-.2.32-.29l.18-.14a4,4,0,0,0-.32.36,4.66,4.66,0,0,1-.64.74.09.09,0,0,0,0,.08s0,.06,0,0a4.52,4.52,0,0,0,.64-.72,1.92,1.92,0,0,1,.65-.61s0-.14,0-.12"/><path class="cls-1" d="M4.49,100.47s0,0,0,0-.16.18-.24.27l-.28.3a3.52,3.52,0,0,1-.6.5s0,.15,0,.12a3.57,3.57,0,0,0,.6-.5l.28-.3a2.79,2.79,0,0,0,.25-.29.1.1,0,0,0,0-.08"/><path class="cls-1" d="M3.76,100.37s-.06,0-.08.07l-.1.09-.24.2a2.59,2.59,0,0,0-.46.43.1.1,0,0,0,0,.09s0,0,0,0a2.61,2.61,0,0,1,.47-.43l.24-.19a.5.5,0,0,0,.17-.2s0-.08,0-.08"/><path class="cls-1" d="M2.91,100.48s0-.05,0,0a.89.89,0,0,0-.44.48.1.1,0,0,0,0,.09s0,0,0,0a.73.73,0,0,1,.16-.24,1.46,1.46,0,0,1,.24-.19.08.08,0,0,0,0-.07"/><path class="cls-1" d="M6.42,100.34a2.78,2.78,0,0,1-.66.79c-.27.24-.57.46-.85.69s-.29.24-.43.37,0,.15,0,.11c.51-.5,1.15-.86,1.62-1.4a2.43,2.43,0,0,0,.23-.31h0a.37.37,0,0,0,.09-.18s0-.12-.05-.06"/><path class="cls-1" d="M7.08,100.4s0,0,0,0-.33.32-.51.46l-.54.41a9.88,9.88,0,0,0-1.06.86,3.42,3.42,0,0,0-.48.58s0,.15,0,.09a8.56,8.56,0,0,1,2-1.81,5,5,0,0,0,.47-.41s0,0,0,0a1,1,0,0,1,0-.1.1.1,0,0,0,0-.09"/><path class="cls-1" d="M6.85,101.06a1.89,1.89,0,0,1-.63.74c-.29.24-.61.45-.91.67a3.78,3.78,0,0,0-.41.34s0,.15,0,.11a6.86,6.86,0,0,1,.83-.64,5.31,5.31,0,0,0,.87-.73l.15-.19s0,0,0,0a.75.75,0,0,0,.1-.23h0s0-.12-.06,0"/><path class="cls-1" d="M6.9,101.54a7.59,7.59,0,0,1-1.69,1.52s0,.15,0,.12a6.08,6.08,0,0,0,.9-.7,9.21,9.21,0,0,0,.71-.73h0l.06,0a.15.15,0,0,0,0-.09s0-.11,0-.07"/><path class="cls-1" d="M7.13,102a.66.66,0,0,0-.18.1l-.21.14-.45.33a3.59,3.59,0,0,0-.76.76.1.1,0,0,0,0,.09s0,0,0,0a3.56,3.56,0,0,1,.76-.76l.43-.32.21-.14a1,1,0,0,0,.18-.12s0-.11,0-.1"/><path class="cls-1" d="M7.41,102.27a4.88,4.88,0,0,0-.73.52c-.24.19-.47.38-.72.56,0,0,0,.15,0,.12.25-.18.48-.37.72-.56a7.56,7.56,0,0,1,.68-.48v0s0,.05,0,.06,0,0,0,0,0-.1,0-.14,0-.13,0-.11"/><path class="cls-1" d="M8.24,102.31a11.69,11.69,0,0,0-1,.64,5.69,5.69,0,0,0-.88.77s0,.15,0,.11a7.84,7.84,0,0,1,1.76-1.34h0a.08.08,0,0,0,0,.06s0,0,0,0l.09-.16s0-.13,0-.11"/><path class="cls-1" d="M8.78,102.46s0,0,0,0,0,0,0,0c-.18.1-.35.22-.52.34l-.53.38-1,.78s0,.15,0,.12c.58-.43,1.16-.88,1.76-1.28l.26-.16,0,0h0v0a.1.1,0,0,0,0-.11"/><path class="cls-1" d="M8.57,102.85c-.14.11-.28.24-.42.35l-.43.34c-.29.22-.59.43-.9.64,0,0,0,.15,0,.12.31-.21.61-.42.91-.64l.43-.34A5.06,5.06,0,0,0,8.6,103s0-.14,0-.11"/><path class="cls-1" d="M8.36,103.53a.14.14,0,0,0,0-.14s0,0,0,0v0c-.24.17-.49.33-.72.51a3.3,3.3,0,0,0-.64.61.1.1,0,0,0,0,.09s0,0,0,0a3.53,3.53,0,0,1,.75-.69l.42-.29.1-.07.07,0s0,0,0,0h0Z"/><path class="cls-1" d="M8.29,104a.41.41,0,0,0-.27.07,2.54,2.54,0,0,0-.34.22c-.25.18-.48.38-.7.58l-.28.25s0,.15,0,.11l.56-.49a4.49,4.49,0,0,1,.7-.52.9.9,0,0,1,.3-.11s0-.09,0-.1"/><path class="cls-1" d="M8.21,104.4H8.16a.57.57,0,0,0-.11.08l-.37.3-.9.75-.29.26s0,.15,0,.11c.21-.2.44-.38.66-.56l.84-.7.14-.11,0,0h0s0-.08,0-.09"/><path class="cls-1" d="M8.09,105a.35.35,0,0,0-.28.07,3.08,3.08,0,0,0-.39.29,11.31,11.31,0,0,0-.84.78l-.3.31s0,.14,0,.1c.2-.22.41-.42.62-.63a5.78,5.78,0,0,1,.83-.69.64.64,0,0,1,.32-.13s0-.09,0-.1"/><path class="cls-1" d="M7.55,105.88h0l-.18.15-.19.15-.37.29a5.16,5.16,0,0,0-.68.64s0,.14,0,.1a5.21,5.21,0,0,1,.69-.64l.36-.28c.1-.08.21-.16.31-.25h0s0,0,.06-.05a.11.11,0,0,0,0-.1"/><path class="cls-1" d="M6.84,107a.78.78,0,0,0-.49.17,1.7,1.7,0,0,0-.39.36.09.09,0,0,0,0,.08s0,0,0,0a1.56,1.56,0,0,1,.86-.55s0-.07,0-.08"/><path class="cls-1" d="M6.59,107.37a.3.3,0,0,0-.16.06l-.16.11a2.72,2.72,0,0,0-.27.27.08.08,0,0,0,0,.07s0,0,0,0a2.67,2.67,0,0,1,.27-.26l.15-.11.08,0,.08,0s0-.07,0-.07"/><path class="cls-1" d="M6.38,107.77a.39.39,0,0,0-.14.06l-.13.09a2.63,2.63,0,0,0-.24.22.09.09,0,0,0,0,.08s0,0,0,0a2.51,2.51,0,0,1,.23-.21l.12-.09.14-.08a.06.06,0,0,0,0,0s0,0,0,0"/><path class="cls-1" d="M5.86,108.38s0,0,0,0a.48.48,0,0,0-.12.11.91.91,0,0,0-.1.14.1.1,0,0,0,0,.09l0,0,0,0,0,0h0v0l0-.06.11-.12a.08.08,0,0,0,0-.07"/><path class="cls-1" d="M8.56,107.58s0,0,0,0h0l0,0h0v0c0-.09,0-.18-.07-.26s0,0,0,0a.1.1,0,0,0,0,.09c0,.08,0,.15.06.23l0,.11a.12.12,0,0,0,.05.06s0,0,.06,0a.08.08,0,0,0,0-.06"/><path class="cls-1" d="M8.77,107.45l-.05-.08-.06-.11a1.45,1.45,0,0,0-.14-.25s0,0,0,0a.1.1,0,0,0,0,.09,1.41,1.41,0,0,1,.14.24l.06.11s0,.06.07.07,0,0,0,0a.09.09,0,0,0,0-.06"/><path class="cls-1" d="M8.93,107.32s0-.09-.07-.14L8.8,107c0-.1-.07-.2-.1-.29s0,0,0,0a.1.1,0,0,0,0,.09c0,.11.07.21.11.32l.07.15a.42.42,0,0,0,.09.13s0,0,0,0a.09.09,0,0,0,0-.07"/><path class="cls-1" d="M9.18,107.08c0-.05-.06-.1-.08-.15a1.24,1.24,0,0,1-.06-.17c0-.12-.06-.23-.1-.35s0,0,0,0a.1.1,0,0,0,0,.09c0,.12.07.25.11.37a1.36,1.36,0,0,0,.07.18l0,.08s0,.05.06.06,0-.07,0-.08"/><path class="cls-1" d="M9.42,106.81a.31.31,0,0,1-.07-.13,2,2,0,0,1-.07-.25,2.29,2.29,0,0,1-.08-.49s0-.06,0-.06,0,0,0,.06a2.51,2.51,0,0,0,.09.57,1.85,1.85,0,0,0,.09.28s0,.13.1.12,0-.08,0-.1"/><path class="cls-1" d="M9.65,106.77a0,0,0,0,0,0,0c0-.16-.08-.32-.11-.49a3.48,3.48,0,0,1-.08-.63s0-.06,0-.06,0,0,0,.06a3.62,3.62,0,0,0,.08.66c0,.22.08.44.14.65,0,.06.06,0,.06,0v-.13"/><path class="cls-1" d="M9.95,106.71a.65.65,0,0,1,0-.1s0,0,0,0a4.68,4.68,0,0,1-.12-.65c0-.26,0-.52-.1-.78,0,0,0-.05,0,0s0,.06,0,.08c0,.27.07.54.1.81a3.16,3.16,0,0,0,.16.78,0,0,0,0,0,0,0,.09.09,0,0,0,0-.07"/><path class="cls-1" d="M10.2,106.35c0-.16,0-.31,0-.47,0-.32-.07-.63-.1-.95,0,0,0-.05,0,0s0,.06,0,.08c0,.3.06.61.09.91,0,.15,0,.3,0,.46s0,.27,0,.4,0,.08,0,0a1.68,1.68,0,0,0,0-.41"/><path class="cls-1" d="M10.55,105.06s0,0,0,0a4.1,4.1,0,0,0-.07.91c0,.15,0,.3,0,.46s0,.13,0,.2a1.25,1.25,0,0,0,0,.19c0,.05,0,.05.06,0a.86.86,0,0,0,0-.17c0-.07,0-.13,0-.2s0-.29,0-.44a3.91,3.91,0,0,1,.06-.88s0-.07,0-.09"/><path class="cls-1" d="M10.8,105.76c-.08.4,0,.81-.09,1.22,0,0,0,0,0,0s0,.13,0,.2,0,.1.06,0c.13-.47,0-1,.13-1.46,0-.06,0-.12-.06,0"/><path class="cls-1" d="M11.13,106.09s0,0,0,0c0,.21,0,.41-.05.62l0,.3s0,0,0,.06,0,0,0,0,0,0,0,0,0,.06,0,0,0,0,0,0,0,0,0,0h0v0a.88.88,0,0,0,0-.1l0-.3c0-.2,0-.41.05-.61,0,0,0-.07,0-.08"/><path class="cls-1" d="M11.35,106.64a.1.1,0,0,0,0-.09s0,0,0,0a3.48,3.48,0,0,0-.09,1s0,.1.05,0a.59.59,0,0,0,0-.13.08.08,0,0,0,0-.07h0c0-.1,0-.2,0-.3a2.85,2.85,0,0,1,.07-.45"/><path class="cls-1" d="M11.69,107.27a.1.1,0,0,0,0-.09s0,0,0,0a1.53,1.53,0,0,0,0,.33,2.1,2.1,0,0,0,0,.33s0,0,0,0,0,0,0-.06,0-.2,0-.3a1.27,1.27,0,0,1,0-.28"/><path class="cls-1" d="M11.78,107s0,.06,0,.06,0-.06,0-.06"/><path class="cls-1" d="M11.93,107.35s0,0,0,0a1.9,1.9,0,0,0,0,.32c0,.12,0,.24,0,.35s0,.05,0,.08a.08.08,0,0,0,0,0s0,0,0,0a.16.16,0,0,0,0-.08c0-.05,0-.1,0-.15s0-.13,0-.19v-.31h0a.1.1,0,0,0,0-.08"/><path class="cls-1" d="M12.24,107.59s0,0,0,.06V108q0,.09,0,.18a.45.45,0,0,0,0,.13s0,0,0,0a.44.44,0,0,0,0-.13c0-.06,0-.12,0-.18v-.38s0-.06,0-.06"/><path class="cls-1" d="M12.41,107.46s0,.06,0,.06,0-.06,0-.06"/><path class="cls-1" d="M12.51,107.85s0,0,0,0a1.92,1.92,0,0,0,0,.44q0,.11,0,.21a.56.56,0,0,0,0,.15s0,0,0,0a.48.48,0,0,0,0-.14c0-.07,0-.13,0-.2a1.7,1.7,0,0,1,0-.4.1.1,0,0,0,0-.09"/><path class="cls-1" d="M12.8,107.56s0,0,0,0a2.61,2.61,0,0,0,0,.65,1.41,1.41,0,0,1,0,.56s0,.1,0,.07a.36.36,0,0,0,.07-.22,2.68,2.68,0,0,0,0-.32,2.79,2.79,0,0,1,0-.67s0-.07,0-.09"/><path class="cls-1" d="M13.17,107.38s0,0,0,0a6.22,6.22,0,0,0-.07.82c0,.13,0,.27,0,.4a2.49,2.49,0,0,0,0,.34s0,0,0,0a2.74,2.74,0,0,0,0-.33c0-.13,0-.27,0-.4a6.07,6.07,0,0,1,.07-.81s0-.07,0-.08"/><path class="cls-1" d="M13.5,107.71s0,0,0,0a6.42,6.42,0,0,0-.08.75l0,.37c0,.1,0,.21,0,.31s0,.08,0,0a1.58,1.58,0,0,0,0-.3l0-.38a6.32,6.32,0,0,1,.08-.75s0-.07,0-.08"/><path class="cls-1" d="M13.76,108.47s0,0,0,0a5.06,5.06,0,0,0,0,1s0,.05,0,.07,0,0,0,0a.1.1,0,0,0,0,0s0,0,.05,0,0-.1,0-.15,0-.12,0-.19a3,3,0,0,1,0-.74s0-.07,0-.09"/><path class="cls-1" d="M14,109.81h0v-.06h0v-.06c0-.13,0-.25,0-.38s0-.11,0-.16,0-.06,0-.06,0,0,0,.06,0,.25,0,.37,0,.13,0,.2a.4.4,0,0,0,0,.16s.05.06.08,0,0-.11,0-.09"/><path class="cls-1" d="M14.29,110.06h0v0h0v0h0s0-.06,0-.09,0-.23,0-.34,0-.06,0-.06,0,0,0,.06,0,.25,0,.38a.79.79,0,0,0,0,.18.11.11,0,0,0,0,.06h0s0-.08,0-.1"/><polyline class="cls-1" points="14.25 110.14 14.24 110.14 14.25 110.14"/><path class="cls-1" d="M14.56,110.27c0-.05,0-.1,0-.15a3,3,0,0,0-.06-.33s0,0,0,0a.1.1,0,0,0,0,.09s0,.08,0,.13l0,.17,0,.15v.08h0s0,0,0,0a.2.2,0,0,0,0-.13"/><path class="cls-1" d="M14.51,110.38h0"/><path class="cls-1" d="M15.09,111l-.05-.15,0-.14a1.56,1.56,0,0,1,0-.3s0-.06,0-.06,0,0,0,.06,0,.09,0,.14v0h0v0h0v-.08c0-.08,0-.17,0-.25s0-.06,0,0,0,.06,0,.08,0,.2.06.29a.34.34,0,0,0,0,.11.08.08,0,0,0,.05,0s0,0,0,0,0,.1,0,.16,0,.11,0,.16a.72.72,0,0,0,.06.16s0,0,0,0a.1.1,0,0,0,0-.07"/><path class="cls-1" d="M13.82,100.51s0,0,0,0a3.31,3.31,0,0,1-.18.46c-.07.15-.15.29-.21.45a.11.11,0,0,0,0,.08s0,0,0,0h0v0l0,0c.07-.13.13-.26.19-.39a3.46,3.46,0,0,0,.18-.47.1.1,0,0,0,0-.09"/><path class="cls-1" d="M14.14,100.54s0,0,0,0a4.22,4.22,0,0,0-.28.49c-.07.15-.15.3-.22.45a.26.26,0,0,0,0,.05.14.14,0,0,0,0,.09s0,0,0,0,.16-.33.24-.5a4.13,4.13,0,0,1,.28-.48.1.1,0,0,0,0-.09"/><path class="cls-1" d="M14.41,100.58s0,0,0,0c-.23.54-.59,1-.78,1.58,0,0,0,.14.06.06a1.63,1.63,0,0,1,.09-.17.08.08,0,0,0,0-.06h0c.2-.45.48-.87.68-1.33a.11.11,0,0,0,0-.09"/><path class="cls-1" d="M14.75,100.55s0,0,0,0c-.09.21-.17.43-.26.65s-.19.42-.29.63c0,0,0,.14,0,.1a.21.21,0,0,0,.06-.1,5,5,0,0,0,.24-.54c.09-.22.17-.43.26-.65a.11.11,0,0,0,0-.09"/><path class="cls-1" d="M14.95,100.66s0,0,0,0l-.19.43c-.06.14-.14.28-.19.42s0,.12,0,.08a.17.17,0,0,0,0-.08l.16-.34.19-.42a.11.11,0,0,0,0-.09"/><path class="cls-1" d="M15.22,100.57a1.06,1.06,0,0,0-.22.35l-.08.2c0,.06-.05.13-.07.19h0a.09.09,0,0,0,0,.07s0,0,0,0v0l0,0a.07.07,0,0,0,0,0l0-.06L15,101a1,1,0,0,1,.2-.33s0-.15,0-.11"/><path class="cls-1" d="M15.39,100.65s0,0,0,0a5.92,5.92,0,0,1-.27.57.1.1,0,0,0,0,.09s0,0,0,0a1.31,1.31,0,0,1,.07-.12v0a4,4,0,0,0,.2-.46.1.1,0,0,0,0-.09"/><path class="cls-1" d="M15.62,100.69s0,0,0,0l-.09.17-.05.11,0,0v0h0a.12.12,0,0,0,0,.06s0,.05,0,0l0,0h0l0,0,.12-.23,0-.09a.11.11,0,0,0,0-.09"/><path class="cls-1" d="M15.81,100.57s0,0,0,0l-.07.22,0,.11h0v0l0,0h0v0h0v0s0,.09,0,.07a.14.14,0,0,0,0,0h0l0-.09.11-.33a.1.1,0,0,0,0-.09"/><path class="cls-1" d="M16.1,100.52s0,0,0,0-.05.14-.07.21a.39.39,0,0,0,0,.11s0,.07,0,.08,0,0,0,0a.07.07,0,0,0,0,0h0l0-.08,0-.09,0,0h0v0a.11.11,0,0,0,0-.09"/><path class="cls-1" d="M16.26,100.58l0,0,0,0,0,.09,0,.08a.2.2,0,0,0,0,.1s0,0,0,0,0,0,0,0a.09.09,0,0,0,0,0v-.07h0l0-.07a.11.11,0,0,0,0-.09"/><path class="cls-1" d="M16.54,100.52l0,0,0,0a.46.46,0,0,0,0,.17.42.42,0,0,0,0,.1.13.13,0,0,0,0,.09s0,0,0,0a.07.07,0,0,0,0,0,.33.33,0,0,0,0-.05s0,0,0,0h0s0,0,0,0h0v0h0v0h0v0a.11.11,0,0,0,0-.09"/><path class="cls-1" d="M16.71,100.56h0a.29.29,0,0,0,0,.18s0,0,0,0,0,0,0,0,0,0,0,0h0v0h0v0a.07.07,0,0,0,0,0,.07.07,0,0,0,0,0"/><path class="cls-1" d="M13.41,100.63s0,0,0,0a3.92,3.92,0,0,1-.35.73v0s0-.1,0-.06a.65.65,0,0,0-.07.2s0,.11,0,.08a1.06,1.06,0,0,0,.27-.4c.07-.15.12-.31.19-.45a.11.11,0,0,0,0-.09"/><path class="cls-1" d="M13.1,100.51a4.44,4.44,0,0,1-.34.73,4.63,4.63,0,0,1-.4.59h0s0-.1,0,0a.76.76,0,0,0,0,.17s0,.1,0,.07a1.88,1.88,0,0,0,.25-.31c.08-.12.16-.25.23-.37a4.61,4.61,0,0,0,.35-.76s0-.14-.06-.06"/><path class="cls-1" d="M12.82,100.6s0,0,0,0a9.51,9.51,0,0,0-.49.84c-.08.14-.16.28-.24.42l-.14.21-.06.08s0-.07,0,0a1.16,1.16,0,0,0-.06.16s0,.09,0,.07a.86.86,0,0,0,.15-.18l.12-.18c.09-.14.17-.28.25-.43a9.58,9.58,0,0,1,.49-.86.08.08,0,0,0,0-.07"/><path class="cls-1" d="M12.41,100.45c-.17.26-.32.53-.46.81l-.43.79h0l0,0a.08.08,0,0,0,0,.08c0,.06.08,0,.09-.05l.12-.22.24-.46c.16-.3.32-.61.51-.9,0,0,0-.12,0-.07"/><path class="cls-1" d="M12,100.5s0,0,0,0c-.15.32-.34.62-.52.92a5.79,5.79,0,0,0-.42.79l0,0a.56.56,0,0,0,0,.14s0,.11,0,.05a7.81,7.81,0,0,1,.47-.93c.18-.3.36-.6.51-.91a.08.08,0,0,0,0-.07"/><path class="cls-1" d="M11.83,100.32s0,0,0,0c-.29.4-.45.87-.76,1.26,0,0,0,0,0,0a.23.23,0,0,1,0,.09s0,.12,0,.08a2.61,2.61,0,0,0,.43-.65,6.15,6.15,0,0,1,.4-.7.08.08,0,0,0,0-.07"/><path class="cls-1" d="M11.16,101.09s0,0,0,0"/><path class="cls-1" d="M11.75,100s0,0,0,0l-.31.42a2.26,2.26,0,0,0-.28.49.24.24,0,0,0,0,.21s0-.05,0-.07h0s0,0,0,0v0a.67.67,0,0,1,0-.12,2.68,2.68,0,0,1,.17-.29c.11-.18.24-.35.36-.51a.08.08,0,0,0,0-.07"/><path class="cls-1" d="M11.5,99.77s0,0,0,0a6.07,6.07,0,0,1-.35.71,1.57,1.57,0,0,1-.47.56v0s0-.1,0-.05a.39.39,0,0,0,0,.17s0,.06,0,.05a.7.7,0,0,0,.28-.22,2.48,2.48,0,0,0,.25-.36,6,6,0,0,0,.36-.75.09.09,0,0,0,0-.08"/><path class="cls-1" d="M11.46,99.31a2.64,2.64,0,0,0-.39.57,4.78,4.78,0,0,1-.32.51s0,0,0,0a.39.39,0,0,0-.05.11s0,.11,0,.08a2.37,2.37,0,0,0,.38-.58,2.67,2.67,0,0,1,.39-.59s0-.13,0-.1"/><path class="cls-1" d="M11.27,99s0,0,0,0c-.14.27-.22.57-.39.83,0,0,0,0,0,0l-.06.13s0,.11,0,.08a1.55,1.55,0,0,0,.26-.45c.07-.17.13-.34.22-.5a.08.08,0,0,0,0-.07"/><path class="cls-1" d="M11.27,98.78s0,0,0,0a2.38,2.38,0,0,0-.26.36l-.11.19,0,.07h0v0l0,.09h0a.08.08,0,0,0,0,.06s0,0,0,0h0a1.85,1.85,0,0,0,.1-.17l.11-.2a2.36,2.36,0,0,1,.26-.37.07.07,0,0,0,0-.07"/><path class="cls-1" d="M11.16,98.45a1.14,1.14,0,0,0-.19.28l-.08.15v0h0s0,0,0,0a.63.63,0,0,0-.05.15s0,.08,0,.05a.72.72,0,0,0,.09-.14l.08-.15a1.11,1.11,0,0,1,.19-.27s0-.12,0-.09"/><path class="cls-1" d="M11.18,98s0,0,0,0a2,2,0,0,1-.17.34,1.18,1.18,0,0,1-.18.24v0a.05.05,0,0,0,0,0s0,0,0,0l0,.07a.26.26,0,0,0,0,.08s0,.06,0,0a.39.39,0,0,0,.13-.11,1.53,1.53,0,0,0,.12-.18,2,2,0,0,0,.18-.37.07.07,0,0,0,0-.06"/><path class="cls-1" d="M11,97.85s0,0,0,0-.13.17-.19.25a.5.5,0,0,0-.1.3s0,0,0,0a1.07,1.07,0,0,1,0-.13l.07-.12.17-.23a.08.08,0,0,0,0-.07"/><path class="cls-1" d="M10.83,97.58l0,0,0,0-.07.14,0,0h0l0,0h0s0,0,0,0h0s0,0,0,0a.07.07,0,0,0,0,.05s0,.05.05.05a.07.07,0,0,0,.06,0,.54.54,0,0,0,.09-.15l0-.08a.1.1,0,0,0,0-.09"/><path class="cls-1" d="M10.83,97.26s0,0,0,0l-.13.13-.06.07a.7.7,0,0,1,0-.11.06.06,0,0,0,0,0h0l0,0,.06-.12a.09.09,0,0,0,0-.08l0,0,0,0-.06.12,0,.06,0,.07a.09.09,0,0,0,0,.06s0,0,0,0v0l0,.08v.08h0v0h0v0a.09.09,0,0,0,0,.06s0,0,0,0l.12-.14.13-.13a.07.07,0,0,0,0,0,.11.11,0,0,0,0,0"/></g></g></svg>