<svg xmlns="http://www.w3.org/2000/svg" viewBox="0 0 19.95 138.8"><defs><style>.cls-1{fill:#231f20;}.cls-2{fill:#fff;}.cls-3{fill:none;stroke:#231f20;stroke-miterlimit:10;}</style></defs><title>star 1</title><g id="Layer_2" data-name="Layer 2"><g id="Layer_1-2" data-name="Layer 1"><path class="cls-1" d="M10,77l0,0h0l0,0"/><path class="cls-1" d="M12.68,38.41c0-2,0-3.9,0-5.85s-.08-4,0-6c.25-4.25,1.12-8.47,1-12.73C13.64,10,12.49,6,13.66,2.22a1.05,1.05,0,0,0-.12-1h0a1.24,1.24,0,0,0-.29-.62,1.81,1.81,0,0,0-.76-.47,3,3,0,0,0-2.1,0,1.8,1.8,0,0,0-.91.86,1.17,1.17,0,0,0,0,1l0,0a1.58,1.58,0,0,0,0,.49,36.67,36.67,0,0,1,1.11,10.09c0,3.6-.22,7.19-.36,10.78-.15,3.87-.1,7.75-.16,11.63-.06,4.36-.17,8.72-.23,13.08-.13,8.77,0,17.53-.1,26.3s-.21,17.44-.56,26.15c-.17,4.32-.44,8.63-.45,13,0,.62,0,1.23,0,1.85,0,0,0,.05,0,.08,0,2.31,0,4.62,0,6.93v.51c0,.06,0,.11,0,.17a1.2,1.2,0,0,0,.12.51.27.27,0,0,0,.23.17c.11,0,.18-.09.24-.2a1.25,1.25,0,0,0,.11-.49c0-.06,0-.11,0-.17v0c0-.78,0-1.55,0-2.33a.22.22,0,0,0,.16-.08,12.87,12.87,0,0,0,.91-1.1l.43-.54c0,.43,0,.87,0,1.3l-.34.51-.23.35,0,0,0,.07-.1.15a6.24,6.24,0,0,1-.46.6.89.89,0,0,0-.1.79c.06.17.22.41.4.21a8.67,8.67,0,0,0,.89-1.26c0,.08,0,.17,0,.25,0,.7.59.71.59,0,0-.4,0-.8,0-1.2l.21-.31a.77.77,0,0,0,.09-.65c0-.15-.15-.28-.29-.19,0-.49,0-1,0-1.47a.93.93,0,0,0,0-.44l0-.08q0-3.22.09-6.43l0-.06a.86.86,0,0,0,0-.52c0-.57,0-1.13,0-1.7a2.11,2.11,0,0,0,.19-.22l0-.07h0l0,0s.12-.11,0,0a.61.61,0,0,0,.19-.49,1.05,1.05,0,0,0,0-.26c0-.06-.08-.21-.15-.23a.4.4,0,0,0-.25,0h0q.05-2.54.09-5.08a2.58,2.58,0,0,0,.12-.85,1.05,1.05,0,0,0-.1-.4c0-.47,0-.93,0-1.4a.79.79,0,0,0,0-.08c0-.64,0-1.29,0-1.94,0-1.38,0-2.75.06-4.13a1.42,1.42,0,0,0,.15-.14.91.91,0,0,0,.22-.49.84.84,0,0,0-.07-.49.31.31,0,0,0-.25-.19h0c0-.47,0-.94,0-1.41a1.48,1.48,0,0,0,.28-.5.94.94,0,0,0,0-.47c0-.09-.06-.27-.17-.3h-.07c.06-1.65.12-3.31.2-5a2,2,0,0,0,.09-.36,1,1,0,0,0-.05-.46c0-.24,0-.49,0-.73l.08-.09a1.76,1.76,0,0,0,.47-.73,1.12,1.12,0,0,0,0-.5c0-.11-.07-.27-.18-.32a.31.31,0,0,0-.31,0c0-.3,0-.6,0-.89l.2-.2a1.53,1.53,0,0,0,.4-.87,1.13,1.13,0,0,0,0-.38.57.57,0,0,0-.1-.19l-.06-.05h-.19a.34.34,0,0,0-.13.08c0-.29,0-.58,0-.87l.05-.05.09-.08s0,0,0,0l.08-.08a.86.86,0,0,0,.19-.28c.1-.26.1-.83-.26-.9,0,0-.06,0-.09,0,0-.37,0-.73.05-1.1l.07-.05a.8.8,0,0,0,0-.81l-.06-.08c0-.24,0-.48,0-.73.17-4,.35-8,.4-12s-.08-7.79-.24-11.69-.22-7.89-.25-11.84M11,117.54a5.21,5.21,0,0,0-.75.77c-.24.3-.49.61-.75.9,0-.12,0-.23,0-.35a.14.14,0,0,0,.11-.06,17.8,17.8,0,0,1,1.4-1.73c0,.15,0,.31,0,.46m0-1.44a9.89,9.89,0,0,0-1.52,1.68c0-.18,0-.37,0-.55a.2.2,0,0,0,.06.06.15.15,0,0,0,.19,0q.62-.82,1.27-1.61c0,.15,0,.31,0,.46m0-1.41a.17.17,0,0,0-.09,0,13.1,13.1,0,0,0-1.44,1.64c0-.26,0-.52,0-.79.24-.28.5-.55.76-.82a4.6,4.6,0,0,0,.78-1c0,.32,0,.64,0,1m0-2a.18.18,0,0,0-.15.11,3.36,3.36,0,0,1-.4.55c-.17.19-.35.37-.54.55l-.44.44c0-.22,0-.44,0-.66a11,11,0,0,1,1-1.25l.55-.59c0,.28,0,.56,0,.85m0-2.11-.28.25c-.2.19-.39.38-.58.58s-.46.52-.67.8c0-.29,0-.58,0-.88a16.46,16.46,0,0,1,1.53-1.9c0,.38,0,.76,0,1.14m0-2.76-.25.26c-.42.45-.82.93-1.2,1.42l-.07.09c0-.39,0-.77,0-1.16a.54.54,0,0,0,.1-.14l.1-.17,0-.07,0,0,0,0,0-.06.11-.15c.14-.19.3-.38.46-.55l.48-.51.13-.13c0,.42,0,.84,0,1.26m0-2.81a5.48,5.48,0,0,0-.5.47c-.17.17-.34.35-.5.53a7.67,7.67,0,0,0-.49.61c0-.33,0-.65,0-1a14.86,14.86,0,0,0,1.33-1.71l.14-.23,0,1.32m.05-3.28,0,.15-.07.18a6.43,6.43,0,0,1-.5,1,10.67,10.67,0,0,1-.84,1.15c0-.18,0-.35,0-.52s0-.44,0-.65a7.7,7.7,0,0,1,.91-1.49l.5-.67c0,.29,0,.58,0,.88m0-2.14c-.3.34-.58.71-.84,1.07s-.37.51-.53.78c0-.36,0-.72,0-1.08.1-.17.19-.33.29-.47s.31-.44.47-.65.4-.5.58-.76c0,.37,0,.74,0,1.11m0-2.39a3,3,0,0,0-.41.42l-.51.63-.38.53c0-.41,0-.83,0-1.24l0,0a9.22,9.22,0,0,1,.75-.94l.4-.45.08-.09c0,.39,0,.78,0,1.17m0-2.46s0,0,0,.07l-.1,0A1.49,1.49,0,0,0,11,95a4.89,4.89,0,0,0-.49.45c-.15.17-.29.35-.43.53,0-.32,0-.64,0-1a.3.3,0,0,0,.14.15.21.21,0,0,0,.26-.07c.27-.31.54-.62.82-.93,0,.19,0,.38,0,.56m0-2.07-.42.41c-.27.28-.51.57-.77.86l0,.05c0-.57,0-1.14,0-1.71,0,0,0,0,.06.06a.23.23,0,0,0,.27-.07l.86-.79c0,.4,0,.79,0,1.19m.07-2.74-.35.3-.84.77c0-.36,0-.73,0-1.09a.22.22,0,0,0,.26-.07l.94-.94c0,.34,0,.68,0,1m.08-2.55h0a.48.48,0,0,0-.15.11c-.18.17-.36.35-.54.53l-.49.49c0-.65,0-1.29,0-1.94,0,0,0,0,.06.06a.23.23,0,0,0,.27-.07c.3-.28.62-.57.91-.88,0,.57,0,1.14-.06,1.7m.33-7.73-.24.25c-.32.31-.66.6-1,.89a.78.78,0,0,0-.16.41,1.25,1.25,0,0,0,0,.53c0,.11.09.27.2.31A.23.23,0,0,0,11,82l.82-.72q0,.44,0,.87a8.92,8.92,0,0,1-.76.76l-.14.11a.58.58,0,0,0-.21.32,1.28,1.28,0,0,0,0,.54.78.78,0,0,0,.16.42c.07.07.18.14.27.07a6.15,6.15,0,0,0,.64-.57V84l0,.07a5,5,0,0,1-.39.46c-.27.28-.56.54-.84.81q0-2.73.07-5.45a.2.2,0,0,0,.14,0A3.28,3.28,0,0,0,11.71,79l.19-.21c0,.29,0,.58,0,.87M12,77.17l-.43.49a8.14,8.14,0,0,1-.58.62l-.07.07,0,0-.15.11a1.43,1.43,0,0,1-.26.14c0-.44,0-.88,0-1.31v0a.2.2,0,0,0,.17.09.33.33,0,0,0,.25-.2L11,77h0l0,0h0l0,0v0l.23-.32a4.1,4.1,0,0,1,.53-.56l.27-.19L12,77.17m.28-54A113.53,113.53,0,0,0,12,35c0,4,0,7.94.14,11.9s.35,7.9.39,11.86-.07,8-.24,12c0,1.24-.11,2.48-.17,3.72a1.36,1.36,0,0,0-.37.17,3.77,3.77,0,0,0-.74.68,5.17,5.17,0,0,0-.52.76c0-.35,0-.7,0-1.06h0c.11,0,.16-.09.22-.18l0,0c.1-.15.21-.29.31-.43s.23-.3.35-.45a.64.64,0,0,0,.12-.32,1.09,1.09,0,0,0,0-.35.53.53,0,0,0-.11-.26c-.05-.05-.13-.1-.21-.05a2.66,2.66,0,0,0-.47.39,1.84,1.84,0,0,0-.19.23c0-.39,0-.78,0-1.17l.05.13a.4.4,0,0,0,.15.18l.09,0a.24.24,0,0,0,.18-.1c.1-.1.2-.19.29-.3l.14-.16a1.83,1.83,0,0,0,.12-.19l.06-.1,0-.12a.79.79,0,0,0,0-.23,1,1,0,0,0,0-.39.67.67,0,0,0-.11-.22.19.19,0,0,0-.23-.06l-.08,0,0,0-.11.08-.15.13c-.1.09-.2.18-.29.28a.5.5,0,0,0-.1.18.71.71,0,0,0,0,.08c0-.39,0-.78,0-1.16a.55.55,0,0,0,.11-.14,4.41,4.41,0,0,0,.23-.45c.05-.12.1-.23.14-.35a1.9,1.9,0,0,0,.09-.39,1,1,0,0,0-.11-.62.17.17,0,0,0-.07-.08.1.1,0,0,0-.08,0,.08.08,0,0,0-.08,0,.16.16,0,0,0-.11.07l-.06.07a.75.75,0,0,0-.07.12V67.3l0,0a2.9,2.9,0,0,0,.42-.58,2.49,2.49,0,0,0,.13-.27,1.81,1.81,0,0,0,.13-.42c0-.06,0-.11,0-.17a1.47,1.47,0,0,0,0-.41.62.62,0,0,0-.13-.3.26.26,0,0,0-.16-.09c-.09,0-.16.09-.2.16v0l0,0,0,0,0,.06c0,.07-.06.14-.08.21l.06-.14c0,.07-.07.13-.1.2,0-4.92,0-9.83.07-14.74,0-4.4.14-8.81.22-13.21.07-4.11,0-8.22.14-12.32.19-7,1.09-14.2-.23-21.15-.15-.78-.33-1.56-.55-2.33l0-.05,0,0h0l.08-.06.18-.11.18-.08.1,0h.06a2.63,2.63,0,0,1,.45-.07,3.11,3.11,0,0,1,.89.07l.07,0,.06,0,.19.07a1.88,1.88,0,0,1,.33.17l.07.05h0l.08.1,0,0c-.87,3.21-.33,6.6,0,9.85.33,3.83-.27,7.61-.65,11.41"/><polygon class="cls-2" points="7.97 126.95 9.98 120.46 11.98 126.95 18.48 126.95 13.22 130.96 15.01 137.27 9.93 133.35 4.72 137.45 6.73 130.96 1.48 126.95 7.97 126.95"/><polygon class="cls-3" points="9.98 120.46 11.98 126.95 18.48 126.95 13.22 130.96 15.23 137.45 9.98 133.44 4.72 137.45 6.73 130.96 1.48 126.95 7.97 126.95 9.98 120.46"/><path class="cls-1" d="M3.62,126.93a.72.72,0,0,0-.2.11l-.19.15a2.69,2.69,0,0,0-.33.34.1.1,0,0,0,0,.09s0,0,0,0a2.68,2.68,0,0,1,.33-.34l.18-.14.19-.14s0-.1,0-.09"/><path class="cls-1" d="M4.32,126.83l-.08.08a2,2,0,0,0-.21.22l-.56.57-.25.23a.09.09,0,0,0,0,.08s0,.06,0,0a6,6,0,0,0,.5-.48c.17-.17.35-.35.51-.53l.1-.13s0-.11,0-.08"/><path class="cls-1" d="M5.94,127a1.48,1.48,0,0,0-.4.24,3.77,3.77,0,0,0-.36.31c-.23.23-.45.47-.67.7a4.52,4.52,0,0,1-.39.37.09.09,0,0,0,0,.08s0,.06,0,0c.5-.4.87-.94,1.37-1.34a4.28,4.28,0,0,1,.45-.28s0-.13,0-.11"/><path class="cls-1" d="M5.08,127.05a.67.67,0,0,0-.22.13s0-.06,0-.05a.89.89,0,0,0-.28.17c-.11.09-.22.19-.32.29l-.63.64s0,.15,0,.11l.61-.63c.1-.1.21-.2.32-.29l.18-.14a4,4,0,0,0-.32.36,4.66,4.66,0,0,1-.64.74.09.09,0,0,0,0,.08s0,.06,0,0a4.52,4.52,0,0,0,.64-.72,1.92,1.92,0,0,1,.65-.61s0-.14,0-.12"/><path class="cls-1" d="M4.49,127s0,0,0,0-.16.18-.24.27l-.28.3a3.52,3.52,0,0,1-.6.5s0,.15,0,.12a3.57,3.57,0,0,0,.6-.5l.28-.3a2.79,2.79,0,0,0,.25-.29.1.1,0,0,0,0-.08"/><path class="cls-1" d="M3.76,126.94s-.06,0-.08.07l-.1.09-.24.2a2.59,2.59,0,0,0-.46.43.1.1,0,0,0,0,.09s0,0,0,0a2.61,2.61,0,0,1,.47-.43l.24-.19a.5.5,0,0,0,.17-.2s0-.08,0-.08"/><path class="cls-1" d="M2.91,127.05s0-.05,0,0a.89.89,0,0,0-.44.48.1.1,0,0,0,0,.09s0,0,0,0a.73.73,0,0,1,.16-.24,1.46,1.46,0,0,1,.24-.19.08.08,0,0,0,0-.07"/><path class="cls-1" d="M6.42,126.91a2.78,2.78,0,0,1-.66.79c-.27.24-.57.46-.85.69s-.29.24-.43.37,0,.15,0,.11c.51-.5,1.15-.86,1.62-1.4a2.43,2.43,0,0,0,.23-.31h0a.37.37,0,0,0,.09-.18s0-.12-.05-.06"/><path class="cls-1" d="M7.08,127s0,0,0,0-.33.32-.51.46l-.54.41a9.88,9.88,0,0,0-1.06.86,3.42,3.42,0,0,0-.48.58s0,.15,0,.09a8.56,8.56,0,0,1,2-1.81,5,5,0,0,0,.47-.41s0,0,0,0a1,1,0,0,1,0-.1.1.1,0,0,0,0-.09"/><path class="cls-1" d="M6.85,127.63a1.89,1.89,0,0,1-.63.74c-.29.24-.61.45-.91.67a3.78,3.78,0,0,0-.41.34s0,.15,0,.11a6.86,6.86,0,0,1,.83-.64,5.31,5.31,0,0,0,.87-.73l.15-.19s0,0,0,0a.75.75,0,0,0,.1-.23h0s0-.12-.06,0"/><path class="cls-1" d="M6.9,128.11a7.59,7.59,0,0,1-1.69,1.52s0,.15,0,.12a6.08,6.08,0,0,0,.9-.7,9.21,9.21,0,0,0,.71-.73h0l.06,0a.15.15,0,0,0,0-.09s0-.11,0-.07"/><path class="cls-1" d="M7.13,128.55a.66.66,0,0,0-.18.1l-.21.14-.45.33a3.59,3.59,0,0,0-.76.76.1.1,0,0,0,0,.09s0,0,0,0a3.56,3.56,0,0,1,.76-.76l.43-.32.21-.14a1,1,0,0,0,.18-.12s0-.11,0-.1"/><path class="cls-1" d="M7.41,128.84a4.88,4.88,0,0,0-.73.52c-.24.19-.47.38-.72.56,0,0,0,.15,0,.12.25-.18.48-.37.72-.56a7.56,7.56,0,0,1,.68-.48v0s0,.05,0,.06,0,0,0,0,0-.1,0-.14,0-.13,0-.11"/><path class="cls-1" d="M8.24,128.88a11.69,11.69,0,0,0-1,.64,5.69,5.69,0,0,0-.88.77s0,.15,0,.11a7.84,7.84,0,0,1,1.76-1.34h0a.08.08,0,0,0,0,.06s0,0,0,0l.09-.16s0-.13,0-.11"/><path class="cls-1" d="M8.78,129s0,0,0,0,0,0,0,0c-.18.1-.35.22-.52.34l-.53.38-1,.78s0,.15,0,.12c.58-.43,1.16-.88,1.76-1.28l.26-.16,0,0h0v0a.1.1,0,0,0,0-.11"/><path class="cls-1" d="M8.57,129.42c-.14.11-.28.24-.42.35l-.43.34c-.29.22-.59.43-.9.64,0,0,0,.15,0,.12.31-.21.61-.42.91-.64l.43-.34a5.06,5.06,0,0,0,.41-.35s0-.14,0-.11"/><path class="cls-1" d="M8.36,130.1a.14.14,0,0,0,0-.14s0,0,0,0v0c-.24.17-.49.33-.72.51a3.3,3.3,0,0,0-.64.61.1.1,0,0,0,0,.09s0,0,0,0a3.53,3.53,0,0,1,.75-.69l.42-.29.1-.07.07,0s0,0,0,0h0Z"/><path class="cls-1" d="M8.29,130.6a.41.41,0,0,0-.27.07,2.54,2.54,0,0,0-.34.22c-.25.18-.48.38-.7.58l-.28.25s0,.15,0,.11l.56-.49a4.49,4.49,0,0,1,.7-.52.9.9,0,0,1,.3-.11s0-.09,0-.1"/><path class="cls-1" d="M8.21,131H8.16a.57.57,0,0,0-.11.08l-.37.3-.9.75-.29.26s0,.15,0,.11c.21-.2.44-.38.66-.56l.84-.7.14-.11,0,0h0s0-.08,0-.09"/><path class="cls-1" d="M8.09,131.55a.35.35,0,0,0-.28.07,3.08,3.08,0,0,0-.39.29,11.31,11.31,0,0,0-.84.78l-.3.31s0,.14,0,.1c.2-.22.41-.42.62-.63a5.78,5.78,0,0,1,.83-.69.64.64,0,0,1,.32-.13s0-.09,0-.1"/><path class="cls-1" d="M7.55,132.45h0l-.18.15-.19.15-.37.29a5.16,5.16,0,0,0-.68.64s0,.14,0,.1a5.21,5.21,0,0,1,.69-.64l.36-.28c.1-.08.21-.16.31-.25h0s0,0,.06-.05a.11.11,0,0,0,0-.1"/><path class="cls-1" d="M6.84,133.56a.78.78,0,0,0-.49.17,1.7,1.7,0,0,0-.39.36.09.09,0,0,0,0,.08s0,0,0,0a1.56,1.56,0,0,1,.86-.55s0-.07,0-.08"/><path class="cls-1" d="M6.59,133.94a.3.3,0,0,0-.16.06l-.16.11a2.72,2.72,0,0,0-.27.27.08.08,0,0,0,0,.07s0,0,0,0a2.67,2.67,0,0,1,.27-.26l.15-.11.08,0,.08,0s0-.07,0-.07"/><path class="cls-1" d="M6.38,134.34a.39.39,0,0,0-.14.06l-.13.09a2.63,2.63,0,0,0-.24.22.09.09,0,0,0,0,.08s0,0,0,0a2.51,2.51,0,0,1,.23-.21l.12-.09.14-.08a.06.06,0,0,0,0,0s0,0,0,0"/><path class="cls-1" d="M5.86,135s0,0,0,0a.48.48,0,0,0-.12.11.91.91,0,0,0-.1.14.1.1,0,0,0,0,.09l0,0,0,0,0,0h0v0l0-.06.11-.12a.08.08,0,0,0,0-.07"/><path class="cls-1" d="M8.56,134.15s0,0,0,0h0l0,0h0v0c0-.09,0-.18-.07-.26s0,0,0,0a.1.1,0,0,0,0,.09c0,.08,0,.15.06.23l0,.11a.12.12,0,0,0,.05.06s0,0,.06,0a.08.08,0,0,0,0-.06"/><path class="cls-1" d="M8.77,134l-.05-.08-.06-.11a1.45,1.45,0,0,0-.14-.25s0,0,0,0a.1.1,0,0,0,0,.09,1.41,1.41,0,0,1,.14.24l.06.11s0,.06.07.07,0,0,0,0a.09.09,0,0,0,0-.06"/><path class="cls-1" d="M8.93,133.9s0-.09-.07-.14l-.06-.14c0-.1-.07-.2-.1-.29s0,0,0,0a.1.1,0,0,0,0,.09c0,.11.07.21.11.32l.07.15a.42.42,0,0,0,.09.13s0,0,0,0a.09.09,0,0,0,0-.07"/><path class="cls-1" d="M9.18,133.65c0-.05-.06-.1-.08-.15a1.24,1.24,0,0,1-.06-.17c0-.12-.06-.23-.1-.35s0,0,0,0a.1.1,0,0,0,0,.09c0,.12.07.25.11.37a1.36,1.36,0,0,0,.07.18l0,.08s0,.05.06.06,0-.07,0-.08"/><path class="cls-1" d="M9.42,133.38a.31.31,0,0,1-.07-.13,2,2,0,0,1-.07-.25,2.29,2.29,0,0,1-.08-.49s0-.06,0-.06,0,0,0,.06a2.51,2.51,0,0,0,.09.57,1.85,1.85,0,0,0,.09.28s0,.13.1.12,0-.08,0-.1"/><path class="cls-1" d="M9.65,133.34a0,0,0,0,0,0,0c0-.16-.08-.32-.11-.49a3.48,3.48,0,0,1-.08-.63s0-.06,0-.06,0,0,0,.06a3.62,3.62,0,0,0,.08.66c0,.22.08.44.14.65,0,.06.06,0,.06,0v-.13"/><path class="cls-1" d="M9.95,133.28a.65.65,0,0,1,0-.1s0,0,0,0a4.68,4.68,0,0,1-.12-.65c0-.26,0-.52-.1-.78,0,0,0-.05,0,0s0,.06,0,.08c0,.27.07.54.1.81a3.16,3.16,0,0,0,.16.78,0,0,0,0,0,0,0,.09.09,0,0,0,0-.07"/><path class="cls-1" d="M10.2,132.92c0-.16,0-.31,0-.47,0-.32-.07-.63-.1-.95,0,0,0-.05,0,0s0,.06,0,.08c0,.3.06.61.09.91,0,.15,0,.3,0,.46s0,.27,0,.4,0,.08,0,0a1.68,1.68,0,0,0,0-.41"/><path class="cls-1" d="M10.55,131.63s0,0,0,0a4.1,4.1,0,0,0-.07.91c0,.15,0,.3,0,.46s0,.13,0,.2a1.25,1.25,0,0,0,0,.19c0,.05,0,.05.06,0a.86.86,0,0,0,0-.17c0-.07,0-.13,0-.2s0-.29,0-.44a3.91,3.91,0,0,1,.06-.88s0-.07,0-.09"/><path class="cls-1" d="M10.8,132.33c-.08.4,0,.81-.09,1.22,0,0,0,0,0,0s0,.13,0,.2,0,.1.06,0c.13-.47,0-1,.13-1.46,0-.06,0-.12-.06,0"/><path class="cls-1" d="M11.13,132.66s0,0,0,0c0,.21,0,.41-.05.62l0,.3s0,0,0,.06,0,0,0,0,0,0,0,0,0,.06,0,0,0,0,0,0,0,0,0,0h0v0a.88.88,0,0,0,0-.1l0-.3c0-.2,0-.41.05-.61,0,0,0-.07,0-.08"/><path class="cls-1" d="M11.35,133.22a.1.1,0,0,0,0-.09s0,0,0,0a3.48,3.48,0,0,0-.09,1s0,.1.05,0a.59.59,0,0,0,0-.13.08.08,0,0,0,0-.07h0c0-.1,0-.2,0-.3a2.85,2.85,0,0,1,.07-.45"/><path class="cls-1" d="M11.69,133.84a.1.1,0,0,0,0-.09s0,0,0,0a1.53,1.53,0,0,0,0,.33,2.1,2.1,0,0,0,0,.33s0,0,0,0,0,0,0-.06,0-.2,0-.3a1.27,1.27,0,0,1,0-.28"/><path class="cls-1" d="M11.78,133.61s0,.06,0,.06,0-.06,0-.06"/><path class="cls-1" d="M11.93,133.92s0,0,0,0a1.9,1.9,0,0,0,0,.32c0,.12,0,.24,0,.35s0,.05,0,.08a.08.08,0,0,0,0,0s0,0,0,0a.16.16,0,0,0,0-.08c0-.05,0-.1,0-.15s0-.13,0-.19V134h0a.1.1,0,0,0,0-.08"/><path class="cls-1" d="M12.24,134.16s0,0,0,.06v.38q0,.09,0,.18a.45.45,0,0,0,0,.13s0,0,0,0a.44.44,0,0,0,0-.13c0-.06,0-.12,0-.18v-.38s0-.06,0-.06"/><path class="cls-1" d="M12.41,134s0,.06,0,.06,0-.06,0-.06"/><path class="cls-1" d="M12.51,134.42s0,0,0,0a1.92,1.92,0,0,0,0,.44q0,.11,0,.21a.56.56,0,0,0,0,.15s0,0,0,0a.48.48,0,0,0,0-.14c0-.07,0-.13,0-.2a1.7,1.7,0,0,1,0-.4.1.1,0,0,0,0-.09"/><path class="cls-1" d="M12.8,134.13s0,0,0,0a2.61,2.61,0,0,0,0,.65,1.41,1.41,0,0,1,0,.56s0,.1,0,.07a.36.36,0,0,0,.07-.22,2.68,2.68,0,0,0,0-.32,2.79,2.79,0,0,1,0-.67s0-.07,0-.09"/><path class="cls-1" d="M13.17,134s0,0,0,0a6.22,6.22,0,0,0-.07.82c0,.13,0,.27,0,.4a2.49,2.49,0,0,0,0,.34s0,0,0,0a2.74,2.74,0,0,0,0-.33c0-.13,0-.27,0-.4a6.07,6.07,0,0,1,.07-.81s0-.07,0-.08"/><path class="cls-1" d="M13.5,134.29s0,0,0,0a6.42,6.42,0,0,0-.08.75l0,.37c0,.1,0,.21,0,.31s0,.08,0,0a1.58,1.58,0,0,0,0-.3l0-.38a6.32,6.32,0,0,1,.08-.75s0-.07,0-.08"/><path class="cls-1" d="M13.76,135s0,0,0,0a5.06,5.06,0,0,0,0,1s0,.05,0,.07,0,0,0,0a.1.1,0,0,0,0,0s0,0,.05,0,0-.1,0-.15,0-.12,0-.19a3,3,0,0,1,0-.74s0-.07,0-.09"/><path class="cls-1" d="M14,136.38h0v-.06h0v-.06c0-.13,0-.25,0-.38s0-.11,0-.16,0-.06,0-.06,0,0,0,.06,0,.25,0,.37,0,.13,0,.2a.4.4,0,0,0,0,.16s.05.06.08,0,0-.11,0-.09"/><path class="cls-1" d="M14.29,136.63h0v0h0v0h0s0-.06,0-.09,0-.23,0-.34,0-.06,0-.06,0,0,0,.06,0,.25,0,.38a.79.79,0,0,0,0,.18.11.11,0,0,0,0,.06h0s0-.08,0-.1"/><polyline class="cls-1" points="14.25 136.72 14.24 136.71 14.25 136.72"/><path class="cls-1" d="M14.56,136.84c0-.05,0-.1,0-.15a3,3,0,0,0-.06-.33s0,0,0,0a.1.1,0,0,0,0,.09s0,.08,0,.13l0,.17,0,.15v.08h0s0,0,0,0a.2.2,0,0,0,0-.13"/><path class="cls-1" d="M14.51,137h0"/><path class="cls-1" d="M15.09,137.56l-.05-.15,0-.14a1.56,1.56,0,0,1,0-.3s0-.06,0-.06,0,0,0,.06,0,.09,0,.14v0h0v0h0v-.08c0-.08,0-.17,0-.25s0-.06,0,0,0,.06,0,.08,0,.2.06.29a.34.34,0,0,0,0,.11.08.08,0,0,0,.05,0s0,0,0,0,0,.1,0,.16,0,.11,0,.16a.72.72,0,0,0,.06.16s0,0,0,0a.1.1,0,0,0,0-.07"/><path class="cls-1" d="M13.82,127.08s0,0,0,0a3.31,3.31,0,0,1-.18.46c-.07.15-.15.29-.21.45a.11.11,0,0,0,0,.08s0,0,0,0h0v0l0,0c.07-.13.13-.26.19-.39a3.46,3.46,0,0,0,.18-.47.1.1,0,0,0,0-.09"/><path class="cls-1" d="M14.14,127.11s0,0,0,0a4.22,4.22,0,0,0-.28.49c-.07.15-.15.3-.22.45a.26.26,0,0,0,0,.05.14.14,0,0,0,0,.09s0,0,0,0,.16-.33.24-.5a4.13,4.13,0,0,1,.28-.48.1.1,0,0,0,0-.09"/><path class="cls-1" d="M14.41,127.15s0,0,0,0c-.23.54-.59,1-.78,1.58,0,0,0,.14.06.06a1.63,1.63,0,0,1,.09-.17.08.08,0,0,0,0-.06h0c.2-.45.48-.87.68-1.33a.11.11,0,0,0,0-.09"/><path class="cls-1" d="M14.75,127.12s0,0,0,0c-.09.21-.17.43-.26.65s-.19.42-.29.63c0,0,0,.14,0,.1a.21.21,0,0,0,.06-.1,5,5,0,0,0,.24-.54c.09-.22.17-.43.26-.65a.11.11,0,0,0,0-.09"/><path class="cls-1" d="M14.95,127.23s0,0,0,0l-.19.43c-.06.14-.14.28-.19.42s0,.12,0,.08a.17.17,0,0,0,0-.08l.16-.34.19-.42a.11.11,0,0,0,0-.09"/><path class="cls-1" d="M15.22,127.14a1.06,1.06,0,0,0-.22.35l-.08.2c0,.06-.05.13-.07.19h0a.09.09,0,0,0,0,.07s0,0,0,0v0l0,0a.07.07,0,0,0,0,0l0-.06.07-.19a1,1,0,0,1,.2-.33s0-.15,0-.11"/><path class="cls-1" d="M15.39,127.22s0,0,0,0a5.92,5.92,0,0,1-.27.57.1.1,0,0,0,0,.09s0,0,0,0a1.31,1.31,0,0,1,.07-.12v0a4,4,0,0,0,.2-.46.1.1,0,0,0,0-.09"/><path class="cls-1" d="M15.62,127.26s0,0,0,0l-.09.17-.05.11,0,0v0h0a.12.12,0,0,0,0,.06s0,.05,0,0l0,0h0l0,0,.12-.23,0-.09a.11.11,0,0,0,0-.09"/><path class="cls-1" d="M15.81,127.14s0,0,0,0l-.07.22,0,.11h0v0l0,0h0v0h0v0s0,.09,0,.07a.14.14,0,0,0,0,0h0l0-.09.11-.33a.1.1,0,0,0,0-.09"/><path class="cls-1" d="M16.1,127.09s0,0,0,0-.05.14-.07.21a.39.39,0,0,0,0,.11s0,.07,0,.08,0,0,0,0a.07.07,0,0,0,0,0h0l0-.08,0-.09,0,0h0v0a.11.11,0,0,0,0-.09"/><path class="cls-1" d="M16.26,127.15l0,0,0,0,0,.09,0,.08a.2.2,0,0,0,0,.1s0,0,0,0,0,0,0,0a.09.09,0,0,0,0,0v-.07h0l0-.07a.11.11,0,0,0,0-.09"/><path class="cls-1" d="M16.54,127.09l0,0,0,0a.46.46,0,0,0,0,.17.42.42,0,0,0,0,.1.13.13,0,0,0,0,.09s0,0,0,0a.07.07,0,0,0,0,0,.33.33,0,0,0,0-.05s0,0,0,0h0s0,0,0,0h0v0h0v0h0v0a.11.11,0,0,0,0-.09"/><path class="cls-1" d="M16.71,127.13h0a.29.29,0,0,0,0,.18s0,0,0,0,0,0,0,0,0,0,0,0h0v0h0v0a.07.07,0,0,0,0,0,.07.07,0,0,0,0,0"/><path class="cls-1" d="M13.41,127.2s0,0,0,0a3.92,3.92,0,0,1-.35.73v0s0-.1,0-.06a.65.65,0,0,0-.07.2s0,.11,0,.08a1.06,1.06,0,0,0,.27-.4c.07-.15.12-.31.19-.45a.11.11,0,0,0,0-.09"/><path class="cls-1" d="M13.1,127.08a4.44,4.44,0,0,1-.34.73,4.63,4.63,0,0,1-.4.59h0s0-.1,0,0a.76.76,0,0,0,0,.17s0,.1,0,.07a1.88,1.88,0,0,0,.25-.31c.08-.12.16-.25.23-.37a4.61,4.61,0,0,0,.35-.76s0-.14-.06-.06"/><path class="cls-1" d="M12.82,127.17s0,0,0,0a9.51,9.51,0,0,0-.49.84c-.08.14-.16.28-.24.42l-.14.21-.06.08s0-.07,0,0a1.16,1.16,0,0,0-.06.16s0,.09,0,.07a.86.86,0,0,0,.15-.18l.12-.18c.09-.14.17-.28.25-.43a9.58,9.58,0,0,1,.49-.86.08.08,0,0,0,0-.07"/><path class="cls-1" d="M12.41,127c-.17.26-.32.53-.46.81l-.43.79h0l0,0a.08.08,0,0,0,0,.08c0,.06.08,0,.09-.05l.12-.22.24-.46c.16-.3.32-.61.51-.9,0,0,0-.12,0-.07"/><path class="cls-1" d="M12,127.07s0,0,0,0c-.15.32-.34.62-.52.92a5.79,5.79,0,0,0-.42.79l0,0a.56.56,0,0,0,0,.14s0,.11,0,.05a7.81,7.81,0,0,1,.47-.93c.18-.3.36-.6.51-.91a.08.08,0,0,0,0-.07"/><path class="cls-1" d="M11.83,126.89s0,0,0,0c-.29.4-.45.87-.76,1.26,0,0,0,0,0,0a.23.23,0,0,1,0,.09s0,.12,0,.08a2.61,2.61,0,0,0,.43-.65,6.15,6.15,0,0,1,.4-.7.08.08,0,0,0,0-.07"/><path class="cls-1" d="M11.16,127.66s0,0,0,0"/><path class="cls-1" d="M11.75,126.61s0,0,0,0l-.31.42a2.26,2.26,0,0,0-.28.49.24.24,0,0,0,0,.21s0-.05,0-.07h0s0,0,0,0v0a.67.67,0,0,1,0-.12,2.68,2.68,0,0,1,.17-.29c.11-.18.24-.35.36-.51a.08.08,0,0,0,0-.07"/><path class="cls-1" d="M11.5,126.34s0,0,0,0a6.07,6.07,0,0,1-.35.71,1.57,1.57,0,0,1-.47.56v0s0-.1,0-.05a.39.39,0,0,0,0,.17s0,.06,0,.05a.7.7,0,0,0,.28-.22,2.48,2.48,0,0,0,.25-.36,6,6,0,0,0,.36-.75.09.09,0,0,0,0-.08"/><path class="cls-1" d="M11.46,125.89a2.64,2.64,0,0,0-.39.57,4.78,4.78,0,0,1-.32.51s0,0,0,0a.39.39,0,0,0-.05.11s0,.11,0,.08a2.37,2.37,0,0,0,.38-.58,2.67,2.67,0,0,1,.39-.59s0-.13,0-.1"/><path class="cls-1" d="M11.27,125.56s0,0,0,0c-.14.27-.22.57-.39.83,0,0,0,0,0,0l-.06.13s0,.11,0,.08a1.55,1.55,0,0,0,.26-.45c.07-.17.13-.34.22-.5a.08.08,0,0,0,0-.07"/><path class="cls-1" d="M11.27,125.35s0,0,0,0a2.38,2.38,0,0,0-.26.36l-.11.19,0,.07h0v0l0,.09h0a.08.08,0,0,0,0,.06s0,0,0,0h0a1.85,1.85,0,0,0,.1-.17l.11-.2a2.36,2.36,0,0,1,.26-.37.07.07,0,0,0,0-.07"/><path class="cls-1" d="M11.16,125a1.14,1.14,0,0,0-.19.28l-.08.15v0h0s0,0,0,0a.63.63,0,0,0-.05.15s0,.08,0,.05a.72.72,0,0,0,.09-.14l.08-.15a1.11,1.11,0,0,1,.19-.27s0-.12,0-.09"/><path class="cls-1" d="M11.18,124.58s0,0,0,0a2,2,0,0,1-.17.34,1.18,1.18,0,0,1-.18.24v0a.05.05,0,0,0,0,0s0,0,0,0l0,.07a.26.26,0,0,0,0,.08s0,.06,0,0a.39.39,0,0,0,.13-.11A1.53,1.53,0,0,0,11,125a2,2,0,0,0,.18-.37.07.07,0,0,0,0-.06"/><path class="cls-1" d="M11,124.42s0,0,0,0-.13.17-.19.25a.5.5,0,0,0-.1.3s0,0,0,0a1.07,1.07,0,0,1,0-.13l.07-.12.17-.23a.08.08,0,0,0,0-.07"/><path class="cls-1" d="M10.83,124.15l0,0,0,0-.07.14,0,0h0l0,0h0s0,0,0,0h0s0,0,0,0a.07.07,0,0,0,0,.05s0,.05.05.05a.07.07,0,0,0,.06,0,.54.54,0,0,0,.09-.15l0-.08a.1.1,0,0,0,0-.09"/><path class="cls-1" d="M10.83,123.83s0,0,0,0l-.13.13-.06.07a.7.7,0,0,1,0-.11.06.06,0,0,0,0,0h0l0,0,.06-.12a.09.09,0,0,0,0-.08l0,0,0,0-.06.12,0,.06,0,.07a.09.09,0,0,0,0,.06s0,0,0,0v0l0,.08v.08h0v0h0v0a.09.09,0,0,0,0,.06s0,0,0,0l.12-.14.13-.13a.07.07,0,0,0,0,0,.11.11,0,0,0,0,0"/></g></g></svg>