<svg width="21" height="21" viewBox="0 0 21 21" fill="none" xmlns="http://www.w3.org/2000/svg">
<path d="M10.4023 2L12.3762 8.39254H18.7778L13.5986 12.3494L15.5816 18.751L10.4023 14.7941L5.22312 18.751L7.20608 12.3494L2.02686 8.39254H8.42845L10.4023 2Z" fill="white"/>
<path d="M10.3755 2.07251L12.3494 8.46505H18.751L13.5718 12.4219L15.5547 18.8235L10.3755 14.8666L5.19627 18.8235L7.17923 12.4219L2 8.46505H8.39254L10.3755 2.07251Z" stroke="black" stroke-miterlimit="10"/>
<path d="M4.10064 8.44699C4.0282 8.4651 3.96481 8.51037 3.91049 8.55564C3.8471 8.60091 3.78372 8.64619 3.72939 8.70052C3.61169 8.80012 3.50303 8.91783 3.40343 9.03554C3.38532 9.05365 3.38532 9.09892 3.39437 9.12608C3.40343 9.14419 3.42154 9.17135 3.43965 9.14419C3.53925 9.02648 3.64791 8.90877 3.76562 8.80917C3.81994 8.7639 3.88333 8.70957 3.94671 8.67335C4.01009 8.62808 4.07347 8.58281 4.13685 8.53753C4.14591 8.51943 4.14591 8.43793 4.10064 8.44699Z" fill="black"/>
<path d="M4.79793 8.35633C4.77077 8.38349 4.7436 8.41066 4.71644 8.42877C4.63495 8.49215 4.57157 8.57364 4.50819 8.64607C4.3271 8.83622 4.146 9.02637 3.95585 9.20746C3.87436 9.28895 3.79287 9.36139 3.70233 9.43382C3.68422 9.45193 3.67516 9.48815 3.68422 9.51532C3.68422 9.52437 3.70233 9.5787 3.72044 9.56059C3.90153 9.41572 4.05546 9.25273 4.21844 9.08975C4.39048 8.91771 4.56251 8.74568 4.72549 8.56459C4.76171 8.52837 4.79793 8.48309 4.8251 8.43782C4.84321 8.41066 4.82509 8.32011 4.79793 8.35633Z" fill="black"/>
<path d="M6.3914 8.53764C6.24653 8.58292 6.11976 8.68252 5.99299 8.77306C5.86623 8.86361 5.75758 8.97226 5.63987 9.07186C5.4135 9.28917 5.19619 9.53365 4.97888 9.76907C4.85212 9.89583 4.72535 10.0226 4.58953 10.1312C4.57142 10.1494 4.56237 10.1856 4.57142 10.2127C4.57142 10.2218 4.58953 10.2761 4.60764 10.258C5.09659 9.85961 5.45878 9.32539 5.95678 8.93604C6.0926 8.82739 6.24652 8.7459 6.40045 8.65535C6.43667 8.63724 6.43667 8.52859 6.3914 8.53764Z" fill="black"/>
<path d="M5.54939 8.57367C5.4679 8.60083 5.39546 8.64611 5.33208 8.70043C5.33208 8.67327 5.32302 8.63705 5.30491 8.6461C5.19626 8.68232 5.11477 8.74571 5.03328 8.80909C4.92462 8.89964 4.81597 8.99923 4.71637 9.09883C4.50811 9.30709 4.30891 9.5244 4.10065 9.73265C4.07349 9.75982 4.0916 9.88658 4.13687 9.84131C4.34512 9.63305 4.53527 9.4248 4.74353 9.21655C4.84313 9.11695 4.94273 9.01735 5.06044 8.9268C5.11477 8.88153 5.17815 8.83625 5.24153 8.79098C5.13288 8.89964 5.02422 9.0264 4.93367 9.14411C4.73447 9.38858 4.54432 9.66927 4.29985 9.86847C4.28174 9.88658 4.27269 9.9228 4.28175 9.94997C4.28175 9.95902 4.29985 10.0133 4.31796 9.99524C4.56243 9.79604 4.75258 9.5244 4.94273 9.27992C5.12382 9.05356 5.31397 8.80003 5.5856 8.68232C5.60371 8.67327 5.59466 8.55556 5.54939 8.57367Z" fill="black"/>
<path d="M4.96995 8.55564C4.96089 8.53753 4.95184 8.51942 4.92467 8.53753C4.84318 8.61902 4.77075 8.71862 4.68926 8.80917C4.59871 8.90877 4.50816 9.00837 4.41762 9.09891C4.23653 9.28 4.04638 9.45204 3.82907 9.59691C3.79285 9.62408 3.81096 9.74179 3.84717 9.71463C4.06448 9.57881 4.25463 9.39772 4.43572 9.21663C4.52627 9.12608 4.62587 9.02648 4.70736 8.92688C4.78885 8.83633 4.8794 8.74578 4.95184 8.63713C4.96994 8.61902 4.979 8.5828 4.96995 8.55564Z" fill="black"/>
<path d="M4.24559 8.45586C4.20937 8.46491 4.19126 8.50113 4.1641 8.5283C4.13693 8.56451 4.10072 8.59168 4.0645 8.61884C3.98301 8.68222 3.90152 8.74561 3.82908 8.80899C3.6661 8.93575 3.50311 9.06252 3.3673 9.2255C3.34919 9.25266 3.34919 9.28888 3.35824 9.31605C3.3673 9.33415 3.38541 9.36132 3.40352 9.34321C3.53028 9.18023 3.70232 9.04441 3.8653 8.91764C3.94679 8.85426 4.01923 8.79088 4.10072 8.7275C4.1641 8.67317 4.24559 8.60979 4.27275 8.5283C4.27275 8.51924 4.27276 8.4468 4.24559 8.45586Z" fill="black"/>
<path d="M3.41255 8.57366C3.41255 8.55555 3.4035 8.52839 3.37634 8.53744C3.27674 8.58272 3.19524 8.65515 3.12281 8.72759C3.05037 8.80908 2.98699 8.89962 2.95077 9.00828C2.94172 9.03544 2.94172 9.07166 2.95982 9.09882C2.97793 9.11693 2.99604 9.08977 3.0051 9.07166C3.04132 8.98111 3.09564 8.89962 3.15903 8.82719C3.23146 8.75475 3.31295 8.70042 3.39444 8.63704C3.41255 8.62799 3.41255 8.59177 3.41255 8.57366Z" fill="black"/>
<path d="M6.87126 8.42881C6.71733 8.73667 6.47285 8.98114 6.21933 9.20751C5.94769 9.44293 5.65794 9.66024 5.3863 9.8866C5.24143 10.0043 5.09656 10.122 4.96979 10.2488C4.94263 10.2759 4.96074 10.4027 5.00601 10.3574C5.51307 9.86849 6.13783 9.50631 6.60867 8.97209C6.69016 8.88154 6.77165 8.77289 6.83504 8.67329C6.83504 8.67329 6.84409 8.67329 6.85315 8.66423C6.89842 8.6099 6.92559 8.55558 6.93464 8.48314C6.92559 8.46503 6.89842 8.36543 6.87126 8.42881Z" fill="black"/>
<path d="M7.51434 8.48297C7.50528 8.46486 7.49623 8.4377 7.46907 8.46486C7.30608 8.62784 7.1431 8.78177 6.97106 8.91759C6.79903 9.06246 6.61794 9.18923 6.43685 9.32505C6.07466 9.59668 5.71248 9.85927 5.38651 10.1762C5.20542 10.3482 5.0515 10.5384 4.91568 10.7557C4.89757 10.7919 4.92473 10.9096 4.96095 10.8462C5.4499 10.0856 6.27386 9.62385 6.96201 9.06247C7.11594 8.9357 7.27892 8.79988 7.42379 8.65501C7.43285 8.67312 7.4419 8.69123 7.46001 8.66406C7.47812 8.6369 7.48718 8.60068 7.50529 8.57352C7.5234 8.54635 7.52339 8.51013 7.51434 8.48297Z" fill="black"/>
<path d="M7.29682 9.14379C7.18816 9.44259 6.92558 9.67801 6.68111 9.87721C6.39136 10.1126 6.0835 10.3209 5.7847 10.5382C5.64888 10.6378 5.50401 10.7465 5.3863 10.8732C5.35913 10.9004 5.37725 11.0271 5.42252 10.9819C5.66699 10.7374 5.96579 10.5473 6.23743 10.3481C6.53623 10.1307 6.84409 9.90438 7.09762 9.63274C7.15194 9.57841 7.19721 9.51503 7.24249 9.44259C7.25154 9.45165 7.25155 9.45165 7.26966 9.43354C7.31493 9.3611 7.34209 9.28866 7.3602 9.20717C7.3602 9.19812 7.3602 9.19812 7.3602 9.18906C7.3602 9.15284 7.32398 9.07135 7.29682 9.14379Z" fill="black"/>
<path d="M7.34228 9.61507C6.85333 10.1765 6.31006 10.7197 5.67624 11.1091C5.64002 11.1272 5.65813 11.254 5.69435 11.2268C6.01126 11.0276 6.31006 10.7922 6.58169 10.5386C6.82617 10.3123 7.06159 10.0769 7.28795 9.82333C7.28795 9.82333 7.29701 9.82333 7.29701 9.81428C7.31512 9.79617 7.34228 9.78711 7.36039 9.769C7.3785 9.74184 7.38755 9.71468 7.39661 9.67846C7.38755 9.66035 7.3785 9.5698 7.34228 9.61507Z" fill="black"/>
<path d="M7.56855 10.0494C7.50517 10.0675 7.44179 10.1128 7.38746 10.149C7.31502 10.1943 7.25164 10.2396 7.17921 10.2848C7.02528 10.3844 6.8804 10.4931 6.73553 10.6108C6.46389 10.8281 6.1832 11.0726 5.984 11.3623C5.96589 11.3895 5.96589 11.4167 5.97494 11.4529C5.984 11.471 6.0021 11.4981 6.02021 11.48C6.21941 11.1903 6.49106 10.9458 6.77175 10.7285C6.90757 10.6198 7.05244 10.5112 7.19731 10.4116C7.26069 10.3663 7.33313 10.321 7.40557 10.2758C7.4599 10.2396 7.53233 10.2033 7.5776 10.1581C7.59571 10.14 7.60477 10.0404 7.56855 10.0494Z" fill="black"/>
<path d="M7.84026 10.3391C7.57768 10.4749 7.34226 10.665 7.11589 10.8461C6.88047 11.0363 6.65411 11.2264 6.40964 11.3984C6.37342 11.4256 6.39152 11.5433 6.42774 11.5161C6.67221 11.3441 6.89858 11.154 7.134 10.9638C7.35131 10.7918 7.56862 10.6379 7.80404 10.4839C7.80404 10.502 7.80404 10.5111 7.79499 10.5292C7.79499 10.5473 7.78593 10.5835 7.80404 10.5926C7.82215 10.6016 7.8312 10.5926 7.8312 10.5745C7.84931 10.5292 7.84931 10.4839 7.86742 10.4387C7.87648 10.4205 7.88553 10.3119 7.84026 10.3391Z" fill="black"/>
<path d="M8.65507 10.3754C8.32005 10.5746 7.99408 10.7829 7.67717 11.0092C7.36932 11.2356 7.06146 11.4801 6.80793 11.7698C6.78076 11.797 6.79888 11.9237 6.84415 11.8785C7.3331 11.3352 7.95786 10.9368 8.57357 10.5565C8.56452 10.5746 8.56452 10.6018 8.57357 10.6199C8.58263 10.6289 8.59168 10.647 8.60074 10.6289C8.63695 10.5837 8.66412 10.5293 8.69128 10.475C8.70034 10.4659 8.70034 10.3482 8.65507 10.3754Z" fill="black"/>
<path d="M9.19838 10.5111C9.19838 10.493 9.18932 10.4658 9.17121 10.4658C9.1531 10.4658 9.14405 10.4839 9.13499 10.493C8.9539 10.5926 8.79092 10.7103 8.61888 10.828C8.44684 10.9457 8.26575 11.0725 8.09372 11.1992C7.74964 11.4528 7.40556 11.7063 7.06149 11.9598C7.02527 11.987 7.04338 12.1047 7.0796 12.0775C7.65909 11.652 8.22048 11.2083 8.81808 10.8189C8.89957 10.7646 8.98106 10.7103 9.07161 10.656C9.08972 10.6469 9.09877 10.6379 9.11688 10.6288C9.12594 10.6288 9.12594 10.6379 9.13499 10.6288C9.13499 10.6197 9.14405 10.6197 9.14405 10.6107C9.18026 10.6016 9.20743 10.5654 9.19838 10.5111Z" fill="black"/>
<path d="M8.99012 10.9101C8.84524 11.0187 8.71848 11.1455 8.58266 11.2541C8.43779 11.3718 8.30197 11.4805 8.15709 11.5891C7.86735 11.8065 7.5776 12.0147 7.26974 12.2139C7.23353 12.2411 7.25163 12.3588 7.28785 12.3316C7.58665 12.1234 7.88545 11.9151 8.18425 11.6978C8.32913 11.5892 8.474 11.4805 8.60982 11.3628C8.74564 11.2541 8.89051 11.1364 9.01728 11.0187C9.03539 11.0006 9.02633 10.8829 8.99012 10.9101Z" fill="black"/>
<path d="M8.78197 11.5798C8.80008 11.5436 8.80913 11.4802 8.78197 11.444C8.77291 11.4258 8.75481 11.4349 8.74575 11.453C8.7367 11.4621 8.73669 11.4711 8.73669 11.4892C8.50127 11.6522 8.2568 11.8152 8.02138 11.9872C7.78596 12.1593 7.5596 12.3585 7.38756 12.5848C7.36945 12.612 7.36945 12.6482 7.3785 12.6754C7.38756 12.6935 7.40567 12.7207 7.42378 12.7025C7.62298 12.4309 7.89462 12.2227 8.16626 12.0234C8.30207 11.9238 8.4379 11.8242 8.58277 11.7337C8.61899 11.7065 8.64615 11.6884 8.68237 11.6613C8.70048 11.6432 8.72764 11.6341 8.74575 11.616C8.75481 11.6432 8.77291 11.616 8.78197 11.5798Z" fill="black"/>
<path d="M8.7096 12.0598C8.61905 12.0417 8.52851 12.087 8.44702 12.1232C8.32931 12.1866 8.22065 12.259 8.112 12.3405C7.86752 12.5216 7.64116 12.7117 7.41479 12.9109C7.32425 12.9924 7.22465 13.0739 7.1341 13.1554C7.10694 13.1826 7.12504 13.3003 7.17032 13.264C7.36046 13.1011 7.5325 12.9381 7.72265 12.7751C7.93996 12.594 8.16632 12.4039 8.41985 12.268C8.51039 12.2137 8.61 12.1684 8.71865 12.1594C8.74582 12.1594 8.74581 12.0688 8.7096 12.0598Z" fill="black"/>
<path d="M8.63712 12.4398C8.62807 12.4308 8.62807 12.4398 8.62807 12.4398H8.61901C8.60996 12.4398 8.60091 12.4489 8.59185 12.4489C8.55563 12.467 8.51941 12.4941 8.48319 12.5213C8.35643 12.6209 8.23872 12.7205 8.12101 12.8201C7.82221 13.0646 7.53246 13.3091 7.23366 13.5626C7.13406 13.6441 7.03446 13.7256 6.94391 13.8161C6.91675 13.8433 6.93486 13.961 6.98014 13.9248C7.18839 13.7346 7.4057 13.5535 7.62301 13.3724C7.89465 13.137 8.17534 12.9107 8.45603 12.6843C8.5013 12.6481 8.55563 12.6119 8.59185 12.5756C8.60091 12.5666 8.61902 12.5485 8.62807 12.5394C8.63713 12.5304 8.62807 12.5394 8.63712 12.5304C8.65523 12.5304 8.66429 12.4489 8.63712 12.4398Z" fill="black"/>
<path d="M8.51021 13.0102C8.41061 12.974 8.31101 13.0374 8.22952 13.0827C8.0937 13.1642 7.96694 13.2638 7.84017 13.3634C7.55042 13.5988 7.27878 13.8614 7.0162 14.133C6.9166 14.2326 6.817 14.3322 6.72646 14.4409C6.69929 14.468 6.7174 14.5767 6.75362 14.5405C6.95282 14.3232 7.16108 14.124 7.36933 13.9248C7.62286 13.6803 7.8945 13.4358 8.1933 13.2366C8.27479 13.1823 8.40155 13.1008 8.50116 13.1008C8.53737 13.1098 8.53737 13.0193 8.51021 13.0102Z" fill="black"/>
<path d="M7.98519 13.8887C7.97613 13.8796 7.96708 13.8796 7.95802 13.8796C7.89464 13.9249 7.84031 13.9792 7.77693 14.0245C7.71355 14.0788 7.65922 14.1241 7.59584 14.1694C7.47813 14.269 7.35137 14.3595 7.23366 14.4591C6.99824 14.6493 6.76282 14.8575 6.56361 15.0839C6.53645 15.1111 6.55456 15.2288 6.59078 15.1835C6.78998 14.9481 7.0254 14.7489 7.26988 14.5497C7.38759 14.4591 7.50529 14.3595 7.623 14.269C7.7226 14.1875 7.83126 14.1151 7.9218 14.0245C7.9218 14.0245 7.93086 14.0245 7.93086 14.0155C7.95802 13.9973 7.97613 13.9973 7.98519 13.9611C8.01235 13.9521 8.0033 13.9159 7.98519 13.8887Z" fill="black"/>
<path d="M7.2788 14.9843C7.10676 14.9662 6.93472 15.0567 6.78984 15.1473C6.64497 15.2469 6.50915 15.3646 6.4005 15.5094C6.38239 15.5275 6.38239 15.5638 6.39145 15.5819C6.4005 15.6 6.40955 15.6181 6.42766 15.6C6.64497 15.3283 6.94378 15.1382 7.2788 15.0567C7.30596 15.0567 7.30596 14.9843 7.2788 14.9843Z" fill="black"/>
<path d="M7.03446 15.3554C6.98013 15.3464 6.91675 15.3916 6.87148 15.4188C6.81715 15.455 6.76282 15.4912 6.71755 15.5275C6.61795 15.609 6.5274 15.6995 6.44591 15.7991C6.4278 15.8172 6.4278 15.8534 6.43686 15.8715C6.44591 15.8896 6.45496 15.9078 6.47307 15.8896C6.55456 15.7991 6.63606 15.7086 6.73566 15.6271C6.78093 15.5908 6.83526 15.5546 6.88053 15.5184C6.90769 15.5003 6.93486 15.4912 6.95297 15.4731C6.98013 15.455 7.00729 15.446 7.03446 15.4279C7.05257 15.4098 7.06162 15.3554 7.03446 15.3554Z" fill="black"/>
<path d="M6.82626 15.7539C6.77193 15.763 6.72666 15.7901 6.68139 15.8082C6.63611 15.8354 6.59084 15.8626 6.55462 15.8988C6.47313 15.9622 6.39164 16.0437 6.3192 16.1161C6.30109 16.1342 6.30109 16.1704 6.31015 16.1976C6.3192 16.2157 6.32825 16.2429 6.35542 16.2157C6.42786 16.1433 6.50029 16.0708 6.58178 16.0074C6.618 15.9803 6.66328 15.9441 6.70855 15.9169C6.75382 15.8897 6.7991 15.8626 6.84437 15.8354C6.86248 15.8263 6.86248 15.7992 6.86248 15.7901C6.85342 15.7811 6.84437 15.7539 6.82626 15.7539Z" fill="black"/>
<path d="M6.31892 16.3513C6.31892 16.3422 6.30986 16.315 6.29175 16.3241C6.24648 16.3513 6.20121 16.3965 6.16499 16.4327C6.12877 16.478 6.09255 16.5233 6.06538 16.5776C6.05633 16.6048 6.05633 16.641 6.06538 16.6682C6.07444 16.6772 6.07444 16.6863 6.08349 16.6863C6.09255 16.6863 6.10161 16.6772 6.10161 16.6682C6.11066 16.6591 6.11066 16.641 6.11972 16.6319C6.11972 16.6319 6.11971 16.6229 6.12877 16.6229C6.12877 16.6138 6.13783 16.6138 6.13783 16.6048C6.15593 16.5867 6.16499 16.5595 6.1831 16.5414C6.21932 16.4961 6.25553 16.4599 6.29175 16.4237C6.31891 16.4056 6.31892 16.3784 6.31892 16.3513Z" fill="black"/>
<path d="M8.98103 15.5726C8.97197 15.5635 8.96292 15.5454 8.95386 15.5635C8.95386 15.5635 8.95387 15.5635 8.94481 15.5635V15.5545C8.93576 15.5364 8.9267 15.5273 8.9267 15.5092C8.9267 15.5092 8.9267 15.5001 8.91764 15.5001C8.9267 15.5183 8.91764 15.5002 8.91764 15.4911C8.91764 15.482 8.90859 15.473 8.90859 15.4639C8.88143 15.3824 8.86332 15.2919 8.83616 15.2013C8.8271 15.1832 8.80899 15.1561 8.79088 15.1742C8.77277 15.1923 8.77277 15.2376 8.78183 15.2647C8.79993 15.3372 8.81805 15.4187 8.83616 15.4911C8.84521 15.5273 8.86332 15.5635 8.87237 15.5998C8.88143 15.6269 8.89953 15.6541 8.91764 15.6631C8.94481 15.6812 8.96292 15.6541 8.98103 15.636C8.98103 15.6088 8.98103 15.5907 8.98103 15.5726Z" fill="black"/>
<path d="M9.18022 15.437C9.16211 15.4099 9.144 15.3827 9.12589 15.3646C9.10778 15.3284 9.08967 15.2922 9.07156 15.2559C9.02629 15.1745 8.99007 15.0839 8.93574 15.0115C8.91763 14.9843 8.89952 15.0205 8.89047 15.0386C8.88141 15.0658 8.88142 15.102 8.89953 15.1292C8.95385 15.2016 8.99007 15.2831 9.03534 15.3646C9.05345 15.4008 9.07156 15.437 9.08967 15.4733C9.10778 15.5004 9.12589 15.5366 9.16211 15.5366C9.18021 15.5366 9.18021 15.5095 9.18927 15.5004C9.18927 15.4733 9.18927 15.4551 9.18022 15.437Z" fill="black"/>
<path d="M9.3433 15.3196C9.32519 15.2743 9.29803 15.2291 9.27087 15.1838C9.25276 15.1385 9.22559 15.0933 9.20748 15.048C9.17126 14.9574 9.13505 14.8578 9.10788 14.7582C9.09883 14.7401 9.08072 14.713 9.06261 14.7311C9.0445 14.7492 9.0445 14.7945 9.05355 14.8216C9.08977 14.9303 9.12599 15.0299 9.16221 15.1295C9.18032 15.1747 9.20748 15.2291 9.22559 15.2743C9.2437 15.3196 9.27087 15.3739 9.30709 15.4011C9.3252 15.4102 9.33425 15.4011 9.3433 15.3921C9.35236 15.3558 9.35236 15.3377 9.3433 15.3196Z" fill="black"/>
<path d="M9.58771 15.0659C9.5696 15.0116 9.53338 14.9663 9.50621 14.9211C9.47905 14.8667 9.46095 14.8124 9.44284 14.7581C9.40662 14.6404 9.37945 14.5226 9.34323 14.414C9.33418 14.3959 9.31607 14.3687 9.29796 14.3868C9.27985 14.4049 9.27985 14.4502 9.28891 14.4774C9.32513 14.5951 9.35229 14.7219 9.38851 14.8396C9.40661 14.9029 9.42473 14.9573 9.45189 15.0116C9.46094 15.0388 9.47905 15.0659 9.49716 15.084C9.51527 15.1021 9.52432 15.1384 9.55149 15.1384C9.60581 15.1655 9.59676 15.084 9.58771 15.0659Z" fill="black"/>
<path d="M9.82313 14.812C9.78691 14.7848 9.7688 14.7305 9.75069 14.6852C9.72353 14.6037 9.69637 14.5222 9.67826 14.4408C9.64204 14.2868 9.60582 14.1057 9.60582 13.9518C9.60582 13.9337 9.59677 13.8884 9.57866 13.8884C9.55149 13.8884 9.54244 13.9337 9.55149 13.9518C9.55149 14.142 9.59676 14.3321 9.64204 14.5132C9.6692 14.6037 9.68731 14.6943 9.72353 14.7848C9.74164 14.8211 9.7688 14.9116 9.82313 14.9025C9.85029 14.9025 9.85029 14.8301 9.82313 14.812Z" fill="black"/>
<path d="M10.0494 14.7672C10.0494 14.7491 10.0404 14.7401 10.0313 14.7401C10.0042 14.5771 9.9589 14.4232 9.92268 14.2602C9.88647 14.0519 9.85025 13.8437 9.85025 13.6354C9.85025 13.6173 9.84119 13.572 9.81403 13.572C9.78686 13.572 9.78687 13.6173 9.78687 13.6354C9.78687 13.8527 9.82308 14.07 9.8593 14.2873C9.90457 14.5046 9.94079 14.722 9.99512 14.9302C10.0132 14.9936 10.0494 14.9393 10.0494 14.903C10.0494 14.8487 10.0494 14.8034 10.0494 14.7672Z" fill="black"/>
<path d="M10.3394 14.7125C10.3303 14.6763 10.3303 14.6491 10.3303 14.6129C10.3303 14.5857 10.3122 14.5676 10.3032 14.5676C10.2488 14.3594 10.2126 14.1511 10.1855 13.9247C10.1583 13.6712 10.1402 13.4086 10.0859 13.1551C10.0859 13.137 10.0768 13.1008 10.0496 13.1098C10.0225 13.1189 10.0225 13.1732 10.0315 13.1913C10.0768 13.4539 10.104 13.7255 10.1311 13.9881C10.1583 14.2507 10.1945 14.5133 10.2851 14.7578C10.2941 14.7759 10.3122 14.7759 10.3213 14.7668C10.3484 14.7668 10.3484 14.7306 10.3394 14.7125Z" fill="black"/>
<path d="M10.5928 14.3505C10.5837 14.1966 10.5747 14.0427 10.5565 13.8887C10.5294 13.5809 10.4932 13.264 10.466 12.9561C10.466 12.938 10.4479 12.9018 10.4298 12.9109C10.4026 12.9199 10.4026 12.9742 10.4117 12.9923C10.4388 13.2911 10.475 13.5899 10.5022 13.8887C10.5203 14.0336 10.5294 14.1875 10.5384 14.3415C10.5475 14.4773 10.5384 14.6041 10.5384 14.7399C10.5384 14.767 10.5746 14.8214 10.5837 14.767C10.6109 14.6312 10.5928 14.4863 10.5928 14.3505Z" fill="black"/>
<path d="M10.9459 13.083C10.9277 13.0649 10.9096 13.083 10.9006 13.1101C10.8372 13.3999 10.8281 13.7077 10.8372 14.0065C10.8372 14.1605 10.8463 14.3053 10.8463 14.4593C10.8463 14.5227 10.8553 14.586 10.8553 14.6585C10.8553 14.7219 10.8553 14.7852 10.8644 14.8396C10.8734 14.8939 10.9096 14.8939 10.9187 14.8396C10.9278 14.7852 10.9187 14.7219 10.9187 14.6675C10.9187 14.6041 10.9187 14.5408 10.9096 14.4774C10.9006 14.3325 10.9006 14.1876 10.9006 14.0428C10.9006 13.753 10.9006 13.4542 10.9549 13.1735C10.9549 13.1464 10.964 13.1011 10.9459 13.083Z" fill="black"/>
<path d="M11.1812 13.7799C11.0997 14.1783 11.154 14.5858 11.0997 14.9842C11.0816 14.9842 11.0635 15.0023 11.0635 15.0295C11.0635 15.0928 11.0544 15.1562 11.0544 15.2196C11.0544 15.2649 11.0907 15.3102 11.1088 15.2468C11.2446 14.7759 11.145 14.287 11.2355 13.8071C11.2536 13.7528 11.1993 13.6894 11.1812 13.7799Z" fill="black"/>
<path d="M11.5073 14.0969C11.4802 14.0878 11.4711 14.1241 11.4711 14.1422C11.453 14.3414 11.4349 14.5496 11.4168 14.7579C11.4077 14.8575 11.3987 14.9571 11.3987 15.0476C11.3987 15.0657 11.3987 15.0929 11.3987 15.111C11.3987 15.1291 11.3987 15.1472 11.3987 15.1472C11.3987 15.1563 11.3987 15.1653 11.3987 15.1744C11.3987 15.1834 11.3987 15.2378 11.3987 15.1834C11.3987 15.1925 11.3987 15.2287 11.4168 15.2287C11.4258 15.2287 11.4349 15.2197 11.4349 15.2015C11.4349 15.2106 11.4349 15.2016 11.4349 15.1925C11.4349 15.1834 11.4349 15.1653 11.4349 15.1744C11.444 15.1382 11.444 15.111 11.453 15.0748C11.4621 14.9752 11.4711 14.8756 11.4711 14.785C11.4892 14.5858 11.4983 14.3866 11.5254 14.1874C11.5345 14.1603 11.5345 14.115 11.5073 14.0969Z" fill="black"/>
<path d="M11.7337 14.6403C11.7428 14.6132 11.7428 14.5769 11.7247 14.5498C11.7065 14.5317 11.6884 14.5498 11.6794 14.5769C11.6069 14.8848 11.5798 15.2198 11.5888 15.5367C11.5888 15.5639 11.616 15.6363 11.6432 15.582C11.6613 15.5367 11.6794 15.5005 11.6884 15.4552C11.6884 15.4371 11.6975 15.41 11.6794 15.3918C11.6703 15.3828 11.6613 15.3828 11.6522 15.3828C11.6522 15.2832 11.6522 15.1836 11.6613 15.084C11.6794 14.9391 11.6975 14.7942 11.7337 14.6403Z" fill="black"/>
<path d="M12.0596 15.2558C12.0687 15.2286 12.0687 15.1924 12.0506 15.1652C12.0325 15.1471 12.0144 15.1653 12.0053 15.1924C11.9782 15.3011 11.96 15.4097 11.96 15.5184C11.951 15.627 11.951 15.7357 11.9691 15.8443C11.9691 15.8625 11.9782 15.8896 12.0053 15.8896C12.0234 15.8806 12.0325 15.8443 12.0325 15.8353C12.0415 15.7357 12.0325 15.6361 12.0325 15.5455C12.0234 15.4459 12.0325 15.3463 12.0596 15.2558Z" fill="black"/>
<path d="M12.1593 15.0386C12.1412 15.0386 12.1412 15.0929 12.1593 15.0929C12.1774 15.0929 12.1774 15.0386 12.1593 15.0386Z" fill="black"/>
<path d="M12.2951 15.3376C12.277 15.3195 12.2589 15.3376 12.2498 15.3648C12.2227 15.4644 12.2227 15.573 12.2227 15.6817C12.2136 15.7994 12.2136 15.9171 12.2136 16.0258C12.2136 16.0529 12.2136 16.0801 12.2136 16.1073C12.2136 16.1163 12.2136 16.1254 12.2136 16.1344C12.2227 16.1525 12.2317 16.1706 12.2498 16.1525C12.268 16.1344 12.2679 16.0982 12.2679 16.071C12.277 16.0167 12.277 15.9714 12.277 15.9171C12.277 15.8537 12.277 15.7903 12.2861 15.736C12.2861 15.6998 12.2861 15.6726 12.2951 15.6364C12.2951 15.6183 12.2951 15.6092 12.2951 15.5911C12.2951 15.573 12.2951 15.573 12.2951 15.5549C12.2951 15.5278 12.2951 15.5006 12.3042 15.4734C12.3042 15.4644 12.3042 15.4553 12.3042 15.4372C12.3042 15.4282 12.3042 15.4282 12.3042 15.4191C12.3132 15.3919 12.3132 15.3557 12.2951 15.3376Z" fill="black"/>
<path d="M12.6029 15.5728C12.5757 15.5728 12.5667 15.618 12.5667 15.6361V16.0074C12.5667 16.0617 12.5667 16.1251 12.5667 16.1794C12.5667 16.2247 12.5666 16.27 12.5757 16.3062C12.5848 16.3333 12.6029 16.3333 12.6119 16.3062C12.621 16.27 12.621 16.2247 12.621 16.1794C12.621 16.116 12.621 16.0617 12.621 15.9983V15.6271C12.6391 15.618 12.63 15.5728 12.6029 15.5728Z" fill="black"/>
<path d="M12.766 15.446C12.7479 15.446 12.7479 15.5004 12.766 15.5004C12.7932 15.5004 12.7932 15.446 12.766 15.446Z" fill="black"/>
<path d="M12.8654 15.8264C12.8473 15.8083 12.8292 15.8264 12.8202 15.8535C12.784 15.9984 12.7749 16.1433 12.7749 16.2882C12.7749 16.3606 12.7749 16.424 12.7749 16.4964C12.7749 16.5417 12.7749 16.596 12.784 16.6413C12.793 16.6685 12.8202 16.6685 12.8292 16.6413C12.8473 16.596 12.8383 16.5507 12.8383 16.5055C12.8383 16.4421 12.8383 16.3787 12.8383 16.3063C12.8383 16.1795 12.8383 16.0437 12.8745 15.9169C12.8836 15.8898 12.8926 15.8445 12.8654 15.8264Z" fill="black"/>
<path d="M13.1553 15.5454C13.1372 15.5273 13.1191 15.5454 13.11 15.5725C13.0647 15.7808 13.0738 15.9981 13.0828 16.2154C13.0919 16.3875 13.11 16.5957 13.0376 16.7677C13.0285 16.7859 13.0376 16.8673 13.0647 16.8402C13.1191 16.7859 13.1281 16.6953 13.1372 16.6229C13.1462 16.5142 13.1462 16.4146 13.1462 16.306C13.1462 16.0887 13.1191 15.8623 13.1643 15.645C13.1734 15.5997 13.1734 15.5635 13.1553 15.5454Z" fill="black"/>
<path d="M13.5174 15.3737C13.4903 15.3647 13.4812 15.4009 13.4812 15.419C13.4359 15.6816 13.4178 15.9623 13.4088 16.2249C13.3997 16.3607 13.3997 16.4875 13.3997 16.6233C13.3997 16.7319 13.3907 16.8496 13.4088 16.9583C13.4178 17.0036 13.445 17.0036 13.4541 16.9583C13.4722 16.8496 13.4631 16.741 13.4631 16.6323C13.4631 16.4965 13.4631 16.3697 13.4722 16.2339C13.4812 15.9713 13.4993 15.6997 13.5446 15.4371C13.5446 15.4281 13.5446 15.3828 13.5174 15.3737Z" fill="black"/>
<path d="M13.8434 15.6997C13.8162 15.6906 13.8072 15.7268 13.8072 15.7449C13.7619 15.9894 13.7438 16.2339 13.7257 16.4874C13.7166 16.6142 13.7076 16.7319 13.7076 16.8587C13.6985 16.9583 13.6895 17.0579 13.6895 17.1665C13.6895 17.1937 13.7257 17.248 13.7347 17.1937C13.7619 17.1031 13.7619 16.9945 13.7619 16.9039C13.7709 16.7772 13.78 16.6595 13.78 16.5327C13.7981 16.2882 13.8162 16.0347 13.8615 15.7902C13.8705 15.754 13.8705 15.7087 13.8434 15.6997Z" fill="black"/>
<path d="M14.097 16.4419C14.0789 16.4238 14.0608 16.4419 14.0517 16.469C13.9702 16.7859 14.0155 17.1119 14.0064 17.4379C13.9883 17.4288 13.9793 17.4922 13.9793 17.5103C13.9793 17.5012 13.9702 17.5375 13.9702 17.5465C13.9702 17.5646 13.9702 17.5737 13.9793 17.5918C13.9883 17.619 14.0064 17.619 14.0336 17.6008C14.0698 17.5646 14.0698 17.5012 14.0698 17.456C14.0698 17.3926 14.0698 17.3292 14.0698 17.2749C14.0698 17.0304 14.0517 16.7859 14.106 16.5415C14.1151 16.5052 14.1151 16.46 14.097 16.4419Z" fill="black"/>
<path d="M14.3594 17.7641H14.3503C14.3503 17.746 14.3413 17.7279 14.3413 17.7098C14.3413 17.7098 14.3413 17.7098 14.3413 17.7008C14.3413 17.6917 14.3413 17.6917 14.3413 17.6826C14.3413 17.6645 14.3413 17.6555 14.3413 17.6374C14.3413 17.5106 14.3503 17.3929 14.3594 17.2661C14.3594 17.2118 14.3685 17.1575 14.3685 17.1122C14.3685 17.0941 14.3594 17.0488 14.3413 17.0488C14.3141 17.0488 14.3141 17.0941 14.3141 17.1122C14.3141 17.2299 14.3051 17.3567 14.296 17.4744C14.296 17.5378 14.287 17.6102 14.296 17.6736C14.296 17.7279 14.296 17.7822 14.3232 17.8366C14.3413 17.8728 14.3775 17.8909 14.4047 17.8547C14.3956 17.8366 14.3956 17.746 14.3594 17.7641Z" fill="black"/>
<path d="M14.622 18.0082C14.622 18.0082 14.6129 18.0082 14.622 18.0082C14.6129 17.9992 14.6129 17.9992 14.6129 17.9901C14.6129 17.9901 14.6129 17.9811 14.6039 17.972C14.6039 17.972 14.6039 17.972 14.6039 17.963V17.9539C14.6039 17.9449 14.6039 17.9358 14.6039 17.9177V17.9086C14.6039 17.8996 14.6039 17.8996 14.6039 17.8905C14.6039 17.8634 14.6039 17.8362 14.6039 17.809C14.6039 17.7004 14.6129 17.5827 14.6129 17.474C14.6129 17.4559 14.6039 17.4106 14.5858 17.4106C14.5586 17.4106 14.5586 17.4559 14.5586 17.474C14.5586 17.6008 14.5496 17.7185 14.5496 17.8453C14.5496 17.9086 14.5496 17.963 14.5677 18.0264C14.5767 18.0535 14.5858 18.0716 14.6039 18.0897L14.6129 18.0988C14.622 18.0988 14.6311 18.0988 14.6311 18.0988C14.6401 18.0988 14.6492 18.0173 14.622 18.0082Z" fill="black"/>
<path d="M14.8847 18.2169C14.8756 18.1626 14.8756 18.1173 14.8666 18.063C14.8485 17.9543 14.8304 17.8456 14.8032 17.737C14.7941 17.7189 14.776 17.6917 14.7579 17.7098C14.7398 17.7279 14.7398 17.7732 14.7489 17.8004C14.7579 17.8456 14.767 17.8819 14.776 17.9271C14.7851 17.9815 14.7941 18.0358 14.8032 18.0901C14.8122 18.1354 14.8122 18.1897 14.8213 18.235C14.8213 18.2531 14.8213 18.2712 14.8304 18.2803C14.8304 18.2893 14.8304 18.2984 14.8394 18.3074V18.3165C14.8485 18.3255 14.8575 18.3527 14.8666 18.3346C14.8937 18.3074 14.8937 18.2531 14.8847 18.2169Z" fill="black"/>
<path d="M15.4188 18.9323C15.4007 18.878 15.3826 18.8327 15.3645 18.7783C15.3464 18.7331 15.3373 18.6878 15.3283 18.6425C15.3101 18.5429 15.3011 18.4433 15.3011 18.3437C15.3011 18.3256 15.292 18.2803 15.2739 18.2803C15.2468 18.2803 15.2468 18.3256 15.2468 18.3437C15.2468 18.389 15.2468 18.4343 15.2558 18.4795C15.2558 18.4705 15.2468 18.4705 15.2468 18.4614C15.2468 18.4614 15.2468 18.4614 15.2377 18.4524L15.2287 18.4433C15.2287 18.4433 15.2287 18.4433 15.2287 18.4343C15.2287 18.4343 15.2287 18.4252 15.2196 18.4162C15.2196 18.4071 15.2105 18.4071 15.2105 18.3981V18.389C15.2105 18.3799 15.2015 18.3709 15.2015 18.3709C15.1924 18.3528 15.1924 18.3347 15.1834 18.3166C15.1653 18.2441 15.1562 18.1536 15.1381 18.0721C15.1381 18.054 15.12 18.0178 15.1019 18.0268C15.0747 18.0359 15.0747 18.0811 15.0838 18.1083C15.1019 18.2079 15.12 18.2985 15.1381 18.3981C15.1472 18.4343 15.1562 18.4795 15.1834 18.5067C15.1924 18.5248 15.2105 18.5429 15.2377 18.5429C15.2468 18.5429 15.2558 18.5248 15.2558 18.5158C15.2649 18.5701 15.2649 18.6154 15.283 18.6697C15.292 18.724 15.3101 18.7783 15.3192 18.8327C15.3373 18.887 15.3554 18.9413 15.3826 18.9866C15.3916 19.0047 15.4098 19.0047 15.4188 18.9866C15.4279 18.9775 15.4188 18.9504 15.4188 18.9323Z" fill="black"/>
<path d="M14.1604 8.60055C14.1423 8.58244 14.1242 8.60055 14.1151 8.62772C14.0698 8.78165 14.0065 8.93557 13.9431 9.08045C13.8797 9.22532 13.7982 9.37019 13.7348 9.51507C13.7258 9.54223 13.7258 9.56939 13.7348 9.59655C13.7439 9.61466 13.762 9.63277 13.771 9.61467C13.771 9.61467 13.771 9.60561 13.7801 9.60561C13.7801 9.59656 13.7891 9.59656 13.7891 9.5875C13.7982 9.56939 13.8073 9.55128 13.8163 9.54223C13.8797 9.41547 13.9431 9.2887 13.9974 9.16194C14.0698 9.00801 14.1332 8.85408 14.1785 8.70015C14.1785 8.66394 14.1785 8.61866 14.1604 8.60055Z" fill="black"/>
<path d="M14.4772 8.62787C14.4681 8.60976 14.45 8.58259 14.4319 8.6007C14.3232 8.75463 14.2327 8.91761 14.1512 9.0806C14.0788 9.22547 14.0063 9.37034 13.9339 9.52427C13.9248 9.54238 13.9067 9.55143 13.8977 9.5786C13.8886 9.60576 13.8886 9.64198 13.8977 9.66914C13.9067 9.69631 13.9248 9.71441 13.9429 9.6782C14.0335 9.52427 14.0969 9.35223 14.1784 9.18925C14.2598 9.02626 14.3504 8.86328 14.45 8.70935C14.4772 8.68219 14.4862 8.65503 14.4772 8.62787Z" fill="black"/>
<path d="M14.7488 8.66436C14.7397 8.64625 14.7125 8.6372 14.7035 8.66436C14.4681 9.19858 14.124 9.66942 13.9338 10.2218C13.9157 10.267 13.961 10.3666 13.9882 10.2851C14.0063 10.2308 14.0516 10.1765 14.0787 10.1222C14.0878 10.104 14.0878 10.0769 14.0787 10.0588C14.2779 9.61509 14.5496 9.19858 14.7488 8.75491C14.7578 8.72774 14.7669 8.69152 14.7488 8.66436Z" fill="black"/>
<path d="M15.0747 8.63702C15.0656 8.61891 15.0385 8.60985 15.0294 8.63702C14.9389 8.84527 14.8574 9.06258 14.7759 9.27989C14.6944 9.4972 14.5948 9.6964 14.4952 9.90466C14.4862 9.92277 14.4862 10.0405 14.5314 10.0043C14.5586 9.97709 14.5767 9.94088 14.5858 9.90466C14.6763 9.73262 14.7487 9.55153 14.8212 9.37044C14.9027 9.15313 14.9842 8.94487 15.0747 8.72756C15.0928 8.7004 15.0928 8.66418 15.0747 8.63702Z" fill="black"/>
<path d="M15.2739 8.74566C15.2649 8.72755 15.2377 8.7185 15.2287 8.74566C15.1653 8.89053 15.1019 9.02635 15.0385 9.17123C14.9751 9.30705 14.9027 9.44286 14.8484 9.58774C14.8393 9.60584 14.8484 9.7145 14.8936 9.66923C14.9208 9.64206 14.9299 9.6149 14.9389 9.58774C14.9932 9.47908 15.0385 9.36137 15.0928 9.24366C15.1562 9.10784 15.2196 8.97202 15.283 8.82715C15.283 8.80904 15.283 8.77282 15.2739 8.74566Z" fill="black"/>
<path d="M15.5367 8.65528C15.4371 8.74582 15.3737 8.87258 15.3284 8.99935C15.3013 9.06273 15.2741 9.13517 15.247 9.19855C15.2198 9.26193 15.1926 9.32531 15.1745 9.3887C15.1655 9.4068 15.1655 9.43397 15.1745 9.46113C15.1836 9.47924 15.2017 9.47924 15.2198 9.46113C15.2288 9.45208 15.2288 9.44302 15.2379 9.43397C15.247 9.42491 15.256 9.40681 15.2651 9.39775C15.2741 9.3887 15.2741 9.37059 15.2741 9.35248C15.2832 9.33437 15.2922 9.30721 15.2922 9.2891C15.3194 9.22572 15.3375 9.16233 15.3647 9.09895C15.419 8.98124 15.4733 8.86353 15.5639 8.77298C15.6001 8.73677 15.582 8.61906 15.5367 8.65528Z" fill="black"/>
<path d="M15.7087 8.73678C15.6906 8.71867 15.6725 8.73679 15.6634 8.76395C15.591 8.96315 15.4914 9.14424 15.4008 9.32533C15.3918 9.35249 15.3918 9.38871 15.4008 9.41587C15.4099 9.43398 15.4371 9.44304 15.4461 9.41587C15.4642 9.3706 15.4914 9.33438 15.5185 9.29817C15.5185 9.28911 15.5185 9.28911 15.5185 9.28006C15.591 9.13518 15.6634 8.98125 15.7177 8.82733C15.7268 8.80016 15.7268 8.75489 15.7087 8.73678Z" fill="black"/>
<path d="M15.935 8.77276C15.9259 8.7456 15.8988 8.75465 15.8897 8.77276C15.8625 8.82709 15.8354 8.88141 15.8082 8.93574C15.7901 8.97196 15.772 9.00818 15.7539 9.0444C15.7448 9.06251 15.7358 9.07156 15.7358 9.08967C15.7358 9.09872 15.7267 9.09873 15.7267 9.10778C15.7267 9.11683 15.7177 9.12589 15.7177 9.13494C15.7086 9.13494 15.7086 9.144 15.7086 9.144C15.6995 9.1621 15.6905 9.18021 15.6996 9.20738C15.6996 9.22549 15.7177 9.25265 15.7358 9.2436C15.7448 9.23454 15.7448 9.23454 15.7539 9.22549C15.7539 9.22549 15.7539 9.22549 15.7539 9.21644C15.7539 9.21644 15.7539 9.21643 15.7629 9.20738C15.772 9.19832 15.772 9.18927 15.781 9.18022C15.8173 9.10778 15.8535 9.02629 15.8988 8.95385C15.9169 8.92669 15.9259 8.89047 15.944 8.8633C15.944 8.8452 15.944 8.79992 15.935 8.77276Z" fill="black"/>
<path d="M16.125 8.65521C16.1069 8.6371 16.0888 8.65521 16.0798 8.67332C16.0617 8.74575 16.0345 8.81819 16.0073 8.88157C15.9983 8.91779 15.9802 8.95401 15.9711 8.99023C15.9711 8.99023 15.9711 8.99928 15.9621 9.00833C15.9621 9.00833 15.9621 9.00833 15.9621 9.01739C15.9621 9.02644 15.953 9.0355 15.953 9.04455C15.944 9.06266 15.9349 9.08077 15.9258 9.08983C15.9258 9.08983 15.9258 9.09888 15.9168 9.09888C15.9168 9.10793 15.9168 9.10793 15.9077 9.11699C15.9077 9.10793 15.9077 9.10794 15.9077 9.12605C15.9077 9.1351 15.8987 9.14415 15.8987 9.15321C15.8987 9.17132 15.8987 9.24375 15.9349 9.22564C15.953 9.21659 15.9621 9.18943 15.9711 9.18037C15.9711 9.18037 15.9711 9.17132 15.9802 9.16226C15.9983 9.1351 16.0073 9.10794 16.0164 9.08077C16.0526 8.97212 16.0888 8.86346 16.125 8.7548C16.1432 8.71859 16.1432 8.67332 16.125 8.65521Z" fill="black"/>
<path d="M16.4058 8.60992C16.3968 8.59181 16.3696 8.58275 16.3606 8.60992C16.3334 8.6733 16.3062 8.74574 16.2881 8.81817C16.2791 8.85439 16.27 8.89061 16.27 8.92683C16.27 8.95399 16.27 8.99926 16.2972 9.00832C16.3062 9.01737 16.3153 8.99927 16.3244 8.99021C16.3244 8.98116 16.3334 8.9721 16.3244 8.96304V8.95399V8.94494C16.3334 8.91777 16.3334 8.89061 16.3425 8.8725C16.3515 8.84533 16.3606 8.81817 16.3696 8.79101C16.3787 8.7729 16.3787 8.76385 16.3877 8.74574V8.73668C16.3877 8.74573 16.3877 8.73668 16.3877 8.73668L16.3968 8.71857C16.4149 8.6733 16.4149 8.63708 16.4058 8.60992Z" fill="black"/>
<path d="M16.5688 8.66435C16.5597 8.6553 16.5597 8.64624 16.5507 8.64624C16.5416 8.64624 16.5326 8.6553 16.5326 8.66435C16.5235 8.69151 16.5054 8.72773 16.4964 8.7549C16.4873 8.78206 16.4782 8.80923 16.4692 8.83639C16.4601 8.87261 16.4601 8.90882 16.4692 8.93599C16.4782 8.9541 16.4873 8.98126 16.5054 8.97221C16.5235 8.97221 16.5235 8.94504 16.5326 8.92694C16.5326 8.91788 16.5326 8.90883 16.5326 8.89977C16.5326 8.89072 16.5416 8.88166 16.5416 8.8726C16.5416 8.86355 16.5507 8.8545 16.5507 8.84544C16.5507 8.83639 16.5507 8.83639 16.5597 8.82733V8.81828C16.5688 8.79112 16.5778 8.77301 16.5869 8.74584C16.5778 8.72773 16.5869 8.69151 16.5688 8.66435Z" fill="black"/>
<path d="M16.8405 8.60991C16.8315 8.60085 16.8315 8.5918 16.8224 8.5918C16.8134 8.5918 16.8043 8.60085 16.8043 8.60991C16.7771 8.66423 16.759 8.71856 16.759 8.77289C16.759 8.80005 16.759 8.83627 16.759 8.87249C16.759 8.89965 16.7681 8.93587 16.7952 8.95398C16.8043 8.96303 16.8134 8.95398 16.8224 8.94493C16.8315 8.93587 16.8315 8.91776 16.8315 8.89966C16.8315 8.88155 16.8315 8.86343 16.8224 8.84532C16.8224 8.86343 16.8224 8.84532 16.8224 8.84532C16.8224 8.84532 16.8224 8.83627 16.8224 8.82721C16.8224 8.82721 16.8224 8.82722 16.8224 8.81816V8.80911V8.80005C16.8224 8.80005 16.8224 8.80005 16.8224 8.791C16.8224 8.78194 16.8224 8.77289 16.8224 8.76384V8.75478C16.8224 8.74572 16.8224 8.74572 16.8315 8.73667V8.72762V8.71856C16.8405 8.70951 16.8405 8.70045 16.8496 8.6914C16.8586 8.67329 16.8586 8.63707 16.8405 8.60991Z" fill="black"/>
<path d="M17.0035 8.65514C17.0035 8.64609 16.9945 8.63703 16.9854 8.64608C16.9763 8.64608 16.9763 8.65514 16.9673 8.65514C16.9401 8.70947 16.922 8.77285 16.9311 8.83623C16.9311 8.84529 16.9401 8.87245 16.9582 8.8634C16.9763 8.8634 16.9763 8.83623 16.9763 8.81812C16.9763 8.80907 16.9763 8.79096 16.9763 8.7819V8.77285C16.9763 8.7638 16.9763 8.76379 16.9763 8.75474V8.74569C16.9763 8.73663 16.9763 8.73663 16.9854 8.72758V8.71852C16.9854 8.70947 16.9944 8.70947 16.9944 8.70041C17.0035 8.69136 17.0035 8.6823 17.0035 8.66419C17.0126 8.67325 17.0126 8.6642 17.0035 8.65514Z" fill="black"/>
<path d="M13.7529 8.71856C13.7438 8.70045 13.7166 8.6914 13.7076 8.71856C13.5899 8.95398 13.5265 9.23467 13.3545 9.44293C13.3545 9.43387 13.3545 9.43387 13.3635 9.42482C13.3726 9.40671 13.3545 9.32521 13.3273 9.37049C13.2911 9.43387 13.273 9.50631 13.2639 9.56969C13.2639 9.57874 13.273 9.66929 13.3001 9.65118C13.4178 9.55158 13.4993 9.39765 13.5627 9.26184C13.6261 9.11696 13.6804 8.96303 13.7529 8.81816C13.7619 8.78194 13.771 8.74572 13.7529 8.71856Z" fill="black"/>
<path d="M13.454 8.59192C13.3635 8.84545 13.2548 9.08087 13.119 9.31629C13.0013 9.52454 12.8655 9.70564 12.7297 9.89578C12.7387 9.86862 12.7116 9.79618 12.6934 9.85051C12.6753 9.90484 12.6572 9.95916 12.6572 10.0135C12.6572 10.0316 12.6663 10.1131 12.7025 10.0769C12.793 9.98633 12.8745 9.87767 12.947 9.76902C13.0285 9.65131 13.1009 9.52454 13.1733 9.39778C13.3092 9.16236 13.4269 8.90883 13.5174 8.6553C13.5265 8.61908 13.4812 8.51948 13.454 8.59192Z" fill="black"/>
<path d="M13.1733 8.68265C13.1733 8.67359 13.1552 8.64643 13.1371 8.66454C12.956 8.92712 12.8112 9.20782 12.6572 9.48851C12.5848 9.62433 12.5033 9.7692 12.4218 9.90502C12.3765 9.97746 12.3313 10.0408 12.286 10.1042C12.2679 10.1314 12.2498 10.1495 12.2317 10.1767C12.2317 10.1495 12.2136 10.1133 12.2045 10.1404C12.1773 10.1948 12.1592 10.2491 12.1411 10.3034C12.1411 10.3125 12.1411 10.394 12.1683 10.3759C12.2226 10.3306 12.2679 10.2581 12.3131 10.2038C12.3584 10.1495 12.3946 10.0861 12.4309 10.0227C12.5214 9.88691 12.5938 9.74203 12.6753 9.59716C12.8293 9.30741 12.9741 9.01767 13.1643 8.74603C13.1733 8.73698 13.1824 8.70981 13.1733 8.68265Z" fill="black"/>
<path d="M12.775 8.53737C12.612 8.7909 12.458 9.06254 12.3222 9.33417C12.1864 9.59676 12.0415 9.85028 11.9057 10.1129C11.8967 10.1219 11.8786 10.131 11.8695 10.14C11.8514 10.1581 11.8514 10.1944 11.8604 10.2125C11.8967 10.2759 11.9329 10.1944 11.951 10.1672C11.9963 10.0948 12.0325 10.0223 12.0778 9.94988C12.1592 9.80501 12.2407 9.65108 12.3132 9.49715C12.4671 9.19835 12.6301 8.89955 12.8112 8.60981C12.8293 8.58264 12.8021 8.4921 12.775 8.53737Z" fill="black"/>
<path d="M12.3403 8.59195C12.3312 8.57384 12.3131 8.57384 12.304 8.59195C12.1592 8.90886 11.969 9.19861 11.797 9.49741C11.6521 9.75094 11.4982 10.0045 11.3895 10.2761C11.3805 10.2761 11.3805 10.2761 11.3714 10.2942C11.3533 10.3395 11.3352 10.3848 11.3352 10.43C11.3352 10.4481 11.3533 10.5387 11.3805 10.4844C11.5163 10.1675 11.6702 9.86865 11.8423 9.56985C12.0143 9.27104 12.1954 8.9813 12.3403 8.66439C12.3493 8.64628 12.3493 8.61006 12.3403 8.59195Z" fill="black"/>
<path d="M12.2044 8.41068C12.2044 8.40162 12.1863 8.37446 12.1682 8.39257C11.8875 8.79097 11.7246 9.25275 11.4167 9.63305C11.4076 9.61494 11.3986 9.59683 11.3895 9.62399C11.3805 9.66021 11.3714 9.68738 11.3443 9.71454C11.3262 9.73265 11.3352 9.83225 11.3714 9.79603C11.5525 9.61494 11.6793 9.37952 11.797 9.16221C11.9238 8.92679 12.0324 8.68231 12.1863 8.465C12.2044 8.45595 12.2135 8.42879 12.2044 8.41068Z" fill="black"/>
<path d="M12.123 8.13016C12.123 8.1211 12.1049 8.09394 12.0868 8.11205C11.9872 8.24787 11.8785 8.39274 11.788 8.52856C11.6884 8.68249 11.5706 8.83641 11.5163 9.00845C11.4892 9.07183 11.4801 9.16238 11.5163 9.21671C11.5435 9.25293 11.5525 9.16238 11.5525 9.15333V9.16238C11.5525 9.16238 11.5525 9.16238 11.5525 9.15333C11.5525 9.15333 11.5525 9.12616 11.5525 9.14427C11.5525 9.12616 11.5525 9.11711 11.5616 9.10805C11.5706 9.07183 11.5888 9.02656 11.6069 8.99034C11.6521 8.89074 11.7155 8.8002 11.7698 8.70965C11.8785 8.53761 12.0053 8.36558 12.123 8.20259C12.132 8.18449 12.132 8.15732 12.123 8.13016Z" fill="black"/>
<path d="M11.8694 7.87662C11.8603 7.85851 11.8422 7.85851 11.8331 7.87662C11.7335 8.12109 11.6249 8.35652 11.4891 8.58288C11.3713 8.78208 11.2265 9.00844 11.0273 9.13521C11.0363 9.12615 11.0363 9.10804 11.0363 9.09899C11.0454 9.08088 11.0182 9.00844 11.0001 9.04466C10.9729 9.09899 10.9548 9.15332 10.9548 9.20764C10.9548 9.22575 10.9639 9.27103 10.9911 9.26198C11.0997 9.22576 11.1903 9.12615 11.2627 9.04466C11.3532 8.93601 11.4347 8.8183 11.5072 8.69153C11.643 8.45611 11.7607 8.21164 11.8603 7.95811C11.8784 7.93095 11.8875 7.89473 11.8694 7.87662Z" fill="black"/>
<path d="M11.8424 7.42385C11.6794 7.58683 11.5708 7.78603 11.4621 7.98523C11.3625 8.15727 11.2629 8.32931 11.1542 8.48324C11.1452 8.47418 11.1361 8.46513 11.1271 8.48324C11.109 8.51946 11.0818 8.55567 11.0728 8.59189C11.0728 8.61 11.0728 8.70055 11.109 8.66433C11.272 8.5104 11.3806 8.28404 11.4802 8.09389C11.5889 7.88564 11.7066 7.67738 11.8696 7.5144C11.8877 7.48723 11.8696 7.38763 11.8424 7.42385Z" fill="black"/>
<path d="M11.652 7.10684C11.643 7.08873 11.6249 7.08873 11.6158 7.10684C11.4709 7.36943 11.3985 7.66823 11.2355 7.93081C11.2265 7.91271 11.2174 7.89459 11.2084 7.92176C11.1903 7.96703 11.1721 8.00325 11.154 8.04852C11.145 8.06663 11.154 8.15718 11.1812 8.12096C11.2989 7.99419 11.3713 7.83122 11.4347 7.67729C11.5072 7.5143 11.5615 7.34227 11.652 7.17928C11.6611 7.15212 11.6611 7.12495 11.652 7.10684Z" fill="black"/>
<path d="M11.6523 6.88962C11.6523 6.87152 11.6342 6.85341 11.6161 6.87151C11.5165 6.98017 11.435 7.10693 11.3626 7.2337C11.3264 7.29708 11.2902 7.36046 11.2539 7.42384C11.2449 7.44195 11.2268 7.46912 11.2177 7.48723C11.2177 7.48723 11.2087 7.48723 11.2087 7.49628C11.1996 7.50534 11.1996 7.52344 11.1906 7.5325C11.1725 7.55966 11.1543 7.58683 11.1453 7.61399C11.1362 7.6321 11.1362 7.65021 11.1362 7.66832C11.1362 7.67737 11.1543 7.70454 11.1725 7.68643C11.1725 7.68643 11.1724 7.67738 11.1815 7.67738C11.2177 7.62305 11.2539 7.55966 11.2811 7.50534C11.3173 7.44195 11.3535 7.37857 11.3898 7.31519C11.4622 7.18843 11.5437 7.06166 11.6433 6.95301C11.6614 6.94395 11.6614 6.90773 11.6523 6.88962Z" fill="black"/>
<path d="M11.5345 6.57281C11.453 6.6543 11.3987 6.74484 11.3444 6.84444C11.3172 6.88972 11.2991 6.94404 11.2719 6.98932C11.2719 6.99837 11.2629 7.00742 11.2629 7.01648V7.00743C11.2538 6.99837 11.2448 6.99837 11.2448 7.00743C11.2266 7.0527 11.1995 7.10703 11.1904 7.16135C11.1904 7.17946 11.1995 7.23379 11.2266 7.20663C11.2629 7.17041 11.29 7.11608 11.3172 7.07081C11.3444 7.02554 11.3715 6.97121 11.3896 6.92593C11.444 6.82633 11.4983 6.73579 11.5707 6.65429C11.5888 6.63619 11.5707 6.53659 11.5345 6.57281Z" fill="black"/>
<path d="M11.5616 6.13787C11.5435 6.11976 11.5344 6.13787 11.5344 6.15598C11.4891 6.27369 11.4348 6.38234 11.3714 6.491C11.3171 6.57249 11.2628 6.65398 11.1994 6.72642C11.2084 6.71737 11.2084 6.70831 11.2084 6.69925C11.2175 6.6902 11.2175 6.66303 11.2084 6.65398C11.1994 6.64493 11.1903 6.64493 11.1813 6.65398C11.1722 6.68114 11.1541 6.69926 11.1451 6.72642C11.136 6.75359 11.127 6.78075 11.127 6.80791C11.127 6.81696 11.127 6.86224 11.1541 6.85318C11.2084 6.83507 11.2447 6.78074 11.2809 6.74453C11.3262 6.6902 11.3624 6.62682 11.4076 6.56343C11.4801 6.44572 11.5344 6.32802 11.5797 6.20125C11.5706 6.17409 11.5706 6.14693 11.5616 6.13787Z" fill="black"/>
<path d="M11.3804 5.98416C11.3804 5.97511 11.3623 5.94794 11.3442 5.96605C11.2808 6.04754 11.2174 6.12903 11.1631 6.21958C11.1088 6.30107 11.0544 6.40973 11.0635 6.51838C11.0635 6.54554 11.0907 6.56366 11.0997 6.52744C11.1088 6.48217 11.1178 6.44594 11.1359 6.40067C11.154 6.3554 11.1812 6.31918 11.1993 6.27391C11.2536 6.19242 11.317 6.11998 11.3714 6.04755C11.3804 6.02944 11.3804 6.00227 11.3804 5.98416Z" fill="black"/>
<path d="M11.2085 5.7122C11.1994 5.70315 11.1994 5.69409 11.1904 5.69409C11.1813 5.69409 11.1723 5.70315 11.1723 5.7122C11.1542 5.75748 11.127 5.80275 11.1089 5.84802C11.0998 5.85708 11.0998 5.87518 11.0908 5.88424C11.0908 5.89329 11.0817 5.89329 11.0817 5.90235C11.0817 5.90235 11.0817 5.9114 11.0727 5.9114C11.0636 5.92046 11.0636 5.92951 11.0546 5.93857L11.0455 5.94762C11.0455 5.94762 11.0455 5.94762 11.0365 5.94762H11.0274C11.0274 5.94762 11.0274 5.94762 11.0183 5.94762C11.0274 5.94762 11.0183 5.94762 11.0183 5.94762C11.0183 5.94762 11.0183 5.94762 11.0093 5.93857C11.0002 5.92951 10.9912 5.93856 10.9821 5.94762C10.9731 5.96573 10.9731 5.98384 10.9821 6.00195C10.9912 6.02911 11.0093 6.05628 11.0365 6.05628C11.0546 6.05628 11.0817 6.04722 11.0908 6.02911C11.127 5.99289 11.1542 5.93856 11.1813 5.88424C11.1904 5.85707 11.2085 5.82991 11.2175 5.80275C11.2266 5.77558 11.2266 5.73937 11.2085 5.7122Z" fill="black"/>
<path d="M11.2174 5.39533C11.2084 5.37723 11.1993 5.35912 11.1722 5.37722C11.1269 5.41344 11.0816 5.45872 11.0454 5.50399C11.0273 5.53115 11.0001 5.54926 10.982 5.57643C10.9911 5.54021 11.0001 5.50399 11.0092 5.46777C11.0182 5.45872 11.0092 5.43155 11.0092 5.4225C11.0092 5.4225 11.0001 5.4225 11.0001 5.41344C11.0092 5.40439 11.0092 5.38628 11.0182 5.37722C11.0363 5.34101 11.0545 5.30479 11.0726 5.25952C11.0816 5.24141 11.0816 5.20519 11.0726 5.17802C11.0726 5.16897 11.0635 5.15991 11.0545 5.15991C11.0454 5.15991 11.0363 5.16897 11.0363 5.17802C11.0182 5.21424 11.0001 5.25046 10.982 5.29573C10.973 5.31384 10.9639 5.33195 10.9549 5.35006C10.9458 5.36817 10.9367 5.39534 10.9277 5.41344C10.9186 5.43155 10.9186 5.45871 10.9277 5.47682C10.9367 5.48588 10.9458 5.49494 10.9549 5.48588C10.9639 5.48588 10.9639 5.47682 10.9639 5.46777C10.9549 5.49493 10.9458 5.51304 10.9458 5.54021C10.9367 5.55832 10.9367 5.58548 10.9277 5.60359C10.9277 5.61264 10.9277 5.61264 10.9277 5.6217C10.9277 5.63075 10.9277 5.63076 10.9277 5.63981C10.9277 5.64886 10.9277 5.64886 10.9277 5.65791C10.9277 5.67602 10.9277 5.70319 10.9367 5.7213C10.9458 5.73035 10.9549 5.73941 10.9639 5.7213C11.0092 5.67602 11.0454 5.63075 11.0816 5.58548C11.1178 5.54021 11.1631 5.49494 11.2084 5.45872C11.2174 5.44966 11.2174 5.43155 11.2265 5.4225C11.2174 5.43155 11.2174 5.41344 11.2174 5.39533Z" fill="black"/>
</svg>
