<svg xmlns="http://www.w3.org/2000/svg" viewBox="0 0 19.95 184.67"><defs><style>.cls-1{fill:#231f20;}.cls-2{fill:#fff;}.cls-3{fill:none;stroke:#231f20;stroke-miterlimit:10;}</style></defs><title>star 2</title><g id="Layer_2" data-name="Layer 2"><g id="Layer_1-2" data-name="Layer 1"><path class="cls-1" d="M11.88,104.74a.73.73,0,0,0-.06-.57c-.1-.14-.21-.1-.29,0s-.28.41-.42.61c0-.11,0-.21,0-.32.09-22.08-.19-44.16-.18-66.25q0-9.27,0-18.55,0-4.62,0-9.24c0-1.36.06-2.73-.07-4.09a12.34,12.34,0,0,1-.19-4.07,2,2,0,0,0,0-.49,1.56,1.56,0,0,0,.07-.48A1.45,1.45,0,0,0,10.54.5a1.16,1.16,0,0,0-.3-.28A1.41,1.41,0,0,0,9.49,0a1.05,1.05,0,0,0-.8.34A1.46,1.46,0,0,0,8.37,1a3.15,3.15,0,0,0-.05,1.13.82.82,0,0,0,.16.42l.1.07C9.26,7.62,9,12.7,9,17.76c-.06,5.3,0,10.61,0,15.91,0,10.89-.28,21.77-.39,32.65S8.47,88.09,8.53,99s0,21.87,0,32.81c0,.87,0,1.73,0,2.6-.14.2-.28.39-.4.59a1,1,0,0,0,0,.89c.11.22.28.21.41,0,0,6.51.12,13,.18,19.52l-.15.17a.94.94,0,0,0-.11.85c0,.14.14.3.27.3,0,3.49,0,7,0,10.46a.71.71,0,0,0-.18.27,1,1,0,0,0,.11.86c0,.07.06.15.1.22s.26.28.38.1h0a.23.23,0,0,0,.27-.07,7.59,7.59,0,0,0,.88-.92l.25-.33a4.45,4.45,0,0,1-.25,1.48c-.15.39.22,1.24.48.56a7,7,0,0,0,.27-2.7s0-.05,0-.08l0-.08a.9.9,0,0,0,0-.71.57.57,0,0,0-.08-.14c0-1,0-2.06,0-3.09s0-2.31,0-3.46a5.19,5.19,0,0,0,.44-.77.88.88,0,0,0,0-.67c-.06-.15-.18-.27-.33-.13s-.09.1-.13.15c0-1.15,0-2.31,0-3.46,0-5,0-10,0-15a4,4,0,0,0,.33-.77.92.92,0,0,0,0-.64c-.06-.11-.18-.19-.29-.1v-.16c0-.7,0-1.39,0-2.09,0-.07.09-.13.12-.2a1,1,0,0,0,0-.69.58.58,0,0,0-.16-.25c0-1.56,0-3.12,0-4.68l.09-.16a.84.84,0,0,0,0-.66.36.36,0,0,0-.11-.15c0-.67,0-1.34,0-2,.09-.17.19-.34.26-.52a.86.86,0,0,0,0-.63c0-.11-.16-.24-.27-.15q0-9.59.06-19.19a4.61,4.61,0,0,0,.77-1.42m-1.33,27a.15.15,0,0,0-.1.06c-.19.24-.35.49-.53.73l-.6.76-.13.17c0-.51,0-1,0-1.53a.19.19,0,0,0,.26,0,8.22,8.22,0,0,0,1.09-1.45c0,.43,0,.87,0,1.3M9.19,102a1.28,1.28,0,0,0,.2-.22,1.54,1.54,0,0,0,.16-.27,1.7,1.7,0,0,0,.11-.4.72.72,0,0,0,0-.32.35.35,0,0,0-.1-.17.11.11,0,0,0-.13,0,.31.31,0,0,0-.11.17h0l-.09.17,0,0c0-.51,0-1,0-1.53a.27.27,0,0,0,.11-.12c.16-.39.36-.77.53-1.16a.81.81,0,0,0,0-.61.29.29,0,0,0-.12-.17.14.14,0,0,0-.18,0,3.08,3.08,0,0,0-.36.54q0-.86,0-1.71s0,0,0,0a.11.11,0,0,0,.14,0,1.48,1.48,0,0,0,.4-.37,1.42,1.42,0,0,0,.16-.26,1.67,1.67,0,0,0,.11-.36.6.6,0,0,0,0-.26A.29.29,0,0,0,9.91,95c-.1-.09-.19,0-.21.14l0,.08v0l-.07.12a1.33,1.33,0,0,1-.22.25l-.13.1s0,.06-.05.08v-1.4a.36.36,0,0,0,.13-.14l0-.08a2.87,2.87,0,0,1,.36-.45c.14-.14.29-.27.43-.42a.47.47,0,0,0,.1-.23.91.91,0,0,0,0-.31.8.8,0,0,0-.06-.21c0-.06-.09-.14-.17-.14a1,1,0,0,0-.65.35,2.63,2.63,0,0,0-.19.21c0-.34,0-.68,0-1,0,0,0,0,0,0a.13.13,0,0,0,.16,0,2.3,2.3,0,0,0,.43-.9.85.85,0,0,0,0-.3.46.46,0,0,0-.09-.24.12.12,0,0,0-.15,0,.3.3,0,0,0-.11.17h0a2.77,2.77,0,0,1-.24.48l-.06.09c0-6.86,0-13.72,0-20.58.05-11,.4-22,.42-33,0-5.51,0-11,0-16.54,0-5.18.29-10.38-.05-15.56C9.5,4.25,9.38,3,9.2,1.76a1.15,1.15,0,0,0-.07-.26.75.75,0,0,1,.15-.08,1.12,1.12,0,0,1,.45,0l.13.07A1,1,0,0,0,9.8,2a.87.87,0,0,0,.13.36c-.24,2,.3,3.94.3,5.9q0,4.06,0,8.12,0,8.29,0,16.59c0,11,.14,22,.23,33s0,22.14,0,33.2q0,1.66,0,3.33s-.05,0-.08,0l-.15,0-.09.07a2,2,0,0,0-.24.23c-.12.13-.23.27-.34.42s-.26.36-.38.55v0c0-.58,0-1.15,0-1.73m0,3.32a.16.16,0,0,0,.08-.06c.2-.3.4-.6.62-.9s.41-.5.59-.77q0,1,0,2l-.26.32a10.48,10.48,0,0,0-1,1.34q0-1,0-2m0,3.42a.25.25,0,0,0,.12-.13,7.53,7.53,0,0,1,1.18-1.69q0,.87,0,1.74l0,0a1.69,1.69,0,0,0-.21.26l-.14.21-.05.08-.05.08-.37.58-.43.64c0-.6,0-1.2,0-1.81m0,3.35c.27-.4.55-.8.81-1.21s.34-.54.5-.81q0,1.08,0,2.16l0,0c-.23.29-.43.58-.66.87s-.42.55-.61.84q0-.93,0-1.87m0,2.93a.13.13,0,0,0,.1,0c.1,0,.15-.09.2-.17l0-.06h0l.07-.11.17-.25.35-.47c.13-.18.26-.37.38-.56v3.35s-.07-.07-.11-.06a.59.59,0,0,0-.14,0l-.07.05L10,117a3.75,3.75,0,0,0-.31.31c-.17.2-.33.4-.49.61q0-1.45,0-2.9m0,4.15h0a.2.2,0,0,0,.25-.07c.17-.24.35-.47.54-.69l.28-.34a3.12,3.12,0,0,0,.24-.34v2l-.1.15-.09.14,0,0,0,0c-.13.19-.26.38-.4.56a8.27,8.27,0,0,1-.69.76c0-.76,0-1.51,0-2.27m0,3.67.07,0a8.73,8.73,0,0,0,1-1.07c.11-.14.2-.3.3-.46q0,.82,0,1.63a.24.24,0,0,0-.12.12c-.09.17-.18.34-.28.51l0,0,0,0-.08.12-.19.26a7.92,7.92,0,0,1-.61.66c0-.6,0-1.19,0-1.79m0,3.11.06,0a6.21,6.21,0,0,0,1.28-1.62c0,.55,0,1.1,0,1.66-.17.22-.34.44-.52.65a8.21,8.21,0,0,1-.82.81Zm0,2.89a7.32,7.32,0,0,0,1.34-1.4c0,.52,0,1,0,1.55-.19.23-.36.46-.54.7a10.75,10.75,0,0,1-.81,1q0-.91,0-1.82m0,6.13a12.63,12.63,0,0,0,1.36-1.89q0,.75,0,1.51a7.8,7.8,0,0,0-.82,1.14c-.2.31-.36.64-.54,1,0-.57,0-1.15,0-1.72m0,3.48a.41.41,0,0,0,.14-.16,15.8,15.8,0,0,1,.85-1.53l.35-.54c0,.72,0,1.44,0,2.16l0,0-.06.1v0l-.12.18-.26.35c-.27.35-.57.67-.86,1,0-.54,0-1.07,0-1.61m0,3.09.05,0a11.3,11.3,0,0,0,1.16-1.36l.13-.18c0,.36,0,.71,0,1.07a.14.14,0,0,0-.09.06,12.53,12.53,0,0,0-1.24,1.76c0-.44,0-.89,0-1.33m0,2.83a.64.64,0,0,0,.11-.19v0l0-.06.08-.17c0-.11.1-.21.16-.31l.18-.3,0-.07,0,0,0,0,.06-.09c.21-.31.42-.62.61-.95,0,1.06,0,2.11,0,3.17a.21.21,0,0,0-.16-.11c-.1,0-.16.09-.2.16l-.07.12h0v0l-.05.09-.15.26h0v0h0L9.8,146l-.18.25-.38.55c0-.81,0-1.62,0-2.44m.11,13.12h0c0-.45,0-.9,0-1.35a9.39,9.39,0,0,0,.6-.79c.16-.24.32-.5.47-.75l.17-.3c0,.41,0,.82,0,1.23-.06.14-.12.28-.2.41l-.15.27-.07.11,0,.08,0,.06,0,0,0,.06-.09.13-.18.27-.37.53m0,.94s0,0,.06.06a.17.17,0,0,0,.21-.05c.32-.47.66-.94.94-1.44q0,.63,0,1.27l-.35.47a10.53,10.53,0,0,0-.83,1.3q0-.81,0-1.61m0,4.67,0,0a.11.11,0,0,0,.15,0,.43.43,0,0,0,.11-.26v0l0-.07,0-.14,0-.05v0l.07-.14.07-.13,0-.06v0l.18-.25a.59.59,0,0,0,.07-.52c0-.12-.14-.26-.26-.14a2.44,2.44,0,0,0-.56,1c0-.27,0-.53,0-.8,0-.07,0-.14,0-.21a.18.18,0,0,0,.11,0c.11,0,.2-.11.24-.2a10.89,10.89,0,0,1,.82-1.37c0,.12,0,.24,0,.36v3.14a.15.15,0,0,0-.08.06,5.26,5.26,0,0,1-.86,1l-.2.15,0,0c0-.48,0-1,0-1.43m.62,3.38c-.2.21-.4.4-.61.6,0-.42,0-.84,0-1.27.06,0,.13.07.19,0a3.83,3.83,0,0,0,.7-.68,3.64,3.64,0,0,0,.26-.38v.11c0,.32,0,.65,0,1l-.57.6m.57-13.42h0a1.13,1.13,0,0,0-.25.29l-.22.32c-.14.22-.29.44-.45.65l-.29.39q0-.58,0-1.17a.19.19,0,0,0,.14-.07,7.63,7.63,0,0,0,1.12-1.66q0,.62,0,1.24m-.15-2.48q-.12.24-.26.48l-.08.13,0,.05-.1.15v0l0,.07c-.18.26-.38.51-.59.76,0-.47,0-.94,0-1.41a.14.14,0,0,0,.14-.05,9.18,9.18,0,0,0,1-1.87.69.69,0,0,0-.05-.55.17.17,0,0,0-.13-.09c-.08,0-.12.07-.15.13-.15.26-.29.53-.44.79l-.24.41-.12.19h0q0-.72,0-1.45l.08-.11,0,0v0l.09-.13.17-.24.37-.51a4.7,4.7,0,0,0,.56-1.07c0,1.41,0,2.81,0,4.22a.23.23,0,0,0-.15.13"/><polygon class="cls-2" points="7.97 172.82 9.98 166.33 11.98 172.82 18.48 172.82 13.22 176.84 15.01 183.14 9.93 179.22 4.72 183.33 6.73 176.84 1.48 172.82 7.97 172.82"/><polygon class="cls-3" points="9.98 166.33 11.98 172.82 18.48 172.82 13.22 176.84 15.23 183.33 9.98 179.31 4.72 183.33 6.73 176.84 1.48 172.82 7.97 172.82 9.98 166.33"/><path class="cls-1" d="M3.62,172.8a.72.72,0,0,0-.2.11l-.19.15a2.69,2.69,0,0,0-.33.34.1.1,0,0,0,0,.09s0,0,0,0a2.68,2.68,0,0,1,.33-.34l.18-.14.19-.14s0-.1,0-.09"/><path class="cls-1" d="M4.32,172.71l-.08.08A2,2,0,0,0,4,173l-.56.57-.25.23a.09.09,0,0,0,0,.08s0,.06,0,0a6,6,0,0,0,.5-.48c.17-.17.35-.35.51-.53l.1-.13s0-.11,0-.08"/><path class="cls-1" d="M5.94,172.9a1.48,1.48,0,0,0-.4.24,3.77,3.77,0,0,0-.36.31c-.23.23-.45.47-.67.7a4.52,4.52,0,0,1-.39.37.09.09,0,0,0,0,.08s0,.06,0,0c.5-.4.87-.94,1.37-1.34A4.28,4.28,0,0,1,6,173s0-.13,0-.11"/><path class="cls-1" d="M5.08,172.92a.67.67,0,0,0-.22.13s0-.06,0-.05a.89.89,0,0,0-.28.17c-.11.09-.22.19-.32.29l-.63.64s0,.15,0,.11l.61-.63c.1-.1.21-.2.32-.29l.18-.14a4,4,0,0,0-.32.36,4.66,4.66,0,0,1-.64.74.09.09,0,0,0,0,.08s0,.06,0,0a4.52,4.52,0,0,0,.64-.72A1.92,1.92,0,0,1,5.1,173s0-.14,0-.12"/><path class="cls-1" d="M4.49,172.91s0,0,0,0-.16.18-.24.27l-.28.3a3.52,3.52,0,0,1-.6.5s0,.15,0,.12a3.57,3.57,0,0,0,.6-.5l.28-.3a2.79,2.79,0,0,0,.25-.29.1.1,0,0,0,0-.08"/><path class="cls-1" d="M3.76,172.81s-.06,0-.08.07l-.1.09-.24.2a2.59,2.59,0,0,0-.46.43.1.1,0,0,0,0,.09s0,0,0,0a2.61,2.61,0,0,1,.47-.43l.24-.19a.5.5,0,0,0,.17-.2s0-.08,0-.08"/><path class="cls-1" d="M2.91,172.93s0-.05,0,0a.89.89,0,0,0-.44.48.1.1,0,0,0,0,.09s0,0,0,0a.73.73,0,0,1,.16-.24,1.46,1.46,0,0,1,.24-.19.08.08,0,0,0,0-.07"/><path class="cls-1" d="M6.42,172.78a2.78,2.78,0,0,1-.66.79c-.27.24-.57.46-.85.69s-.29.24-.43.37,0,.15,0,.11c.51-.5,1.15-.86,1.62-1.4a2.43,2.43,0,0,0,.23-.31h0a.37.37,0,0,0,.09-.18s0-.12-.05-.06"/><path class="cls-1" d="M7.08,172.84s0,0,0,0-.33.32-.51.46L6,173.7a9.88,9.88,0,0,0-1.06.86,3.42,3.42,0,0,0-.48.58s0,.15,0,.09a8.56,8.56,0,0,1,2-1.81A5,5,0,0,0,7,173s0,0,0,0a1,1,0,0,1,0-.1.1.1,0,0,0,0-.09"/><path class="cls-1" d="M6.85,173.51a1.89,1.89,0,0,1-.63.74c-.29.24-.61.45-.91.67a3.78,3.78,0,0,0-.41.34s0,.15,0,.11a6.86,6.86,0,0,1,.83-.64,5.31,5.31,0,0,0,.87-.73l.15-.19s0,0,0,0a.75.75,0,0,0,.1-.23h0s0-.12-.06,0"/><path class="cls-1" d="M6.9,174a7.59,7.59,0,0,1-1.69,1.52s0,.15,0,.12a6.08,6.08,0,0,0,.9-.7,9.21,9.21,0,0,0,.71-.73h0l.06,0a.15.15,0,0,0,0-.09s0-.11,0-.07"/><path class="cls-1" d="M7.13,174.43a.66.66,0,0,0-.18.1l-.21.14-.45.33a3.59,3.59,0,0,0-.76.76.1.1,0,0,0,0,.09s0,0,0,0a3.56,3.56,0,0,1,.76-.76l.43-.32.21-.14a1,1,0,0,0,.18-.12s0-.11,0-.1"/><path class="cls-1" d="M7.41,174.72a4.88,4.88,0,0,0-.73.52c-.24.19-.47.38-.72.56,0,0,0,.15,0,.12.25-.18.48-.37.72-.56a7.56,7.56,0,0,1,.68-.48v0s0,.05,0,.06,0,0,0,0,0-.1,0-.14,0-.13,0-.11"/><path class="cls-1" d="M8.24,174.76a11.69,11.69,0,0,0-1,.64,5.69,5.69,0,0,0-.88.77s0,.15,0,.11a7.84,7.84,0,0,1,1.76-1.34h0a.08.08,0,0,0,0,.06s0,0,0,0l.09-.16s0-.13,0-.11"/><path class="cls-1" d="M8.78,174.9s0,0,0,0,0,0,0,0c-.18.1-.35.22-.52.34l-.53.38-1,.78s0,.15,0,.12c.58-.43,1.16-.88,1.76-1.28l.26-.16,0,0h0v0a.1.1,0,0,0,0-.11"/><path class="cls-1" d="M8.57,175.3c-.14.11-.28.24-.42.35l-.43.34c-.29.22-.59.43-.9.64,0,0,0,.15,0,.12.31-.21.61-.42.91-.64l.43-.34a5.06,5.06,0,0,0,.41-.35s0-.14,0-.11"/><path class="cls-1" d="M8.36,176a.14.14,0,0,0,0-.14s0,0,0,0v0c-.24.17-.49.33-.72.51a3.3,3.3,0,0,0-.64.61.1.1,0,0,0,0,.09s0,0,0,0a3.53,3.53,0,0,1,.75-.69l.42-.29.1-.07.07,0s0,0,0,0h0Z"/><path class="cls-1" d="M8.29,176.47a.41.41,0,0,0-.27.07,2.54,2.54,0,0,0-.34.22c-.25.18-.48.38-.7.58l-.28.25s0,.15,0,.11l.56-.49a4.49,4.49,0,0,1,.7-.52.9.9,0,0,1,.3-.11s0-.09,0-.1"/><path class="cls-1" d="M8.21,176.85H8.16a.57.57,0,0,0-.11.08l-.37.3-.9.75-.29.26s0,.15,0,.11c.21-.2.44-.38.66-.56l.84-.7.14-.11,0,0h0s0-.08,0-.09"/><path class="cls-1" d="M8.09,177.43a.35.35,0,0,0-.28.07,3.08,3.08,0,0,0-.39.29,11.31,11.31,0,0,0-.84.78l-.3.31s0,.14,0,.1c.2-.22.41-.42.62-.63a5.78,5.78,0,0,1,.83-.69.64.64,0,0,1,.32-.13s0-.09,0-.1"/><path class="cls-1" d="M7.55,178.32h0l-.18.15-.19.15-.37.29a5.16,5.16,0,0,0-.68.64s0,.14,0,.1a5.21,5.21,0,0,1,.69-.64l.36-.28c.1-.08.21-.16.31-.25h0s0,0,.06-.05a.11.11,0,0,0,0-.1"/><path class="cls-1" d="M6.84,179.43a.78.78,0,0,0-.49.17,1.7,1.7,0,0,0-.39.36.09.09,0,0,0,0,.08s0,0,0,0a1.56,1.56,0,0,1,.86-.55s0-.07,0-.08"/><path class="cls-1" d="M6.59,179.81a.3.3,0,0,0-.16.06l-.16.11a2.72,2.72,0,0,0-.27.27.08.08,0,0,0,0,.07s0,0,0,0a2.67,2.67,0,0,1,.27-.26l.15-.11.08,0,.08,0s0-.07,0-.07"/><path class="cls-1" d="M6.38,180.22a.39.39,0,0,0-.14.06l-.13.09a2.63,2.63,0,0,0-.24.22.09.09,0,0,0,0,.08s0,0,0,0a2.51,2.51,0,0,1,.23-.21l.12-.09.14-.08a.06.06,0,0,0,0,0s0,0,0,0"/><path class="cls-1" d="M5.86,180.82s0,0,0,0a.48.48,0,0,0-.12.11.91.91,0,0,0-.1.14.1.1,0,0,0,0,.09l0,0,0,0,0,0h0v0l0-.06.11-.12a.08.08,0,0,0,0-.07"/><path class="cls-1" d="M8.56,180s0,0,0,0h0l0,0h0v0c0-.09,0-.18-.07-.26s0,0,0,0a.1.1,0,0,0,0,.09c0,.08,0,.15.06.23l0,.11a.12.12,0,0,0,.05.06s0,0,.06,0a.08.08,0,0,0,0-.06"/><path class="cls-1" d="M8.77,179.89l-.05-.08-.06-.11a1.45,1.45,0,0,0-.14-.25s0,0,0,0a.1.1,0,0,0,0,.09,1.41,1.41,0,0,1,.14.24l.06.11s0,.06.07.07,0,0,0,0a.09.09,0,0,0,0-.06"/><path class="cls-1" d="M8.93,179.77s0-.09-.07-.14l-.06-.14c0-.1-.07-.2-.1-.29s0,0,0,0a.1.1,0,0,0,0,.09c0,.11.07.21.11.32l.07.15a.42.42,0,0,0,.09.13s0,0,0,0a.09.09,0,0,0,0-.07"/><path class="cls-1" d="M9.18,179.52c0-.05-.06-.1-.08-.15a1.24,1.24,0,0,1-.06-.17c0-.12-.06-.23-.1-.35s0,0,0,0a.1.1,0,0,0,0,.09c0,.12.07.25.11.37a1.36,1.36,0,0,0,.07.18l0,.08s0,.05.06.06,0-.07,0-.08"/><path class="cls-1" d="M9.42,179.26a.31.31,0,0,1-.07-.13,2,2,0,0,1-.07-.25,2.29,2.29,0,0,1-.08-.49s0-.06,0-.06,0,0,0,.06a2.51,2.51,0,0,0,.09.57,1.85,1.85,0,0,0,.09.28s0,.13.1.12,0-.08,0-.1"/><path class="cls-1" d="M9.65,179.21a0,0,0,0,0,0,0c0-.16-.08-.32-.11-.49a3.48,3.48,0,0,1-.08-.63s0-.06,0-.06,0,0,0,.06a3.62,3.62,0,0,0,.08.66c0,.22.08.44.14.65,0,.06.06,0,.06,0v-.13"/><path class="cls-1" d="M9.95,179.15a.65.65,0,0,1,0-.1s0,0,0,0a4.68,4.68,0,0,1-.12-.65c0-.26,0-.52-.1-.78,0,0,0-.05,0,0s0,.06,0,.08c0,.27.07.54.1.81a3.16,3.16,0,0,0,.16.78,0,0,0,0,0,0,0,.09.09,0,0,0,0-.07"/><path class="cls-1" d="M10.2,178.79c0-.16,0-.31,0-.47,0-.32-.07-.63-.1-.95,0,0,0-.05,0,0s0,.06,0,.08c0,.3.06.61.09.91,0,.15,0,.3,0,.46s0,.27,0,.4,0,.08,0,0a1.68,1.68,0,0,0,0-.41"/><path class="cls-1" d="M10.55,177.5s0,0,0,0a4.1,4.1,0,0,0-.07.91c0,.15,0,.3,0,.46s0,.13,0,.2a1.25,1.25,0,0,0,0,.19c0,.05,0,.05.06,0a.86.86,0,0,0,0-.17c0-.07,0-.13,0-.2s0-.29,0-.44a3.91,3.91,0,0,1,.06-.88s0-.07,0-.09"/><path class="cls-1" d="M10.8,178.21c-.08.4,0,.81-.09,1.22,0,0,0,0,0,0s0,.13,0,.2,0,.1.06,0c.13-.47,0-1,.13-1.46,0-.06,0-.12-.06,0"/><path class="cls-1" d="M11.13,178.54s0,0,0,0c0,.21,0,.41-.05.62l0,.3s0,0,0,.06,0,0,0,0,0,0,0,0,0,.06,0,0,0,0,0,0,0,0,0,0h0v0a.88.88,0,0,0,0-.1l0-.3c0-.2,0-.41.05-.61,0,0,0-.07,0-.08"/><path class="cls-1" d="M11.35,179.09a.1.1,0,0,0,0-.09s0,0,0,0a3.48,3.48,0,0,0-.09,1s0,.1.05,0a.59.59,0,0,0,0-.13.08.08,0,0,0,0-.07h0c0-.1,0-.2,0-.3a2.85,2.85,0,0,1,.07-.45"/><path class="cls-1" d="M11.69,179.71a.1.1,0,0,0,0-.09s0,0,0,0a1.53,1.53,0,0,0,0,.33,2.1,2.1,0,0,0,0,.33s0,0,0,0,0,0,0-.06,0-.2,0-.3a1.27,1.27,0,0,1,0-.28"/><path class="cls-1" d="M11.78,179.49s0,.06,0,.06,0-.06,0-.06"/><path class="cls-1" d="M11.93,179.79s0,0,0,0a1.9,1.9,0,0,0,0,.32c0,.12,0,.24,0,.35s0,.05,0,.08a.08.08,0,0,0,0,0s0,0,0,0a.16.16,0,0,0,0-.08c0-.05,0-.1,0-.15s0-.13,0-.19v-.31h0a.1.1,0,0,0,0-.08"/><path class="cls-1" d="M12.24,180s0,0,0,.06v.38q0,.09,0,.18a.45.45,0,0,0,0,.13s0,0,0,0a.44.44,0,0,0,0-.13c0-.06,0-.12,0-.18v-.38s0-.06,0-.06"/><path class="cls-1" d="M12.41,179.9s0,.06,0,.06,0-.06,0-.06"/><path class="cls-1" d="M12.51,180.29s0,0,0,0a1.92,1.92,0,0,0,0,.44q0,.11,0,.21a.56.56,0,0,0,0,.15s0,0,0,0a.48.48,0,0,0,0-.14c0-.07,0-.13,0-.2a1.7,1.7,0,0,1,0-.4.1.1,0,0,0,0-.09"/><path class="cls-1" d="M12.8,180s0,0,0,0a2.61,2.61,0,0,0,0,.65,1.41,1.41,0,0,1,0,.56s0,.1,0,.07a.36.36,0,0,0,.07-.22,2.68,2.68,0,0,0,0-.32,2.79,2.79,0,0,1,0-.67s0-.07,0-.09"/><path class="cls-1" d="M13.17,179.83s0,0,0,0a6.22,6.22,0,0,0-.07.82c0,.13,0,.27,0,.4a2.49,2.49,0,0,0,0,.34s0,0,0,0a2.74,2.74,0,0,0,0-.33c0-.13,0-.27,0-.4a6.07,6.07,0,0,1,.07-.81s0-.07,0-.08"/><path class="cls-1" d="M13.5,180.16s0,0,0,0a6.42,6.42,0,0,0-.08.75l0,.37c0,.1,0,.21,0,.31s0,.08,0,0a1.58,1.58,0,0,0,0-.3l0-.38a6.32,6.32,0,0,1,.08-.75s0-.07,0-.08"/><path class="cls-1" d="M13.76,180.91s0,0,0,0a5.06,5.06,0,0,0,0,1s0,.05,0,.07,0,0,0,0a.1.1,0,0,0,0,0s0,0,.05,0,0-.1,0-.15,0-.12,0-.19a3,3,0,0,1,0-.74s0-.07,0-.09"/><path class="cls-1" d="M14,182.25h0v-.06h0v-.06c0-.13,0-.25,0-.38s0-.11,0-.16,0-.06,0-.06,0,0,0,.06,0,.25,0,.37,0,.13,0,.2a.4.4,0,0,0,0,.16s.05.06.08,0,0-.11,0-.09"/><path class="cls-1" d="M14.29,182.5h0v0h0v0h0s0-.06,0-.09,0-.23,0-.34,0-.06,0-.06,0,0,0,.06,0,.25,0,.38a.79.79,0,0,0,0,.18.11.11,0,0,0,0,.06h0s0-.08,0-.1"/><polyline class="cls-1" points="14.25 182.59 14.24 182.59 14.25 182.59"/><path class="cls-1" d="M14.56,182.71c0-.05,0-.1,0-.15a3,3,0,0,0-.06-.33s0,0,0,0a.1.1,0,0,0,0,.09s0,.08,0,.13l0,.17,0,.15v.08h0s0,0,0,0a.2.2,0,0,0,0-.13"/><path class="cls-1" d="M14.51,182.83h0"/><path class="cls-1" d="M15.09,183.44l-.05-.15,0-.14a1.56,1.56,0,0,1,0-.3s0-.06,0-.06,0,0,0,.06,0,.09,0,.14v0h0v0h0v-.08c0-.08,0-.17,0-.25s0-.06,0,0,0,.06,0,.08,0,.2.06.29a.34.34,0,0,0,0,.11.08.08,0,0,0,.05,0s0,0,0,0,0,.1,0,.16,0,.11,0,.16a.72.72,0,0,0,.06.16s0,0,0,0a.1.1,0,0,0,0-.07"/><path class="cls-1" d="M13.82,173s0,0,0,0a3.31,3.31,0,0,1-.18.46c-.07.15-.15.29-.21.45a.11.11,0,0,0,0,.08s0,0,0,0h0v0l0,0c.07-.13.13-.26.19-.39a3.46,3.46,0,0,0,.18-.47.1.1,0,0,0,0-.09"/><path class="cls-1" d="M14.14,173s0,0,0,0a4.22,4.22,0,0,0-.28.49c-.07.15-.15.3-.22.45a.26.26,0,0,0,0,.05.14.14,0,0,0,0,.09s0,0,0,0,.16-.33.24-.5a4.13,4.13,0,0,1,.28-.48.1.1,0,0,0,0-.09"/><path class="cls-1" d="M14.41,173s0,0,0,0c-.23.54-.59,1-.78,1.58,0,0,0,.14.06.06a1.63,1.63,0,0,1,.09-.17.08.08,0,0,0,0-.06h0c.2-.45.48-.87.68-1.33a.11.11,0,0,0,0-.09"/><path class="cls-1" d="M14.75,173s0,0,0,0c-.09.21-.17.43-.26.65s-.19.42-.29.63c0,0,0,.14,0,.1a.21.21,0,0,0,.06-.1,5,5,0,0,0,.24-.54c.09-.22.17-.43.26-.65a.11.11,0,0,0,0-.09"/><path class="cls-1" d="M14.95,173.11s0,0,0,0l-.19.43c-.06.14-.14.28-.19.42s0,.12,0,.08a.17.17,0,0,0,0-.08l.16-.34.19-.42a.11.11,0,0,0,0-.09"/><path class="cls-1" d="M15.22,173a1.06,1.06,0,0,0-.22.35l-.08.2c0,.06-.05.13-.07.19h0a.09.09,0,0,0,0,.07s0,0,0,0v0l0,0a.07.07,0,0,0,0,0l0-.06.07-.19a1,1,0,0,1,.2-.33s0-.15,0-.11"/><path class="cls-1" d="M15.39,173.1s0,0,0,0a5.92,5.92,0,0,1-.27.57.1.1,0,0,0,0,.09s0,0,0,0a1.31,1.31,0,0,1,.07-.12v0a4,4,0,0,0,.2-.46.1.1,0,0,0,0-.09"/><path class="cls-1" d="M15.62,173.13s0,0,0,0l-.09.17-.05.11,0,0v0h0a.12.12,0,0,0,0,.06s0,.05,0,0l0,0h0l0,0,.12-.23,0-.09a.11.11,0,0,0,0-.09"/><path class="cls-1" d="M15.81,173s0,0,0,0l-.07.22,0,.11h0v0l0,0h0v0h0v0s0,.09,0,.07a.14.14,0,0,0,0,0h0l0-.09.11-.33a.1.1,0,0,0,0-.09"/><path class="cls-1" d="M16.1,173s0,0,0,0-.05.14-.07.21a.39.39,0,0,0,0,.11s0,.07,0,.08,0,0,0,0a.07.07,0,0,0,0,0h0l0-.08,0-.09,0,0h0v0a.11.11,0,0,0,0-.09"/><path class="cls-1" d="M16.26,173l0,0,0,0,0,.09,0,.08a.2.2,0,0,0,0,.1s0,0,0,0,0,0,0,0a.09.09,0,0,0,0,0v-.07h0l0-.07a.11.11,0,0,0,0-.09"/><path class="cls-1" d="M16.54,173l0,0,0,0a.46.46,0,0,0,0,.17.42.42,0,0,0,0,.1.13.13,0,0,0,0,.09s0,0,0,0a.07.07,0,0,0,0,0,.33.33,0,0,0,0-.05s0,0,0,0h0s0,0,0,0h0v0h0v0h0v0a.11.11,0,0,0,0-.09"/><path class="cls-1" d="M16.71,173h0a.29.29,0,0,0,0,.18s0,0,0,0,0,0,0,0,0,0,0,0h0v0h0v0a.07.07,0,0,0,0,0,.07.07,0,0,0,0,0"/><path class="cls-1" d="M13.41,173.08s0,0,0,0a3.92,3.92,0,0,1-.35.73v0s0-.1,0-.06a.65.65,0,0,0-.07.2s0,.11,0,.08a1.06,1.06,0,0,0,.27-.4c.07-.15.12-.31.19-.45a.11.11,0,0,0,0-.09"/><path class="cls-1" d="M13.1,173a4.44,4.44,0,0,1-.34.73,4.63,4.63,0,0,1-.4.59h0s0-.1,0,0a.76.76,0,0,0,0,.17s0,.1,0,.07a1.88,1.88,0,0,0,.25-.31c.08-.12.16-.25.23-.37a4.61,4.61,0,0,0,.35-.76s0-.14-.06-.06"/><path class="cls-1" d="M12.82,173s0,0,0,0a9.51,9.51,0,0,0-.49.84c-.08.14-.16.28-.24.42l-.14.21-.06.08s0-.07,0,0a1.16,1.16,0,0,0-.06.16s0,.09,0,.07a.86.86,0,0,0,.15-.18l.12-.18c.09-.14.17-.28.25-.43a9.58,9.58,0,0,1,.49-.86.08.08,0,0,0,0-.07"/><path class="cls-1" d="M12.41,172.89c-.17.26-.32.53-.46.81l-.43.79h0l0,0a.08.08,0,0,0,0,.08c0,.06.08,0,.09-.05l.12-.22.24-.46c.16-.3.32-.61.51-.9,0,0,0-.12,0-.07"/><path class="cls-1" d="M12,172.95s0,0,0,0c-.15.32-.34.62-.52.92a5.79,5.79,0,0,0-.42.79l0,0a.56.56,0,0,0,0,.14s0,.11,0,.05a7.81,7.81,0,0,1,.47-.93c.18-.3.36-.6.51-.91a.08.08,0,0,0,0-.07"/><path class="cls-1" d="M11.83,172.76s0,0,0,0c-.29.4-.45.87-.76,1.26,0,0,0,0,0,0a.23.23,0,0,1,0,.09s0,.12,0,.08a2.61,2.61,0,0,0,.43-.65,6.15,6.15,0,0,1,.4-.7.08.08,0,0,0,0-.07"/><path class="cls-1" d="M11.16,173.53s0,0,0,0"/><path class="cls-1" d="M11.75,172.48s0,0,0,0l-.31.42a2.26,2.26,0,0,0-.28.49.24.24,0,0,0,0,.21s0-.05,0-.07h0s0,0,0,0v0a.67.67,0,0,1,0-.12,2.68,2.68,0,0,1,.17-.29c.11-.18.24-.35.36-.51a.08.08,0,0,0,0-.07"/><path class="cls-1" d="M11.5,172.22s0,0,0,0a6.07,6.07,0,0,1-.35.71,1.57,1.57,0,0,1-.47.56v0s0-.1,0-.05a.39.39,0,0,0,0,.17s0,.06,0,.05a.7.7,0,0,0,.28-.22,2.48,2.48,0,0,0,.25-.36,6,6,0,0,0,.36-.75.09.09,0,0,0,0-.08"/><path class="cls-1" d="M11.46,171.76a2.64,2.64,0,0,0-.39.57,4.78,4.78,0,0,1-.32.51s0,0,0,0a.39.39,0,0,0-.05.11s0,.11,0,.08a2.37,2.37,0,0,0,.38-.58,2.67,2.67,0,0,1,.39-.59s0-.13,0-.1"/><path class="cls-1" d="M11.27,171.44s0,0,0,0c-.14.27-.22.57-.39.83,0,0,0,0,0,0l-.06.13s0,.11,0,.08a1.55,1.55,0,0,0,.26-.45c.07-.17.13-.34.22-.5a.08.08,0,0,0,0-.07"/><path class="cls-1" d="M11.27,171.22s0,0,0,0a2.38,2.38,0,0,0-.26.36l-.11.19,0,.07h0v0l0,.09h0a.08.08,0,0,0,0,.06s0,0,0,0h0a1.85,1.85,0,0,0,.1-.17l.11-.2a2.36,2.36,0,0,1,.26-.37.07.07,0,0,0,0-.07"/><path class="cls-1" d="M11.16,170.89a1.14,1.14,0,0,0-.19.28l-.08.15v0h0s0,0,0,0a.63.63,0,0,0-.05.15s0,.08,0,.05a.72.72,0,0,0,.09-.14l.08-.15a1.11,1.11,0,0,1,.19-.27s0-.12,0-.09"/><path class="cls-1" d="M11.18,170.45s0,0,0,0a2,2,0,0,1-.17.34,1.18,1.18,0,0,1-.18.24v0a.05.05,0,0,0,0,0s0,0,0,0l0,.07a.26.26,0,0,0,0,.08s0,.06,0,0a.39.39,0,0,0,.13-.11,1.53,1.53,0,0,0,.12-.18,2,2,0,0,0,.18-.37.07.07,0,0,0,0-.06"/><path class="cls-1" d="M11,170.3s0,0,0,0-.13.17-.19.25a.5.5,0,0,0-.1.3s0,0,0,0a1.07,1.07,0,0,1,0-.13l.07-.12.17-.23a.08.08,0,0,0,0-.07"/><path class="cls-1" d="M10.83,170l0,0,0,0-.07.14,0,0h0l0,0h0s0,0,0,0h0s0,0,0,0a.07.07,0,0,0,0,.05s0,.05.05.05a.07.07,0,0,0,.06,0,.54.54,0,0,0,.09-.15l0-.08a.1.1,0,0,0,0-.09"/><path class="cls-1" d="M10.83,169.7s0,0,0,0l-.13.13-.06.07a.7.7,0,0,1,0-.11.06.06,0,0,0,0,0h0l0,0,.06-.12a.09.09,0,0,0,0-.08l0,0,0,0-.06.12,0,.06,0,.07a.09.09,0,0,0,0,.06s0,0,0,0v0l0,.08v.08h0v0h0v0a.09.09,0,0,0,0,.06s0,0,0,0l.12-.14.13-.13a.07.07,0,0,0,0,0,.11.11,0,0,0,0,0"/></g></g></svg>